# Blender 4.5.5 LTS
# www.blender.org
mtllib Damage_Vegetative_Deadhead_damage.mtl
o SM_Vegeatative_Severe
v -0.213645 1.418327 0.013016
v -0.137086 1.839708 -0.027059
v -0.151590 0.563480 0.080661
v -0.165688 1.414063 0.025944
v -0.093152 1.831104 -0.016754
v -0.080270 1.827178 -0.034821
v -0.150331 1.411986 0.006689
v -0.125493 0.563382 0.052656
v -0.075161 -0.082671 0.050441
v -0.103336 -0.082671 0.080312
v -0.151114 -0.082671 0.081708
v -0.180985 -0.082671 0.053532
v -0.106428 -0.082671 -0.025512
v -0.076557 -0.082671 0.002663
v -0.182381 -0.082671 0.005755
v -0.154206 -0.082671 -0.024117
v -0.224145 0.563737 0.055603
v -0.196134 0.563639 0.081992
v -0.194277 1.416928 0.028803
v -0.118800 1.836762 -0.013250
v -0.128689 1.834988 -0.071326
v -0.201593 1.415745 -0.035050
v -0.199617 0.563663 -0.017159
v -0.225714 0.563748 0.010837
v -0.216946 1.417793 -0.015813
v -0.141571 1.838911 -0.053267
v -0.084715 1.826372 -0.061050
v -0.153644 1.411455 -0.022134
v -0.127072 0.563390 0.007890
v -0.155087 0.563501 -0.018489
v -0.173018 1.412885 -0.037901
v -0.103002 1.829323 -0.074849
v -0.115466 0.246179 0.050892
v -0.188648 0.238084 0.081187
v -0.142605 0.243119 0.079842
v -0.217441 0.235026 0.053867
v -0.191646 0.238084 -0.021405
v -0.116824 0.246180 0.004577
v -0.218794 0.235026 0.007549
v -0.145608 0.243120 -0.022747
v 0.186370 2.706151 -0.119350
v 0.137284 2.565698 -0.094123
v 0.146088 2.560068 -0.108078
v 0.188473 2.704972 -0.122769
v 0.178338 2.708829 -0.121128
v 0.104250 2.578904 -0.101332
v 0.118403 2.574200 -0.091087
v 0.181796 2.707895 -0.118610
v 0.187367 2.704751 -0.127646
v 0.141612 2.559164 -0.127945
v 0.127405 2.563727 -0.138155
v 0.183927 2.705674 -0.130161
v 0.179352 2.707417 -0.129421
v 0.108516 2.572233 -0.135102
v 0.099769 2.578002 -0.121186
v 0.177231 2.708608 -0.126006
v 0.744748 1.684351 -0.744667
v -0.073872 0.778125 -0.074636
v -0.011143 0.786307 0.008051
v 0.301952 1.551031 -0.436747
v 0.083999 1.264768 -0.256456
v 0.214395 1.270434 -0.111139
v 0.425290 1.555733 -0.301404
v 0.384474 1.495707 -0.385963
v 0.172406 1.207011 -0.201600
v -0.068089 0.743841 -0.040942
v -0.016318 0.735714 -0.062830
v -0.036990 0.748582 -0.000458
v 0.501623 1.659344 -0.538451
v 0.536301 1.608527 -0.520703
v 0.558218 1.659502 -0.474537
v 0.019547 1.159283 -0.383614
v -0.029337 0.840558 -0.050978
v -0.003285 0.853185 -0.030071
v -0.031542 1.482761 -0.192677
v -0.042129 1.244334 -0.093267
v 0.009050 1.265980 -0.060322
v 0.016209 1.511668 -0.170748
v -0.006721 1.454579 -0.163378
v -0.011794 1.215738 -0.095450
v -0.021076 0.808975 -0.044297
v -0.013613 0.821943 -0.061842
v -0.008275 0.815875 -0.034024
v 0.001992 1.347630 -0.303645
v 0.011903 1.318718 -0.282874
v 0.024206 1.361074 -0.292920
v -0.335347 1.893150 0.333392
v -0.190763 0.519748 0.045964
v -0.214254 0.529436 0.032868
v -0.260779 1.396192 0.188383
v -0.218816 0.991121 0.108165
v -0.265319 1.005111 0.087940
v -0.303797 1.409283 0.170178
v -0.284144 1.353212 0.188871
v -0.244340 0.947209 0.108216
v -0.194991 0.481042 0.038903
v -0.204416 0.490937 0.052581
v -0.206597 0.486619 0.032525
v -0.305325 1.696989 0.255155
v -0.314966 1.655146 0.259014
v -0.325308 1.701786 0.246567
v -0.623714 2.515866 -0.333102
v -0.214410 0.348250 0.020201
v -0.140484 0.374780 -0.010851
v -0.437028 1.704934 -0.083675
v -0.324249 1.067342 0.011307
v -0.189144 1.113920 -0.061447
v -0.313093 1.748376 -0.151765
v -0.386746 1.658852 -0.155156
v -0.268589 1.021273 -0.064935
v -0.188068 0.293145 0.008561
v -0.197683 0.317719 -0.033390
v -0.151799 0.307422 -0.006663
v -0.508222 2.189567 -0.198242
v -0.492936 2.136649 -0.242113
v -0.450276 2.207851 -0.230092
v 0.188467 1.328885 0.139255
v 0.309397 1.732192 0.227283
v 0.103341 0.474091 0.103608
v 0.212004 1.316021 0.181275
v 0.331624 1.715838 0.264011
v 0.353105 1.710439 0.259866
v 0.236221 1.312063 0.178312
v 0.141439 0.470573 0.102369
v 0.117661 -0.174057 0.040644
v 0.076780 -0.170349 0.041712
v 0.042716 -0.162241 0.009176
v 0.042212 -0.156100 -0.031422
v 0.150391 -0.165912 -0.034249
v 0.150895 -0.172054 0.006349
v 0.075446 -0.154097 -0.065717
v 0.116327 -0.157805 -0.066785
v 0.071090 0.487660 0.035285
v 0.071577 0.481805 0.073319
v 0.190439 1.323617 0.163641
v 0.311893 1.725659 0.249302
v 0.346455 1.727745 0.201606
v 0.230973 1.326060 0.113810
v 0.140142 0.486085 0.001739
v 0.102050 0.489592 0.002971
v 0.206769 1.329987 0.116758
v 0.324978 1.733141 0.205744
v 0.368729 1.711374 0.238341
v 0.254510 1.313171 0.155811
v 0.172390 0.472503 0.070047
v 0.171895 0.478370 0.032020
v 0.252523 1.318469 0.131440
v 0.366226 1.717911 0.216329
v 0.120085 0.156601 0.061292
v 0.047000 0.160009 0.029893
v 0.080296 0.157153 0.061992
v 0.046345 0.162924 -0.009804
v 0.118362 0.164310 -0.043748
v 0.152299 0.158544 0.028043
v 0.078564 0.164866 -0.043051
v 0.151653 0.161456 -0.011651
v 0.680580 2.534105 0.515254
v 0.550478 2.240824 0.427361
v 0.564598 2.235827 0.423883
v 0.682704 2.533324 0.514647
v 0.678319 2.536387 0.511625
v 0.535735 2.255459 0.403436
v 0.537476 2.249713 0.418132
v 0.678601 2.535489 0.513890
v 0.684220 2.533408 0.512289
v 0.574745 2.236430 0.408902
v 0.572951 2.242115 0.394173
v 0.683943 2.534298 0.510031
v 0.681963 2.535682 0.508667
v 0.559896 2.250982 0.384957
v 0.545841 2.256040 0.388468
v 0.679834 2.536471 0.509267
v 0.785511 1.700538 0.542951
v 0.205582 0.549471 0.014696
v 0.129444 0.558425 0.085136
v 0.462844 1.430487 0.180162
v 0.314442 1.080324 0.048563
v 0.184177 1.091983 0.193640
v 0.341809 1.441197 0.317231
v 0.431036 1.387201 0.277959
v 0.279662 1.035344 0.153099
v 0.179149 0.512568 0.031536
v 0.207195 0.519136 0.080482
v 0.141782 0.517744 0.066256
v 0.563536 1.593191 0.339323
v 0.558507 1.548936 0.385325
v 0.506575 1.595904 0.402853
v 0.104649 1.779934 0.793626
v 0.100565 0.123705 -0.003390
v 0.075131 0.152408 -0.029912
v 0.128992 1.175971 0.415399
v 0.126962 0.686906 0.190250
v 0.075899 0.736326 0.149503
v 0.081769 1.221753 0.378819
v 0.096955 1.139112 0.411964
v 0.092350 0.650356 0.185823
v 0.090971 0.081874 -0.023325
v 0.081314 0.096401 0.007911
v 0.078503 0.096974 -0.036132
v 0.115155 1.545746 0.598678
v 0.098876 1.501121 0.602266
v 0.093061 1.565518 0.581243
v -0.030832 1.506919 -0.070080
v -0.090460 1.929131 -0.013417
v -0.077070 0.648754 -0.045477
v -0.076898 1.501188 -0.051909
v -0.131515 1.919303 0.004702
v -0.131051 1.916501 0.027055
v -0.077825 1.500283 -0.027226
v -0.081600 0.650310 -0.007498
v -0.087877 0.005450 0.056055
v -0.082767 0.003691 0.015349
v -0.045069 0.004162 -0.014033
v -0.004379 0.006494 -0.009025
v -0.017903 0.011150 0.098689
v -0.058593 0.008818 0.093681
v 0.024905 0.009862 0.028601
v 0.019794 0.011622 0.069307
v -0.003817 0.651633 -0.068236
v -0.041950 0.649350 -0.072902
v -0.055680 1.504185 -0.071261
v -0.113191 1.925006 -0.013569
v -0.070898 1.927428 0.027409
v -0.012088 1.507571 -0.024140
v 0.019295 0.656370 0.004834
v 0.023831 0.654803 -0.033136
v -0.011152 1.508447 -0.048804
v -0.071356 1.930228 0.005061
v -0.111969 1.917589 0.045575
v -0.058139 1.501815 -0.005963
v -0.053943 0.653477 0.027596
v -0.015815 0.655771 0.032250
v -0.033300 1.504578 -0.004803
v -0.089243 1.921719 0.045719
v -0.072444 0.333915 0.015564
v -0.030883 0.324588 -0.051701
v -0.067469 0.329155 -0.023635
v 0.008589 0.323797 -0.046593
v 0.031999 0.331820 0.029093
v -0.044052 0.337181 0.052036
v 0.036979 0.327062 -0.010116
v -0.004585 0.336388 0.057153
v -0.338394 2.796483 0.210170
v -0.265769 2.481583 0.131224
v -0.264881 2.478244 0.146208
v -0.338193 2.795973 0.212320
v -0.334476 2.798017 0.208338
v -0.238554 2.491878 0.118685
v -0.253887 2.487769 0.118824
v -0.336717 2.797407 0.208373
v -0.336189 2.796044 0.214061
v -0.251503 2.478857 0.158390
v -0.236137 2.482897 0.158212
v -0.333956 2.796648 0.214031
v -0.332278 2.797571 0.212234
v -0.224262 2.489054 0.145759
v -0.225185 2.492466 0.130827
v -0.332471 2.798088 0.210079
v -0.173698 1.990583 0.268852
v -0.045567 0.728912 0.042034
v -0.068772 0.733826 0.002032
v -0.070552 1.647876 0.114933
v -0.040401 1.270470 0.060982
v -0.087993 1.277479 -0.006934
v -0.115496 1.654473 0.051861
v -0.103207 1.609689 0.102359
v -0.075283 1.230818 0.047037
v -0.052288 0.690450 0.030985
v -0.067234 0.705128 0.045777
v -0.063703 0.693647 0.011297
v -0.115199 1.836356 0.157723
v -0.131061 1.796157 0.158779
v -0.136103 1.837076 0.128200
v 0.047794 1.437512 0.150418
v 0.050813 1.862943 0.104230
v 0.071730 0.592225 0.148367
v 0.071776 1.434618 0.106810
v 0.070936 1.856103 0.063503
v 0.056354 1.854694 0.046381
v 0.056798 1.435144 0.087155
v 0.051082 0.593781 0.116171
v 0.015525 -0.051079 0.115480
v 0.037458 -0.052838 0.150150
v 0.027039 -0.052367 0.196797
v -0.007554 -0.050035 0.218799
v -0.065593 -0.045379 0.127057
v -0.031001 -0.047711 0.105054
v -0.054079 -0.046667 0.208373
v -0.076012 -0.044907 0.173703
v 0.029656 0.595104 0.212505
v 0.062056 0.592821 0.191864
v 0.067712 1.435688 0.135377
v 0.068434 1.859829 0.089618
v 0.009753 1.862944 0.085088
v 0.004129 1.440023 0.126981
v -0.034639 0.599841 0.170795
v -0.014000 0.598273 0.202988
v 0.019087 1.439469 0.146626
v 0.024326 1.864351 0.102208
v 0.029857 1.856097 0.044314
v 0.028095 1.437103 0.083376
v 0.007423 0.596947 0.106665
v -0.024967 0.599242 0.127312
v 0.008197 1.438955 0.098430
v 0.012245 1.859216 0.058930
v 0.029353 0.277386 0.116770
v 0.040035 0.268059 0.195114
v 0.050434 0.272626 0.150190
v 0.006319 0.267268 0.216265
v -0.059867 0.275291 0.172726
v -0.015750 0.280652 0.106667
v -0.038785 0.270533 0.206157
v -0.049468 0.279859 0.127808
v 0.160545 2.568278 -0.066196
v 0.123572 2.248223 0.016614
v 0.113167 2.246723 0.005392
v 0.158772 2.568000 -0.067984
v 0.158566 2.569878 -0.061616
v 0.111384 2.257624 0.044309
v 0.122756 2.253177 0.034165
v 0.160452 2.569128 -0.063322
v 0.155764 2.568376 -0.068056
v 0.095243 2.249123 0.004547
v 0.083862 2.253498 0.014737
v 0.153881 2.569119 -0.066361
v 0.153788 2.569969 -0.063486
v 0.083083 2.258417 0.032321
v 0.093489 2.259995 0.043487
v 0.155558 2.570255 -0.061688
v -0.157814 1.421051 0.184827
v -0.118154 1.846482 0.208691
v -0.166968 0.575763 0.207039
v -0.130060 1.418157 0.226137
v -0.091189 1.839641 0.245249
v -0.069287 1.838232 0.240143
v -0.105725 1.418682 0.221840
v -0.128888 0.577320 0.203454
v -0.111969 -0.067540 0.172172
v -0.152837 -0.069300 0.175765
v -0.189511 -0.068829 0.145115
v -0.193201 -0.066497 0.104284
v -0.085058 -0.061840 0.094778
v -0.081368 -0.064173 0.135609
v -0.162600 -0.063129 0.067721
v -0.121732 -0.061369 0.064128
v -0.204671 0.578642 0.140237
v -0.201186 0.576359 0.178495
v -0.153582 1.419227 0.209425
v -0.113249 1.843367 0.231051
v -0.082314 1.846482 0.180980
v -0.116964 1.423561 0.156772
v -0.138121 0.583379 0.102228
v -0.176194 0.581812 0.105806
v -0.141280 1.423007 0.161056
v -0.104211 1.847889 0.186080
v -0.055299 1.839635 0.217545
v -0.089204 1.420641 0.198065
v -0.100420 0.580486 0.169016
v -0.103915 0.582780 0.130764
v -0.093457 1.422494 0.173479
v -0.060211 1.842754 0.195191
v -0.119456 0.260924 0.183870
v -0.193976 0.251597 0.157436
v -0.158823 0.256165 0.187277
v -0.197310 0.250806 0.117775
v -0.128268 0.258829 0.078923
v -0.089796 0.264190 0.148422
v -0.167644 0.254071 0.082328
v -0.093120 0.263397 0.108764
v -0.016904 2.552114 0.383084
v -0.073659 2.231761 0.313527
v -0.058915 2.230262 0.309427
v -0.015346 2.551934 0.382594
v -0.018955 2.553152 0.380581
v -0.092681 2.241162 0.289996
v -0.088881 2.236715 0.304754
v -0.018533 2.552665 0.382176
v -0.014409 2.552177 0.380882
v -0.049945 2.232661 0.293886
v -0.053781 2.237036 0.279100
v -0.014826 2.552660 0.379292
v -0.016456 2.553211 0.378383
v -0.069050 2.241955 0.270343
v -0.083745 2.243533 0.274470
v -0.018019 2.553396 0.378868
v -0.249267 1.979378 0.604173
v -0.114041 1.056500 0.213526
v -0.152344 1.075021 0.160393
v -0.111813 1.624554 0.407518
v -0.077676 1.353530 0.300516
v -0.160484 1.388148 0.206642
v -0.188828 1.656744 0.321673
v -0.179947 1.615118 0.381771
v -0.150649 1.344880 0.271416
v -0.130131 1.035993 0.194966
v -0.160920 1.049894 0.211022
v -0.148875 1.045609 0.168892
v -0.174337 1.835570 0.485727
v -0.213880 1.818505 0.482512
v -0.210419 1.849768 0.445602
vn -0.4293 -0.0091 -0.9031
vn -0.4878 -0.0020 -0.8730
vn 0.2730 -0.0710 -0.9594
vn 0.3422 0.0042 -0.9396
vn -0.8781 0.1165 0.4641
vn -0.8251 0.2561 0.5037
vn -0.9463 0.2164 -0.2402
vn -0.9574 0.0758 -0.2787
vn -0.9032 0.0061 0.4291
vn -0.9436 -0.0080 -0.3310
vn -0.9121 -0.0631 0.4052
vn -0.9345 -0.0608 -0.3507
vn -0.5153 0.0547 -0.8553
vn 0.2152 -0.1345 -0.9673
vn -0.4191 -0.0195 -0.9077
vn 0.3444 0.0362 -0.9381
vn -0.6743 -0.6690 0.3127
vn -0.2522 -0.6439 0.7223
vn -0.3650 -0.0257 0.9307
vn -0.2939 -0.6439 -0.7064
vn -0.6914 -0.6690 -0.2728
vn 0.9072 0.0732 -0.4143
vn 0.7417 -0.5871 -0.3244
vn 0.3001 -0.6100 -0.7334
vn 0.7593 -0.5871 0.2806
vn 0.3424 -0.6100 0.7146
vn 0.9069 0.0233 -0.4207
vn 0.9388 0.0365 0.3426
vn 0.9315 0.0702 0.3570
vn 0.8757 -0.0882 -0.4748
vn 0.9525 -0.0430 0.3015
vn 0.8195 -0.2415 -0.5197
vn 0.9481 -0.2009 0.2466
vn 0.4003 0.0294 0.9159
vn 0.4214 0.0368 0.9061
vn -0.3415 0.0244 0.9396
vn 0.4493 0.0364 0.8927
vn -0.3084 0.1009 0.9459
vn 0.4955 -0.0306 0.8681
vn -0.2415 0.1574 0.9575
vn 0.9200 0.3883 0.0534
vn 0.6348 0.5323 0.5600
vn 0.5231 -0.0535 0.8506
vn 0.9409 -0.2613 0.2156
vn 0.0751 0.7705 0.6330
vn -0.3533 0.8694 0.3454
vn -0.7561 0.3992 0.5186
vn -0.1823 0.2185 0.9587
vn -0.4096 0.8757 -0.2559
vn -0.1453 0.6955 -0.7036
vn -0.4869 0.1806 -0.8546
vn -0.8918 0.3879 -0.2329
vn 0.3644 0.5269 -0.7678
vn 0.8094 0.3915 -0.4377
vn 0.7923 -0.2713 -0.5465
vn 0.2063 -0.0904 -0.9743
vn -0.0057 -0.6125 -0.7904
vn 0.4851 -0.7659 -0.4220
vn 0.6277 -0.5834 -0.5153
vn 0.1261 -0.5058 -0.8534
vn 0.8563 -0.5158 0.0243
vn 0.7718 -0.6241 0.1217
vn -0.3057 -0.6125 -0.7290
vn 0.1696 -0.9706 -0.1707
vn 0.2977 -0.9089 -0.2921
vn 0.6984 -0.6525 0.2940
vn 0.0564 -0.8523 -0.5200
vn 0.5589 -0.6849 -0.4675
vn 0.6717 -0.7350 0.0927
vn 0.9154 -0.4020 0.0214
vn 0.1524 -0.3778 -0.9133
vn -0.8234 -0.5120 -0.2445
vn 0.6538 -0.5436 -0.5264
vn 0.4518 -0.1694 -0.8759
vn -0.0132 -0.2784 -0.9604
vn 0.8634 -0.1678 -0.4758
vn 0.9613 -0.2582 0.0963
vn -0.9300 -0.2973 0.2162
vn -0.1858 -0.5312 0.8266
vn -0.0305 -0.6149 0.7881
vn 0.8949 -0.2307 0.3819
vn 0.3296 -0.6550 -0.6800
vn 0.3919 -0.2414 -0.8878
vn 0.8711 -0.3335 -0.3606
vn 0.9278 -0.0480 -0.3701
vn -0.3730 -0.1007 -0.9223
vn 0.4360 -0.1432 0.8885
vn -0.3827 -0.2177 0.8979
vn -0.3997 -0.1730 0.9002
vn 0.3020 -0.1462 0.9420
vn -0.8936 -0.1657 0.4171
vn -0.9186 -0.1670 0.3582
vn 0.7409 -0.1277 0.6593
vn -0.4489 -0.3013 0.8412
vn -0.3322 -0.2384 0.9126
vn -0.9564 -0.1555 0.2471
vn -0.2010 -0.6795 0.7056
vn -0.3879 -0.3136 0.8667
vn -0.8073 -0.4834 0.3386
vn -0.9177 -0.1360 0.3733
vn 0.3472 -0.0977 0.9327
vn -0.8969 -0.2320 -0.3765
vn -0.4256 -0.2097 -0.8803
vn -0.4169 -0.1419 -0.8978
vn -0.8699 -0.1929 -0.4539
vn 0.1873 -0.0893 -0.9782
vn 0.2379 -0.1021 -0.9659
vn -0.9532 -0.2955 -0.0631
vn -0.3633 -0.3340 -0.8698
vn -0.4462 -0.2575 -0.8571
vn 0.3570 -0.0883 -0.9299
vn -0.4858 -0.6358 -0.5999
vn -0.3894 -0.2949 -0.8726
vn 0.2074 -0.4209 -0.8831
vn 0.2341 -0.0399 -0.9714
vn -0.8992 -0.1343 -0.4164
vn 0.3486 0.0977 -0.9322
vn 0.2871 0.1136 -0.9511
vn 0.8691 -0.0811 -0.4880
vn 0.9098 -0.0196 -0.4145
vn -0.9290 0.2475 -0.2750
vn -0.9044 0.3805 -0.1930
vn -0.4582 0.3889 -0.7993
vn -0.4560 0.2484 -0.8546
vn -0.9317 0.1444 -0.3334
vn -0.4168 0.1655 -0.8938
vn -0.9271 0.0786 -0.3665
vn -0.4014 0.1127 -0.9089
vn 0.2642 0.1779 -0.9479
vn 0.8315 -0.1314 -0.5398
vn 0.3579 0.0859 -0.9298
vn 0.9133 0.0115 -0.4072
vn -0.7528 -0.5551 -0.3537
vn -0.7516 -0.6177 0.2316
vn -0.9212 0.0027 0.3892
vn 0.2422 -0.5578 -0.7939
vn -0.3455 -0.5306 -0.7740
vn 0.9312 -0.0675 0.3582
vn 0.6908 -0.6927 0.2072
vn 0.6758 -0.6248 -0.3910
vn 0.2700 -0.7181 0.6414
vn -0.3314 -0.6855 0.6483
vn 0.9309 -0.1164 0.3462
vn 0.4079 -0.1370 0.9027
vn 0.3956 -0.1031 0.9126
vn 0.9376 -0.2188 0.2701
vn 0.4394 -0.2161 0.8719
vn 0.9162 -0.3575 0.1813
vn 0.4585 -0.3670 0.8094
vn -0.3759 -0.0732 0.9238
vn -0.3536 -0.0692 0.9328
vn -0.9066 0.0476 0.4193
vn -0.3247 -0.0738 0.9429
vn -0.8811 0.1171 0.4582
vn -0.2835 -0.1435 0.9482
vn -0.8387 0.1665 0.5186
vn 0.6016 0.2077 0.7713
vn 0.0543 0.4002 0.9148
vn -0.2588 -0.1788 0.9492
vn 0.4639 -0.4253 0.7771
vn -0.3580 0.6928 0.6261
vn -0.4135 0.9049 0.1009
vn -0.8780 0.4598 -0.1332
vn -0.8067 0.1881 0.5603
vn -0.0862 0.9211 -0.3796
vn 0.4560 0.7234 -0.5184
vn 0.2800 0.2461 -0.9279
vn -0.4364 0.4897 -0.7548
vn 0.8672 0.4407 -0.2318
vn 0.9281 0.2326 0.2906
vn 0.9065 -0.3950 0.1489
vn 0.8291 -0.1204 -0.5460
vn 0.8807 -0.4736 0.0080
vn 0.5958 -0.5715 0.5643
vn 0.6696 -0.3507 0.6547
vn 0.9369 -0.3329 0.1068
vn 0.1521 -0.3174 0.9360
vn 0.0672 -0.4547 0.8881
vn 0.7904 -0.5472 -0.2752
vn 0.3539 -0.8746 0.3315
vn 0.4748 -0.7692 0.4276
vn -0.1040 -0.5238 0.8455
vn 0.6640 -0.7322 0.1515
vn 0.6336 -0.4706 0.6141
vn 0.1049 -0.5789 0.8086
vn 0.1410 -0.1945 0.9707
vn 0.9758 -0.1947 0.0993
vn 0.5400 -0.3689 0.7566
vn -0.4559 -0.3735 0.8079
vn -0.4518 -0.3117 0.8359
vn 0.3693 -0.3744 0.8506
vn -0.9735 -0.0826 0.2132
vn -0.9794 -0.0812 0.1847
vn 0.8266 -0.3073 0.4714
vn -0.7624 -0.3554 0.5408
vn -0.3440 -0.4307 0.8344
vn -0.9900 -0.0609 0.1274
vn -0.5222 -0.7298 0.4412
vn -0.4268 -0.4003 0.8109
vn -0.9482 -0.2846 0.1414
vn -0.9796 -0.0528 0.1941
vn 0.4712 -0.2995 0.8296
vn 0.8788 0.0594 0.4734
vn 0.9079 0.0651 0.4141
vn 0.3490 -0.0068 0.9371
vn 0.2776 0.0660 0.9584
vn 0.4284 0.0941 -0.8987
vn 0.3588 0.2361 -0.9031
vn 0.8934 0.2499 -0.3732
vn 0.9323 0.1065 -0.3457
vn 0.4750 -0.0132 -0.8799
vn 0.9563 0.0265 -0.2913
vn 0.4998 -0.0805 -0.8624
vn 0.9632 -0.0249 -0.2675
vn 0.9150 0.1257 0.3834
vn 0.3998 -0.0661 0.9142
vn 0.8739 0.0492 0.4836
vn 0.2733 0.0979 0.9569
vn 0.3935 -0.6812 -0.6174
vn -0.1895 -0.6900 -0.6986
vn -0.2529 -0.0865 -0.9636
vn 0.6862 -0.5893 0.4265
vn 0.7524 -0.6399 -0.1562
vn -0.4910 0.0913 0.8664
vn -0.3767 -0.5717 0.7289
vn 0.2214 -0.5606 0.7980
vn -0.7476 -0.6144 0.2524
vn -0.6661 -0.6627 -0.3424
vn -0.4844 0.0419 0.8738
vn -0.9607 0.0012 0.2777
vn -0.9650 0.0339 0.2601
vn -0.4217 -0.0651 0.9044
vn -0.9434 -0.0753 0.3229
vn -0.3465 -0.2128 0.9136
vn -0.9010 -0.2273 0.3694
vn -0.8641 -0.0397 -0.5018
vn -0.8757 -0.0319 -0.4818
vn -0.2797 -0.0375 -0.9594
vn -0.8902 -0.0317 -0.4545
vn -0.3140 0.0379 -0.9487
vn -0.9087 -0.0943 -0.4066
vn -0.3740 0.0979 -0.9223
vn -0.8210 0.3559 0.4465
vn -0.8640 0.4849 -0.1353
vn -0.9172 -0.1255 -0.3783
vn -0.8766 -0.2867 0.3866
vn -0.4900 0.6919 -0.5303
vn 0.0577 0.8464 -0.5294
vn 0.3049 0.3235 -0.8958
vn -0.4172 0.1276 -0.8998
vn 0.4861 0.8632 -0.1365
vn 0.5246 0.7288 0.4401
vn 0.9004 0.1971 0.3878
vn 0.8576 0.3565 -0.3707
vn 0.1539 0.5311 0.8332
vn -0.3914 0.3811 0.8376
vn -0.3174 -0.2538 0.9137
vn 0.4073 -0.0559 0.9116
vn 0.0520 -0.2116 0.9760
vn -0.7064 -0.1826 0.6838
vn -0.7243 -0.0669 0.6862
vn -0.1869 -0.1249 0.9744
vn -0.9868 -0.0759 0.1433
vn -0.9876 -0.1307 0.0875
vn 0.5698 -0.2508 0.7826
vn -0.6999 -0.4619 0.5448
vn -0.5951 -0.3176 0.7382
vn -0.9859 -0.1655 -0.0257
vn -0.5106 -0.6322 0.5827
vn -0.7014 -0.1759 0.6907
vn -0.9330 -0.3201 0.1647
vn -0.9923 -0.0276 0.1208
vn -0.1406 -0.0272 0.9897
vn -0.9783 0.0669 0.1961
vn -0.9680 0.0486 0.2462
vn -0.8584 -0.0115 -0.5128
vn -0.8267 0.0378 -0.5614
vn 0.2476 0.0840 0.9652
vn 0.2876 0.0993 0.9526
vn -0.4670 0.1526 0.8710
vn -0.5034 0.0880 0.8596
vn 0.1962 0.0325 0.9800
vn -0.5484 0.0644 0.8337
vn 0.1687 -0.0001 0.9857
vn -0.5738 0.0420 0.8179
vn -0.9523 0.1254 0.2783
vn -0.8830 0.0356 -0.4681
vn -0.9829 0.0637 0.1730
vn -0.8172 0.0521 -0.5740
vn 0.0932 -0.6359 0.7661
vn 0.5972 -0.6652 0.4483
vn 0.8150 -0.0394 0.5782
vn -0.8020 -0.5827 0.1310
vn -0.4856 -0.6019 0.6340
vn -0.1746 0.0129 -0.9846
vn -0.1722 -0.6169 -0.7680
vn -0.6720 -0.5889 -0.4491
vn 0.4075 -0.6513 -0.6401
vn 0.7282 -0.6717 -0.1361
vn -0.1856 -0.0051 -0.9826
vn 0.5635 -0.0364 -0.8253
vn 0.5706 -0.0311 -0.8206
vn -0.2466 -0.0555 -0.9675
vn 0.5137 -0.0580 -0.8560
vn -0.3183 -0.0636 -0.9458
vn 0.4428 -0.1192 -0.8887
vn 0.9836 -0.0528 -0.1725
vn 0.9823 -0.0383 -0.1833
vn 0.8264 -0.0097 0.5630
vn 0.9722 -0.0174 -0.2337
vn 0.8536 0.0411 0.5193
vn 0.9530 -0.0943 -0.2879
vn 0.8755 -0.0019 0.4833
vn 0.3881 0.3854 -0.8372
vn 0.7991 0.4428 -0.4067
vn 0.9422 -0.1735 -0.2866
vn 0.4251 -0.2065 -0.8813
vn 0.7775 0.6105 0.1506
vn 0.3683 0.7777 0.5094
vn 0.3438 0.1726 0.9230
vn 0.8894 -0.0142 0.4569
vn -0.2080 0.8522 0.4801
vn -0.6126 0.7888 0.0503
vn -0.9195 0.2537 0.3003
vn -0.4019 0.2856 0.8700
vn -0.5916 0.6302 -0.5028
vn -0.1871 0.4681 -0.8636
vn -0.3443 -0.0901 -0.9345
vn -0.8904 0.0979 -0.4446
vn 0.2744 0.0669 -0.9593
vn 0.2251 0.0486 -0.9731
vn 0.8494 -0.0115 -0.5277
vn 0.8780 0.0378 -0.4772
vn -0.9713 0.0840 -0.2226
vn -0.9784 0.0993 -0.1812
vn -0.5599 0.1526 -0.8144
vn -0.5330 0.0880 -0.8415
vn -0.9609 0.0325 -0.2750
vn -0.4894 0.0644 -0.8697
vn -0.9533 -0.0001 -0.3021
vn -0.4637 0.0420 -0.8850
vn 0.1894 0.1254 -0.9739
vn 0.8209 0.0356 -0.5700
vn 0.2970 0.0637 -0.9527
vn 0.8848 0.0521 -0.4630
vn -0.7236 -0.6359 -0.2685
vn -0.6722 -0.6652 0.3251
vn -0.8875 -0.0394 0.4591
vn 0.2514 -0.5827 -0.7728
vn -0.3407 -0.6019 -0.7222
vn 0.9550 0.0129 0.2963
vn 0.7614 -0.6169 0.1992
vn 0.7073 -0.5889 -0.3912
vn 0.3819 -0.6514 0.6557
vn -0.2130 -0.6717 0.7095
vn 0.9583 -0.0051 0.2857
vn 0.4750 -0.0364 0.8792
vn 0.4676 -0.0311 0.8834
vn 0.9729 -0.0555 0.2245
vn 0.5251 -0.0580 0.8491
vn 0.9865 -0.0636 0.1509
vn 0.5867 -0.1192 0.8010
vn -0.2977 -0.0528 0.9532
vn -0.2875 -0.0383 0.9570
vn -0.8793 -0.0097 0.4763
vn -0.2381 -0.0174 0.9711
vn -0.8529 0.0411 0.5204
vn -0.1812 -0.0943 0.9789
vn -0.8309 -0.0019 0.5564
vn 0.5648 0.3872 0.7287
vn -0.0053 0.4445 0.8957
vn -0.1775 -0.1716 0.9691
vn 0.5880 -0.2046 0.7826
vn -0.4895 0.6119 0.6213
vn -0.6200 0.7790 0.0937
vn -0.9776 0.1745 -0.1176
vn -0.8137 -0.0123 0.5812
vn -0.3298 0.8532 -0.4040
vn 0.2368 0.7897 -0.5659
vn 0.1554 0.2555 -0.9543
vn -0.5882 0.2874 -0.7559
vn 0.7175 0.6315 -0.2940
vn 0.8523 0.4696 0.2304
vn 0.9884 -0.0883 0.1233
vn 0.8036 0.0997 -0.5867
vn -0.2120 -0.4046 0.8896
vn -0.7600 -0.3280 0.5610
vn -0.7843 -0.2215 0.5795
vn -0.2598 -0.3232 0.9100
vn -0.9959 -0.0818 0.0375
vn -0.9921 -0.1248 0.0085
vn 0.0278 -0.5052 0.8626
vn -0.7052 -0.5198 0.4822
vn -0.7310 -0.4209 0.5371
vn -0.9895 -0.1050 -0.0996
vn -0.3920 -0.6891 0.6094
vn -0.7604 -0.3563 0.5430
vn -0.9225 -0.3859 -0.0101
vn -1.0000 -0.0048 0.0029
vn -0.2150 -0.2351 0.9479
vt 0.048560 0.668517
vt 0.048525 0.683709
vt 0.049034 0.683658
vt 0.049354 0.668514
vt 0.048310 0.683755
vt 0.049675 0.691267
vt 0.049595 0.691253
vt 0.048251 0.683745
vt 0.048123 0.668518
vt 0.048095 0.668519
vt 0.050568 0.552982
vt 0.050543 0.552982
vt 0.049825 0.691183
vt 0.050283 0.691082
vt 0.051027 0.553036
vt 0.051848 0.553126
vt 0.051218 0.547318
vt 0.051750 0.547318
vt 0.051081 0.553036
vt 0.051695 0.547318
vt 0.051193 0.547318
vt 0.052361 0.553180
vt 0.053079 0.547318
vt 0.052547 0.547318
vt 0.053104 0.547318
vt 0.052602 0.547318
vt 0.049853 0.668512
vt 0.049882 0.668512
vt 0.052386 0.553180
vt 0.049380 0.683632
vt 0.049439 0.683642
vt 0.050609 0.691029
vt 0.050688 0.691044
vt 0.051902 0.553126
vt 0.049416 0.668514
vt 0.048622 0.668517
vt 0.049165 0.683679
vt 0.048655 0.683730
vt 0.050458 0.691114
vt 0.050001 0.691215
vt 0.055775 0.706598
vt 0.055627 0.706681
vt 0.054567 0.704211
vt 0.054724 0.704110
vt 0.055304 0.706804
vt 0.055061 0.706870
vt 0.053978 0.704446
vt 0.054230 0.704362
vt 0.054983 0.706854
vt 0.055132 0.706770
vt 0.054054 0.704327
vt 0.053898 0.704430
vt 0.055454 0.706648
vt 0.055697 0.706583
vt 0.054644 0.704094
vt 0.054390 0.704175
vt 0.120664 0.776980
vt 0.121775 0.776235
vt 0.118919 0.772348
vt 0.117729 0.773125
vt 0.119485 0.773202
vt 0.122325 0.777044
vt 0.123353 0.778439
vt 0.126627 0.778776
vt 0.123820 0.777755
vt 0.124115 0.778441
vt 0.115681 0.766110
vt 0.116378 0.766001
vt 0.116100 0.766174
vt 0.116448 0.766682
vt 0.115603 0.766572
vt 0.460235 0.624161
vt 0.460634 0.622548
vt 0.460286 0.608872
vt 0.459660 0.610509
vt 0.460583 0.611749
vt 0.461128 0.625816
vt 0.461319 0.616423
vt 0.461965 0.605640
vt 0.461445 0.614768
vt 0.461732 0.617194
vt 0.459912 0.585582
vt 0.460127 0.586324
vt 0.460135 0.585977
vt 0.460223 0.588113
vt 0.459768 0.587390
vt 0.451836 0.606120
vt 0.451560 0.603907
vt 0.452029 0.583009
vt 0.452330 0.585269
vt 0.451782 0.585990
vt 0.451328 0.606794
vt 0.451310 0.621604
vt 0.450956 0.631701
vt 0.451197 0.619450
vt 0.451075 0.621850
vt 0.452611 0.559013
vt 0.452500 0.559522
vt 0.452475 0.559300
vt 0.452384 0.561504
vt 0.452661 0.561005
vt 0.021364 0.680680
vt 0.022135 0.679973
vt 0.023948 0.670189
vt 0.023094 0.670896
vt 0.025168 0.671611
vt 0.023266 0.681347
vt 0.020271 0.688117
vt 0.018499 0.693125
vt 0.020506 0.687305
vt 0.021160 0.688398
vt 0.027509 0.549339
vt 0.027362 0.549716
vt 0.028066 0.549558
vt 0.028240 0.550591
vt 0.027105 0.550184
vt 0.046894 0.669485
vt 0.048513 0.684460
vt 0.048897 0.684325
vt 0.047460 0.669347
vt 0.047755 0.684511
vt 0.049911 0.691701
vt 0.050189 0.691718
vt 0.048081 0.684530
vt 0.045662 0.669513
vt 0.046214 0.669547
vt 0.047547 0.554047
vt 0.048121 0.554081
vt 0.050572 0.691622
vt 0.050924 0.691447
vt 0.048831 0.554072
vt 0.049424 0.554021
vt 0.047473 0.548359
vt 0.047482 0.548250
vt 0.047558 0.553995
vt 0.048794 0.548329
vt 0.048065 0.548395
vt 0.049436 0.553969
vt 0.049411 0.548075
vt 0.049402 0.548184
vt 0.048818 0.548039
vt 0.048089 0.548105
vt 0.047469 0.669243
vt 0.046917 0.669208
vt 0.048861 0.553934
vt 0.048933 0.684231
vt 0.048607 0.684211
vt 0.050969 0.691330
vt 0.050690 0.691313
vt 0.048152 0.553944
vt 0.046237 0.669271
vt 0.045671 0.669408
vt 0.048175 0.684281
vt 0.047790 0.684417
vt 0.050307 0.691410
vt 0.049956 0.691585
vt 0.056662 0.705880
vt 0.056483 0.705946
vt 0.054209 0.700769
vt 0.054461 0.700680
vt 0.056317 0.706062
vt 0.056293 0.706138
vt 0.053946 0.701030
vt 0.053978 0.700928
vt 0.056420 0.706145
vt 0.056599 0.706078
vt 0.054377 0.700950
vt 0.054127 0.701041
vt 0.056766 0.705962
vt 0.056789 0.705887
vt 0.054642 0.700691
vt 0.054610 0.700792
vt 0.120783 0.796070
vt 0.120592 0.795810
vt 0.119683 0.793698
vt 0.119892 0.793968
vt 0.119110 0.794038
vt 0.120056 0.796135
vt 0.121388 0.797047
vt 0.122721 0.797692
vt 0.121358 0.796782
vt 0.121046 0.797064
vt 0.119080 0.790558
vt 0.119248 0.790598
vt 0.118855 0.790589
vt 0.118781 0.790834
vt 0.119238 0.790780
vt 0.444457 0.603312
vt 0.443493 0.601593
vt 0.443680 0.578801
vt 0.444721 0.580505
vt 0.443235 0.582810
vt 0.443081 0.605447
vt 0.443773 0.620556
vt 0.443174 0.631477
vt 0.443276 0.618475
vt 0.443130 0.621478
vt 0.443941 0.552290
vt 0.443604 0.552967
vt 0.443582 0.552994
vt 0.443471 0.555579
vt 0.444202 0.554240
vt 0.116858 0.764932
vt 0.116435 0.776395
vt 0.116149 0.776355
vt 0.116385 0.764924
vt 0.116183 0.776386
vt 0.115379 0.782072
vt 0.115637 0.782087
vt 0.116448 0.776407
vt 0.116546 0.764868
vt 0.116919 0.764911
vt 0.113613 0.566291
vt 0.113995 0.566335
vt 0.115643 0.782049
vt 0.115396 0.781972
vt 0.113928 0.566400
vt 0.113436 0.566461
vt 0.113438 0.562018
vt 0.112890 0.561987
vt 0.113081 0.566302
vt 0.113764 0.562087
vt 0.113833 0.562064
vt 0.112904 0.566472
vt 0.112708 0.562050
vt 0.113256 0.562081
vt 0.112314 0.562004
vt 0.112383 0.561981
vt 0.115871 0.764893
vt 0.115499 0.764851
vt 0.112522 0.566428
vt 0.115815 0.776318
vt 0.115550 0.776297
vt 0.115090 0.781917
vt 0.114833 0.781902
vt 0.112589 0.566364
vt 0.115560 0.764830
vt 0.116033 0.764838
vt 0.115562 0.776309
vt 0.115848 0.776349
vt 0.114827 0.781940
vt 0.115073 0.782017
vt 0.111890 0.793689
vt 0.111877 0.793723
vt 0.113019 0.789512
vt 0.113031 0.789467
vt 0.111989 0.793785
vt 0.112139 0.793826
vt 0.113385 0.789650
vt 0.113179 0.789595
vt 0.112274 0.793831
vt 0.112287 0.793796
vt 0.113578 0.789612
vt 0.113565 0.789658
vt 0.112174 0.793734
vt 0.112025 0.793694
vt 0.113211 0.789475
vt 0.113418 0.789529
vt 0.441441 0.604481
vt 0.440142 0.602700
vt 0.441566 0.585032
vt 0.442952 0.586881
vt 0.441294 0.587207
vt 0.439870 0.604788
vt 0.439380 0.613270
vt 0.436419 0.620463
vt 0.438715 0.611395
vt 0.438651 0.613304
vt 0.442599 0.559832
vt 0.441907 0.560516
vt 0.442218 0.559981
vt 0.442051 0.561855
vt 0.442827 0.561625
vt 0.033364 0.668512
vt 0.032805 0.683688
vt 0.032427 0.683634
vt 0.032739 0.668501
vt 0.032471 0.683676
vt 0.031408 0.691204
vt 0.031748 0.691223
vt 0.032822 0.683703
vt 0.032952 0.668428
vt 0.033445 0.668484
vt 0.035499 0.552906
vt 0.036005 0.552965
vt 0.031756 0.691173
vt 0.031429 0.691071
vt 0.035916 0.553049
vt 0.035264 0.553131
vt 0.035268 0.547249
vt 0.034542 0.547208
vt 0.034795 0.552920
vt 0.035699 0.547341
vt 0.035790 0.547309
vt 0.034560 0.553145
vt 0.034301 0.547291
vt 0.035027 0.547332
vt 0.033779 0.547231
vt 0.033870 0.547199
vt 0.032059 0.668460
vt 0.031566 0.668404
vt 0.034054 0.553087
vt 0.031984 0.683585
vt 0.031633 0.683558
vt 0.031024 0.690998
vt 0.030684 0.690978
vt 0.034143 0.553002
vt 0.031646 0.668376
vt 0.032273 0.668387
vt 0.031650 0.683574
vt 0.032028 0.683627
vt 0.030676 0.691028
vt 0.031002 0.691130
vt 0.026788 0.706583
vt 0.026770 0.706629
vt 0.028282 0.701053
vt 0.028298 0.700993
vt 0.026919 0.706711
vt 0.027118 0.706765
vt 0.028767 0.701237
vt 0.028494 0.701163
vt 0.027296 0.706771
vt 0.027313 0.706725
vt 0.029022 0.701186
vt 0.029006 0.701247
vt 0.027164 0.706643
vt 0.026966 0.706590
vt 0.028537 0.701004
vt 0.028811 0.701076
vt 0.016306 0.671710
vt 0.015746 0.686886
vt 0.015368 0.686833
vt 0.015680 0.671700
vt 0.015412 0.686875
vt 0.014349 0.694402
vt 0.014690 0.694422
vt 0.015763 0.686902
vt 0.015894 0.671626
vt 0.016387 0.671683
vt 0.016115 0.665781
vt 0.016621 0.665839
vt 0.014698 0.694372
vt 0.014371 0.694270
vt 0.016532 0.665924
vt 0.015880 0.666006
vt 0.018209 0.550448
vt 0.017484 0.550406
vt 0.015411 0.665795
vt 0.018640 0.550539
vt 0.018731 0.550508
vt 0.015176 0.666020
vt 0.017242 0.550489
vt 0.017968 0.550531
vt 0.016720 0.550429
vt 0.016811 0.550398
vt 0.015000 0.671659
vt 0.014507 0.671602
vt 0.014670 0.665962
vt 0.014925 0.686784
vt 0.014574 0.686756
vt 0.013966 0.694196
vt 0.013625 0.694177
vt 0.014759 0.665877
vt 0.014588 0.671575
vt 0.015214 0.671585
vt 0.014591 0.686772
vt 0.014969 0.686826
vt 0.013617 0.694227
vt 0.013944 0.694329
vt 0.009730 0.709782
vt 0.009712 0.709827
vt 0.011223 0.704252
vt 0.011239 0.704192
vt 0.009861 0.709909
vt 0.010059 0.709963
vt 0.011709 0.704435
vt 0.011435 0.704362
vt 0.010237 0.709969
vt 0.010254 0.709924
vt 0.011963 0.704385
vt 0.011947 0.704446
vt 0.010105 0.709842
vt 0.009907 0.709788
vt 0.011478 0.704203
vt 0.011752 0.704275
vt 0.037306 0.706326
vt 0.036892 0.705629
vt 0.040053 0.699475
vt 0.040470 0.700191
vt 0.041061 0.700282
vt 0.037827 0.706413
vt 0.034449 0.710863
vt 0.030808 0.713862
vt 0.034010 0.710215
vt 0.034693 0.710883
vt 0.042534 0.692445
vt 0.041772 0.692592
vt 0.042756 0.692498
vt 0.042802 0.693129
vt 0.042348 0.693047
s 1
usemtl Material.065
f 23/1/1 22/2/2 31/3/3
f 23/1/1 31/3/3 30/4/4
f 1/5/5 2/6/6 26/7/7
f 1/5/5 26/7/7 25/8/8
f 17/9/9 1/5/5 25/8/8
f 17/9/9 25/8/8 24/10/10
f 36/11/11 17/9/9 24/10/10
f 36/11/11 24/10/10 39/12/12
f 22/2/2 21/13/13 32/14/14
f 22/2/2 32/14/14 31/3/3
f 37/15/15 23/1/1 30/4/4
f 37/15/15 30/4/4 40/16/16
f 36/11/11 12/17/17 11/18/18
f 36/11/11 11/18/18 34/19/19
f 37/15/15 16/20/20 15/21/21
f 37/15/15 15/21/21 39/12/12
f 38/22/22 14/23/23 13/24/24
f 38/22/22 13/24/24 40/16/16
f 11/18/18 12/17/17 15/21/21
f 11/18/18 15/21/21 16/20/20
f 11/18/18 16/20/20 13/24/24
f 11/18/18 13/24/24 14/23/23
f 11/18/18 14/23/23 9/25/25
f 11/18/18 9/25/25 10/26/26
f 38/22/22 29/27/27 8/28/28
f 38/22/22 8/28/28 33/29/29
f 29/27/27 28/30/30 7/31/31
f 29/27/27 7/31/31 8/28/28
f 28/30/30 27/32/32 6/33/33
f 28/30/30 6/33/33 7/31/31
f 35/34/34 3/35/35 18/36/36
f 35/34/34 18/36/36 34/19/19
f 3/35/35 4/37/37 19/38/38
f 3/35/35 19/38/38 18/36/36
f 4/37/37 5/39/39 20/40/40
f 4/37/37 20/40/40 19/38/38
f 27/32/32 28/30/30 31/3/3
f 27/32/32 31/3/3 32/14/14
f 28/30/30 29/27/27 30/4/4
f 28/30/30 30/4/4 31/3/3
f 21/13/13 22/2/2 25/8/8
f 21/13/13 25/8/8 26/7/7
f 22/2/2 23/1/1 24/10/10
f 22/2/2 24/10/10 25/8/8
f 2/6/6 1/5/5 19/38/38
f 2/6/6 19/38/38 20/40/40
f 1/5/5 17/9/9 18/36/36
f 1/5/5 18/36/36 19/38/38
f 33/29/29 8/28/28 3/35/35
f 33/29/29 3/35/35 35/34/34
f 8/28/28 7/31/31 4/37/37
f 8/28/28 4/37/37 3/35/35
f 7/31/31 6/33/33 5/39/39
f 7/31/31 5/39/39 4/37/37
f 9/25/25 33/29/29 35/34/34
f 9/25/25 35/34/34 10/26/26
f 10/26/26 35/34/34 34/19/19
f 10/26/26 34/19/19 11/18/18
f 14/23/23 38/22/22 33/29/29
f 14/23/23 33/29/29 9/25/25
f 29/27/27 38/22/22 40/16/16
f 29/27/27 40/16/16 30/4/4
f 23/1/1 37/15/15 39/12/12
f 23/1/1 39/12/12 24/10/10
f 17/9/9 36/11/11 34/19/19
f 17/9/9 34/19/19 18/36/36
f 16/20/20 37/15/15 40/16/16
f 16/20/20 40/16/16 13/24/24
f 12/17/17 36/11/11 39/12/12
f 12/17/17 39/12/12 15/21/21
f 44/41/41 41/42/42 42/43/43
f 44/41/41 42/43/43 43/44/44
f 48/45/45 45/46/46 46/47/47
f 48/45/45 46/47/47 47/48/48
f 56/49/49 53/50/50 54/51/51
f 56/49/49 54/51/51 55/52/52
f 52/53/53 49/54/54 50/55/55
f 52/53/53 50/55/55 51/56/56
f 41/42/42 48/45/45 47/48/48
f 41/42/42 47/48/48 42/43/43
f 49/54/54 44/41/41 43/44/44
f 49/54/54 43/44/44 50/55/55
f 51/56/56 54/51/51 53/50/50
f 51/56/56 53/50/50 52/53/53
f 55/52/52 46/47/47 45/46/46
f 55/52/52 45/46/46 56/49/49
f 5/39/39 42/43/43 47/48/48
f 5/39/39 47/48/48 20/40/40
f 6/33/33 43/44/44 42/43/43
f 6/33/33 42/43/43 5/39/39
f 27/32/32 50/55/55 43/44/44
f 27/32/32 43/44/44 6/33/33
f 46/47/47 2/6/6 20/40/40
f 46/47/47 20/40/40 47/48/48
f 2/6/6 46/47/47 55/52/52
f 2/6/6 55/52/52 26/7/7
f 50/55/55 27/32/32 32/14/14
f 50/55/55 32/14/14 51/56/56
f 21/13/13 54/51/51 51/56/56
f 21/13/13 51/56/56 32/14/14
f 44/41/41 49/54/54 52/53/53
f 44/41/41 52/53/53 53/50/50
f 44/41/41 53/50/50 56/49/49
f 44/41/41 56/49/49 45/46/46
f 44/41/41 45/46/46 48/45/45
f 44/41/41 48/45/45 41/42/42
f 54/51/51 21/13/13 26/7/7
f 54/51/51 26/7/7 55/52/52
f 60/57/57 64/58/58 65/59/59
f 60/57/57 65/59/59 61/60/60
f 62/61/61 65/59/59 64/58/58
f 62/61/61 64/58/58 63/62/62
f 69/63/63 57/64/64 70/65/65
f 71/66/66 63/62/62 64/58/58
f 71/66/66 64/58/58 70/65/65
f 66/67/67 67/68/68 68/69/69
f 62/61/61 59/70/70 68/69/69
f 62/61/61 68/69/69 67/68/68
f 62/61/61 67/68/68 65/59/59
f 58/71/71 61/60/60 65/59/59
f 58/71/71 65/59/59 67/68/68
f 58/71/71 67/68/68 66/67/67
f 57/64/64 71/66/66 70/65/65
f 60/57/57 69/63/63 70/65/65
f 60/57/57 70/65/65 64/58/58
f 75/72/72 79/73/73 80/74/74
f 75/72/72 80/74/74 76/75/75
f 77/76/76 80/74/74 79/73/73
f 77/76/76 79/73/73 78/77/77
f 84/78/78 72/79/79 85/80/80
f 86/81/81 78/77/77 79/73/73
f 86/81/81 79/73/73 85/80/80
f 81/82/82 82/83/83 83/84/84
f 77/76/76 74/85/85 83/84/84
f 77/76/76 83/84/84 82/83/83
f 77/76/76 82/83/83 80/74/74
f 73/86/86 76/75/75 80/74/74
f 73/86/86 80/74/74 82/83/83
f 73/86/86 82/83/83 81/82/82
f 72/79/79 86/81/81 85/80/80
f 75/72/72 84/78/78 85/80/80
f 75/72/72 85/80/80 79/73/73
f 90/87/87 94/88/88 95/89/89
f 90/87/87 95/89/89 91/90/90
f 92/91/91 95/89/89 94/88/88
f 92/91/91 94/88/88 93/92/92
f 99/93/93 87/94/94 100/95/95
f 101/96/96 93/92/92 94/88/88
f 101/96/96 94/88/88 100/95/95
f 96/97/97 97/98/98 98/99/99
f 92/91/91 89/100/100 98/99/99
f 92/91/91 98/99/99 97/98/98
f 92/91/91 97/98/98 95/89/89
f 88/101/101 91/90/90 95/89/89
f 88/101/101 95/89/89 97/98/98
f 88/101/101 97/98/98 96/97/97
f 87/94/94 101/96/96 100/95/95
f 90/87/87 99/93/93 100/95/95
f 90/87/87 100/95/95 94/88/88
f 105/102/102 109/103/103 110/104/104
f 105/102/102 110/104/104 106/105/105
f 107/106/106 110/104/104 109/103/103
f 107/106/106 109/103/103 108/107/107
f 114/108/108 102/109/109 115/110/110
f 116/111/111 108/107/107 109/103/103
f 116/111/111 109/103/103 115/110/110
f 111/112/112 112/113/113 113/114/114
f 107/106/106 104/115/115 113/114/114
f 107/106/106 113/114/114 112/113/113
f 107/106/106 112/113/113 110/104/104
f 103/116/116 106/105/105 110/104/104
f 103/116/116 110/104/104 112/113/113
f 103/116/116 112/113/113 111/112/112
f 102/109/109 116/111/111 115/110/110
f 105/102/102 114/108/108 115/110/110
f 105/102/102 115/110/110 109/103/103
f 139/117/117 138/118/118 147/119/119
f 139/117/117 147/119/119 146/120/120
f 117/121/121 118/122/122 142/123/123
f 117/121/121 142/123/123 141/124/124
f 133/125/125 117/121/121 141/124/124
f 133/125/125 141/124/124 140/126/126
f 152/127/127 133/125/125 140/126/126
f 152/127/127 140/126/126 155/128/128
f 138/118/118 137/129/129 148/130/130
f 138/118/118 148/130/130 147/119/119
f 153/131/131 139/117/117 146/120/120
f 153/131/131 146/120/120 156/132/132
f 152/127/127 128/133/133 127/134/134
f 152/127/127 127/134/134 150/135/135
f 153/131/131 132/136/136 131/137/137
f 153/131/131 131/137/137 155/128/128
f 154/138/138 130/139/139 129/140/140
f 154/138/138 129/140/140 156/132/132
f 127/134/134 128/133/133 131/137/137
f 127/134/134 131/137/137 132/136/136
f 127/134/134 132/136/136 129/140/140
f 127/134/134 129/140/140 130/139/139
f 127/134/134 130/139/139 125/141/141
f 127/134/134 125/141/141 126/142/142
f 154/138/138 145/143/143 124/144/144
f 154/138/138 124/144/144 149/145/145
f 145/143/143 144/146/146 123/147/147
f 145/143/143 123/147/147 124/144/144
f 144/146/146 143/148/148 122/149/149
f 144/146/146 122/149/149 123/147/147
f 151/150/150 119/151/151 134/152/152
f 151/150/150 134/152/152 150/135/135
f 119/151/151 120/153/153 135/154/154
f 119/151/151 135/154/154 134/152/152
f 120/153/153 121/155/155 136/156/156
f 120/153/153 136/156/156 135/154/154
f 143/148/148 144/146/146 147/119/119
f 143/148/148 147/119/119 148/130/130
f 144/146/146 145/143/143 146/120/120
f 144/146/146 146/120/120 147/119/119
f 137/129/129 138/118/118 141/124/124
f 137/129/129 141/124/124 142/123/123
f 138/118/118 139/117/117 140/126/126
f 138/118/118 140/126/126 141/124/124
f 118/122/122 117/121/121 135/154/154
f 118/122/122 135/154/154 136/156/156
f 117/121/121 133/125/125 134/152/152
f 117/121/121 134/152/152 135/154/154
f 149/145/145 124/144/144 119/151/151
f 149/145/145 119/151/151 151/150/150
f 124/144/144 123/147/147 120/153/153
f 124/144/144 120/153/153 119/151/151
f 123/147/147 122/149/149 121/155/155
f 123/147/147 121/155/155 120/153/153
f 125/141/141 149/145/145 151/150/150
f 125/141/141 151/150/150 126/142/142
f 126/142/142 151/150/150 150/135/135
f 126/142/142 150/135/135 127/134/134
f 130/139/139 154/138/138 149/145/145
f 130/139/139 149/145/145 125/141/141
f 145/143/143 154/138/138 156/132/132
f 145/143/143 156/132/132 146/120/120
f 139/117/117 153/131/131 155/128/128
f 139/117/117 155/128/128 140/126/126
f 133/125/125 152/127/127 150/135/135
f 133/125/125 150/135/135 134/152/152
f 132/136/136 153/131/131 156/132/132
f 132/136/136 156/132/132 129/140/140
f 128/133/133 152/127/127 155/128/128
f 128/133/133 155/128/128 131/137/137
f 160/157/157 157/158/158 158/159/159
f 160/157/157 158/159/159 159/160/160
f 164/161/161 161/162/162 162/163/163
f 164/161/161 162/163/163 163/164/164
f 172/165/165 169/166/166 170/167/167
f 172/165/165 170/167/167 171/168/168
f 168/169/169 165/170/170 166/171/171
f 168/169/169 166/171/171 167/172/172
f 157/158/158 164/161/161 163/164/164
f 157/158/158 163/164/164 158/159/159
f 165/170/170 160/157/157 159/160/160
f 165/170/170 159/160/160 166/171/171
f 167/172/172 170/167/167 169/166/166
f 167/172/172 169/166/166 168/169/169
f 171/168/168 162/163/163 161/162/162
f 171/168/168 161/162/162 172/165/165
f 121/155/155 158/159/159 163/164/164
f 121/155/155 163/164/164 136/156/156
f 122/149/149 159/160/160 158/159/159
f 122/149/149 158/159/159 121/155/155
f 143/148/148 166/171/171 159/160/160
f 143/148/148 159/160/160 122/149/149
f 162/163/163 118/122/122 136/156/156
f 162/163/163 136/156/156 163/164/164
f 118/122/122 162/163/163 171/168/168
f 118/122/122 171/168/168 142/123/123
f 166/171/171 143/148/148 148/130/130
f 166/171/171 148/130/130 167/172/172
f 137/129/129 170/167/167 167/172/172
f 137/129/129 167/172/172 148/130/130
f 170/167/167 137/129/129 142/123/123
f 170/167/167 142/123/123 171/168/168
f 160/157/157 165/170/170 168/169/169
f 160/157/157 168/169/169 169/166/166
f 160/157/157 169/166/166 172/165/165
f 160/157/157 172/165/165 161/162/162
f 160/157/157 161/162/162 164/161/161
f 160/157/157 164/161/161 157/158/158
f 176/173/173 180/174/174 181/175/175
f 176/173/173 181/175/175 177/176/176
f 178/177/177 181/175/175 180/174/174
f 178/177/177 180/174/174 179/178/178
f 185/179/179 173/180/180 186/181/181
f 187/182/182 179/178/178 180/174/174
f 187/182/182 180/174/174 186/181/181
f 182/183/183 183/184/184 184/185/185
f 178/177/177 175/186/186 184/185/185
f 178/177/177 184/185/185 183/184/184
f 178/177/177 183/184/184 181/175/175
f 174/187/187 177/176/176 181/175/175
f 174/187/187 181/175/175 183/184/184
f 174/187/187 183/184/184 182/183/183
f 173/180/180 187/182/182 186/181/181
f 176/173/173 185/179/179 186/181/181
f 176/173/173 186/181/181 180/174/174
f 191/188/188 195/189/189 196/190/190
f 191/188/188 196/190/190 192/191/191
f 193/192/192 196/190/190 195/189/189
f 193/192/192 195/189/189 194/193/193
f 200/194/194 188/195/195 201/196/196
f 202/197/197 194/193/193 195/189/189
f 202/197/197 195/189/189 201/196/196
f 197/198/198 198/199/199 199/200/200
f 193/192/192 190/201/201 199/200/200
f 193/192/192 199/200/200 198/199/199
f 193/192/192 198/199/199 196/190/190
f 189/202/202 192/191/191 196/190/190
f 189/202/202 196/190/190 198/199/199
f 189/202/202 198/199/199 197/198/198
f 188/195/195 202/197/197 201/196/196
f 191/188/188 200/194/194 201/196/196
f 191/188/188 201/196/196 195/189/189
f 225/203/203 224/204/204 233/205/205
f 225/203/203 233/205/205 232/206/206
f 203/207/207 204/208/208 228/209/209
f 203/207/207 228/209/209 227/210/210
f 219/211/211 203/207/207 227/210/210
f 219/211/211 227/210/210 226/212/212
f 238/213/213 219/211/211 226/212/212
f 238/213/213 226/212/212 241/214/214
f 224/204/204 223/215/215 234/216/216
f 224/204/204 234/216/216 233/205/205
f 239/217/217 225/203/203 232/206/206
f 239/217/217 232/206/206 242/218/218
f 238/213/213 214/219/219 213/220/220
f 238/213/213 213/220/220 236/221/221
f 239/217/217 218/222/222 217/223/223
f 239/217/217 217/223/223 241/214/214
f 240/224/224 216/225/225 215/226/226
f 240/224/224 215/226/226 242/218/218
f 213/220/220 214/219/219 217/223/223
f 213/220/220 217/223/223 218/222/222
f 213/220/220 218/222/222 215/226/226
f 213/220/220 215/226/226 216/225/225
f 213/220/220 216/225/225 211/227/227
f 213/220/220 211/227/227 212/228/228
f 240/224/224 231/229/229 210/230/230
f 240/224/224 210/230/230 235/231/231
f 231/229/229 230/232/232 209/233/233
f 231/229/229 209/233/233 210/230/230
f 230/232/232 229/234/234 208/235/235
f 230/232/232 208/235/235 209/233/233
f 237/236/236 205/237/237 220/238/238
f 237/236/236 220/238/238 236/221/221
f 205/237/237 206/239/239 221/240/240
f 205/237/237 221/240/240 220/238/238
f 206/239/239 207/241/241 222/242/242
f 206/239/239 222/242/242 221/240/240
f 229/234/234 230/232/232 233/205/205
f 229/234/234 233/205/205 234/216/216
f 230/232/232 231/229/229 232/206/206
f 230/232/232 232/206/206 233/205/205
f 223/215/215 224/204/204 227/210/210
f 223/215/215 227/210/210 228/209/209
f 224/204/204 225/203/203 226/212/212
f 224/204/204 226/212/212 227/210/210
f 204/208/208 203/207/207 221/240/240
f 204/208/208 221/240/240 222/242/242
f 203/207/207 219/211/211 220/238/238
f 203/207/207 220/238/238 221/240/240
f 235/231/231 210/230/230 205/237/237
f 235/231/231 205/237/237 237/236/236
f 210/230/230 209/233/233 206/239/239
f 210/230/230 206/239/239 205/237/237
f 209/233/233 208/235/235 207/241/241
f 209/233/233 207/241/241 206/239/239
f 211/227/227 235/231/231 237/236/236
f 211/227/227 237/236/236 212/228/228
f 212/228/228 237/236/236 236/221/221
f 212/228/228 236/221/221 213/220/220
f 216/225/225 240/224/224 235/231/231
f 216/225/225 235/231/231 211/227/227
f 231/229/229 240/224/224 242/218/218
f 231/229/229 242/218/218 232/206/206
f 225/203/203 239/217/217 241/214/214
f 225/203/203 241/214/214 226/212/212
f 219/211/211 238/213/213 236/221/221
f 219/211/211 236/221/221 220/238/238
f 218/222/222 239/217/217 242/218/218
f 218/222/222 242/218/218 215/226/226
f 214/219/219 238/213/213 241/214/214
f 214/219/219 241/214/214 217/223/223
f 246/243/243 243/244/244 244/245/245
f 246/243/243 244/245/245 245/246/246
f 250/247/247 247/248/248 248/249/249
f 250/247/247 248/249/249 249/250/250
f 258/251/251 255/252/252 256/253/253
f 258/251/251 256/253/253 257/254/254
f 254/255/255 251/256/256 252/257/257
f 254/255/255 252/257/257 253/258/258
f 243/244/244 250/247/247 249/250/250
f 243/244/244 249/250/250 244/245/245
f 251/256/256 246/243/243 245/246/246
f 251/256/256 245/246/246 252/257/257
f 253/258/258 256/253/253 255/252/252
f 253/258/258 255/252/252 254/255/255
f 257/254/254 248/249/249 247/248/248
f 257/254/254 247/248/248 258/251/251
f 207/241/241 244/245/245 249/250/250
f 207/241/241 249/250/250 222/242/242
f 208/235/235 245/246/246 244/245/245
f 208/235/235 244/245/245 207/241/241
f 229/234/234 252/257/257 245/246/246
f 229/234/234 245/246/246 208/235/235
f 248/249/249 204/208/208 222/242/242
f 248/249/249 222/242/242 249/250/250
f 204/208/208 248/249/249 257/254/254
f 204/208/208 257/254/254 228/209/209
f 252/257/257 229/234/234 234/216/216
f 252/257/257 234/216/216 253/258/258
f 223/215/215 256/253/253 253/258/258
f 223/215/215 253/258/258 234/216/216
f 256/253/253 223/215/215 228/209/209
f 256/253/253 228/209/209 257/254/254
f 246/243/243 251/256/256 254/255/255
f 246/243/243 254/255/255 255/252/252
f 246/243/243 255/252/252 258/251/251
f 246/243/243 258/251/251 247/248/248
f 246/243/243 247/248/248 250/247/247
f 246/243/243 250/247/247 243/244/244
f 262/259/259 266/260/260 267/261/261
f 262/259/259 267/261/261 263/262/262
f 264/263/263 267/261/261 266/260/260
f 264/263/263 266/260/260 265/264/264
f 271/265/265 259/266/266 272/267/267
f 273/268/268 265/264/264 266/260/260
f 273/268/268 266/260/260 272/267/267
f 268/269/269 269/270/270 270/271/271
f 264/263/263 261/272/272 270/271/271
f 264/263/263 270/271/271 269/270/270
f 264/263/263 269/270/270 267/261/261
f 260/273/273 263/262/262 267/261/261
f 260/273/273 267/261/261 269/270/270
f 260/273/273 269/270/270 268/269/269
f 259/266/266 273/268/268 272/267/267
f 262/259/259 271/265/265 272/267/267
f 262/259/259 272/267/267 266/260/260
f 296/274/274 295/275/275 304/276/276
f 296/274/274 304/276/276 303/277/277
f 274/278/278 275/279/279 299/280/280
f 274/278/278 299/280/280 298/281/281
f 290/282/282 274/278/278 298/281/281
f 290/282/282 298/281/281 297/283/283
f 309/284/284 290/282/282 297/283/283
f 309/284/284 297/283/283 312/285/285
f 295/275/275 294/286/286 305/287/287
f 295/275/275 305/287/287 304/276/276
f 310/288/288 296/274/274 303/277/277
f 310/288/288 303/277/277 313/289/289
f 309/284/284 285/290/290 284/291/291
f 309/284/284 284/291/291 307/292/292
f 310/288/288 289/293/293 288/294/294
f 310/288/288 288/294/294 312/285/285
f 311/295/295 287/296/296 286/297/297
f 311/295/295 286/297/297 313/289/289
f 284/291/291 285/290/290 288/294/294
f 284/291/291 288/294/294 289/293/293
f 284/291/291 289/293/293 286/297/297
f 284/291/291 286/297/297 287/296/296
f 284/291/291 287/296/296 282/298/298
f 284/291/291 282/298/298 283/299/299
f 311/295/295 302/300/300 281/301/301
f 311/295/295 281/301/301 306/302/302
f 302/300/300 301/303/303 280/304/304
f 302/300/300 280/304/304 281/301/301
f 301/303/303 300/305/305 279/306/306
f 301/303/303 279/306/306 280/304/304
f 308/307/307 276/308/308 291/309/309
f 308/307/307 291/309/309 307/292/292
f 276/308/308 277/310/310 292/311/311
f 276/308/308 292/311/311 291/309/309
f 277/310/310 278/312/312 293/313/313
f 277/310/310 293/313/313 292/311/311
f 300/305/305 301/303/303 304/276/276
f 300/305/305 304/276/276 305/287/287
f 301/303/303 302/300/300 303/277/277
f 301/303/303 303/277/277 304/276/276
f 294/286/286 295/275/275 298/281/281
f 294/286/286 298/281/281 299/280/280
f 295/275/275 296/274/274 297/283/283
f 295/275/275 297/283/283 298/281/281
f 275/279/279 274/278/278 292/311/311
f 275/279/279 292/311/311 293/313/313
f 274/278/278 290/282/282 291/309/309
f 274/278/278 291/309/309 292/311/311
f 306/302/302 281/301/301 276/308/308
f 306/302/302 276/308/308 308/307/307
f 281/301/301 280/304/304 277/310/310
f 281/301/301 277/310/310 276/308/308
f 280/304/304 279/306/306 278/312/312
f 280/304/304 278/312/312 277/310/310
f 282/298/298 306/302/302 308/307/307
f 282/298/298 308/307/307 283/299/299
f 283/299/299 308/307/307 307/292/292
f 283/299/299 307/292/292 284/291/291
f 287/296/296 311/295/295 306/302/302
f 287/296/296 306/302/302 282/298/298
f 302/300/300 311/295/295 313/289/289
f 302/300/300 313/289/289 303/277/277
f 296/274/274 310/288/288 312/285/285
f 296/274/274 312/285/285 297/283/283
f 290/282/282 309/284/284 307/292/292
f 290/282/282 307/292/292 291/309/309
f 289/293/293 310/288/288 313/289/289
f 289/293/293 313/289/289 286/297/297
f 285/290/290 309/284/284 312/285/285
f 285/290/290 312/285/285 288/294/294
f 317/314/314 314/315/315 315/316/316
f 317/314/314 315/316/316 316/317/317
f 321/318/318 318/319/319 319/320/320
f 321/318/318 319/320/320 320/321/321
f 329/322/322 326/323/323 327/324/324
f 329/322/322 327/324/324 328/325/325
f 325/326/326 322/327/327 323/328/328
f 325/326/326 323/328/328 324/329/329
f 314/315/315 321/318/318 320/321/321
f 314/315/315 320/321/321 315/316/316
f 322/327/327 317/314/314 316/317/317
f 322/327/327 316/317/317 323/328/328
f 324/329/329 327/324/324 326/323/323
f 324/329/329 326/323/323 325/326/326
f 328/325/325 319/320/320 318/319/319
f 328/325/325 318/319/319 329/322/322
f 278/312/312 315/316/316 320/321/321
f 278/312/312 320/321/321 293/313/313
f 279/306/306 316/317/317 315/316/316
f 279/306/306 315/316/316 278/312/312
f 300/305/305 323/328/328 316/317/317
f 300/305/305 316/317/317 279/306/306
f 319/320/320 275/279/279 293/313/313
f 319/320/320 293/313/313 320/321/321
f 275/279/279 319/320/320 328/325/325
f 275/279/279 328/325/325 299/280/280
f 323/328/328 300/305/305 305/287/287
f 323/328/328 305/287/287 324/329/329
f 294/286/286 327/324/324 324/329/329
f 294/286/286 324/329/329 305/287/287
f 327/324/324 294/286/286 299/280/280
f 327/324/324 299/280/280 328/325/325
f 317/314/314 322/327/327 325/326/326
f 317/314/314 325/326/326 326/323/323
f 317/314/314 326/323/323 329/322/322
f 317/314/314 329/322/322 318/319/319
f 317/314/314 318/319/319 321/318/318
f 317/314/314 321/318/318 314/315/315
f 352/330/330 351/331/331 360/332/332
f 352/330/330 360/332/332 359/333/333
f 330/334/334 331/335/335 355/336/336
f 330/334/334 355/336/336 354/337/337
f 346/338/338 330/334/334 354/337/337
f 346/338/338 354/337/337 353/339/339
f 365/340/340 346/338/338 353/339/339
f 365/340/340 353/339/339 368/341/341
f 351/331/331 350/342/342 361/343/343
f 351/331/331 361/343/343 360/332/332
f 366/344/344 352/330/330 359/333/333
f 366/344/344 359/333/333 369/345/345
f 365/340/340 341/346/346 340/347/347
f 365/340/340 340/347/347 363/348/348
f 366/344/344 345/349/349 344/350/350
f 366/344/344 344/350/350 368/341/341
f 367/351/351 343/352/352 342/353/353
f 367/351/351 342/353/353 369/345/345
f 340/347/347 341/346/346 344/350/350
f 340/347/347 344/350/350 345/349/349
f 340/347/347 345/349/349 342/353/353
f 340/347/347 342/353/353 343/352/352
f 340/347/347 343/352/352 338/354/354
f 340/347/347 338/354/354 339/355/355
f 367/351/351 358/356/356 337/357/357
f 367/351/351 337/357/357 362/358/358
f 358/356/356 357/359/359 336/360/360
f 358/356/356 336/360/360 337/357/357
f 357/359/359 356/361/361 335/362/362
f 357/359/359 335/362/362 336/360/360
f 364/363/363 332/364/364 347/365/365
f 364/363/363 347/365/365 363/348/348
f 332/364/364 333/366/366 348/367/367
f 332/364/364 348/367/367 347/365/365
f 333/366/366 334/368/368 349/369/369
f 333/366/366 349/369/369 348/367/367
f 356/361/361 357/359/359 360/332/332
f 356/361/361 360/332/332 361/343/343
f 357/359/359 358/356/356 359/333/333
f 357/359/359 359/333/333 360/332/332
f 350/342/342 351/331/331 354/337/337
f 350/342/342 354/337/337 355/336/336
f 351/331/331 352/330/330 353/339/339
f 351/331/331 353/339/339 354/337/337
f 331/335/335 330/334/334 348/367/367
f 331/335/335 348/367/367 349/369/369
f 330/334/334 346/338/338 347/365/365
f 330/334/334 347/365/365 348/367/367
f 362/358/358 337/357/357 332/364/364
f 362/358/358 332/364/364 364/363/363
f 337/357/357 336/360/360 333/366/366
f 337/357/357 333/366/366 332/364/364
f 336/360/360 335/362/362 334/368/368
f 336/360/360 334/368/368 333/366/366
f 338/354/354 362/358/358 364/363/363
f 338/354/354 364/363/363 339/355/355
f 339/355/355 364/363/363 363/348/348
f 339/355/355 363/348/348 340/347/347
f 343/352/352 367/351/351 362/358/358
f 343/352/352 362/358/358 338/354/354
f 358/356/356 367/351/351 369/345/345
f 358/356/356 369/345/345 359/333/333
f 352/330/330 366/344/344 368/341/341
f 352/330/330 368/341/341 353/339/339
f 346/338/338 365/340/340 363/348/348
f 346/338/338 363/348/348 347/365/365
f 345/349/349 366/344/344 369/345/345
f 345/349/349 369/345/345 342/353/353
f 341/346/346 365/340/340 368/341/341
f 341/346/346 368/341/341 344/350/350
f 373/370/370 370/371/371 371/372/372
f 373/370/370 371/372/372 372/373/373
f 377/374/374 374/375/375 375/376/376
f 377/374/374 375/376/376 376/377/377
f 385/378/378 382/379/379 383/380/380
f 385/378/378 383/380/380 384/381/381
f 381/382/382 378/383/383 379/384/384
f 381/382/382 379/384/384 380/385/385
f 370/371/371 377/374/374 376/377/377
f 370/371/371 376/377/377 371/372/372
f 378/383/383 373/370/370 372/373/373
f 378/383/383 372/373/373 379/384/384
f 380/385/385 383/380/380 382/379/379
f 380/385/385 382/379/379 381/382/382
f 384/381/381 375/376/376 374/375/375
f 384/381/381 374/375/375 385/378/378
f 334/368/368 371/372/372 376/377/377
f 334/368/368 376/377/377 349/369/369
f 335/362/362 372/373/373 371/372/372
f 335/362/362 371/372/372 334/368/368
f 356/361/361 379/384/384 372/373/373
f 356/361/361 372/373/373 335/362/362
f 375/376/376 331/335/335 349/369/369
f 375/376/376 349/369/369 376/377/377
f 331/335/335 375/376/376 384/381/381
f 331/335/335 384/381/381 355/336/336
f 379/384/384 356/361/361 361/343/343
f 379/384/384 361/343/343 380/385/385
f 350/342/342 383/380/380 380/385/385
f 350/342/342 380/385/385 361/343/343
f 383/380/380 350/342/342 355/336/336
f 383/380/380 355/336/336 384/381/381
f 373/370/370 378/383/383 381/382/382
f 373/370/370 381/382/382 382/379/379
f 373/370/370 382/379/379 385/378/378
f 373/370/370 385/378/378 374/375/375
f 373/370/370 374/375/375 377/374/374
f 373/370/370 377/374/374 370/371/371
f 389/386/386 393/387/387 394/388/388
f 389/386/386 394/388/388 390/389/389
f 391/390/390 394/388/388 393/387/387
f 391/390/390 393/387/387 392/391/391
f 398/392/392 386/393/393 399/394/394
f 400/395/395 392/391/391 393/387/387
f 400/395/395 393/387/387 399/394/394
f 395/396/396 396/397/397 397/398/398
f 391/390/390 388/399/399 397/398/398
f 391/390/390 397/398/398 396/397/397
f 391/390/390 396/397/397 394/388/388
f 387/400/400 390/389/389 394/388/388
f 387/400/400 394/388/388 396/397/397
f 387/400/400 396/397/397 395/396/396
f 386/393/393 400/395/395 399/394/394
f 389/386/386 398/392/392 399/394/394
f 389/386/386 399/394/394 393/387/387
