# Blender 4.5.5 LTS
# www.blender.org
o SM_Vegetative_Severe.002
v -0.213645 1.418327 0.013016
v -0.137086 1.839708 -0.027059
v -0.151590 0.563480 0.080661
v -0.165688 1.414063 0.025944
v -0.093152 1.831104 -0.016754
v -0.080270 1.827178 -0.034821
v -0.150331 1.411986 0.006689
v -0.125493 0.563382 0.052656
v -0.075161 -0.082671 0.050441
v -0.103336 -0.082671 0.080312
v -0.151114 -0.082671 0.081708
v -0.180985 -0.082671 0.053532
v -0.106428 -0.082671 -0.025512
v -0.076557 -0.082671 0.002663
v -0.182381 -0.082671 0.005755
v -0.154206 -0.082671 -0.024117
v -0.224145 0.563737 0.055603
v -0.196134 0.563639 0.081992
v -0.194277 1.416928 0.028803
v -0.118800 1.836762 -0.013250
v -0.128689 1.834988 -0.071326
v -0.201593 1.415745 -0.035050
v -0.199617 0.563663 -0.017159
v -0.225714 0.563748 0.010837
v -0.216946 1.417793 -0.015813
v -0.141571 1.838911 -0.053267
v -0.084715 1.826372 -0.061050
v -0.153644 1.411455 -0.022134
v -0.127072 0.563390 0.007890
v -0.155087 0.563501 -0.018489
v -0.173018 1.412885 -0.037901
v -0.103002 1.829323 -0.074849
v -0.115466 0.246179 0.050892
v -0.188648 0.238084 0.081187
v -0.142605 0.243119 0.079842
v -0.217441 0.235026 0.053867
v -0.191646 0.238084 -0.021405
v -0.116824 0.246180 0.004577
v -0.218794 0.235026 0.007549
v -0.145608 0.243120 -0.022747
v 0.186370 2.706151 -0.119350
v 0.137284 2.565698 -0.094123
v 0.146088 2.560068 -0.108078
v 0.188473 2.704972 -0.122769
v 0.178338 2.708829 -0.121128
v 0.104250 2.578904 -0.101332
v 0.118403 2.574200 -0.091087
v 0.181796 2.707895 -0.118610
v 0.187367 2.704751 -0.127646
v 0.141612 2.559164 -0.127945
v 0.127405 2.563727 -0.138155
v 0.183927 2.705674 -0.130161
v 0.179352 2.707417 -0.129421
v 0.108516 2.572233 -0.135102
v 0.099769 2.578002 -0.121186
v 0.177231 2.708608 -0.126006
v -0.866907 1.491093 -0.098261
v -0.219588 0.323621 0.060711
v -0.502432 1.068397 0.014594
v -0.324930 0.724297 0.061524
v -0.525650 1.029296 -0.071810
v -0.348346 0.684128 -0.032701
v -0.209191 0.289833 0.037052
v -0.251946 0.298075 0.013039
v -0.196726 0.292784 -0.005632
v -0.662688 1.322868 -0.062719
v -0.687267 1.286547 -0.099775
v 0.744748 1.684351 -0.744667
v -0.073872 0.778125 -0.074636
v 0.301952 1.551031 -0.436747
v 0.083999 1.264768 -0.256456
v 0.384474 1.495707 -0.385963
v 0.172406 1.207011 -0.201600
v -0.068089 0.743841 -0.040942
v -0.016318 0.735714 -0.062830
v -0.036990 0.748582 -0.000458
v 0.501623 1.659344 -0.538451
v 0.536301 1.608527 -0.520703
v 0.171538 1.572949 -0.656642
v -0.190047 1.254225 0.007479
v -0.115204 1.266851 0.059820
v -0.113166 1.896427 -0.283810
v -0.207752 1.658001 -0.083869
v -0.055888 1.679647 0.002293
v 0.033767 1.925334 -0.221477
v -0.047437 1.868246 -0.214713
v -0.104828 1.629404 -0.077306
v -0.166343 1.222641 0.024182
v -0.130909 1.235609 -0.009070
v -0.129567 1.229541 0.049899
v 0.065171 1.761296 -0.499092
v 0.086019 1.732384 -0.452905
v 0.133211 1.774740 -0.469022
v -0.490881 1.893150 0.582362
v -0.178760 0.519748 0.070503
v -0.229472 0.529436 0.047180
v -0.329907 1.396192 0.324126
v -0.239319 0.991121 0.181271
v -0.339708 1.005111 0.145254
v -0.422772 1.409283 0.291705
v -0.380346 1.353212 0.324995
v -0.294421 0.947209 0.181363
v -0.187887 0.481042 0.057928
v -0.208234 0.490937 0.082285
v -0.212941 0.486619 0.046569
v -0.426072 1.696989 0.443036
v -0.446884 1.655146 0.449908
v -0.469208 1.701786 0.427742
v -0.623714 2.515866 -0.333102
v -0.214410 0.348250 0.020201
v -0.140484 0.374780 -0.010851
v -0.437028 1.704934 -0.083675
v -0.324249 1.067342 0.011307
v -0.189144 1.113920 -0.061447
v -0.313093 1.748376 -0.151765
v -0.386746 1.658852 -0.155156
v -0.268589 1.021273 -0.064935
v -0.188068 0.293145 0.008561
v -0.197683 0.317719 -0.033390
v -0.151799 0.307422 -0.006663
v -0.508222 2.189567 -0.198242
v -0.492936 2.136649 -0.242113
v -0.450276 2.207851 -0.230092
v 0.188467 1.328885 0.139255
v 0.309397 1.732192 0.227283
v 0.103341 0.474091 0.103608
v 0.212004 1.316021 0.181275
v 0.331624 1.715838 0.264011
v 0.353105 1.710439 0.259866
v 0.236221 1.312063 0.178312
v 0.141439 0.470573 0.102369
v 0.117661 -0.174057 0.040644
v 0.076780 -0.170349 0.041712
v 0.042716 -0.162241 0.009176
v 0.042212 -0.156100 -0.031422
v 0.150391 -0.165912 -0.034249
v 0.150895 -0.172054 0.006349
v 0.075446 -0.154097 -0.065717
v 0.116327 -0.157805 -0.066785
v 0.071090 0.487660 0.035285
v 0.071577 0.481805 0.073319
v 0.190439 1.323617 0.163641
v 0.311893 1.725659 0.249302
v 0.346455 1.727745 0.201606
v 0.230973 1.326060 0.113810
v 0.140142 0.486085 0.001739
v 0.102050 0.489592 0.002971
v 0.206769 1.329987 0.116758
v 0.324978 1.733141 0.205744
v 0.368729 1.711374 0.238341
v 0.254510 1.313171 0.155811
v 0.172390 0.472503 0.070047
v 0.171895 0.478370 0.032020
v 0.252523 1.318469 0.131440
v 0.366226 1.717911 0.216329
v 0.120085 0.156601 0.061292
v 0.047000 0.160009 0.029893
v 0.080296 0.157153 0.061992
v 0.046345 0.162924 -0.009804
v 0.118362 0.164310 -0.043748
v 0.152299 0.158544 0.028043
v 0.078564 0.164866 -0.043051
v 0.151653 0.161456 -0.011651
v 0.680580 2.534105 0.515254
v 0.550478 2.240824 0.427361
v 0.564598 2.235827 0.423883
v 0.682704 2.533324 0.514647
v 0.678319 2.536387 0.511625
v 0.535735 2.255459 0.403436
v 0.537476 2.249713 0.418132
v 0.678601 2.535489 0.513890
v 0.684220 2.533408 0.512289
v 0.574745 2.236430 0.408902
v 0.572951 2.242115 0.394173
v 0.683943 2.534298 0.510031
v 0.681963 2.535682 0.508667
v 0.559896 2.250982 0.384957
v 0.545841 2.256040 0.388468
v 0.679834 2.536471 0.509267
v 0.785511 1.700538 0.542951
v 0.205582 0.549471 0.014696
v 0.129444 0.558425 0.085136
v 0.462844 1.430487 0.180162
v 0.314442 1.080324 0.048563
v 0.184177 1.091983 0.193640
v 0.341809 1.441197 0.317231
v 0.431036 1.387201 0.277959
v 0.279662 1.035344 0.153099
v 0.179149 0.512568 0.031536
v 0.207195 0.519136 0.080482
v 0.141782 0.517744 0.066256
v 0.563536 1.593191 0.339323
v 0.558507 1.548936 0.385325
v 0.506575 1.595904 0.402853
v 0.059335 1.776867 0.785979
v 0.110805 0.123271 -0.014884
v 0.146163 1.172969 0.413664
v 0.158335 0.684691 0.187095
v 0.073989 1.137528 0.401726
v 0.080504 0.649674 0.173503
v 0.090789 0.081921 -0.037390
v 0.065794 0.096784 -0.008807
v 0.064581 0.097597 -0.053286
v 0.100969 1.542788 0.593924
v 0.063190 1.498874 0.593029
v -0.030832 1.506919 -0.070080
v -0.090460 1.929131 -0.013417
v -0.077070 0.648754 -0.045477
v -0.076898 1.501188 -0.051909
v -0.131515 1.919303 0.004702
v -0.131051 1.916501 0.027055
v -0.077825 1.500283 -0.027226
v -0.081600 0.650310 -0.007498
v -0.087877 0.005450 0.056055
v -0.082767 0.003691 0.015349
v -0.045069 0.004162 -0.014033
v -0.004379 0.006494 -0.009025
v -0.017903 0.011150 0.098689
v -0.058593 0.008818 0.093681
v 0.024905 0.009862 0.028601
v 0.019794 0.011622 0.069307
v -0.003817 0.651633 -0.068236
v -0.041950 0.649350 -0.072902
v -0.055680 1.504185 -0.071261
v -0.113191 1.925006 -0.013569
v -0.070898 1.927428 0.027409
v -0.012088 1.507571 -0.024140
v 0.019295 0.656370 0.004834
v 0.023831 0.654803 -0.033136
v -0.011152 1.508447 -0.048804
v -0.071356 1.930228 0.005061
v -0.111969 1.917589 0.045575
v -0.058139 1.501815 -0.005963
v -0.053943 0.653477 0.027596
v -0.015815 0.655771 0.032250
v -0.033300 1.504578 -0.004803
v -0.089243 1.921719 0.045719
v -0.072444 0.333915 0.015564
v -0.030883 0.324588 -0.051701
v -0.067469 0.329155 -0.023635
v 0.008589 0.323797 -0.046593
v 0.031999 0.331820 0.029093
v -0.044052 0.337181 0.052036
v 0.036979 0.327062 -0.010116
v -0.004585 0.336388 0.057153
v -0.338394 2.796483 0.210170
v -0.265769 2.481583 0.131224
v -0.264881 2.478244 0.146208
v -0.338193 2.795973 0.212320
v -0.334476 2.798017 0.208338
v -0.238554 2.491878 0.118685
v -0.253887 2.487769 0.118824
v -0.336717 2.797407 0.208373
v -0.336189 2.796044 0.214061
v -0.251503 2.478857 0.158390
v -0.236137 2.482897 0.158212
v -0.333956 2.796648 0.214031
v -0.332278 2.797571 0.212234
v -0.224262 2.489054 0.145759
v -0.225185 2.492466 0.130827
v -0.332471 2.798088 0.210079
v -0.471584 1.990583 0.408840
v 0.004248 0.728912 0.059417
v -0.053364 0.733826 -0.027160
v -0.098635 1.647876 0.180545
v 0.013537 1.270470 0.097255
v -0.109601 1.277479 -0.054206
v -0.215296 1.654473 0.039482
v -0.195113 1.609689 0.139513
v -0.089338 1.230818 0.052475
v -0.012627 0.690450 0.035334
v -0.064023 0.705128 0.054530
v -0.040964 0.693647 -0.007274
v -0.251670 1.836356 0.235310
v -0.301058 1.796157 0.228620
v -0.305865 1.837076 0.169353
v -0.711645 2.444940 -0.458402
v -0.122479 0.749434 -0.062731
v -0.079686 0.767502 -0.114411
v -0.426770 1.828463 -0.235574
v -0.262163 1.328299 -0.123154
v -0.189188 1.357415 -0.229146
v -0.360336 1.855551 -0.333890
v -0.409708 1.781428 -0.299639
v -0.242683 1.280658 -0.192576
v -0.102519 0.703543 -0.073341
v -0.125662 0.717088 -0.104060
v -0.081617 0.713430 -0.098849
v -0.555264 2.202618 -0.357227
v -0.554558 2.153566 -0.388048
v -0.524053 2.213640 -0.402947
v 0.047794 1.437512 0.150418
v 0.050813 1.862943 0.104230
v 0.071730 0.592225 0.148367
v 0.071776 1.434618 0.106810
v 0.070936 1.856103 0.063503
v 0.056354 1.854694 0.046381
v 0.056798 1.435144 0.087155
v 0.051082 0.593781 0.116171
v 0.015525 -0.051079 0.115480
v 0.037458 -0.052838 0.150150
v 0.027039 -0.052367 0.196797
v -0.007554 -0.050035 0.218799
v -0.065593 -0.045379 0.127057
v -0.031001 -0.047711 0.105054
v -0.054079 -0.046667 0.208373
v -0.076012 -0.044907 0.173703
v 0.029656 0.595104 0.212505
v 0.062056 0.592821 0.191864
v 0.067712 1.435688 0.135377
v 0.068434 1.859829 0.089618
v 0.009753 1.862944 0.085088
v 0.004129 1.440023 0.126981
v -0.034639 0.599841 0.170795
v -0.014000 0.598273 0.202988
v 0.019087 1.439469 0.146626
v 0.024326 1.864351 0.102208
v 0.029857 1.856097 0.044314
v 0.028095 1.437103 0.083376
v 0.007423 0.596947 0.106665
v -0.024967 0.599242 0.127312
v 0.008197 1.438955 0.098430
v 0.012245 1.859216 0.058930
v 0.029353 0.277386 0.116770
v 0.040035 0.268059 0.195114
v 0.050434 0.272626 0.150190
v 0.006319 0.267268 0.216265
v -0.059867 0.275291 0.172726
v -0.015750 0.280652 0.106667
v -0.038785 0.270533 0.206157
v -0.049468 0.279859 0.127808
v 0.160545 2.568278 -0.066196
v 0.123572 2.248223 0.016614
v 0.113167 2.246723 0.005392
v 0.158772 2.568000 -0.067984
v 0.158566 2.569878 -0.061616
v 0.111384 2.257624 0.044309
v 0.122756 2.253177 0.034165
v 0.160452 2.569128 -0.063322
v 0.155764 2.568376 -0.068056
v 0.095243 2.249123 0.004547
v 0.083862 2.253498 0.014737
v 0.153881 2.569119 -0.066361
v 0.153788 2.569969 -0.063486
v 0.083083 2.258417 0.032321
v 0.093489 2.259995 0.043487
v 0.155558 2.570255 -0.061688
v -0.157814 1.421051 0.184827
v -0.118154 1.846482 0.208691
v -0.166968 0.575763 0.207039
v -0.130060 1.418157 0.226137
v -0.091189 1.839641 0.245249
v -0.069287 1.838232 0.240143
v -0.105725 1.418682 0.221840
v -0.128888 0.577320 0.203454
v -0.128923 -0.064166 0.126201
v -0.169958 -0.065143 0.125048
v -0.189511 -0.068829 0.145115
v -0.193201 -0.066497 0.104284
v -0.085058 -0.061840 0.094778
v -0.081368 -0.064173 0.135609
v -0.162600 -0.063129 0.067721
v -0.121732 -0.061369 0.064128
v -0.204671 0.578642 0.140237
v -0.201186 0.576359 0.178495
v -0.153582 1.419227 0.209425
v -0.113249 1.843367 0.231051
v -0.082314 1.846482 0.180980
v -0.116964 1.423561 0.156772
v -0.138121 0.583379 0.102228
v -0.176194 0.581812 0.105806
v -0.141280 1.423007 0.161056
v -0.104211 1.847889 0.186080
v -0.055299 1.839635 0.217545
v -0.089204 1.420641 0.198065
v -0.100420 0.580486 0.169016
v -0.103915 0.582780 0.130764
v -0.093457 1.422494 0.173479
v -0.060211 1.842754 0.195191
v -0.131494 0.264350 0.138566
v -0.193976 0.251597 0.157436
v -0.171074 0.260344 0.137387
v -0.197310 0.250806 0.117775
v -0.128268 0.258829 0.078923
v -0.089796 0.264190 0.148422
v -0.167644 0.254071 0.082328
v -0.093120 0.263397 0.108764
v -0.016904 2.552114 0.383084
v -0.073659 2.231761 0.313527
v -0.058915 2.230262 0.309427
v -0.015346 2.551934 0.382594
v -0.018955 2.553152 0.380581
v -0.092681 2.241162 0.289996
v -0.088881 2.236715 0.304754
v -0.018533 2.552665 0.382176
v -0.014409 2.552177 0.380882
v -0.049945 2.232661 0.293886
v -0.053781 2.237036 0.279100
v -0.014826 2.552660 0.379292
v -0.016456 2.553211 0.378383
v -0.069050 2.241955 0.270343
v -0.083745 2.243533 0.274470
v -0.018019 2.553396 0.378868
v -0.249267 1.979378 0.604173
v -0.114041 1.056500 0.213526
v -0.111813 1.624554 0.407518
v -0.077676 1.353530 0.300516
v -0.179947 1.615118 0.381771
v -0.150649 1.344880 0.271416
v -0.130131 1.035993 0.194966
v -0.160920 1.049894 0.211022
v -0.148875 1.045609 0.168892
v -0.174337 1.835570 0.485727
v -0.213880 1.818505 0.482512
vn -0.4293 -0.0091 -0.9031
vn -0.4878 -0.0020 -0.8730
vn 0.2730 -0.0710 -0.9594
vn 0.3422 0.0042 -0.9396
vn -0.8781 0.1165 0.4641
vn -0.8251 0.2561 0.5037
vn -0.9463 0.2164 -0.2402
vn -0.9574 0.0758 -0.2787
vn -0.9032 0.0061 0.4291
vn -0.9436 -0.0080 -0.3310
vn -0.9121 -0.0631 0.4052
vn -0.9345 -0.0608 -0.3507
vn -0.5153 0.0547 -0.8553
vn 0.2152 -0.1345 -0.9673
vn -0.4191 -0.0195 -0.9077
vn 0.3444 0.0362 -0.9381
vn -0.6743 -0.6690 0.3127
vn -0.2522 -0.6439 0.7223
vn -0.3650 -0.0257 0.9307
vn -0.2939 -0.6439 -0.7064
vn -0.6914 -0.6690 -0.2728
vn 0.9072 0.0732 -0.4143
vn 0.7417 -0.5871 -0.3244
vn 0.3001 -0.6100 -0.7334
vn 0.7593 -0.5871 0.2806
vn 0.3424 -0.6100 0.7146
vn 0.9069 0.0233 -0.4207
vn 0.9388 0.0365 0.3426
vn 0.9315 0.0702 0.3570
vn 0.8757 -0.0882 -0.4748
vn 0.9525 -0.0430 0.3015
vn 0.8195 -0.2415 -0.5197
vn 0.9481 -0.2009 0.2466
vn 0.4003 0.0294 0.9159
vn 0.4214 0.0368 0.9061
vn -0.3415 0.0244 0.9396
vn 0.4493 0.0364 0.8927
vn -0.3084 0.1009 0.9459
vn 0.4955 -0.0306 0.8681
vn -0.2415 0.1574 0.9575
vn 0.9200 0.3883 0.0534
vn 0.6348 0.5323 0.5600
vn 0.5231 -0.0535 0.8506
vn 0.9409 -0.2613 0.2156
vn 0.0751 0.7705 0.6330
vn -0.3533 0.8694 0.3454
vn -0.7561 0.3992 0.5186
vn -0.1823 0.2185 0.9587
vn -0.4096 0.8757 -0.2559
vn -0.1453 0.6955 -0.7036
vn -0.4869 0.1806 -0.8546
vn -0.8918 0.3879 -0.2329
vn 0.3644 0.5269 -0.7678
vn 0.8094 0.3915 -0.4377
vn 0.7923 -0.2713 -0.5465
vn 0.2063 -0.0904 -0.9743
vn -0.8032 -0.3796 0.4591
vn -0.8604 -0.4789 -0.1743
vn -0.9000 -0.3818 -0.2102
vn -0.8554 -0.3130 0.4127
vn -0.6330 -0.4133 0.6546
vn -0.7457 -0.6540 -0.1275
vn -0.8150 -0.5620 -0.1414
vn -0.6514 -0.7223 0.2323
vn -0.8432 -0.5075 -0.1776
vn -0.4852 -0.6208 -0.6158
vn -0.8691 -0.2135 0.4461
vn -0.0057 -0.6125 -0.7904
vn 0.4852 -0.7659 -0.4219
vn 0.6278 -0.5834 -0.5153
vn 0.1261 -0.5058 -0.8534
vn -0.3057 -0.6125 -0.7290
vn 0.1696 -0.9706 -0.1707
vn 0.2977 -0.9089 -0.2921
vn 0.0564 -0.8523 -0.5200
vn 0.5589 -0.6849 -0.4675
vn 0.6717 -0.7350 0.0927
vn 0.1524 -0.3778 -0.9133
vn -0.3508 -0.8664 -0.3553
vn 0.3619 -0.8711 -0.3319
vn 0.5085 -0.4258 -0.7484
vn 0.0263 -0.4395 -0.8979
vn 0.8253 -0.3939 -0.4045
vn 0.7010 -0.6558 0.2804
vn -0.7432 -0.6665 0.0581
vn -0.1231 -0.8060 0.5790
vn -0.0687 -0.8666 0.4942
vn 0.5907 -0.5214 0.6158
vn 0.0652 -0.7037 -0.7075
vn 0.4885 -0.4379 -0.7547
vn 0.8064 -0.5207 -0.2804
vn 0.9357 -0.1563 -0.3162
vn -0.1256 -0.2089 -0.9698
vn 0.3380 -0.2615 0.9041
vn -0.3400 -0.3825 0.8592
vn -0.3730 -0.3212 0.8705
vn 0.2551 -0.2428 0.9359
vn -0.8270 -0.3227 0.4603
vn -0.8471 -0.3352 0.4123
vn 0.6203 -0.2478 0.7442
vn -0.3452 -0.5043 0.7915
vn -0.2995 -0.4224 0.8555
vn -0.8989 -0.3202 0.2992
vn -0.0026 -0.7284 0.6852
vn -0.3391 -0.4655 0.8175
vn -0.6983 -0.6240 0.3507
vn -0.8621 -0.2758 0.4251
vn 0.2890 -0.1756 0.9411
vn -0.8969 -0.2320 -0.3765
vn -0.4256 -0.2097 -0.8803
vn -0.4169 -0.1419 -0.8978
vn -0.8699 -0.1929 -0.4539
vn 0.1873 -0.0893 -0.9782
vn 0.2379 -0.1021 -0.9659
vn -0.9532 -0.2955 -0.0631
vn -0.3633 -0.3340 -0.8698
vn -0.4462 -0.2575 -0.8571
vn 0.3570 -0.0883 -0.9299
vn -0.4858 -0.6358 -0.5999
vn -0.3894 -0.2949 -0.8726
vn 0.2074 -0.4209 -0.8831
vn 0.2341 -0.0399 -0.9714
vn -0.8992 -0.1343 -0.4164
vn 0.3486 0.0977 -0.9322
vn 0.2871 0.1136 -0.9511
vn 0.8691 -0.0811 -0.4880
vn 0.9098 -0.0196 -0.4145
vn -0.9290 0.2475 -0.2750
vn -0.9044 0.3805 -0.1930
vn -0.4582 0.3889 -0.7993
vn -0.4560 0.2484 -0.8546
vn -0.9317 0.1444 -0.3334
vn -0.4168 0.1655 -0.8938
vn -0.9271 0.0786 -0.3665
vn -0.4014 0.1127 -0.9089
vn 0.2642 0.1779 -0.9479
vn 0.8315 -0.1314 -0.5398
vn 0.3579 0.0859 -0.9298
vn 0.9133 0.0115 -0.4072
vn -0.7528 -0.5551 -0.3537
vn -0.7516 -0.6177 0.2316
vn -0.9212 0.0027 0.3892
vn 0.2422 -0.5578 -0.7939
vn -0.3455 -0.5306 -0.7740
vn 0.9312 -0.0675 0.3582
vn 0.6908 -0.6927 0.2072
vn 0.6758 -0.6248 -0.3910
vn 0.2700 -0.7181 0.6414
vn -0.3314 -0.6855 0.6483
vn 0.9309 -0.1164 0.3462
vn 0.4079 -0.1370 0.9027
vn 0.3956 -0.1031 0.9126
vn 0.9376 -0.2188 0.2701
vn 0.4394 -0.2161 0.8719
vn 0.9162 -0.3575 0.1813
vn 0.4585 -0.3670 0.8094
vn -0.3759 -0.0732 0.9238
vn -0.3536 -0.0692 0.9328
vn -0.9066 0.0476 0.4193
vn -0.3247 -0.0738 0.9429
vn -0.8811 0.1171 0.4582
vn -0.2835 -0.1435 0.9482
vn -0.8387 0.1665 0.5186
vn 0.6016 0.2077 0.7713
vn 0.0543 0.4002 0.9148
vn -0.2588 -0.1788 0.9492
vn 0.4639 -0.4253 0.7771
vn -0.3580 0.6928 0.6261
vn -0.4135 0.9049 0.1009
vn -0.8780 0.4598 -0.1332
vn -0.8067 0.1881 0.5603
vn -0.0862 0.9211 -0.3796
vn 0.4560 0.7234 -0.5184
vn 0.2800 0.2461 -0.9279
vn -0.4364 0.4897 -0.7548
vn 0.8672 0.4407 -0.2318
vn 0.9281 0.2326 0.2906
vn 0.9065 -0.3950 0.1489
vn 0.8291 -0.1204 -0.5460
vn 0.8807 -0.4736 0.0080
vn 0.5958 -0.5715 0.5643
vn 0.6696 -0.3507 0.6547
vn 0.9369 -0.3329 0.1068
vn 0.1521 -0.3174 0.9360
vn 0.0672 -0.4547 0.8881
vn 0.7904 -0.5472 -0.2752
vn 0.3539 -0.8746 0.3315
vn 0.4748 -0.7692 0.4276
vn -0.1040 -0.5238 0.8455
vn 0.6640 -0.7322 0.1515
vn 0.6336 -0.4706 0.6141
vn 0.1049 -0.5789 0.8086
vn 0.1410 -0.1945 0.9707
vn 0.9758 -0.1947 0.0993
vn 0.1484 -0.4284 0.8913
vn -0.5277 -0.3712 0.7640
vn -0.5465 -0.3050 0.7799
vn 0.0688 -0.3930 0.9169
vn 0.4440 -0.4694 0.7633
vn -0.5526 -0.4804 0.6811
vn -0.4977 -0.4194 0.7592
vn -0.2619 -0.7707 0.5808
vn -0.5410 -0.4472 0.7123
vn -0.8648 -0.4625 0.1956
vn 0.1167 -0.3373 0.9341
vn 0.8788 0.0594 0.4734
vn 0.9079 0.0651 0.4141
vn 0.3490 -0.0068 0.9371
vn 0.2776 0.0660 0.9584
vn 0.4284 0.0941 -0.8987
vn 0.3588 0.2361 -0.9031
vn 0.8934 0.2499 -0.3732
vn 0.9323 0.1065 -0.3457
vn 0.4750 -0.0132 -0.8799
vn 0.9563 0.0265 -0.2913
vn 0.4998 -0.0805 -0.8624
vn 0.9632 -0.0249 -0.2675
vn 0.9150 0.1257 0.3834
vn 0.3998 -0.0661 0.9142
vn 0.8739 0.0492 0.4836
vn 0.2733 0.0979 0.9569
vn 0.3935 -0.6812 -0.6174
vn -0.1895 -0.6900 -0.6986
vn -0.2529 -0.0865 -0.9636
vn 0.6862 -0.5893 0.4265
vn 0.7524 -0.6399 -0.1562
vn -0.4910 0.0913 0.8664
vn -0.3767 -0.5717 0.7289
vn 0.2214 -0.5606 0.7980
vn -0.7476 -0.6144 0.2524
vn -0.6661 -0.6627 -0.3424
vn -0.4844 0.0419 0.8738
vn -0.9607 0.0012 0.2777
vn -0.9650 0.0339 0.2601
vn -0.4217 -0.0651 0.9044
vn -0.9434 -0.0753 0.3229
vn -0.3465 -0.2128 0.9136
vn -0.9010 -0.2273 0.3694
vn -0.8641 -0.0397 -0.5018
vn -0.8757 -0.0319 -0.4818
vn -0.2797 -0.0375 -0.9594
vn -0.8902 -0.0317 -0.4545
vn -0.3140 0.0379 -0.9487
vn -0.9087 -0.0943 -0.4066
vn -0.3740 0.0979 -0.9223
vn -0.8210 0.3559 0.4465
vn -0.8640 0.4849 -0.1353
vn -0.9172 -0.1255 -0.3783
vn -0.8766 -0.2867 0.3866
vn -0.4900 0.6919 -0.5303
vn 0.0577 0.8464 -0.5294
vn 0.3049 0.3235 -0.8958
vn -0.4172 0.1276 -0.8998
vn 0.4861 0.8632 -0.1365
vn 0.5246 0.7288 0.4401
vn 0.9004 0.1971 0.3878
vn 0.8576 0.3565 -0.3707
vn 0.1539 0.5311 0.8332
vn -0.3914 0.3811 0.8376
vn -0.3174 -0.2538 0.9137
vn 0.4073 -0.0559 0.9116
vn -0.1836 -0.3478 0.9194
vn -0.7016 -0.4327 0.5662
vn -0.7768 -0.1967 0.5983
vn -0.2734 -0.1924 0.9425
vn -0.9771 -0.2083 0.0434
vn -0.9330 -0.3595 -0.0160
vn 0.0997 -0.4582 0.8833
vn -0.4715 -0.7854 0.4011
vn -0.5716 -0.6565 0.4923
vn -0.8745 -0.4546 -0.1691
vn -0.3225 -0.6193 0.7158
vn -0.7448 -0.3236 0.5836
vn -0.8736 -0.4842 0.0481
vn -0.9963 -0.0853 0.0124
vn -0.2564 -0.0515 0.9652
vn -0.9468 -0.3131 0.0739
vn -0.7266 -0.3723 -0.5775
vn -0.7320 -0.3087 -0.6073
vn -0.9575 -0.2880 -0.0126
vn -0.2210 -0.2596 -0.9401
vn -0.1689 -0.2690 -0.9482
vn -0.8642 -0.3205 0.3879
vn -0.6542 -0.4915 -0.5749
vn -0.7314 -0.4156 -0.5407
vn -0.0473 -0.2467 -0.9679
vn -0.6274 -0.7423 -0.2353
vn -0.6827 -0.4541 -0.5725
vn -0.1334 -0.5683 -0.8119
vn -0.1803 -0.2089 -0.9612
vn -0.9742 -0.2242 0.0241
vn -0.9783 0.0669 0.1961
vn -0.9680 0.0486 0.2462
vn -0.8584 -0.0115 -0.5128
vn -0.8267 0.0378 -0.5614
vn 0.2476 0.0840 0.9652
vn 0.2876 0.0993 0.9526
vn -0.4670 0.1526 0.8710
vn -0.5034 0.0880 0.8596
vn 0.1962 0.0325 0.9800
vn -0.5484 0.0644 0.8337
vn 0.1687 -0.0001 0.9857
vn -0.5738 0.0420 0.8179
vn -0.9523 0.1254 0.2783
vn -0.8830 0.0356 -0.4681
vn -0.9829 0.0637 0.1730
vn -0.8172 0.0521 -0.5740
vn 0.0932 -0.6359 0.7661
vn 0.5972 -0.6652 0.4483
vn 0.8150 -0.0394 0.5782
vn -0.8020 -0.5827 0.1310
vn -0.4856 -0.6019 0.6340
vn -0.1746 0.0129 -0.9846
vn -0.1722 -0.6169 -0.7680
vn -0.6720 -0.5889 -0.4491
vn 0.4075 -0.6513 -0.6401
vn 0.7282 -0.6717 -0.1361
vn -0.1856 -0.0051 -0.9826
vn 0.5635 -0.0364 -0.8253
vn 0.5706 -0.0311 -0.8206
vn -0.2466 -0.0555 -0.9675
vn 0.5137 -0.0580 -0.8560
vn -0.3183 -0.0636 -0.9458
vn 0.4428 -0.1192 -0.8887
vn 0.9836 -0.0528 -0.1725
vn 0.9823 -0.0383 -0.1833
vn 0.8264 -0.0097 0.5630
vn 0.9722 -0.0174 -0.2337
vn 0.8536 0.0411 0.5193
vn 0.9530 -0.0943 -0.2879
vn 0.8755 -0.0019 0.4833
vn 0.3881 0.3854 -0.8372
vn 0.7991 0.4428 -0.4067
vn 0.9422 -0.1735 -0.2866
vn 0.4251 -0.2065 -0.8813
vn 0.7775 0.6105 0.1506
vn 0.3683 0.7777 0.5094
vn 0.3438 0.1726 0.9230
vn 0.8894 -0.0142 0.4569
vn -0.2080 0.8522 0.4801
vn -0.6126 0.7888 0.0503
vn -0.9195 0.2537 0.3003
vn -0.4019 0.2856 0.8700
vn -0.5916 0.6302 -0.5028
vn -0.1871 0.4681 -0.8636
vn -0.3443 -0.0901 -0.9345
vn -0.8904 0.0979 -0.4446
vn 0.2744 0.0669 -0.9593
vn 0.2251 0.0486 -0.9731
vn 0.8494 -0.0115 -0.5277
vn 0.8780 0.0378 -0.4772
vn -0.9713 0.0840 -0.2226
vn -0.9784 0.0993 -0.1812
vn -0.5599 0.1526 -0.8144
vn -0.5330 0.0880 -0.8415
vn -0.9609 0.0325 -0.2750
vn -0.4894 0.0644 -0.8697
vn -0.9533 -0.0001 -0.3021
vn -0.4637 0.0420 -0.8850
vn 0.1894 0.1254 -0.9739
vn 0.8209 0.0356 -0.5700
vn 0.2970 0.0637 -0.9527
vn 0.8848 0.0521 -0.4630
vn -0.7250 -0.6387 -0.2577
vn -0.3144 -0.5871 0.7460
vn -0.5776 -0.0836 0.8120
vn 0.2545 -0.5881 -0.7677
vn -0.3425 -0.6075 -0.7167
vn 0.7733 -0.0341 0.6331
vn 0.5628 -0.5786 0.5903
vn 0.7107 -0.5914 -0.3810
vn -0.0595 -0.7170 0.6946
vn 0.3183 -0.6354 0.7036
vn 0.9164 -0.0368 0.3985
vn 0.3374 -0.1032 0.9357
vn 0.0347 -0.1079 0.9936
vn 0.9729 -0.0555 0.2245
vn 0.5251 -0.0580 0.8491
vn 0.9865 -0.0636 0.1509
vn 0.5867 -0.1192 0.8010
vn 0.1232 -0.1096 0.9863
vn -0.1566 -0.0970 0.9829
vn -0.8085 -0.0336 0.5875
vn -0.2381 -0.0174 0.9711
vn -0.8529 0.0411 0.5204
vn -0.1812 -0.0943 0.9789
vn -0.8309 -0.0019 0.5564
vn 0.5648 0.3872 0.7287
vn -0.0053 0.4445 0.8957
vn -0.1775 -0.1716 0.9691
vn 0.5880 -0.2046 0.7826
vn -0.4895 0.6119 0.6213
vn -0.6200 0.7790 0.0937
vn -0.9776 0.1745 -0.1176
vn -0.8137 -0.0123 0.5812
vn -0.3298 0.8532 -0.4040
vn 0.2368 0.7897 -0.5659
vn 0.1554 0.2555 -0.9543
vn -0.5882 0.2874 -0.7559
vn 0.7175 0.6315 -0.2940
vn 0.8523 0.4696 0.2304
vn 0.9884 -0.0883 0.1233
vn 0.8036 0.0997 -0.5867
vn -0.2120 -0.4046 0.8896
vn -0.7601 -0.3280 0.5609
vn -0.7843 -0.2214 0.5794
vn -0.2598 -0.3232 0.9100
vn 0.0278 -0.5052 0.8626
vn -0.7052 -0.5198 0.4821
vn -0.7311 -0.4209 0.5370
vn -0.3920 -0.6891 0.6094
vn -0.7604 -0.3563 0.5430
vn -0.9225 -0.3858 -0.0101
vn -0.2150 -0.2351 0.9479
vt 0.048560 0.668517
vt 0.048525 0.683709
vt 0.049034 0.683658
vt 0.049354 0.668514
vt 0.048310 0.683755
vt 0.049675 0.691267
vt 0.049595 0.691253
vt 0.048251 0.683745
vt 0.048123 0.668518
vt 0.048095 0.668519
vt 0.050568 0.552982
vt 0.050543 0.552982
vt 0.049825 0.691183
vt 0.050283 0.691082
vt 0.051027 0.553036
vt 0.051848 0.553126
vt 0.051218 0.547318
vt 0.051750 0.547318
vt 0.051081 0.553036
vt 0.051695 0.547318
vt 0.051193 0.547318
vt 0.052361 0.553180
vt 0.053079 0.547318
vt 0.052547 0.547318
vt 0.053104 0.547318
vt 0.052602 0.547318
vt 0.049853 0.668512
vt 0.049882 0.668512
vt 0.052386 0.553180
vt 0.049380 0.683632
vt 0.049439 0.683642
vt 0.050609 0.691029
vt 0.050688 0.691044
vt 0.051902 0.553126
vt 0.049416 0.668514
vt 0.048622 0.668517
vt 0.049165 0.683679
vt 0.048655 0.683730
vt 0.050458 0.691114
vt 0.050001 0.691215
vt 0.055775 0.706598
vt 0.055627 0.706681
vt 0.054567 0.704211
vt 0.054724 0.704110
vt 0.055304 0.706804
vt 0.055061 0.706870
vt 0.053978 0.704446
vt 0.054230 0.704362
vt 0.054983 0.706854
vt 0.055132 0.706770
vt 0.054054 0.704327
vt 0.053898 0.704430
vt 0.055454 0.706648
vt 0.055697 0.706583
vt 0.054644 0.704094
vt 0.054390 0.704175
vt 0.464252 0.656629
vt 0.463838 0.651441
vt 0.466999 0.605645
vt 0.467416 0.610974
vt 0.461394 0.690392
vt 0.457753 0.712712
vt 0.460956 0.685573
vt 0.469480 0.553330
vt 0.468717 0.554423
vt 0.469702 0.553721
vt 0.469294 0.557813
vt 0.462713 0.660975
vt 0.463824 0.653899
vt 0.460968 0.616972
vt 0.459778 0.624360
vt 0.465402 0.674830
vt 0.468676 0.678028
vt 0.465869 0.668330
vt 0.457730 0.557729
vt 0.458427 0.556689
vt 0.458148 0.558335
vt 0.457652 0.562114
vt 0.134063 0.795495
vt 0.134463 0.795323
vt 0.134114 0.793872
vt 0.133488 0.794046
vt 0.134411 0.794177
vt 0.134956 0.795670
vt 0.135147 0.794674
vt 0.135793 0.793529
vt 0.135273 0.794498
vt 0.135560 0.794755
vt 0.133740 0.791401
vt 0.133955 0.791479
vt 0.133963 0.791443
vt 0.134051 0.791669
vt 0.133596 0.791592
vt 0.125664 0.793580
vt 0.125388 0.793345
vt 0.125858 0.791128
vt 0.126159 0.791367
vt 0.125610 0.791444
vt 0.125156 0.793652
vt 0.125138 0.795223
vt 0.124784 0.796295
vt 0.125025 0.794995
vt 0.124903 0.795249
vt 0.126440 0.788581
vt 0.126328 0.788635
vt 0.126303 0.788611
vt 0.126212 0.788845
vt 0.126489 0.788792
vt 0.021364 0.680680
vt 0.022135 0.679973
vt 0.023948 0.670189
vt 0.023094 0.670896
vt 0.025168 0.671611
vt 0.023266 0.681347
vt 0.020271 0.688117
vt 0.018499 0.693125
vt 0.020506 0.687305
vt 0.021160 0.688398
vt 0.027509 0.549339
vt 0.027362 0.549716
vt 0.028066 0.549558
vt 0.028240 0.550591
vt 0.027105 0.550184
vt 0.046894 0.669485
vt 0.048513 0.684460
vt 0.048897 0.684325
vt 0.047460 0.669347
vt 0.047755 0.684511
vt 0.049911 0.691701
vt 0.050189 0.691718
vt 0.048081 0.684530
vt 0.045662 0.669513
vt 0.046214 0.669547
vt 0.047547 0.554047
vt 0.048121 0.554081
vt 0.050572 0.691622
vt 0.050924 0.691447
vt 0.048831 0.554072
vt 0.049424 0.554021
vt 0.047473 0.548359
vt 0.047482 0.548250
vt 0.047558 0.553995
vt 0.048794 0.548329
vt 0.048065 0.548395
vt 0.049436 0.553969
vt 0.049411 0.548075
vt 0.049402 0.548184
vt 0.048818 0.548039
vt 0.048089 0.548105
vt 0.047469 0.669243
vt 0.046917 0.669208
vt 0.048861 0.553934
vt 0.048933 0.684231
vt 0.048607 0.684211
vt 0.050969 0.691330
vt 0.050690 0.691313
vt 0.048152 0.553944
vt 0.046237 0.669271
vt 0.045671 0.669408
vt 0.048175 0.684281
vt 0.047790 0.684417
vt 0.050307 0.691410
vt 0.049956 0.691585
vt 0.056662 0.705880
vt 0.056483 0.705946
vt 0.054209 0.700769
vt 0.054461 0.700680
vt 0.056317 0.706062
vt 0.056293 0.706138
vt 0.053946 0.701030
vt 0.053978 0.700928
vt 0.056420 0.706145
vt 0.056599 0.706078
vt 0.054377 0.700950
vt 0.054127 0.701041
vt 0.056766 0.705962
vt 0.056789 0.705887
vt 0.054642 0.700691
vt 0.054610 0.700792
vt 0.120783 0.796070
vt 0.120592 0.795810
vt 0.119683 0.793698
vt 0.119892 0.793968
vt 0.119110 0.794038
vt 0.120056 0.796135
vt 0.121388 0.797047
vt 0.122721 0.797692
vt 0.121358 0.796782
vt 0.121046 0.797064
vt 0.119080 0.790558
vt 0.119248 0.790598
vt 0.118855 0.790589
vt 0.118781 0.790834
vt 0.119238 0.790780
vt 0.488633 0.679518
vt 0.487669 0.675320
vt 0.487856 0.619657
vt 0.488897 0.623819
vt 0.487949 0.721631
vt 0.487350 0.748302
vt 0.487452 0.716549
vt 0.488117 0.554914
vt 0.487780 0.556568
vt 0.487758 0.556634
vt 0.488378 0.559678
vt 0.116858 0.764932
vt 0.116435 0.776395
vt 0.116149 0.776355
vt 0.116385 0.764924
vt 0.116183 0.776386
vt 0.115379 0.782072
vt 0.115637 0.782087
vt 0.116448 0.776407
vt 0.116546 0.764868
vt 0.116919 0.764911
vt 0.113613 0.566291
vt 0.113995 0.566335
vt 0.115643 0.782049
vt 0.115396 0.781972
vt 0.113928 0.566400
vt 0.113436 0.566461
vt 0.113438 0.562018
vt 0.112890 0.561987
vt 0.113081 0.566302
vt 0.113764 0.562087
vt 0.113833 0.562064
vt 0.112904 0.566472
vt 0.112708 0.562050
vt 0.113256 0.562081
vt 0.112314 0.562004
vt 0.112383 0.561981
vt 0.115871 0.764893
vt 0.115499 0.764851
vt 0.112522 0.566428
vt 0.115815 0.776318
vt 0.115550 0.776297
vt 0.115090 0.781917
vt 0.114833 0.781902
vt 0.112589 0.566364
vt 0.115560 0.764830
vt 0.116033 0.764838
vt 0.115562 0.776309
vt 0.115848 0.776349
vt 0.114827 0.781940
vt 0.115073 0.782017
vt 0.111890 0.793689
vt 0.111877 0.793723
vt 0.113019 0.789512
vt 0.113031 0.789467
vt 0.111989 0.793785
vt 0.112139 0.793826
vt 0.113385 0.789650
vt 0.113179 0.789595
vt 0.112274 0.793831
vt 0.112287 0.793796
vt 0.113578 0.789612
vt 0.113565 0.789658
vt 0.112174 0.793734
vt 0.112025 0.793694
vt 0.113211 0.789475
vt 0.113418 0.789529
vt 0.115269 0.778284
vt 0.113970 0.777770
vt 0.115395 0.772668
vt 0.116780 0.773202
vt 0.115122 0.773296
vt 0.113698 0.778373
vt 0.113209 0.780823
vt 0.110247 0.782900
vt 0.112543 0.780281
vt 0.112479 0.780832
vt 0.116428 0.765391
vt 0.115736 0.765589
vt 0.116046 0.765434
vt 0.115879 0.765975
vt 0.116655 0.765909
vt 0.131397 0.793795
vt 0.131499 0.793514
vt 0.132499 0.790516
vt 0.132383 0.790801
vt 0.132819 0.790975
vt 0.131795 0.793957
vt 0.130628 0.796035
vt 0.129692 0.797486
vt 0.130632 0.795741
vt 0.130815 0.796101
vt 0.133338 0.787061
vt 0.133200 0.787142
vt 0.133463 0.787120
vt 0.133475 0.787444
vt 0.133219 0.787336
vt 0.033364 0.668512
vt 0.032805 0.683688
vt 0.032427 0.683634
vt 0.032739 0.668501
vt 0.032471 0.683676
vt 0.031408 0.691204
vt 0.031748 0.691223
vt 0.032822 0.683703
vt 0.032952 0.668428
vt 0.033445 0.668484
vt 0.035499 0.552906
vt 0.036005 0.552965
vt 0.031756 0.691173
vt 0.031429 0.691071
vt 0.035916 0.553049
vt 0.035264 0.553131
vt 0.035268 0.547249
vt 0.034542 0.547208
vt 0.034795 0.552920
vt 0.035699 0.547341
vt 0.035790 0.547309
vt 0.034560 0.553145
vt 0.034301 0.547291
vt 0.035027 0.547332
vt 0.033779 0.547231
vt 0.033870 0.547199
vt 0.032059 0.668460
vt 0.031566 0.668404
vt 0.034054 0.553087
vt 0.031984 0.683585
vt 0.031633 0.683558
vt 0.031024 0.690998
vt 0.030684 0.690978
vt 0.034143 0.553002
vt 0.031646 0.668376
vt 0.032273 0.668387
vt 0.031650 0.683574
vt 0.032028 0.683627
vt 0.030676 0.691028
vt 0.031002 0.691130
vt 0.026788 0.706583
vt 0.026770 0.706629
vt 0.028282 0.701053
vt 0.028298 0.700993
vt 0.026919 0.706711
vt 0.027118 0.706765
vt 0.028767 0.701237
vt 0.028494 0.701163
vt 0.027296 0.706771
vt 0.027313 0.706725
vt 0.029022 0.701186
vt 0.029006 0.701247
vt 0.027164 0.706643
vt 0.026966 0.706590
vt 0.028537 0.701004
vt 0.028811 0.701076
vt 0.016306 0.671710
vt 0.015746 0.686886
vt 0.015368 0.686833
vt 0.015680 0.671700
vt 0.015412 0.686875
vt 0.014349 0.694402
vt 0.014690 0.694422
vt 0.015763 0.686902
vt 0.015894 0.671626
vt 0.016387 0.671683
vt 0.016115 0.665781
vt 0.016621 0.665839
vt 0.014698 0.694372
vt 0.014371 0.694270
vt 0.016532 0.665924
vt 0.015880 0.666006
vt 0.018209 0.550448
vt 0.017484 0.550406
vt 0.015411 0.665795
vt 0.018640 0.550539
vt 0.018731 0.550508
vt 0.015176 0.666020
vt 0.017242 0.550489
vt 0.017968 0.550531
vt 0.016720 0.550429
vt 0.016811 0.550398
vt 0.015000 0.671659
vt 0.014507 0.671602
vt 0.014670 0.665962
vt 0.014925 0.686784
vt 0.014574 0.686756
vt 0.013966 0.694196
vt 0.013625 0.694177
vt 0.014759 0.665877
vt 0.014588 0.671575
vt 0.015214 0.671585
vt 0.014591 0.686772
vt 0.014969 0.686826
vt 0.013617 0.694227
vt 0.013944 0.694329
vt 0.009730 0.709782
vt 0.009712 0.709827
vt 0.011223 0.704252
vt 0.011239 0.704192
vt 0.009861 0.709909
vt 0.010059 0.709963
vt 0.011709 0.704435
vt 0.011435 0.704362
vt 0.010237 0.709969
vt 0.010254 0.709924
vt 0.011963 0.704385
vt 0.011947 0.704446
vt 0.010105 0.709842
vt 0.009907 0.709788
vt 0.011478 0.704203
vt 0.011752 0.704275
vt 0.433492 0.671318
vt 0.433078 0.665336
vt 0.436239 0.612525
vt 0.436656 0.618671
vt 0.430635 0.710252
vt 0.426994 0.735991
vt 0.430196 0.704695
vt 0.438720 0.552198
vt 0.437958 0.553459
vt 0.438942 0.552650
vt 0.438534 0.557367
s 1
f 23/1/1 22/2/2 31/3/3
f 23/1/1 31/3/3 30/4/4
f 1/5/5 2/6/6 26/7/7
f 1/5/5 26/7/7 25/8/8
f 17/9/9 1/5/5 25/8/8
f 17/9/9 25/8/8 24/10/10
f 36/11/11 17/9/9 24/10/10
f 36/11/11 24/10/10 39/12/12
f 22/2/2 21/13/13 32/14/14
f 22/2/2 32/14/14 31/3/3
f 37/15/15 23/1/1 30/4/4
f 37/15/15 30/4/4 40/16/16
f 36/11/11 12/17/17 11/18/18
f 36/11/11 11/18/18 34/19/19
f 37/15/15 16/20/20 15/21/21
f 37/15/15 15/21/21 39/12/12
f 38/22/22 14/23/23 13/24/24
f 38/22/22 13/24/24 40/16/16
f 11/18/18 12/17/17 15/21/21
f 11/18/18 15/21/21 16/20/20
f 11/18/18 16/20/20 13/24/24
f 11/18/18 13/24/24 14/23/23
f 11/18/18 14/23/23 9/25/25
f 11/18/18 9/25/25 10/26/26
f 38/22/22 29/27/27 8/28/28
f 38/22/22 8/28/28 33/29/29
f 29/27/27 28/30/30 7/31/31
f 29/27/27 7/31/31 8/28/28
f 28/30/30 27/32/32 6/33/33
f 28/30/30 6/33/33 7/31/31
f 35/34/34 3/35/35 18/36/36
f 35/34/34 18/36/36 34/19/19
f 3/35/35 4/37/37 19/38/38
f 3/35/35 19/38/38 18/36/36
f 4/37/37 5/39/39 20/40/40
f 4/37/37 20/40/40 19/38/38
f 27/32/32 28/30/30 31/3/3
f 27/32/32 31/3/3 32/14/14
f 28/30/30 29/27/27 30/4/4
f 28/30/30 30/4/4 31/3/3
f 21/13/13 22/2/2 25/8/8
f 21/13/13 25/8/8 26/7/7
f 22/2/2 23/1/1 24/10/10
f 22/2/2 24/10/10 25/8/8
f 2/6/6 1/5/5 19/38/38
f 2/6/6 19/38/38 20/40/40
f 1/5/5 17/9/9 18/36/36
f 1/5/5 18/36/36 19/38/38
f 33/29/29 8/28/28 3/35/35
f 33/29/29 3/35/35 35/34/34
f 8/28/28 7/31/31 4/37/37
f 8/28/28 4/37/37 3/35/35
f 7/31/31 6/33/33 5/39/39
f 7/31/31 5/39/39 4/37/37
f 9/25/25 33/29/29 35/34/34
f 9/25/25 35/34/34 10/26/26
f 10/26/26 35/34/34 34/19/19
f 10/26/26 34/19/19 11/18/18
f 14/23/23 38/22/22 33/29/29
f 14/23/23 33/29/29 9/25/25
f 29/27/27 38/22/22 40/16/16
f 29/27/27 40/16/16 30/4/4
f 23/1/1 37/15/15 39/12/12
f 23/1/1 39/12/12 24/10/10
f 17/9/9 36/11/11 34/19/19
f 17/9/9 34/19/19 18/36/36
f 16/20/20 37/15/15 40/16/16
f 16/20/20 40/16/16 13/24/24
f 12/17/17 36/11/11 39/12/12
f 12/17/17 39/12/12 15/21/21
f 44/41/41 41/42/42 42/43/43
f 44/41/41 42/43/43 43/44/44
f 48/45/45 45/46/46 46/47/47
f 48/45/45 46/47/47 47/48/48
f 56/49/49 53/50/50 54/51/51
f 56/49/49 54/51/51 55/52/52
f 52/53/53 49/54/54 50/55/55
f 52/53/53 50/55/55 51/56/56
f 41/42/42 48/45/45 47/48/48
f 41/42/42 47/48/48 42/43/43
f 49/54/54 44/41/41 43/44/44
f 49/54/54 43/44/44 50/55/55
f 51/56/56 54/51/51 53/50/50
f 51/56/56 53/50/50 52/53/53
f 55/52/52 46/47/47 45/46/46
f 55/52/52 45/46/46 56/49/49
f 5/39/39 42/43/43 47/48/48
f 5/39/39 47/48/48 20/40/40
f 6/33/33 43/44/44 42/43/43
f 6/33/33 42/43/43 5/39/39
f 27/32/32 50/55/55 43/44/44
f 27/32/32 43/44/44 6/33/33
f 46/47/47 2/6/6 20/40/40
f 46/47/47 20/40/40 47/48/48
f 2/6/6 46/47/47 55/52/52
f 2/6/6 55/52/52 26/7/7
f 50/55/55 27/32/32 32/14/14
f 50/55/55 32/14/14 51/56/56
f 21/13/13 54/51/51 51/56/56
f 21/13/13 51/56/56 32/14/14
f 44/41/41 49/54/54 52/53/53
f 44/41/41 52/53/53 53/50/50
f 44/41/41 53/50/50 56/49/49
f 44/41/41 56/49/49 45/46/46
f 44/41/41 45/46/46 48/45/45
f 44/41/41 48/45/45 41/42/42
f 54/51/51 21/13/13 26/7/7
f 54/51/51 26/7/7 55/52/52
f 59/57/57 61/58/58 62/59/59
f 59/57/57 62/59/59 60/60/60
f 66/61/61 57/62/62 67/63/63
f 63/64/64 64/65/65 65/66/66
f 58/67/67 60/60/60 62/59/59
f 58/67/67 62/59/59 64/65/65
f 58/67/67 64/65/65 63/64/64
f 59/57/57 66/61/61 67/63/63
f 59/57/57 67/63/63 61/58/58
f 70/68/68 72/69/69 73/70/70
f 70/68/68 73/70/70 71/71/71
f 77/72/72 68/73/73 78/74/74
f 74/75/75 75/76/76 76/77/77
f 69/78/78 71/71/71 73/70/70
f 69/78/78 73/70/70 75/76/76
f 69/78/78 75/76/76 74/75/75
f 70/68/68 77/72/72 78/74/74
f 70/68/68 78/74/74 72/69/69
f 82/79/79 86/80/80 87/81/81
f 82/79/79 87/81/81 83/82/82
f 84/83/83 87/81/81 86/80/80
f 84/83/83 86/80/80 85/84/84
f 91/85/85 79/86/86 92/87/87
f 93/88/88 85/84/84 86/80/80
f 93/88/88 86/80/80 92/87/87
f 88/89/89 89/90/90 90/91/91
f 84/83/83 81/92/92 90/91/91
f 84/83/83 90/91/91 89/90/90
f 84/83/83 89/90/90 87/81/81
f 80/93/93 83/82/82 87/81/81
f 80/93/93 87/81/81 89/90/90
f 80/93/93 89/90/90 88/89/89
f 79/86/86 93/88/88 92/87/87
f 82/79/79 91/85/85 92/87/87
f 82/79/79 92/87/87 86/80/80
f 97/94/94 101/95/95 102/96/96
f 97/94/94 102/96/96 98/97/97
f 99/98/98 102/96/96 101/95/95
f 99/98/98 101/95/95 100/99/99
f 106/100/100 94/101/101 107/102/102
f 108/103/103 100/99/99 101/95/95
f 108/103/103 101/95/95 107/102/102
f 103/104/104 104/105/105 105/106/106
f 99/98/98 96/107/107 105/106/106
f 99/98/98 105/106/106 104/105/105
f 99/98/98 104/105/105 102/96/96
f 95/108/108 98/97/97 102/96/96
f 95/108/108 102/96/96 104/105/105
f 95/108/108 104/105/105 103/104/104
f 94/101/101 108/103/103 107/102/102
f 97/94/94 106/100/100 107/102/102
f 97/94/94 107/102/102 101/95/95
f 112/109/109 116/110/110 117/111/111
f 112/109/109 117/111/111 113/112/112
f 114/113/113 117/111/111 116/110/110
f 114/113/113 116/110/110 115/114/114
f 121/115/115 109/116/116 122/117/117
f 123/118/118 115/114/114 116/110/110
f 123/118/118 116/110/110 122/117/117
f 118/119/119 119/120/120 120/121/121
f 114/113/113 111/122/122 120/121/121
f 114/113/113 120/121/121 119/120/120
f 114/113/113 119/120/120 117/111/111
f 110/123/123 113/112/112 117/111/111
f 110/123/123 117/111/111 119/120/120
f 110/123/123 119/120/120 118/119/119
f 109/116/116 123/118/118 122/117/117
f 112/109/109 121/115/115 122/117/117
f 112/109/109 122/117/117 116/110/110
f 146/124/124 145/125/125 154/126/126
f 146/124/124 154/126/126 153/127/127
f 124/128/128 125/129/129 149/130/130
f 124/128/128 149/130/130 148/131/131
f 140/132/132 124/128/128 148/131/131
f 140/132/132 148/131/131 147/133/133
f 159/134/134 140/132/132 147/133/133
f 159/134/134 147/133/133 162/135/135
f 145/125/125 144/136/136 155/137/137
f 145/125/125 155/137/137 154/126/126
f 160/138/138 146/124/124 153/127/127
f 160/138/138 153/127/127 163/139/139
f 159/134/134 135/140/140 134/141/141
f 159/134/134 134/141/141 157/142/142
f 160/138/138 139/143/143 138/144/144
f 160/138/138 138/144/144 162/135/135
f 161/145/145 137/146/146 136/147/147
f 161/145/145 136/147/147 163/139/139
f 134/141/141 135/140/140 138/144/144
f 134/141/141 138/144/144 139/143/143
f 134/141/141 139/143/143 136/147/147
f 134/141/141 136/147/147 137/146/146
f 134/141/141 137/146/146 132/148/148
f 134/141/141 132/148/148 133/149/149
f 161/145/145 152/150/150 131/151/151
f 161/145/145 131/151/151 156/152/152
f 152/150/150 151/153/153 130/154/154
f 152/150/150 130/154/154 131/151/151
f 151/153/153 150/155/155 129/156/156
f 151/153/153 129/156/156 130/154/154
f 158/157/157 126/158/158 141/159/159
f 158/157/157 141/159/159 157/142/142
f 126/158/158 127/160/160 142/161/161
f 126/158/158 142/161/161 141/159/159
f 127/160/160 128/162/162 143/163/163
f 127/160/160 143/163/163 142/161/161
f 150/155/155 151/153/153 154/126/126
f 150/155/155 154/126/126 155/137/137
f 151/153/153 152/150/150 153/127/127
f 151/153/153 153/127/127 154/126/126
f 144/136/136 145/125/125 148/131/131
f 144/136/136 148/131/131 149/130/130
f 145/125/125 146/124/124 147/133/133
f 145/125/125 147/133/133 148/131/131
f 125/129/129 124/128/128 142/161/161
f 125/129/129 142/161/161 143/163/163
f 124/128/128 140/132/132 141/159/159
f 124/128/128 141/159/159 142/161/161
f 156/152/152 131/151/151 126/158/158
f 156/152/152 126/158/158 158/157/157
f 131/151/151 130/154/154 127/160/160
f 131/151/151 127/160/160 126/158/158
f 130/154/154 129/156/156 128/162/162
f 130/154/154 128/162/162 127/160/160
f 132/148/148 156/152/152 158/157/157
f 132/148/148 158/157/157 133/149/149
f 133/149/149 158/157/157 157/142/142
f 133/149/149 157/142/142 134/141/141
f 137/146/146 161/145/145 156/152/152
f 137/146/146 156/152/152 132/148/148
f 152/150/150 161/145/145 163/139/139
f 152/150/150 163/139/139 153/127/127
f 146/124/124 160/138/138 162/135/135
f 146/124/124 162/135/135 147/133/133
f 140/132/132 159/134/134 157/142/142
f 140/132/132 157/142/142 141/159/159
f 139/143/143 160/138/138 163/139/139
f 139/143/143 163/139/139 136/147/147
f 135/140/140 159/134/134 162/135/135
f 135/140/140 162/135/135 138/144/144
f 167/164/164 164/165/165 165/166/166
f 167/164/164 165/166/166 166/167/167
f 171/168/168 168/169/169 169/170/170
f 171/168/168 169/170/170 170/171/171
f 179/172/172 176/173/173 177/174/174
f 179/172/172 177/174/174 178/175/175
f 175/176/176 172/177/177 173/178/178
f 175/176/176 173/178/178 174/179/179
f 164/165/165 171/168/168 170/171/171
f 164/165/165 170/171/171 165/166/166
f 172/177/177 167/164/164 166/167/167
f 172/177/177 166/167/167 173/178/178
f 174/179/179 177/174/174 176/173/173
f 174/179/179 176/173/173 175/176/176
f 178/175/175 169/170/170 168/169/169
f 178/175/175 168/169/169 179/172/172
f 128/162/162 165/166/166 170/171/171
f 128/162/162 170/171/171 143/163/163
f 129/156/156 166/167/167 165/166/166
f 129/156/156 165/166/166 128/162/162
f 150/155/155 173/178/178 166/167/167
f 150/155/155 166/167/167 129/156/156
f 169/170/170 125/129/129 143/163/163
f 169/170/170 143/163/163 170/171/171
f 125/129/129 169/170/170 178/175/175
f 125/129/129 178/175/175 149/130/130
f 173/178/178 150/155/155 155/137/137
f 173/178/178 155/137/137 174/179/179
f 144/136/136 177/174/174 174/179/179
f 144/136/136 174/179/179 155/137/137
f 177/174/174 144/136/136 149/130/130
f 177/174/174 149/130/130 178/175/175
f 167/164/164 172/177/177 175/176/176
f 167/164/164 175/176/176 176/173/173
f 167/164/164 176/173/173 179/172/172
f 167/164/164 179/172/172 168/169/169
f 167/164/164 168/169/169 171/168/168
f 167/164/164 171/168/168 164/165/165
f 183/180/180 187/181/181 188/182/182
f 183/180/180 188/182/182 184/183/183
f 185/184/184 188/182/182 187/181/181
f 185/184/184 187/181/181 186/185/185
f 192/186/186 180/187/187 193/188/188
f 194/189/189 186/185/185 187/181/181
f 194/189/189 187/181/181 193/188/188
f 189/190/190 190/191/191 191/192/192
f 185/184/184 182/193/193 191/192/192
f 185/184/184 191/192/192 190/191/191
f 185/184/184 190/191/191 188/182/182
f 181/194/194 184/183/183 188/182/182
f 181/194/194 188/182/182 190/191/191
f 181/194/194 190/191/191 189/190/190
f 180/187/187 194/189/189 193/188/188
f 183/180/180 192/186/186 193/188/188
f 183/180/180 193/188/188 187/181/181
f 197/195/195 199/196/196 200/197/197
f 197/195/195 200/197/197 198/198/198
f 204/199/199 195/200/200 205/201/201
f 201/202/202 202/203/203 203/204/204
f 196/205/205 198/198/198 200/197/197
f 196/205/205 200/197/197 202/203/203
f 196/205/205 202/203/203 201/202/202
f 197/195/195 204/199/199 205/201/201
f 197/195/195 205/201/201 199/196/196
f 228/206/206 227/207/207 236/208/208
f 228/206/206 236/208/208 235/209/209
f 206/210/210 207/211/211 231/212/212
f 206/210/210 231/212/212 230/213/213
f 222/214/214 206/210/210 230/213/213
f 222/214/214 230/213/213 229/215/215
f 241/216/216 222/214/214 229/215/215
f 241/216/216 229/215/215 244/217/217
f 227/207/207 226/218/218 237/219/219
f 227/207/207 237/219/219 236/208/208
f 242/220/220 228/206/206 235/209/209
f 242/220/220 235/209/209 245/221/221
f 241/216/216 217/222/222 216/223/223
f 241/216/216 216/223/223 239/224/224
f 242/220/220 221/225/225 220/226/226
f 242/220/220 220/226/226 244/217/217
f 243/227/227 219/228/228 218/229/229
f 243/227/227 218/229/229 245/221/221
f 216/223/223 217/222/222 220/226/226
f 216/223/223 220/226/226 221/225/225
f 216/223/223 221/225/225 218/229/229
f 216/223/223 218/229/229 219/228/228
f 216/223/223 219/228/228 214/230/230
f 216/223/223 214/230/230 215/231/231
f 243/227/227 234/232/232 213/233/233
f 243/227/227 213/233/233 238/234/234
f 234/232/232 233/235/235 212/236/236
f 234/232/232 212/236/236 213/233/233
f 233/235/235 232/237/237 211/238/238
f 233/235/235 211/238/238 212/236/236
f 240/239/239 208/240/240 223/241/241
f 240/239/239 223/241/241 239/224/224
f 208/240/240 209/242/242 224/243/243
f 208/240/240 224/243/243 223/241/241
f 209/242/242 210/244/244 225/245/245
f 209/242/242 225/245/245 224/243/243
f 232/237/237 233/235/235 236/208/208
f 232/237/237 236/208/208 237/219/219
f 233/235/235 234/232/232 235/209/209
f 233/235/235 235/209/209 236/208/208
f 226/218/218 227/207/207 230/213/213
f 226/218/218 230/213/213 231/212/212
f 227/207/207 228/206/206 229/215/215
f 227/207/207 229/215/215 230/213/213
f 207/211/211 206/210/210 224/243/243
f 207/211/211 224/243/243 225/245/245
f 206/210/210 222/214/214 223/241/241
f 206/210/210 223/241/241 224/243/243
f 238/234/234 213/233/233 208/240/240
f 238/234/234 208/240/240 240/239/239
f 213/233/233 212/236/236 209/242/242
f 213/233/233 209/242/242 208/240/240
f 212/236/236 211/238/238 210/244/244
f 212/236/236 210/244/244 209/242/242
f 214/230/230 238/234/234 240/239/239
f 214/230/230 240/239/239 215/231/231
f 215/231/231 240/239/239 239/224/224
f 215/231/231 239/224/224 216/223/223
f 219/228/228 243/227/227 238/234/234
f 219/228/228 238/234/234 214/230/230
f 234/232/232 243/227/227 245/221/221
f 234/232/232 245/221/221 235/209/209
f 228/206/206 242/220/220 244/217/217
f 228/206/206 244/217/217 229/215/215
f 222/214/214 241/216/216 239/224/224
f 222/214/214 239/224/224 223/241/241
f 221/225/225 242/220/220 245/221/221
f 221/225/225 245/221/221 218/229/229
f 217/222/222 241/216/216 244/217/217
f 217/222/222 244/217/217 220/226/226
f 249/246/246 246/247/247 247/248/248
f 249/246/246 247/248/248 248/249/249
f 253/250/250 250/251/251 251/252/252
f 253/250/250 251/252/252 252/253/253
f 261/254/254 258/255/255 259/256/256
f 261/254/254 259/256/256 260/257/257
f 257/258/258 254/259/259 255/260/260
f 257/258/258 255/260/260 256/261/261
f 246/247/247 253/250/250 252/253/253
f 246/247/247 252/253/253 247/248/248
f 254/259/259 249/246/246 248/249/249
f 254/259/259 248/249/249 255/260/260
f 256/261/261 259/256/256 258/255/255
f 256/261/261 258/255/255 257/258/258
f 260/257/257 251/252/252 250/251/251
f 260/257/257 250/251/251 261/254/254
f 210/244/244 247/248/248 252/253/253
f 210/244/244 252/253/253 225/245/245
f 211/238/238 248/249/249 247/248/248
f 211/238/238 247/248/248 210/244/244
f 232/237/237 255/260/260 248/249/249
f 232/237/237 248/249/249 211/238/238
f 251/252/252 207/211/211 225/245/245
f 251/252/252 225/245/245 252/253/253
f 207/211/211 251/252/252 260/257/257
f 207/211/211 260/257/257 231/212/212
f 255/260/260 232/237/237 237/219/219
f 255/260/260 237/219/219 256/261/261
f 226/218/218 259/256/256 256/261/261
f 226/218/218 256/261/261 237/219/219
f 259/256/256 226/218/218 231/212/212
f 259/256/256 231/212/212 260/257/257
f 249/246/246 254/259/259 257/258/258
f 249/246/246 257/258/258 258/255/255
f 249/246/246 258/255/255 261/254/254
f 249/246/246 261/254/254 250/251/251
f 249/246/246 250/251/251 253/250/250
f 249/246/246 253/250/250 246/247/247
f 265/262/262 269/263/263 270/264/264
f 265/262/262 270/264/264 266/265/265
f 267/266/266 270/264/264 269/263/263
f 267/266/266 269/263/263 268/267/267
f 274/268/268 262/269/269 275/270/270
f 276/271/271 268/267/267 269/263/263
f 276/271/271 269/263/263 275/270/270
f 271/272/272 272/273/273 273/274/274
f 267/266/266 264/275/275 273/274/274
f 267/266/266 273/274/274 272/273/273
f 267/266/266 272/273/273 270/264/264
f 263/276/276 266/265/265 270/264/264
f 263/276/276 270/264/264 272/273/273
f 263/276/276 272/273/273 271/272/272
f 262/269/269 276/271/271 275/270/270
f 265/262/262 274/268/268 275/270/270
f 265/262/262 275/270/270 269/263/263
f 280/277/277 284/278/278 285/279/279
f 280/277/277 285/279/279 281/280/280
f 282/281/281 285/279/279 284/278/278
f 282/281/281 284/278/278 283/282/282
f 289/283/283 277/284/284 290/285/285
f 291/286/286 283/282/282 284/278/278
f 291/286/286 284/278/278 290/285/285
f 286/287/287 287/288/288 288/289/289
f 282/281/281 279/290/290 288/289/289
f 282/281/281 288/289/289 287/288/288
f 282/281/281 287/288/288 285/279/279
f 278/291/291 281/280/280 285/279/279
f 278/291/291 285/279/279 287/288/288
f 278/291/291 287/288/288 286/287/287
f 277/284/284 291/286/286 290/285/285
f 280/277/277 289/283/283 290/285/285
f 280/277/277 290/285/285 284/278/278
f 314/292/292 313/293/293 322/294/294
f 314/292/292 322/294/294 321/295/295
f 292/296/296 293/297/297 317/298/298
f 292/296/296 317/298/298 316/299/299
f 308/300/300 292/296/296 316/299/299
f 308/300/300 316/299/299 315/301/301
f 327/302/302 308/300/300 315/301/301
f 327/302/302 315/301/301 330/303/303
f 313/293/293 312/304/304 323/305/305
f 313/293/293 323/305/305 322/294/294
f 328/306/306 314/292/292 321/295/295
f 328/306/306 321/295/295 331/307/307
f 327/302/302 303/308/308 302/309/309
f 327/302/302 302/309/309 325/310/310
f 328/306/306 307/311/311 306/312/312
f 328/306/306 306/312/312 330/303/303
f 329/313/313 305/314/314 304/315/315
f 329/313/313 304/315/315 331/307/307
f 302/309/309 303/308/308 306/312/312
f 302/309/309 306/312/312 307/311/311
f 302/309/309 307/311/311 304/315/315
f 302/309/309 304/315/315 305/314/314
f 302/309/309 305/314/314 300/316/316
f 302/309/309 300/316/316 301/317/317
f 329/313/313 320/318/318 299/319/319
f 329/313/313 299/319/319 324/320/320
f 320/318/318 319/321/321 298/322/322
f 320/318/318 298/322/322 299/319/319
f 319/321/321 318/323/323 297/324/324
f 319/321/321 297/324/324 298/322/322
f 326/325/325 294/326/326 309/327/327
f 326/325/325 309/327/327 325/310/310
f 294/326/326 295/328/328 310/329/329
f 294/326/326 310/329/329 309/327/327
f 295/328/328 296/330/330 311/331/331
f 295/328/328 311/331/331 310/329/329
f 318/323/323 319/321/321 322/294/294
f 318/323/323 322/294/294 323/305/305
f 319/321/321 320/318/318 321/295/295
f 319/321/321 321/295/295 322/294/294
f 312/304/304 313/293/293 316/299/299
f 312/304/304 316/299/299 317/298/298
f 313/293/293 314/292/292 315/301/301
f 313/293/293 315/301/301 316/299/299
f 293/297/297 292/296/296 310/329/329
f 293/297/297 310/329/329 311/331/331
f 292/296/296 308/300/300 309/327/327
f 292/296/296 309/327/327 310/329/329
f 324/320/320 299/319/319 294/326/326
f 324/320/320 294/326/326 326/325/325
f 299/319/319 298/322/322 295/328/328
f 299/319/319 295/328/328 294/326/326
f 298/322/322 297/324/324 296/330/330
f 298/322/322 296/330/330 295/328/328
f 300/316/316 324/320/320 326/325/325
f 300/316/316 326/325/325 301/317/317
f 301/317/317 326/325/325 325/310/310
f 301/317/317 325/310/310 302/309/309
f 305/314/314 329/313/313 324/320/320
f 305/314/314 324/320/320 300/316/316
f 320/318/318 329/313/313 331/307/307
f 320/318/318 331/307/307 321/295/295
f 314/292/292 328/306/306 330/303/303
f 314/292/292 330/303/303 315/301/301
f 308/300/300 327/302/302 325/310/310
f 308/300/300 325/310/310 309/327/327
f 307/311/311 328/306/306 331/307/307
f 307/311/311 331/307/307 304/315/315
f 303/308/308 327/302/302 330/303/303
f 303/308/308 330/303/303 306/312/312
f 335/332/332 332/333/333 333/334/334
f 335/332/332 333/334/334 334/335/335
f 339/336/336 336/337/337 337/338/338
f 339/336/336 337/338/338 338/339/339
f 347/340/340 344/341/341 345/342/342
f 347/340/340 345/342/342 346/343/343
f 343/344/344 340/345/345 341/346/346
f 343/344/344 341/346/346 342/347/347
f 332/333/333 339/336/336 338/339/339
f 332/333/333 338/339/339 333/334/334
f 340/345/345 335/332/332 334/335/335
f 340/345/345 334/335/335 341/346/346
f 342/347/347 345/342/342 344/341/341
f 342/347/347 344/341/341 343/344/344
f 346/343/343 337/338/338 336/337/337
f 346/343/343 336/337/337 347/340/340
f 296/330/330 333/334/334 338/339/339
f 296/330/330 338/339/339 311/331/331
f 297/324/324 334/335/335 333/334/334
f 297/324/324 333/334/334 296/330/330
f 318/323/323 341/346/346 334/335/335
f 318/323/323 334/335/335 297/324/324
f 337/338/338 293/297/297 311/331/331
f 337/338/338 311/331/331 338/339/339
f 293/297/297 337/338/338 346/343/343
f 293/297/297 346/343/343 317/298/298
f 341/346/346 318/323/323 323/305/305
f 341/346/346 323/305/305 342/347/347
f 312/304/304 345/342/342 342/347/347
f 312/304/304 342/347/347 323/305/305
f 345/342/342 312/304/304 317/298/298
f 345/342/342 317/298/298 346/343/343
f 335/332/332 340/345/345 343/344/344
f 335/332/332 343/344/344 344/341/341
f 335/332/332 344/341/341 347/340/340
f 335/332/332 347/340/340 336/337/337
f 335/332/332 336/337/337 339/336/336
f 335/332/332 339/336/336 332/333/333
f 370/348/348 369/349/349 378/350/350
f 370/348/348 378/350/350 377/351/351
f 348/352/352 349/353/353 373/354/354
f 348/352/352 373/354/354 372/355/355
f 364/356/356 348/352/352 372/355/355
f 364/356/356 372/355/355 371/357/357
f 383/358/358 364/356/356 371/357/357
f 383/358/358 371/357/357 386/359/359
f 369/349/349 368/360/360 379/361/361
f 369/349/349 379/361/361 378/350/350
f 384/362/362 370/348/348 377/351/351
f 384/362/362 377/351/351 387/363/363
f 383/358/358 359/364/364 358/365/365
f 383/358/358 358/365/365 381/366/366
f 384/362/362 363/367/367 362/368/368
f 384/362/362 362/368/368 386/359/359
f 385/369/369 361/370/370 360/371/371
f 385/369/369 360/371/371 387/363/363
f 358/365/365 359/364/364 362/368/368
f 358/365/365 362/368/368 363/367/367
f 358/365/365 363/367/367 360/371/371
f 358/365/365 360/371/371 361/370/370
f 358/365/365 361/370/370 356/372/372
f 358/365/365 356/372/372 357/373/373
f 385/369/369 376/374/374 355/375/375
f 385/369/369 355/375/375 380/376/376
f 376/374/374 375/377/377 354/378/378
f 376/374/374 354/378/378 355/375/375
f 375/377/377 374/379/379 353/380/380
f 375/377/377 353/380/380 354/378/378
f 382/381/381 350/382/382 365/383/383
f 382/381/381 365/383/383 381/366/366
f 350/382/382 351/384/384 366/385/385
f 350/382/382 366/385/385 365/383/383
f 351/384/384 352/386/386 367/387/387
f 351/384/384 367/387/387 366/385/385
f 374/379/379 375/377/377 378/350/350
f 374/379/379 378/350/350 379/361/361
f 375/377/377 376/374/374 377/351/351
f 375/377/377 377/351/351 378/350/350
f 368/360/360 369/349/349 372/355/355
f 368/360/360 372/355/355 373/354/354
f 369/349/349 370/348/348 371/357/357
f 369/349/349 371/357/357 372/355/355
f 349/353/353 348/352/352 366/385/385
f 349/353/353 366/385/385 367/387/387
f 348/352/352 364/356/356 365/383/383
f 348/352/352 365/383/383 366/385/385
f 380/376/376 355/375/375 350/382/382
f 380/376/376 350/382/382 382/381/381
f 355/375/375 354/378/378 351/384/384
f 355/375/375 351/384/384 350/382/382
f 354/378/378 353/380/380 352/386/386
f 354/378/378 352/386/386 351/384/384
f 356/372/372 380/376/376 382/381/381
f 356/372/372 382/381/381 357/373/373
f 357/373/373 382/381/381 381/366/366
f 357/373/373 381/366/366 358/365/365
f 361/370/370 385/369/369 380/376/376
f 361/370/370 380/376/376 356/372/372
f 376/374/374 385/369/369 387/363/363
f 376/374/374 387/363/363 377/351/351
f 370/348/348 384/362/362 386/359/359
f 370/348/348 386/359/359 371/357/357
f 364/356/356 383/358/358 381/366/366
f 364/356/356 381/366/366 365/383/383
f 363/367/367 384/362/362 387/363/363
f 363/367/367 387/363/363 360/371/371
f 359/364/364 383/358/358 386/359/359
f 359/364/364 386/359/359 362/368/368
f 391/388/388 388/389/389 389/390/390
f 391/388/388 389/390/390 390/391/391
f 395/392/392 392/393/393 393/394/394
f 395/392/392 393/394/394 394/395/395
f 403/396/396 400/397/397 401/398/398
f 403/396/396 401/398/398 402/399/399
f 399/400/400 396/401/401 397/402/402
f 399/400/400 397/402/402 398/403/403
f 388/389/389 395/392/392 394/395/395
f 388/389/389 394/395/395 389/390/390
f 396/401/401 391/388/388 390/391/391
f 396/401/401 390/391/391 397/402/402
f 398/403/403 401/398/398 400/397/397
f 398/403/403 400/397/397 399/400/400
f 402/399/399 393/394/394 392/393/393
f 402/399/399 392/393/393 403/396/396
f 352/386/386 389/390/390 394/395/395
f 352/386/386 394/395/395 367/387/387
f 353/380/380 390/391/391 389/390/390
f 353/380/380 389/390/390 352/386/386
f 374/379/379 397/402/402 390/391/391
f 374/379/379 390/391/391 353/380/380
f 393/394/394 349/353/353 367/387/387
f 393/394/394 367/387/387 394/395/395
f 349/353/353 393/394/394 402/399/399
f 349/353/353 402/399/399 373/354/354
f 397/402/402 374/379/379 379/361/361
f 397/402/402 379/361/361 398/403/403
f 368/360/360 401/398/398 398/403/403
f 368/360/360 398/403/403 379/361/361
f 401/398/398 368/360/360 373/354/354
f 401/398/398 373/354/354 402/399/399
f 391/388/388 396/401/401 399/400/400
f 391/388/388 399/400/400 400/397/397
f 391/388/388 400/397/397 403/396/396
f 391/388/388 403/396/396 392/393/393
f 391/388/388 392/393/393 395/392/392
f 391/388/388 395/392/392 388/389/389
f 406/404/404 408/405/405 409/406/406
f 406/404/404 409/406/406 407/407/407
f 413/408/408 404/409/409 414/410/410
f 410/411/411 411/412/412 412/413/413
f 405/414/414 407/407/407 409/406/406
f 405/414/414 409/406/406 411/412/412
f 405/414/414 411/412/412 410/411/411
f 406/404/404 413/408/408 414/410/410
f 406/404/404 414/410/410 408/405/405
