# Blender 4.5.5 LTS
# www.blender.org
o Bee
v -0.018456 0.103863 -0.070993
v 0.006144 0.075572 -0.186493
v -0.031811 0.136125 -0.077425
v 0.004219 0.078414 -0.185191
v -0.008268 0.092501 -0.098613
v -0.024872 0.130689 -0.107460
v -0.028896 0.123698 -0.062393
v 0.005181 0.076993 -0.185842
v -0.018938 0.116245 -0.087872
v 0.036460 0.103855 -0.070993
v 0.011821 0.075598 -0.186493
v 0.049857 0.136100 -0.077425
v 0.013749 0.078437 -0.185190
v 0.026256 0.092507 -0.098613
v 0.042911 0.130673 -0.107460
v 0.046926 0.123677 -0.062394
v 0.012785 0.077017 -0.185842
v 0.036958 0.116237 -0.087872
v 0.015966 0.047027 -0.237119
v 0.014680 0.055048 -0.238313
v 0.012478 0.046481 -0.237032
v 0.011193 0.054502 -0.238226
v 0.015964 0.046653 -0.239512
v 0.014582 0.055107 -0.241867
v 0.012477 0.046107 -0.239425
v 0.011094 0.054561 -0.241779
v 0.014017 0.061099 -0.238340
v 0.009975 0.060466 -0.238238
v 0.013660 0.062776 -0.242086
v 0.009619 0.062143 -0.241985
v 0.012083 0.072199 -0.224895
v 0.009083 0.071729 -0.224819
v 0.011648 0.074709 -0.226588
v 0.008648 0.074240 -0.226513
v 0.009595 0.084624 -0.206473
v 0.008557 0.084462 -0.206446
v 0.009434 0.085587 -0.206882
v 0.008396 0.085425 -0.206856
v 0.011845 0.060946 -0.232830
v 0.008589 0.053248 -0.237494
v 0.007394 0.040596 -0.239006
v 0.008407 0.032052 -0.235846
v 0.011921 0.023976 -0.231167
v 0.019475 0.060952 -0.233313
v 0.020864 0.053255 -0.238182
v 0.021252 0.040595 -0.238875
v 0.020788 0.032057 -0.236292
v 0.019616 0.023864 -0.231292
v 0.002883 0.040546 -0.218657
v 0.018271 0.064240 -0.226864
v 0.004536 0.050301 -0.218473
v 0.009201 0.062619 -0.222316
v 0.018235 0.021331 -0.225316
v 0.017052 0.062414 -0.220143
v 0.015858 0.040318 -0.214476
v 0.015926 0.031816 -0.215069
v 0.016751 0.024506 -0.218824
v 0.010026 0.062449 -0.223264
v 0.004957 0.050141 -0.220331
v 0.003367 0.040390 -0.220845
v 0.004987 0.031881 -0.220784
v 0.009882 0.024432 -0.222299
v 0.008486 0.060899 -0.228668
v 0.002500 0.053163 -0.230023
v 0.000302 0.040500 -0.230556
v 0.002635 0.031989 -0.230344
v 0.008535 0.024190 -0.227693
v 0.015350 0.038669 -0.211338
v -0.006734 0.039295 -0.215589
v 0.016277 0.069084 -0.215030
v -0.005959 0.052246 -0.216371
v 0.003047 0.069518 -0.217222
v 0.013648 0.031498 -0.194231
v -0.010282 0.035602 -0.198034
v 0.013667 0.076767 -0.195168
v -0.014458 0.051690 -0.198325
v -0.001455 0.077431 -0.197472
v 0.009965 0.034916 -0.165364
v -0.009868 0.038857 -0.168340
v 0.009646 0.070027 -0.162724
v 0.009775 0.053415 -0.163664
v -0.015437 0.054173 -0.167297
v -0.005576 0.070570 -0.164802
v 0.009915 0.034917 -0.165433
v -0.009963 0.038856 -0.168243
v 0.009775 0.053415 -0.163664
v -0.015506 0.054172 -0.167179
v 0.009057 0.058308 -0.158173
v 0.009099 0.050097 -0.158490
v -0.009914 0.050570 -0.161121
v -0.007432 0.058659 -0.160198
v 0.009095 0.038648 -0.158614
v -0.012157 0.039157 -0.161460
v -0.009926 0.050570 -0.161080
v 0.008052 0.051150 -0.148778
v -0.011135 0.051641 -0.151161
v -0.008642 0.062417 -0.150276
v 0.008144 0.038996 -0.149670
v -0.013273 0.039524 -0.152271
v -0.011127 0.051641 -0.151148
v -0.002409 0.068530 -0.159492
v 0.009060 0.068186 -0.158077
v -0.003709 0.078545 -0.148695
v 0.007867 0.078191 -0.147262
v 0.006312 0.043401 -0.132375
v -0.017005 0.044028 -0.135100
v -0.012991 0.056350 -0.131913
v 0.006714 0.029538 -0.135703
v -0.019877 0.030210 -0.138734
v -0.016997 0.044027 -0.135094
v -0.007179 0.074771 -0.127026
v 0.005593 0.074337 -0.125567
v 0.004155 0.033135 -0.111838
v -0.019463 0.033789 -0.114484
v -0.015594 0.045692 -0.109853
v 0.004762 0.019771 -0.116788
v -0.022184 0.020472 -0.119752
v -0.019451 0.033789 -0.114478
v -0.010012 0.063469 -0.102809
v 0.003154 0.063027 -0.101394
v 0.002777 0.024239 -0.098455
v -0.019267 0.024819 -0.100663
v -0.016908 0.032547 -0.092933
v 0.003749 0.015647 -0.106961
v -0.021147 0.016264 -0.109432
v -0.019267 0.024819 -0.100663
v -0.011823 0.044034 -0.081110
v 0.001006 0.043672 -0.079909
v 0.001566 0.007477 -0.085770
v -0.017588 0.007831 -0.087518
v -0.016064 0.010433 -0.080174
v 0.002391 0.004665 -0.093844
v -0.018708 0.005038 -0.095772
v -0.017588 0.007831 -0.087518
v -0.012092 0.014248 -0.068973
v -0.000256 0.014049 -0.067941
v 0.000330 -0.009094 -0.073918
v 0.000457 -0.009573 -0.075162
v -0.010231 -0.009503 -0.076221
v -0.009536 -0.009051 -0.074898
v 0.000601 -0.010063 -0.076568
v -0.010426 -0.009990 -0.077659
v 0.000457 -0.009573 -0.075162
v -0.010231 -0.009503 -0.076221
v -0.009694 -0.008386 -0.073035
v 0.000140 -0.008429 -0.072058
v -0.000515 0.039685 -0.234921
v 0.002157 0.035815 -0.236160
v 0.005758 0.034150 -0.236062
v 0.000111 0.044667 -0.235735
v 0.003243 0.044445 -0.237568
v 0.007016 0.044115 -0.237684
v 0.000328 0.049628 -0.234638
v 0.003618 0.053038 -0.235666
v 0.007448 0.054037 -0.235487
v 0.000012 0.051661 -0.232276
v 0.003069 0.056559 -0.231573
v 0.006810 0.058103 -0.230760
v -0.001542 0.044721 -0.232678
v -0.000651 0.049576 -0.230031
v 0.001921 0.052947 -0.227687
v 0.005486 0.053932 -0.226274
v -0.001273 0.044593 -0.229217
v 0.000845 0.044317 -0.226279
v 0.004243 0.043967 -0.224652
v -0.001491 0.039632 -0.230311
v 0.000466 0.035724 -0.228173
v 0.003803 0.034045 -0.226840
v -0.001178 0.037599 -0.232674
v 0.001010 0.032203 -0.232269
v 0.004434 0.029979 -0.231572
v 0.022234 0.047018 -0.236319
v 0.023801 0.055035 -0.237148
v 0.025586 0.046462 -0.235357
v 0.027153 0.054479 -0.236186
v 0.022836 0.046643 -0.238634
v 0.024790 0.055092 -0.240563
v 0.026188 0.046087 -0.237673
v 0.028142 0.054537 -0.239601
v 0.024467 0.061083 -0.237005
v 0.028351 0.060440 -0.235890
v 0.025759 0.062758 -0.240540
v 0.029643 0.062114 -0.239426
v 0.022989 0.072183 -0.223501
v 0.025873 0.071705 -0.222674
v 0.023844 0.074691 -0.225030
v 0.026727 0.074213 -0.224203
v 0.020801 0.084608 -0.205041
v 0.021799 0.084442 -0.204755
v 0.021062 0.085570 -0.205396
v 0.022060 0.085405 -0.205110
v 0.026516 0.060915 -0.230087
v 0.031910 0.053191 -0.232543
v 0.033857 0.040529 -0.233112
v 0.031667 0.031992 -0.230557
v 0.026484 0.023938 -0.227818
v 0.029712 0.040490 -0.213756
v 0.028222 0.050254 -0.214367
v 0.025170 0.062588 -0.219543
v 0.024723 0.062420 -0.220670
v 0.028378 0.050091 -0.215944
v 0.029938 0.040330 -0.215557
v 0.028278 0.031823 -0.215670
v 0.024446 0.024395 -0.218959
v 0.028117 0.060858 -0.225041
v 0.034389 0.053088 -0.223417
v 0.036645 0.040411 -0.222674
v 0.034443 0.031909 -0.223283
v 0.028013 0.024139 -0.223213
v 0.038233 0.039216 -0.208662
v 0.037911 0.052173 -0.209937
v 0.029621 0.069475 -0.213409
v 0.037545 0.035531 -0.191721
v 0.041717 0.051606 -0.190927
v 0.029048 0.077386 -0.193496
v 0.029917 0.038799 -0.163264
v 0.035067 0.054102 -0.161006
v 0.024937 0.070527 -0.161013
v 0.029866 0.038802 -0.163555
v 0.035043 0.054105 -0.161273
v 0.028193 0.050518 -0.156552
v 0.025586 0.058615 -0.156261
v 0.030428 0.039101 -0.156525
v 0.028199 0.050520 -0.156670
v 0.027240 0.051594 -0.146957
v 0.024635 0.062375 -0.146622
v 0.029575 0.039472 -0.147659
v 0.027254 0.051594 -0.146989
v 0.020566 0.068501 -0.156917
v 0.019491 0.078516 -0.146119
v 0.029721 0.043972 -0.130194
v 0.025166 0.056304 -0.127909
v 0.033302 0.030147 -0.133205
v 0.029731 0.043972 -0.130205
v 0.018449 0.074740 -0.124313
v 0.028021 0.033734 -0.109599
v 0.023318 0.045647 -0.105850
v 0.031750 0.020409 -0.114219
v 0.028034 0.033734 -0.109606
v 0.016368 0.063438 -0.100073
v 0.025028 0.024768 -0.096118
v 0.021167 0.032503 -0.089027
v 0.028630 0.016206 -0.104326
v 0.025028 0.024768 -0.096118
v 0.013813 0.044004 -0.078480
v 0.020676 0.007786 -0.083592
v 0.017698 0.010394 -0.076710
v 0.023442 0.004989 -0.091448
v 0.020676 0.007786 -0.083592
v 0.011544 0.014220 -0.066549
v 0.011139 -0.009528 -0.074029
v 0.010190 -0.009074 -0.072875
v 0.011620 -0.010015 -0.075397
v 0.011139 -0.009528 -0.074029
v 0.009968 -0.008408 -0.071018
v 0.039232 0.039583 -0.225995
v 0.037308 0.035725 -0.228251
v 0.033988 0.034077 -0.229682
v 0.039037 0.044568 -0.226985
v 0.036969 0.044359 -0.229966
v 0.033597 0.044046 -0.231662
v 0.038403 0.049531 -0.226073
v 0.035871 0.052955 -0.228386
v 0.032330 0.053972 -0.229837
v 0.037703 0.051565 -0.223792
v 0.034659 0.056478 -0.224437
v 0.030930 0.058041 -0.225277
v 0.039247 0.044617 -0.223516
v 0.037347 0.049479 -0.221480
v 0.034042 0.052865 -0.220431
v 0.030217 0.053868 -0.220652
v 0.037543 0.044494 -0.220490
v 0.034381 0.044231 -0.218716
v 0.030609 0.043899 -0.218672
v 0.038176 0.039531 -0.221402
v 0.035478 0.035635 -0.220297
v 0.031876 0.033973 -0.220496
v 0.038876 0.037497 -0.223682
v 0.036690 0.032112 -0.224246
v 0.033275 0.029905 -0.225057
v -0.001292 0.033734 -0.199577
v 0.000506 0.039389 -0.204571
v -0.006185 0.033759 -0.200608
v -0.005016 0.039395 -0.205744
v 0.000308 0.033792 -0.207066
v 0.002287 0.039440 -0.212773
v -0.004580 0.033806 -0.208099
v -0.003242 0.039444 -0.213954
v -0.005500 0.025457 -0.196675
v -0.009162 0.028762 -0.197409
v -0.003395 0.025525 -0.202682
v -0.007066 0.028846 -0.203415
v -0.008204 0.022568 -0.198302
v -0.011809 0.025882 -0.199281
v -0.005597 0.022638 -0.204185
v -0.009211 0.025967 -0.205163
v -0.003187 0.035901 -0.218009
v -0.005646 0.038162 -0.218774
v -0.004556 0.033568 -0.219731
v -0.007089 0.035838 -0.220095
v -0.002716 0.035876 -0.220332
v -0.004610 0.037616 -0.220922
v -0.003765 0.034574 -0.221692
v -0.005715 0.036321 -0.221973
v -0.008727 0.020792 -0.223409
v -0.014485 0.023730 -0.224318
v -0.007718 0.022855 -0.227252
v -0.012142 0.025103 -0.227957
v -0.013878 0.011044 -0.227524
v -0.017207 0.010924 -0.228690
v -0.013344 0.011142 -0.230216
v -0.015935 0.011047 -0.231124
v -0.013489 0.011044 -0.227169
v -0.017947 0.010907 -0.228639
v -0.012869 0.011158 -0.230329
v -0.016305 0.011051 -0.231464
v -0.013018 -0.003463 -0.228061
v -0.017119 -0.003611 -0.229503
v -0.012361 -0.003332 -0.231407
v -0.015547 -0.003454 -0.232532
v -0.013912 -0.011099 -0.230089
v -0.014842 -0.011131 -0.230414
v -0.013762 -0.011072 -0.230840
v -0.014486 -0.011097 -0.231093
v 0.025120 0.033671 -0.194007
v 0.025576 0.039329 -0.199271
v 0.029992 0.033672 -0.192979
v 0.031089 0.039308 -0.198091
v 0.026721 0.033729 -0.201494
v 0.027364 0.039380 -0.207509
v 0.031597 0.033720 -0.200459
v 0.032865 0.039357 -0.206295
v 0.027706 0.025378 -0.189688
v 0.031373 0.028666 -0.188878
v 0.028203 0.025450 -0.196036
v 0.031861 0.028753 -0.195231
v 0.030821 0.022474 -0.190093
v 0.034528 0.025771 -0.189535
v 0.030803 0.022551 -0.196531
v 0.034502 0.025863 -0.195979
v 0.033940 0.035814 -0.210281
v 0.036500 0.038062 -0.210001
v 0.035860 0.033472 -0.211318
v 0.038335 0.035730 -0.210640
v 0.034424 0.035789 -0.212602
v 0.036402 0.037519 -0.212386
v 0.035913 0.034480 -0.213434
v 0.037825 0.036218 -0.212910
v 0.040965 0.020675 -0.213055
v 0.046630 0.023586 -0.211574
v 0.041547 0.022739 -0.217021
v 0.045932 0.024966 -0.215866
v 0.047375 0.010897 -0.214566
v 0.050900 0.010760 -0.214261
v 0.047976 0.010994 -0.217245
v 0.050722 0.010887 -0.217007
v 0.046873 0.010900 -0.214408
v 0.051557 0.010740 -0.213913
v 0.047584 0.011013 -0.217548
v 0.051200 0.010889 -0.217165
v 0.046714 -0.003606 -0.215391
v 0.051057 -0.003775 -0.215023
v 0.047455 -0.003475 -0.218734
v 0.050844 -0.003614 -0.218442
v 0.048334 -0.011249 -0.216854
v 0.049316 -0.011286 -0.216771
v 0.048502 -0.011222 -0.217602
v 0.049267 -0.011251 -0.217537
v -0.008955 0.033577 -0.180044
v -0.008822 0.048900 -0.181687
v -0.014590 0.033591 -0.180210
v -0.014461 0.048921 -0.181864
v -0.008787 0.033651 -0.185674
v -0.008612 0.047931 -0.187263
v -0.014428 0.033687 -0.185834
v -0.014276 0.048033 -0.187435
v -0.010622 0.020774 -0.179956
v -0.013049 0.020777 -0.180030
v -0.010548 0.020803 -0.182383
v -0.012976 0.020812 -0.182455
v -0.013746 0.020766 -0.179370
v -0.009960 0.020763 -0.179255
v -0.013630 0.020814 -0.183154
v -0.009844 0.020807 -0.183040
v -0.010720 0.001802 -0.182557
v -0.012984 0.001799 -0.182638
v -0.010641 0.001878 -0.184815
v -0.012905 0.001879 -0.184894
v -0.013701 0.001766 -0.181976
v -0.010050 0.001787 -0.181838
v -0.013573 0.001902 -0.185609
v -0.009924 0.001902 -0.185480
v -0.011395 -0.004110 -0.183434
v -0.012267 -0.004111 -0.183466
v -0.011364 -0.004083 -0.184304
v -0.012236 -0.004083 -0.184335
v 0.027405 0.033565 -0.178962
v 0.027536 0.048887 -0.180527
v 0.033037 0.033575 -0.178799
v 0.033163 0.048904 -0.180352
v 0.027574 0.033639 -0.184601
v 0.027745 0.047918 -0.186066
v 0.033201 0.033672 -0.184449
v 0.033348 0.048016 -0.185911
v 0.028936 0.020760 -0.178746
v 0.031362 0.020761 -0.178673
v 0.029009 0.020790 -0.181173
v 0.031435 0.020797 -0.181102
v 0.032025 0.020751 -0.177974
v 0.028240 0.020749 -0.178089
v 0.032140 0.020798 -0.181762
v 0.028356 0.020794 -0.181875
v 0.028971 0.001786 -0.181154
v 0.031233 0.001781 -0.181070
v 0.029051 0.001862 -0.183425
v 0.031314 0.001861 -0.183345
v 0.031899 0.001748 -0.180345
v 0.028257 0.001771 -0.180489
v 0.032031 0.001884 -0.184016
v 0.028384 0.001887 -0.184146
v 0.029686 -0.004126 -0.181969
v 0.030557 -0.004128 -0.181937
v 0.029717 -0.004100 -0.182842
v 0.030588 -0.004100 -0.182811
v -0.011762 0.046803 -0.162643
v -0.011729 0.050501 -0.165890
v -0.014151 0.044275 -0.160582
v -0.015786 0.047514 -0.163982
v -0.010922 0.046805 -0.168217
v -0.010872 0.050417 -0.171473
v -0.013389 0.044383 -0.166162
v -0.015021 0.047608 -0.169564
v -0.024419 0.024071 -0.146710
v -0.022820 0.023885 -0.144760
v -0.022079 0.023861 -0.147789
v -0.023677 0.024047 -0.149740
v -0.025555 0.024172 -0.146495
v -0.022428 0.023791 -0.142513
v -0.021137 0.023749 -0.148008
v -0.024262 0.024131 -0.151990
v -0.027220 0.001961 -0.132538
v -0.026201 0.001841 -0.131298
v -0.025733 0.001827 -0.133227
v -0.026752 0.001947 -0.134466
v -0.027389 -0.003039 -0.130019
v -0.026975 -0.003089 -0.129517
v -0.026785 -0.003093 -0.130298
v -0.027199 -0.003043 -0.130801
v 0.029830 0.046998 -0.162317
v 0.029856 0.050706 -0.165551
v 0.032188 0.044465 -0.160970
v 0.033880 0.047708 -0.164337
v 0.029092 0.047017 -0.167884
v 0.029129 0.050658 -0.171099
v 0.031519 0.044581 -0.166549
v 0.033214 0.047813 -0.169912
v 0.042266 0.024217 -0.146294
v 0.040644 0.024031 -0.144368
v 0.039938 0.024009 -0.147400
v 0.041560 0.024197 -0.149326
v 0.043397 0.024319 -0.146062
v 0.040223 0.023936 -0.142128
v 0.038998 0.023899 -0.147628
v 0.042173 0.024283 -0.151562
v 0.044978 0.002144 -0.132215
v 0.043949 0.002025 -0.130988
v 0.043494 0.002008 -0.132915
v 0.044523 0.002125 -0.134142
v 0.045128 -0.002853 -0.129702
v 0.044710 -0.002902 -0.129204
v 0.044526 -0.002906 -0.129986
v 0.044944 -0.002857 -0.130485
vn 0.9123 0.3421 0.2249
vn 0.9174 0.3915 0.0718
vn 0.8641 0.4799 0.1516
vn 0.8969 0.4403 0.0422
vn 0.9183 0.3804 0.1094
vn 0.8872 0.4545 0.0794
vn 0.8876 0.4225 0.1835
vn 0.9126 0.4036 0.0646
vn 0.8983 0.4126 0.1508
vn -0.9119 0.3433 0.2249
vn -0.9168 0.3927 0.0718
vn -0.8635 0.4810 0.1516
vn -0.8963 0.4415 0.0423
vn -0.9178 0.3816 0.1094
vn -0.8866 0.4556 0.0794
vn -0.8870 0.4237 0.1835
vn -0.9121 0.4048 0.0646
vn -0.8978 0.4138 0.1509
vn 0.6616 -0.3870 0.6422
vn 0.7227 0.1510 0.6744
vn -0.4796 -0.5656 0.6709
vn -0.7004 -0.0717 0.7101
vn 0.6710 -0.5849 -0.4557
vn 0.6664 -0.0196 -0.7454
vn -0.4819 -0.7653 -0.4267
vn -0.6642 -0.2278 -0.7120
vn 0.8604 -0.1156 0.4963
vn -0.7587 -0.3690 0.5369
vn 0.5523 0.4191 -0.7206
vn -0.6885 0.2250 -0.6895
vn 0.8044 -0.4169 0.4232
vn -0.6170 -0.6394 0.4588
vn 0.5781 0.7122 -0.3982
vn -0.7867 0.4986 -0.3640
vn 0.6213 -0.1267 0.7733
vn -0.5143 -0.3044 0.8018
vn 0.4355 0.8622 0.2587
vn -0.6648 0.6900 0.2863
vn -0.2975 0.7584 -0.5799
vn -0.4175 0.3534 -0.8371
vn -0.4200 -0.0890 -0.9032
vn -0.3745 -0.4444 -0.8138
vn -0.2508 -0.7747 -0.5805
vn 0.5179 0.6497 -0.5565
vn 0.5766 0.2762 -0.7690
vn 0.5993 -0.1038 -0.7938
vn 0.5911 -0.3687 -0.7174
vn 0.5244 -0.6620 -0.5355
vn -0.3772 -0.7306 -0.5692
vn 0.4122 0.9094 -0.0555
vn -0.6644 0.1106 -0.7392
vn -0.3574 0.5404 -0.7617
vn 0.3788 -0.9228 0.0707
vn 0.3965 0.8749 -0.2781
vn 0.1755 -0.8746 0.4520
vn 0.2476 -0.2382 0.9391
vn 0.2608 -0.6489 0.7147
vn -0.4728 0.8775 -0.0798
vn -0.9664 0.2527 -0.0478
vn -0.9162 -0.2239 0.3323
vn -0.7324 -0.3387 0.5907
vn -0.5099 -0.7325 0.4510
vn -0.6451 0.7492 -0.1500
vn -0.9092 0.3784 -0.1740
vn -0.9768 -0.0497 -0.2085
vn -0.8675 -0.4377 -0.2362
vn -0.5976 -0.7914 -0.1289
vn 0.4744 -0.8464 -0.2419
vn -0.5256 -0.5511 -0.6481
vn 0.4661 0.7428 -0.4806
vn -0.7012 0.1199 -0.7028
vn -0.3490 0.6422 -0.6825
vn 0.4135 -0.9101 -0.0265
vn -0.6533 -0.7392 -0.1636
vn 0.3990 0.9167 -0.0232
vn -0.9762 0.1127 -0.1855
vn -0.4551 0.8764 -0.1577
vn -0.0654 -0.7830 0.6186
vn -0.5642 -0.7708 -0.2960
vn 0.2845 0.7068 0.6477
vn -0.0928 -0.0902 0.9916
vn -0.9141 0.4052 -0.0138
vn -0.4804 0.7211 0.4993
vn -0.3830 -0.9155 0.1231
vn -0.6913 -0.6977 -0.1876
vn -0.7848 -0.0643 0.6164
vn -0.9080 0.3352 -0.2512
vn 0.3196 0.9376 -0.1368
vn 0.9922 -0.0000 0.1246
vn -0.9182 0.2986 0.2603
vn -0.8866 0.4109 0.2122
vn -0.0193 -0.9880 0.1535
vn -0.7503 -0.6485 0.1284
vn -0.9983 0.0232 0.0526
vn -0.9442 0.2815 -0.1711
vn -0.9249 0.3179 -0.2083
vn 0.0277 -0.9612 -0.2746
vn -0.7786 -0.5000 -0.3792
vn -0.9588 0.2086 -0.1929
vn -0.3307 0.4353 -0.8373
vn 0.4684 0.3712 -0.8018
vn -0.4590 0.8399 -0.2897
vn 0.3923 0.8946 -0.2139
vn -0.9531 0.2986 -0.0491
vn -0.9523 0.3003 -0.0542
vn 0.0517 -0.8621 -0.5041
vn -0.7366 -0.4863 -0.4700
vn -0.9623 0.2218 -0.1576
vn -0.5799 0.7974 0.1671
vn 0.3871 0.8635 0.3234
vn -0.9619 0.2597 0.0852
vn -0.9590 0.2711 0.0827
vn 0.0418 -0.9081 -0.4167
vn -0.7689 -0.5730 -0.2836
vn -0.9839 0.1726 0.0474
vn -0.5918 0.7023 0.3958
vn 0.3598 0.7548 0.5484
vn -0.9746 0.1515 0.1647
vn -0.9653 0.1747 0.1939
vn 0.0519 -0.8556 -0.5151
vn -0.7841 -0.5677 -0.2508
vn -0.9871 0.0691 0.1442
vn -0.5900 0.4898 0.6418
vn 0.3195 0.5220 0.7908
vn -0.9675 -0.0426 0.2494
vn -0.9559 -0.0466 0.2900
vn 0.0650 -0.7641 -0.6418
vn -0.7203 -0.6126 -0.3254
vn -0.9685 -0.1519 0.1972
vn -0.5904 0.0690 0.8041
vn 0.2929 0.0897 0.9519
vn 0.4076 -0.8392 0.3601
vn 0.4536 -0.8135 0.3641
vn -0.7410 -0.5489 0.3868
vn -0.5302 -0.7437 0.4073
vn 0.0179 -0.9824 -0.1859
vn -0.5034 -0.8582 -0.1002
vn -0.0345 -0.9449 0.3254
vn -0.5042 -0.7949 0.3374
vn -0.5134 -0.5220 0.6811
vn 0.2816 -0.6036 0.7459
vn -0.7737 -0.1221 -0.6217
vn -0.4191 -0.3557 -0.8354
vn 0.6125 -0.4936 -0.6174
vn -0.6953 0.0795 -0.7143
vn -0.2596 0.0499 -0.9644
vn 0.7306 -0.0425 -0.6815
vn -0.7385 0.2859 -0.6107
vn -0.3463 0.4693 -0.8123
vn 0.6917 0.4165 -0.5900
vn -0.8736 0.4519 -0.1805
vn -0.5630 0.8190 -0.1105
vn 0.4743 0.8734 0.1105
vn -0.9746 0.0884 -0.2058
vn -0.9241 0.2764 0.2639
vn -0.6486 0.4537 0.6112
vn 0.3901 0.4007 0.8290
vn -0.9257 0.0679 0.3720
vn -0.6288 0.0313 0.7769
vn 0.3911 -0.0597 0.9184
vn -0.9588 -0.1313 0.2518
vn -0.7200 -0.3711 0.5864
vn 0.3114 -0.5089 0.8025
vn -0.9366 -0.2867 -0.2016
vn -0.6950 -0.7021 -0.1549
vn 0.3182 -0.9463 0.0571
vn -0.8030 -0.3849 0.4551
vn -0.8687 0.1533 0.4711
vn 0.2939 -0.5668 0.7697
vn 0.4991 -0.0734 0.8634
vn -0.5365 -0.5831 -0.6100
vn -0.4576 -0.0179 -0.8890
vn 0.5715 -0.7668 -0.2922
vn 0.8213 -0.2299 -0.5222
vn -0.9579 -0.1130 0.2639
vn 0.5983 -0.3710 0.7103
vn -0.3522 0.4205 -0.8362
vn 0.8404 0.2227 -0.4941
vn -0.8862 -0.4145 0.2071
vn 0.4800 -0.6410 0.5990
vn -0.4574 0.7137 -0.5305
vn 0.8544 0.4962 -0.1543
vn -0.7961 -0.1247 0.5922
vn 0.2953 -0.3056 0.9052
vn -0.4841 0.8635 0.1412
vn 0.5734 0.6882 0.4445
vn 0.4878 0.7602 -0.4291
vn 0.7216 0.3575 -0.5929
vn 0.7624 -0.0895 -0.6409
vn 0.6878 -0.4464 -0.5724
vn 0.4750 -0.7767 -0.4136
vn 0.4978 -0.7424 -0.4484
vn 0.8454 0.0839 -0.5274
vn 0.5626 0.5164 -0.6456
vn 0.4621 0.8826 0.0866
vn 0.9169 0.2566 0.3057
vn 0.7064 -0.2219 0.6722
vn 0.4151 -0.3215 0.8510
vn 0.2637 -0.7295 0.6311
vn 0.6426 0.7592 0.1037
vn 0.8949 0.3915 0.2139
vn 0.9731 -0.0415 0.2264
vn 0.8869 -0.4326 0.1618
vn 0.5937 -0.7912 0.1469
vn 0.6645 -0.5535 -0.5020
vn 0.8517 0.0983 -0.5147
vn 0.5192 0.6294 -0.5782
vn 0.6722 -0.7404 -0.0018
vn 0.9926 0.1063 0.0590
vn 0.4847 0.8738 -0.0404
vn -0.0463 -0.3554 0.9336
vn 0.7471 -0.0458 0.6632
vn 0.3445 0.7179 0.6050
vn -0.2247 0.2379 0.9449
vn -0.4201 -0.8216 0.3854
vn 0.8303 0.2964 0.4720
vn 0.8117 0.4080 0.4180
vn 0.6982 -0.6525 0.2947
vn 0.9607 0.0213 0.2766
vn 0.9596 0.2797 0.0303
vn 0.9486 0.3164 -0.0098
vn 0.8393 -0.5014 -0.2104
vn 0.9781 0.2077 0.0122
vn 0.5089 0.4287 -0.7464
vn 0.5109 0.8393 -0.1859
vn 0.9438 0.2974 0.1440
vn 0.9436 0.3004 0.1395
vn 0.8160 -0.4860 -0.3128
vn 0.9743 0.2218 0.0397
vn 0.5330 0.7977 0.2820
vn 0.9255 0.2585 0.2770
vn 0.9226 0.2714 0.2742
vn 0.8097 -0.5739 -0.1229
vn 0.9543 0.1716 0.2448
vn 0.4991 0.7025 0.5073
vn 0.9214 0.1496 0.3587
vn 0.9062 0.1735 0.3855
vn 0.8174 -0.5696 -0.0865
vn 0.9375 0.0669 0.3416
vn 0.4487 0.4891 0.7480
vn 0.8966 -0.0447 0.4406
vn 0.8770 -0.0487 0.4780
vn 0.7700 -0.6143 -0.1725
vn 0.9080 -0.1540 0.3897
vn 0.4150 0.0679 0.9073
vn 0.6458 -0.5505 0.5290
vn 0.4347 -0.7448 0.5063
vn 0.5113 -0.8594 0.0039
vn 0.4234 -0.7960 0.4326
vn 0.3632 -0.5230 0.7711
vn 0.9629 -0.1270 -0.2381
vn 0.7299 -0.3588 -0.5818
vn -0.2981 -0.4907 -0.8188
vn 0.9320 0.0751 -0.3545
vn 0.6422 0.0477 -0.7651
vn -0.3752 -0.0390 -0.9261
vn 0.9286 0.2815 -0.2419
vn 0.6589 0.4670 -0.5897
vn -0.3760 0.4200 -0.8260
vn 0.8705 0.4473 0.2053
vn 0.5610 0.8162 0.1383
vn -0.4723 0.8759 -0.0987
vn 0.9710 0.0828 0.2243
vn 0.7282 0.2717 0.6293
vn 0.3327 0.4509 0.8282
vn -0.7012 0.4039 0.5875
vn 0.6831 0.0628 0.7276
vn 0.2432 0.0280 0.9696
vn -0.7419 -0.0571 0.6681
vn 0.7628 -0.1369 0.6320
vn 0.4042 -0.3749 0.8343
vn -0.6234 -0.5067 0.5955
vn 0.9327 -0.2923 0.2112
vn 0.6917 -0.7062 0.1511
vn -0.3177 -0.9445 -0.0838
vn 0.6022 0.2335 0.7634
vn 0.5920 0.6670 0.4523
vn -0.6770 0.5651 0.4716
vn -0.6743 0.7174 0.1748
vn 0.7596 -0.5670 -0.3185
vn 0.7162 0.2993 -0.6305
vn -0.6180 -0.3903 -0.6824
vn -0.3687 0.3124 -0.8755
vn 0.3791 -0.3076 0.8727
vn -0.6178 0.4382 0.6529
vn 0.8918 -0.4524 0.0046
vn -0.7445 0.6150 -0.2600
vn -0.1781 -0.8688 0.4619
vn -0.9799 -0.0611 0.1900
vn 0.2132 -0.9414 -0.2612
vn -0.9174 -0.2047 -0.3413
vn 0.9411 0.2765 0.1944
vn -0.1852 0.9708 0.1527
vn 0.5661 -0.8112 0.1463
vn -0.9347 0.3552 -0.0116
vn 0.9679 0.1237 -0.2189
vn 0.2061 0.8518 -0.4817
vn 0.8226 -0.0585 -0.5656
vn -0.1891 0.6198 -0.7617
vn 0.4851 -0.4500 0.7498
vn -0.8762 0.2151 0.4314
vn 0.8088 -0.1013 -0.5793
vn -0.3329 0.4629 -0.8215
vn 0.2209 -0.9203 0.3228
vn -0.3367 -0.9323 0.1323
vn 0.4506 -0.8545 -0.2586
vn -0.1486 -0.8643 -0.4805
vn 0.2937 -0.7606 0.5790
vn -0.8381 -0.5146 0.1812
vn 0.5634 -0.5998 -0.5683
vn -0.3948 -0.4470 -0.8027
vn 0.5051 -0.1324 0.8528
vn -0.9222 -0.1621 0.3511
vn 0.8659 -0.0400 -0.4986
vn -0.3629 -0.0662 -0.9295
vn 0.3887 -0.6744 0.6278
vn -0.6616 -0.7038 0.2587
vn 0.6660 -0.6350 -0.3915
vn -0.2398 -0.6637 -0.7085
vn -0.8589 0.2403 0.4522
vn -0.7202 0.6724 0.1710
vn 0.4321 0.5563 0.7098
vn 0.5489 0.7115 0.4387
vn -0.5685 -0.5583 -0.6042
vn -0.3898 0.3024 -0.8698
vn 0.8390 -0.3992 -0.3696
vn 0.6990 0.3099 -0.6444
vn -0.7016 -0.3043 0.6443
vn 0.3052 0.4332 0.8480
vn -0.8247 -0.4447 -0.3493
vn 0.7957 0.6026 0.0605
vn -0.0265 -0.8695 0.4932
vn 0.8209 -0.0658 0.5673
vn -0.0923 -0.9419 -0.3229
vn 0.9775 -0.2056 0.0479
vn -0.9420 0.2770 -0.1893
vn 0.1110 0.9709 0.2121
vn -0.5880 -0.8045 -0.0844
vn 0.8673 0.3498 0.3540
vn -0.8012 0.1285 -0.5844
vn 0.0064 0.8527 -0.5224
vn -0.5320 -0.0511 -0.8452
vn 0.4821 0.6173 -0.6217
vn -0.7496 -0.4443 0.4906
vn 0.6291 0.2170 0.7464
vn -0.5102 -0.1032 -0.8538
vn 0.6362 0.4555 -0.6227
vn -0.3394 -0.9178 0.2061
vn 0.2487 -0.9343 0.2553
vn -0.3083 -0.8541 -0.4189
vn 0.3288 -0.8650 -0.3790
vn -0.5035 -0.7568 0.4169
vn 0.6904 -0.5136 0.5094
vn -0.2826 -0.6050 -0.7444
vn 0.6870 -0.4507 -0.5700
vn -0.8090 -0.1276 0.5738
vn 0.6982 -0.1650 0.6966
vn -0.5886 -0.0395 -0.8075
vn 0.7096 -0.0708 -0.7010
vn -0.6126 -0.6711 0.4176
vn 0.4954 -0.7062 0.5058
vn -0.4503 -0.6360 -0.6267
vn 0.5061 -0.6658 -0.5483
vn 0.6888 0.0295 0.7243
vn 0.5618 0.6494 0.5125
vn -0.7318 0.0368 0.6805
vn -0.5856 0.6550 0.4776
vn 0.7222 -0.1370 -0.6779
vn 0.6066 0.4830 -0.6315
vn -0.6825 -0.1289 -0.7194
vn -0.5548 0.4986 -0.6661
vn 0.2680 -0.9160 0.2984
vn -0.2892 -0.9149 0.2815
vn 0.3517 -0.8824 -0.3124
vn -0.3324 -0.8811 -0.3366
vn -0.5692 -0.5816 0.5812
vn 0.5309 -0.5837 0.6144
vn -0.5507 -0.6435 -0.5316
vn 0.5774 -0.6471 -0.4979
vn 0.2624 -0.9339 0.2428
vn -0.2711 -0.9361 0.2241
vn 0.2766 -0.9175 -0.2857
vn -0.2500 -0.9184 -0.3068
vn -0.6087 -0.6052 0.5130
vn 0.5731 -0.6031 0.5549
vn -0.5594 -0.5115 -0.6522
vn 0.6004 -0.5137 -0.6129
vn 0.5248 -0.6540 0.5449
vn -0.5630 -0.6536 0.5058
vn 0.5636 -0.6223 -0.5433
vn -0.5248 -0.6214 -0.5818
vn -0.7333 0.0361 0.6790
vn -0.5901 0.6504 0.4783
vn 0.6904 0.0284 0.7229
vn 0.5583 0.6513 0.5140
vn -0.6803 -0.1270 -0.7218
vn -0.5609 0.4911 -0.6665
vn 0.7208 -0.1345 -0.6800
vn 0.5985 0.4967 -0.6285
vn -0.2921 -0.9134 0.2835
vn 0.2707 -0.9152 0.2985
vn -0.3293 -0.8819 -0.3373
vn 0.3494 -0.8838 -0.3110
vn 0.5305 -0.5831 0.6152
vn -0.5697 -0.5806 0.5817
vn 0.5779 -0.6471 -0.4973
vn -0.5507 -0.6449 -0.5299
vn -0.2808 -0.9331 0.2246
vn 0.2535 -0.9365 0.2424
vn -0.2557 -0.9175 -0.3046
vn 0.2693 -0.9191 -0.2875
vn 0.5675 -0.6054 0.5581
vn -0.6127 -0.5980 0.5167
vn 0.5986 -0.5173 -0.6117
vn -0.5626 -0.5133 -0.6481
vn -0.5639 -0.6523 0.5065
vn 0.5237 -0.6542 0.5456
vn -0.5252 -0.6224 -0.5803
vn 0.5637 -0.6233 -0.5420
vn 0.7020 0.1137 0.7031
vn 0.3245 0.9015 0.2862
vn 0.4991 0.3522 0.7917
vn -0.6923 0.6654 0.2791
vn 0.7958 -0.5018 -0.3390
vn 0.3676 0.4842 -0.7940
vn 0.6405 -0.6938 -0.3293
vn -0.6026 0.0473 -0.7966
vn -0.6668 -0.7450 0.0191
vn 0.0426 -0.9438 0.3276
vn 0.3256 -0.9284 -0.1792
vn -0.1239 -0.9800 -0.1554
vn -0.8418 -0.3347 0.4234
vn 0.2063 -0.3064 0.9293
vn 0.5745 -0.8148 -0.0775
vn -0.5298 -0.6046 -0.5948
vn -0.9528 0.2077 0.2215
vn 0.2800 0.3606 0.8897
vn 0.9374 -0.2910 -0.1912
vn -0.3194 -0.5185 -0.7931
vn -0.8214 -0.4972 0.2794
vn 0.1071 -0.4543 0.8844
vn 0.6677 -0.7416 -0.0642
vn -0.3052 -0.7365 -0.6037
vn -0.6418 0.1028 0.7599
vn -0.3197 0.8931 0.3164
vn -0.5048 0.3287 0.7982
vn 0.7270 0.6345 0.2625
vn -0.8339 -0.4561 -0.3109
vn -0.3811 0.5237 -0.7619
vn -0.6305 -0.6885 -0.3584
vn 0.5371 0.0607 -0.8413
vn 0.6677 -0.7439 0.0263
vn -0.0471 -0.9439 0.3267
vn -0.3240 -0.9283 -0.1826
vn 0.1252 -0.9798 -0.1559
vn 0.8330 -0.3298 0.4443
vn -0.2293 -0.3011 0.9256
vn -0.5745 -0.8142 -0.0834
vn 0.5430 -0.6073 -0.5799
vn 0.9507 0.2082 0.2299
vn -0.2878 0.3590 0.8878
vn -0.9351 -0.2925 -0.2000
vn 0.3273 -0.5162 -0.7915
vn 0.8191 -0.4971 0.2862
vn -0.1142 -0.4536 0.8839
vn -0.6670 -0.7419 -0.0691
vn 0.3103 -0.7362 -0.6015
vt 0.957061 0.291264
vt 0.946853 0.287951
vt 0.946944 0.288195
vt 0.954612 0.293067
vt 0.953379 0.913941
vt 0.945987 0.908921
vt 0.943539 0.910724
vt 0.951207 0.915700
vt 0.952180 0.910720
vt 0.948436 0.907118
vt 0.959509 0.289461
vt 0.946762 0.287706
vt 0.933989 0.230642
vt 0.933708 0.232670
vt 0.933843 0.232532
vt 0.934125 0.230504
vt 0.932953 0.232537
vt 0.933525 0.230402
vt 0.932818 0.232675
vt 0.933389 0.230540
vt 0.932770 0.234617
vt 0.933705 0.234203
vt 0.932927 0.234457
vt 0.936812 0.237566
vt 0.936695 0.237685
vt 0.933862 0.234043
vt 0.941728 0.240456
vt 0.941687 0.240497
vt 0.937114 0.237054
vt 0.937231 0.236935
vt 0.941828 0.240213
vt 0.941788 0.240255
vt 0.476556 0.232779
vt 0.476512 0.233497
vt 0.475462 0.233432
vt 0.476155 0.235465
vt 0.476195 0.237620
vt 0.473728 0.237620
vt 0.474482 0.235465
vt 0.476155 0.240830
vt 0.476155 0.242793
vt 0.474962 0.242793
vt 0.473991 0.240830
vt 0.476155 0.243645
vt 0.473671 0.235465
vt 0.474995 0.233404
vt 0.473180 0.240830
vt 0.472997 0.237620
vt 0.474493 0.242793
vt 0.478430 0.240092
vt 0.478416 0.237620
vt 0.478966 0.237666
vt 0.478902 0.240138
vt 0.477431 0.243201
vt 0.477704 0.243247
vt 0.433377 0.263515
vt 0.433441 0.261043
vt 0.434552 0.260735
vt 0.434265 0.264014
vt 0.479353 0.237620
vt 0.938065 0.234589
vt 0.936322 0.235032
vt 0.937597 0.234589
vt 0.478234 0.233602
vt 0.477766 0.233574
vt 0.479201 0.235465
vt 0.478390 0.235465
vt 0.937871 0.234634
vt 0.428113 0.182808
vt 0.428400 0.179529
vt 0.432861 0.178645
vt 0.432879 0.182719
vt 0.428536 0.179383
vt 0.433042 0.177616
vt 0.433828 0.260998
vt 0.434688 0.260589
vt 0.432375 0.266579
vt 0.432180 0.266625
vt 0.433667 0.268387
vt 0.433734 0.268283
vt 0.432671 0.189081
vt 0.432587 0.189242
vt 0.440937 0.187598
vt 0.440990 0.187467
vt 0.440667 0.183437
vt 0.427515 0.187181
vt 0.427582 0.187078
vt 0.952509 0.232653
vt 0.952125 0.228770
vt 0.440405 0.178565
vt 0.440282 0.179554
vt 0.952628 0.232471
vt 0.952248 0.227780
vt 0.953887 0.231758
vt 0.953890 0.228866
vt 0.956208 0.228985
vt 0.956400 0.232058
vt 0.446434 0.260760
vt 0.446557 0.259770
vt 0.448290 0.260735
vt 0.448199 0.260856
vt 0.447089 0.268804
vt 0.446819 0.264643
vt 0.448196 0.263748
vt 0.448330 0.265800
vt 0.447142 0.268673
vt 0.448371 0.265717
vt 0.954020 0.233810
vt 0.956524 0.234790
vt 0.953981 0.228745
vt 0.956291 0.228859
vt 0.956740 0.238881
vt 0.954014 0.236313
vt 0.954056 0.236229
vt 0.956777 0.238795
vt 0.954062 0.233727
vt 0.962325 0.237881
vt 0.962299 0.237987
vt 0.968505 0.235193
vt 0.968518 0.235085
vt 0.959807 0.226665
vt 0.959879 0.226503
vt 0.964724 0.224083
vt 0.964672 0.224252
vt 0.450833 0.266781
vt 0.450709 0.264048
vt 0.454921 0.262166
vt 0.455582 0.265296
vt 0.451049 0.270871
vt 0.456608 0.269977
vt 0.451086 0.270785
vt 0.456634 0.269871
vt 0.450517 0.260975
vt 0.454116 0.258655
vt 0.450600 0.260849
vt 0.454188 0.258493
vt 0.462827 0.267076
vt 0.462814 0.267184
vt 0.468384 0.262323
vt 0.468356 0.262234
vt 0.961273 0.233306
vt 0.966925 0.230670
vt 0.960612 0.230175
vt 0.965892 0.227641
vt 0.974074 0.230332
vt 0.971259 0.227388
vt 0.974516 0.221823
vt 0.977225 0.222822
vt 0.974046 0.230244
vt 0.977180 0.222774
vt 0.461234 0.262660
vt 0.465569 0.259379
vt 0.460201 0.259631
vt 0.463704 0.257399
vt 0.458981 0.256243
vt 0.461567 0.255206
vt 0.459033 0.256073
vt 0.461548 0.255057
vt 0.471534 0.254812
vt 0.468825 0.253813
vt 0.470042 0.248893
vt 0.470513 0.249066
vt 0.969395 0.225409
vt 0.972712 0.221143
vt 0.967258 0.223216
vt 0.970669 0.220412
vt 0.967238 0.223067
vt 0.970610 0.220323
vt 0.469718 0.248759
vt 0.470034 0.248884
vt 0.469728 0.248774
vt 0.469362 0.248631
vt 0.469372 0.248647
vt 0.470505 0.249058
vt 0.467021 0.253133
vt 0.464978 0.252402
vt 0.464920 0.252313
vt 0.471489 0.254764
vt 0.939425 0.236293
vt 0.944514 0.238296
vt 0.952833 0.236682
vt 0.976196 0.217068
vt 0.975725 0.216894
vt 0.975409 0.216769
vt 0.972659 0.221058
vt 0.969379 0.225268
vt 0.965944 0.227483
vt 0.960682 0.230025
vt 0.956480 0.231940
vt 0.953975 0.231646
vt 0.944885 0.226831
vt 0.940379 0.228599
vt 0.939519 0.229008
vt 0.939368 0.226852
vt 0.938400 0.224989
vt 0.936722 0.224166
vt 0.935161 0.224791
vt 0.933837 0.226852
vt 0.933163 0.229008
vt 0.933347 0.232217
vt 0.934660 0.234180
vt 0.944770 0.113620
vt 0.944770 0.116447
vt 0.943534 0.117527
vt 0.942630 0.115491
vt 0.944770 0.112458
vt 0.942299 0.114618
vt 0.944770 0.120181
vt 0.943022 0.120134
vt 0.941743 0.120007
vt 0.941275 0.119833
vt 0.943534 0.122742
vt 0.942630 0.124523
vt 0.942299 0.125048
vt 0.944770 0.126394
vt 0.944770 0.127208
vt 0.944770 0.123822
vt 0.946910 0.124523
vt 0.947241 0.125048
vt 0.946005 0.122742
vt 0.947796 0.120007
vt 0.948264 0.119833
vt 0.946517 0.120134
vt 0.946910 0.115491
vt 0.947241 0.114618
vt 0.946005 0.117527
vt 0.475742 0.235513
vt 0.474707 0.236417
vt 0.475145 0.237401
vt 0.475742 0.236879
vt 0.475742 0.234952
vt 0.474548 0.235996
vt 0.935908 0.228266
vt 0.935311 0.228788
vt 0.935908 0.230071
vt 0.934874 0.227804
vt 0.934446 0.229987
vt 0.935064 0.230048
vt 0.934714 0.227383
vt 0.934219 0.229903
vt 0.934874 0.232169
vt 0.935311 0.231308
vt 0.934714 0.232422
vt 0.935908 0.233466
vt 0.935908 0.233073
vt 0.935908 0.231830
vt 0.937102 0.232422
vt 0.936942 0.232169
vt 0.936505 0.231308
vt 0.937596 0.229903
vt 0.937370 0.229987
vt 0.936752 0.230048
vt 0.937102 0.227383
vt 0.936942 0.227804
vt 0.936505 0.228788
vt 0.476936 0.235996
vt 0.476776 0.236417
vt 0.476339 0.237401
vt 0.935908 0.226339
vt 0.951221 0.120789
vt 0.950178 0.121896
vt 0.948531 0.121896
vt 0.949718 0.120789
vt 0.950726 0.119811
vt 0.951965 0.119811
vt 0.950726 0.119163
vt 0.951965 0.119163
vt 0.951768 0.118593
vt 0.950533 0.118593
vt 0.951718 0.119240
vt 0.950483 0.119240
vt 0.947689 0.121562
vt 0.947498 0.121103
vt 0.947743 0.121122
vt 0.947472 0.120659
vt 0.947061 0.120851
vt 0.947278 0.121111
vt 0.947236 0.121450
vt 0.947081 0.121193
vt 0.946211 0.118966
vt 0.947009 0.118706
vt 0.946172 0.118522
vt 0.945830 0.116241
vt 0.945754 0.116219
vt 0.946958 0.118131
vt 0.946323 0.116201
vt 0.945804 0.116219
vt 0.945551 0.113370
vt 0.946198 0.113347
vt 0.946462 0.116226
vt 0.946363 0.116198
vt 0.946410 0.116225
vt 0.945871 0.116238
vt 0.945635 0.113394
vt 0.945821 0.111882
vt 0.945803 0.111877
vt 0.946306 0.113378
vt 0.945972 0.111878
vt 0.945948 0.111871
vt 0.956563 0.119312
vt 0.956209 0.122364
vt 0.955117 0.122183
vt 0.955456 0.119312
vt 0.956755 0.116790
vt 0.956011 0.116790
vt 0.956145 0.116790
vt 0.956622 0.116790
vt 0.956304 0.113075
vt 0.955586 0.113085
vt 0.955723 0.113083
vt 0.956168 0.113077
vt 0.956014 0.111916
vt 0.955843 0.111919
vt 0.962947 0.123569
vt 0.962303 0.124294
vt 0.962544 0.123701
vt 0.963215 0.123071
vt 0.961449 0.123716
vt 0.964299 0.118042
vt 0.965377 0.118059
vt 0.962120 0.123086
vt 0.961209 0.124294
vt 0.961854 0.123569
vt 0.965333 0.118037
vt 0.964739 0.118028
vt 0.966026 0.112901
vt 0.966404 0.112907
vt 0.966154 0.117990
vt 0.965075 0.117974
vt 0.965714 0.118004
vt 0.965119 0.117995
vt 0.966641 0.111928
vt 0.966794 0.111931
vt 0.966646 0.112885
vt 0.966268 0.112880
vt 0.966893 0.111922
vt 0.966739 0.111920
s 1
f 9/1/9 8/2/8 4/3/4
f 9/1/9 4/3/4 6/4/6
f 7/5/7 9/6/9 6/7/6
f 7/5/7 6/7/6 3/8/3
f 1/9/1 5/10/5 9/6/9
f 1/9/1 9/6/9 7/5/7
f 5/11/5 2/12/2 8/2/8
f 5/11/5 8/2/8 9/1/9
f 18/1/18 15/4/15 13/3/13
f 18/1/18 13/3/13 17/2/17
f 16/5/16 12/8/12 15/7/15
f 16/5/16 15/7/15 18/6/18
f 10/9/10 16/5/16 18/6/18
f 10/9/10 18/6/18 14/10/14
f 14/11/14 18/1/18 17/2/17
f 14/11/14 17/2/17 11/12/11
f 19/13/19 20/14/20 22/15/22
f 19/13/19 22/15/22 21/16/21
f 21/16/21 22/15/22 26/17/26
f 21/16/21 26/17/26 25/18/25
f 25/18/25 26/17/26 24/19/24
f 25/18/25 24/19/24 23/20/23
f 23/20/23 24/19/24 20/14/20
f 23/20/23 20/14/20 19/13/19
f 21/16/21 25/18/25 23/20/23
f 21/16/21 23/20/23 19/13/19
f 20/14/20 24/19/24 29/21/29
f 20/14/20 29/21/29 27/22/27
f 29/21/29 30/23/30 34/24/34
f 29/21/29 34/24/34 33/25/33
f 26/17/26 22/15/22 28/26/28
f 26/17/26 28/26/28 30/23/30
f 24/19/24 26/17/26 30/23/30
f 24/19/24 30/23/30 29/21/29
f 22/15/22 20/14/20 27/22/27
f 22/15/22 27/22/27 28/26/28
f 33/25/33 34/24/34 38/27/38
f 33/25/33 38/27/38 37/28/37
f 28/26/28 27/22/27 31/29/31
f 28/26/28 31/29/31 32/30/32
f 27/22/27 29/21/29 33/25/33
f 27/22/27 33/25/33 31/29/31
f 30/23/30 28/26/28 32/30/32
f 30/23/30 32/30/32 34/24/34
f 38/27/38 36/31/36 35/32/35
f 38/27/38 35/32/35 37/28/37
f 32/30/32 31/29/31 35/32/35
f 32/30/32 35/32/35 36/31/36
f 31/29/31 33/25/33 37/28/37
f 31/29/31 37/28/37 35/32/35
f 34/24/34 32/30/32 36/31/36
f 34/24/34 36/31/36 38/27/38
f 53/33/53 67/34/67 43/35/43
f 66/36/66 65/37/65 41/38/41
f 66/36/66 41/38/41 42/39/42
f 64/40/64 63/41/63 39/42/39
f 64/40/64 39/42/39 40/43/40
f 67/34/67 66/36/66 42/39/42
f 67/34/67 42/39/42 43/35/43
f 65/37/65 64/40/64 40/43/40
f 65/37/65 40/43/40 41/38/41
f 63/41/63 50/44/50 39/42/39
f 43/35/43 42/39/42 47/45/47
f 43/35/43 47/45/47 48/46/48
f 41/38/41 40/43/40 45/47/45
f 41/38/41 45/47/45 46/48/46
f 39/42/39 50/44/50 44/49/44
f 53/33/53 43/35/43 48/46/48
f 42/39/42 41/38/41 46/48/46
f 42/39/42 46/48/46 47/45/47
f 40/43/40 39/42/39 44/49/44
f 40/43/40 44/49/44 45/47/45
f 59/50/59 60/51/60 49/52/49
f 59/50/59 49/52/49 51/53/51
f 58/54/58 59/50/59 51/53/51
f 58/54/58 51/53/51 52/55/52
f 51/56/51 49/57/49 69/58/69
f 51/56/51 69/58/69 71/59/71
f 60/51/60 55/60/55 49/52/49
f 54/61/54 50/62/50 58/63/58
f 53/33/53 57/64/57 62/65/62
f 56/66/56 55/60/55 60/51/60
f 56/66/56 60/51/60 61/67/61
f 57/64/57 56/66/56 61/67/61
f 57/64/57 61/67/61 62/65/62
f 54/61/54 58/63/58 52/68/52
f 53/33/53 62/65/62 67/34/67
f 61/67/61 60/51/60 65/37/65
f 61/67/61 65/37/65 66/36/66
f 59/50/59 58/54/58 63/41/63
f 59/50/59 63/41/63 64/40/64
f 62/65/62 61/67/61 66/36/66
f 62/65/62 66/36/66 67/34/67
f 60/51/60 59/50/59 64/40/64
f 60/51/60 64/40/64 65/37/65
f 58/54/58 50/44/50 63/41/63
f 71/69/71 69/70/69 74/71/74
f 71/69/71 74/71/74 76/72/76
f 69/70/69 68/73/68 73/74/73
f 69/70/69 73/74/73 74/71/74
f 49/57/49 55/75/55 68/76/68
f 49/57/49 68/76/68 69/58/69
f 54/77/54 52/78/52 72/79/72
f 54/77/54 72/79/72 70/80/70
f 52/78/52 51/56/51 71/59/71
f 52/78/52 71/59/71 72/79/72
f 75/81/75 77/82/77 83/83/83
f 75/81/75 83/83/83 80/84/80
f 77/82/77 76/72/76 82/85/82
f 77/82/77 82/85/82 83/83/83
f 72/86/72 71/69/71 76/72/76
f 72/86/72 76/72/76 77/82/77
f 70/87/70 72/86/72 77/82/77
f 70/87/70 77/82/77 75/81/75
f 82/88/82 79/89/79 85/89/85
f 82/88/82 85/89/85 87/88/87
f 74/71/74 73/74/73 78/90/78
f 74/71/74 78/90/78 79/91/79
f 76/72/76 74/71/74 79/91/79
f 76/72/76 79/91/79 82/85/82
f 81/92/81 82/88/82 87/88/87
f 81/92/81 87/88/87 86/92/86
f 78/93/78 81/92/81 86/92/86
f 78/93/78 86/92/86 84/93/84
f 79/89/79 78/93/78 84/93/84
f 79/89/79 84/93/84 85/89/85
f 94/94/94 93/95/93 99/96/98
f 94/94/94 99/96/98 100/97/99
f 85/98/85 84/99/84 92/100/92
f 85/98/85 92/100/92 93/101/93
f 83/102/83 82/103/82 90/104/90
f 83/102/83 90/104/90 91/105/91
f 87/103/87 85/98/85 93/101/93
f 87/103/87 93/101/93 94/104/94
f 80/106/80 83/102/83 91/105/91
f 80/106/80 91/105/91 88/107/88
f 91/108/91 90/94/90 96/97/95
f 91/108/91 96/97/95 97/109/96
f 93/95/93 92/110/92 98/111/97
f 93/95/93 98/111/97 99/96/98
f 91/108/91 97/109/96 103/112/102
f 91/108/91 103/112/102 101/113/100
f 102/114/101 101/113/100 103/112/102
f 102/114/101 103/112/102 104/115/103
f 88/116/88 91/108/91 101/113/100
f 88/116/88 101/113/100 102/114/101
f 112/117/110 111/118/109 119/119/116
f 112/117/110 119/119/116 120/120/117
f 109/121/107 108/122/106 116/123/113
f 109/121/107 116/123/113 117/124/114
f 97/125/96 96/126/95 106/127/104
f 97/125/96 106/127/104 107/128/105
f 103/129/102 97/125/96 107/128/105
f 103/129/102 107/128/105 111/130/109
f 104/131/103 103/129/102 111/130/109
f 104/131/103 111/130/109 112/132/110
f 100/126/99 99/133/98 109/134/107
f 100/126/99 109/134/107 110/127/108
f 99/133/98 98/135/97 108/136/106
f 99/133/98 108/136/106 109/134/107
f 120/137/117 119/138/116 127/139/123
f 120/137/117 127/139/123 128/140/124
f 111/118/109 107/141/105 115/142/112
f 111/118/109 115/142/112 119/119/116
f 107/141/105 106/143/104 114/144/111
f 107/141/105 114/144/111 115/142/112
f 110/143/108 109/121/107 117/124/114
f 110/143/108 117/124/114 118/144/115
f 127/145/123 123/146/119 131/147/126
f 127/145/123 131/147/126 135/148/130
f 128/149/124 127/145/123 135/148/130
f 128/149/124 135/148/130 136/150/131
f 119/138/116 115/151/112 123/152/119
f 119/138/116 123/152/119 127/139/123
f 115/151/112 114/153/111 122/154/118
f 115/151/112 122/154/118 123/152/119
f 118/153/115 117/155/114 125/156/121
f 118/153/115 125/156/121 126/154/122
f 117/155/114 116/157/113 124/158/120
f 117/155/114 124/158/120 125/156/121
f 135/159/130 131/160/126 140/161/135
f 135/159/130 140/161/135 145/162/140
f 123/146/119 122/163/118 130/164/125
f 123/146/119 130/164/125 131/147/126
f 126/163/122 125/165/121 133/166/128
f 126/163/122 133/166/128 134/164/129
f 125/165/121 124/167/120 132/168/127
f 125/165/121 132/168/127 133/166/128
f 138/169/133 137/170/132 140/161/135
f 138/169/133 140/161/135 139/171/134
f 141/172/136 143/169/138 144/171/139
f 141/172/136 144/171/139 142/173/137
f 140/161/135 137/170/132 146/174/141
f 140/161/135 146/174/141 145/162/140
f 131/160/126 130/175/125 139/171/134
f 131/160/126 139/171/134 140/161/135
f 134/175/129 133/176/128 142/173/137
f 134/175/129 142/173/137 144/171/139
f 133/176/128 132/177/127 141/172/136
f 133/176/128 141/172/136 142/173/137
f 136/178/131 135/159/130 145/162/140
f 136/178/131 145/162/140 146/174/141
f 54/61/54 70/179/70 75/180/75
f 54/61/54 75/180/75 80/181/80
f 54/61/54 80/181/80 88/116/88
f 54/61/54 88/116/88 102/114/101
f 54/61/54 102/114/101 104/115/103
f 54/61/54 104/115/103 112/117/110
f 54/61/54 112/117/110 120/120/117
f 54/61/54 120/120/117 128/149/124
f 54/61/54 128/149/124 136/150/131
f 54/61/54 136/150/131 146/182/141
f 54/61/54 146/182/141 137/183/132
f 54/61/54 137/183/132 138/184/133
f 54/61/54 138/184/133 129/185/89
f 54/61/54 129/185/89 121/186/89
f 54/61/54 121/186/89 113/187/89
f 54/61/54 113/187/89 105/188/89
f 54/61/54 105/188/89 95/189/89
f 54/61/54 95/189/89 89/190/89
f 54/61/54 89/190/89 81/92/81
f 54/61/54 81/92/81 78/93/78
f 54/61/54 78/93/78 73/191/73
f 54/61/54 73/191/73 68/192/68
f 54/61/54 68/192/68 55/193/55
f 54/61/54 55/193/55 56/194/56
f 54/61/54 56/194/56 57/195/57
f 54/61/54 57/195/57 53/196/53
f 54/61/54 53/196/53 48/197/48
f 54/61/54 48/197/48 47/198/47
f 54/61/54 47/198/47 46/199/46
f 54/61/54 46/199/46 45/200/45
f 54/61/54 45/200/45 44/201/44
f 54/61/54 44/201/44 50/62/50
f 170/202/165 169/203/164 147/204/142
f 170/202/165 147/204/142 148/205/143
f 171/206/166 170/202/165 148/205/143
f 171/206/166 148/205/143 149/207/144
f 169/203/164 159/208/154 147/204/142
f 148/205/143 147/204/142 150/209/145
f 148/205/143 150/209/145 151/210/146
f 149/207/144 148/205/143 151/210/146
f 149/207/144 151/210/146 152/211/147
f 147/204/142 159/208/154 150/209/145
f 151/210/146 150/209/145 153/212/148
f 151/210/146 153/212/148 154/213/149
f 152/211/147 151/210/146 154/213/149
f 152/211/147 154/213/149 155/214/150
f 150/209/145 159/208/154 153/212/148
f 155/214/150 154/213/149 157/215/152
f 155/214/150 157/215/152 158/216/153
f 153/212/148 159/208/154 156/217/151
f 154/213/149 153/212/148 156/217/151
f 154/213/149 156/217/151 157/215/152
f 158/216/153 157/215/152 161/218/156
f 158/216/153 161/218/156 162/219/157
f 156/217/151 159/208/154 160/220/155
f 157/215/152 156/217/151 160/220/155
f 157/215/152 160/220/155 161/218/156
f 162/219/157 161/218/156 164/221/159
f 162/219/157 164/221/159 165/222/160
f 160/220/155 159/208/154 163/223/158
f 161/218/156 160/220/155 163/223/158
f 161/218/156 163/223/158 164/221/159
f 165/222/160 164/221/159 167/224/162
f 165/222/160 167/224/162 168/225/163
f 163/223/158 159/208/154 166/226/161
f 164/221/159 163/223/158 166/226/161
f 164/221/159 166/226/161 167/224/162
f 168/225/163 167/224/162 170/202/165
f 168/225/163 170/202/165 171/206/166
f 166/226/161 159/208/154 169/203/164
f 167/224/162 166/226/161 169/203/164
f 167/224/162 169/203/164 170/202/165
f 171/206/166 149/207/144 152/211/147
f 171/206/166 152/211/147 155/214/150
f 171/206/166 155/214/150 158/216/153
f 171/206/166 158/216/153 162/219/157
f 171/206/166 162/219/157 165/222/160
f 171/206/166 165/222/160 168/225/163
f 172/13/167 174/16/169 175/15/170
f 172/13/167 175/15/170 173/14/168
f 174/16/169 178/18/173 179/17/174
f 174/16/169 179/17/174 175/15/170
f 178/18/173 176/20/171 177/19/172
f 178/18/173 177/19/172 179/17/174
f 176/20/171 172/13/167 173/14/168
f 176/20/171 173/14/168 177/19/172
f 174/16/169 172/13/167 176/20/171
f 174/16/169 176/20/171 178/18/173
f 173/14/168 180/22/175 182/21/177
f 173/14/168 182/21/177 177/19/172
f 182/21/177 186/25/181 187/24/182
f 182/21/177 187/24/182 183/23/178
f 179/17/174 183/23/178 181/26/176
f 179/17/174 181/26/176 175/15/170
f 177/19/172 182/21/177 183/23/178
f 177/19/172 183/23/178 179/17/174
f 175/15/170 181/26/176 180/22/175
f 175/15/170 180/22/175 173/14/168
f 186/25/181 190/28/185 191/27/186
f 186/25/181 191/27/186 187/24/182
f 181/26/176 185/30/180 184/29/179
f 181/26/176 184/29/179 180/22/175
f 180/22/175 184/29/179 186/25/181
f 180/22/175 186/25/181 182/21/177
f 183/23/178 187/24/182 185/30/180
f 183/23/178 185/30/180 181/26/176
f 191/27/186 190/28/185 188/32/183
f 191/27/186 188/32/183 189/31/184
f 185/30/180 189/31/184 188/32/183
f 185/30/180 188/32/183 184/29/179
f 184/29/179 188/32/183 190/28/185
f 184/29/179 190/28/185 186/25/181
f 187/24/182 191/27/186 189/31/184
f 187/24/182 189/31/184 185/30/180
f 53/33/53 196/35/191 209/34/204
f 208/36/203 195/39/190 194/38/189
f 208/36/203 194/38/189 207/37/202
f 206/40/201 193/43/188 192/42/187
f 206/40/201 192/42/187 205/41/200
f 209/34/204 196/35/191 195/39/190
f 209/34/204 195/39/190 208/36/203
f 207/37/202 194/38/189 193/43/188
f 207/37/202 193/43/188 206/40/201
f 205/41/200 192/42/187 50/44/50
f 196/35/191 48/46/48 47/45/47
f 196/35/191 47/45/47 195/39/190
f 194/38/189 46/48/46 45/47/45
f 194/38/189 45/47/45 193/43/188
f 192/42/187 44/49/44 50/44/50
f 53/33/53 48/46/48 196/35/191
f 195/39/190 47/45/47 46/48/46
f 195/39/190 46/48/46 194/38/189
f 193/43/188 45/47/45 44/49/44
f 193/43/188 44/49/44 192/42/187
f 201/50/196 198/53/193 197/52/192
f 201/50/196 197/52/192 202/51/197
f 200/54/195 199/55/194 198/53/193
f 200/54/195 198/53/193 201/50/196
f 198/56/193 211/59/206 210/58/205
f 198/56/193 210/58/205 197/57/192
f 202/51/197 197/52/192 55/60/55
f 54/61/54 200/63/195 50/62/50
f 53/33/53 204/65/199 57/64/57
f 56/66/56 203/67/198 202/51/197
f 56/66/56 202/51/197 55/60/55
f 57/64/57 204/65/199 203/67/198
f 57/64/57 203/67/198 56/66/56
f 54/61/54 199/68/194 200/63/195
f 53/33/53 209/34/204 204/65/199
f 203/67/198 208/36/203 207/37/202
f 203/67/198 207/37/202 202/51/197
f 201/50/196 206/40/201 205/41/200
f 201/50/196 205/41/200 200/54/195
f 204/65/199 209/34/204 208/36/203
f 204/65/199 208/36/203 203/67/198
f 202/51/197 207/37/202 206/40/201
f 202/51/197 206/40/201 201/50/196
f 200/54/195 205/41/200 50/44/50
f 211/69/206 214/72/209 213/71/208
f 211/69/206 213/71/208 210/70/205
f 210/70/205 213/71/208 73/74/73
f 210/70/205 73/74/73 68/73/68
f 197/57/192 210/58/205 68/76/68
f 197/57/192 68/76/68 55/75/55
f 54/77/54 70/80/70 212/79/207
f 54/77/54 212/79/207 199/78/194
f 199/78/194 212/79/207 211/59/206
f 199/78/194 211/59/206 198/56/193
f 75/81/75 80/84/80 218/83/213
f 75/81/75 218/83/213 215/82/210
f 215/82/210 218/83/213 217/85/212
f 215/82/210 217/85/212 214/72/209
f 212/86/207 215/82/210 214/72/209
f 212/86/207 214/72/209 211/69/206
f 70/87/70 75/81/75 215/82/210
f 70/87/70 215/82/210 212/86/207
f 217/88/212 220/88/215 219/89/214
f 217/88/212 219/89/214 216/89/211
f 213/71/208 216/91/211 78/90/78
f 213/71/208 78/90/78 73/74/73
f 214/72/209 217/85/212 216/91/211
f 214/72/209 216/91/211 213/71/208
f 81/92/81 86/92/86 220/88/215
f 81/92/81 220/88/215 217/88/212
f 216/89/211 219/89/214 84/93/84
f 216/89/211 84/93/84 78/93/78
f 224/94/219 228/97/223 227/96/222
f 224/94/219 227/96/222 223/95/218
f 219/98/214 223/101/218 92/100/92
f 219/98/214 92/100/92 84/99/84
f 218/102/213 222/105/217 221/104/216
f 218/102/213 221/104/216 217/103/212
f 220/103/215 224/104/219 223/101/218
f 220/103/215 223/101/218 219/98/214
f 80/106/80 88/107/88 222/105/217
f 80/106/80 222/105/217 218/102/213
f 222/108/217 226/109/221 225/97/220
f 222/108/217 225/97/220 221/94/216
f 223/95/218 227/96/222 98/111/97
f 223/95/218 98/111/97 92/110/92
f 222/108/217 229/113/224 230/112/225
f 222/108/217 230/112/225 226/109/221
f 102/114/101 104/115/103 230/112/225
f 102/114/101 230/112/225 229/113/224
f 88/116/88 102/114/101 229/113/224
f 88/116/88 229/113/224 222/108/217
f 112/117/110 120/120/117 240/119/235
f 112/117/110 240/119/235 235/118/230
f 233/121/228 238/124/233 116/123/113
f 233/121/228 116/123/113 108/122/106
f 226/125/221 232/128/227 231/127/226
f 226/125/221 231/127/226 225/126/220
f 230/129/225 235/130/230 232/128/227
f 230/129/225 232/128/227 226/125/221
f 104/131/103 112/132/110 235/130/230
f 104/131/103 235/130/230 230/129/225
f 228/126/223 234/127/229 233/134/228
f 228/126/223 233/134/228 227/133/222
f 227/133/222 233/134/228 108/136/106
f 227/133/222 108/136/106 98/135/97
f 120/137/117 128/140/124 245/139/240
f 120/137/117 245/139/240 240/138/235
f 235/118/230 240/119/235 237/142/232
f 235/118/230 237/142/232 232/141/227
f 232/141/227 237/142/232 236/144/231
f 232/141/227 236/144/231 231/143/226
f 234/143/229 239/144/234 238/124/233
f 234/143/229 238/124/233 233/121/228
f 245/145/240 250/148/245 247/147/242
f 245/145/240 247/147/242 242/146/237
f 128/149/124 136/150/131 250/148/245
f 128/149/124 250/148/245 245/145/240
f 240/138/235 245/139/240 242/152/237
f 240/138/235 242/152/237 237/151/232
f 237/151/232 242/152/237 241/154/236
f 237/151/232 241/154/236 236/153/231
f 239/153/234 244/154/239 243/156/238
f 239/153/234 243/156/238 238/155/233
f 238/155/233 243/156/238 124/158/120
f 238/155/233 124/158/120 116/157/113
f 250/159/245 255/162/250 252/161/247
f 250/159/245 252/161/247 247/160/242
f 242/146/237 247/147/242 246/164/241
f 242/146/237 246/164/241 241/163/236
f 244/163/239 249/164/244 248/166/243
f 244/163/239 248/166/243 243/165/238
f 243/165/238 248/166/243 132/168/127
f 243/165/238 132/168/127 124/167/120
f 138/169/133 251/171/246 252/161/247
f 138/169/133 252/161/247 137/170/132
f 141/172/136 253/173/248 254/171/249
f 141/172/136 254/171/249 143/169/138
f 252/161/247 255/162/250 146/174/141
f 252/161/247 146/174/141 137/170/132
f 247/160/242 252/161/247 251/171/246
f 247/160/242 251/171/246 246/175/241
f 249/175/244 254/171/249 253/173/248
f 249/175/244 253/173/248 248/176/243
f 248/176/243 253/173/248 141/172/136
f 248/176/243 141/172/136 132/177/127
f 136/178/131 146/174/141 255/162/250
f 136/178/131 255/162/250 250/159/245
f 279/227/274 257/228/252 256/229/251
f 279/227/274 256/229/251 278/230/273
f 280/231/275 258/232/253 257/228/252
f 280/231/275 257/228/252 279/227/274
f 278/233/273 256/234/251 268/235/263
f 257/236/252 260/237/255 259/238/254
f 257/236/252 259/238/254 256/234/251
f 258/239/253 261/240/256 260/237/255
f 258/239/253 260/237/255 257/236/252
f 256/234/251 259/238/254 268/235/263
f 260/237/255 263/241/258 262/242/257
f 260/237/255 262/242/257 259/238/254
f 261/240/256 264/243/259 263/241/258
f 261/240/256 263/241/258 260/237/255
f 259/238/254 262/242/257 268/235/263
f 264/243/259 267/244/262 266/245/261
f 264/243/259 266/245/261 263/241/258
f 262/242/257 265/246/260 268/235/263
f 263/241/258 266/245/261 265/246/260
f 263/241/258 265/246/260 262/242/257
f 267/244/262 271/247/266 270/248/265
f 267/244/262 270/248/265 266/245/261
f 265/246/260 269/249/264 268/235/263
f 266/245/261 270/248/265 269/249/264
f 266/245/261 269/249/264 265/246/260
f 271/247/266 274/250/269 273/251/268
f 271/247/266 273/251/268 270/248/265
f 269/249/264 272/252/267 268/235/263
f 270/248/265 273/251/268 272/252/267
f 270/248/265 272/252/267 269/249/264
f 274/250/269 277/253/272 276/254/271
f 274/250/269 276/254/271 273/251/268
f 272/252/267 275/255/270 268/235/263
f 273/251/268 276/254/271 275/255/270
f 273/251/268 275/255/270 272/252/267
f 277/256/272 280/231/275 279/227/274
f 277/256/272 279/227/274 276/257/271
f 275/255/270 278/233/273 268/235/263
f 276/257/271 279/227/274 278/230/273
f 276/257/271 278/230/273 275/258/270
f 280/259/275 277/253/272 274/250/269
f 280/259/275 274/250/269 271/247/266
f 280/259/275 271/247/266 267/244/262
f 280/259/275 267/244/262 264/243/259
f 280/259/275 264/243/259 261/240/256
f 280/259/275 261/240/256 258/239/253
f 281/260/276 282/261/277 284/261/279
f 281/260/276 284/261/279 283/260/278
f 283/260/278 284/261/279 288/262/283
f 283/260/278 288/262/283 287/263/282
f 287/263/282 288/262/283 286/262/281
f 287/263/282 286/262/281 285/263/280
f 285/263/280 286/262/281 282/261/277
f 285/263/280 282/261/277 281/260/276
f 283/260/278 287/263/282 292/264/287
f 283/260/278 292/264/287 290/265/285
f 288/262/283 284/261/279 282/261/277
f 288/262/283 282/261/277 286/262/281
f 291/266/286 289/267/284 293/268/288
f 291/266/286 293/268/288 295/269/290
f 281/260/276 283/260/278 290/265/285
f 281/260/276 290/265/285 289/267/284
f 287/263/282 285/263/280 291/266/286
f 287/263/282 291/266/286 292/264/287
f 285/263/280 281/260/276 289/267/284
f 285/263/280 289/267/284 291/266/286
f 294/270/289 296/271/291 295/269/290
f 294/270/289 295/269/290 293/268/288
f 290/265/285 292/264/287 296/271/291
f 290/265/285 296/271/291 294/270/289
f 296/271/291 292/264/287 298/272/293
f 296/271/291 298/272/293 300/273/295
f 289/267/284 290/265/285 294/270/289
f 289/267/284 294/270/289 293/268/288
f 297/274/292 299/275/294 303/276/298
f 297/274/292 303/276/298 301/277/296
f 295/269/290 296/271/291 300/273/295
f 295/269/290 300/273/295 299/275/294
f 292/264/287 291/266/286 297/274/292
f 292/264/287 297/274/292 298/272/293
f 291/266/286 295/269/290 299/275/294
f 291/266/286 299/275/294 297/274/292
f 302/278/297 301/277/296 303/276/298
f 302/278/297 303/276/298 304/279/299
f 298/272/293 297/274/292 301/277/296
f 298/272/293 301/277/296 302/278/297
f 300/273/295 298/272/293 302/278/297
f 300/273/295 302/278/297 304/279/299
f 300/273/295 304/279/299 308/280/303
f 300/273/295 308/280/303 306/281/301
f 308/280/303 307/282/302 315/283/310
f 308/280/303 315/283/310 316/284/311
f 304/279/299 303/276/298 307/282/302
f 304/279/299 307/282/302 308/280/303
f 299/275/294 300/273/295 306/281/301
f 299/275/294 306/281/301 305/285/300
f 303/276/298 299/275/294 305/285/300
f 303/276/298 305/285/300 307/282/302
f 310/286/305 312/287/307 320/288/315
f 310/286/305 320/288/315 318/289/313
f 307/282/302 305/285/300 313/290/308
f 307/282/302 313/290/308 315/283/310
f 305/285/300 306/281/301 314/291/309
f 305/285/300 314/291/309 313/290/308
f 306/281/301 308/280/303 316/284/311
f 306/281/301 316/284/311 314/291/309
f 310/286/305 309/292/304 313/290/308
f 310/286/305 313/290/308 314/291/309
f 311/293/306 312/287/307 316/284/311
f 311/293/306 316/284/311 315/283/310
f 309/292/304 311/293/306 315/283/310
f 309/292/304 315/283/310 313/290/308
f 312/287/307 310/286/305 314/291/309
f 312/287/307 314/291/309 316/284/311
f 320/288/315 319/294/314 323/295/318
f 320/288/315 323/295/318 324/296/319
f 312/287/307 311/293/306 319/294/314
f 312/287/307 319/294/314 320/288/315
f 311/293/306 309/292/304 317/297/312
f 311/293/306 317/297/312 319/294/314
f 309/292/304 310/286/305 318/289/313
f 309/292/304 318/289/313 317/297/312
f 321/298/316 322/299/317 324/296/319
f 321/298/316 324/296/319 323/295/318
f 319/294/314 317/297/312 321/298/316
f 319/294/314 321/298/316 323/295/318
f 317/297/312 318/289/313 322/299/317
f 317/297/312 322/299/317 321/298/316
f 318/289/313 320/288/315 324/296/319
f 318/289/313 324/296/319 322/299/317
f 325/260/320 327/260/322 328/261/323
f 325/260/320 328/261/323 326/261/321
f 327/260/322 331/263/326 332/262/327
f 327/260/322 332/262/327 328/261/323
f 331/263/326 329/263/324 330/262/325
f 331/263/326 330/262/325 332/262/327
f 329/263/324 325/260/320 326/261/321
f 329/263/324 326/261/321 330/262/325
f 327/260/322 334/265/329 336/264/331
f 327/260/322 336/264/331 331/263/326
f 332/262/327 330/262/325 326/261/321
f 332/262/327 326/261/321 328/261/323
f 335/266/330 339/269/334 337/268/332
f 335/266/330 337/268/332 333/267/328
f 325/260/320 333/267/328 334/265/329
f 325/260/320 334/265/329 327/260/322
f 331/263/326 336/264/331 335/266/330
f 331/263/326 335/266/330 329/263/324
f 329/263/324 335/266/330 333/267/328
f 329/263/324 333/267/328 325/260/320
f 338/270/333 337/268/332 339/269/334
f 338/270/333 339/269/334 340/271/335
f 334/265/329 338/270/333 340/271/335
f 334/265/329 340/271/335 336/264/331
f 340/271/335 344/273/339 342/272/337
f 340/271/335 342/272/337 336/264/331
f 333/267/328 337/268/332 338/270/333
f 333/267/328 338/270/333 334/265/329
f 341/274/336 345/277/340 347/276/342
f 341/274/336 347/276/342 343/275/338
f 339/269/334 343/275/338 344/273/339
f 339/269/334 344/273/339 340/271/335
f 336/264/331 342/272/337 341/274/336
f 336/264/331 341/274/336 335/266/330
f 335/266/330 341/274/336 343/275/338
f 335/266/330 343/275/338 339/269/334
f 346/278/341 348/279/343 347/276/342
f 346/278/341 347/276/342 345/277/340
f 342/272/337 346/278/341 345/277/340
f 342/272/337 345/277/340 341/274/336
f 344/273/339 348/279/343 346/278/341
f 344/273/339 346/278/341 342/272/337
f 344/273/339 350/281/345 352/280/347
f 344/273/339 352/280/347 348/279/343
f 352/280/347 360/284/355 359/283/354
f 352/280/347 359/283/354 351/282/346
f 348/279/343 352/280/347 351/282/346
f 348/279/343 351/282/346 347/276/342
f 343/275/338 349/285/344 350/281/345
f 343/275/338 350/281/345 344/273/339
f 347/276/342 351/282/346 349/285/344
f 347/276/342 349/285/344 343/275/338
f 354/286/349 362/289/357 364/288/359
f 354/286/349 364/288/359 356/287/351
f 351/282/346 359/283/354 357/290/352
f 351/282/346 357/290/352 349/285/344
f 349/285/344 357/290/352 358/291/353
f 349/285/344 358/291/353 350/281/345
f 350/281/345 358/291/353 360/284/355
f 350/281/345 360/284/355 352/280/347
f 354/286/349 358/291/353 357/290/352
f 354/286/349 357/290/352 353/292/348
f 355/293/350 359/283/354 360/284/355
f 355/293/350 360/284/355 356/287/351
f 353/292/348 357/290/352 359/283/354
f 353/292/348 359/283/354 355/293/350
f 356/287/351 360/284/355 358/291/353
f 356/287/351 358/291/353 354/286/349
f 364/288/359 368/296/363 367/295/362
f 364/288/359 367/295/362 363/294/358
f 356/287/351 364/288/359 363/294/358
f 356/287/351 363/294/358 355/293/350
f 355/293/350 363/294/358 361/297/356
f 355/293/350 361/297/356 353/292/348
f 353/292/348 361/297/356 362/289/357
f 353/292/348 362/289/357 354/286/349
f 365/298/360 367/295/362 368/296/363
f 365/298/360 368/296/363 366/299/361
f 363/294/358 367/295/362 365/298/360
f 363/294/358 365/298/360 361/297/356
f 361/297/356 365/298/360 366/299/361
f 361/297/356 366/299/361 362/289/357
f 362/289/357 366/299/361 368/296/363
f 362/289/357 368/296/363 364/288/359
f 369/300/364 370/301/365 372/301/367
f 369/300/364 372/301/367 371/300/366
f 371/300/366 372/301/367 376/302/371
f 371/300/366 376/302/371 375/303/370
f 375/303/370 376/302/371 374/302/369
f 375/303/370 374/302/369 373/303/368
f 373/303/368 374/302/369 370/301/365
f 373/303/368 370/301/365 369/300/364
f 373/303/368 369/300/364 382/304/377
f 373/303/368 382/304/377 384/305/379
f 376/302/371 372/301/367 370/301/365
f 376/302/371 370/301/365 374/302/369
f 379/306/374 377/307/372 390/308/385
f 379/306/374 390/308/385 392/309/387
f 371/300/366 375/303/370 383/305/378
f 371/300/366 383/305/378 381/304/376
f 369/300/364 371/300/366 381/304/376
f 369/300/364 381/304/376 382/304/377
f 375/303/370 373/303/368 384/305/379
f 375/303/370 384/305/379 383/305/378
f 378/307/373 377/307/372 382/304/377
f 378/307/373 382/304/377 381/304/376
f 380/306/375 378/307/373 381/304/376
f 380/306/375 381/304/376 383/305/378
f 379/306/374 380/306/375 383/305/378
f 379/306/374 383/305/378 384/305/379
f 377/307/372 379/306/374 384/305/379
f 377/307/372 384/305/379 382/304/377
f 387/310/382 385/311/380 393/312/388
f 387/310/382 393/312/388 395/313/390
f 378/307/373 380/306/375 391/309/386
f 378/307/373 391/309/386 389/308/384
f 380/306/375 379/306/374 392/309/387
f 380/306/375 392/309/387 391/309/386
f 377/307/372 378/307/373 389/308/384
f 377/307/372 389/308/384 390/308/385
f 386/311/381 385/311/380 390/308/385
f 386/311/381 390/308/385 389/308/384
f 388/310/383 386/311/381 389/308/384
f 388/310/383 389/308/384 391/309/386
f 387/310/382 388/310/383 391/309/386
f 387/310/382 391/309/386 392/309/387
f 385/311/380 387/310/382 392/309/387
f 385/311/380 392/309/387 390/308/385
f 394/312/389 396/313/391 395/313/390
f 394/312/389 395/313/390 393/312/388
f 386/311/381 388/310/383 396/313/391
f 386/311/381 396/313/391 394/312/389
f 388/310/383 387/310/382 395/313/390
f 388/310/383 395/313/390 396/313/391
f 385/311/380 386/311/381 394/312/389
f 385/311/380 394/312/389 393/312/388
f 397/300/392 399/300/394 400/301/395
f 397/300/392 400/301/395 398/301/393
f 399/300/394 403/303/398 404/302/399
f 399/300/394 404/302/399 400/301/395
f 403/303/398 401/303/396 402/302/397
f 403/303/398 402/302/397 404/302/399
f 401/303/396 397/300/392 398/301/393
f 401/303/396 398/301/393 402/302/397
f 401/303/396 412/305/407 410/304/405
f 401/303/396 410/304/405 397/300/392
f 404/302/399 402/302/397 398/301/393
f 404/302/399 398/301/393 400/301/395
f 407/306/402 420/309/415 418/308/413
f 407/306/402 418/308/413 405/307/400
f 399/300/394 409/304/404 411/305/406
f 399/300/394 411/305/406 403/303/398
f 397/300/392 410/304/405 409/304/404
f 397/300/392 409/304/404 399/300/394
f 403/303/398 411/305/406 412/305/407
f 403/303/398 412/305/407 401/303/396
f 406/307/401 409/304/404 410/304/405
f 406/307/401 410/304/405 405/307/400
f 408/306/403 411/305/406 409/304/404
f 408/306/403 409/304/404 406/307/401
f 407/306/402 412/305/407 411/305/406
f 407/306/402 411/305/406 408/306/403
f 405/307/400 410/304/405 412/305/407
f 405/307/400 412/305/407 407/306/402
f 415/310/410 423/313/418 421/312/416
f 415/310/410 421/312/416 413/311/408
f 406/307/401 417/308/412 419/309/414
f 406/307/401 419/309/414 408/306/403
f 408/306/403 419/309/414 420/309/415
f 408/306/403 420/309/415 407/306/402
f 405/307/400 418/308/413 417/308/412
f 405/307/400 417/308/412 406/307/401
f 414/311/409 417/308/412 418/308/413
f 414/311/409 418/308/413 413/311/408
f 416/310/411 419/309/414 417/308/412
f 416/310/411 417/308/412 414/311/409
f 415/310/410 420/309/415 419/309/414
f 415/310/410 419/309/414 416/310/411
f 413/311/408 418/308/413 420/309/415
f 413/311/408 420/309/415 415/310/410
f 422/312/417 421/312/416 423/313/418
f 422/312/417 423/313/418 424/313/419
f 414/311/409 422/312/417 424/313/419
f 414/311/409 424/313/419 416/310/411
f 416/310/411 424/313/419 423/313/418
f 416/310/411 423/313/418 415/310/410
f 413/311/408 421/312/416 422/312/417
f 413/311/408 422/312/417 414/311/409
f 425/314/420 426/315/421 428/316/423
f 425/314/420 428/316/423 427/317/422
f 428/316/423 432/318/427 440/319/435
f 428/316/423 440/319/435 437/320/432
f 431/321/426 432/318/427 430/322/425
f 431/321/426 430/322/425 429/323/424
f 429/323/424 430/322/425 426/315/421
f 429/323/424 426/315/421 425/314/420
f 427/317/422 431/321/426 429/323/424
f 427/317/422 429/323/424 425/314/420
f 432/318/427 428/316/423 426/315/421
f 432/318/427 426/315/421 430/322/425
f 433/324/428 436/325/431 444/326/439
f 433/324/428 444/326/439 441/327/436
f 427/317/422 428/316/423 437/320/432
f 427/317/422 437/320/432 438/328/433
f 432/318/427 431/321/426 439/329/434
f 432/318/427 439/329/434 440/319/435
f 431/321/426 427/317/422 438/328/433
f 431/321/426 438/328/433 439/329/434
f 433/324/428 434/330/429 438/328/433
f 433/324/428 438/328/433 437/320/432
f 434/330/429 435/331/430 439/329/434
f 434/330/429 439/329/434 438/328/433
f 436/325/431 433/324/428 437/320/432
f 436/325/431 437/320/432 440/319/435
f 435/331/430 436/325/431 440/319/435
f 435/331/430 440/319/435 439/329/434
f 441/327/436 444/326/439 448/332/443
f 441/327/436 448/332/443 445/333/440
f 434/330/429 433/324/428 441/327/436
f 434/330/429 441/327/436 442/334/437
f 436/325/431 435/331/430 443/335/438
f 436/325/431 443/335/438 444/326/439
f 435/331/430 434/330/429 442/334/437
f 435/331/430 442/334/437 443/335/438
f 446/336/441 445/333/440 448/332/443
f 446/336/441 448/332/443 447/337/442
f 442/334/437 441/327/436 445/333/440
f 442/334/437 445/333/440 446/336/441
f 444/326/439 443/335/438 447/337/442
f 444/326/439 447/337/442 448/332/443
f 443/335/438 442/334/437 446/336/441
f 443/335/438 446/336/441 447/337/442
f 449/314/444 451/317/446 452/316/447
f 449/314/444 452/316/447 450/315/445
f 452/316/447 461/320/456 464/319/459
f 452/316/447 464/319/459 456/318/451
f 455/321/450 453/323/448 454/322/449
f 455/321/450 454/322/449 456/318/451
f 453/323/448 449/314/444 450/315/445
f 453/323/448 450/315/445 454/322/449
f 451/317/446 449/314/444 453/323/448
f 451/317/446 453/323/448 455/321/450
f 456/318/451 454/322/449 450/315/445
f 456/318/451 450/315/445 452/316/447
f 457/324/452 465/327/460 468/326/463
f 457/324/452 468/326/463 460/325/455
f 451/317/446 462/328/457 461/320/456
f 451/317/446 461/320/456 452/316/447
f 456/318/451 464/319/459 463/329/458
f 456/318/451 463/329/458 455/321/450
f 455/321/450 463/329/458 462/328/457
f 455/321/450 462/328/457 451/317/446
f 457/324/452 461/320/456 462/328/457
f 457/324/452 462/328/457 458/330/453
f 458/330/453 462/328/457 463/329/458
f 458/330/453 463/329/458 459/331/454
f 460/325/455 464/319/459 461/320/456
f 460/325/455 461/320/456 457/324/452
f 459/331/454 463/329/458 464/319/459
f 459/331/454 464/319/459 460/325/455
f 465/327/460 469/333/464 472/332/467
f 465/327/460 472/332/467 468/326/463
f 458/330/453 466/334/461 465/327/460
f 458/330/453 465/327/460 457/324/452
f 460/325/455 468/326/463 467/335/462
f 460/325/455 467/335/462 459/331/454
f 459/331/454 467/335/462 466/334/461
f 459/331/454 466/334/461 458/330/453
f 470/336/465 471/337/466 472/332/467
f 470/336/465 472/332/467 469/333/464
f 466/334/461 470/336/465 469/333/464
f 466/334/461 469/333/464 465/327/460
f 468/326/463 472/332/467 471/337/466
f 468/326/463 471/337/466 467/335/462
f 467/335/462 471/337/466 470/336/465
f 467/335/462 470/336/465 466/334/461
