# Blender 4.5.5 LTS
# www.blender.org
mtllib Animal_Bird.mtl
o Bird
v -0.147733 0.446006 -0.662960
v -0.160531 0.386733 -0.642418
v -0.107430 0.363334 -0.682314
v -0.157659 0.333911 -0.670431
v -0.142640 0.284417 -0.729581
v -0.184779 0.447135 -0.668093
v -0.191720 0.387832 -0.647194
v -0.189041 0.334707 -0.674286
v -0.179557 0.286009 -0.735283
v -0.168495 0.498544 -0.738751
v -0.143628 0.511006 -0.863140
v -0.111339 0.508655 -0.854710
v -0.072614 0.461268 -0.865248
v -0.060846 0.424599 -0.859202
v -0.080852 0.370494 -0.840917
v -0.097736 0.337559 -0.827273
v -0.115276 0.468019 -0.737765
v -0.074277 0.425846 -0.743241
v -0.058887 0.386469 -0.753275
v -0.072872 0.336762 -0.772948
v -0.112575 0.298135 -0.794487
v -0.196739 0.325128 -0.613122
v -0.147911 0.352549 -0.663147
v -0.196181 0.323448 -0.616417
v -0.201350 0.325117 -0.613296
v -0.188856 0.354291 -0.670336
v -0.201086 0.322135 -0.615401
v -0.173374 0.258310 -0.774097
v -0.127723 0.256397 -0.766703
v -0.137911 0.494610 -0.896716
v -0.103880 0.492237 -0.887476
v -0.065841 0.446167 -0.907443
v -0.052782 0.411715 -0.900080
v -0.050013 0.356387 -0.876753
v -0.064617 0.317085 -0.863039
v -0.098432 0.270401 -0.833240
v -0.144223 0.176294 -0.950565
v -0.087678 0.178077 -0.934261
v -0.122987 0.495510 -0.977736
v -0.058820 0.402029 -1.382713
v -0.055684 0.353260 -1.401130
v -0.086803 0.495257 -0.974360
v -0.039878 0.444834 -1.019813
v -0.016646 0.412433 -1.006287
v 0.001075 0.358986 -0.968685
v -0.020645 0.295954 -0.992579
v -0.052224 0.239163 -0.981049
v -0.056645 0.390087 -1.395486
v -0.104080 0.165564 -1.164696
v -0.046388 0.167070 -1.157316
v -0.089434 0.468921 -1.198731
v -0.017708 0.370420 -1.624175
v -0.017524 0.354532 -1.625257
v -0.017556 0.360920 -1.625068
v -0.018089 0.376194 -1.621938
v -0.043678 0.462569 -1.185647
v 0.010078 0.410443 -1.229655
v 0.030954 0.371580 -1.243763
v 0.037408 0.301735 -1.252251
v 0.020055 0.251471 -1.262858
v -0.013083 0.186901 -1.233855
v -0.086934 0.192601 -1.248668
v -0.022193 0.401582 -1.376050
v -0.020242 0.389705 -1.388924
v -0.017968 0.379792 -1.392358
v 0.009241 0.363476 -1.389128
v 0.002374 0.352604 -1.390619
v 0.005254 0.338987 -1.383872
v -0.056788 0.338792 -1.394646
v 0.066625 0.375969 -1.607300
v 0.072184 0.370138 -1.608601
v 0.067133 0.360541 -1.610286
v 0.052994 0.354146 -1.612883
v -0.091018 0.422091 -0.698037
v -0.082386 0.405895 -0.696384
v -0.085025 0.391668 -0.703372
v -0.106607 0.418052 -0.692515
v -0.105902 0.399581 -0.686794
v -0.100614 0.387628 -0.697850
v -0.096694 0.384208 -0.715527
v -0.105373 0.428268 -0.707801
v -0.088441 0.425489 -0.714519
v -0.078741 0.410701 -0.719693
v -0.082448 0.395066 -0.719854
v -0.220994 0.449566 -0.677185
v -0.222391 0.389740 -0.654429
v -0.258692 0.370685 -0.711685
v -0.219519 0.336918 -0.682442
v -0.215903 0.287989 -0.743792
v -0.176794 0.511905 -0.867331
v -0.213230 0.468153 -0.892164
v -0.229852 0.432832 -0.891543
v -0.223302 0.377542 -0.868415
v -0.215919 0.343378 -0.850123
v -0.220851 0.473174 -0.758234
v -0.260609 0.434949 -0.779361
v -0.274778 0.397015 -0.795126
v -0.259204 0.345866 -0.809067
v -0.218154 0.303306 -0.814935
v -0.205670 0.325562 -0.614856
v -0.229494 0.356514 -0.678988
v -0.205112 0.323882 -0.618151
v -0.218456 0.260842 -0.784275
v -0.172968 0.495712 -0.900740
v -0.205603 0.452054 -0.933844
v -0.223488 0.418735 -0.932243
v -0.239769 0.364554 -0.912611
v -0.235149 0.324926 -0.895445
v -0.219501 0.276424 -0.856569
v -0.201250 0.181719 -0.955651
v -0.158039 0.497787 -0.987841
v -0.187488 0.445081 -1.047658
v -0.212490 0.409991 -1.043161
v -0.243386 0.356573 -1.014907
v -0.227609 0.298814 -1.031601
v -0.211621 0.242794 -1.010985
v -0.160748 0.164866 -1.176560
v -0.136258 0.463038 -1.202020
v -0.173199 0.410505 -1.261645
v -0.189315 0.371417 -1.281875
v -0.195938 0.300691 -1.292083
v -0.180521 0.249582 -1.296284
v -0.165432 0.183777 -1.258434
v -0.095588 0.401582 -1.388547
v -0.093169 0.389705 -1.401340
v -0.094178 0.379792 -1.405334
v -0.120924 0.363476 -1.411290
v -0.113949 0.352604 -1.410425
v -0.118901 0.338987 -1.405011
v -0.102873 0.375969 -1.636159
v -0.107688 0.370138 -1.639227
v -0.102365 0.360541 -1.639146
v -0.088162 0.354146 -1.636917
v -0.262477 0.430424 -0.731330
v -0.272575 0.415139 -0.733314
v -0.268860 0.400603 -0.739068
v -0.250528 0.425047 -0.720460
v -0.255042 0.406830 -0.715753
v -0.256911 0.395225 -0.728199
v -0.254248 0.391865 -0.746120
v -0.245005 0.435055 -0.734913
v -0.258384 0.433749 -0.747517
v -0.266787 0.419840 -0.756206
v -0.264766 0.403927 -0.755255
v -0.089877 0.149209 -1.131826
v -0.091537 0.167716 -1.160874
v -0.068272 0.150409 -1.129014
v -0.061282 0.169397 -1.156937
v -0.093070 0.162666 -1.113036
v -0.097203 0.194129 -1.128612
v -0.071465 0.163867 -1.110224
v -0.066947 0.195810 -1.124675
v -0.066347 0.148512 -1.132467
v -0.090639 0.147162 -1.135628
v -0.070221 0.164840 -1.109668
v -0.094513 0.163490 -1.112829
v -0.084371 0.107033 -1.016227
v -0.099742 0.107033 -1.018844
v -0.084533 0.115633 -1.015274
v -0.099904 0.115633 -1.017892
v -0.104180 0.099578 -0.928067
v -0.110225 0.099578 -0.929096
v -0.104117 0.102961 -0.928437
v -0.110162 0.102961 -0.929466
v -0.123053 0.099646 -0.942388
v -0.130819 0.099646 -0.943710
v -0.122968 0.103990 -0.942883
v -0.130734 0.103990 -0.944205
v -0.080212 0.099801 -0.935506
v -0.087362 0.099801 -0.936724
v -0.080099 0.103770 -0.936168
v -0.087249 0.103770 -0.937386
v -0.124017 0.151970 -1.141208
v -0.116959 0.170938 -1.169128
v -0.145617 0.150781 -1.144063
v -0.147208 0.169273 -1.173125
v -0.127240 0.165440 -1.122432
v -0.122674 0.197372 -1.136891
v -0.148840 0.164251 -1.125287
v -0.152923 0.195707 -1.140889
v -0.146372 0.148732 -1.147865
v -0.122086 0.150069 -1.144656
v -0.150282 0.165075 -1.125083
v -0.125997 0.166413 -1.121874
v -0.155992 0.107033 -1.028422
v -0.140621 0.107033 -1.025804
v -0.156154 0.115633 -1.027469
v -0.140783 0.115633 -1.024852
v -0.166475 0.099578 -0.938673
v -0.160429 0.099578 -0.937644
v -0.166411 0.102961 -0.939044
v -0.160366 0.102961 -0.938014
v -0.143926 0.099646 -0.945942
v -0.136160 0.099646 -0.944619
v -0.143841 0.103990 -0.946437
v -0.136075 0.103990 -0.945115
v -0.186630 0.099801 -0.953626
v -0.179480 0.099801 -0.952408
v -0.186517 0.103770 -0.954288
v -0.179367 0.103770 -0.953070
v 0.364883 0.283916 -1.133146
v -0.021063 0.378009 -0.902559
v 0.303268 0.292020 -1.216410
v -0.086475 0.414642 -0.947573
v 0.110326 0.373189 -0.985717
v 0.008394 0.435847 -1.103958
v 0.389772 0.255986 -1.167654
v -0.039194 0.411371 -0.921144
v 0.086076 0.403809 -1.000924
v -0.532751 0.290143 -1.281419
v -0.244577 0.373131 -0.944582
v -0.447988 0.295969 -1.341459
v -0.172191 0.414970 -0.964283
v -0.336159 0.367205 -1.065819
v -0.203063 0.435240 -1.142687
v -0.546576 0.262198 -1.321441
v -0.221542 0.407615 -0.955287
v -0.308990 0.398371 -1.071420
vn 0.8895 -0.3035 0.3415
vn 0.8321 -0.5485 0.0820
vn 0.2501 -0.8808 0.4022
vn 0.3530 -0.7300 0.5853
vn 0.9533 -0.0968 0.2861
vn 0.8235 0.3922 0.4098
vn 0.2015 0.3981 0.8950
vn 0.7747 -0.1825 0.6054
vn 0.6446 0.6459 0.4091
vn -0.0181 0.9435 0.3310
vn 0.3498 0.5529 0.7563
vn -0.0883 -0.9735 0.2112
vn -0.1522 -0.7972 0.5842
vn -0.1535 0.4181 0.8954
vn -0.1165 -0.6600 0.7422
vn -0.1005 -0.7947 0.5986
vn -0.1241 0.6011 0.7895
vn 0.4479 0.8937 -0.0272
vn 0.8455 0.5322 0.0433
vn 0.8485 0.5163 0.1158
vn 0.5015 0.8569 -0.1193
vn 0.5205 -0.6411 0.5640
vn 0.8857 -0.2119 0.4131
vn -0.1314 -0.8646 0.4850
vn 0.0820 0.9816 -0.1725
vn 0.9530 -0.2214 0.2070
vn 0.9752 0.1689 0.1433
vn 0.9177 -0.3448 0.1975
vn -0.3551 -0.6725 0.6494
vn -0.3823 -0.4529 0.8054
vn -0.0974 -0.1327 0.9864
vn -0.0831 -0.4714 0.8780
vn 0.8334 -0.2366 0.4995
vn 0.8806 -0.3897 0.2696
vn 0.8830 -0.3818 0.2730
vn 0.8978 0.3271 0.2950
vn 0.8928 0.4071 0.1927
vn 0.7967 0.5920 0.1220
vn 0.0819 0.9782 -0.1911
vn 0.4594 0.8868 0.0513
vn 0.0402 0.9981 -0.0466
vn 0.4965 -0.8045 0.3259
vn 0.8712 -0.0475 0.4885
vn 0.9483 0.0013 0.3175
vn -0.0623 -0.9734 0.2206
vn 0.8856 -0.4341 -0.1653
vn 0.9955 -0.0839 -0.0449
vn 0.0255 -0.9928 -0.1174
vn 0.4883 -0.8723 0.0261
vn 0.9201 0.3879 -0.0541
vn 0.5643 -0.7883 -0.2451
vn 0.7839 0.6168 -0.0713
vn 0.4514 0.8854 -0.1108
vn 0.0499 0.9720 -0.2294
vn 0.0961 -0.8568 -0.5066
vn 0.8816 0.4644 0.0836
vn 0.5568 0.7986 -0.2285
vn 0.3979 0.8412 -0.3661
vn 0.1398 -0.5704 -0.8094
vn 0.4599 -0.5786 -0.6736
vn 0.5575 -0.7360 -0.3840
vn 0.9989 0.0356 -0.0316
vn 0.0906 -0.8418 -0.5321
vn 0.7590 0.5532 -0.3432
vn 0.5580 0.7375 -0.3805
vn 0.0653 0.9211 -0.3837
vn 0.0874 0.8594 -0.5038
vn 0.3675 -0.6906 -0.6229
vn 0.7975 -0.0004 -0.6033
vn 0.0989 0.8079 -0.5809
vn 0.1676 0.0566 -0.9842
vn 0.1634 0.2277 -0.9599
vn 0.1209 -0.6937 -0.7100
vn 0.6957 -0.6283 0.3483
vn 0.7779 0.0138 0.6282
vn 0.3832 -0.1085 0.9173
vn 0.4102 -0.6775 0.6105
vn 0.4586 0.6645 0.5899
vn 0.1165 0.9077 0.4030
vn 0.1836 0.5118 0.8392
vn 0.4685 -0.8789 0.0897
vn 0.8784 -0.4764 0.0391
vn 0.9742 0.1357 0.1803
vn 0.6658 0.7033 0.2491
vn -0.9805 0.0477 -0.1904
vn 0.7433 -0.1242 0.6574
vn 0.7295 -0.5437 0.4149
vn 0.4739 -0.3221 0.8196
vn 0.4745 -0.5245 0.7070
vn -0.9772 -0.2115 -0.0196
vn -0.6126 -0.6829 0.3980
vn -0.4634 -0.8461 0.2635
vn -0.8501 -0.4660 -0.2453
vn -0.9957 -0.0011 -0.0930
vn -0.9582 -0.0980 0.2686
vn -0.4829 0.4315 0.7620
vn -0.8761 0.4755 0.0793
vn -0.6868 0.7112 0.1501
vn -0.5536 0.5970 0.5806
vn -0.2051 -0.7896 0.5783
vn -0.2313 -0.6544 0.7199
vn -0.3184 0.9313 -0.1771
vn -0.3417 0.8941 -0.2896
vn -0.7957 0.5623 -0.2251
vn -0.7457 0.6095 -0.2692
vn -0.9917 -0.1154 0.0559
vn -0.7477 -0.5801 0.3232
vn -0.9779 -0.1254 -0.1676
vn -0.9367 0.2623 -0.2317
vn -0.9538 -0.2521 -0.1634
vn 0.0224 -0.6908 0.7227
vn 0.0097 -0.4720 0.8816
vn -0.2908 -0.1233 0.9488
vn -0.2951 -0.4611 0.8368
vn -0.9810 -0.1282 0.1456
vn -0.9624 -0.2637 -0.0647
vn -0.9531 -0.2959 -0.0634
vn -0.7964 0.5844 -0.1559
vn -0.8994 0.4133 -0.1424
vn -0.9246 0.3668 -0.1029
vn -0.3983 0.9099 -0.1163
vn -0.6342 -0.7629 0.1258
vn -0.9937 0.0544 0.0976
vn -0.9950 0.0659 -0.0749
vn -0.9302 -0.0149 -0.3669
vn -0.8089 -0.3580 -0.4665
vn -0.4884 -0.8611 -0.1417
vn -0.8490 0.4071 -0.3369
vn -0.4835 -0.7614 -0.4319
vn -0.7279 0.6114 -0.3104
vn -0.3936 0.8857 -0.2463
vn -0.4479 0.8008 -0.3976
vn -0.8562 0.4716 -0.2110
vn -0.2534 0.8421 -0.4761
vn -0.2142 -0.5590 -0.8010
vn -0.9302 0.0595 -0.3621
vn -0.4058 -0.7249 -0.5567
vn -0.4006 0.7375 -0.5437
vn -0.6027 0.5532 -0.5751
vn -0.5529 -0.0004 -0.8332
vn -0.1407 -0.6906 -0.7095
vn -0.8308 -0.5541 0.0519
vn -0.6699 -0.6250 0.4007
vn -0.7063 -0.0556 0.7057
vn -0.9513 0.0979 0.2925
vn -0.5815 0.7151 0.3880
vn -0.4350 0.5419 0.7191
vn -0.1732 0.9218 0.3468
vn -0.5480 -0.8295 -0.1077
vn -0.8698 -0.3914 -0.3003
vn -0.9538 0.2294 -0.1941
vn -0.6418 0.7669 -0.0048
vn -0.9431 -0.0423 0.3299
vn -0.8791 -0.4656 0.1026
vn -0.7735 -0.2614 0.5774
vn -0.7509 -0.4649 0.4690
vn -0.5149 -0.8485 -0.1220
vn -0.4835 -0.0389 -0.8745
vn 0.6919 0.0264 -0.7216
vn 0.6183 -0.7855 0.0255
vn 0.5202 0.8158 0.2527
vn 0.5027 -0.0933 0.8594
vn -0.6532 0.7506 0.1001
vn -0.6921 -0.1597 0.7039
vn -0.6238 -0.2670 0.7345
vn -0.3238 -0.9040 0.2790
vn -0.5570 -0.7610 -0.3327
vn -0.8140 0.5423 0.2081
vn 0.3310 -0.8708 0.3636
vn 0.4467 -0.2205 0.8671
vn 0.6768 0.6912 0.2533
vn -0.7225 0.6912 0.0150
vn -0.6667 0.5609 0.4907
vn 0.4668 0.5609 0.6837
vn 0.7173 0.5767 0.3909
vn 0.6995 -0.6951 -0.1660
vn 0.4423 -0.5796 0.6844
vn -0.6439 -0.5796 0.4995
vn -0.6985 -0.7019 -0.1397
vn 0.7053 -0.7019 0.0994
vn -0.6268 0.7665 -0.1398
vn -0.7325 0.5635 0.3819
vn 0.3630 0.5645 0.7413
vn 0.6586 0.6067 0.4451
vn -0.7187 -0.5499 0.4256
vn 0.3494 -0.6081 0.7129
vn 0.7036 -0.6410 0.3066
vn -0.5890 -0.7430 -0.3179
vn 0.6381 0.7657 0.0805
vn -0.7671 0.6070 0.2078
vn -0.5872 0.5757 0.5690
vn 0.5699 0.5767 0.5853
vn 0.5317 -0.5318 0.6592
vn -0.5645 -0.5964 0.5706
vn -0.7672 -0.6384 0.0618
vn 0.6606 -0.7438 -0.1020
vn 0.6178 -0.7859 0.0271
vn -0.5152 -0.8483 -0.1226
vn -0.4817 -0.0391 -0.8754
vn 0.6933 0.0256 -0.7202
vn -0.6936 -0.1589 0.7026
vn -0.6529 0.7510 0.0983
vn 0.5009 -0.0931 0.8605
vn 0.5202 0.8156 0.2533
vn 0.4443 -0.2202 0.8684
vn 0.7168 0.5761 0.3928
vn 0.6987 -0.6952 -0.1687
vn 0.3309 -0.8708 0.3637
vn -0.3258 -0.9038 0.2777
vn -0.6249 -0.2663 0.7339
vn -0.5557 -0.7599 -0.3373
vn -0.8149 0.5414 0.2068
vn 0.6378 0.7665 0.0755
vn -0.7688 0.6067 0.2021
vn -0.5879 0.5645 0.5794
vn 0.5648 0.5635 0.6028
vn -0.5656 -0.6081 0.5571
vn 0.5374 -0.5499 0.6394
vn -0.7654 -0.6410 0.0565
vn 0.6610 -0.7430 -0.1051
vn -0.6288 0.7657 -0.1353
vn -0.7315 0.5767 0.3638
vn 0.3658 0.5757 0.7313
vn 0.6551 0.6070 0.4499
vn -0.7199 -0.5318 0.4461
vn 0.3439 -0.5964 0.7253
vn 0.7036 -0.6384 0.3122
vn -0.5896 -0.7438 -0.3149
vn 0.3733 0.8938 0.2487
vn 0.2730 0.9604 0.0556
vn 0.1111 0.9808 0.1602
vn 0.2582 0.8896 0.3768
vn 0.4190 0.9079 -0.0155
vn 0.4196 0.9065 -0.0473
vn 0.4161 0.9077 0.0544
vn 0.4469 0.8473 0.2871
vn 0.4380 0.6292 0.6421
vn -0.4517 0.8834 0.1249
vn -0.4129 0.8697 0.2703
vn -0.2131 0.9694 0.1219
vn -0.3035 0.9527 -0.0173
vn -0.3865 0.9146 -0.1188
vn -0.3817 0.9121 -0.1494
vn -0.3957 0.9170 -0.0510
vn -0.5159 0.8446 0.1429
vn -0.6509 0.6100 0.4519
vt 0.776147 0.461580
vt 0.776147 0.467066
vt 0.761590 0.470877
vt 0.767094 0.462507
vt 0.957889 0.650212
vt 0.957889 0.652010
vt 0.952450 0.651770
vt 0.954230 0.650212
vt 0.957889 0.653874
vt 0.957889 0.655171
vt 0.954204 0.653965
vt 0.957889 0.647869
vt 0.952911 0.649172
vt 0.761292 0.470877
vt 0.766919 0.462507
vt 0.948336 0.247638
vt 0.948083 0.247638
vt 0.937949 0.238215
vt 0.938092 0.238215
vt 0.954111 0.653965
vt 0.792310 0.484755
vt 0.792427 0.478171
vt 0.796068 0.473324
vt 0.795950 0.481183
vt 0.952392 0.651770
vt 0.770734 0.457660
vt 0.779788 0.456733
vt 0.770559 0.457660
vt 0.945909 0.701197
vt 0.940288 0.702451
vt 0.945815 0.701197
vt 0.961079 0.648353
vt 0.962748 0.650212
vt 0.963457 0.651666
vt 0.963416 0.653918
vt 0.959905 0.647182
vt 0.957889 0.645993
vt 0.950511 0.240118
vt 0.950360 0.240118
vt 0.938604 0.237710
vt 0.938160 0.237544
vt 0.949906 0.236301
vt 0.950351 0.236301
vt 0.444385 0.821471
vt 0.442370 0.820282
vt 0.447555 0.815253
vt 0.449806 0.817079
vt 0.939216 0.810188
vt 0.939431 0.807824
vt 0.947202 0.808134
vt 0.945908 0.810859
vt 0.937243 0.813603
vt 0.937125 0.813532
vt 0.941947 0.813930
vt 0.942056 0.814067
vt 0.439274 0.820598
vt 0.444507 0.813981
vt 0.938747 0.804224
vt 0.938161 0.801862
vt 0.948302 0.800464
vt 0.947965 0.803539
vt 0.439214 0.820598
vt 0.444436 0.813955
vt 0.792584 0.484755
vt 0.796224 0.481183
vt 0.790357 0.473918
vt 0.793997 0.469071
vt 0.785476 0.468483
vt 0.789116 0.463636
vt 0.782040 0.465058
vt 0.785680 0.460211
vt 0.961517 0.802690
vt 0.960857 0.805462
vt 0.453183 0.810625
vt 0.453246 0.810658
vt 0.959635 0.809573
vt 0.456451 0.811791
vt 0.458298 0.813717
vt 0.958142 0.811915
vt 0.954171 0.814268
vt 0.954255 0.814405
vt 0.456474 0.811746
vt 0.967887 0.811146
vt 0.967518 0.811724
vt 0.966538 0.812305
vt 0.464217 0.814759
vt 0.464211 0.814770
vt 0.968352 0.809446
vt 0.968189 0.810130
vt 0.464667 0.815246
vt 0.968156 0.808493
vt 0.968382 0.809496
vt 0.982472 0.813532
vt 0.982255 0.813872
vt 0.967536 0.811753
vt 0.966559 0.812339
vt 0.982746 0.812532
vt 0.982650 0.812935
vt 0.982266 0.813889
vt 0.982667 0.812964
vt 0.982485 0.813553
vt 0.982764 0.812561
vt 0.962393 0.244705
vt 0.962079 0.247717
vt 0.959103 0.247197
vt 0.960579 0.244338
vt 0.963005 0.250603
vt 0.964578 0.251190
vt 0.961190 0.250235
vt 0.963692 0.242648
vt 0.965644 0.244338
vt 0.966676 0.247197
vt 0.966256 0.250235
vt 0.956106 0.240839
vt 0.937069 0.229445
vt 0.936653 0.229360
vt 0.936315 0.230015
vt 0.936997 0.230135
vt 0.937209 0.230796
vt 0.936793 0.230712
vt 0.937569 0.230930
vt 0.937366 0.228973
vt 0.937814 0.229360
vt 0.938050 0.230015
vt 0.937954 0.230712
vt 0.386568 0.254173
vt 0.388723 0.257614
vt 0.383798 0.259484
vt 0.383180 0.255217
vt 0.383262 0.255125
vt 0.386054 0.254265
vt 0.373972 0.244426
vt 0.373506 0.245404
vt 0.363504 0.240268
vt 0.363598 0.239852
vt 0.364773 0.240843
vt 0.364891 0.240308
vt 0.364850 0.240840
vt 0.364933 0.240343
vt 0.945791 0.676761
vt 0.950760 0.690460
vt 0.936038 0.690442
vt 0.934863 0.684134
vt 0.976716 0.675927
vt 0.973012 0.681538
vt 0.972583 0.672475
vt 0.945720 0.672572
vt 0.933688 0.679760
s 1
usemtl Material.001
f 21/1/1 20/2/2 4/3/3 5/4/4
f 19/5/5 18/6/6 2/7/7 3/8/8
f 17/9/9 10/10/10 1/11/11
f 20/12/2 19/5/5 3/8/8 4/13/3
f 18/6/6 17/9/9 1/11/11 2/7/7
f 5/4/4 4/3/3 8/14/12 9/15/13
f 2/16/7 7/17/14 25/18/15 22/19/16
f 1/11/11 10/10/10 6/20/17
f 12/21/18 13/22/19 32/23/20 31/24/21
f 2/7/7 1/11/11 6/20/17 7/25/14
f 21/1/1 5/4/4 29/26/22 36/27/23
f 5/4/4 9/15/13 28/28/24 29/26/22
f 11/29/25 10/30/10 12/31/18
f 15/32/26 14/33/27 19/5/5 20/12/2
f 13/34/19 12/35/18 17/9/9 18/6/6
f 16/36/28 15/32/26 20/12/2 21/37/1
f 14/33/27 13/34/19 18/6/6 19/5/5
f 12/35/18 10/10/10 17/9/9
f 23/38/29 22/19/16 25/18/15 26/39/30
f 24/40/31 23/38/29 26/39/30 27/41/32
f 8/42/12 4/43/3 24/40/31 27/41/32
f 35/44/33 36/45/23 47/46/34 46/47/35
f 32/48/20 33/49/36 44/50/37 43/51/38
f 30/52/39 31/53/21 42/54/40 39/55/41
f 31/53/21 32/48/20 43/51/38 42/54/40
f 36/45/23 29/56/22 38/57/42 47/46/34
f 34/58/43 35/59/33 46/60/35 45/61/44
f 29/56/22 28/62/24 37/63/45 38/57/42
f 33/49/36 34/58/43 45/61/44 44/50/37
f 11/64/25 12/21/18 31/24/21 30/65/39
f 13/22/19 14/66/27 33/67/36 32/23/20
f 14/66/27 15/68/26 34/69/43 33/67/36
f 16/70/28 21/1/1 36/27/23 35/71/33
f 15/68/26 16/70/28 35/71/33 34/69/43
f 45/61/44 46/60/35 60/72/46 59/73/47
f 38/57/42 37/63/45 49/74/48 50/75/49
f 44/50/37 45/61/44 59/73/47 58/76/50
f 46/47/35 47/46/34 61/77/51 60/78/46
f 43/51/38 44/50/37 58/76/50 57/79/52
f 39/55/41 42/54/40 56/80/53 51/81/54
f 42/54/40 43/51/38 57/79/52 56/80/53
f 47/46/34 38/57/42 50/75/49 61/77/51
f 62/82/55 61/77/51 50/75/49
f 62/82/55 50/75/49 49/74/48
f 57/79/52 58/76/50 65/83/56 64/84/57
f 56/80/53 57/79/52 64/84/57 63/85/58
f 61/77/51 62/82/55 69/86/59 68/87/60
f 59/73/47 60/72/46 67/88/61 66/89/62
f 60/78/46 61/77/51 68/87/60 67/90/61
f 58/76/50 59/73/47 66/89/62 65/83/56
f 69/91/59 41/92/63 67/88/61
f 64/84/57 65/83/56 71/93/64 70/94/65
f 48/95/66 40/96/67 63/85/58 64/84/57
f 66/89/62 67/88/61 73/97/68 72/98/69
f 48/95/66 64/84/57 70/94/65 55/99/70
f 69/86/59 67/90/61 68/87/60
f 51/81/54 56/80/53 63/85/58 40/96/67
f 54/100/71 52/101/72 71/93/64 72/98/69
f 53/102/73 54/100/71 72/98/69 73/97/68
f 52/101/72 55/99/70 70/94/65 71/93/64
f 67/88/61 41/92/63 53/102/73 73/97/68
f 65/83/56 66/89/62 72/98/69 71/93/64
f 76/103/74 75/104/75 78/105/76 79/106/77
f 74/107/78 81/108/79 77/109/80
f 80/110/81 76/103/74 79/106/77
f 75/104/75 74/107/78 77/109/80 78/105/76
f 84/111/82 83/112/83 75/104/75 76/103/74
f 82/113/84 81/108/79 74/107/78
f 80/110/81 84/111/82 76/103/74
f 83/112/83 82/113/84 74/107/78 75/104/75
f 7/17/85 8/42/85 27/41/85 26/39/85 25/18/85
s 0
f 22/19/86 23/38/86 2/16/86
f 4/43/87 23/38/87 24/40/87
f 23/38/88 3/114/88 2/16/88
f 23/38/89 4/43/89 3/114/89
s 1
f 99/1/90 89/4/91 88/3/92 98/2/93
f 97/5/94 87/8/95 86/7/96 96/6/97
f 95/9/98 85/11/99 10/10/10
f 98/12/93 88/13/92 87/8/95 97/5/94
f 96/6/97 86/7/96 85/11/99 95/9/98
f 89/4/91 9/15/13 8/14/12 88/3/92
f 86/16/96 100/19/100 25/18/101 7/17/14
f 85/11/99 6/20/17 10/10/10
f 90/21/102 104/24/103 105/23/104 91/22/105
f 86/7/96 7/25/14 6/20/17 85/11/99
f 99/1/90 109/27/106 103/26/107 89/4/91
f 89/4/91 103/26/107 28/28/24 9/15/13
f 11/29/25 90/31/102 10/30/10
f 93/32/108 98/12/93 97/5/94 92/33/109
f 91/34/105 96/6/97 95/9/98 90/35/102
f 94/36/110 99/37/90 98/12/93 93/32/108
f 92/33/109 97/5/94 96/6/97 91/34/105
f 90/35/102 95/9/98 10/10/10
f 101/38/111 26/39/112 25/18/101 100/19/100
f 102/40/113 27/41/114 26/39/112 101/38/111
f 8/42/12 27/41/114 102/40/113 88/43/92
f 108/44/115 115/47/116 116/46/117 109/45/106
f 105/48/104 112/51/118 113/50/119 106/49/120
f 30/52/39 39/55/41 111/54/121 104/53/103
f 104/53/103 111/54/121 112/51/118 105/48/104
f 109/45/106 116/46/117 110/57/122 103/56/107
f 107/58/123 114/61/124 115/60/116 108/59/115
f 103/56/107 110/57/122 37/63/45 28/62/24
f 106/49/120 113/50/119 114/61/124 107/58/123
f 11/64/25 30/65/39 104/24/103 90/21/102
f 91/22/105 105/23/104 106/67/120 92/66/109
f 92/66/109 106/67/120 107/69/123 93/68/108
f 94/70/110 108/71/115 109/27/106 99/1/90
f 93/68/108 107/69/123 108/71/115 94/70/110
f 114/61/124 121/73/125 122/72/126 115/60/116
f 110/57/122 117/75/127 49/74/48 37/63/45
f 113/50/119 120/76/128 121/73/125 114/61/124
f 115/47/116 122/78/126 123/77/129 116/46/117
f 112/51/118 119/79/130 120/76/128 113/50/119
f 39/55/41 51/81/54 118/80/131 111/54/121
f 111/54/121 118/80/131 119/79/130 112/51/118
f 116/46/117 123/77/129 117/75/127 110/57/122
f 62/82/55 117/75/127 123/77/129
f 62/82/55 49/74/48 117/75/127
f 119/79/130 125/84/132 126/83/133 120/76/128
f 118/80/131 124/85/134 125/84/132 119/79/130
f 123/77/129 129/87/135 69/86/59 62/82/55
f 121/73/125 127/89/136 128/88/137 122/72/126
f 122/78/126 128/90/137 129/87/135 123/77/129
f 120/76/128 126/83/133 127/89/136 121/73/125
f 69/91/59 128/88/137 41/92/63
f 125/84/132 130/94/138 131/93/139 126/83/133
f 48/95/66 125/84/132 124/85/134 40/96/67
f 127/89/136 132/98/140 133/97/141 128/88/137
f 48/95/66 55/99/70 130/94/138 125/84/132
f 69/86/59 129/87/135 128/90/137
f 51/81/54 40/96/67 124/85/134 118/80/131
f 54/100/71 132/98/140 131/93/139 52/101/72
f 53/102/73 133/97/141 132/98/140 54/100/71
f 52/101/72 131/93/139 130/94/138 55/99/70
f 128/88/137 133/97/141 53/102/73 41/92/63
f 126/83/133 131/93/139 132/98/140 127/89/136
f 136/115/142 139/116/143 138/117/144 135/118/145
f 134/119/146 137/120/147 141/121/148
f 140/122/149 139/116/143 136/115/142
f 135/118/145 138/117/144 137/120/147 134/119/146
f 144/123/150 136/115/142 135/118/145 143/124/151
f 142/125/152 134/119/146 141/121/148
f 140/122/149 136/115/142 144/123/150
f 143/124/151 135/118/145 134/119/146 142/125/152
s 0
f 100/19/153 86/16/153 101/38/153
f 88/43/154 102/40/154 101/38/154
f 101/38/155 86/16/155 87/114/155
f 101/38/156 87/114/156 88/43/156
s 1
f 154/126/157 146/127/158 148/127/159 153/126/160
f 153/126/160 148/127/159 152/128/161 155/129/162
f 155/129/162 152/128/161 150/128/163 156/129/164
f 156/129/164 150/128/163 146/127/158 154/126/157
f 149/130/165 145/131/166 158/132/167 160/133/168
f 152/128/161 148/127/159 146/127/158 150/128/163
f 147/131/169 145/131/166 154/126/157 153/126/160
f 151/130/170 147/131/169 153/126/160 155/129/162
f 149/130/165 151/130/170 155/129/162 156/129/164
f 145/131/166 149/130/165 156/129/164 154/126/157
f 159/133/171 160/133/172 164/134/173 163/134/174
f 147/131/169 151/130/170 159/133/175 157/132/176
f 151/130/170 149/130/165 160/133/168 159/133/175
f 145/131/166 147/131/169 157/132/176 158/132/167
f 161/135/177 163/134/174 164/134/173 162/135/178
f 158/132/179 157/132/180 161/135/177 162/135/178
f 160/133/172 158/132/179 162/135/178 164/134/173
f 157/132/180 159/133/171 163/134/174 161/135/177
f 160/133/181 168/136/182 167/136/183 159/133/184
f 167/136/183 168/136/182 166/137/185 165/137/186
f 157/132/187 165/137/186 166/137/185 158/132/188
f 158/132/188 166/137/185 168/136/182 160/133/181
f 159/133/184 167/136/183 165/137/186 157/132/187
f 159/133/189 160/133/190 172/138/191 171/138/192
f 169/139/193 171/138/192 172/138/191 170/139/194
f 158/132/195 157/132/196 169/139/193 170/139/194
f 160/133/190 158/132/195 170/139/194 172/138/191
f 157/132/196 159/133/189 171/138/192 169/139/193
f 182/126/197 181/126/198 176/127/199 174/127/200
f 181/126/198 183/129/201 180/128/202 176/127/199
f 183/129/201 184/129/203 178/128/204 180/128/202
f 184/129/203 182/126/197 174/127/200 178/128/204
f 177/130/205 188/133/206 186/132/207 173/131/208
f 180/128/202 178/128/204 174/127/200 176/127/199
f 175/131/209 181/126/198 182/126/197 173/131/208
f 179/130/210 183/129/201 181/126/198 175/131/209
f 177/130/205 184/129/203 183/129/201 179/130/210
f 173/131/208 182/126/197 184/129/203 177/130/205
f 187/133/172 191/134/173 192/134/174 188/133/171
f 175/131/209 185/132/211 187/133/212 179/130/210
f 179/130/210 187/133/212 188/133/206 177/130/205
f 173/131/208 186/132/207 185/132/211 175/131/209
f 189/135/178 190/135/177 192/134/174 191/134/173
f 186/132/180 190/135/177 189/135/178 185/132/179
f 188/133/171 192/134/174 190/135/177 186/132/180
f 185/132/179 189/135/178 191/134/173 187/133/172
f 188/133/213 187/133/214 195/136/215 196/136/216
f 195/136/215 193/137/217 194/137/218 196/136/216
f 185/132/219 186/132/220 194/137/218 193/137/217
f 186/132/220 188/133/213 196/136/216 194/137/218
f 187/133/214 185/132/219 193/137/217 195/136/215
f 187/133/221 199/138/222 200/138/223 188/133/224
f 197/139/225 198/139/226 200/138/223 199/138/222
f 186/132/227 198/139/226 197/139/225 185/132/228
f 188/133/224 200/138/223 198/139/226 186/132/227
f 185/132/228 197/139/225 199/138/222 187/133/221
f 209/140/229 206/141/230 204/142/231 208/143/232
f 207/144/233 203/145/234 206/141/230 209/140/229
f 201/146/235 207/144/233 209/140/229 205/147/236
f 205/147/236 209/140/229 208/143/232 202/148/237
f 218/140/238 217/143/239 213/142/240 215/141/241
f 216/144/242 218/140/238 215/141/241 212/145/243
f 210/146/244 214/147/245 218/140/238 216/144/242
f 214/147/245 211/148/246 217/143/239 218/140/238
