# Blender 4.5.5 LTS
# www.blender.org
mtllib Animal_BrownPlanthopper_Adult.mtl
o SM_BrownPlantHopper_01_LOD0.001
v 0.197684 0.151653 -0.149985
v 0.202627 0.577791 -0.149985
v 0.190753 0.191342 0.194660
v 0.195065 0.479086 0.194660
v -0.000176 0.191342 0.194660
v -0.000176 0.479086 0.194660
v -0.000176 0.151653 -0.149985
v -0.000176 0.577791 -0.149985
v 0.139775 0.405539 0.490691
v -0.000176 0.413025 0.518716
v 0.093135 0.215445 -0.676023
v 0.098995 0.408122 -0.662259
v -0.000176 0.406062 -0.662259
v -0.000176 0.217063 -0.676023
v 0.303615 0.313861 -0.149985
v 0.283172 0.291072 0.194660
v -0.000176 0.283765 0.583247
v 0.143627 0.309138 -0.676023
v 0.202627 0.599789 -0.149985
v 0.196562 0.500412 0.187912
v 0.130219 0.440077 -0.595636
v 0.341613 0.450870 -0.149302
v 0.304893 0.436371 0.173402
v 0.196607 0.455403 -0.514946
v 0.004245 0.619426 -0.149985
v -0.000176 0.526228 0.183016
v 0.088289 0.466223 -0.533167
v 0.202435 0.164434 0.185937
v 0.207378 0.537402 0.185937
v -0.000176 0.163971 0.189808
v -0.000176 0.538813 0.188266
v 0.136871 0.220402 0.490691
v -0.000176 0.215653 0.537275
v 0.308370 0.301670 0.185937
v 0.199097 0.284864 0.490691
v -0.000176 0.198475 -0.523933
v -0.000176 0.204924 -0.592673
v 0.134211 0.455862 -0.523933
v 0.116711 0.432138 -0.592673
v -0.000176 0.430452 -0.592673
v -0.000176 0.454545 -0.523933
v 0.131089 0.197333 -0.523933
v 0.113935 0.204679 -0.592673
v 0.198014 0.291410 -0.523933
v 0.173433 0.299888 -0.592673
v -0.000176 0.482160 -0.445144
v -0.000176 0.189905 -0.445144
v 0.154270 0.483054 -0.445144
v 0.150750 0.189447 -0.445144
v 0.226188 0.289526 -0.445144
v 0.162997 0.192964 0.369251
v -0.000176 0.189536 0.398815
v 0.242641 0.289397 0.369251
v 0.166713 0.477976 0.369251
v -0.000176 0.486995 0.387037
v 0.206815 0.431009 0.554208
v 0.213651 0.408922 0.561418
v 0.103443 0.356029 0.457085
v 0.089150 0.398388 0.446719
v 0.193035 0.426472 0.574789
v 0.199872 0.404385 0.581998
v 0.073725 0.346245 0.501469
v 0.059431 0.388603 0.491102
v 0.049740 0.543260 0.312065
v 0.087869 0.560929 0.247880
v 0.225826 0.529445 0.256325
v 0.160806 0.555207 0.224792
v 0.206713 0.481065 0.388192
v 0.244841 0.498735 0.324007
v 0.133776 0.486787 0.411280
v 0.068756 0.512549 0.379747
v 0.026247 0.454804 -0.523933
v 0.056495 0.482488 -0.445144
v 0.293690 0.271754 0.573797
v 0.311686 0.197365 0.518758
v 0.226954 0.073050 0.351168
v 0.185123 0.151148 0.388935
v 0.091766 0.220419 0.211778
v 0.260992 0.191932 0.580467
v 0.148292 0.021272 0.395385
v 0.129483 0.324793 0.232762
v 0.390261 0.019200 0.620049
v 0.369139 -0.021869 0.574449
v 0.185336 0.248150 0.175730
v 0.352604 -0.026044 0.607750
v 0.567619 0.271754 0.100145
v 0.531900 0.197366 0.054567
v 0.345503 0.073050 0.031718
v 0.353608 0.151148 0.087490
v 0.154463 0.220419 0.066484
v 0.554967 0.191932 0.131025
v 0.338473 0.021272 0.121682
v 0.192884 0.324793 0.046822
v 0.659784 0.019200 0.045641
v 0.610142 -0.021869 0.037817
v 0.176576 0.248150 -0.031320
v 0.628611 -0.026044 0.070086
v 0.451382 0.271754 -0.539124
v 0.394511 0.197576 -0.525001
v 0.288900 0.073050 -0.323868
v 0.342200 0.151148 -0.300146
v 0.232394 0.220419 -0.083239
v 0.473050 0.192158 -0.506249
v 0.365676 0.021272 -0.262449
v 0.232492 0.324793 -0.139144
v 0.445094 0.019200 -0.677577
v 0.415421 -0.021869 -0.625041
v 0.155548 0.248150 -0.166677
v 0.452565 -0.026044 -0.627186
v -0.198035 0.151653 -0.149985
v -0.202978 0.577791 -0.149985
v -0.191104 0.191342 0.194660
v -0.195417 0.479086 0.194660
v -0.140126 0.405539 0.490691
v -0.093486 0.215445 -0.676023
v -0.099346 0.408122 -0.662259
v -0.303966 0.313861 -0.149985
v -0.283523 0.291072 0.194660
v -0.143979 0.309138 -0.676023
v -0.202978 0.599789 -0.149985
v -0.196914 0.500412 0.187912
v -0.130570 0.440077 -0.595636
v -0.341964 0.450870 -0.149302
v -0.305245 0.436371 0.173402
v -0.196959 0.455403 -0.514946
v -0.004596 0.619426 -0.149985
v -0.088640 0.466223 -0.533167
v -0.202786 0.164434 0.185937
v -0.207729 0.537402 0.185937
v -0.137222 0.220402 0.490691
v -0.308721 0.301670 0.185937
v -0.199449 0.284864 0.490691
v -0.134563 0.455862 -0.523933
v -0.117062 0.432138 -0.592673
v -0.131440 0.197333 -0.523933
v -0.114286 0.204679 -0.592673
v -0.198365 0.291410 -0.523933
v -0.173784 0.299888 -0.592673
v -0.154621 0.483054 -0.445144
v -0.151101 0.189447 -0.445144
v -0.226540 0.289526 -0.445144
v -0.163348 0.192964 0.369251
v -0.242992 0.289397 0.369251
v -0.167065 0.477976 0.369251
v -0.207166 0.431009 0.554208
v -0.214003 0.408922 0.561418
v -0.103794 0.356029 0.457085
v -0.089501 0.398388 0.446719
v -0.193386 0.426472 0.574789
v -0.200223 0.404385 0.581998
v -0.074076 0.346245 0.501469
v -0.059783 0.388603 0.491102
v -0.050091 0.543260 0.312065
v -0.088220 0.560929 0.247880
v -0.226177 0.529445 0.256325
v -0.161157 0.555207 0.224792
v -0.207064 0.481065 0.388192
v -0.245193 0.498735 0.324007
v -0.134127 0.486787 0.411280
v -0.069107 0.512549 0.379747
v -0.026599 0.454804 -0.523933
v -0.056846 0.482488 -0.445144
v -0.294041 0.271754 0.573797
v -0.312037 0.197365 0.518758
v -0.227305 0.073050 0.351168
v -0.185474 0.151148 0.388935
v -0.092118 0.220419 0.211778
v -0.261343 0.191932 0.580467
v -0.148643 0.021272 0.395385
v -0.129834 0.324793 0.232762
v -0.390612 0.019200 0.620049
v -0.369490 -0.021869 0.574449
v -0.185687 0.248150 0.175730
v -0.352955 -0.026044 0.607750
v -0.567970 0.271754 0.100145
v -0.532251 0.197366 0.054567
v -0.345854 0.073050 0.031718
v -0.353959 0.151148 0.087490
v -0.154814 0.220419 0.066484
v -0.555318 0.191932 0.131025
v -0.338824 0.021272 0.121682
v -0.193236 0.324793 0.046822
v -0.660136 0.019200 0.045641
v -0.610494 -0.021869 0.037817
v -0.176927 0.248150 -0.031320
v -0.628963 -0.026044 0.070086
v -0.451733 0.271754 -0.539124
v -0.394862 0.197576 -0.525001
v -0.289252 0.073050 -0.323868
v -0.342551 0.151148 -0.300146
v -0.232745 0.220419 -0.083239
v -0.473401 0.192158 -0.506249
v -0.366027 0.021272 -0.262449
v -0.232844 0.324793 -0.139144
v -0.445445 0.019200 -0.677577
v -0.415772 -0.021869 -0.625041
v -0.155900 0.248150 -0.166677
v -0.452916 -0.026044 -0.627185
vn 0.9920 -0.0976 -0.0803
vn 0.5361 0.8427 -0.0486
vn 0.5838 0.7813 0.2206
vn 0.9852 -0.1483 0.0859
vn -0.0000 0.9450 -0.3272
vn 0.5064 0.7770 -0.3738
vn 0.3541 0.5977 -0.7193
vn -0.0000 0.6050 -0.7963
vn -0.0000 0.9614 0.2753
vn -0.0000 0.9999 -0.0164
vn 0.4515 -0.8878 0.0892
vn -0.0000 -0.9934 0.1144
vn -0.0000 -1.0000 -0.0067
vn 0.4592 -0.8874 -0.0411
vn 0.7617 -0.1275 0.6353
vn 0.4851 0.5649 0.6675
vn -0.0000 0.6206 0.7841
vn -0.0000 -0.0754 0.9972
vn 0.9372 -0.0714 -0.3415
vn 0.4566 -0.8569 -0.2392
vn 0.3146 -0.6219 -0.7171
vn 0.6469 0.0108 -0.7625
vn -0.0000 -0.9931 -0.1171
vn -0.0000 -0.6254 -0.7803
vn 0.3944 -0.7607 0.5155
vn -0.0000 -0.7651 0.6439
vn 0.6450 0.7626 -0.0490
vn 0.3817 0.9229 -0.0511
vn 0.4007 0.8863 0.2323
vn 0.6485 0.7420 0.1699
vn 0.1024 0.9946 -0.0140
vn 0.3229 0.8821 -0.3429
vn 0.0864 0.9324 -0.3508
vn -0.0000 0.9607 0.2774
vn 0.6011 0.7397 -0.3026
vn -0.0000 -0.9840 0.1782
vn 0.4245 -0.8759 0.2291
vn 0.9269 -0.1481 0.3447
vn 0.5208 0.7478 0.4118
vn -0.0000 0.9141 0.4054
vn 0.5390 0.7617 -0.3595
vn 0.9477 -0.1394 -0.2872
vn 0.9326 -0.1286 -0.3373
vn 0.5182 0.7651 -0.3823
vn 0.4548 -0.8689 -0.1954
vn -0.0000 -0.9933 -0.1154
vn -0.0000 -0.9949 -0.1012
vn 0.4393 -0.8712 -0.2190
vn -0.0000 0.9477 -0.3191
vn -0.0053 0.9482 -0.3176
vn -0.0088 0.9445 -0.3285
vn -0.0000 0.9438 -0.3304
vn 0.4634 -0.8595 0.2157
vn 0.9390 -0.1007 0.3289
vn 0.5357 0.7667 0.3538
vn -0.0000 0.9589 0.2837
vn -0.0000 -0.9903 0.1389
vn 0.9685 -0.2487 0.0133
vn 0.1366 -0.6801 -0.7203
vn -0.2393 0.4370 -0.8670
vn 0.5974 0.7788 -0.1913
vn 0.3075 -0.3766 0.8738
vn -0.0329 0.6880 0.7250
vn -0.9445 0.3183 0.0811
vn -0.5603 -0.7836 0.2685
vn 0.1863 0.9133 0.3621
vn 0.7815 0.0136 -0.6238
vn 0.7504 -0.5218 -0.4058
vn -0.3027 0.9241 0.2332
vn 0.0484 0.9581 0.2822
vn -0.7377 -0.1670 0.6542
vn -0.5099 -0.8367 0.2001
vn 0.2052 0.6857 0.6984
vn -0.9036 -0.4117 -0.1180
vn 0.3677 -0.6718 -0.6430
vn -0.2519 -0.8856 0.3901
vn 0.7520 0.0851 0.6536
vn 0.9346 -0.0746 -0.3478
vn -0.0834 0.0136 -0.9964
vn 0.0803 -0.5218 -0.8493
vn 0.0254 0.9241 0.3813
vn 0.2615 0.9581 0.1168
vn 0.1331 -0.1670 0.9769
vn -0.1175 -0.8367 0.5350
vn 0.6945 0.6857 0.2181
vn -0.6009 -0.4117 0.6852
vn -0.3296 -0.6718 -0.6633
vn 0.1840 -0.8856 0.4264
vn 0.9615 0.0851 -0.2611
vn 0.2311 -0.0746 -0.9701
vn -0.9659 -0.0352 -0.2566
vn -0.7380 -0.4971 -0.4563
vn 0.3714 0.9263 0.0628
vn 0.2127 0.9530 -0.2158
vn 0.9236 -0.2228 0.3120
vn 0.4385 -0.8193 0.3694
vn 0.5746 0.7188 -0.3914
vn 0.4400 -0.4561 0.7736
vn -0.7583 -0.6519 0.0068
vn 0.4752 -0.8783 0.0518
vn 0.1834 0.1028 -0.9777
vn -0.8264 -0.0713 -0.5586
vn -0.9920 -0.0976 -0.0803
vn -0.9852 -0.1483 0.0859
vn -0.5838 0.7813 0.2206
vn -0.5361 0.8427 -0.0486
vn -0.3541 0.5977 -0.7193
vn -0.5064 0.7770 -0.3738
vn -0.4515 -0.8878 0.0892
vn -0.4592 -0.8874 -0.0411
vn -0.7617 -0.1275 0.6353
vn -0.4851 0.5649 0.6675
vn -0.9372 -0.0714 -0.3415
vn -0.6469 0.0108 -0.7625
vn -0.3146 -0.6219 -0.7171
vn -0.4566 -0.8569 -0.2392
vn -0.3944 -0.7607 0.5155
vn -0.6450 0.7626 -0.0490
vn -0.6485 0.7420 0.1699
vn -0.4007 0.8863 0.2323
vn -0.3817 0.9229 -0.0511
vn -0.1024 0.9946 -0.0140
vn -0.0864 0.9324 -0.3508
vn -0.3229 0.8821 -0.3429
vn -0.6011 0.7397 -0.3026
vn -0.4245 -0.8759 0.2291
vn -0.9269 -0.1481 0.3447
vn -0.5208 0.7478 0.4118
vn -0.5390 0.7617 -0.3595
vn -0.5182 0.7651 -0.3823
vn -0.9326 -0.1286 -0.3373
vn -0.9477 -0.1394 -0.2872
vn -0.4548 -0.8689 -0.1954
vn -0.4393 -0.8712 -0.2190
vn 0.0088 0.9445 -0.3285
vn 0.0053 0.9482 -0.3176
vn -0.4634 -0.8595 0.2157
vn -0.9390 -0.1007 0.3289
vn -0.5357 0.7667 0.3538
vn -0.9685 -0.2487 0.0133
vn -0.5974 0.7788 -0.1913
vn 0.2393 0.4370 -0.8670
vn -0.1366 -0.6801 -0.7203
vn -0.3075 -0.3766 0.8738
vn 0.5603 -0.7836 0.2685
vn 0.9445 0.3183 0.0811
vn 0.0329 0.6880 0.7250
vn -0.1863 0.9133 0.3621
vn -0.7815 0.0136 -0.6238
vn -0.0484 0.9581 0.2822
vn 0.3027 0.9241 0.2332
vn -0.7504 -0.5218 -0.4058
vn 0.7377 -0.1670 0.6542
vn 0.5099 -0.8367 0.2001
vn 0.9036 -0.4117 -0.1180
vn -0.2052 0.6857 0.6984
vn 0.2519 -0.8856 0.3901
vn -0.3677 -0.6718 -0.6430
vn -0.7520 0.0851 0.6536
vn -0.9346 -0.0746 -0.3478
vn 0.0834 0.0136 -0.9964
vn -0.2615 0.9581 0.1168
vn -0.0254 0.9241 0.3813
vn -0.0803 -0.5218 -0.8493
vn -0.1331 -0.1670 0.9769
vn 0.1175 -0.8367 0.5350
vn 0.6009 -0.4117 0.6852
vn -0.6945 0.6857 0.2181
vn -0.1840 -0.8856 0.4264
vn 0.3296 -0.6718 -0.6633
vn -0.9615 0.0851 -0.2611
vn -0.2311 -0.0746 -0.9701
vn 0.9659 -0.0352 -0.2566
vn -0.2127 0.9530 -0.2158
vn -0.3714 0.9263 0.0628
vn 0.7380 -0.4971 -0.4563
vn -0.9236 -0.2228 0.3120
vn -0.4385 -0.8193 0.3694
vn -0.4400 -0.4561 0.7736
vn -0.5746 0.7188 -0.3914
vn -0.4752 -0.8783 0.0518
vn 0.7583 -0.6519 0.0068
vn -0.1834 0.1028 -0.9777
vn 0.8264 -0.0713 -0.5586
vt 0.601092 0.656235
vt 0.615915 0.656235
vt 0.616165 0.772443
vt 0.601495 0.772443
vt 0.648673 0.579288
vt 0.629211 0.579288
vt 0.632161 0.562216
vt 0.648673 0.562216
vt 0.648673 0.772443
vt 0.648673 0.656235
vt 0.616883 0.772443
vt 0.616641 0.656235
vt 0.554338 0.816094
vt 0.557155 0.816094
vt 0.563802 0.827771
vt 0.563802 0.854658
vt 0.619767 0.579288
vt 0.629673 0.579288
vt 0.633136 0.558839
vt 0.624729 0.558839
vt 0.648673 0.558839
vt 0.557293 0.816094
vt 0.563802 0.835504
vt 0.539200 0.675024
vt 0.519439 0.677535
vt 0.521081 0.545481
vt 0.534436 0.547908
vt 0.528009 0.659122
vt 0.547342 0.652732
vt 0.550130 0.832767
vt 0.544357 0.809736
vt 0.528009 0.522581
vt 0.548985 0.520677
vt 0.527363 0.820266
vt 0.522226 0.857570
vt 0.560700 0.844510
vt 0.552954 0.832133
vt 0.554193 0.882752
vt 0.560702 0.902162
vt 0.549167 0.832160
vt 0.552777 0.832133
vt 0.554055 0.882752
vt 0.551237 0.882752
vt 0.560700 0.839600
vt 0.560702 0.894429
vt 0.622957 0.615481
vt 0.610983 0.615481
vt 0.615674 0.596152
vt 0.626297 0.596151
vt 0.626297 0.789926
vt 0.615674 0.789926
vt 0.619767 0.773062
vt 0.629211 0.773062
vt 0.623543 0.615481
vt 0.648673 0.615481
vt 0.648673 0.596151
vt 0.626817 0.596151
vt 0.626817 0.789926
vt 0.648673 0.789926
vt 0.648673 0.773062
vt 0.629673 0.773062
vt 0.627685 0.532827
vt 0.625356 0.532827
vt 0.626599 0.528057
vt 0.627685 0.528057
vt 0.627685 0.575881
vt 0.626599 0.575881
vt 0.627685 0.571719
vt 0.628450 0.597214
vt 0.626121 0.587155
vt 0.628450 0.587155
vt 0.604192 0.876363
vt 0.619741 0.876363
vt 0.626644 0.835608
vt 0.614083 0.835608
vt 0.651774 0.876363
vt 0.651774 0.835608
vt 0.619016 0.876363
vt 0.626058 0.835608
vt 0.530759 0.793003
vt 0.515438 0.793126
vt 0.524896 0.928711
vt 0.536343 0.928907
vt 0.530045 0.793004
vt 0.559984 0.794980
vt 0.559931 0.943614
vt 0.535709 0.929893
vt 0.559983 0.796129
vt 0.559982 0.950754
vt 0.878464 0.526191
vt 0.881836 0.574304
vt 0.883504 0.574295
vt 0.880567 0.526174
vt 0.878464 0.526191
vt 0.880567 0.526174
vt 0.883504 0.574295
vt 0.881836 0.574304
vt 0.530493 0.813586
vt 0.539878 0.799985
vt 0.551403 0.799778
vt 0.561496 0.813028
vt 0.562122 0.844116
vt 0.552570 0.857714
vt 0.541767 0.857900
vt 0.531507 0.844646
vt 0.644274 0.596151
vt 0.639237 0.615480
vt 0.644274 0.789926
vt 0.642338 0.835608
vt 0.651774 0.876363
vt 0.529580 0.811450
vt 0.519582 0.702804
vt 0.536312 0.717533
vt 0.541070 0.842788
vt 0.542399 0.820433
vt 0.539664 0.717370
vt 0.526362 0.592174
vt 0.534076 0.561999
vt 0.529271 0.832179
vt 0.536936 0.837246
vt 0.536428 0.874019
vt 0.513003 0.553180
vt 0.529580 0.811450
vt 0.519582 0.702804
vt 0.536312 0.717533
vt 0.541070 0.842788
vt 0.542399 0.820433
vt 0.539664 0.717370
vt 0.526362 0.592174
vt 0.529271 0.832179
vt 0.536936 0.837246
vt 0.541070 0.842788
vt 0.539664 0.717370
vt 0.526362 0.592174
vt 0.534076 0.561999
vt 0.529271 0.832179
s 1
usemtl Gradient_Material.001
f 15/1/1 2/2/2 4/3/3 16/4/4
f 40/5/5 39/6/6 12/7/7 13/8/8
f 6/9/9 4/3/3 2/2/2 8/10/10
f 3/11/11 5/9/12 7/10/13 1/12/14
f 35/13/15 9/14/16 10/15/17 17/16/18
f 45/17/19 43/18/20 11/19/21 18/20/22
f 43/18/20 37/5/23 14/21/24 11/19/21
f 39/6/6 45/17/19 18/20/22 12/7/7
f 18/20/22 11/19/21 14/21/24 13/8/8 12/7/7
f 32/22/25 35/13/15 17/16/18 33/23/26
f 1/12/14 15/1/1 16/4/4 3/11/11
f 22/24/27 19/25/28 20/26/29 23/27/30
f 25/28/31 19/29/28 21/30/32 27/31/33
f 26/32/34 20/33/29 19/29/28 25/28/31
f 19/25/28 22/24/27 24/34/35 21/35/32
f 52/36/36 51/37/37 32/38/25 33/39/26
f 53/40/38 54/41/39 9/42/16 35/43/15
f 54/41/39 55/44/40 10/45/17 9/42/16
f 51/37/37 53/40/38 35/43/15 32/38/25
f 48/46/41 50/47/42 44/48/43 38/49/44
f 38/50/44 44/51/43 45/52/19 39/53/6
f 49/54/45 47/55/46 36/56/47 42/57/48
f 42/58/48 36/59/47 37/60/23 43/61/20
f 50/47/42 49/54/45 42/57/48 44/48/43
f 44/51/43 42/58/48 43/61/20 45/52/19
f 46/62/49 73/63/50 72/64/51 41/65/52
f 41/66/52 72/67/51 40/68/5
f 8/69/10 73/70/50 46/71/49
f 15/72/1 1/73/14 49/74/45 50/75/42
f 1/73/14 7/76/13 47/77/46 49/74/45
f 2/78/2 15/72/1 50/75/42 48/79/41
f 28/80/53 34/81/54 53/82/38 51/83/37
f 29/84/55 31/85/56 55/86/40 54/87/39
f 34/81/54 29/84/55 54/87/39 53/82/38
f 30/88/57 28/80/53 51/83/37 52/89/36
f 57/90/58 58/91/59 59/92/60 56/93/61
f 61/94/62 60/95/63 63/96/64 62/97/65
f 59/92/60 58/91/59 62/97/65 63/96/64
f 58/91/59 57/90/58 61/94/62 62/97/65
f 56/93/61 59/92/60 63/96/64 60/95/63
f 57/90/58 56/93/61 60/95/63 61/94/62
f 66/98/66 67/99/66 65/100/66 64/101/66 71/102/66 70/103/66 68/104/66 69/105/66
f 72/106/51 73/107/50 48/46/41 38/49/44
f 40/60/5 72/108/51 38/50/44 39/53/6
f 73/109/50 8/110/10 2/78/2 48/79/41
f 75/111/67 76/112/68 77/113/69 74/114/70
f 79/115/71 74/114/70 77/113/69 80/116/72
f 80/116/72 77/113/69 81/117/73 78/118/74
f 76/112/68 75/111/67 79/115/71 80/116/72
f 79/115/71 75/111/67 83/119/75 85/120/76
f 83/119/75 82/121/77 85/120/76
f 74/114/70 79/115/71 85/120/76 82/121/77
f 75/111/67 74/114/70 82/121/77 83/119/75
f 76/112/68 80/116/72 78/118/74 84/122/78
f 77/113/69 76/112/68 84/122/78 81/117/73
f 87/123/79 88/124/80 89/125/81 86/126/82
f 91/127/83 86/126/82 89/125/81 92/128/84
f 92/128/84 89/125/81 93/129/85 90/118/86
f 88/124/80 87/123/79 91/127/83 92/128/84
f 91/127/83 87/123/79 95/130/87 97/131/88
f 95/130/87 94/121/89 97/131/88
f 86/126/82 91/127/83 97/131/88 94/121/89
f 87/123/79 86/126/82 94/121/89 95/130/87
f 88/124/80 92/128/84 90/118/86 96/122/90
f 89/125/81 88/124/80 96/122/90 93/129/85
f 99/111/91 100/112/92 101/113/93 98/132/94
f 103/115/95 98/132/94 101/113/93 104/133/96
f 104/133/96 101/113/93 105/134/97 102/135/98
f 100/112/92 99/111/91 103/115/95 104/133/96
f 103/115/95 99/111/91 107/136/99 109/131/100
f 107/136/99 106/121/101 109/131/100
f 98/132/94 103/115/95 109/131/100 106/121/101
f 99/111/91 98/132/94 106/121/101 107/136/99
f 100/112/92 104/133/96 102/135/98 108/122/102
f 101/113/93 100/112/92 108/122/102 105/134/97
f 117/1/103 118/4/104 113/3/105 111/2/106
f 40/5/5 13/8/8 116/7/107 134/6/108
f 6/9/9 8/10/10 111/2/106 113/3/105
f 112/11/109 110/12/110 7/10/13 5/9/12
f 132/13/111 17/16/18 10/15/17 114/14/112
f 138/17/113 119/20/114 115/19/115 136/18/116
f 136/18/116 115/19/115 14/21/24 37/5/23
f 134/6/108 116/7/107 119/20/114 138/17/113
f 119/20/114 116/7/107 13/8/8 14/21/24 115/19/115
f 130/22/117 33/23/26 17/16/18 132/13/111
f 110/12/110 112/11/109 118/4/104 117/1/103
f 123/24/118 124/27/119 121/26/120 120/25/121
f 126/28/122 127/31/123 122/30/124 120/29/121
f 26/32/34 126/28/122 120/29/121 121/33/120
f 120/25/121 122/35/124 125/34/125 123/24/118
f 52/36/36 33/39/26 130/38/117 142/37/126
f 143/40/127 132/43/111 114/42/112 144/41/128
f 144/41/128 114/42/112 10/45/17 55/44/40
f 142/37/126 130/38/117 132/43/111 143/40/127
f 139/46/129 133/49/130 137/48/131 141/47/132
f 133/50/130 134/53/108 138/52/113 137/51/131
f 140/54/133 135/57/134 36/56/47 47/55/46
f 135/58/134 136/61/116 37/60/23 36/59/47
f 141/47/132 137/48/131 135/57/134 140/54/133
f 137/51/131 138/52/113 136/61/116 135/58/134
f 46/62/49 41/65/52 161/64/135 162/63/136
f 41/66/52 40/68/5 161/67/135
f 8/69/10 46/71/49 162/70/136
f 117/72/103 141/75/132 140/74/133 110/73/110
f 110/73/110 140/74/133 47/77/46 7/76/13
f 111/78/106 139/79/129 141/75/132 117/72/103
f 128/80/137 142/83/126 143/82/127 131/81/138
f 129/84/139 144/87/128 55/86/40 31/85/56
f 131/81/138 143/82/127 144/87/128 129/84/139
f 30/88/57 52/89/36 142/83/126 128/80/137
f 146/90/140 145/93/141 148/92/142 147/91/143
f 150/94/144 151/97/145 152/96/146 149/95/147
f 148/92/142 152/96/146 151/97/145 147/91/143
f 147/91/143 151/97/145 150/94/144 146/90/140
f 145/93/141 149/95/147 152/96/146 148/92/142
f 146/90/140 150/94/144 149/95/147 145/93/141
f 155/98/148 158/105/148 157/104/148 159/103/148 160/102/148 153/101/148 154/100/148 156/99/148
f 161/106/135 133/49/130 139/46/129 162/107/136
f 40/60/5 134/53/108 133/50/130 161/108/135
f 162/109/136 139/79/129 111/78/106 8/110/10
f 164/111/149 163/114/150 166/113/151 165/112/152
f 168/115/153 169/116/154 166/113/151 163/114/150
f 169/116/154 167/118/155 170/117/156 166/113/151
f 165/112/152 169/116/154 168/115/153 164/111/149
f 168/115/153 174/120/157 172/119/158 164/111/149
f 172/119/158 174/120/157 171/121/159
f 163/114/150 171/121/159 174/120/157 168/115/153
f 164/111/149 172/119/158 171/121/159 163/114/150
f 165/112/152 173/122/160 167/118/155 169/116/154
f 166/113/151 170/117/156 173/122/160 165/112/152
f 176/123/161 175/126/162 178/125/163 177/124/164
f 180/127/165 181/128/166 178/125/163 175/126/162
f 181/128/166 179/118/167 182/129/168 178/125/163
f 177/124/164 181/128/166 180/127/165 176/123/161
f 180/127/165 186/131/169 184/130/170 176/123/161
f 184/130/170 186/131/169 183/121/171
f 175/126/162 183/121/171 186/131/169 180/127/165
f 176/123/161 184/130/170 183/121/171 175/126/162
f 177/124/164 185/122/172 179/118/167 181/128/166
f 178/125/163 182/129/168 185/122/172 177/124/164
f 188/111/173 187/132/174 190/113/175 189/112/176
f 192/115/177 193/133/178 190/113/175 187/132/174
f 193/133/178 191/135/179 194/134/180 190/113/175
f 189/112/176 193/133/178 192/115/177 188/111/173
f 192/115/177 198/131/181 196/136/182 188/111/173
f 196/136/182 198/131/181 195/121/183
f 187/132/174 195/121/183 198/131/181 192/115/177
f 188/111/173 196/136/182 195/121/183 187/132/174
f 189/112/176 197/122/184 191/135/179 193/133/178
f 190/113/175 194/134/180 197/122/184 189/112/176
