# Blender 4.5.5 LTS
# www.blender.org
mtllib Animal_Dragonfly.mtl
o Dragonfly
v 0.090398 0.120432 -0.306227
v 0.090398 0.151410 -0.321210
v 0.090398 0.157001 -0.306016
v 0.090398 0.126154 -0.276666
v 0.099992 0.155854 -0.326277
v 0.085991 0.159613 -0.317703
v 0.099992 0.163419 -0.303956
v 0.085991 0.142470 -0.298156
v 0.099992 0.121710 -0.271598
v 0.085991 0.117773 -0.299713
v 0.099992 0.114014 -0.308287
v 0.085991 0.134905 -0.320477
v 0.099992 0.133637 -0.325060
v 0.099992 0.166596 -0.319636
v 0.099992 0.143738 -0.293574
v 0.099992 0.110790 -0.297779
v 0.080325 0.138664 -0.311903
v 0.099992 0.146429 -0.291991
v 0.066991 0.135941 -0.305287
v 0.093078 0.129879 -0.305232
v 0.075754 0.173672 -0.302930
v 0.099992 0.167610 -0.302874
v 0.074978 0.170538 -0.280736
v 0.099992 0.164475 -0.280681
v 0.066991 0.136185 -0.278506
v 0.093078 0.130123 -0.278451
v 0.092194 0.176764 -0.307645
v 0.066807 0.155812 -0.310156
v 0.091418 0.173715 -0.276078
v 0.072722 0.181429 -0.292311
v 0.099992 0.147958 -0.273927
v 0.078501 0.126598 -0.273732
v 0.066807 0.156142 -0.274001
v 0.096109 0.122341 -0.291771
v 0.060892 0.130525 -0.291846
v 0.078501 0.126268 -0.309886
v 0.099992 0.147628 -0.310081
v 0.084416 0.151665 -0.316144
v 0.099992 0.183081 -0.292326
v 0.084416 0.152105 -0.267938
v 0.076529 0.117949 -0.291731
v 0.060937 0.157341 -0.292091
v 0.084855 0.157136 -0.029765
v 0.084855 0.136220 -0.030773
v 0.099992 0.125762 -0.031277
v 0.099992 0.167594 -0.029262
v 0.087802 0.145010 0.186537
v 0.087802 0.127493 0.185693
v 0.099992 0.118734 0.185271
v 0.099992 0.153769 0.186959
v 0.091802 0.139879 0.245030
v 0.091802 0.126976 0.244409
v 0.099992 0.120525 0.244098
v 0.099992 0.146331 0.245341
v 0.099992 0.132805 0.257644
v 0.099992 0.168268 -0.083656
v 0.092590 0.162269 -0.083939
v 0.099992 0.144276 -0.084806
v 0.092590 0.150274 -0.084517
v 0.099992 0.173440 -0.135075
v 0.078086 0.161301 -0.135307
v 0.099992 0.126225 -0.136364
v 0.078086 0.137789 -0.136025
v 0.099992 0.172524 -0.165613
v 0.085338 0.162231 -0.165787
v 0.099992 0.131907 -0.166086
v 0.085338 0.141864 -0.165877
v 0.099992 0.175137 -0.174687
v 0.067781 0.159586 -0.174873
v 0.099992 0.113544 -0.175104
v 0.067781 0.128776 -0.174902
v 0.099992 0.185466 -0.207448
v 0.067781 0.165103 -0.207493
v 0.099992 0.104158 -0.207561
v 0.067781 0.124448 -0.207522
v 0.099992 0.176352 -0.249347
v 0.067781 0.160035 -0.249345
v 0.099992 0.111113 -0.249380
v 0.067781 0.127420 -0.249368
v 0.099992 0.173650 -0.275621
v 0.084300 0.162878 -0.275536
v 0.099992 0.130550 -0.275549
v 0.084300 0.141302 -0.275536
v 0.091397 0.151100 -0.277524
v 0.062136 0.097835 -0.276760
v 0.085188 0.155337 -0.277553
v 0.055927 0.102074 -0.276777
v 0.085188 0.155380 -0.270033
v 0.053747 0.098905 -0.270311
v 0.091397 0.151135 -0.270006
v 0.059956 0.094659 -0.270295
v 0.056567 0.076981 -0.318270
v 0.058747 0.080138 -0.324737
v 0.050358 0.081226 -0.318286
v 0.052538 0.084383 -0.324753
v 0.064332 0.061865 -0.342011
v 0.065133 0.063033 -0.342755
v 0.063012 0.062768 -0.342014
v 0.063812 0.063936 -0.342758
v 0.091397 0.150915 -0.201863
v 0.062136 0.096612 -0.201282
v 0.085188 0.155182 -0.201861
v 0.055927 0.100846 -0.201281
v 0.085188 0.155172 -0.194340
v 0.053747 0.097603 -0.194824
v 0.091397 0.150902 -0.194341
v 0.059956 0.093371 -0.194826
v 0.037973 0.058860 -0.242863
v 0.040153 0.062043 -0.249316
v 0.031764 0.063104 -0.242862
v 0.033944 0.066288 -0.249316
v 0.038708 0.043811 -0.266659
v 0.039508 0.044982 -0.267398
v 0.037387 0.044715 -0.266659
v 0.038188 0.045885 -0.267398
v 0.088873 0.147491 -0.175270
v 0.058764 0.089461 -0.143057
v 0.082664 0.151711 -0.175214
v 0.052555 0.093712 -0.143037
v 0.084550 0.154374 -0.168445
v 0.052221 0.093138 -0.135524
v 0.090760 0.150111 -0.168492
v 0.058430 0.088892 -0.135544
v 0.026799 0.040214 -0.160486
v 0.027133 0.040717 -0.167976
v 0.020590 0.044453 -0.160469
v 0.020924 0.044960 -0.167962
v 0.022270 0.017501 -0.176514
v 0.022802 0.018282 -0.177805
v 0.020950 0.018404 -0.176512
v 0.021481 0.019185 -0.177802
v -0.053493 0.188022 -0.263260
v -0.113838 0.207209 -0.269708
v -0.077442 0.188224 -0.164995
v -0.149785 0.212335 -0.187390
v -0.208096 0.238653 -0.299616
v -0.212983 0.233984 -0.214948
v -0.267341 0.256422 -0.290916
v -0.256785 0.250085 -0.249053
v 0.020059 0.164230 -0.248744
v 0.001349 0.164221 -0.171215
v 0.060309 0.150293 -0.226579
v 0.052751 0.149205 -0.182778
v 0.077403 0.142314 -0.194326
v -0.084465 0.184403 -0.139090
v -0.134693 0.197348 -0.134916
v -0.084465 0.184403 -0.015504
v -0.133215 0.196968 -0.022995
v -0.215995 0.218303 -0.121647
v -0.187169 0.210874 -0.028800
v -0.274384 0.233352 -0.079353
v -0.249993 0.227066 -0.046215
v 0.002010 0.162115 -0.165627
v 0.033792 0.153924 -0.037895
v 0.042936 0.151567 -0.177521
v 0.071022 0.144328 -0.087937
v 0.062228 0.146595 -0.185136
v 0.070358 0.144499 -0.157749
v 0.109587 0.120432 -0.306227
v 0.109587 0.151410 -0.321210
v 0.109587 0.157001 -0.306016
v 0.109587 0.126154 -0.276666
v 0.113994 0.159613 -0.317703
v 0.113994 0.142470 -0.298156
v 0.113994 0.117773 -0.299713
v 0.113994 0.134905 -0.320477
v 0.119660 0.138664 -0.311903
v 0.132994 0.135941 -0.305287
v 0.106907 0.129879 -0.305232
v 0.124231 0.173672 -0.302930
v 0.125006 0.170538 -0.280736
v 0.132994 0.136185 -0.278506
v 0.106907 0.130123 -0.278451
v 0.107791 0.176764 -0.307645
v 0.133178 0.155812 -0.310156
v 0.108566 0.173715 -0.276078
v 0.127263 0.181429 -0.292311
v 0.121484 0.126598 -0.273732
v 0.133178 0.156142 -0.274001
v 0.103875 0.122341 -0.291771
v 0.139093 0.130525 -0.291846
v 0.121484 0.126268 -0.309886
v 0.115569 0.151665 -0.316144
v 0.115569 0.152105 -0.267938
v 0.123456 0.117949 -0.291731
v 0.139047 0.157341 -0.292091
v 0.115130 0.157136 -0.029765
v 0.115130 0.136220 -0.030773
v 0.112183 0.145010 0.186537
v 0.112183 0.127493 0.185693
v 0.108182 0.139879 0.245030
v 0.108182 0.126976 0.244409
v 0.107395 0.162269 -0.083939
v 0.107395 0.150274 -0.084517
v 0.121899 0.161301 -0.135307
v 0.121899 0.137789 -0.136025
v 0.114647 0.162231 -0.165787
v 0.114647 0.141864 -0.165877
v 0.132203 0.159586 -0.174873
v 0.132203 0.128776 -0.174902
v 0.132203 0.165103 -0.207493
v 0.132203 0.124448 -0.207522
v 0.132203 0.160035 -0.249345
v 0.132203 0.127420 -0.249368
v 0.115685 0.162878 -0.275536
v 0.115685 0.141302 -0.275536
v 0.108588 0.151100 -0.277524
v 0.137849 0.097835 -0.276760
v 0.114797 0.155337 -0.277553
v 0.144058 0.102074 -0.276777
v 0.114797 0.155380 -0.270033
v 0.146238 0.098905 -0.270311
v 0.108588 0.151135 -0.270006
v 0.140029 0.094659 -0.270295
v 0.143418 0.076981 -0.318270
v 0.141238 0.080138 -0.324737
v 0.149627 0.081226 -0.318286
v 0.147447 0.084383 -0.324753
v 0.135653 0.061865 -0.342011
v 0.134852 0.063033 -0.342755
v 0.136973 0.062768 -0.342014
v 0.136173 0.063936 -0.342758
v 0.108588 0.150915 -0.201863
v 0.137849 0.096612 -0.201282
v 0.114797 0.155182 -0.201861
v 0.144058 0.100846 -0.201281
v 0.114797 0.155172 -0.194340
v 0.146238 0.097603 -0.194824
v 0.108588 0.150902 -0.194341
v 0.140029 0.093371 -0.194826
v 0.162012 0.058860 -0.242863
v 0.159832 0.062043 -0.249316
v 0.168221 0.063104 -0.242862
v 0.166041 0.066288 -0.249316
v 0.161277 0.043811 -0.266659
v 0.160476 0.044982 -0.267398
v 0.162597 0.044715 -0.266659
v 0.161797 0.045885 -0.267398
v 0.111112 0.147491 -0.175270
v 0.141221 0.089461 -0.143057
v 0.117321 0.151711 -0.175214
v 0.147430 0.093712 -0.143037
v 0.115434 0.154374 -0.168445
v 0.147764 0.093138 -0.135524
v 0.109225 0.150111 -0.168492
v 0.141555 0.088892 -0.135544
v 0.173186 0.040214 -0.160486
v 0.172852 0.040717 -0.167976
v 0.179395 0.044453 -0.160469
v 0.179061 0.044960 -0.167962
v 0.177715 0.017501 -0.176514
v 0.177183 0.018282 -0.177805
v 0.179035 0.018404 -0.176512
v 0.178503 0.019185 -0.177802
v 0.254288 0.192271 -0.263259
v 0.312757 0.214113 -0.269706
v 0.277851 0.193641 -0.164994
v 0.347894 0.220918 -0.187389
v 0.404015 0.249683 -0.299615
v 0.409054 0.245325 -0.214947
v 0.461473 0.270075 -0.290914
v 0.451390 0.263320 -0.249051
v 0.183045 0.165251 -0.248744
v 0.201457 0.166154 -0.171215
v 0.144109 0.149562 -0.226579
v 0.151592 0.148858 -0.182778
v 0.127655 0.140865 -0.194326
v 0.283086 0.191957 -0.139090
v 0.331902 0.207160 -0.134916
v 0.283086 0.191957 -0.015504
v 0.330466 0.206712 -0.022995
v 0.410919 0.231768 -0.121647
v 0.382904 0.223043 -0.028800
v 0.467668 0.249442 -0.079353
v 0.443963 0.242059 -0.046215
v 0.199041 0.165782 -0.165627
v 0.168153 0.156163 -0.037895
v 0.159266 0.153395 -0.177521
v 0.131969 0.144894 -0.087937
v 0.140516 0.147556 -0.185136
v 0.132614 0.145095 -0.157749
v 0.084180 0.145520 -0.223538
v 0.123828 0.145805 -0.224063
vn -0.4333 -0.7388 -0.5161
vn -0.5441 -0.6690 -0.5063
vn -0.6010 -0.3096 -0.7369
vn -0.4119 -0.3385 -0.8460
vn -0.5330 0.1298 -0.8361
vn -0.4088 0.2093 -0.8883
vn -0.7709 0.5698 -0.2846
vn -0.5616 0.7563 -0.3356
vn -0.6209 0.5961 0.5091
vn -0.4604 0.7206 0.5184
vn 0.3090 -0.0128 -0.9510
vn 0.3491 0.3781 -0.8574
vn 0.4004 0.8813 0.2509
vn 0.3090 0.4781 0.8222
vn 0.1371 0.7359 0.6631
vn 0.4095 -0.8364 0.3645
vn 0.3817 -0.8386 -0.3886
vn 0.3238 -0.6593 -0.6786
vn -0.7532 0.3723 0.5423
vn -0.2723 0.6204 0.7355
vn -0.6780 0.0297 0.7345
vn -0.5743 -0.2445 0.7812
vn -0.8034 -0.5954 0.0052
vn -0.5115 -0.8592 0.0069
vn -0.9807 -0.0374 -0.1921
vn -0.7196 -0.2758 -0.6373
vn -0.6556 0.1849 -0.7321
vn 0.0231 0.0501 -0.9985
vn -0.1318 -0.5940 -0.7936
vn 0.9176 -0.0030 -0.3975
vn 0.5304 -0.5789 -0.6193
vn 0.0826 0.6237 -0.7773
vn 0.7477 0.2183 -0.6271
vn -0.4692 0.5981 -0.6497
vn -0.5502 0.8332 0.0549
vn 0.3085 0.9250 0.2217
vn -0.4596 0.6056 0.6496
vn 0.1138 0.6647 0.7384
vn -0.6653 0.1891 0.7222
vn 0.0153 0.0531 0.9985
vn 0.6906 -0.1762 0.7015
vn 0.8486 -0.1187 0.5156
vn -0.1319 -0.5794 0.8043
vn 0.5382 -0.5783 0.6132
vn -0.7196 -0.2641 0.6422
vn -0.9135 -0.4068 0.0037
vn -0.2264 -0.9740 0.0089
vn 0.6228 -0.7823 -0.0037
vn -0.9740 0.2264 -0.0021
vn -0.8952 0.4452 -0.0222
vn -0.8783 -0.4627 -0.1201
vn -0.8897 -0.4560 0.0233
vn -0.8897 0.4516 0.0671
vn -0.5791 -0.8022 -0.1455
vn -0.5865 -0.8100 0.0011
vn -0.5828 0.8121 0.0271
vn -0.5865 0.8061 0.0790
vn -0.8383 -0.4421 0.3192
vn -0.8383 0.4093 0.3602
vn -0.5770 -0.7714 0.2682
vn -0.5770 0.7421 0.3411
vn -0.7335 -0.0327 0.6789
vn -0.5582 0.8279 0.0552
vn -0.8583 0.5084 0.0690
vn -0.8988 -0.4348 0.0561
vn -0.5526 -0.8331 0.0235
vn -0.5249 0.8509 0.0230
vn -0.8928 0.4497 0.0265
vn -0.8634 -0.5030 0.0392
vn -0.5086 -0.8596 0.0492
vn -0.4946 0.8467 0.1962
vn -0.7265 0.6059 0.3242
vn -0.7332 -0.4121 0.5409
vn -0.4209 -0.7459 0.5162
vn -0.4629 0.8308 0.3091
vn -0.7919 0.3909 0.4692
vn -0.7452 -0.4203 0.5177
vn -0.4055 -0.7473 0.5263
vn -0.4910 0.8707 0.0284
vn -0.8439 0.5361 0.0200
vn -0.8488 -0.5281 0.0251
vn -0.4880 -0.8721 0.0367
vn -0.4882 0.8601 -0.1482
vn -0.8641 0.4360 -0.2514
vn -0.8184 -0.4759 -0.3221
vn -0.4668 -0.8232 -0.3231
vn 0.4479 0.8065 0.3860
vn 0.6103 -0.1626 -0.7753
vn 0.4848 -0.8273 -0.2838
vn 0.4198 -0.8539 0.3077
vn 0.4514 -0.8697 -0.1995
vn 0.1932 -0.4285 0.8826
vn 0.4435 -0.8762 0.1886
vn 0.4596 -0.8824 -0.1006
vn 0.3693 -0.7283 -0.5772
vn 0.4125 -0.9003 0.1388
vn 0.0297 -0.9547 0.2962
vn 0.4572 0.8771 -0.1469
vn 0.4413 0.8717 0.2128
vn 0.4003 0.8298 0.3889
vn 0.4577 0.8868 -0.0636
vn 0.4489 0.8888 0.0924
vn 0.5008 0.8655 0.0118
vn 0.5009 0.8636 0.0574
vn 0.4995 0.8591 0.1117
vn 0.3761 0.6224 0.6864
vn 0.3726 -0.6870 0.6239
vn 0.4970 -0.8673 0.0285
vn 0.4989 -0.8663 -0.0260
vn 0.6027 -0.3440 -0.7201
vn 0.9307 -0.1312 -0.3414
vn -0.6245 0.6163 -0.4798
vn -0.6312 0.3392 -0.6975
vn -0.7726 -0.0760 0.6303
vn -0.6466 0.3541 0.6757
vn 0.2446 -0.6963 0.6747
vn 0.5883 -0.3289 0.7387
vn 0.7674 -0.0039 -0.6412
vn 0.3717 -0.8890 -0.2674
vn -0.7364 -0.5936 -0.3247
vn -0.2022 0.2666 -0.9423
vn 0.2475 -0.8832 0.3984
vn 0.8859 0.4371 -0.1553
vn -0.9661 -0.2553 0.0395
vn -0.3994 0.6850 -0.6093
vn 0.6022 -0.3348 -0.7247
vn 0.8416 -0.2159 -0.4950
vn -0.5648 0.6085 -0.5574
vn -0.6362 0.3379 -0.6936
vn -0.7054 0.0515 0.7069
vn -0.6519 0.3478 0.6739
vn 0.3534 -0.6100 0.7092
vn 0.5899 -0.3262 0.7387
vn 0.7003 -0.1276 -0.7023
vn 0.2150 -0.9475 -0.2367
vn -0.8031 -0.5346 -0.2630
vn -0.3032 0.2707 -0.9137
vn 0.2149 -0.8491 0.4826
vn 0.9036 0.2107 -0.3730
vn -0.9470 -0.1543 0.2818
vn -0.4424 0.6673 -0.5992
vn 0.4172 -0.5986 -0.6838
vn 0.6997 -0.4181 -0.5794
vn -0.7150 0.3897 -0.5804
vn -0.8040 0.0942 -0.5871
vn -0.5071 0.3378 0.7929
vn -0.4791 0.5966 0.6439
vn 0.5503 -0.3275 0.7681
vn 0.7736 -0.0670 0.6302
vn 0.5070 -0.4083 -0.7591
vn 0.1949 -0.9776 0.0793
vn -0.8163 -0.5548 0.1608
vn -0.5356 -0.0669 -0.8418
vn 0.3710 -0.6231 0.6886
vn 0.7697 0.0164 -0.6382
vn -0.8370 0.0040 0.5472
vn -0.6110 0.4225 -0.6695
vn 0.2954 0.9528 0.0703
vn 0.2957 0.9527 0.0699
vn 0.2957 0.9527 0.0698
vn 0.2954 0.9528 0.0702
vn 0.2959 0.9527 0.0697
vn 0.2960 0.9527 0.0696
vn 0.2943 0.9531 0.0711
vn 0.2941 0.9531 0.0712
vn 0.2784 0.9568 0.0834
vn 0.2732 0.9580 0.0875
vn 0.1749 0.9794 0.1005
vn 0.1027 0.9913 0.0818
vn 0.2496 0.9684 -0.0000
vn 0.6582 -0.3574 -0.6626
vn 0.6882 0.0072 -0.7255
vn 0.6010 -0.3096 -0.7369
vn 0.5441 -0.6690 -0.5063
vn 0.6232 0.4982 -0.6029
vn 0.5330 0.1298 -0.8361
vn 0.8186 0.5743 -0.0099
vn 0.7709 0.5698 -0.2846
vn 0.7892 0.3538 0.5021
vn 0.6209 0.5961 0.5091
vn 0.6622 0.5162 0.5431
vn 0.7532 0.3723 0.5423
vn 0.8724 -0.2961 0.3888
vn 0.6780 0.0297 0.7345
vn 0.8220 -0.5659 -0.0636
vn 0.8034 -0.5954 0.0052
vn 0.9807 -0.0374 -0.1921
vn 0.7196 -0.2758 -0.6373
vn 0.1318 -0.5940 -0.7936
vn -0.0231 0.0501 -0.9985
vn 0.6556 0.1849 -0.7321
vn -0.5305 -0.5789 -0.6193
vn -0.7406 0.1093 -0.6630
vn -0.8625 -0.1461 -0.4846
vn -0.0826 0.6237 -0.7773
vn 0.4692 0.5981 -0.6497
vn -0.3085 0.9250 0.2217
vn 0.5502 0.8332 0.0549
vn -0.1138 0.6647 0.7384
vn 0.4596 0.6056 0.6496
vn -0.0153 0.0531 0.9985
vn 0.6653 0.1891 0.7222
vn -0.7436 0.2386 0.6246
vn -0.7335 0.1096 0.6709
vn -0.5382 -0.5782 0.6132
vn 0.1318 -0.5794 0.8043
vn 0.7196 -0.2642 0.6422
vn 0.2264 -0.9740 0.0089
vn 0.9135 -0.4068 0.0037
vn -0.6229 -0.7823 -0.0037
vn 0.9740 0.2264 -0.0021
vn 0.8952 0.4452 -0.0222
vn 0.8897 0.4516 0.0671
vn 0.8897 -0.4560 0.0233
vn 0.8783 -0.4627 -0.1201
vn 0.7532 -0.6136 -0.2371
vn 0.7792 -0.5434 -0.3124
vn 0.7541 0.6066 0.2516
vn 0.7530 0.5867 0.2979
vn 0.8383 0.4093 0.3602
vn 0.8383 -0.4421 0.3192
vn 0.8113 -0.5845 0.0150
vn 0.8449 0.3844 0.3721
vn 0.8748 -0.2468 0.4168
vn 0.8583 0.5084 0.0690
vn 0.7213 0.6290 0.2900
vn 0.6875 -0.6809 -0.2522
vn 0.8988 -0.4348 0.0561
vn 0.8928 0.4497 0.0265
vn 0.7202 0.6426 0.2616
vn 0.7265 -0.6549 -0.2081
vn 0.8634 -0.5030 0.0392
vn 0.7265 0.6059 0.3242
vn 0.6164 0.6445 0.4524
vn 0.4987 -0.8466 0.1860
vn 0.7332 -0.4121 0.5409
vn 0.7919 0.3909 0.4692
vn 0.6210 0.5704 0.5376
vn 0.6384 -0.7508 0.1694
vn 0.7452 -0.4203 0.5177
vn 0.8439 0.5361 0.0200
vn 0.7270 0.6334 0.2649
vn 0.7105 -0.6689 -0.2186
vn 0.8488 -0.5281 0.0251
vn 0.8641 0.4360 -0.2514
vn 0.6845 0.7210 0.1076
vn 0.7385 -0.5204 -0.4286
vn 0.8184 -0.4759 -0.3221
vn -0.6064 -0.1645 -0.7779
vn 0.0246 0.9441 -0.3288
vn -0.9438 0.2453 0.2216
vn -0.9447 0.2489 0.2134
vn -0.9391 0.3432 -0.0148
vn -0.9494 0.1714 -0.2633
vn -0.9138 -0.2479 -0.3217
vn -0.9333 -0.2264 -0.2789
vn -0.9340 -0.2449 -0.2600
vn -0.9337 -0.2213 -0.2816
vn -0.9268 -0.2626 -0.2684
vn -0.9267 -0.1436 -0.3473
vn -0.9168 -0.1300 -0.3775
vn -0.9260 -0.2908 -0.2406
vn -0.9298 -0.2973 -0.2169
vn -0.0313 -0.9547 0.2960
vn 0.0602 -0.4107 -0.9098
vn -0.9304 0.2374 0.2793
vn -0.9388 0.2991 0.1711
vn -0.9307 0.3622 -0.0505
vn -0.9024 0.2064 0.3784
vn -0.9378 0.3060 0.1640
vn -0.9350 0.1931 0.2975
vn -0.6027 -0.3440 -0.7201
vn 0.6312 0.3392 -0.6975
vn 0.6245 0.6163 -0.4798
vn -0.9307 -0.1312 -0.3414
vn 0.6466 0.3541 0.6757
vn 0.7726 -0.0760 0.6303
vn -0.5883 -0.3289 0.7387
vn -0.2446 -0.6963 0.6747
vn -0.7674 -0.0039 -0.6412
vn 0.2022 0.2666 -0.9423
vn 0.7364 -0.5936 -0.3247
vn -0.3717 -0.8890 -0.2674
vn -0.8859 0.4371 -0.1553
vn -0.2475 -0.8832 0.3984
vn 0.9661 -0.2549 0.0395
vn 0.3994 0.6850 -0.6093
vn -0.6022 -0.3348 -0.7247
vn 0.6362 0.3379 -0.6936
vn 0.5648 0.6085 -0.5574
vn -0.8416 -0.2159 -0.4950
vn 0.6519 0.3478 0.6739
vn 0.7054 0.0515 0.7069
vn -0.5899 -0.3262 0.7387
vn -0.3534 -0.6100 0.7092
vn -0.7003 -0.1276 -0.7023
vn 0.3032 0.2707 -0.9137
vn 0.8031 -0.5346 -0.2630
vn -0.2150 -0.9475 -0.2367
vn -0.9036 0.2107 -0.3730
vn -0.2149 -0.8491 0.4826
vn 0.9470 -0.1543 0.2818
vn 0.4424 0.6673 -0.5992
vn -0.4172 -0.5986 -0.6838
vn 0.8040 0.0942 -0.5871
vn 0.7150 0.3897 -0.5804
vn -0.6997 -0.4181 -0.5794
vn 0.4791 0.5966 0.6439
vn 0.5071 0.3378 0.7929
vn -0.7736 -0.0670 0.6302
vn -0.5503 -0.3275 0.7681
vn -0.5070 -0.4083 -0.7591
vn 0.5356 -0.0669 -0.8418
vn 0.8163 -0.5548 0.1608
vn -0.1949 -0.9776 0.0793
vn -0.7697 0.0164 -0.6382
vn -0.3710 -0.6231 0.6886
vn 0.8370 0.0040 0.5472
vn 0.6110 0.4225 -0.6695
vn -0.3423 0.9370 0.0693
vn -0.3424 0.9370 0.0692
vn -0.3427 0.9369 0.0688
vn -0.3427 0.9369 0.0689
vn -0.3428 0.9369 0.0687
vn -0.3429 0.9369 0.0686
vn -0.3411 0.9374 0.0702
vn -0.3412 0.9374 0.0701
vn -0.3113 0.9459 0.0916
vn -0.3189 0.9439 0.0862
vn -0.2422 0.9523 0.1859
vn -0.2694 0.9553 0.1214
vn -0.2973 0.9548 -0.0000
vt 0.849881 0.803851
vt 0.850050 0.804364
vt 0.848919 0.805534
vt 0.848551 0.805435
vt 0.848873 0.806856
vt 0.848470 0.807216
vt 0.849160 0.807511
vt 0.849010 0.808072
vt 0.850094 0.807293
vt 0.850264 0.807806
vt 0.851081 0.806222
vt 0.852826 0.804441
vt 0.850720 0.803585
vt 0.850713 0.806123
vt 0.852423 0.804800
vt 0.850570 0.804146
vt 0.849609 0.805828
vt 0.852027 0.553849
vt 0.851652 0.555445
vt 0.851169 0.555117
vt 0.851652 0.553077
vt 0.851652 0.554789
vt 0.852027 0.553363
vt 0.851868 0.557121
vt 0.852244 0.556385
vt 0.852244 0.556870
vt 0.853100 0.557484
vt 0.853100 0.557616
vt 0.854019 0.556603
vt 0.854395 0.556854
vt 0.854548 0.555445
vt 0.855031 0.555117
vt 0.854548 0.554789
vt 0.854019 0.556117
vt 0.854548 0.553077
vt 0.854173 0.553363
vt 0.854173 0.553849
vt 0.853100 0.553405
vt 0.853100 0.552398
vt 0.853100 0.552750
vt 0.853100 0.555554
vt 0.872181 0.807712
vt 0.872181 0.806034
vt 0.889538 0.806171
vt 0.889538 0.807576
vt 0.872181 0.805195
vt 0.889538 0.805468
vt 0.872181 0.808551
vt 0.889538 0.808278
vt 0.894239 0.806356
vt 0.894239 0.807391
vt 0.894239 0.805838
vt 0.894239 0.807908
vt 0.895276 0.806873
vt 0.867826 0.808395
vt 0.867826 0.807914
vt 0.867826 0.806952
vt 0.867826 0.806471
vt 0.863733 0.808618
vt 0.863733 0.807677
vt 0.863733 0.805795
vt 0.863733 0.804854
vt 0.861317 0.808506
vt 0.861317 0.807690
vt 0.861317 0.806057
vt 0.861317 0.805240
vt 0.860592 0.808713
vt 0.860592 0.807479
vt 0.860592 0.805011
vt 0.860592 0.803777
vt 0.857979 0.809548
vt 0.857979 0.807919
vt 0.857979 0.804662
vt 0.857979 0.803033
vt 0.854626 0.808818
vt 0.854626 0.807511
vt 0.854626 0.804898
vt 0.854626 0.803591
vt 0.852529 0.808602
vt 0.852529 0.807738
vt 0.852529 0.805144
vt 0.852529 0.806009
vt 0.943428 0.258434
vt 0.943541 0.247230
vt 0.943541 0.248134
vt 0.943428 0.259337
vt 0.944915 0.247455
vt 0.945029 0.259337
vt 0.944915 0.246551
vt 0.945029 0.258434
vt 0.929467 0.239895
vt 0.929625 0.239646
vt 0.929625 0.239838
vt 0.929467 0.240088
vt 0.934690 0.242843
vt 0.933316 0.243522
vt 0.934690 0.243747
vt 0.933316 0.244426
vt 0.959527 0.258434
vt 0.959640 0.247230
vt 0.959640 0.248134
vt 0.959527 0.259337
vt 0.961014 0.247455
vt 0.961128 0.259337
vt 0.961014 0.246551
vt 0.961128 0.258434
vt 0.945566 0.236277
vt 0.945724 0.236027
vt 0.945724 0.236220
vt 0.945566 0.236469
vt 0.950789 0.239224
vt 0.949415 0.239903
vt 0.950789 0.240128
vt 0.949415 0.240807
vt 0.965193 0.257648
vt 0.972094 0.245697
vt 0.972094 0.246600
vt 0.965193 0.258552
vt 0.973691 0.246496
vt 0.966627 0.259139
vt 0.973691 0.245593
vt 0.966627 0.258235
vt 0.964713 0.230592
vt 0.964988 0.230426
vt 0.964988 0.230618
vt 0.964713 0.230784
vt 0.968392 0.235262
vt 0.966796 0.235366
vt 0.968392 0.236165
vt 0.966796 0.236269
vt 0.780378 0.049414
vt 0.784616 0.049012
vt 0.787075 0.054141
vt 0.781983 0.055536
vt 0.791252 0.047148
vt 0.791530 0.052423
vt 0.795401 0.047690
vt 0.794629 0.050298
vt 0.776460 0.055149
vt 0.775207 0.050319
vt 0.772863 0.054429
vt 0.772366 0.051700
vt 0.771142 0.053709
vt 0.771092 0.051889
vt 0.782418 0.057150
vt 0.785913 0.057410
vt 0.785810 0.064383
vt 0.782418 0.064850
vt 0.791571 0.058236
vt 0.789565 0.064022
vt 0.795635 0.060872
vt 0.793937 0.062936
vt 0.774188 0.063455
vt 0.776399 0.055496
vt 0.771597 0.060337
vt 0.773551 0.054755
vt 0.771643 0.055987
vt 0.772209 0.054280
vt 0.771312 0.051857
s 1
usemtl Material.001
f 11/1/1 1/2/2 12/3/3 13/4/4
f 13/4/4 12/3/3 2/5/5 5/6/6
f 5/6/6 2/5/5 6/7/7 14/8/8
f 14/8/8 6/7/7 3/9/9 7/10/10
f 13/4/11 5/6/12 14/8/13 7/10/14 15/11/15 9/12/16 16/13/17 11/1/18
f 7/10/10 3/9/9 8/14/19 15/11/20
f 15/11/20 8/14/19 4/15/21 9/12/22
f 9/12/22 4/15/21 10/16/23 16/13/24
f 16/13/24 10/16/23 1/2/2 11/1/1
f 1/2/2 10/16/23 17/17/25 12/3/3
f 10/16/23 4/15/21 8/14/19 17/17/25
f 17/17/25 8/14/19 3/9/9 6/7/7
f 12/3/3 17/17/25 6/7/7 2/5/5
f 19/18/26 28/19/27 38/20/28 36/21/29
f 36/21/29 38/20/28 37/22/30 20/23/31
f 38/20/28 27/24/32 22/25/33 37/22/30
f 28/19/27 21/26/34 27/24/32 38/20/28
f 21/26/34 30/27/35 39/28/36 27/24/32
f 30/27/35 23/29/37 29/30/38 39/28/36
f 23/29/37 33/31/39 40/32/40 29/30/38
f 29/30/38 40/32/40 31/33/41 24/34/42
f 40/32/40 32/35/43 26/36/44 31/33/41
f 33/31/39 25/37/45 32/35/43 40/32/40
f 25/37/45 35/38/46 41/39/47 32/35/43
f 32/35/43 41/39/47 34/40/48 26/36/44
f 41/39/47 36/21/29 20/23/31 34/40/48
f 35/38/46 19/18/26 36/21/29 41/39/47
f 39/28/36 29/30/38 24/34/42 31/33/41 26/36/44 34/40/48 20/23/31 37/22/30 22/25/33 27/24/32
f 25/37/45 33/31/39 42/41/49 35/38/46
f 35/38/46 42/41/49 28/19/27 19/18/26
f 42/41/49 30/27/35 21/26/34 28/19/27
f 33/31/39 23/29/37 30/27/35 42/41/49
f 43/42/50 44/43/51 48/44/52 47/45/53
f 44/43/51 45/46/54 49/47/55 48/44/52
f 46/48/56 43/42/50 47/45/53 50/49/57
f 47/45/53 48/44/52 52/50/58 51/51/59
f 48/44/52 49/47/55 53/52/60 52/50/58
f 50/49/57 47/45/53 51/51/59 54/53/61
f 51/51/59 55/54/62 54/53/61
f 55/54/62 52/50/58 53/52/60
f 51/51/59 52/50/58 55/54/62
f 43/42/50 46/48/56 56/55/63 57/56/64
f 45/46/54 44/43/51 59/57/65 58/58/66
f 44/43/51 43/42/50 57/56/64 59/57/65
f 57/56/64 56/55/63 60/59/67 61/60/68
f 58/58/66 59/57/65 63/61/69 62/62/70
f 59/57/65 57/56/64 61/60/68 63/61/69
f 61/60/68 60/59/67 64/63/71 65/64/72
f 62/62/70 63/61/69 67/65/73 66/66/74
f 63/61/69 61/60/68 65/64/72 67/65/73
f 65/64/72 64/63/71 68/67/75 69/68/76
f 66/66/74 67/65/73 71/69/77 70/70/78
f 67/65/73 65/64/72 69/68/76 71/69/77
f 69/68/76 68/67/75 72/71/79 73/72/80
f 70/70/78 71/69/77 75/73/81 74/74/82
f 71/69/77 69/68/76 73/72/80 75/73/81
f 73/72/80 72/71/79 76/75/83 77/76/84
f 74/74/82 75/73/81 79/77/85 78/78/86
f 75/73/81 73/72/80 77/76/84 79/77/85
f 77/76/84 76/75/83 80/79/87 81/80/88
f 45/46/89 58/58/90 62/62/91 66/66/92 70/70/93 74/74/94 78/78/95 82/81/96 83/82/97 81/80/88 80/79/87 76/75/98 72/71/99 68/67/100 64/63/101 60/59/102 56/55/103 46/48/104 50/49/105 54/53/106 55/54/107 53/52/108 49/47/109
f 78/78/86 79/77/85 83/82/97 82/81/96
f 79/77/85 77/76/84 81/80/88 83/82/97
f 84/83/110 85/84/111 87/85/112 86/86/113
f 86/86/113 87/85/112 89/87/114 88/88/115
f 88/88/115 89/87/114 91/89/116 90/90/117
f 90/90/117 91/89/116 85/84/111 84/83/110
f 97/91/118 96/92/119 98/93/120 99/94/121
f 85/84/111 91/89/116 92/95/122 93/96/123
f 91/89/116 89/87/114 94/97/124 92/95/122
f 89/87/114 87/85/112 95/98/125 94/97/124
f 87/85/112 85/84/111 93/96/123 95/98/125
f 93/96/123 92/95/122 96/92/119 97/91/118
f 92/95/122 94/97/124 98/93/120 96/92/119
f 94/97/124 95/98/125 99/94/121 98/93/120
f 95/98/125 93/96/123 97/91/118 99/94/121
f 100/99/126 101/100/127 103/101/128 102/102/129
f 102/102/129 103/101/128 105/103/130 104/104/131
f 104/104/131 105/103/130 107/105/132 106/106/133
f 106/106/133 107/105/132 101/100/127 100/99/126
f 113/107/134 112/108/135 114/109/136 115/110/137
f 101/100/127 107/105/132 108/111/138 109/112/139
f 107/105/132 105/103/130 110/113/140 108/111/138
f 105/103/130 103/101/128 111/114/141 110/113/140
f 103/101/128 101/100/127 109/112/139 111/114/141
f 109/112/139 108/111/138 112/108/135 113/107/134
f 108/111/138 110/113/140 114/109/136 112/108/135
f 110/113/140 111/114/141 115/110/137 114/109/136
f 111/114/141 109/112/139 113/107/134 115/110/137
f 116/115/142 117/116/143 119/117/144 118/118/145
f 118/118/145 119/117/144 121/119/146 120/120/147
f 120/120/147 121/119/146 123/121/148 122/122/149
f 122/122/149 123/121/148 117/116/143 116/115/142
f 129/123/150 128/124/151 130/125/152 131/126/153
f 117/116/143 123/121/148 124/127/154 125/128/155
f 123/121/148 121/119/146 126/129/156 124/127/154
f 121/119/146 119/117/144 127/130/157 126/129/156
f 119/117/144 117/116/143 125/128/155 127/130/157
f 125/128/155 124/127/154 128/124/151 129/123/150
f 124/127/154 126/129/156 130/125/152 128/124/151
f 126/129/156 127/130/157 131/126/153 130/125/152
f 127/130/157 125/128/155 129/123/150 131/126/153
f 11/1/171 13/4/172 166/3/173 159/2/174
f 13/4/172 5/6/175 160/5/176 166/3/173
f 5/6/175 14/8/177 163/7/178 160/5/176
f 14/8/177 7/10/179 161/9/180 163/7/178
f 7/10/179 15/11/181 164/14/182 161/9/180
f 15/11/181 9/12/183 162/15/184 164/14/182
f 9/12/183 16/13/185 165/16/186 162/15/184
f 16/13/185 11/1/171 159/2/174 165/16/186
f 159/2/174 166/3/173 167/17/187 165/16/186
f 165/16/186 167/17/187 164/14/182 162/15/184
f 167/17/187 163/7/178 161/9/180 164/14/182
f 166/3/173 160/5/176 163/7/178 167/17/187
f 168/18/188 182/21/189 183/20/190 175/19/191
f 182/21/189 169/23/192 37/22/193 183/20/190
f 183/20/190 37/22/193 22/25/194 174/24/195
f 175/19/191 183/20/190 174/24/195 170/26/196
f 170/26/196 174/24/195 39/28/197 177/27/198
f 177/27/198 39/28/197 176/30/199 171/29/200
f 171/29/200 176/30/199 184/32/201 179/31/202
f 176/30/199 24/34/203 31/33/204 184/32/201
f 184/32/201 31/33/204 173/36/205 178/35/206
f 179/31/202 184/32/201 178/35/206 172/37/207
f 172/37/207 178/35/206 185/39/208 181/38/209
f 178/35/206 173/36/205 180/40/210 185/39/208
f 185/39/208 180/40/210 169/23/192 182/21/189
f 181/38/209 185/39/208 182/21/189 168/18/188
f 39/28/197 174/24/195 22/25/194 37/22/193 169/23/192 180/40/210 173/36/205 31/33/204 24/34/203 176/30/199
f 172/37/207 181/38/209 186/41/211 179/31/202
f 181/38/209 168/18/188 175/19/191 186/41/211
f 186/41/211 175/19/191 170/26/196 177/27/198
f 179/31/202 186/41/211 177/27/198 171/29/200
f 187/42/212 189/45/213 190/44/214 188/43/215
f 188/43/215 190/44/214 49/47/216 45/46/217
f 46/48/218 50/49/219 189/45/213 187/42/212
f 189/45/213 191/51/220 192/50/221 190/44/214
f 190/44/214 192/50/221 53/52/222 49/47/216
f 50/49/219 54/53/223 191/51/220 189/45/213
f 191/51/220 54/53/223 55/54/224
f 55/54/224 53/52/222 192/50/221
f 191/51/220 55/54/224 192/50/221
f 187/42/212 193/56/225 56/55/226 46/48/218
f 45/46/217 58/58/227 194/57/228 188/43/215
f 188/43/215 194/57/228 193/56/225 187/42/212
f 193/56/225 195/60/229 60/59/230 56/55/226
f 58/58/227 62/62/231 196/61/232 194/57/228
f 194/57/228 196/61/232 195/60/229 193/56/225
f 195/60/229 197/64/233 64/63/234 60/59/230
f 62/62/231 66/66/235 198/65/236 196/61/232
f 196/61/232 198/65/236 197/64/233 195/60/229
f 197/64/233 199/68/237 68/67/238 64/63/234
f 66/66/235 70/70/239 200/69/240 198/65/236
f 198/65/236 200/69/240 199/68/237 197/64/233
f 199/68/237 201/72/241 72/71/242 68/67/238
f 70/70/239 74/74/243 202/73/244 200/69/240
f 200/69/240 202/73/244 201/72/241 199/68/237
f 201/72/241 203/76/245 76/75/246 72/71/242
f 74/74/243 78/78/247 204/77/248 202/73/244
f 202/73/244 204/77/248 203/76/245 201/72/241
f 203/76/245 205/80/249 80/79/250 76/75/246
f 45/46/251 49/47/252 53/52/253 55/54/254 54/53/255 50/49/256 46/48/257 56/55/258 60/59/259 64/63/260 68/67/261 72/71/262 76/75/263 80/79/250 205/80/249 206/82/264 82/81/265 78/78/266 74/74/267 70/70/268 66/66/269 62/62/270 58/58/271
f 78/78/247 82/81/265 206/82/264 204/77/248
f 204/77/248 206/82/264 205/80/249 203/76/245
f 207/83/272 209/86/273 210/85/274 208/84/275
f 209/86/273 211/88/276 212/87/277 210/85/274
f 211/88/276 213/90/278 214/89/279 212/87/277
f 213/90/278 207/83/272 208/84/275 214/89/279
f 220/91/280 222/94/281 221/93/282 219/92/283
f 208/84/275 216/96/284 215/95/285 214/89/279
f 214/89/279 215/95/285 217/97/286 212/87/277
f 212/87/277 217/97/286 218/98/287 210/85/274
f 210/85/274 218/98/287 216/96/284 208/84/275
f 216/96/284 220/91/280 219/92/283 215/95/285
f 215/95/285 219/92/283 221/93/282 217/97/286
f 217/97/286 221/93/282 222/94/281 218/98/287
f 218/98/287 222/94/281 220/91/280 216/96/284
f 223/99/288 225/102/289 226/101/290 224/100/291
f 225/102/289 227/104/292 228/103/293 226/101/290
f 227/104/292 229/106/294 230/105/295 228/103/293
f 229/106/294 223/99/288 224/100/291 230/105/295
f 236/107/296 238/110/297 237/109/298 235/108/299
f 224/100/291 232/112/300 231/111/301 230/105/295
f 230/105/295 231/111/301 233/113/302 228/103/293
f 228/103/293 233/113/302 234/114/303 226/101/290
f 226/101/290 234/114/303 232/112/300 224/100/291
f 232/112/300 236/107/296 235/108/299 231/111/301
f 231/111/301 235/108/299 237/109/298 233/113/302
f 233/113/302 237/109/298 238/110/297 234/114/303
f 234/114/303 238/110/297 236/107/296 232/112/300
f 239/115/304 241/118/305 242/117/306 240/116/307
f 241/118/305 243/120/308 244/119/309 242/117/306
f 243/120/308 245/122/310 246/121/311 244/119/309
f 245/122/310 239/115/304 240/116/307 246/121/311
f 252/123/312 254/126/313 253/125/314 251/124/315
f 240/116/307 248/128/316 247/127/317 246/121/311
f 246/121/311 247/127/317 249/129/318 244/119/309
f 244/119/309 249/129/318 250/130/319 242/117/306
f 242/117/306 250/130/319 248/128/316 240/116/307
f 248/128/316 252/123/312 251/124/315 247/127/317
f 247/127/317 251/124/315 253/125/314 249/129/318
f 249/129/318 253/125/314 254/126/313 250/130/319
f 250/130/319 254/126/313 252/123/312 248/128/316
usemtl Material
f 132/131/158 133/132/159 135/133/160 134/134/161
f 135/133/160 133/132/159 136/135/162 137/136/162
f 137/136/162 136/135/162 138/137/163 139/138/163
f 132/131/158 134/134/161 141/139/164 140/140/165
f 140/140/165 141/139/164 143/141/166 142/142/167
f 142/142/167 143/141/166 144/143/168 282/144/169
f 145/145/170 146/146/170 148/147/170 147/148/170
f 148/147/170 146/146/170 149/149/170 150/150/170
f 150/150/170 149/149/170 151/151/170 152/152/170
f 145/145/170 147/148/170 154/153/170 153/154/170
f 153/154/170 154/153/170 156/155/170 155/156/170
f 155/156/170 156/155/170 158/157/170 157/158/170
f 255/131/320 257/134/321 258/133/322 256/132/323
f 258/133/322 260/136/324 259/135/324 256/132/323
f 260/136/324 262/138/325 261/137/325 259/135/324
f 255/131/320 263/140/326 264/139/327 257/134/321
f 263/140/326 265/142/328 266/141/329 264/139/327
f 265/142/328 283/159/330 267/143/331 266/141/329
f 268/145/332 270/148/332 271/147/332 269/146/332
f 271/147/332 273/150/332 272/149/332 269/146/332
f 273/150/332 275/152/332 274/151/332 272/149/332
f 268/145/332 276/154/332 277/153/332 270/148/332
f 276/154/332 278/156/332 279/155/332 277/153/332
f 278/156/332 280/158/332 281/157/332 279/155/332
