# Blender 4.5.5 LTS
# www.blender.org
mtllib Animal_Duck.mtl
o Duck
v 0.222898 1.160748 -1.226503
v 0.228657 1.115521 -1.354994
v 0.225463 1.105018 -1.351098
v 0.227225 1.108568 -1.357498
v 0.226820 1.127173 -1.319257
v 0.220296 1.104545 -1.313527
v 0.221866 1.198547 -1.147269
v 0.207510 1.102541 -1.222130
v 0.194395 1.105919 -1.118103
v 0.163759 1.126299 -1.110186
v 0.139186 1.152350 -1.118993
v 0.179832 1.115420 -1.226493
v 0.163306 1.134199 -1.230651
v 0.207525 1.108757 -1.342586
v 0.208860 1.111788 -1.349027
v 0.171280 1.187410 -1.124786
v 0.183399 1.151959 -1.231375
v 0.209533 1.117005 -1.346007
v 0.198537 1.109798 -1.315943
v 0.190533 1.117051 -1.319225
v 0.199085 1.124443 -1.320933
v 0.227960 1.109975 -1.101562
v 0.263200 1.120816 -1.102335
v 0.238092 1.100606 -1.218668
v 0.261945 1.109117 -1.217402
v 0.240305 1.100422 -1.338182
v 0.242196 1.103312 -1.344549
v 0.253915 1.166397 -1.113686
v 0.253444 1.134148 -1.221967
v 0.243327 1.108412 -1.341467
v 0.241799 1.098798 -1.310132
v 0.252800 1.101218 -1.310861
v 0.249451 1.111636 -1.314167
v 0.232584 1.263495 -1.104109
v 0.236361 1.316812 -1.031298
v 0.198730 1.282659 -0.815795
v 0.222898 1.160748 -1.226503
v 0.105342 0.929896 -0.788335
v 0.093864 0.885324 -0.787262
v 0.091136 0.915132 -0.710530
v 0.080667 0.917492 -0.628124
v 0.065020 0.907784 -0.530007
v 0.042925 0.877976 -0.421946
v 0.008475 0.821375 -0.272622
v -0.036221 0.731967 -0.109123
v -0.086975 0.604611 0.027638
v -0.126143 0.239241 -0.035466
v -0.062656 0.238406 -0.193980
v -0.042007 0.243544 -0.343372
v -0.033978 0.257761 -0.462518
v -0.025430 0.319797 -0.658891
v -0.018570 0.372681 -0.790015
v 0.027702 0.497732 -1.038820
v 0.068802 0.604954 -1.131457
v 0.108611 0.750600 -1.152087
v 0.145490 0.954977 -1.039752
v 0.133084 1.058980 -0.750510
v 0.228657 1.115521 -1.354994
v 0.225463 1.105018 -1.351098
v 0.227225 1.108568 -1.357498
v 0.226820 1.127173 -1.319257
v 0.220296 1.104545 -1.313527
v 0.094117 0.897055 -0.766940
v 0.132626 0.871812 -1.101416
v -0.132297 0.483917 0.136569
v -0.181933 0.344351 0.241896
v -0.144341 0.278985 0.106204
v 0.221866 1.198547 -1.147269
v 0.207510 1.102541 -1.222130
v 0.194395 1.105919 -1.118103
v 0.184927 1.092265 -1.073459
v -0.010682 0.416556 -0.880779
v -0.202699 0.288498 0.290765
v -0.193480 0.277137 0.200623
v -0.031897 0.286884 -0.563613
v 0.167801 1.191471 -0.758160
v 0.168591 1.054737 -1.022882
v 0.156977 1.010389 -1.020374
v 0.226603 1.332628 -0.928715
v -0.123041 0.303918 -0.527149
v -0.184973 0.316260 -0.516005
v -0.129196 0.308947 -0.562278
v -0.162604 0.311412 -0.573892
v -0.190523 0.318215 -0.552638
v -0.076031 0.314345 -0.559103
v -0.130418 0.385918 -0.796348
v -0.215713 0.361464 -0.630481
v -0.227722 0.350366 -0.543912
v -0.152168 0.329608 -0.467690
v -0.265617 0.420579 -0.714150
v -0.310854 0.404221 -0.558945
v -0.241873 0.480749 -0.867055
v -0.292426 0.372943 -0.414305
v -0.069258 0.535979 -1.035151
v -0.162421 0.589710 -0.990955
v -0.021398 0.639654 -1.119859
v -0.101407 0.698222 -1.049175
v 0.027402 0.780371 -1.131624
v -0.000526 0.916309 -1.008035
v 0.033867 1.006366 -0.964570
v 0.018625 1.036784 -0.869058
v 0.077177 0.979087 -1.029436
v -0.277534 0.346569 -0.268557
v -0.297115 0.333180 -0.136273
v -0.304543 0.315118 0.000285
v -0.278799 0.345342 0.200490
v 0.099801 1.140103 -1.065603
v 0.073675 1.195159 -1.024000
v 0.102433 1.273314 -1.024622
v 0.051930 1.223515 -0.907880
v 0.163759 1.126299 -1.110186
v 0.139186 1.152350 -1.118993
v 0.051505 1.145928 -0.981521
v 0.093482 1.090028 -1.019681
v -0.220670 0.622392 -0.002437
v -0.202103 0.737212 -0.150237
v -0.176333 0.820405 -0.306414
v -0.150329 0.880502 -0.437975
v -0.119250 0.917412 -0.554759
v -0.091078 0.931836 -0.653934
v -0.063466 0.923283 -0.744434
v 0.005992 0.871566 -0.836233
v 0.031157 0.933959 -0.817388
v 0.063386 1.065103 -0.777245
v 0.158156 1.311601 -1.028320
v 0.162283 1.264228 -1.092915
v 0.171280 1.187410 -1.124786
v -0.369717 0.532627 -0.544605
v -0.346317 0.556519 -0.691332
v -0.294422 0.772367 -0.492871
v -0.264382 0.799756 -0.615532
v -0.295539 0.613142 -0.819155
v -0.367973 0.502970 -0.397461
v -0.310587 0.738731 -0.371963
v -0.218632 0.830222 -0.723081
v -0.217183 0.693373 -0.912322
v -0.169073 0.851291 -0.797482
v -0.074867 0.866459 -0.830365
v -0.352113 0.466222 -0.239316
v -0.320859 0.681293 -0.222916
v -0.360649 0.427885 -0.100888
v -0.321287 0.602865 -0.056586
v -0.297426 0.478297 0.098194
v -0.006783 0.895998 -0.809122
v -0.059295 0.841767 -0.874163
v -0.006693 0.916465 -0.906999
v -0.044255 0.817052 -1.053594
v 0.058299 0.891467 -1.086251
v -0.228489 0.496086 0.119575
v -0.238861 0.354417 0.225126
v -0.294214 0.313372 0.143158
v -0.162915 0.288239 -0.339070
v -0.173817 0.273884 -0.164294
v -0.225921 0.268972 -0.030683
v -0.225993 0.292017 0.104830
v -0.122545 0.424275 -0.879495
v -0.193179 0.794422 -0.839438
v -0.253533 0.761927 -0.759204
v -0.313522 0.717788 -0.651117
v -0.337147 0.679286 -0.513107
v -0.348080 0.645906 -0.382412
v -0.353702 0.597454 -0.230399
v -0.349358 0.533976 -0.078179
v -0.324710 0.432854 0.087970
v -0.344423 0.387454 0.060785
v -0.302913 0.334371 0.167901
v -0.253531 0.300197 0.221103
v -0.236601 0.289403 0.202263
v -0.253142 0.304656 0.238449
v -0.232712 0.297854 0.265366
v -0.140839 0.355320 -0.673511
v -0.150167 0.313938 -0.502473
v -0.148345 0.762102 -0.952911
v -0.071538 0.844369 -0.947652
v 0.035696 1.135411 -0.866528
v 0.106106 1.280503 -0.835517
v 0.090300 1.192375 -0.786165
v 0.049687 1.074803 -0.959824
v 0.090174 1.037638 -1.013368
v 0.112937 1.228348 -1.066020
v 0.080140 1.255784 -0.969480
v 0.142078 1.327264 -0.926335
v 0.064076 0.223019 -0.625446
v 0.122844 0.219826 -0.610363
v 0.074141 0.242133 -0.655134
v 0.109196 0.246681 -0.664414
v 0.133102 0.240054 -0.638683
v 0.020962 0.267596 -0.614688
v 0.098876 0.403894 -0.801124
v 0.167069 0.317743 -0.675766
v 0.168217 0.264097 -0.606380
v 0.084144 0.238260 -0.527473
v 0.225264 0.411007 -0.705124
v 0.252975 0.321212 -0.573828
v 0.223900 0.505776 -0.808808
v 0.228852 0.280924 -0.429057
v 0.125313 0.508590 -1.004176
v 0.215106 0.536964 -0.928640
v 0.158165 0.595007 -1.095540
v 0.231452 0.624750 -0.998555
v 0.186320 0.739962 -1.110278
v 0.243167 0.854344 -0.975301
v 0.245544 0.952541 -0.936137
v 0.249046 0.978193 -0.838108
v 0.212133 0.944771 -1.011308
v 0.186694 0.273450 -0.263022
v 0.096547 0.251212 -0.107392
v 0.003120 0.246059 0.037313
v -0.089126 0.297112 0.225968
v 0.277569 1.094900 -1.041724
v 0.315241 1.133735 -0.991552
v 0.327741 1.216023 -0.994358
v 0.318171 1.155815 -0.872118
v 0.227960 1.109975 -1.101562
v 0.263200 1.120816 -1.102335
v 0.300361 1.082649 -0.948094
v 0.248008 1.050735 -0.998925
v 0.042110 0.555573 0.032860
v 0.116985 0.656075 -0.107376
v 0.172980 0.731582 -0.259493
v 0.211416 0.788329 -0.389043
v 0.231804 0.828147 -0.507605
v 0.239318 0.847824 -0.609554
v 0.234362 0.847552 -0.704429
v 0.174000 0.828845 -0.813666
v 0.177310 0.896795 -0.797756
v 0.201644 1.029947 -0.758674
v 0.299432 1.275678 -1.009343
v 0.289712 1.231826 -1.075798
v 0.253915 1.166397 -1.113686
v 0.299826 0.415232 -0.488064
v 0.294892 0.502460 -0.602485
v 0.280807 0.620711 -0.399261
v 0.294966 0.663312 -0.519200
v 0.283782 0.572035 -0.710976
v 0.279181 0.360315 -0.362768
v 0.260266 0.587926 -0.291394
v 0.304046 0.705034 -0.638747
v 0.283153 0.604917 -0.825885
v 0.293795 0.739996 -0.724888
v 0.238652 0.786738 -0.788252
v 0.237632 0.355208 -0.205255
v 0.215943 0.543505 -0.154624
v 0.137484 0.312676 -0.048495
v 0.137209 0.489020 0.003047
v 0.014489 0.398984 0.140091
v 0.189573 0.846069 -0.782747
v 0.224728 0.769546 -0.836012
v 0.223396 0.857959 -0.876093
v 0.244899 0.743527 -1.014754
v 0.201068 0.855164 -1.067074
v -0.040866 0.448378 0.144777
v -0.124812 0.325417 0.240446
v -0.075938 0.257391 0.172195
v 0.058360 0.233975 -0.350417
v 0.031261 0.233489 -0.161266
v -0.053172 0.234669 -0.011048
v -0.109957 0.263981 0.118870
v 0.104552 0.452874 -0.862693
v 0.295460 0.683548 -0.760185
v 0.306316 0.639994 -0.664357
v 0.301714 0.589049 -0.539864
v 0.282861 0.527529 -0.417639
v 0.265412 0.491146 -0.307235
v 0.225275 0.457464 -0.166551
v 0.145053 0.415577 -0.017259
v 0.018797 0.345508 0.134111
v 0.025575 0.291994 0.108808
v -0.065761 0.274069 0.199755
v -0.136852 0.270528 0.236776
v -0.151592 0.267787 0.213682
v -0.139392 0.275732 0.253728
v -0.166574 0.281036 0.274249
v 0.099425 0.338671 -0.717915
v 0.088249 0.218415 -0.598404
v 0.273368 0.668995 -0.885694
v 0.254557 0.761450 -0.903849
v 0.280282 1.073219 -0.833675
v 0.281084 1.236010 -0.812013
v 0.240836 1.154097 -0.765945
v 0.263109 1.020535 -0.931157
v 0.224636 1.003447 -0.995306
v 0.307993 1.178749 -1.039820
v 0.324712 1.193595 -0.936628
v 0.295106 1.288352 -0.905780
v -0.124254 0.307303 -0.525421
v -0.185645 0.316851 -0.516642
v -0.129352 0.310334 -0.560582
v -0.162644 0.311853 -0.573702
v -0.190580 0.318227 -0.552535
v -0.103264 0.271174 -0.125815
v -0.115848 0.200928 -0.551253
v -0.120819 0.214619 -0.581925
v -0.149583 0.216894 -0.595043
v -0.173376 0.205476 -0.577488
v -0.168405 0.191785 -0.546816
v -0.139640 0.189510 -0.533698
v -0.087628 0.130786 -0.583697
v -0.091585 0.143777 -0.611697
v -0.140579 0.161200 -0.616560
v -0.179439 0.130019 -0.600560
v -0.175642 0.115886 -0.573233
v -0.128723 0.109614 -0.567276
v -0.081984 0.064588 -0.661631
v -0.085904 0.106809 -0.679087
v -0.143709 0.130239 -0.665572
v -0.200783 0.105202 -0.652271
v -0.196854 0.063309 -0.634550
v -0.139957 0.063482 -0.648170
v -0.075508 0.063311 -0.824293
v -0.075526 0.084977 -0.824372
v -0.177475 0.100342 -0.815509
v -0.273467 0.084977 -0.780042
v -0.273449 0.063311 -0.779964
v -0.179734 0.063311 -0.825596
v -0.057842 0.063311 -0.932722
v -0.059795 0.072776 -0.941447
v -0.215706 0.084998 -0.986216
v -0.337628 0.072776 -0.879225
v -0.335675 0.063311 -0.870501
v -0.213834 0.063311 -0.977860
v -0.152292 0.317441 -0.503594
v 0.064226 0.218139 -0.633182
v 0.122789 0.220047 -0.610410
v 0.074534 0.238944 -0.660126
v 0.109294 0.246248 -0.664758
v 0.133109 0.240010 -0.638836
v 0.103264 0.271174 -0.125815
v 0.082592 0.108875 -0.664053
v 0.093803 0.123647 -0.692497
v 0.124274 0.131230 -0.696816
v 0.143533 0.124040 -0.672691
v 0.132322 0.109268 -0.644247
v 0.101851 0.101685 -0.639928
v 0.078326 0.036054 -0.699096
v 0.087364 0.050322 -0.724632
v 0.132106 0.075178 -0.717667
v 0.170669 0.050406 -0.691220
v 0.161229 0.035982 -0.664786
v 0.116166 0.021767 -0.671668
v 0.083388 -0.021849 -0.762678
v 0.087189 0.020273 -0.780305
v 0.143935 0.044488 -0.765586
v 0.201492 0.020218 -0.750997
v 0.197783 -0.021868 -0.733575
v 0.140275 -0.022297 -0.748224
v 0.075508 -0.022465 -0.924366
v 0.075526 -0.000800 -0.924444
v 0.177475 0.014565 -0.915582
v 0.273467 -0.000800 -0.880115
v 0.273449 -0.022465 -0.880036
v 0.179734 -0.022465 -0.925668
v 0.057842 -0.022465 -1.032795
v 0.059795 -0.013000 -1.041520
v 0.215706 -0.000779 -1.086289
v 0.337628 -0.013000 -0.979298
v 0.335675 -0.022465 -0.970574
v 0.213834 -0.022465 -1.077933
v 0.087931 0.214285 -0.604706
vn -0.9759 -0.0541 -0.2113
vn -0.5316 0.7812 -0.3273
vn -0.4557 0.8237 -0.3373
vn -0.9667 -0.0042 -0.2558
vn -0.9246 -0.0382 -0.3791
vn -0.4250 0.8154 -0.3930
vn -0.3933 0.7423 -0.5426
vn -0.6159 -0.1667 -0.7700
vn -0.4250 -0.8444 -0.3263
vn -0.7678 -0.6341 -0.0921
vn -0.5175 -0.8483 -0.1119
vn -0.4753 -0.8504 -0.2256
vn -0.5834 -0.8108 -0.0475
vn -0.4868 -0.8730 -0.0297
vn -0.4107 -0.8996 -0.1487
vn -0.6333 -0.7734 -0.0278
vn 0.0003 0.6618 -0.7496
vn -0.0026 -0.0479 -0.9988
vn 0.4441 0.7776 -0.4452
vn 0.2360 0.9598 -0.1519
vn 0.0612 0.9480 -0.3122
vn 0.8539 -0.5194 0.0345
vn 0.8806 -0.4739 -0.0077
vn 0.8567 0.4900 -0.1610
vn 0.8985 0.4176 -0.1352
vn 0.8594 -0.4919 -0.1394
vn 0.6346 -0.4847 -0.6020
vn 0.8165 0.4347 -0.3801
vn 0.8406 0.4936 -0.2230
vn 0.0592 -0.9863 -0.1538
vn 0.0678 -0.9971 -0.0332
vn 0.1252 -0.9910 0.0477
vn 0.1801 -0.9803 0.0814
vn 0.0200 -0.9856 -0.1676
vn -0.0038 -0.9540 -0.2997
vn -0.0238 -0.9283 -0.3712
vn 0.0172 -0.8897 -0.4561
vn 0.1482 -0.8626 -0.4837
vn 0.2494 -0.6906 -0.6789
vn 0.4158 -0.1808 -0.8913
vn 0.4714 0.2766 -0.8374
vn 0.4188 0.4819 -0.7697
vn 0.3794 0.2148 -0.8999
vn 0.3171 -0.1661 -0.9337
vn 0.2298 -0.7759 -0.5876
vn 0.2291 -0.9219 -0.3124
vn 0.0720 -0.9950 0.0690
vn -0.0753 -0.9972 -0.0042
vn -0.1890 -0.9813 -0.0363
vn 0.1539 -0.8957 -0.4173
vn 0.6959 0.2098 -0.6868
vn 0.5199 0.8223 -0.2315
vn 0.5805 0.7814 -0.2289
vn 0.6960 0.6783 -0.2355
vn 0.6516 0.2495 -0.7163
vn 0.5467 0.6692 -0.5033
vn 0.4946 0.8652 -0.0824
vn 0.3204 0.8259 0.4638
vn 0.2023 0.4498 0.8699
vn 0.1082 0.0429 0.9932
vn 0.0082 -0.2702 0.9628
vn 0.1464 -0.1276 0.9810
vn 0.3413 0.7717 -0.5366
vn 0.3582 0.8955 -0.2641
vn 0.3437 0.9390 -0.0086
vn 0.3252 0.9302 0.1702
vn 0.3137 0.8912 0.3277
vn 0.3193 0.8471 0.4249
vn 0.3162 0.7976 0.5137
vn 0.2251 0.7016 0.6761
vn 0.1440 0.6454 0.7502
vn 0.1185 0.5659 0.8159
vn 0.2590 0.5185 0.8149
vn -0.1239 -0.9828 0.1371
vn 0.0479 -0.9988 -0.0047
vn -0.2465 -0.9608 0.1266
vn 0.0638 -0.9979 -0.0097
vn -0.1068 -0.9888 -0.1043
vn 0.0212 -0.9930 -0.1162
vn 0.3376 -0.8771 0.3417
vn 0.1022 -0.9425 -0.3183
vn -0.2522 -0.9407 -0.2268
vn -0.1655 -0.8967 -0.4106
vn -0.2604 -0.9077 -0.3289
vn -0.5738 -0.7898 -0.2167
vn -0.4565 -0.8418 -0.2881
vn -0.6316 -0.6667 0.3959
vn -0.5426 -0.8374 -0.0657
vn -0.0245 -0.7864 0.6173
vn -0.4180 -0.9084 0.0041
vn -0.7359 -0.6602 -0.1501
vn -0.6658 -0.6679 -0.3326
vn -0.9873 -0.1198 -0.1044
vn -0.9586 -0.0813 -0.2730
vn -0.7800 0.6242 0.0450
vn -0.7511 0.6565 -0.0694
vn -0.9038 0.3914 -0.1731
vn -0.9462 0.3211 -0.0396
vn -0.0210 0.9449 0.3267
vn 0.0247 0.9780 0.2071
vn -0.3167 0.9415 0.1155
vn -0.3428 0.9093 0.2358
vn -0.2677 -0.8867 -0.3768
vn -0.6894 -0.4813 -0.5414
vn -0.3071 -0.7916 -0.5282
vn -0.6817 -0.7266 -0.0855
vn -0.8959 0.0697 -0.4387
vn -0.9820 -0.1890 0.0019
vn -0.7864 0.6015 0.1407
vn -0.9660 0.2558 0.0368
vn -0.0656 0.9072 0.4155
vn -0.3439 0.8751 0.3406
vn -0.8290 0.4674 -0.3071
vn -0.6934 0.6929 -0.1977
vn -0.8054 0.2570 -0.5341
vn -0.6830 -0.1923 -0.7047
vn -0.6851 0.6036 -0.4078
vn -0.5254 0.7432 -0.4143
vn -0.1380 -0.8550 -0.4999
vn -0.1241 -0.9188 -0.3748
vn -0.7000 0.1583 -0.6964
vn -0.4407 -0.1734 -0.8807
vn -0.4132 -0.5471 -0.7279
vn -0.2548 0.7791 -0.5728
vn -0.5374 0.8168 -0.2099
vn -0.2396 -0.6867 -0.6863
vn -0.2487 -0.3099 -0.9177
vn -0.6802 0.4482 -0.5801
vn -0.3687 0.2632 -0.8915
vn -0.8923 0.4362 0.1164
vn -0.7229 0.6540 -0.2229
vn -0.1518 0.1578 -0.9757
vn -0.7367 0.5225 -0.4294
vn -0.3030 0.5186 -0.7995
vn -0.9740 0.1865 0.1289
vn -0.8494 0.3324 -0.4099
vn -0.0343 0.4758 -0.8789
vn -0.6742 -0.7265 -0.1331
vn -0.4203 -0.8915 -0.1688
vn -0.9706 -0.2373 -0.0409
vn -0.7737 0.5859 0.2410
vn -0.9750 0.2072 0.0804
vn -0.0896 0.8327 0.5464
vn -0.3232 0.8225 0.4680
vn -0.7031 -0.6947 -0.1521
vn -0.3983 -0.9077 -0.1322
vn -0.9771 -0.2121 -0.0160
vn -0.7248 0.5600 0.4014
vn -0.9600 0.2151 0.1793
vn -0.0751 0.7308 0.6784
vn -0.2760 0.7346 0.6198
vn -0.6808 -0.7319 -0.0273
vn -0.3740 -0.9272 -0.0207
vn -0.9706 -0.1618 0.1781
vn -0.8791 0.2485 0.4068
vn -0.6493 0.4909 0.5809
vn -0.2527 0.6387 0.7268
vn -0.0714 0.6515 0.7553
vn -0.0771 0.9173 -0.3906
vn -0.1849 0.6437 -0.7426
vn -0.3765 0.5809 -0.7216
vn -0.3478 0.8549 -0.3849
vn -0.3829 0.9202 0.0818
vn -0.0764 0.9929 0.0906
vn -0.8324 0.5246 -0.1788
vn -0.7302 0.5703 -0.3762
vn -0.8926 0.1415 -0.4280
vn -0.7208 0.3329 -0.6080
vn -0.5035 -0.7589 -0.4131
vn -0.4482 -0.7097 -0.5435
vn -0.7344 -0.2968 -0.6104
vn -0.5084 -0.7354 -0.4480
vn -0.2502 -0.3662 -0.8963
vn -0.6237 -0.2834 -0.7285
vn -0.9411 0.0209 -0.3375
vn -0.6873 -0.1716 -0.7058
vn 0.0627 0.9971 0.0437
vn -0.2686 0.9628 -0.0294
vn 0.0955 0.9818 -0.1642
vn -0.1898 0.9450 -0.2663
vn -0.2201 0.9255 0.3082
vn -0.5135 0.8580 0.0133
vn 0.0087 0.8725 -0.4886
vn 0.1525 0.9018 -0.4043
vn -0.7104 0.0343 0.7030
vn -0.3977 -0.1075 0.9112
vn -0.6595 0.0523 0.7499
vn -0.3562 -0.0058 0.9344
vn -0.2753 0.4523 -0.8483
vn -0.4473 0.3688 -0.8148
vn -0.3512 0.4610 -0.8149
vn 0.0113 0.4546 -0.8906
vn -0.7029 0.2838 0.6522
vn -0.3554 0.5398 0.7631
vn -0.1569 0.6180 0.7704
vn -0.2945 -0.9542 0.0531
vn -0.6523 -0.7532 0.0853
vn -0.4576 -0.8541 -0.2471
vn -0.3859 -0.9078 -0.1642
vn -0.3290 -0.9385 -0.1050
vn -0.2802 -0.9599 -0.0010
vn -0.2142 -0.9727 0.0898
vn -0.8992 -0.2463 0.3616
vn -0.3273 -0.9447 0.0221
vn -0.5544 -0.8158 0.1646
vn -0.7523 -0.3479 0.5595
vn -0.5847 -0.2937 0.7562
vn -0.4965 -0.1878 0.8475
vn -0.2469 -0.9690 -0.0054
vn -0.4279 -0.8698 -0.2458
vn -0.2685 -0.9252 -0.2680
vn -0.7192 0.5111 -0.4706
vn -0.2866 0.3688 0.8842
vn -0.1553 0.7707 0.6179
vn -0.5339 0.6989 0.4759
vn -0.6073 0.3430 0.7167
vn -0.0526 0.1337 -0.9896
vn -0.4470 0.1203 -0.8864
vn -0.9673 0.1967 0.1598
vn -0.9238 0.3807 0.0412
vn -0.9056 0.1013 -0.4120
vn -0.6945 -0.7108 -0.1114
vn -0.4771 -0.7885 -0.3881
vn -0.5687 -0.4115 -0.7122
vn 0.1385 -0.7190 -0.6811
vn 0.0128 -0.4830 -0.8755
vn 0.5402 -0.5738 -0.6155
vn 0.6478 -0.5570 -0.5197
vn 0.6143 -0.7614 -0.2069
vn 0.6042 -0.7756 0.1825
vn 0.0287 -0.9991 0.0299
vn -0.1269 -0.9174 0.3771
vn 0.7245 -0.4969 -0.4777
vn 0.7628 -0.5948 -0.2537
vn 0.9794 -0.2000 -0.0266
vn 0.9711 -0.1755 -0.1617
vn 0.9529 0.1896 0.2366
vn 0.9898 0.0176 0.1415
vn 0.9984 -0.0093 0.0549
vn 0.9675 0.1934 0.1629
vn 0.7363 0.5616 0.3774
vn 0.6764 0.6394 0.3657
vn 0.6985 0.6692 0.2536
vn 0.7518 0.5921 0.2901
vn 0.3245 -0.7688 -0.5510
vn 0.3914 -0.8211 -0.4154
vn 0.7253 -0.6041 -0.3302
vn 0.6188 -0.7853 0.0216
vn 0.9478 -0.2627 -0.1809
vn 0.9361 -0.3156 0.1556
vn 0.9208 0.2158 0.3248
vn 0.9727 0.0178 0.2315
vn 0.7310 0.5111 0.4521
vn 0.6283 0.6271 0.4604
vn 0.9978 -0.0400 -0.0522
vn 0.9729 0.2269 0.0453
vn 0.7175 -0.6221 -0.3133
vn 0.9363 -0.2910 -0.1966
vn 0.9789 0.1147 -0.1688
vn 0.9193 0.3398 -0.1984
vn 0.5926 -0.7053 -0.3891
vn 0.6749 -0.6818 -0.2824
vn 0.4322 -0.7807 -0.4513
vn 0.5499 -0.4660 -0.6931
vn 0.8622 -0.3043 -0.4049
vn 0.8986 0.4388 0.0040
vn 0.7515 0.5030 -0.4269
vn 0.6700 -0.6726 -0.3142
vn 0.7126 -0.4190 -0.5628
vn 0.6659 -0.0080 -0.7460
vn 0.9384 0.0103 -0.3455
vn 0.9320 -0.0277 0.3615
vn 0.9810 0.1934 0.0153
vn 0.8009 -0.0541 -0.5963
vn 0.9761 0.0870 -0.1993
vn 0.6987 0.2639 -0.6650
vn 0.8808 -0.2851 0.3781
vn 0.9775 -0.1321 -0.1645
vn 0.8188 0.1754 -0.5466
vn 0.5465 -0.8262 0.1367
vn 0.0771 -0.9969 -0.0170
vn 0.8825 -0.3468 0.3177
vn 0.8592 0.2367 0.4536
vn 0.9230 -0.0303 0.3836
vn 0.7081 0.4336 0.5573
vn 0.5424 0.6081 0.5796
vn 0.4458 -0.8752 0.1879
vn 0.0998 -0.9948 0.0184
vn 0.7691 -0.4721 0.4308
vn 0.7479 0.2295 0.6228
vn 0.8391 -0.0975 0.5352
vn 0.6448 0.4024 0.6498
vn 0.4182 0.5611 0.7143
vn 0.3020 -0.9259 0.2271
vn -0.0391 -0.9956 0.0849
vn 0.7326 -0.1211 0.6698
vn 0.6884 -0.5121 0.5136
vn 0.6181 0.1797 0.7653
vn 0.3306 0.4906 0.8062
vn 0.5972 0.3586 0.7174
vn 0.8816 0.4581 -0.1135
vn 0.7917 0.5652 -0.2318
vn 0.7709 0.2891 -0.5675
vn 0.9011 0.2146 -0.3768
vn 0.7363 0.6356 0.2321
vn 0.8335 0.4922 0.2510
vn 0.9960 0.0597 0.0667
vn 0.9799 0.1354 -0.1465
vn 0.9289 -0.3217 -0.1833
vn 0.9179 -0.0838 -0.3879
vn 0.3461 -0.9334 0.0949
vn 0.1965 -0.9146 -0.3533
vn 0.6343 -0.6448 -0.4266
vn 0.5128 -0.8052 -0.2978
vn 0.5761 -0.5885 -0.5673
vn 0.5368 -0.5638 -0.6277
vn 0.8909 -0.4449 -0.0914
vn 0.6769 -0.5184 -0.5225
vn 0.7698 0.6203 0.1505
vn 0.7010 0.7058 0.1026
vn 0.7934 0.6087 0.0059
vn 0.6832 0.7149 -0.1486
vn 0.6730 0.4830 0.5602
vn 0.7799 0.5880 -0.2144
vn 0.5297 0.7387 -0.4169
vn 0.8348 0.5152 0.1944
vn 0.4436 -0.2591 0.8580
vn 0.4334 -0.2572 0.8637
vn 0.3972 -0.2164 0.8919
vn 0.5058 -0.2486 0.8261
vn 0.7544 0.0633 -0.6534
vn 0.8715 0.2745 -0.4064
vn 0.7163 0.1896 -0.6715
vn 0.7463 0.1505 -0.6483
vn 0.3653 0.3565 0.8599
vn 0.5649 -0.0350 0.8244
vn 0.5956 0.3309 0.7320
vn 0.1779 -0.9562 0.2324
vn -0.1727 -0.9830 0.0630
vn 0.3404 -0.9403 -0.0070
vn 0.2500 -0.9611 -0.1173
vn 0.3872 -0.9183 0.0821
vn 0.3519 -0.9230 0.1554
vn 0.1529 -0.9700 0.1891
vn 0.5547 -0.5878 0.5889
vn 0.0482 -0.9660 0.2540
vn -0.1766 -0.9836 0.0378
vn 0.3359 -0.6224 0.7070
vn 0.1697 -0.4855 0.8576
vn 0.6432 -0.5861 0.4927
vn 0.2670 -0.9526 0.1458
vn 0.1269 -0.9483 -0.2910
vn 0.2801 -0.8235 -0.4933
vn 0.9807 0.0211 -0.1946
vn 0.5957 0.0126 0.8031
vn 0.4978 0.0620 0.8651
vn 0.6625 0.3947 0.6366
vn 0.7020 0.3246 0.6339
vn 0.6552 -0.1599 -0.7383
vn 0.6763 -0.1205 -0.7267
vn 0.8723 -0.2710 0.4069
vn 0.9170 -0.3622 -0.1672
vn 0.9513 -0.0961 0.2930
vn -0.7847 -0.6083 0.1192
vn -0.8664 0.3580 -0.3480
vn -0.2012 0.3899 -0.8986
vn -0.1312 -0.7998 -0.5857
vn 0.6352 0.3580 -0.6843
vn 0.7606 -0.6083 -0.2269
vn 0.7665 0.3399 -0.5450
vn 0.8762 0.0240 0.4813
vn 0.8637 -0.1891 0.4671
vn 0.8157 0.4982 -0.2941
vn -0.1445 0.2861 -0.9472
vn -0.1521 0.6478 -0.7465
vn -0.9226 0.0595 -0.3811
vn -0.9386 0.3383 -0.0680
vn -0.7434 -0.2215 0.6311
vn -0.6385 -0.4075 0.6528
vn 0.1307 -0.2731 0.9531
vn 0.1756 -0.6092 0.7733
vn 0.7259 -0.6600 0.1935
vn 0.7914 0.5908 -0.1569
vn -0.0792 0.9521 -0.2954
vn -0.8029 0.5766 0.1512
vn -0.5628 -0.6987 0.4418
vn 0.0936 -0.9516 0.2927
vn 0.7201 -0.6904 0.0698
vn 0.7329 0.6797 -0.0309
vn -0.0250 0.9947 -0.1000
vn -0.6749 0.6793 0.2881
vn -0.6215 -0.6897 0.3715
vn 0.0018 -1.0000 0.0008
vn 0.7971 0.2014 -0.5692
vn 0.8777 -0.0383 0.4777
vn 0.0233 -0.2368 0.9713
vn -0.7644 -0.2462 0.5959
vn -0.9545 -0.0748 -0.2886
vn -0.2054 0.1787 -0.9622
vn 0.7847 -0.6083 0.1192
vn 0.1312 -0.7998 -0.5857
vn 0.2012 0.3899 -0.8986
vn 0.8664 0.3580 -0.3480
vn -0.6352 0.3580 -0.6843
vn -0.7606 -0.6083 -0.2269
vn -0.6269 0.2232 -0.7465
vn -0.7704 0.4442 -0.4574
vn -0.9108 -0.3051 0.2780
vn -0.9695 -0.1445 0.1978
vn 0.3384 0.3521 -0.8727
vn 0.2712 0.6657 -0.6952
vn 0.9623 0.2401 -0.1277
vn 0.9039 0.4113 0.1176
vn 0.5800 -0.1207 0.8056
vn 0.5340 -0.3112 0.7861
vn -0.3460 -0.3358 0.8761
vn -0.2635 -0.6306 0.7300
vn -0.7832 0.5892 -0.1985
vn -0.7137 -0.6824 0.1578
vn 0.0861 0.9541 -0.2869
vn 0.7899 0.5804 0.1980
vn 0.5627 -0.6779 0.4731
vn -0.0896 -0.9540 0.2860
vn -0.7338 0.6789 -0.0268
vn -0.7208 -0.6893 0.0729
vn 0.0230 0.9947 -0.1005
vn 0.6760 0.6799 0.2842
vn 0.6220 -0.6908 0.3687
vn -0.0003 -1.0000 0.0011
vn -0.5844 0.1288 -0.8012
vn -0.9826 -0.1767 0.0570
vn -0.3261 -0.3232 0.8884
vn 0.6911 -0.1535 0.7063
vn 0.9681 0.1507 -0.2000
vn 0.3341 0.2857 -0.8982
vt 0.382811 0.165316
vt 0.383028 0.165922
vt 0.384576 0.165226
vt 0.384490 0.164902
vt 0.385837 0.164561
vt 0.385894 0.164694
vt 0.386278 0.164569
vt 0.386313 0.164485
vt 0.386372 0.164439
vt 0.385804 0.164493
vt 0.385796 0.164490
vt 0.386210 0.164450
vt 0.384439 0.164694
vt 0.384420 0.164611
vt 0.382857 0.164832
vt 0.382699 0.165040
vt 0.386454 0.164594
vt 0.386477 0.164483
vt 0.383498 0.166209
vt 0.384612 0.165499
vt 0.385940 0.164831
vt 0.447049 0.615251
vt 0.448534 0.615463
vt 0.450057 0.615680
vt 0.452167 0.616153
vt 0.453648 0.616661
vt 0.456217 0.617872
vt 0.457853 0.619343
vt 0.458481 0.621549
vt 0.457979 0.623495
vt 0.457229 0.624874
vt 0.457056 0.625758
vt 0.457191 0.626436
vt 0.458036 0.626930
vt 0.458739 0.627068
vt 0.460303 0.626846
vt 0.461687 0.626728
vt 0.462255 0.626674
vt 0.462359 0.626718
vt 0.462337 0.626829
vt 0.461822 0.627067
vt 0.460495 0.627734
vt 0.459381 0.628444
vt 0.458870 0.629513
vt 0.457887 0.630452
vt 0.456372 0.630862
vt 0.454559 0.630278
vt 0.453491 0.628969
vt 0.453088 0.626945
vt 0.453378 0.624898
vt 0.453265 0.624215
vt 0.452984 0.624428
vt 0.452172 0.624798
vt 0.450933 0.624968
vt 0.449430 0.624979
vt 0.447734 0.624697
vt 0.445357 0.624070
vt 0.442694 0.622961
vt 0.440353 0.621226
vt 0.438446 0.619547
vt 0.436553 0.617573
vt 0.435694 0.616794
vt 0.437030 0.616472
vt 0.438620 0.616152
vt 0.440749 0.615319
vt 0.443274 0.615141
vt 0.445360 0.615182
vt 0.448298 0.615201
vt 0.448820 0.615248
vt 0.448680 0.615539
vt 0.448978 0.615269
vt 0.450445 0.615962
vt 0.448627 0.615364
vt 0.449759 0.616025
vt 0.448093 0.615342
vt 0.448469 0.615866
vt 0.447935 0.615351
vt 0.447354 0.615736
vt 0.448634 0.616707
vt 0.450948 0.616921
vt 0.448309 0.618545
vt 0.450484 0.618895
vt 0.447776 0.621952
vt 0.449700 0.622235
vt 0.450005 0.620984
vt 0.447891 0.620565
vt 0.449372 0.624439
vt 0.447512 0.624041
vt 0.452253 0.616338
vt 0.453224 0.617674
vt 0.453531 0.616840
vt 0.446653 0.616428
vt 0.452465 0.619504
vt 0.446168 0.618167
vt 0.445936 0.621619
vt 0.445939 0.620195
vt 0.445414 0.623355
vt 0.451810 0.621465
vt 0.451461 0.622566
vt 0.454072 0.620329
vt 0.455224 0.618826
vt 0.453191 0.621905
vt 0.452717 0.622860
vt 0.456373 0.620348
vt 0.457520 0.619578
vt 0.456002 0.618167
vt 0.453471 0.623276
vt 0.454116 0.622879
vt 0.456765 0.622197
vt 0.458031 0.621746
vt 0.454844 0.624074
vt 0.455177 0.622722
vt 0.456351 0.623882
vt 0.457609 0.623558
vt 0.454532 0.625985
vt 0.455932 0.625396
vt 0.444468 0.616181
vt 0.445345 0.615484
vt 0.443864 0.617831
vt 0.443648 0.621026
vt 0.443632 0.619701
vt 0.442914 0.622386
vt 0.442119 0.616078
vt 0.442826 0.615371
vt 0.441466 0.617405
vt 0.441055 0.620217
vt 0.441236 0.619066
vt 0.440506 0.620965
vt 0.439864 0.616141
vt 0.440473 0.615585
vt 0.438932 0.617241
vt 0.438626 0.618049
vt 0.438611 0.618823
vt 0.438487 0.619361
vt 0.458538 0.629308
vt 0.457648 0.630116
vt 0.456127 0.630501
vt 0.456505 0.629163
vt 0.457401 0.629378
vt 0.930073 0.268034
vt 0.929377 0.269050
vt 0.930273 0.269265
vt 0.930839 0.268562
vt 0.457792 0.627351
vt 0.458581 0.627275
vt 0.457020 0.626698
vt 0.456443 0.627446
vt 0.457201 0.628147
vt 0.458694 0.627551
vt 0.450927 0.624537
vt 0.452317 0.624318
vt 0.453758 0.623613
vt 0.453365 0.623981
vt 0.453637 0.624644
vt 0.453326 0.626740
vt 0.458911 0.628157
vt 0.456951 0.625013
vt 0.436935 0.617171
vt 0.436681 0.617490
vt 0.438431 0.616268
vt 0.437699 0.616527
vt 0.437342 0.616861
vt 0.436922 0.616507
vt 0.436620 0.616645
vt 0.436372 0.616747
vt 0.436012 0.616774
vt 0.454931 0.621338
vt 0.454626 0.629889
vt 0.453721 0.628660
vt 0.456836 0.625940
vt 0.454690 0.627479
vt 0.455477 0.628727
vt 0.456007 0.626453
vt 0.457967 0.628675
vt 0.358062 0.174051
vt 0.358469 0.174493
vt 0.363457 0.175063
vt 0.363068 0.174051
vt 0.361370 0.174493
vt 0.360963 0.174051
vt 0.346031 0.181159
vt 0.344513 0.180867
vt 0.345193 0.177183
vt 0.346557 0.177519
vt 0.346518 0.181306
vt 0.346809 0.178524
vt 0.345486 0.181159
vt 0.345543 0.177519
vt 0.343967 0.180867
vt 0.344179 0.177183
vt 0.343481 0.180721
vt 0.344043 0.176670
vt 0.348317 0.174051
vt 0.349167 0.175996
vt 0.348517 0.177154
vt 0.347861 0.175996
vt 0.347011 0.174051
vt 0.347688 0.174051
vt 0.355908 0.174051
vt 0.355911 0.175062
vt 0.355498 0.175778
vt 0.353844 0.175062
vt 0.353841 0.174051
vt 0.355968 0.174051
vt 0.346099 0.186313
vt 0.344482 0.186169
vt 0.343357 0.186632
vt 0.343849 0.186605
vt 0.345501 0.186674
vt 0.346590 0.186379
s 1
usemtl Material
f 11/1/1 16/2/2 17/3/3 13/4/4
f 20/5/5 21/6/6 18/7/7 15/8/8
f 3/9/9 6/10/10 19/11/11 14/12/12
f 12/13/13 8/14/14 9/15/15 10/16/16
f 12/13/13 10/16/16 11/1/1 13/4/4
f 19/11/11 20/5/5 15/8/8 14/12/12
f 2/17/17 4/18/18 15/8/8 18/7/7
f 14/12/12 15/8/8 4/18/18 3/9/9
f 17/3/3 16/2/2 7/19/19 1/20/20
f 18/7/7 21/6/6 5/21/21 2/17/17
f 19/11/11 6/10/10 8/14/14 12/13/13
f 13/4/4 20/5/5 19/11/11 12/13/13
f 21/6/6 20/5/5 13/4/4 17/3/3
f 5/21/21 21/6/6 17/3/3 1/20/20
f 23/1/22 25/4/23 29/3/24 28/2/25
f 32/5/26 27/8/27 30/7/28 33/6/29
f 3/9/9 26/12/30 31/11/31 6/10/10
f 24/13/32 22/16/33 9/15/15 8/14/14
f 24/13/32 25/4/23 23/1/22 22/16/33
f 31/11/31 26/12/30 27/8/27 32/5/26
f 2/17/17 30/7/28 27/8/27 4/18/18
f 26/12/30 3/9/9 4/18/18 27/8/27
f 29/3/24 1/20/20 7/19/19 28/2/25
f 30/7/28 2/17/17 5/21/21 33/6/29
f 31/11/31 24/13/32 8/14/14 6/10/10
f 25/4/23 24/13/32 31/11/31 32/5/26
f 33/6/29 29/3/24 25/4/23 32/5/26
f 5/21/21 1/20/20 29/3/24 33/6/29
f 320/175/364 319/176/365 318/177/366 321/178/367
f 317/179/368 316/180/369 321/178/367 318/177/366
f 293/181/370 292/182/371 298/183/372 299/184/373
f 294/185/374 293/181/370 299/184/373 300/186/375
f 295/187/376 294/185/374 300/186/375 301/188/377
f 296/189/378 295/187/376 301/188/377 302/190/379
f 297/191/380 296/189/378 302/190/379 303/192/381
f 292/182/371 297/191/380 303/192/381 298/183/372
f 299/184/373 298/183/372 304/193/382 305/194/383
f 300/186/375 299/184/373 305/194/383 306/195/384
f 301/188/377 300/186/375 306/195/384 307/196/385
f 302/190/379 301/188/377 307/196/385 308/197/386
f 303/192/381 302/190/379 308/197/386 309/198/387
f 298/183/372 303/192/381 309/198/387 304/193/382
f 305/194/383 304/193/382 310/199/388 311/200/389
f 306/195/384 305/194/383 311/200/389 312/201/390
f 307/196/385 306/195/384 312/201/390 313/202/391
f 308/197/386 307/196/385 313/202/391 314/203/392
f 309/198/387 308/197/386 314/203/392 315/204/393
f 304/193/382 309/198/387 315/204/393 310/199/388
f 311/200/389 310/199/388 316/180/369 317/179/368
f 312/201/390 311/200/389 317/179/368 318/177/366
f 313/202/391 312/201/390 318/177/366 319/176/365
f 314/203/392 313/202/391 319/176/365 320/175/364
f 315/204/393 314/203/392 320/175/364 321/178/367
f 310/199/388 315/204/393 321/178/367 316/180/369
f 288/205/394 286/206/395 292/182/371 293/181/370
f 322/207/396 297/191/380 292/182/371 286/206/395
f 287/208/397 296/189/378 297/191/380 322/207/396
f 290/209/398 295/187/376 296/189/378 287/208/397
f 289/210/399 294/185/374 295/187/376 290/209/398
f 288/205/394 293/181/370 294/185/374 289/210/399
f 357/175/400 358/178/401 355/177/402 356/176/403
f 354/179/404 355/177/402 358/178/401 353/180/405
f 330/181/406 336/184/407 335/183/408 329/182/409
f 331/185/410 337/186/411 336/184/407 330/181/406
f 332/187/412 338/188/413 337/186/411 331/185/410
f 333/189/414 339/190/415 338/188/413 332/187/412
f 334/191/416 340/192/417 339/190/415 333/189/414
f 329/182/409 335/183/408 340/192/417 334/191/416
f 336/184/407 342/194/418 341/193/419 335/183/408
f 337/186/411 343/195/420 342/194/418 336/184/407
f 338/188/413 344/196/421 343/195/420 337/186/411
f 339/190/415 345/197/422 344/196/421 338/188/413
f 340/192/417 346/198/423 345/197/422 339/190/415
f 335/183/408 341/193/419 346/198/423 340/192/417
f 342/194/418 348/200/424 347/199/425 341/193/419
f 343/195/420 349/201/426 348/200/424 342/194/418
f 344/196/421 350/202/427 349/201/426 343/195/420
f 345/197/422 351/203/428 350/202/427 344/196/421
f 346/198/423 352/204/429 351/203/428 345/197/422
f 341/193/419 347/199/425 352/204/429 346/198/423
f 348/200/424 354/179/404 353/180/405 347/199/425
f 349/201/426 355/177/402 354/179/404 348/200/424
f 350/202/427 356/176/403 355/177/402 349/201/426
f 351/203/428 357/175/400 356/176/403 350/202/427
f 352/204/429 358/178/401 357/175/400 351/203/428
f 347/199/425 353/180/405 358/178/401 352/204/429
f 325/205/430 330/181/406 329/182/409 323/206/431
f 359/207/432 323/206/431 329/182/409 334/191/416
f 324/208/433 359/207/432 334/191/416 333/189/414
f 327/209/434 324/208/433 333/189/414 332/187/412
f 326/210/435 327/209/434 332/187/412 331/185/410
f 325/205/430 326/210/435 331/185/410 330/181/406
usemtl Material.001
f 50/22/34 75/23/35 51/24/36 52/25/37 72/26/38 53/27/39 54/28/40 55/29/41 64/30/42 56/31/43 78/32/44 77/33/45 71/34/46 70/35/47 69/36/48 62/37/49 59/38/50 60/39/51 58/40/52 61/41/53 37/42/54 68/43/55 34/44/56 35/45/57 79/46/58 36/47/59 76/48/60 57/49/61 38/50/62 39/51/63 63/52/64 40/53/65 41/54/66 42/55/67 43/56/68 44/57/69 45/58/70 46/59/71 65/60/72 66/61/73 73/62/74 74/63/75 67/64/76 47/65/77 48/66/78 49/67/79
f 80/68/80 82/69/81 85/70/82
f 85/70/82 82/69/81 83/71/83 171/72/84
f 83/71/83 84/73/85 87/74/86 171/72/84
f 84/73/85 81/75/87 88/76/88 87/74/86
f 81/75/87 172/77/89 89/78/90 88/76/88
f 80/68/80 85/70/82 89/78/90 172/77/89
f 88/76/88 91/79/91 90/80/92 87/74/86
f 128/81/93 129/82/94 90/80/92 91/79/91
f 130/83/95 131/84/96 159/85/97 160/86/98
f 43/56/99 42/55/100 119/87/101 118/88/102
f 86/89/103 90/80/92 92/90/104 156/91/105
f 88/76/88 89/78/90 93/92/106 91/79/91
f 129/82/94 132/93/107 92/90/104 90/80/92
f 133/94/108 128/81/93 91/79/91 93/92/106
f 134/95/109 130/83/95 160/86/98 161/96/110
f 44/57/111 43/56/99 118/88/102 117/97/112
f 158/98/113 159/85/97 131/84/96 135/99/114
f 132/93/107 136/100/115 95/101/116 92/90/104
f 157/102/117 158/98/113 135/99/114 137/103/118
f 86/89/103 156/91/105 72/26/119 52/25/120
f 95/101/116 97/104/121 96/105/122 94/106/123
f 157/102/117 137/103/118 138/107/124 145/108/125
f 53/27/126 94/106/123 96/105/122 54/28/127
f 96/105/122 97/104/121 147/109/128 98/110/129
f 146/111/130 174/112/131 145/108/125
f 54/28/127 96/105/122 98/110/129 55/29/132
f 99/113/133 148/114/134 98/110/129 147/109/128
f 101/115/135 100/116/136 99/113/133 146/111/130
f 55/29/132 98/110/129 148/114/134 64/30/137
f 103/117/138 93/92/106 89/78/90 152/118/139
f 139/119/140 133/94/108 93/92/106 103/117/138
f 140/120/141 134/95/109 161/96/110 162/121/142
f 45/58/143 44/57/111 117/97/112 116/122/144
f 104/123/145 103/117/138 152/118/139 153/124/146
f 141/125/147 139/119/140 103/117/138 104/123/145
f 142/126/148 140/120/141 162/121/142 163/127/149
f 46/59/150 45/58/143 116/122/144 115/128/151
f 105/129/152 104/123/145 153/124/146 154/130/153
f 141/125/147 165/131/154 164/132/155 163/127/149
f 143/133/156 142/126/148 163/127/149 164/132/155
f 149/134/157 65/60/158 46/59/150 115/128/151
f 35/45/159 34/44/160 126/135/161 125/136/162
f 182/137/163 79/46/164 35/45/159 125/136/162
f 181/138/165 182/137/163 125/136/162 109/139/166
f 108/140/167 181/141/165 109/142/166 180/143/168
f 70/35/169 71/34/170 107/144/171 111/145/172
f 71/34/170 77/33/173 114/146/174 107/144/171
f 107/144/171 114/146/174 113/147/175 108/148/167
f 111/145/172 107/144/171 112/149/176
f 41/54/177 120/150/178 119/87/101 42/55/100
f 40/53/179 121/151/180 120/150/178 41/54/177
f 39/51/181 122/152/182 144/153/183 63/52/184
f 123/154/185 122/152/182 39/51/181 38/50/186
f 124/155/187 123/154/185 38/50/186 57/49/188
f 34/44/160 68/43/189 127/156/190 126/135/161
f 118/88/102 119/87/101 131/84/96 130/83/95
f 117/97/112 118/88/102 130/83/95 134/95/109
f 119/87/101 120/150/178 135/99/114 131/84/96
f 120/150/178 121/151/180 137/103/118 135/99/114
f 116/122/144 117/97/112 134/95/109 140/120/141
f 115/128/151 116/122/144 140/120/141 142/126/148
f 143/133/156 149/134/157 115/128/151 142/126/148
f 121/151/180 144/153/183 138/107/124 137/103/118
f 40/53/179 63/52/184 144/153/183 121/151/180
f 138/107/124 144/153/183 122/152/182 145/108/125
f 101/115/135 146/111/130 123/154/185 124/155/187
f 148/114/134 99/113/133 100/116/136 102/157/191
f 64/30/137 148/114/134 102/157/191 56/31/192
f 149/134/157 143/133/156 106/158/193 150/159/194
f 66/61/195 65/60/158 149/134/157 150/159/194
f 106/158/193 143/133/156 164/132/155
f 154/130/153 155/160/196 151/161/197 105/129/152
f 152/118/139 89/78/90 50/22/198 49/67/199
f 153/124/146 152/118/139 49/67/199 48/66/200
f 154/130/153 153/124/146 48/66/200 47/65/201
f 67/64/202 155/160/196 154/130/153 47/65/201
f 92/90/104 95/101/116 94/106/123 156/91/105
f 72/26/119 156/91/105 94/106/123 53/27/126
f 136/100/115 132/93/107 158/98/113 157/102/117
f 132/93/107 129/82/94 159/85/97 158/98/113
f 160/86/98 159/85/97 129/82/94 128/81/93
f 161/96/110 160/86/98 128/81/93 133/94/108
f 162/121/142 161/96/110 133/94/108 139/119/140
f 163/127/149 162/121/142 139/119/140 141/125/147
f 106/158/193 164/132/155 165/131/154 166/162/203
f 165/131/154 141/125/147 104/123/145 105/129/152
f 151/161/197 166/162/203 165/131/154 105/129/152
f 151/161/197 155/160/196 168/163/204 167/164/205
f 106/158/193 166/162/203 169/165/206
f 150/159/194 106/158/193 169/165/206 170/166/207
f 66/61/195 150/159/194 170/166/207 73/62/208
f 155/160/196 67/64/202 74/63/209 168/163/204
f 166/162/203 151/161/197 167/164/205 169/165/206
f 168/163/204 74/63/209 73/62/208 170/166/207
f 167/164/205 168/163/204 170/166/207 169/165/206
f 86/89/103 171/72/84 87/74/86 90/80/92
f 85/70/82 75/23/210 50/22/198 89/78/90
f 51/24/211 171/72/84 86/89/103 52/25/120
f 85/70/82 171/72/84 51/24/211 75/23/210
f 145/108/125 174/112/131 173/167/212 157/102/117
f 136/100/115 173/167/212 97/104/121 95/101/116
f 174/112/131 146/111/130 99/113/133 147/109/128
f 173/167/212 174/112/131 147/109/128 97/104/121
f 157/102/117 173/167/212 136/100/115
f 76/48/213 36/47/214 176/168/215 177/169/216
f 77/33/173 78/32/217 179/170/218 114/146/174
f 175/171/219 110/172/220 113/147/175 178/173/221
f 110/172/220 175/171/219 177/169/216 176/168/215
f 178/173/221 113/147/175 114/146/174 179/170/218
f 101/115/135 124/155/187 177/169/216 175/171/219
f 100/116/136 101/115/135 175/171/219 178/173/221
f 57/49/188 76/48/213 177/169/216 124/155/187
f 78/32/217 56/31/192 102/157/191 179/170/218
f 179/170/218 102/157/191 100/116/136 178/173/221
f 109/139/166 125/136/162 126/135/161 180/174/168
f 112/149/176 180/174/168 126/135/161 127/156/190
f 107/144/171 108/148/167 180/174/168 112/149/176
f 113/147/175 110/172/220 181/138/165 108/148/167
f 110/172/220 176/168/215 182/137/163 181/138/165
f 36/47/214 79/46/164 182/137/163 176/168/215
f 146/111/130 122/152/182 123/154/185
f 146/111/130 145/108/125 122/152/182
f 183/68/222 188/70/223 185/69/224
f 188/70/223 274/72/225 186/71/226 185/69/224
f 186/71/226 274/72/225 190/74/227 187/73/228
f 187/73/228 190/74/227 191/76/229 184/75/230
f 184/75/230 191/76/229 192/78/231 275/77/232
f 183/68/222 275/77/232 192/78/231 188/70/223
f 191/76/229 190/74/227 193/80/233 194/79/234
f 231/81/235 194/79/234 193/80/233 232/82/236
f 233/83/237 263/86/238 262/85/239 234/84/240
f 43/56/241 221/88/242 222/87/243 42/55/244
f 189/89/245 259/91/246 195/90/247 193/80/233
f 191/76/229 194/79/234 196/92/248 192/78/231
f 232/82/236 193/80/233 195/90/247 235/93/249
f 236/94/250 196/92/248 194/79/234 231/81/235
f 237/95/251 264/96/252 263/86/238 233/83/237
f 44/57/253 220/97/254 221/88/242 43/56/241
f 261/98/255 238/99/256 234/84/240 262/85/239
f 235/93/249 195/90/247 198/101/257 239/100/258
f 260/102/259 240/103/260 238/99/256 261/98/255
f 189/89/245 52/25/261 72/26/262 259/91/246
f 198/101/257 197/106/263 199/105/264 200/104/265
f 260/102/259 248/108/266 241/107/267 240/103/260
f 53/27/268 54/28/269 199/105/264 197/106/263
f 199/105/264 201/110/270 250/109/271 200/104/265
f 249/111/272 248/108/266 277/112/273
f 54/28/269 55/29/274 201/110/270 199/105/264
f 202/113/275 250/109/271 201/110/270 251/114/276
f 204/115/277 249/111/272 202/113/275 203/116/278
f 55/29/274 64/30/279 251/114/276 201/110/270
f 206/117/280 255/118/281 192/78/231 196/92/248
f 242/119/282 206/117/280 196/92/248 236/94/250
f 243/120/283 265/121/284 264/96/252 237/95/251
f 45/58/285 219/122/286 220/97/254 44/57/253
f 207/123/287 256/124/288 255/118/281 206/117/280
f 244/125/289 207/123/287 206/117/280 242/119/282
f 245/126/290 266/127/291 265/121/284 243/120/283
f 46/59/292 218/128/293 219/122/286 45/58/285
f 208/129/294 257/130/295 256/124/288 207/123/287
f 244/125/289 266/127/291 267/132/296 268/131/297
f 246/133/298 267/132/296 266/127/291 245/126/290
f 252/134/299 218/128/293 46/59/292 65/60/300
f 35/45/301 228/136/302 229/135/303 34/44/304
f 285/137/305 228/136/302 35/45/301 79/46/306
f 284/138/307 212/139/308 228/136/302 285/137/305
f 211/140/309 283/143/310 212/142/308 284/141/307
f 70/35/311 214/145/312 210/144/313 71/34/314
f 71/34/314 210/144/313 217/146/315 77/33/316
f 210/144/313 211/148/309 216/147/317 217/146/315
f 214/145/312 215/149/318 210/144/313
f 41/54/319 42/55/244 222/87/243 223/150/320
f 40/53/321 41/54/319 223/150/320 224/151/322
f 39/51/323 63/52/324 247/153/325 225/152/326
f 226/154/327 38/50/328 39/51/323 225/152/326
f 227/155/329 57/49/330 38/50/328 226/154/327
f 34/44/304 229/135/303 230/156/331 68/43/332
f 221/88/242 233/83/237 234/84/240 222/87/243
f 220/97/254 237/95/251 233/83/237 221/88/242
f 222/87/243 234/84/240 238/99/256 223/150/320
f 223/150/320 238/99/256 240/103/260 224/151/322
f 219/122/286 243/120/283 237/95/251 220/97/254
f 218/128/293 245/126/290 243/120/283 219/122/286
f 246/133/298 245/126/290 218/128/293 252/134/299
f 224/151/322 240/103/260 241/107/267 247/153/325
f 40/53/321 224/151/322 247/153/325 63/52/324
f 241/107/267 248/108/266 225/152/326 247/153/325
f 204/115/277 227/155/329 226/154/327 249/111/272
f 251/114/276 205/157/333 203/116/278 202/113/275
f 64/30/279 56/31/334 205/157/333 251/114/276
f 252/134/299 253/159/335 209/158/336 246/133/298
f 66/61/337 253/159/335 252/134/299 65/60/300
f 209/158/336 267/132/296 246/133/298
f 257/130/295 208/129/294 254/161/338 258/160/339
f 255/118/281 49/67/340 50/22/341 192/78/231
f 256/124/288 48/66/342 49/67/340 255/118/281
f 257/130/295 47/65/343 48/66/342 256/124/288
f 67/64/344 47/65/343 257/130/295 258/160/339
f 195/90/247 259/91/246 197/106/263 198/101/257
f 72/26/262 53/27/268 197/106/263 259/91/246
f 239/100/258 260/102/259 261/98/255 235/93/249
f 235/93/249 261/98/255 262/85/239 232/82/236
f 263/86/238 231/81/235 232/82/236 262/85/239
f 264/96/252 236/94/250 231/81/235 263/86/238
f 265/121/284 242/119/282 236/94/250 264/96/252
f 266/127/291 244/125/289 242/119/282 265/121/284
f 209/158/336 269/162/345 268/131/297 267/132/296
f 268/131/297 208/129/294 207/123/287 244/125/289
f 254/161/338 208/129/294 268/131/297 269/162/345
f 254/161/338 270/164/346 271/163/347 258/160/339
f 209/158/336 272/165/348 269/162/345
f 253/159/335 273/166/349 272/165/348 209/158/336
f 66/61/337 73/62/350 273/166/349 253/159/335
f 258/160/339 271/163/347 74/63/351 67/64/344
f 269/162/345 272/165/348 270/164/346 254/161/338
f 271/163/347 273/166/349 73/62/350 74/63/351
f 270/164/346 272/165/348 273/166/349 271/163/347
f 189/89/245 193/80/233 190/74/227 274/72/225
f 188/70/223 192/78/231 50/22/341 75/23/352
f 51/24/353 52/25/261 189/89/245 274/72/225
f 188/70/223 75/23/352 51/24/353 274/72/225
f 248/108/266 260/102/259 276/167/354 277/112/273
f 239/100/258 198/101/257 200/104/265 276/167/354
f 277/112/273 250/109/271 202/113/275 249/111/272
f 276/167/354 200/104/265 250/109/271 277/112/273
f 260/102/259 239/100/258 276/167/354
f 76/48/355 280/169/356 279/168/357 36/47/358
f 77/33/316 217/146/315 282/170/359 78/32/360
f 278/171/361 281/173/362 216/147/317 213/172/363
f 213/172/363 279/168/357 280/169/356 278/171/361
f 281/173/362 282/170/359 217/146/315 216/147/317
f 204/115/277 278/171/361 280/169/356 227/155/329
f 203/116/278 281/173/362 278/171/361 204/115/277
f 57/49/330 227/155/329 280/169/356 76/48/355
f 78/32/360 282/170/359 205/157/333 56/31/334
f 282/170/359 281/173/362 203/116/278 205/157/333
f 212/139/308 283/174/310 229/135/303 228/136/302
f 215/149/318 230/156/331 229/135/303 283/174/310
f 210/144/313 215/149/318 283/174/310 211/148/309
f 216/147/317 211/148/309 284/138/307 213/172/363
f 213/172/363 284/138/307 285/137/305 279/168/357
f 36/47/358 279/168/357 285/137/305 79/46/306
f 249/111/272 226/154/327 225/152/326
f 249/111/272 225/152/326 248/108/266
