# Blender 4.5.5 LTS
# www.blender.org
o Eggs.002
v -0.031462 0.232081 -0.007132
v -0.023509 0.231026 0.012038
v -0.031462 0.229972 0.031207
v -0.041061 0.248682 -0.006219
v -0.037085 0.254504 0.013329
v -0.041061 0.246573 0.032120
v -0.060259 0.248682 -0.006219
v -0.064235 0.254504 0.013329
v -0.060259 0.246573 0.032120
v -0.069858 0.232081 -0.007132
v -0.077810 0.231026 0.012038
v -0.069858 0.229972 0.031207
v -0.050660 0.229535 0.039147
v -0.050660 0.232517 -0.015072
v -0.060259 0.215480 -0.008045
v -0.064235 0.207549 0.010746
v -0.060259 0.213371 0.030294
v -0.041061 0.215480 -0.008045
v -0.037085 0.207549 0.010746
v -0.041061 0.213371 0.030294
v -0.058831 0.194820 0.013767
v -0.050879 0.193766 0.032936
v -0.058831 0.192712 0.052105
v -0.068430 0.211421 0.014680
v -0.064454 0.217243 0.034227
v -0.068430 0.209313 0.053018
v -0.087628 0.211421 0.014680
v -0.091604 0.217243 0.034227
v -0.087628 0.209313 0.053018
v -0.097227 0.194820 0.013767
v -0.105180 0.193766 0.032936
v -0.097227 0.192712 0.052105
v -0.078029 0.192275 0.060045
v -0.078029 0.195257 0.005827
v -0.087628 0.178219 0.012854
v -0.091604 0.170289 0.031645
v -0.087628 0.176111 0.051192
v -0.068430 0.178219 0.012854
v -0.064454 0.170289 0.031645
v -0.068430 0.176111 0.051192
v 0.008680 0.221133 -0.032896
v 0.016633 0.220078 -0.013727
v 0.008680 0.219024 0.005442
v -0.000919 0.237734 -0.031983
v 0.003057 0.243556 -0.012436
v -0.000919 0.235625 0.006355
v -0.020117 0.237734 -0.031983
v -0.024093 0.243556 -0.012436
v -0.020117 0.235625 0.006355
v -0.029716 0.221133 -0.032896
v -0.037668 0.220078 -0.013727
v -0.029716 0.219024 0.005442
v -0.010518 0.218587 0.013382
v -0.010518 0.221570 -0.040836
v -0.020117 0.204532 -0.033809
v -0.024093 0.196601 -0.015018
v -0.020117 0.202423 0.004529
v -0.000919 0.204532 -0.033809
v 0.003057 0.196601 -0.015018
v -0.000919 0.202423 0.004529
v -0.019601 0.184640 -0.024449
v -0.011649 0.183586 -0.005280
v -0.019601 0.182531 0.013890
v -0.029201 0.201241 -0.023536
v -0.025224 0.207063 -0.003988
v -0.029201 0.199132 0.014803
v -0.048399 0.201241 -0.023536
v -0.052375 0.207063 -0.003988
v -0.048399 0.199132 0.014803
v -0.057998 0.184640 -0.024449
v -0.065950 0.183586 -0.005280
v -0.057998 0.182531 0.013890
v -0.038800 0.182095 0.021830
v -0.038800 0.185077 -0.032389
v -0.048399 0.168039 -0.025362
v -0.052375 0.160108 -0.006571
v -0.048399 0.165930 0.012976
v -0.029200 0.168039 -0.025362
v -0.025224 0.160108 -0.006571
v -0.029200 0.165930 0.012976
v 0.034094 0.286197 0.021833
v 0.042046 0.285142 0.041002
v 0.034094 0.284088 0.060171
v 0.024495 0.302798 0.022746
v 0.028471 0.308620 0.042293
v 0.024495 0.300689 0.061084
v 0.005296 0.302798 0.022746
v 0.001320 0.308620 0.042293
v 0.005296 0.300689 0.061084
v -0.004303 0.286197 0.021833
v -0.012255 0.285142 0.041002
v -0.004303 0.284088 0.060171
v 0.014896 0.283651 0.068111
v 0.014896 0.286634 0.013893
v 0.005296 0.269596 0.020920
v 0.001320 0.261665 0.039711
v 0.005296 0.267487 0.059258
v 0.024495 0.269596 0.020920
v 0.028471 0.261665 0.039711
v 0.024495 0.267487 0.059258
v 0.006724 0.257003 -0.007132
v 0.014676 0.255948 0.012038
v 0.006724 0.254894 0.031207
v -0.002875 0.273604 -0.006219
v 0.001101 0.279426 0.013329
v -0.002875 0.271495 0.032120
v -0.022073 0.273604 -0.006219
v -0.026049 0.279426 0.013329
v -0.022073 0.271495 0.032120
v -0.031672 0.257003 -0.007132
v -0.039624 0.255948 0.012038
v -0.031672 0.254894 0.031207
v -0.012474 0.254457 0.039147
v -0.012474 0.257439 -0.015072
v -0.022073 0.240402 -0.008045
v -0.026049 0.232471 0.010746
v -0.022073 0.238293 0.030294
v -0.002875 0.240402 -0.008045
v 0.001101 0.232471 0.010746
v -0.002875 0.238293 0.030294
v 0.074236 0.275249 -0.007132
v 0.082188 0.274195 0.012038
v 0.074236 0.273140 0.031207
v 0.064637 0.291850 -0.006219
v 0.068613 0.297672 0.013329
v 0.064637 0.289741 0.032120
v 0.045438 0.291850 -0.006219
v 0.041462 0.297672 0.013329
v 0.045438 0.289741 0.032120
v 0.035839 0.275249 -0.007132
v 0.027887 0.274195 0.012038
v 0.035839 0.273140 0.031207
v 0.055038 0.272703 0.039147
v 0.055038 0.275686 -0.015072
v 0.045438 0.258648 -0.008045
v 0.041462 0.250717 0.010746
v 0.045438 0.256539 0.030294
v 0.064637 0.258648 -0.008045
v 0.068613 0.250717 0.010746
v 0.064637 0.256539 0.030294
v 0.045954 0.238756 -0.024449
v 0.053906 0.237702 -0.005280
v 0.045954 0.236648 0.013890
v 0.036355 0.255357 -0.023536
v 0.040331 0.261179 -0.003988
v 0.036355 0.253249 0.014803
v 0.017157 0.255357 -0.023536
v 0.013181 0.261179 -0.003988
v 0.017157 0.253249 0.014803
v 0.007558 0.238756 -0.024449
v -0.000395 0.237702 -0.005280
v 0.007558 0.236648 0.013890
v 0.026756 0.236211 0.021830
v 0.026756 0.239193 -0.032389
v 0.017157 0.222155 -0.025362
v 0.013181 0.214224 -0.006571
v 0.017157 0.220046 0.012976
v 0.036355 0.222155 -0.025362
v 0.040331 0.214224 -0.006571
v 0.036355 0.220046 0.012976
v -0.144589 0.116197 -0.007132
v -0.136637 0.115143 0.012038
v -0.144589 0.114089 0.031207
v -0.154188 0.132798 -0.006219
v -0.150212 0.138620 0.013329
v -0.154188 0.130690 0.032120
v -0.173386 0.132798 -0.006219
v -0.177362 0.138620 0.013329
v -0.173386 0.130690 0.032120
v -0.182985 0.116197 -0.007132
v -0.190938 0.115143 0.012038
v -0.182985 0.114089 0.031207
v -0.163787 0.113652 0.039147
v -0.163787 0.116634 -0.015072
v -0.173386 0.099596 -0.008045
v -0.177362 0.091666 0.010746
v -0.173386 0.097488 0.030294
v -0.154188 0.099596 -0.008045
v -0.150212 0.091666 0.010746
v -0.154188 0.097488 0.030294
v -0.165623 0.076972 -0.007132
v -0.157671 0.075918 0.012038
v -0.165623 0.074863 0.031207
v -0.175222 0.093573 -0.006219
v -0.171246 0.099395 0.013329
v -0.175222 0.091464 0.032120
v -0.194420 0.093573 -0.006219
v -0.198396 0.099395 0.013329
v -0.194420 0.091464 0.032120
v -0.204019 0.076972 -0.007132
v -0.211972 0.075918 0.012038
v -0.204019 0.074863 0.031207
v -0.184821 0.074426 0.039147
v -0.184821 0.077409 -0.015072
v -0.194420 0.060371 -0.008045
v -0.198396 0.052440 0.010746
v -0.194420 0.058262 0.030294
v -0.175222 0.060371 -0.008045
v -0.171246 0.052440 0.010746
v -0.175222 0.058262 0.030294
v -0.119758 0.079907 -0.032896
v -0.111806 0.078853 -0.013727
v -0.119758 0.077799 0.005442
v -0.129357 0.096508 -0.031983
v -0.125381 0.102330 -0.012436
v -0.129357 0.094400 0.006355
v -0.148555 0.096508 -0.031983
v -0.152531 0.102330 -0.012436
v -0.148555 0.094400 0.006355
v -0.158154 0.079907 -0.032896
v -0.166107 0.078853 -0.013727
v -0.158154 0.077799 0.005442
v -0.138956 0.077362 0.013382
v -0.138956 0.080344 -0.040836
v -0.148555 0.063306 -0.033809
v -0.152531 0.055376 -0.015018
v -0.148555 0.061198 0.004529
v -0.129357 0.063306 -0.033809
v -0.125381 0.055376 -0.015018
v -0.129357 0.061198 0.004529
v -0.143288 0.041831 -0.007132
v -0.135336 0.040776 0.012038
v -0.143288 0.039722 0.031207
v -0.152887 0.058432 -0.006219
v -0.148911 0.064254 0.013329
v -0.152887 0.056323 0.032120
v -0.172085 0.058432 -0.006219
v -0.176062 0.064254 0.013329
v -0.172085 0.056323 0.032120
v -0.181685 0.041831 -0.007132
v -0.189637 0.040776 0.012038
v -0.181685 0.039722 0.031207
v -0.162486 0.039285 0.039147
v -0.162486 0.042268 -0.015072
v -0.172085 0.025230 -0.008045
v -0.176062 0.017299 0.010746
v -0.172085 0.023121 0.030294
v -0.152887 0.025230 -0.008045
v -0.148911 0.017299 0.010746
v -0.152887 0.023121 0.030294
v -0.085897 0.170842 -0.015579
v -0.077945 0.169787 0.003590
v -0.085897 0.168733 0.022759
v -0.095496 0.187443 -0.014666
v -0.091520 0.193265 0.004881
v -0.095496 0.185334 0.023672
v -0.114695 0.187443 -0.014666
v -0.118671 0.193265 0.004881
v -0.114695 0.185334 0.023672
v -0.124294 0.170842 -0.015579
v -0.132246 0.169787 0.003590
v -0.124294 0.168733 0.022759
v -0.105096 0.168296 0.030699
v -0.105096 0.171278 -0.023519
v -0.114695 0.154240 -0.016492
v -0.118671 0.146310 0.002299
v -0.114695 0.152132 0.021846
v -0.095496 0.154241 -0.016492
v -0.091520 0.146310 0.002299
v -0.095496 0.152132 0.021846
v -0.131218 0.158014 -0.007132
v -0.123265 0.156960 0.012038
v -0.131218 0.155905 0.031207
v -0.140817 0.174615 -0.006219
v -0.136841 0.180437 0.013329
v -0.140817 0.172506 0.032120
v -0.160015 0.174615 -0.006219
v -0.163991 0.180437 0.013329
v -0.160015 0.172506 0.032120
v -0.169614 0.158014 -0.007132
v -0.177566 0.156960 0.012038
v -0.169614 0.155905 0.031207
v -0.150416 0.155469 0.039147
v -0.150416 0.158451 -0.015072
v -0.160015 0.141413 -0.008045
v -0.163991 0.133482 0.010746
v -0.160015 0.139304 0.030294
v -0.140817 0.141413 -0.008045
v -0.136841 0.133482 0.010746
v -0.140817 0.139304 0.030294
v -0.047867 0.150918 -0.024449
v -0.039915 0.149864 -0.005280
v -0.047867 0.148810 0.013890
v -0.057466 0.167519 -0.023536
v -0.053490 0.173341 -0.003988
v -0.057466 0.165411 0.014803
v -0.076664 0.167519 -0.023536
v -0.080641 0.173341 -0.003988
v -0.076664 0.165411 0.014803
v -0.086264 0.150918 -0.024449
v -0.094216 0.149864 -0.005280
v -0.086264 0.148810 0.013890
v -0.067065 0.148373 0.021830
v -0.067065 0.151355 -0.032389
v -0.076664 0.134317 -0.025362
v -0.080640 0.126387 -0.006571
v -0.076664 0.132209 0.012976
v -0.057466 0.134317 -0.025362
v -0.053490 0.126387 -0.006571
v -0.057466 0.132209 0.012976
v -0.092516 0.121817 -0.024449
v -0.084564 0.120763 -0.005280
v -0.092516 0.119708 0.013890
v -0.102115 0.138418 -0.023536
v -0.098139 0.144240 -0.003988
v -0.102115 0.136309 0.014803
v -0.121313 0.138418 -0.023536
v -0.125289 0.144240 -0.003988
v -0.121313 0.136309 0.014803
v -0.130912 0.121817 -0.024449
v -0.138864 0.120763 -0.005280
v -0.130912 0.119708 0.013890
v -0.111714 0.119272 0.021830
v -0.111714 0.122254 -0.032389
v -0.121313 0.105216 -0.025362
v -0.125289 0.097285 -0.006571
v -0.121313 0.103107 0.012976
v -0.102115 0.105216 -0.025362
v -0.098139 0.097285 -0.006571
v -0.102115 0.103107 0.012976
v 0.089019 0.216117 -0.032896
v 0.096971 0.215063 -0.013727
v 0.089019 0.214008 0.005442
v 0.079420 0.232718 -0.031983
v 0.083396 0.238540 -0.012436
v 0.079420 0.230609 0.006355
v 0.060221 0.232718 -0.031983
v 0.056245 0.238540 -0.012436
v 0.060221 0.230609 0.006355
v 0.050622 0.216117 -0.032896
v 0.042670 0.215063 -0.013727
v 0.050622 0.214008 0.005442
v 0.069821 0.213572 0.013382
v 0.069821 0.216554 -0.040836
v 0.060221 0.199516 -0.033809
v 0.056245 0.191585 -0.015018
v 0.060221 0.197407 0.004529
v 0.079420 0.199516 -0.033809
v 0.083396 0.191585 -0.015018
v 0.079420 0.197407 0.004529
v 0.031471 0.177576 -0.024449
v 0.039423 0.176522 -0.005280
v 0.031471 0.175467 0.013890
v 0.021872 0.194177 -0.023536
v 0.025848 0.199999 -0.003988
v 0.021872 0.192068 0.014803
v 0.002674 0.194177 -0.023536
v -0.001303 0.199999 -0.003988
v 0.002674 0.192068 0.014803
v -0.006926 0.177576 -0.024449
v -0.014878 0.176522 -0.005280
v -0.006926 0.175467 0.013890
v 0.012273 0.175030 0.021830
v 0.012273 0.178013 -0.032389
v 0.002674 0.160975 -0.025362
v -0.001303 0.153044 -0.006571
v 0.002674 0.158866 0.012976
v 0.021872 0.160975 -0.025362
v 0.025848 0.153044 -0.006571
v 0.021872 0.158866 0.012976
v -0.007070 0.128475 -0.024449
v 0.000882 0.127421 -0.005280
v -0.007070 0.126367 0.013890
v -0.016670 0.145076 -0.023536
v -0.012693 0.150898 -0.003988
v -0.016670 0.142968 0.014803
v -0.035868 0.145076 -0.023536
v -0.039844 0.150898 -0.003988
v -0.035868 0.142968 0.014803
v -0.045467 0.128475 -0.024449
v -0.053419 0.127421 -0.005280
v -0.045467 0.126367 0.013890
v -0.026269 0.125930 0.021830
v -0.026269 0.128912 -0.032389
v -0.035868 0.111874 -0.025362
v -0.039844 0.103944 -0.006571
v -0.035868 0.109766 0.012976
v -0.016670 0.111874 -0.025362
v -0.012693 0.103944 -0.006571
v -0.016670 0.109766 0.012976
v -0.083097 0.069344 -0.024449
v -0.075145 0.068289 -0.005280
v -0.083097 0.067235 0.013890
v -0.092696 0.085945 -0.023536
v -0.088720 0.091767 -0.003988
v -0.092696 0.083836 0.014803
v -0.111894 0.085945 -0.023536
v -0.115870 0.091767 -0.003988
v -0.111894 0.083836 0.014803
v -0.121493 0.069344 -0.024449
v -0.129446 0.068289 -0.005280
v -0.121493 0.067235 0.013890
v -0.102295 0.066798 0.021830
v -0.102295 0.069780 -0.032389
v -0.111894 0.052743 -0.025362
v -0.115870 0.044812 -0.006571
v -0.111894 0.050634 0.012976
v -0.092696 0.052743 -0.025362
v -0.088720 0.044812 -0.006571
v -0.092696 0.050634 0.012976
v -0.048252 0.098382 -0.024449
v -0.040299 0.097327 -0.005280
v -0.048252 0.096273 0.013890
v -0.057851 0.114983 -0.023536
v -0.053875 0.120805 -0.003988
v -0.057851 0.112874 0.014803
v -0.077049 0.114983 -0.023536
v -0.081025 0.120805 -0.003988
v -0.077049 0.112874 0.014803
v -0.086648 0.098382 -0.024449
v -0.094600 0.097327 -0.005280
v -0.086648 0.096273 0.013890
v -0.067450 0.095836 0.021830
v -0.067450 0.098818 -0.032389
v -0.077049 0.081781 -0.025362
v -0.081025 0.073850 -0.006571
v -0.077049 0.079672 0.012976
v -0.057851 0.081781 -0.025362
v -0.053875 0.073850 -0.006571
v -0.057851 0.079672 0.012976
v -0.104743 0.026051 -0.007132
v -0.096791 0.024996 0.012038
v -0.104743 0.023942 0.031207
v -0.114343 0.042652 -0.006219
v -0.110367 0.048474 0.013329
v -0.114343 0.040543 0.032120
v -0.133541 0.042652 -0.006219
v -0.137517 0.048474 0.013329
v -0.133541 0.040543 0.032120
v -0.143140 0.026051 -0.007132
v -0.151092 0.024996 0.012038
v -0.143140 0.023942 0.031207
v -0.123942 0.023505 0.039147
v -0.123942 0.026487 -0.015072
v -0.133541 0.009450 -0.008045
v -0.137517 0.001519 0.010746
v -0.133541 0.007341 0.030294
v -0.114343 0.009450 -0.008045
v -0.110367 0.001519 0.010746
v -0.114343 0.007341 0.030294
v 0.070646 0.172402 -0.007132
v 0.078598 0.171348 0.012038
v 0.070646 0.170293 0.031207
v 0.061047 0.189003 -0.006219
v 0.065023 0.194825 0.013329
v 0.061047 0.186894 0.032120
v 0.041848 0.189003 -0.006219
v 0.037872 0.194825 0.013329
v 0.041848 0.186894 0.032120
v 0.032249 0.172402 -0.007132
v 0.024297 0.171348 0.012038
v 0.032249 0.170293 0.031207
v 0.051447 0.169856 0.039147
v 0.051447 0.172839 -0.015072
v 0.041848 0.155801 -0.008045
v 0.037872 0.147870 0.010746
v 0.041848 0.153692 0.030294
v 0.061047 0.155801 -0.008045
v 0.065023 0.147870 0.010746
v 0.061047 0.153692 0.030294
v 0.035167 0.126786 -0.007132
v 0.043119 0.125732 0.012038
v 0.035167 0.124677 0.031207
v 0.025567 0.143387 -0.006219
v 0.029544 0.149209 0.013329
v 0.025567 0.141278 0.032120
v 0.006369 0.143387 -0.006219
v 0.002393 0.149209 0.013329
v 0.006369 0.141278 0.032120
v -0.003230 0.126786 -0.007132
v -0.011182 0.125732 0.012038
v -0.003230 0.124677 0.031207
v 0.015968 0.124240 0.039147
v 0.015968 0.127223 -0.015072
v 0.006369 0.110185 -0.008045
v 0.002393 0.102254 0.010746
v 0.006369 0.108076 0.030294
v 0.025567 0.110185 -0.008045
v 0.029544 0.102254 0.010746
v 0.025567 0.108076 0.030294
v -0.014251 0.090040 -0.015579
v -0.006299 0.088985 0.003590
v -0.014251 0.087931 0.022759
v -0.023850 0.106641 -0.014666
v -0.019874 0.112463 0.004881
v -0.023850 0.104532 0.023672
v -0.043048 0.106641 -0.014666
v -0.047024 0.112463 0.004881
v -0.043048 0.104532 0.023672
v -0.052647 0.090040 -0.015579
v -0.060599 0.088985 0.003590
v -0.052647 0.087931 0.022759
v -0.033449 0.087494 0.030699
v -0.033449 0.090477 -0.023519
v -0.043048 0.073439 -0.016492
v -0.047024 0.065508 0.002299
v -0.043048 0.071330 0.021846
v -0.023850 0.073439 -0.016492
v -0.019874 0.065508 0.002299
v -0.023850 0.071330 0.021846
v 0.119429 0.253497 -0.007132
v 0.127381 0.252443 0.012038
v 0.119429 0.251388 0.031207
v 0.109830 0.270098 -0.006219
v 0.113806 0.275920 0.013329
v 0.109830 0.267989 0.032120
v 0.090632 0.270098 -0.006219
v 0.086656 0.275920 0.013329
v 0.090632 0.267989 0.032120
v 0.081033 0.253497 -0.007132
v 0.073081 0.252443 0.012038
v 0.081033 0.251388 0.031207
v 0.100231 0.250951 0.039147
v 0.100231 0.253934 -0.015072
v 0.090632 0.236896 -0.008045
v 0.086656 0.228965 0.010746
v 0.090632 0.234787 0.030294
v 0.109830 0.236896 -0.008045
v 0.113806 0.228965 0.010746
v 0.109830 0.234787 0.030294
v -0.044661 0.053927 -0.007132
v -0.036709 0.052873 0.012038
v -0.044661 0.051818 0.031207
v -0.054260 0.070528 -0.006219
v -0.050284 0.076350 0.013329
v -0.054260 0.068419 0.032120
v -0.073459 0.070528 -0.006219
v -0.077435 0.076350 0.013329
v -0.073459 0.068419 0.032120
v -0.083058 0.053927 -0.007132
v -0.091010 0.052873 0.012038
v -0.083058 0.051818 0.031207
v -0.063860 0.051382 0.039147
v -0.063860 0.054364 -0.015072
v -0.073459 0.037326 -0.008045
v -0.077435 0.029395 0.010746
v -0.073459 0.035217 0.030294
v -0.054260 0.037326 -0.008045
v -0.050284 0.029395 0.010746
v -0.054260 0.035217 0.030294
v -0.065569 0.022883 -0.007132
v -0.057617 0.021829 0.012038
v -0.065569 0.020774 0.031207
v -0.075168 0.039484 -0.006219
v -0.071192 0.045306 0.013329
v -0.075168 0.037375 0.032120
v -0.094366 0.039484 -0.006219
v -0.098342 0.045306 0.013329
v -0.094366 0.037375 0.032120
v -0.103965 0.022883 -0.007132
v -0.111917 0.021829 0.012038
v -0.103965 0.020774 0.031207
v -0.084767 0.020338 0.039147
v -0.084767 0.023320 -0.015072
v -0.094366 0.006282 -0.008045
v -0.098342 -0.001649 0.010746
v -0.094366 0.004173 0.030294
v -0.075168 0.006282 -0.008045
v -0.071192 -0.001649 0.010746
v -0.075168 0.004173 0.030294
v 0.134001 0.214217 -0.015579
v 0.141953 0.213162 0.003590
v 0.134001 0.212108 0.022759
v 0.124402 0.230818 -0.014666
v 0.128378 0.236640 0.004881
v 0.124402 0.228709 0.023672
v 0.105204 0.230818 -0.014666
v 0.101228 0.236640 0.004881
v 0.105204 0.228709 0.023672
v 0.095605 0.214217 -0.015579
v 0.087653 0.213162 0.003590
v 0.095605 0.212108 0.022759
v 0.114803 0.211671 0.030699
v 0.114803 0.214653 -0.023519
v 0.105204 0.197616 -0.016492
v 0.101228 0.189685 0.002299
v 0.105204 0.195507 0.021846
v 0.124402 0.197616 -0.016492
v 0.128378 0.189685 0.002299
v 0.124402 0.195507 0.021846
v -0.063095 0.120666 0.029446
v -0.071042 0.121757 0.048615
v -0.063085 0.122775 0.067784
v -0.053573 0.104021 0.030359
v -0.057576 0.098217 0.049906
v -0.053563 0.106130 0.068697
v -0.034375 0.103932 0.030359
v -0.030426 0.098092 0.049906
v -0.034365 0.106041 0.068697
v -0.024699 0.120488 0.029446
v -0.016742 0.121506 0.048615
v -0.024689 0.122597 0.067784
v -0.043885 0.123123 0.075724
v -0.043899 0.120140 0.021505
v -0.034221 0.137134 0.028532
v -0.030208 0.145046 0.047323
v -0.034211 0.139242 0.066871
v -0.053419 0.137223 0.028532
v -0.057358 0.145172 0.047323
v -0.053409 0.139331 0.066871
v -0.039818 0.154050 0.037893
v -0.047766 0.155141 0.057062
v -0.039809 0.156159 0.076231
v -0.030296 0.137404 0.038806
v -0.034299 0.131601 0.058354
v -0.030286 0.139513 0.077144
v -0.011098 0.137316 0.038806
v -0.007149 0.131475 0.058354
v -0.011089 0.139424 0.077144
v -0.001422 0.153872 0.037893
v 0.006535 0.154889 0.057062
v -0.001413 0.155981 0.076231
v -0.020609 0.156506 0.084172
v -0.020622 0.153524 0.029953
v -0.010944 0.170517 0.036980
v -0.006932 0.178429 0.055771
v -0.010935 0.172626 0.075318
v -0.030142 0.170606 0.036980
v -0.034082 0.178555 0.055771
v -0.030133 0.172715 0.075318
v -0.099288 0.068560 0.037893
v -0.107235 0.069651 0.057062
v -0.099278 0.070669 0.076231
v -0.089766 0.051915 0.038806
v -0.093769 0.046111 0.058354
v -0.089756 0.054024 0.077144
v -0.070568 0.051826 0.038806
v -0.066619 0.045986 0.058354
v -0.070558 0.053935 0.077144
v -0.060892 0.068382 0.037893
v -0.052935 0.069400 0.057062
v -0.060882 0.070491 0.076231
v -0.080078 0.071017 0.084172
v -0.080092 0.068035 0.029953
v -0.070414 0.085028 0.036980
v -0.066401 0.092940 0.055771
v -0.070404 0.087136 0.075318
v -0.089612 0.085117 0.036980
v -0.093552 0.093066 0.055771
v -0.089602 0.087225 0.075318
v 0.040027 0.233972 0.029446
v 0.032079 0.235064 0.048615
v 0.040036 0.236081 0.067784
v 0.049549 0.217327 0.030359
v 0.045546 0.211524 0.049906
v 0.049558 0.219436 0.068697
v 0.068747 0.217238 0.030359
v 0.072696 0.211398 0.049906
v 0.068756 0.219347 0.068697
v 0.078423 0.233794 0.029446
v 0.086380 0.234812 0.048615
v 0.078432 0.235903 0.067784
v 0.059236 0.236429 0.075724
v 0.059223 0.233447 0.021505
v 0.068900 0.250440 0.028532
v 0.072913 0.258352 0.047323
v 0.068910 0.252549 0.066871
v 0.049703 0.250529 0.028532
v 0.045763 0.258478 0.047323
v 0.049712 0.252637 0.066871
v -0.108542 0.136677 0.037893
v -0.116489 0.137768 0.057062
v -0.108532 0.138786 0.076231
v -0.099020 0.120032 0.038806
v -0.103023 0.114228 0.058354
v -0.099010 0.122141 0.077144
v -0.079822 0.119943 0.038806
v -0.075873 0.114103 0.058354
v -0.079812 0.122052 0.077144
v -0.070146 0.136499 0.037893
v -0.062189 0.137517 0.057062
v -0.070136 0.138608 0.076231
v -0.089332 0.139134 0.084172
v -0.089346 0.136152 0.029953
v -0.079668 0.153145 0.036980
v -0.075655 0.161057 0.055771
v -0.079658 0.155253 0.075318
v -0.098866 0.153234 0.036980
v -0.102805 0.161183 0.055771
v -0.098856 0.155342 0.075318
v 0.009657 0.153692 0.037893
v 0.001710 0.154783 0.057062
v 0.009667 0.155801 0.076231
v 0.019180 0.137047 0.038806
v 0.015177 0.131243 0.058354
v 0.019189 0.139156 0.077144
v 0.038378 0.136958 0.038806
v 0.042327 0.131118 0.058354
v 0.038387 0.139067 0.077144
v 0.048053 0.153514 0.037893
v 0.056010 0.154532 0.057062
v 0.048063 0.155623 0.076231
v 0.028867 0.156149 0.084172
v 0.028853 0.153166 0.029953
v 0.038531 0.170160 0.036980
v 0.042544 0.178072 0.055771
v 0.038541 0.172268 0.075318
v 0.019333 0.170249 0.036980
v 0.015394 0.178198 0.055771
v 0.019343 0.172357 0.075318
v -0.152279 0.061833 0.029446
v -0.160226 0.062924 0.048615
v -0.152269 0.063941 0.067784
v -0.142757 0.045187 0.030359
v -0.146760 0.039384 0.049906
v -0.142747 0.047296 0.068697
v -0.123559 0.045098 0.030359
v -0.119610 0.039258 0.049906
v -0.123549 0.047207 0.068697
v -0.113883 0.061655 0.029446
v -0.105926 0.062672 0.048615
v -0.113873 0.063764 0.067784
v -0.133069 0.064289 0.075724
v -0.133083 0.061307 0.021505
v -0.123405 0.078300 0.028532
v -0.119392 0.086212 0.047323
v -0.123395 0.080409 0.066871
v -0.142603 0.078389 0.028532
v -0.146542 0.086338 0.047323
v -0.142593 0.080498 0.066871
v -0.148933 0.129673 0.037893
v -0.156880 0.130764 0.057062
v -0.148923 0.131782 0.076231
v -0.139411 0.113027 0.038806
v -0.143414 0.107224 0.058354
v -0.139401 0.115136 0.077144
v -0.120213 0.112939 0.038806
v -0.116264 0.107098 0.058354
v -0.120203 0.115047 0.077144
v -0.110537 0.129495 0.037893
v -0.102580 0.130512 0.057062
v -0.110527 0.131604 0.076231
v -0.129723 0.132129 0.084172
v -0.129737 0.129147 0.029953
v -0.120059 0.146140 0.036980
v -0.116046 0.154052 0.055771
v -0.120049 0.148249 0.075318
v -0.139257 0.146229 0.036980
v -0.143197 0.154178 0.055771
v -0.139247 0.148338 0.075318
v -0.133395 0.104679 0.037893
v -0.141342 0.105771 0.057062
v -0.133385 0.106788 0.076231
v -0.123873 0.088034 0.038806
v -0.127876 0.082231 0.058354
v -0.123863 0.090143 0.077144
v -0.104675 0.087945 0.038806
v -0.100726 0.082105 0.058354
v -0.104665 0.090054 0.077144
v -0.094999 0.104502 0.037893
v -0.087042 0.105519 0.057062
v -0.094989 0.106610 0.076231
v -0.114185 0.107136 0.084172
v -0.114199 0.104154 0.029953
v -0.104521 0.121147 0.036980
v -0.100508 0.129059 0.055771
v -0.104511 0.123256 0.075318
v -0.123719 0.121236 0.036980
v -0.127659 0.129185 0.055771
v -0.123709 0.123345 0.075318
v -0.039812 0.200803 0.033920
v -0.047760 0.201894 0.053089
v -0.039803 0.202912 0.072258
v -0.030290 0.184158 0.034833
v -0.034293 0.178354 0.054380
v -0.030281 0.186266 0.073171
v -0.011092 0.184069 0.034833
v -0.007143 0.178228 0.054380
v -0.011083 0.186178 0.073171
v -0.001416 0.200625 0.033920
v 0.006540 0.201643 0.053089
v -0.001407 0.202734 0.072258
v -0.020603 0.203260 0.080198
v -0.020616 0.200277 0.025980
v -0.010939 0.217271 0.033007
v -0.006926 0.225183 0.051798
v -0.010929 0.219379 0.071345
v -0.030137 0.217359 0.033007
v -0.034076 0.225309 0.051798
v -0.030127 0.219468 0.071345
v 0.001433 0.208497 0.037893
v -0.006514 0.209588 0.057062
v 0.001443 0.210606 0.076231
v 0.010955 0.191852 0.038806
v 0.006952 0.186048 0.058354
v 0.010965 0.193960 0.077144
v 0.030153 0.191763 0.038806
v 0.034102 0.185922 0.058354
v 0.030163 0.193871 0.077144
v 0.039829 0.208319 0.037893
v 0.047786 0.209337 0.057062
v 0.039839 0.210428 0.076231
v 0.020643 0.210953 0.084172
v 0.020629 0.207971 0.029953
v 0.030307 0.224964 0.036980
v 0.034320 0.232877 0.055771
v 0.030317 0.227073 0.075318
v 0.011109 0.225053 0.036980
v 0.007170 0.233002 0.055771
v 0.011119 0.227162 0.075318
vn 0.7597 0.0357 -0.6493
vn 1.0000 -0.0000 -0.0000
vn 0.7597 -0.0357 0.6493
vn 0.3798 0.6926 -0.6132
vn 0.5000 0.8647 0.0476
vn 0.3798 0.6212 0.6854
vn -0.3798 0.6926 -0.6132
vn -0.5000 0.8647 0.0476
vn -0.3798 0.6212 0.6854
vn -0.7597 0.0357 -0.6493
vn -1.0000 -0.0000 -0.0000
vn -0.7597 -0.0357 0.6493
vn -0.0000 -0.0549 0.9985
vn -0.0000 0.0549 -0.9985
vn -0.3798 -0.6212 -0.6854
vn -0.5000 -0.8647 -0.0476
vn -0.3798 -0.6926 0.6132
vn 0.3798 -0.6212 -0.6854
vn 0.5000 -0.8647 -0.0476
vn 0.3798 -0.6926 0.6132
vn -0.7598 -0.0322 -0.6493
vn -1.0000 0.0046 -0.0000
vn -0.7595 0.0392 0.6493
vn -0.3830 -0.6909 -0.6132
vn -0.5040 -0.8624 0.0476
vn -0.3827 -0.6194 0.6854
vn 0.3766 -0.6944 -0.6132
vn 0.4960 -0.8670 0.0476
vn 0.3770 -0.6230 0.6854
vn 0.7595 -0.0392 -0.6493
vn 1.0000 -0.0046 -0.0000
vn 0.7598 0.0322 0.6493
vn 0.0003 0.0549 0.9985
vn -0.0003 -0.0549 -0.9985
vn 0.3827 0.6194 -0.6854
vn 0.5040 0.8624 -0.0476
vn 0.3830 0.6909 0.6132
vn -0.3770 0.6230 -0.6854
vn -0.4960 0.8670 -0.0476
vn -0.3766 0.6944 0.6132
vt 0.782329 0.884755
vt 0.781167 0.883369
vt 0.780511 0.885052
vt 0.780621 0.882846
vt 0.781012 0.883493
vt 0.780356 0.885177
vt 0.779694 0.885227
vt 0.782110 0.884931
vt 0.781292 0.887223
vt 0.781641 0.886464
vt 0.781486 0.886588
vt 0.783272 0.886317
vt 0.783818 0.886839
vt 0.783427 0.886193
vt 0.784083 0.884509
vt 0.783928 0.884633
vt 0.784745 0.884459
vt 0.782952 0.883098
vt 0.782797 0.883222
vt 0.783146 0.882462
vt 0.786680 0.884574
vt 0.785518 0.883188
vt 0.784862 0.884871
vt 0.784972 0.882665
vt 0.785363 0.883312
vt 0.784707 0.884995
vt 0.784045 0.885046
vt 0.786461 0.884750
vt 0.785644 0.887042
vt 0.785993 0.886283
vt 0.785837 0.886407
vt 0.787623 0.886135
vt 0.788169 0.886658
vt 0.787778 0.886011
vt 0.788434 0.884328
vt 0.788279 0.884452
vt 0.789096 0.884278
vt 0.787304 0.882916
vt 0.787149 0.883041
vt 0.787498 0.882281
vt 0.780771 0.881159
vt 0.779608 0.879773
vt 0.778953 0.881456
vt 0.779063 0.879250
vt 0.779453 0.879897
vt 0.778798 0.881580
vt 0.778135 0.881631
vt 0.780551 0.881335
vt 0.779734 0.883627
vt 0.780083 0.882868
vt 0.779928 0.882992
vt 0.781714 0.882720
vt 0.782259 0.883243
vt 0.781869 0.882596
vt 0.782524 0.880913
vt 0.782369 0.881037
vt 0.783187 0.880863
vt 0.781394 0.879501
vt 0.781239 0.879626
vt 0.781588 0.878866
vt 0.785119 0.881090
vt 0.783957 0.879704
vt 0.783301 0.881387
vt 0.783411 0.879181
vt 0.783802 0.879828
vt 0.783146 0.881511
vt 0.782484 0.881562
vt 0.784900 0.881266
vt 0.784082 0.883558
vt 0.784432 0.882799
vt 0.784276 0.882923
vt 0.786062 0.882652
vt 0.786608 0.883174
vt 0.786217 0.882527
vt 0.786873 0.880844
vt 0.786718 0.880968
vt 0.787535 0.880794
vt 0.785743 0.879432
vt 0.785588 0.879557
vt 0.785937 0.878797
vt 0.774490 0.883121
vt 0.773328 0.881735
vt 0.772672 0.883418
vt 0.772782 0.881212
vt 0.773173 0.881859
vt 0.772517 0.883542
vt 0.771855 0.883593
vt 0.774271 0.883296
vt 0.773453 0.885589
vt 0.773803 0.884830
vt 0.773647 0.884954
vt 0.775433 0.884682
vt 0.775979 0.885205
vt 0.775588 0.884558
vt 0.776244 0.882875
vt 0.776089 0.882999
vt 0.776906 0.882825
vt 0.775114 0.881463
vt 0.774959 0.881588
vt 0.775308 0.880828
vt 0.778248 0.883415
vt 0.777086 0.882029
vt 0.776430 0.883712
vt 0.776540 0.881506
vt 0.776931 0.882153
vt 0.776275 0.883836
vt 0.775613 0.883886
vt 0.778029 0.883590
vt 0.777212 0.885883
vt 0.777561 0.885124
vt 0.777406 0.885248
vt 0.779191 0.884976
vt 0.779737 0.885499
vt 0.779347 0.884852
vt 0.780002 0.883169
vt 0.779847 0.883293
vt 0.780664 0.883118
vt 0.778872 0.881757
vt 0.778717 0.881881
vt 0.779066 0.881122
vt 0.772932 0.879525
vt 0.771769 0.878139
vt 0.771114 0.879822
vt 0.771224 0.877616
vt 0.771614 0.878263
vt 0.770959 0.879946
vt 0.770297 0.879996
vt 0.772713 0.879700
vt 0.771895 0.881993
vt 0.772244 0.881234
vt 0.772089 0.881358
vt 0.773875 0.881086
vt 0.774421 0.881609
vt 0.774030 0.880962
vt 0.774686 0.879279
vt 0.774531 0.879403
vt 0.775348 0.879228
vt 0.773555 0.877867
vt 0.773400 0.877991
vt 0.773749 0.877232
vt 0.777280 0.879456
vt 0.776118 0.878070
vt 0.775462 0.879753
vt 0.775572 0.877547
vt 0.775963 0.878194
vt 0.775307 0.879877
vt 0.774645 0.879928
vt 0.777061 0.879631
vt 0.776244 0.881924
vt 0.776593 0.881165
vt 0.776438 0.881289
vt 0.778223 0.881017
vt 0.778769 0.881540
vt 0.778378 0.880893
vt 0.779034 0.879210
vt 0.778879 0.879334
vt 0.779696 0.879160
vt 0.777904 0.877798
vt 0.777749 0.877922
vt 0.778098 0.877163
vt 0.797511 0.886251
vt 0.796348 0.884865
vt 0.795693 0.886548
vt 0.795802 0.884342
vt 0.796193 0.884989
vt 0.795537 0.886672
vt 0.794875 0.886723
vt 0.797291 0.886426
vt 0.796474 0.888719
vt 0.796823 0.887960
vt 0.796668 0.888084
vt 0.798454 0.887812
vt 0.798999 0.888335
vt 0.798609 0.887688
vt 0.799264 0.886005
vt 0.799109 0.886129
vt 0.799926 0.885955
vt 0.798134 0.884593
vt 0.797979 0.884718
vt 0.798328 0.883958
vt 0.801633 0.885488
vt 0.800471 0.884102
vt 0.799815 0.885785
vt 0.799925 0.883580
vt 0.800316 0.884226
vt 0.799660 0.885910
vt 0.798998 0.885960
vt 0.801414 0.885664
vt 0.800596 0.887956
vt 0.800946 0.887197
vt 0.800790 0.887321
vt 0.802576 0.887050
vt 0.803122 0.887572
vt 0.802731 0.886926
vt 0.803387 0.885242
vt 0.803232 0.885366
vt 0.804049 0.885192
vt 0.802257 0.883831
vt 0.802102 0.883955
vt 0.802451 0.883196
vt 0.798717 0.882288
vt 0.797555 0.880903
vt 0.796899 0.882586
vt 0.797009 0.880380
vt 0.797400 0.881027
vt 0.796744 0.882710
vt 0.796082 0.882760
vt 0.798498 0.882464
vt 0.797680 0.884757
vt 0.798029 0.883997
vt 0.797874 0.884122
vt 0.799660 0.883850
vt 0.800206 0.884373
vt 0.799815 0.883726
vt 0.800471 0.882043
vt 0.800316 0.882167
vt 0.801133 0.881992
vt 0.799340 0.880631
vt 0.799185 0.880755
vt 0.799534 0.879996
vt 0.802902 0.881777
vt 0.801740 0.880391
vt 0.801084 0.882074
vt 0.801194 0.879868
vt 0.801585 0.880515
vt 0.800929 0.882198
vt 0.800267 0.882249
vt 0.802683 0.881952
vt 0.801865 0.884245
vt 0.802215 0.883486
vt 0.802059 0.883610
vt 0.803845 0.883338
vt 0.804391 0.883861
vt 0.804000 0.883214
vt 0.804656 0.881531
vt 0.804501 0.881655
vt 0.805318 0.881481
vt 0.803526 0.880119
vt 0.803371 0.880243
vt 0.803720 0.879484
vt 0.790037 0.885152
vt 0.788875 0.883766
vt 0.788219 0.885450
vt 0.788329 0.883244
vt 0.788720 0.883891
vt 0.788064 0.885574
vt 0.787402 0.885624
vt 0.789818 0.885328
vt 0.789000 0.887621
vt 0.789349 0.886861
vt 0.789194 0.886986
vt 0.790980 0.886714
vt 0.791526 0.887237
vt 0.791135 0.886590
vt 0.791791 0.884907
vt 0.791636 0.885031
vt 0.792453 0.884856
vt 0.790660 0.883495
vt 0.790505 0.883619
vt 0.790854 0.882860
vt 0.793648 0.887730
vt 0.792486 0.886344
vt 0.791830 0.888027
vt 0.791940 0.885821
vt 0.792331 0.886468
vt 0.791675 0.888151
vt 0.791013 0.888201
vt 0.793429 0.887905
vt 0.792612 0.890198
vt 0.792961 0.889439
vt 0.792806 0.889563
vt 0.794592 0.889291
vt 0.795137 0.889814
vt 0.794747 0.889167
vt 0.795402 0.887484
vt 0.795247 0.887608
vt 0.796064 0.887433
vt 0.794272 0.886072
vt 0.794117 0.886196
vt 0.794466 0.885437
vt 0.789263 0.881183
vt 0.788101 0.879797
vt 0.787445 0.881480
vt 0.787555 0.879274
vt 0.787945 0.879921
vt 0.787290 0.881604
vt 0.786628 0.881655
vt 0.789044 0.881359
vt 0.788226 0.883651
vt 0.788575 0.882892
vt 0.788420 0.883016
vt 0.790206 0.882745
vt 0.790752 0.883267
vt 0.790361 0.882620
vt 0.791017 0.880937
vt 0.790862 0.881061
vt 0.791679 0.880887
vt 0.789886 0.879526
vt 0.789731 0.879650
vt 0.790080 0.878890
vt 0.794032 0.882753
vt 0.792869 0.881367
vt 0.792213 0.883050
vt 0.792323 0.880844
vt 0.792714 0.881491
vt 0.792058 0.883174
vt 0.791396 0.883225
vt 0.793812 0.882928
vt 0.792995 0.885221
vt 0.793344 0.884462
vt 0.793189 0.884586
vt 0.794975 0.884314
vt 0.795520 0.884837
vt 0.795130 0.884190
vt 0.795785 0.882507
vt 0.795630 0.882631
vt 0.796447 0.882456
vt 0.794655 0.881095
vt 0.794500 0.881219
vt 0.794849 0.880460
vt 0.776409 0.874956
vt 0.775247 0.873570
vt 0.774592 0.875253
vt 0.774701 0.873048
vt 0.775092 0.873694
vt 0.774436 0.875378
vt 0.773774 0.875428
vt 0.776190 0.875132
vt 0.775373 0.877424
vt 0.775722 0.876665
vt 0.775567 0.876789
vt 0.777353 0.876518
vt 0.777898 0.877040
vt 0.777508 0.876394
vt 0.778163 0.874710
vt 0.778008 0.874834
vt 0.778825 0.874660
vt 0.777033 0.873299
vt 0.776878 0.873423
vt 0.777227 0.872664
vt 0.782632 0.876919
vt 0.781469 0.875533
vt 0.780814 0.877216
vt 0.780923 0.875010
vt 0.781314 0.875657
vt 0.780659 0.877340
vt 0.779996 0.877391
vt 0.782412 0.877094
vt 0.781595 0.879387
vt 0.781944 0.878628
vt 0.781789 0.878752
vt 0.783575 0.878480
vt 0.784121 0.879003
vt 0.783730 0.878356
vt 0.784385 0.876673
vt 0.784230 0.876797
vt 0.785048 0.876622
vt 0.783255 0.875261
vt 0.783100 0.875385
vt 0.783449 0.874626
vt 0.788511 0.876862
vt 0.787349 0.875476
vt 0.786693 0.877159
vt 0.786803 0.874953
vt 0.787194 0.875600
vt 0.786538 0.877283
vt 0.785876 0.877334
vt 0.788292 0.877037
vt 0.787475 0.879330
vt 0.787824 0.878571
vt 0.787669 0.878695
vt 0.789454 0.878423
vt 0.790000 0.878946
vt 0.789609 0.878299
vt 0.790265 0.876616
vt 0.790110 0.876740
vt 0.790927 0.876566
vt 0.789135 0.875204
vt 0.788980 0.875329
vt 0.789329 0.874569
vt 0.797335 0.878971
vt 0.796173 0.877585
vt 0.795517 0.879268
vt 0.795627 0.877062
vt 0.796018 0.877709
vt 0.795362 0.879392
vt 0.794700 0.879443
vt 0.797116 0.879146
vt 0.796299 0.881439
vt 0.796648 0.880680
vt 0.796493 0.880804
vt 0.798278 0.880532
vt 0.798824 0.881055
vt 0.798434 0.880408
vt 0.799089 0.878725
vt 0.798934 0.878849
vt 0.799751 0.878675
vt 0.797959 0.877313
vt 0.797804 0.877437
vt 0.798153 0.876678
vt 0.793149 0.878118
vt 0.791986 0.876732
vt 0.791331 0.878415
vt 0.791441 0.876210
vt 0.791831 0.876856
vt 0.791176 0.878540
vt 0.790513 0.878590
vt 0.792929 0.878294
vt 0.792112 0.880586
vt 0.792461 0.879827
vt 0.792306 0.879951
vt 0.794092 0.879680
vt 0.794637 0.880202
vt 0.794247 0.879556
vt 0.794902 0.877872
vt 0.794747 0.877997
vt 0.795565 0.877822
vt 0.793772 0.876461
vt 0.793617 0.876585
vt 0.793966 0.875826
vt 0.801793 0.878014
vt 0.800631 0.876628
vt 0.799975 0.878311
vt 0.800085 0.876105
vt 0.800476 0.876752
vt 0.799820 0.878435
vt 0.799158 0.878485
vt 0.801574 0.878189
vt 0.800757 0.880482
vt 0.801106 0.879723
vt 0.800951 0.879847
vt 0.802736 0.879575
vt 0.803282 0.880098
vt 0.802891 0.879451
vt 0.803547 0.877768
vt 0.803392 0.877892
vt 0.804209 0.877717
vt 0.802417 0.876356
vt 0.802262 0.876480
vt 0.802611 0.875721
vt 0.780706 0.873734
vt 0.779543 0.872347
vt 0.778888 0.874031
vt 0.778998 0.871825
vt 0.779388 0.872472
vt 0.778733 0.874155
vt 0.778071 0.874205
vt 0.780486 0.873909
vt 0.779669 0.876202
vt 0.780018 0.875442
vt 0.779863 0.875567
vt 0.781649 0.875295
vt 0.782194 0.875818
vt 0.781804 0.875171
vt 0.782459 0.873488
vt 0.782304 0.873612
vt 0.783122 0.873437
vt 0.781329 0.872076
vt 0.781174 0.872200
vt 0.781523 0.871441
vt 0.786149 0.873657
vt 0.784986 0.872271
vt 0.784331 0.873954
vt 0.784441 0.871748
vt 0.784831 0.872395
vt 0.784176 0.874078
vt 0.783514 0.874128
vt 0.785930 0.873832
vt 0.785112 0.876125
vt 0.785461 0.875366
vt 0.785306 0.875490
vt 0.787092 0.875218
vt 0.787638 0.875741
vt 0.787247 0.875094
vt 0.787902 0.873411
vt 0.787747 0.873535
vt 0.788565 0.873360
vt 0.786772 0.871999
vt 0.786617 0.872123
vt 0.786966 0.871364
vt 0.791760 0.875127
vt 0.790598 0.873741
vt 0.789942 0.875424
vt 0.790052 0.873218
vt 0.790443 0.873865
vt 0.789787 0.875548
vt 0.789125 0.875599
vt 0.791541 0.875302
vt 0.790723 0.877595
vt 0.791073 0.876836
vt 0.790918 0.876960
vt 0.792703 0.876688
vt 0.793249 0.877211
vt 0.792858 0.876564
vt 0.793514 0.874881
vt 0.793359 0.875005
vt 0.794176 0.874831
vt 0.792384 0.873469
vt 0.792229 0.873594
vt 0.792578 0.872834
vt 0.771870 0.874921
vt 0.770708 0.873535
vt 0.770053 0.875218
vt 0.770162 0.873012
vt 0.770553 0.873659
vt 0.769897 0.875342
vt 0.769235 0.875393
vt 0.771651 0.875096
vt 0.770834 0.877389
vt 0.771183 0.876630
vt 0.771028 0.876754
vt 0.772814 0.876482
vt 0.773359 0.877005
vt 0.772969 0.876358
vt 0.773624 0.874675
vt 0.773469 0.874799
vt 0.774286 0.874625
vt 0.772494 0.873263
vt 0.772339 0.873387
vt 0.772688 0.872628
vt 0.796206 0.875237
vt 0.795044 0.873851
vt 0.794388 0.875534
vt 0.794498 0.873328
vt 0.794889 0.873975
vt 0.794233 0.875658
vt 0.793571 0.875709
vt 0.795987 0.875413
vt 0.795169 0.877705
vt 0.795518 0.876946
vt 0.795363 0.877070
vt 0.797149 0.876798
vt 0.797695 0.877321
vt 0.797304 0.876674
vt 0.797960 0.874991
vt 0.797805 0.875115
vt 0.798622 0.874941
vt 0.796829 0.873579
vt 0.796674 0.873703
vt 0.797024 0.872944
vt 0.799720 0.874946
vt 0.798557 0.873561
vt 0.797902 0.875244
vt 0.798012 0.873038
vt 0.798402 0.873685
vt 0.797747 0.875368
vt 0.797084 0.875418
vt 0.799500 0.875122
vt 0.798683 0.877415
vt 0.799032 0.876655
vt 0.798877 0.876780
vt 0.800663 0.876508
vt 0.801209 0.877031
vt 0.800818 0.876384
vt 0.801473 0.874701
vt 0.801318 0.874825
vt 0.802136 0.874650
vt 0.800343 0.873289
vt 0.800188 0.873413
vt 0.800537 0.872654
vt 0.773901 0.871537
vt 0.772739 0.870151
vt 0.772083 0.871834
vt 0.772193 0.869628
vt 0.772583 0.870275
vt 0.771928 0.871958
vt 0.771266 0.872009
vt 0.773682 0.871712
vt 0.772864 0.874005
vt 0.773213 0.873246
vt 0.773058 0.873370
vt 0.774844 0.873098
vt 0.775390 0.873621
vt 0.774999 0.872974
vt 0.775655 0.871291
vt 0.775500 0.871415
vt 0.776317 0.871240
vt 0.774524 0.869879
vt 0.774369 0.870003
vt 0.774718 0.869244
vt 0.789755 0.877992
vt 0.790911 0.879383
vt 0.791574 0.877703
vt 0.791454 0.879908
vt 0.791066 0.879260
vt 0.791730 0.877580
vt 0.792392 0.877532
vt 0.789975 0.877817
vt 0.790803 0.875529
vt 0.790450 0.876286
vt 0.790606 0.876163
vt 0.788819 0.876426
vt 0.788276 0.875901
vt 0.788663 0.876550
vt 0.788000 0.878230
vt 0.788156 0.878106
vt 0.787338 0.878277
vt 0.789124 0.879647
vt 0.789279 0.879523
vt 0.788927 0.880281
vt 0.785930 0.878246
vt 0.787086 0.879637
vt 0.787749 0.877957
vt 0.787629 0.880162
vt 0.787241 0.879514
vt 0.787905 0.877834
vt 0.788567 0.877786
vt 0.786150 0.878071
vt 0.786978 0.875782
vt 0.786625 0.876540
vt 0.786781 0.876417
vt 0.784994 0.876680
vt 0.784450 0.876155
vt 0.784838 0.876803
vt 0.784175 0.878484
vt 0.784330 0.878360
vt 0.783512 0.878531
vt 0.785299 0.879900
vt 0.785454 0.879777
vt 0.785102 0.880535
vt 0.795717 0.877585
vt 0.796873 0.878977
vt 0.797536 0.877297
vt 0.797416 0.879502
vt 0.797029 0.878853
vt 0.797692 0.877173
vt 0.798355 0.877126
vt 0.795937 0.877411
vt 0.796765 0.875122
vt 0.796413 0.875880
vt 0.796568 0.875756
vt 0.794781 0.876020
vt 0.794238 0.875494
vt 0.794626 0.876143
vt 0.793962 0.877823
vt 0.794118 0.877700
vt 0.793300 0.877871
vt 0.795086 0.879240
vt 0.795242 0.879117
vt 0.794889 0.879874
vt 0.775352 0.877080
vt 0.776508 0.878471
vt 0.777171 0.876791
vt 0.777051 0.878997
vt 0.776664 0.878348
vt 0.777327 0.876668
vt 0.777989 0.876621
vt 0.775572 0.876906
vt 0.776400 0.874617
vt 0.776048 0.875374
vt 0.776203 0.875251
vt 0.774416 0.875514
vt 0.773873 0.874989
vt 0.774260 0.875638
vt 0.773597 0.877318
vt 0.773753 0.877194
vt 0.772935 0.877365
vt 0.774721 0.878735
vt 0.774876 0.878611
vt 0.774524 0.879369
vt 0.791253 0.882276
vt 0.792409 0.883668
vt 0.793073 0.881988
vt 0.792953 0.884193
vt 0.792565 0.883544
vt 0.793228 0.881864
vt 0.793891 0.881817
vt 0.791473 0.882102
vt 0.792301 0.879813
vt 0.791949 0.880571
vt 0.792104 0.880447
vt 0.790317 0.880710
vt 0.789774 0.880185
vt 0.790162 0.880834
vt 0.789498 0.882514
vt 0.789654 0.882391
vt 0.788836 0.882561
vt 0.790622 0.883931
vt 0.790778 0.883808
vt 0.790425 0.884565
vt 0.783043 0.874587
vt 0.784199 0.875978
vt 0.784862 0.874298
vt 0.784742 0.876503
vt 0.784355 0.875855
vt 0.785018 0.874174
vt 0.785680 0.874127
vt 0.783263 0.874412
vt 0.784091 0.872123
vt 0.783739 0.872881
vt 0.783894 0.872758
vt 0.782107 0.873021
vt 0.781564 0.872496
vt 0.781952 0.873144
vt 0.781288 0.874825
vt 0.781444 0.874701
vt 0.780626 0.874872
vt 0.782412 0.876241
vt 0.782568 0.876118
vt 0.782215 0.876876
vt 0.799332 0.881086
vt 0.800488 0.882477
vt 0.801151 0.880797
vt 0.801031 0.883002
vt 0.800643 0.882354
vt 0.801307 0.880674
vt 0.801969 0.880626
vt 0.799552 0.880911
vt 0.800380 0.878623
vt 0.800027 0.879380
vt 0.800183 0.879257
vt 0.798396 0.879520
vt 0.797853 0.878995
vt 0.798240 0.879643
vt 0.797577 0.881324
vt 0.797732 0.881200
vt 0.796914 0.881371
vt 0.798701 0.882740
vt 0.798856 0.882617
vt 0.798504 0.883375
vt 0.794146 0.884834
vt 0.795302 0.886225
vt 0.795966 0.884545
vt 0.795846 0.886751
vt 0.795458 0.886102
vt 0.796121 0.884422
vt 0.796784 0.884374
vt 0.794366 0.884659
vt 0.795194 0.882371
vt 0.794842 0.883128
vt 0.794998 0.883005
vt 0.793210 0.883268
vt 0.792667 0.882743
vt 0.793055 0.883392
vt 0.792391 0.885072
vt 0.792547 0.884948
vt 0.791729 0.885119
vt 0.793515 0.886489
vt 0.793671 0.886365
vt 0.793318 0.887123
vt 0.795069 0.882220
vt 0.796225 0.883611
vt 0.796889 0.881931
vt 0.796769 0.884136
vt 0.796381 0.883488
vt 0.797044 0.881808
vt 0.797707 0.881760
vt 0.795289 0.882045
vt 0.796117 0.879757
vt 0.795765 0.880514
vt 0.795920 0.880391
vt 0.794133 0.880654
vt 0.793590 0.880129
vt 0.793978 0.880778
vt 0.793314 0.882458
vt 0.793470 0.882334
vt 0.792652 0.882505
vt 0.794438 0.883875
vt 0.794594 0.883751
vt 0.794241 0.884509
vt 0.782492 0.880998
vt 0.783647 0.882389
vt 0.784311 0.880709
vt 0.784191 0.882915
vt 0.783803 0.882266
vt 0.784466 0.880586
vt 0.785129 0.880538
vt 0.782712 0.880823
vt 0.783540 0.878535
vt 0.783187 0.879292
vt 0.783343 0.879169
vt 0.781556 0.879432
vt 0.781012 0.878907
vt 0.781400 0.879556
vt 0.780737 0.881236
vt 0.780892 0.881112
vt 0.780074 0.881283
vt 0.781860 0.882653
vt 0.782016 0.882529
vt 0.781663 0.883287
vt 0.779497 0.878418
vt 0.780653 0.879810
vt 0.781317 0.878129
vt 0.781197 0.880335
vt 0.780809 0.879686
vt 0.781472 0.878006
vt 0.782135 0.877959
vt 0.779718 0.878244
vt 0.780546 0.875955
vt 0.780193 0.876712
vt 0.780349 0.876589
vt 0.778562 0.876852
vt 0.778018 0.876327
vt 0.778406 0.876976
vt 0.777743 0.878656
vt 0.777898 0.878533
vt 0.777080 0.878703
vt 0.778866 0.880073
vt 0.779022 0.879949
vt 0.778669 0.880707
s 1
f 13/1/13 3/2/3 6/3/6
f 2/4/2 1/5/1 4/6/4
f 2/4/2 4/6/4 5/7/5
f 3/2/3 2/4/2 5/7/5
f 3/2/3 5/7/5 6/3/6
f 1/5/1 14/8/14 4/6/4
f 6/3/6 5/7/5 8/9/8
f 6/3/6 8/9/8 9/10/9
f 4/6/4 14/8/14 7/11/7
f 13/1/13 6/3/6 9/10/9
f 5/7/5 4/6/4 7/11/7
f 5/7/5 7/11/7 8/9/8
f 8/9/8 7/11/7 10/12/10
f 8/9/8 10/12/10 11/13/11
f 9/10/9 8/9/8 11/13/11
f 9/10/9 11/13/11 12/14/12
f 7/11/7 14/8/14 10/12/10
f 13/1/13 9/10/9 12/14/12
f 13/1/13 12/14/12 17/15/17
f 11/13/11 10/12/10 15/16/15
f 11/13/11 15/16/15 16/17/16
f 12/14/12 11/13/11 16/17/16
f 12/14/12 16/17/16 17/15/17
f 10/12/10 14/8/14 15/16/15
f 13/1/13 17/15/17 20/18/20
f 16/17/16 15/16/15 18/19/18
f 16/17/16 18/19/18 19/20/19
f 17/15/17 16/17/16 19/20/19
f 17/15/17 19/20/19 20/18/20
f 15/16/15 14/8/14 18/19/18
f 13/1/13 20/18/20 3/2/3
f 19/20/19 18/19/18 1/5/1
f 19/20/19 1/5/1 2/4/2
f 20/18/20 19/20/19 2/4/2
f 20/18/20 2/4/2 3/2/3
f 18/19/18 14/8/14 1/5/1
f 33/21/13 23/22/3 26/23/6
f 22/24/2 21/25/1 24/26/4
f 22/24/2 24/26/4 25/27/5
f 23/22/3 22/24/2 25/27/5
f 23/22/3 25/27/5 26/23/6
f 21/25/1 34/28/14 24/26/4
f 26/23/6 25/27/5 28/29/8
f 26/23/6 28/29/8 29/30/9
f 24/26/4 34/28/14 27/31/7
f 33/21/13 26/23/6 29/30/9
f 25/27/5 24/26/4 27/31/7
f 25/27/5 27/31/7 28/29/8
f 28/29/8 27/31/7 30/32/10
f 28/29/8 30/32/10 31/33/11
f 29/30/9 28/29/8 31/33/11
f 29/30/9 31/33/11 32/34/12
f 27/31/7 34/28/14 30/32/10
f 33/21/13 29/30/9 32/34/12
f 33/21/13 32/34/12 37/35/17
f 31/33/11 30/32/10 35/36/15
f 31/33/11 35/36/15 36/37/16
f 32/34/12 31/33/11 36/37/16
f 32/34/12 36/37/16 37/35/17
f 30/32/10 34/28/14 35/36/15
f 33/21/13 37/35/17 40/38/20
f 36/37/16 35/36/15 38/39/18
f 36/37/16 38/39/18 39/40/19
f 37/35/17 36/37/16 39/40/19
f 37/35/17 39/40/19 40/38/20
f 35/36/15 34/28/14 38/39/18
f 33/21/13 40/38/20 23/22/3
f 39/40/19 38/39/18 21/25/1
f 39/40/19 21/25/1 22/24/2
f 40/38/20 39/40/19 22/24/2
f 40/38/20 22/24/2 23/22/3
f 38/39/18 34/28/14 21/25/1
f 53/41/13 43/42/3 46/43/6
f 42/44/2 41/45/1 44/46/4
f 42/44/2 44/46/4 45/47/5
f 43/42/3 42/44/2 45/47/5
f 43/42/3 45/47/5 46/43/6
f 41/45/1 54/48/14 44/46/4
f 46/43/6 45/47/5 48/49/8
f 46/43/6 48/49/8 49/50/9
f 44/46/4 54/48/14 47/51/7
f 53/41/13 46/43/6 49/50/9
f 45/47/5 44/46/4 47/51/7
f 45/47/5 47/51/7 48/49/8
f 48/49/8 47/51/7 50/52/10
f 48/49/8 50/52/10 51/53/11
f 49/50/9 48/49/8 51/53/11
f 49/50/9 51/53/11 52/54/12
f 47/51/7 54/48/14 50/52/10
f 53/41/13 49/50/9 52/54/12
f 53/41/13 52/54/12 57/55/17
f 51/53/11 50/52/10 55/56/15
f 51/53/11 55/56/15 56/57/16
f 52/54/12 51/53/11 56/57/16
f 52/54/12 56/57/16 57/55/17
f 50/52/10 54/48/14 55/56/15
f 53/41/13 57/55/17 60/58/20
f 56/57/16 55/56/15 58/59/18
f 56/57/16 58/59/18 59/60/19
f 57/55/17 56/57/16 59/60/19
f 57/55/17 59/60/19 60/58/20
f 55/56/15 54/48/14 58/59/18
f 53/41/13 60/58/20 43/42/3
f 59/60/19 58/59/18 41/45/1
f 59/60/19 41/45/1 42/44/2
f 60/58/20 59/60/19 42/44/2
f 60/58/20 42/44/2 43/42/3
f 58/59/18 54/48/14 41/45/1
f 73/61/13 63/62/3 66/63/6
f 62/64/2 61/65/1 64/66/4
f 62/64/2 64/66/4 65/67/5
f 63/62/3 62/64/2 65/67/5
f 63/62/3 65/67/5 66/63/6
f 61/65/1 74/68/14 64/66/4
f 66/63/6 65/67/5 68/69/8
f 66/63/6 68/69/8 69/70/9
f 64/66/4 74/68/14 67/71/7
f 73/61/13 66/63/6 69/70/9
f 65/67/5 64/66/4 67/71/7
f 65/67/5 67/71/7 68/69/8
f 68/69/8 67/71/7 70/72/10
f 68/69/8 70/72/10 71/73/11
f 69/70/9 68/69/8 71/73/11
f 69/70/9 71/73/11 72/74/12
f 67/71/7 74/68/14 70/72/10
f 73/61/13 69/70/9 72/74/12
f 73/61/13 72/74/12 77/75/17
f 71/73/11 70/72/10 75/76/15
f 71/73/11 75/76/15 76/77/16
f 72/74/12 71/73/11 76/77/16
f 72/74/12 76/77/16 77/75/17
f 70/72/10 74/68/14 75/76/15
f 73/61/13 77/75/17 80/78/20
f 76/77/16 75/76/15 78/79/18
f 76/77/16 78/79/18 79/80/19
f 77/75/17 76/77/16 79/80/19
f 77/75/17 79/80/19 80/78/20
f 75/76/15 74/68/14 78/79/18
f 73/61/13 80/78/20 63/62/3
f 79/80/19 78/79/18 61/65/1
f 79/80/19 61/65/1 62/64/2
f 80/78/20 79/80/19 62/64/2
f 80/78/20 62/64/2 63/62/3
f 78/79/18 74/68/14 61/65/1
f 93/81/13 83/82/3 86/83/6
f 82/84/2 81/85/1 84/86/4
f 82/84/2 84/86/4 85/87/5
f 83/82/3 82/84/2 85/87/5
f 83/82/3 85/87/5 86/83/6
f 81/85/1 94/88/14 84/86/4
f 86/83/6 85/87/5 88/89/8
f 86/83/6 88/89/8 89/90/9
f 84/86/4 94/88/14 87/91/7
f 93/81/13 86/83/6 89/90/9
f 85/87/5 84/86/4 87/91/7
f 85/87/5 87/91/7 88/89/8
f 88/89/8 87/91/7 90/92/10
f 88/89/8 90/92/10 91/93/11
f 89/90/9 88/89/8 91/93/11
f 89/90/9 91/93/11 92/94/12
f 87/91/7 94/88/14 90/92/10
f 93/81/13 89/90/9 92/94/12
f 93/81/13 92/94/12 97/95/17
f 91/93/11 90/92/10 95/96/15
f 91/93/11 95/96/15 96/97/16
f 92/94/12 91/93/11 96/97/16
f 92/94/12 96/97/16 97/95/17
f 90/92/10 94/88/14 95/96/15
f 93/81/13 97/95/17 100/98/20
f 96/97/16 95/96/15 98/99/18
f 96/97/16 98/99/18 99/100/19
f 97/95/17 96/97/16 99/100/19
f 97/95/17 99/100/19 100/98/20
f 95/96/15 94/88/14 98/99/18
f 93/81/13 100/98/20 83/82/3
f 99/100/19 98/99/18 81/85/1
f 99/100/19 81/85/1 82/84/2
f 100/98/20 99/100/19 82/84/2
f 100/98/20 82/84/2 83/82/3
f 98/99/18 94/88/14 81/85/1
f 113/101/13 103/102/3 106/103/6
f 102/104/2 101/105/1 104/106/4
f 102/104/2 104/106/4 105/107/5
f 103/102/3 102/104/2 105/107/5
f 103/102/3 105/107/5 106/103/6
f 101/105/1 114/108/14 104/106/4
f 106/103/6 105/107/5 108/109/8
f 106/103/6 108/109/8 109/110/9
f 104/106/4 114/108/14 107/111/7
f 113/101/13 106/103/6 109/110/9
f 105/107/5 104/106/4 107/111/7
f 105/107/5 107/111/7 108/109/8
f 108/109/8 107/111/7 110/112/10
f 108/109/8 110/112/10 111/113/11
f 109/110/9 108/109/8 111/113/11
f 109/110/9 111/113/11 112/114/12
f 107/111/7 114/108/14 110/112/10
f 113/101/13 109/110/9 112/114/12
f 113/101/13 112/114/12 117/115/17
f 111/113/11 110/112/10 115/116/15
f 111/113/11 115/116/15 116/117/16
f 112/114/12 111/113/11 116/117/16
f 112/114/12 116/117/16 117/115/17
f 110/112/10 114/108/14 115/116/15
f 113/101/13 117/115/17 120/118/20
f 116/117/16 115/116/15 118/119/18
f 116/117/16 118/119/18 119/120/19
f 117/115/17 116/117/16 119/120/19
f 117/115/17 119/120/19 120/118/20
f 115/116/15 114/108/14 118/119/18
f 113/101/13 120/118/20 103/102/3
f 119/120/19 118/119/18 101/105/1
f 119/120/19 101/105/1 102/104/2
f 120/118/20 119/120/19 102/104/2
f 120/118/20 102/104/2 103/102/3
f 118/119/18 114/108/14 101/105/1
f 133/121/13 123/122/3 126/123/6
f 122/124/2 121/125/1 124/126/4
f 122/124/2 124/126/4 125/127/5
f 123/122/3 122/124/2 125/127/5
f 123/122/3 125/127/5 126/123/6
f 121/125/1 134/128/14 124/126/4
f 126/123/6 125/127/5 128/129/8
f 126/123/6 128/129/8 129/130/9
f 124/126/4 134/128/14 127/131/7
f 133/121/13 126/123/6 129/130/9
f 125/127/5 124/126/4 127/131/7
f 125/127/5 127/131/7 128/129/8
f 128/129/8 127/131/7 130/132/10
f 128/129/8 130/132/10 131/133/11
f 129/130/9 128/129/8 131/133/11
f 129/130/9 131/133/11 132/134/12
f 127/131/7 134/128/14 130/132/10
f 133/121/13 129/130/9 132/134/12
f 133/121/13 132/134/12 137/135/17
f 131/133/11 130/132/10 135/136/15
f 131/133/11 135/136/15 136/137/16
f 132/134/12 131/133/11 136/137/16
f 132/134/12 136/137/16 137/135/17
f 130/132/10 134/128/14 135/136/15
f 133/121/13 137/135/17 140/138/20
f 136/137/16 135/136/15 138/139/18
f 136/137/16 138/139/18 139/140/19
f 137/135/17 136/137/16 139/140/19
f 137/135/17 139/140/19 140/138/20
f 135/136/15 134/128/14 138/139/18
f 133/121/13 140/138/20 123/122/3
f 139/140/19 138/139/18 121/125/1
f 139/140/19 121/125/1 122/124/2
f 140/138/20 139/140/19 122/124/2
f 140/138/20 122/124/2 123/122/3
f 138/139/18 134/128/14 121/125/1
f 153/141/13 143/142/3 146/143/6
f 142/144/2 141/145/1 144/146/4
f 142/144/2 144/146/4 145/147/5
f 143/142/3 142/144/2 145/147/5
f 143/142/3 145/147/5 146/143/6
f 141/145/1 154/148/14 144/146/4
f 146/143/6 145/147/5 148/149/8
f 146/143/6 148/149/8 149/150/9
f 144/146/4 154/148/14 147/151/7
f 153/141/13 146/143/6 149/150/9
f 145/147/5 144/146/4 147/151/7
f 145/147/5 147/151/7 148/149/8
f 148/149/8 147/151/7 150/152/10
f 148/149/8 150/152/10 151/153/11
f 149/150/9 148/149/8 151/153/11
f 149/150/9 151/153/11 152/154/12
f 147/151/7 154/148/14 150/152/10
f 153/141/13 149/150/9 152/154/12
f 153/141/13 152/154/12 157/155/17
f 151/153/11 150/152/10 155/156/15
f 151/153/11 155/156/15 156/157/16
f 152/154/12 151/153/11 156/157/16
f 152/154/12 156/157/16 157/155/17
f 150/152/10 154/148/14 155/156/15
f 153/141/13 157/155/17 160/158/20
f 156/157/16 155/156/15 158/159/18
f 156/157/16 158/159/18 159/160/19
f 157/155/17 156/157/16 159/160/19
f 157/155/17 159/160/19 160/158/20
f 155/156/15 154/148/14 158/159/18
f 153/141/13 160/158/20 143/142/3
f 159/160/19 158/159/18 141/145/1
f 159/160/19 141/145/1 142/144/2
f 160/158/20 159/160/19 142/144/2
f 160/158/20 142/144/2 143/142/3
f 158/159/18 154/148/14 141/145/1
f 173/161/13 163/162/3 166/163/6
f 162/164/2 161/165/1 164/166/4
f 162/164/2 164/166/4 165/167/5
f 163/162/3 162/164/2 165/167/5
f 163/162/3 165/167/5 166/163/6
f 161/165/1 174/168/14 164/166/4
f 166/163/6 165/167/5 168/169/8
f 166/163/6 168/169/8 169/170/9
f 164/166/4 174/168/14 167/171/7
f 173/161/13 166/163/6 169/170/9
f 165/167/5 164/166/4 167/171/7
f 165/167/5 167/171/7 168/169/8
f 168/169/8 167/171/7 170/172/10
f 168/169/8 170/172/10 171/173/11
f 169/170/9 168/169/8 171/173/11
f 169/170/9 171/173/11 172/174/12
f 167/171/7 174/168/14 170/172/10
f 173/161/13 169/170/9 172/174/12
f 173/161/13 172/174/12 177/175/17
f 171/173/11 170/172/10 175/176/15
f 171/173/11 175/176/15 176/177/16
f 172/174/12 171/173/11 176/177/16
f 172/174/12 176/177/16 177/175/17
f 170/172/10 174/168/14 175/176/15
f 173/161/13 177/175/17 180/178/20
f 176/177/16 175/176/15 178/179/18
f 176/177/16 178/179/18 179/180/19
f 177/175/17 176/177/16 179/180/19
f 177/175/17 179/180/19 180/178/20
f 175/176/15 174/168/14 178/179/18
f 173/161/13 180/178/20 163/162/3
f 179/180/19 178/179/18 161/165/1
f 179/180/19 161/165/1 162/164/2
f 180/178/20 179/180/19 162/164/2
f 180/178/20 162/164/2 163/162/3
f 178/179/18 174/168/14 161/165/1
f 193/181/13 183/182/3 186/183/6
f 182/184/2 181/185/1 184/186/4
f 182/184/2 184/186/4 185/187/5
f 183/182/3 182/184/2 185/187/5
f 183/182/3 185/187/5 186/183/6
f 181/185/1 194/188/14 184/186/4
f 186/183/6 185/187/5 188/189/8
f 186/183/6 188/189/8 189/190/9
f 184/186/4 194/188/14 187/191/7
f 193/181/13 186/183/6 189/190/9
f 185/187/5 184/186/4 187/191/7
f 185/187/5 187/191/7 188/189/8
f 188/189/8 187/191/7 190/192/10
f 188/189/8 190/192/10 191/193/11
f 189/190/9 188/189/8 191/193/11
f 189/190/9 191/193/11 192/194/12
f 187/191/7 194/188/14 190/192/10
f 193/181/13 189/190/9 192/194/12
f 193/181/13 192/194/12 197/195/17
f 191/193/11 190/192/10 195/196/15
f 191/193/11 195/196/15 196/197/16
f 192/194/12 191/193/11 196/197/16
f 192/194/12 196/197/16 197/195/17
f 190/192/10 194/188/14 195/196/15
f 193/181/13 197/195/17 200/198/20
f 196/197/16 195/196/15 198/199/18
f 196/197/16 198/199/18 199/200/19
f 197/195/17 196/197/16 199/200/19
f 197/195/17 199/200/19 200/198/20
f 195/196/15 194/188/14 198/199/18
f 193/181/13 200/198/20 183/182/3
f 199/200/19 198/199/18 181/185/1
f 199/200/19 181/185/1 182/184/2
f 200/198/20 199/200/19 182/184/2
f 200/198/20 182/184/2 183/182/3
f 198/199/18 194/188/14 181/185/1
f 213/201/13 203/202/3 206/203/6
f 202/204/2 201/205/1 204/206/4
f 202/204/2 204/206/4 205/207/5
f 203/202/3 202/204/2 205/207/5
f 203/202/3 205/207/5 206/203/6
f 201/205/1 214/208/14 204/206/4
f 206/203/6 205/207/5 208/209/8
f 206/203/6 208/209/8 209/210/9
f 204/206/4 214/208/14 207/211/7
f 213/201/13 206/203/6 209/210/9
f 205/207/5 204/206/4 207/211/7
f 205/207/5 207/211/7 208/209/8
f 208/209/8 207/211/7 210/212/10
f 208/209/8 210/212/10 211/213/11
f 209/210/9 208/209/8 211/213/11
f 209/210/9 211/213/11 212/214/12
f 207/211/7 214/208/14 210/212/10
f 213/201/13 209/210/9 212/214/12
f 213/201/13 212/214/12 217/215/17
f 211/213/11 210/212/10 215/216/15
f 211/213/11 215/216/15 216/217/16
f 212/214/12 211/213/11 216/217/16
f 212/214/12 216/217/16 217/215/17
f 210/212/10 214/208/14 215/216/15
f 213/201/13 217/215/17 220/218/20
f 216/217/16 215/216/15 218/219/18
f 216/217/16 218/219/18 219/220/19
f 217/215/17 216/217/16 219/220/19
f 217/215/17 219/220/19 220/218/20
f 215/216/15 214/208/14 218/219/18
f 213/201/13 220/218/20 203/202/3
f 219/220/19 218/219/18 201/205/1
f 219/220/19 201/205/1 202/204/2
f 220/218/20 219/220/19 202/204/2
f 220/218/20 202/204/2 203/202/3
f 218/219/18 214/208/14 201/205/1
f 233/221/13 223/222/3 226/223/6
f 222/224/2 221/225/1 224/226/4
f 222/224/2 224/226/4 225/227/5
f 223/222/3 222/224/2 225/227/5
f 223/222/3 225/227/5 226/223/6
f 221/225/1 234/228/14 224/226/4
f 226/223/6 225/227/5 228/229/8
f 226/223/6 228/229/8 229/230/9
f 224/226/4 234/228/14 227/231/7
f 233/221/13 226/223/6 229/230/9
f 225/227/5 224/226/4 227/231/7
f 225/227/5 227/231/7 228/229/8
f 228/229/8 227/231/7 230/232/10
f 228/229/8 230/232/10 231/233/11
f 229/230/9 228/229/8 231/233/11
f 229/230/9 231/233/11 232/234/12
f 227/231/7 234/228/14 230/232/10
f 233/221/13 229/230/9 232/234/12
f 233/221/13 232/234/12 237/235/17
f 231/233/11 230/232/10 235/236/15
f 231/233/11 235/236/15 236/237/16
f 232/234/12 231/233/11 236/237/16
f 232/234/12 236/237/16 237/235/17
f 230/232/10 234/228/14 235/236/15
f 233/221/13 237/235/17 240/238/20
f 236/237/16 235/236/15 238/239/18
f 236/237/16 238/239/18 239/240/19
f 237/235/17 236/237/16 239/240/19
f 237/235/17 239/240/19 240/238/20
f 235/236/15 234/228/14 238/239/18
f 233/221/13 240/238/20 223/222/3
f 239/240/19 238/239/18 221/225/1
f 239/240/19 221/225/1 222/224/2
f 240/238/20 239/240/19 222/224/2
f 240/238/20 222/224/2 223/222/3
f 238/239/18 234/228/14 221/225/1
f 253/241/13 243/242/3 246/243/6
f 242/244/2 241/245/1 244/246/4
f 242/244/2 244/246/4 245/247/5
f 243/242/3 242/244/2 245/247/5
f 243/242/3 245/247/5 246/243/6
f 241/245/1 254/248/14 244/246/4
f 246/243/6 245/247/5 248/249/8
f 246/243/6 248/249/8 249/250/9
f 244/246/4 254/248/14 247/251/7
f 253/241/13 246/243/6 249/250/9
f 245/247/5 244/246/4 247/251/7
f 245/247/5 247/251/7 248/249/8
f 248/249/8 247/251/7 250/252/10
f 248/249/8 250/252/10 251/253/11
f 249/250/9 248/249/8 251/253/11
f 249/250/9 251/253/11 252/254/12
f 247/251/7 254/248/14 250/252/10
f 253/241/13 249/250/9 252/254/12
f 253/241/13 252/254/12 257/255/17
f 251/253/11 250/252/10 255/256/15
f 251/253/11 255/256/15 256/257/16
f 252/254/12 251/253/11 256/257/16
f 252/254/12 256/257/16 257/255/17
f 250/252/10 254/248/14 255/256/15
f 253/241/13 257/255/17 260/258/20
f 256/257/16 255/256/15 258/259/18
f 256/257/16 258/259/18 259/260/19
f 257/255/17 256/257/16 259/260/19
f 257/255/17 259/260/19 260/258/20
f 255/256/15 254/248/14 258/259/18
f 253/241/13 260/258/20 243/242/3
f 259/260/19 258/259/18 241/245/1
f 259/260/19 241/245/1 242/244/2
f 260/258/20 259/260/19 242/244/2
f 260/258/20 242/244/2 243/242/3
f 258/259/18 254/248/14 241/245/1
f 273/261/13 263/262/3 266/263/6
f 262/264/2 261/265/1 264/266/4
f 262/264/2 264/266/4 265/267/5
f 263/262/3 262/264/2 265/267/5
f 263/262/3 265/267/5 266/263/6
f 261/265/1 274/268/14 264/266/4
f 266/263/6 265/267/5 268/269/8
f 266/263/6 268/269/8 269/270/9
f 264/266/4 274/268/14 267/271/7
f 273/261/13 266/263/6 269/270/9
f 265/267/5 264/266/4 267/271/7
f 265/267/5 267/271/7 268/269/8
f 268/269/8 267/271/7 270/272/10
f 268/269/8 270/272/10 271/273/11
f 269/270/9 268/269/8 271/273/11
f 269/270/9 271/273/11 272/274/12
f 267/271/7 274/268/14 270/272/10
f 273/261/13 269/270/9 272/274/12
f 273/261/13 272/274/12 277/275/17
f 271/273/11 270/272/10 275/276/15
f 271/273/11 275/276/15 276/277/16
f 272/274/12 271/273/11 276/277/16
f 272/274/12 276/277/16 277/275/17
f 270/272/10 274/268/14 275/276/15
f 273/261/13 277/275/17 280/278/20
f 276/277/16 275/276/15 278/279/18
f 276/277/16 278/279/18 279/280/19
f 277/275/17 276/277/16 279/280/19
f 277/275/17 279/280/19 280/278/20
f 275/276/15 274/268/14 278/279/18
f 273/261/13 280/278/20 263/262/3
f 279/280/19 278/279/18 261/265/1
f 279/280/19 261/265/1 262/264/2
f 280/278/20 279/280/19 262/264/2
f 280/278/20 262/264/2 263/262/3
f 278/279/18 274/268/14 261/265/1
f 293/281/13 283/282/3 286/283/6
f 282/284/2 281/285/1 284/286/4
f 282/284/2 284/286/4 285/287/5
f 283/282/3 282/284/2 285/287/5
f 283/282/3 285/287/5 286/283/6
f 281/285/1 294/288/14 284/286/4
f 286/283/6 285/287/5 288/289/8
f 286/283/6 288/289/8 289/290/9
f 284/286/4 294/288/14 287/291/7
f 293/281/13 286/283/6 289/290/9
f 285/287/5 284/286/4 287/291/7
f 285/287/5 287/291/7 288/289/8
f 288/289/8 287/291/7 290/292/10
f 288/289/8 290/292/10 291/293/11
f 289/290/9 288/289/8 291/293/11
f 289/290/9 291/293/11 292/294/12
f 287/291/7 294/288/14 290/292/10
f 293/281/13 289/290/9 292/294/12
f 293/281/13 292/294/12 297/295/17
f 291/293/11 290/292/10 295/296/15
f 291/293/11 295/296/15 296/297/16
f 292/294/12 291/293/11 296/297/16
f 292/294/12 296/297/16 297/295/17
f 290/292/10 294/288/14 295/296/15
f 293/281/13 297/295/17 300/298/20
f 296/297/16 295/296/15 298/299/18
f 296/297/16 298/299/18 299/300/19
f 297/295/17 296/297/16 299/300/19
f 297/295/17 299/300/19 300/298/20
f 295/296/15 294/288/14 298/299/18
f 293/281/13 300/298/20 283/282/3
f 299/300/19 298/299/18 281/285/1
f 299/300/19 281/285/1 282/284/2
f 300/298/20 299/300/19 282/284/2
f 300/298/20 282/284/2 283/282/3
f 298/299/18 294/288/14 281/285/1
f 313/301/13 303/302/3 306/303/6
f 302/304/2 301/305/1 304/306/4
f 302/304/2 304/306/4 305/307/5
f 303/302/3 302/304/2 305/307/5
f 303/302/3 305/307/5 306/303/6
f 301/305/1 314/308/14 304/306/4
f 306/303/6 305/307/5 308/309/8
f 306/303/6 308/309/8 309/310/9
f 304/306/4 314/308/14 307/311/7
f 313/301/13 306/303/6 309/310/9
f 305/307/5 304/306/4 307/311/7
f 305/307/5 307/311/7 308/309/8
f 308/309/8 307/311/7 310/312/10
f 308/309/8 310/312/10 311/313/11
f 309/310/9 308/309/8 311/313/11
f 309/310/9 311/313/11 312/314/12
f 307/311/7 314/308/14 310/312/10
f 313/301/13 309/310/9 312/314/12
f 313/301/13 312/314/12 317/315/17
f 311/313/11 310/312/10 315/316/15
f 311/313/11 315/316/15 316/317/16
f 312/314/12 311/313/11 316/317/16
f 312/314/12 316/317/16 317/315/17
f 310/312/10 314/308/14 315/316/15
f 313/301/13 317/315/17 320/318/20
f 316/317/16 315/316/15 318/319/18
f 316/317/16 318/319/18 319/320/19
f 317/315/17 316/317/16 319/320/19
f 317/315/17 319/320/19 320/318/20
f 315/316/15 314/308/14 318/319/18
f 313/301/13 320/318/20 303/302/3
f 319/320/19 318/319/18 301/305/1
f 319/320/19 301/305/1 302/304/2
f 320/318/20 319/320/19 302/304/2
f 320/318/20 302/304/2 303/302/3
f 318/319/18 314/308/14 301/305/1
f 333/321/13 323/322/3 326/323/6
f 322/324/2 321/325/1 324/326/4
f 322/324/2 324/326/4 325/327/5
f 323/322/3 322/324/2 325/327/5
f 323/322/3 325/327/5 326/323/6
f 321/325/1 334/328/14 324/326/4
f 326/323/6 325/327/5 328/329/8
f 326/323/6 328/329/8 329/330/9
f 324/326/4 334/328/14 327/331/7
f 333/321/13 326/323/6 329/330/9
f 325/327/5 324/326/4 327/331/7
f 325/327/5 327/331/7 328/329/8
f 328/329/8 327/331/7 330/332/10
f 328/329/8 330/332/10 331/333/11
f 329/330/9 328/329/8 331/333/11
f 329/330/9 331/333/11 332/334/12
f 327/331/7 334/328/14 330/332/10
f 333/321/13 329/330/9 332/334/12
f 333/321/13 332/334/12 337/335/17
f 331/333/11 330/332/10 335/336/15
f 331/333/11 335/336/15 336/337/16
f 332/334/12 331/333/11 336/337/16
f 332/334/12 336/337/16 337/335/17
f 330/332/10 334/328/14 335/336/15
f 333/321/13 337/335/17 340/338/20
f 336/337/16 335/336/15 338/339/18
f 336/337/16 338/339/18 339/340/19
f 337/335/17 336/337/16 339/340/19
f 337/335/17 339/340/19 340/338/20
f 335/336/15 334/328/14 338/339/18
f 333/321/13 340/338/20 323/322/3
f 339/340/19 338/339/18 321/325/1
f 339/340/19 321/325/1 322/324/2
f 340/338/20 339/340/19 322/324/2
f 340/338/20 322/324/2 323/322/3
f 338/339/18 334/328/14 321/325/1
f 353/341/13 343/342/3 346/343/6
f 342/344/2 341/345/1 344/346/4
f 342/344/2 344/346/4 345/347/5
f 343/342/3 342/344/2 345/347/5
f 343/342/3 345/347/5 346/343/6
f 341/345/1 354/348/14 344/346/4
f 346/343/6 345/347/5 348/349/8
f 346/343/6 348/349/8 349/350/9
f 344/346/4 354/348/14 347/351/7
f 353/341/13 346/343/6 349/350/9
f 345/347/5 344/346/4 347/351/7
f 345/347/5 347/351/7 348/349/8
f 348/349/8 347/351/7 350/352/10
f 348/349/8 350/352/10 351/353/11
f 349/350/9 348/349/8 351/353/11
f 349/350/9 351/353/11 352/354/12
f 347/351/7 354/348/14 350/352/10
f 353/341/13 349/350/9 352/354/12
f 353/341/13 352/354/12 357/355/17
f 351/353/11 350/352/10 355/356/15
f 351/353/11 355/356/15 356/357/16
f 352/354/12 351/353/11 356/357/16
f 352/354/12 356/357/16 357/355/17
f 350/352/10 354/348/14 355/356/15
f 353/341/13 357/355/17 360/358/20
f 356/357/16 355/356/15 358/359/18
f 356/357/16 358/359/18 359/360/19
f 357/355/17 356/357/16 359/360/19
f 357/355/17 359/360/19 360/358/20
f 355/356/15 354/348/14 358/359/18
f 353/341/13 360/358/20 343/342/3
f 359/360/19 358/359/18 341/345/1
f 359/360/19 341/345/1 342/344/2
f 360/358/20 359/360/19 342/344/2
f 360/358/20 342/344/2 343/342/3
f 358/359/18 354/348/14 341/345/1
f 373/361/13 363/362/3 366/363/6
f 362/364/2 361/365/1 364/366/4
f 362/364/2 364/366/4 365/367/5
f 363/362/3 362/364/2 365/367/5
f 363/362/3 365/367/5 366/363/6
f 361/365/1 374/368/14 364/366/4
f 366/363/6 365/367/5 368/369/8
f 366/363/6 368/369/8 369/370/9
f 364/366/4 374/368/14 367/371/7
f 373/361/13 366/363/6 369/370/9
f 365/367/5 364/366/4 367/371/7
f 365/367/5 367/371/7 368/369/8
f 368/369/8 367/371/7 370/372/10
f 368/369/8 370/372/10 371/373/11
f 369/370/9 368/369/8 371/373/11
f 369/370/9 371/373/11 372/374/12
f 367/371/7 374/368/14 370/372/10
f 373/361/13 369/370/9 372/374/12
f 373/361/13 372/374/12 377/375/17
f 371/373/11 370/372/10 375/376/15
f 371/373/11 375/376/15 376/377/16
f 372/374/12 371/373/11 376/377/16
f 372/374/12 376/377/16 377/375/17
f 370/372/10 374/368/14 375/376/15
f 373/361/13 377/375/17 380/378/20
f 376/377/16 375/376/15 378/379/18
f 376/377/16 378/379/18 379/380/19
f 377/375/17 376/377/16 379/380/19
f 377/375/17 379/380/19 380/378/20
f 375/376/15 374/368/14 378/379/18
f 373/361/13 380/378/20 363/362/3
f 379/380/19 378/379/18 361/365/1
f 379/380/19 361/365/1 362/364/2
f 380/378/20 379/380/19 362/364/2
f 380/378/20 362/364/2 363/362/3
f 378/379/18 374/368/14 361/365/1
f 393/381/13 383/382/3 386/383/6
f 382/384/2 381/385/1 384/386/4
f 382/384/2 384/386/4 385/387/5
f 383/382/3 382/384/2 385/387/5
f 383/382/3 385/387/5 386/383/6
f 381/385/1 394/388/14 384/386/4
f 386/383/6 385/387/5 388/389/8
f 386/383/6 388/389/8 389/390/9
f 384/386/4 394/388/14 387/391/7
f 393/381/13 386/383/6 389/390/9
f 385/387/5 384/386/4 387/391/7
f 385/387/5 387/391/7 388/389/8
f 388/389/8 387/391/7 390/392/10
f 388/389/8 390/392/10 391/393/11
f 389/390/9 388/389/8 391/393/11
f 389/390/9 391/393/11 392/394/12
f 387/391/7 394/388/14 390/392/10
f 393/381/13 389/390/9 392/394/12
f 393/381/13 392/394/12 397/395/17
f 391/393/11 390/392/10 395/396/15
f 391/393/11 395/396/15 396/397/16
f 392/394/12 391/393/11 396/397/16
f 392/394/12 396/397/16 397/395/17
f 390/392/10 394/388/14 395/396/15
f 393/381/13 397/395/17 400/398/20
f 396/397/16 395/396/15 398/399/18
f 396/397/16 398/399/18 399/400/19
f 397/395/17 396/397/16 399/400/19
f 397/395/17 399/400/19 400/398/20
f 395/396/15 394/388/14 398/399/18
f 393/381/13 400/398/20 383/382/3
f 399/400/19 398/399/18 381/385/1
f 399/400/19 381/385/1 382/384/2
f 400/398/20 399/400/19 382/384/2
f 400/398/20 382/384/2 383/382/3
f 398/399/18 394/388/14 381/385/1
f 413/401/13 403/402/3 406/403/6
f 402/404/2 401/405/1 404/406/4
f 402/404/2 404/406/4 405/407/5
f 403/402/3 402/404/2 405/407/5
f 403/402/3 405/407/5 406/403/6
f 401/405/1 414/408/14 404/406/4
f 406/403/6 405/407/5 408/409/8
f 406/403/6 408/409/8 409/410/9
f 404/406/4 414/408/14 407/411/7
f 413/401/13 406/403/6 409/410/9
f 405/407/5 404/406/4 407/411/7
f 405/407/5 407/411/7 408/409/8
f 408/409/8 407/411/7 410/412/10
f 408/409/8 410/412/10 411/413/11
f 409/410/9 408/409/8 411/413/11
f 409/410/9 411/413/11 412/414/12
f 407/411/7 414/408/14 410/412/10
f 413/401/13 409/410/9 412/414/12
f 413/401/13 412/414/12 417/415/17
f 411/413/11 410/412/10 415/416/15
f 411/413/11 415/416/15 416/417/16
f 412/414/12 411/413/11 416/417/16
f 412/414/12 416/417/16 417/415/17
f 410/412/10 414/408/14 415/416/15
f 413/401/13 417/415/17 420/418/20
f 416/417/16 415/416/15 418/419/18
f 416/417/16 418/419/18 419/420/19
f 417/415/17 416/417/16 419/420/19
f 417/415/17 419/420/19 420/418/20
f 415/416/15 414/408/14 418/419/18
f 413/401/13 420/418/20 403/402/3
f 419/420/19 418/419/18 401/405/1
f 419/420/19 401/405/1 402/404/2
f 420/418/20 419/420/19 402/404/2
f 420/418/20 402/404/2 403/402/3
f 418/419/18 414/408/14 401/405/1
f 433/421/13 423/422/3 426/423/6
f 422/424/2 421/425/1 424/426/4
f 422/424/2 424/426/4 425/427/5
f 423/422/3 422/424/2 425/427/5
f 423/422/3 425/427/5 426/423/6
f 421/425/1 434/428/14 424/426/4
f 426/423/6 425/427/5 428/429/8
f 426/423/6 428/429/8 429/430/9
f 424/426/4 434/428/14 427/431/7
f 433/421/13 426/423/6 429/430/9
f 425/427/5 424/426/4 427/431/7
f 425/427/5 427/431/7 428/429/8
f 428/429/8 427/431/7 430/432/10
f 428/429/8 430/432/10 431/433/11
f 429/430/9 428/429/8 431/433/11
f 429/430/9 431/433/11 432/434/12
f 427/431/7 434/428/14 430/432/10
f 433/421/13 429/430/9 432/434/12
f 433/421/13 432/434/12 437/435/17
f 431/433/11 430/432/10 435/436/15
f 431/433/11 435/436/15 436/437/16
f 432/434/12 431/433/11 436/437/16
f 432/434/12 436/437/16 437/435/17
f 430/432/10 434/428/14 435/436/15
f 433/421/13 437/435/17 440/438/20
f 436/437/16 435/436/15 438/439/18
f 436/437/16 438/439/18 439/440/19
f 437/435/17 436/437/16 439/440/19
f 437/435/17 439/440/19 440/438/20
f 435/436/15 434/428/14 438/439/18
f 433/421/13 440/438/20 423/422/3
f 439/440/19 438/439/18 421/425/1
f 439/440/19 421/425/1 422/424/2
f 440/438/20 439/440/19 422/424/2
f 440/438/20 422/424/2 423/422/3
f 438/439/18 434/428/14 421/425/1
f 453/441/13 443/442/3 446/443/6
f 442/444/2 441/445/1 444/446/4
f 442/444/2 444/446/4 445/447/5
f 443/442/3 442/444/2 445/447/5
f 443/442/3 445/447/5 446/443/6
f 441/445/1 454/448/14 444/446/4
f 446/443/6 445/447/5 448/449/8
f 446/443/6 448/449/8 449/450/9
f 444/446/4 454/448/14 447/451/7
f 453/441/13 446/443/6 449/450/9
f 445/447/5 444/446/4 447/451/7
f 445/447/5 447/451/7 448/449/8
f 448/449/8 447/451/7 450/452/10
f 448/449/8 450/452/10 451/453/11
f 449/450/9 448/449/8 451/453/11
f 449/450/9 451/453/11 452/454/12
f 447/451/7 454/448/14 450/452/10
f 453/441/13 449/450/9 452/454/12
f 453/441/13 452/454/12 457/455/17
f 451/453/11 450/452/10 455/456/15
f 451/453/11 455/456/15 456/457/16
f 452/454/12 451/453/11 456/457/16
f 452/454/12 456/457/16 457/455/17
f 450/452/10 454/448/14 455/456/15
f 453/441/13 457/455/17 460/458/20
f 456/457/16 455/456/15 458/459/18
f 456/457/16 458/459/18 459/460/19
f 457/455/17 456/457/16 459/460/19
f 457/455/17 459/460/19 460/458/20
f 455/456/15 454/448/14 458/459/18
f 453/441/13 460/458/20 443/442/3
f 459/460/19 458/459/18 441/445/1
f 459/460/19 441/445/1 442/444/2
f 460/458/20 459/460/19 442/444/2
f 460/458/20 442/444/2 443/442/3
f 458/459/18 454/448/14 441/445/1
f 473/461/13 463/462/3 466/463/6
f 462/464/2 461/465/1 464/466/4
f 462/464/2 464/466/4 465/467/5
f 463/462/3 462/464/2 465/467/5
f 463/462/3 465/467/5 466/463/6
f 461/465/1 474/468/14 464/466/4
f 466/463/6 465/467/5 468/469/8
f 466/463/6 468/469/8 469/470/9
f 464/466/4 474/468/14 467/471/7
f 473/461/13 466/463/6 469/470/9
f 465/467/5 464/466/4 467/471/7
f 465/467/5 467/471/7 468/469/8
f 468/469/8 467/471/7 470/472/10
f 468/469/8 470/472/10 471/473/11
f 469/470/9 468/469/8 471/473/11
f 469/470/9 471/473/11 472/474/12
f 467/471/7 474/468/14 470/472/10
f 473/461/13 469/470/9 472/474/12
f 473/461/13 472/474/12 477/475/17
f 471/473/11 470/472/10 475/476/15
f 471/473/11 475/476/15 476/477/16
f 472/474/12 471/473/11 476/477/16
f 472/474/12 476/477/16 477/475/17
f 470/472/10 474/468/14 475/476/15
f 473/461/13 477/475/17 480/478/20
f 476/477/16 475/476/15 478/479/18
f 476/477/16 478/479/18 479/480/19
f 477/475/17 476/477/16 479/480/19
f 477/475/17 479/480/19 480/478/20
f 475/476/15 474/468/14 478/479/18
f 473/461/13 480/478/20 463/462/3
f 479/480/19 478/479/18 461/465/1
f 479/480/19 461/465/1 462/464/2
f 480/478/20 479/480/19 462/464/2
f 480/478/20 462/464/2 463/462/3
f 478/479/18 474/468/14 461/465/1
f 493/481/13 483/482/3 486/483/6
f 482/484/2 481/485/1 484/486/4
f 482/484/2 484/486/4 485/487/5
f 483/482/3 482/484/2 485/487/5
f 483/482/3 485/487/5 486/483/6
f 481/485/1 494/488/14 484/486/4
f 486/483/6 485/487/5 488/489/8
f 486/483/6 488/489/8 489/490/9
f 484/486/4 494/488/14 487/491/7
f 493/481/13 486/483/6 489/490/9
f 485/487/5 484/486/4 487/491/7
f 485/487/5 487/491/7 488/489/8
f 488/489/8 487/491/7 490/492/10
f 488/489/8 490/492/10 491/493/11
f 489/490/9 488/489/8 491/493/11
f 489/490/9 491/493/11 492/494/12
f 487/491/7 494/488/14 490/492/10
f 493/481/13 489/490/9 492/494/12
f 493/481/13 492/494/12 497/495/17
f 491/493/11 490/492/10 495/496/15
f 491/493/11 495/496/15 496/497/16
f 492/494/12 491/493/11 496/497/16
f 492/494/12 496/497/16 497/495/17
f 490/492/10 494/488/14 495/496/15
f 493/481/13 497/495/17 500/498/20
f 496/497/16 495/496/15 498/499/18
f 496/497/16 498/499/18 499/500/19
f 497/495/17 496/497/16 499/500/19
f 497/495/17 499/500/19 500/498/20
f 495/496/15 494/488/14 498/499/18
f 493/481/13 500/498/20 483/482/3
f 499/500/19 498/499/18 481/485/1
f 499/500/19 481/485/1 482/484/2
f 500/498/20 499/500/19 482/484/2
f 500/498/20 482/484/2 483/482/3
f 498/499/18 494/488/14 481/485/1
f 513/501/13 503/502/3 506/503/6
f 502/504/2 501/505/1 504/506/4
f 502/504/2 504/506/4 505/507/5
f 503/502/3 502/504/2 505/507/5
f 503/502/3 505/507/5 506/503/6
f 501/505/1 514/508/14 504/506/4
f 506/503/6 505/507/5 508/509/8
f 506/503/6 508/509/8 509/510/9
f 504/506/4 514/508/14 507/511/7
f 513/501/13 506/503/6 509/510/9
f 505/507/5 504/506/4 507/511/7
f 505/507/5 507/511/7 508/509/8
f 508/509/8 507/511/7 510/512/10
f 508/509/8 510/512/10 511/513/11
f 509/510/9 508/509/8 511/513/11
f 509/510/9 511/513/11 512/514/12
f 507/511/7 514/508/14 510/512/10
f 513/501/13 509/510/9 512/514/12
f 513/501/13 512/514/12 517/515/17
f 511/513/11 510/512/10 515/516/15
f 511/513/11 515/516/15 516/517/16
f 512/514/12 511/513/11 516/517/16
f 512/514/12 516/517/16 517/515/17
f 510/512/10 514/508/14 515/516/15
f 513/501/13 517/515/17 520/518/20
f 516/517/16 515/516/15 518/519/18
f 516/517/16 518/519/18 519/520/19
f 517/515/17 516/517/16 519/520/19
f 517/515/17 519/520/19 520/518/20
f 515/516/15 514/508/14 518/519/18
f 513/501/13 520/518/20 503/502/3
f 519/520/19 518/519/18 501/505/1
f 519/520/19 501/505/1 502/504/2
f 520/518/20 519/520/19 502/504/2
f 520/518/20 502/504/2 503/502/3
f 518/519/18 514/508/14 501/505/1
f 533/521/13 523/522/3 526/523/6
f 522/524/2 521/525/1 524/526/4
f 522/524/2 524/526/4 525/527/5
f 523/522/3 522/524/2 525/527/5
f 523/522/3 525/527/5 526/523/6
f 521/525/1 534/528/14 524/526/4
f 526/523/6 525/527/5 528/529/8
f 526/523/6 528/529/8 529/530/9
f 524/526/4 534/528/14 527/531/7
f 533/521/13 526/523/6 529/530/9
f 525/527/5 524/526/4 527/531/7
f 525/527/5 527/531/7 528/529/8
f 528/529/8 527/531/7 530/532/10
f 528/529/8 530/532/10 531/533/11
f 529/530/9 528/529/8 531/533/11
f 529/530/9 531/533/11 532/534/12
f 527/531/7 534/528/14 530/532/10
f 533/521/13 529/530/9 532/534/12
f 533/521/13 532/534/12 537/535/17
f 531/533/11 530/532/10 535/536/15
f 531/533/11 535/536/15 536/537/16
f 532/534/12 531/533/11 536/537/16
f 532/534/12 536/537/16 537/535/17
f 530/532/10 534/528/14 535/536/15
f 533/521/13 537/535/17 540/538/20
f 536/537/16 535/536/15 538/539/18
f 536/537/16 538/539/18 539/540/19
f 537/535/17 536/537/16 539/540/19
f 537/535/17 539/540/19 540/538/20
f 535/536/15 534/528/14 538/539/18
f 533/521/13 540/538/20 523/522/3
f 539/540/19 538/539/18 521/525/1
f 539/540/19 521/525/1 522/524/2
f 540/538/20 539/540/19 522/524/2
f 540/538/20 522/524/2 523/522/3
f 538/539/18 534/528/14 521/525/1
f 553/541/13 543/542/3 546/543/6
f 542/544/2 541/545/1 544/546/4
f 542/544/2 544/546/4 545/547/5
f 543/542/3 542/544/2 545/547/5
f 543/542/3 545/547/5 546/543/6
f 541/545/1 554/548/14 544/546/4
f 546/543/6 545/547/5 548/549/8
f 546/543/6 548/549/8 549/550/9
f 544/546/4 554/548/14 547/551/7
f 553/541/13 546/543/6 549/550/9
f 545/547/5 544/546/4 547/551/7
f 545/547/5 547/551/7 548/549/8
f 548/549/8 547/551/7 550/552/10
f 548/549/8 550/552/10 551/553/11
f 549/550/9 548/549/8 551/553/11
f 549/550/9 551/553/11 552/554/12
f 547/551/7 554/548/14 550/552/10
f 553/541/13 549/550/9 552/554/12
f 553/541/13 552/554/12 557/555/17
f 551/553/11 550/552/10 555/556/15
f 551/553/11 555/556/15 556/557/16
f 552/554/12 551/553/11 556/557/16
f 552/554/12 556/557/16 557/555/17
f 550/552/10 554/548/14 555/556/15
f 553/541/13 557/555/17 560/558/20
f 556/557/16 555/556/15 558/559/18
f 556/557/16 558/559/18 559/560/19
f 557/555/17 556/557/16 559/560/19
f 557/555/17 559/560/19 560/558/20
f 555/556/15 554/548/14 558/559/18
f 553/541/13 560/558/20 543/542/3
f 559/560/19 558/559/18 541/545/1
f 559/560/19 541/545/1 542/544/2
f 560/558/20 559/560/19 542/544/2
f 560/558/20 542/544/2 543/542/3
f 558/559/18 554/548/14 541/545/1
f 573/561/13 563/562/3 566/563/6
f 562/564/2 561/565/1 564/566/4
f 562/564/2 564/566/4 565/567/5
f 563/562/3 562/564/2 565/567/5
f 563/562/3 565/567/5 566/563/6
f 561/565/1 574/568/14 564/566/4
f 566/563/6 565/567/5 568/569/8
f 566/563/6 568/569/8 569/570/9
f 564/566/4 574/568/14 567/571/7
f 573/561/13 566/563/6 569/570/9
f 565/567/5 564/566/4 567/571/7
f 565/567/5 567/571/7 568/569/8
f 568/569/8 567/571/7 570/572/10
f 568/569/8 570/572/10 571/573/11
f 569/570/9 568/569/8 571/573/11
f 569/570/9 571/573/11 572/574/12
f 567/571/7 574/568/14 570/572/10
f 573/561/13 569/570/9 572/574/12
f 573/561/13 572/574/12 577/575/17
f 571/573/11 570/572/10 575/576/15
f 571/573/11 575/576/15 576/577/16
f 572/574/12 571/573/11 576/577/16
f 572/574/12 576/577/16 577/575/17
f 570/572/10 574/568/14 575/576/15
f 573/561/13 577/575/17 580/578/20
f 576/577/16 575/576/15 578/579/18
f 576/577/16 578/579/18 579/580/19
f 577/575/17 576/577/16 579/580/19
f 577/575/17 579/580/19 580/578/20
f 575/576/15 574/568/14 578/579/18
f 573/561/13 580/578/20 563/562/3
f 579/580/19 578/579/18 561/565/1
f 579/580/19 561/565/1 562/564/2
f 580/578/20 579/580/19 562/564/2
f 580/578/20 562/564/2 563/562/3
f 578/579/18 574/568/14 561/565/1
f 593/581/33 583/582/23 586/583/26
f 582/584/22 581/585/21 584/586/24
f 582/584/22 584/586/24 585/587/25
f 583/582/23 582/584/22 585/587/25
f 583/582/23 585/587/25 586/583/26
f 581/585/21 594/588/34 584/586/24
f 586/583/26 585/587/25 588/589/28
f 586/583/26 588/589/28 589/590/29
f 584/586/24 594/588/34 587/591/27
f 593/581/33 586/583/26 589/590/29
f 585/587/25 584/586/24 587/591/27
f 585/587/25 587/591/27 588/589/28
f 588/589/28 587/591/27 590/592/30
f 588/589/28 590/592/30 591/593/31
f 589/590/29 588/589/28 591/593/31
f 589/590/29 591/593/31 592/594/32
f 587/591/27 594/588/34 590/592/30
f 593/581/33 589/590/29 592/594/32
f 593/581/33 592/594/32 597/595/37
f 591/593/31 590/592/30 595/596/35
f 591/593/31 595/596/35 596/597/36
f 592/594/32 591/593/31 596/597/36
f 592/594/32 596/597/36 597/595/37
f 590/592/30 594/588/34 595/596/35
f 593/581/33 597/595/37 600/598/40
f 596/597/36 595/596/35 598/599/38
f 596/597/36 598/599/38 599/600/39
f 597/595/37 596/597/36 599/600/39
f 597/595/37 599/600/39 600/598/40
f 595/596/35 594/588/34 598/599/38
f 593/581/33 600/598/40 583/582/23
f 599/600/39 598/599/38 581/585/21
f 599/600/39 581/585/21 582/584/22
f 600/598/40 599/600/39 582/584/22
f 600/598/40 582/584/22 583/582/23
f 598/599/38 594/588/34 581/585/21
f 613/601/33 603/602/23 606/603/26
f 602/604/22 601/605/21 604/606/24
f 602/604/22 604/606/24 605/607/25
f 603/602/23 602/604/22 605/607/25
f 603/602/23 605/607/25 606/603/26
f 601/605/21 614/608/34 604/606/24
f 606/603/26 605/607/25 608/609/28
f 606/603/26 608/609/28 609/610/29
f 604/606/24 614/608/34 607/611/27
f 613/601/33 606/603/26 609/610/29
f 605/607/25 604/606/24 607/611/27
f 605/607/25 607/611/27 608/609/28
f 608/609/28 607/611/27 610/612/30
f 608/609/28 610/612/30 611/613/31
f 609/610/29 608/609/28 611/613/31
f 609/610/29 611/613/31 612/614/32
f 607/611/27 614/608/34 610/612/30
f 613/601/33 609/610/29 612/614/32
f 613/601/33 612/614/32 617/615/37
f 611/613/31 610/612/30 615/616/35
f 611/613/31 615/616/35 616/617/36
f 612/614/32 611/613/31 616/617/36
f 612/614/32 616/617/36 617/615/37
f 610/612/30 614/608/34 615/616/35
f 613/601/33 617/615/37 620/618/40
f 616/617/36 615/616/35 618/619/38
f 616/617/36 618/619/38 619/620/39
f 617/615/37 616/617/36 619/620/39
f 617/615/37 619/620/39 620/618/40
f 615/616/35 614/608/34 618/619/38
f 613/601/33 620/618/40 603/602/23
f 619/620/39 618/619/38 601/605/21
f 619/620/39 601/605/21 602/604/22
f 620/618/40 619/620/39 602/604/22
f 620/618/40 602/604/22 603/602/23
f 618/619/38 614/608/34 601/605/21
f 633/621/33 623/622/23 626/623/26
f 622/624/22 621/625/21 624/626/24
f 622/624/22 624/626/24 625/627/25
f 623/622/23 622/624/22 625/627/25
f 623/622/23 625/627/25 626/623/26
f 621/625/21 634/628/34 624/626/24
f 626/623/26 625/627/25 628/629/28
f 626/623/26 628/629/28 629/630/29
f 624/626/24 634/628/34 627/631/27
f 633/621/33 626/623/26 629/630/29
f 625/627/25 624/626/24 627/631/27
f 625/627/25 627/631/27 628/629/28
f 628/629/28 627/631/27 630/632/30
f 628/629/28 630/632/30 631/633/31
f 629/630/29 628/629/28 631/633/31
f 629/630/29 631/633/31 632/634/32
f 627/631/27 634/628/34 630/632/30
f 633/621/33 629/630/29 632/634/32
f 633/621/33 632/634/32 637/635/37
f 631/633/31 630/632/30 635/636/35
f 631/633/31 635/636/35 636/637/36
f 632/634/32 631/633/31 636/637/36
f 632/634/32 636/637/36 637/635/37
f 630/632/30 634/628/34 635/636/35
f 633/621/33 637/635/37 640/638/40
f 636/637/36 635/636/35 638/639/38
f 636/637/36 638/639/38 639/640/39
f 637/635/37 636/637/36 639/640/39
f 637/635/37 639/640/39 640/638/40
f 635/636/35 634/628/34 638/639/38
f 633/621/33 640/638/40 623/622/23
f 639/640/39 638/639/38 621/625/21
f 639/640/39 621/625/21 622/624/22
f 640/638/40 639/640/39 622/624/22
f 640/638/40 622/624/22 623/622/23
f 638/639/38 634/628/34 621/625/21
f 653/641/33 643/642/23 646/643/26
f 642/644/22 641/645/21 644/646/24
f 642/644/22 644/646/24 645/647/25
f 643/642/23 642/644/22 645/647/25
f 643/642/23 645/647/25 646/643/26
f 641/645/21 654/648/34 644/646/24
f 646/643/26 645/647/25 648/649/28
f 646/643/26 648/649/28 649/650/29
f 644/646/24 654/648/34 647/651/27
f 653/641/33 646/643/26 649/650/29
f 645/647/25 644/646/24 647/651/27
f 645/647/25 647/651/27 648/649/28
f 648/649/28 647/651/27 650/652/30
f 648/649/28 650/652/30 651/653/31
f 649/650/29 648/649/28 651/653/31
f 649/650/29 651/653/31 652/654/32
f 647/651/27 654/648/34 650/652/30
f 653/641/33 649/650/29 652/654/32
f 653/641/33 652/654/32 657/655/37
f 651/653/31 650/652/30 655/656/35
f 651/653/31 655/656/35 656/657/36
f 652/654/32 651/653/31 656/657/36
f 652/654/32 656/657/36 657/655/37
f 650/652/30 654/648/34 655/656/35
f 653/641/33 657/655/37 660/658/40
f 656/657/36 655/656/35 658/659/38
f 656/657/36 658/659/38 659/660/39
f 657/655/37 656/657/36 659/660/39
f 657/655/37 659/660/39 660/658/40
f 655/656/35 654/648/34 658/659/38
f 653/641/33 660/658/40 643/642/23
f 659/660/39 658/659/38 641/645/21
f 659/660/39 641/645/21 642/644/22
f 660/658/40 659/660/39 642/644/22
f 660/658/40 642/644/22 643/642/23
f 658/659/38 654/648/34 641/645/21
f 673/661/33 663/662/23 666/663/26
f 662/664/22 661/665/21 664/666/24
f 662/664/22 664/666/24 665/667/25
f 663/662/23 662/664/22 665/667/25
f 663/662/23 665/667/25 666/663/26
f 661/665/21 674/668/34 664/666/24
f 666/663/26 665/667/25 668/669/28
f 666/663/26 668/669/28 669/670/29
f 664/666/24 674/668/34 667/671/27
f 673/661/33 666/663/26 669/670/29
f 665/667/25 664/666/24 667/671/27
f 665/667/25 667/671/27 668/669/28
f 668/669/28 667/671/27 670/672/30
f 668/669/28 670/672/30 671/673/31
f 669/670/29 668/669/28 671/673/31
f 669/670/29 671/673/31 672/674/32
f 667/671/27 674/668/34 670/672/30
f 673/661/33 669/670/29 672/674/32
f 673/661/33 672/674/32 677/675/37
f 671/673/31 670/672/30 675/676/35
f 671/673/31 675/676/35 676/677/36
f 672/674/32 671/673/31 676/677/36
f 672/674/32 676/677/36 677/675/37
f 670/672/30 674/668/34 675/676/35
f 673/661/33 677/675/37 680/678/40
f 676/677/36 675/676/35 678/679/38
f 676/677/36 678/679/38 679/680/39
f 677/675/37 676/677/36 679/680/39
f 677/675/37 679/680/39 680/678/40
f 675/676/35 674/668/34 678/679/38
f 673/661/33 680/678/40 663/662/23
f 679/680/39 678/679/38 661/665/21
f 679/680/39 661/665/21 662/664/22
f 680/678/40 679/680/39 662/664/22
f 680/678/40 662/664/22 663/662/23
f 678/679/38 674/668/34 661/665/21
f 693/681/33 683/682/23 686/683/26
f 682/684/22 681/685/21 684/686/24
f 682/684/22 684/686/24 685/687/25
f 683/682/23 682/684/22 685/687/25
f 683/682/23 685/687/25 686/683/26
f 681/685/21 694/688/34 684/686/24
f 686/683/26 685/687/25 688/689/28
f 686/683/26 688/689/28 689/690/29
f 684/686/24 694/688/34 687/691/27
f 693/681/33 686/683/26 689/690/29
f 685/687/25 684/686/24 687/691/27
f 685/687/25 687/691/27 688/689/28
f 688/689/28 687/691/27 690/692/30
f 688/689/28 690/692/30 691/693/31
f 689/690/29 688/689/28 691/693/31
f 689/690/29 691/693/31 692/694/32
f 687/691/27 694/688/34 690/692/30
f 693/681/33 689/690/29 692/694/32
f 693/681/33 692/694/32 697/695/37
f 691/693/31 690/692/30 695/696/35
f 691/693/31 695/696/35 696/697/36
f 692/694/32 691/693/31 696/697/36
f 692/694/32 696/697/36 697/695/37
f 690/692/30 694/688/34 695/696/35
f 693/681/33 697/695/37 700/698/40
f 696/697/36 695/696/35 698/699/38
f 696/697/36 698/699/38 699/700/39
f 697/695/37 696/697/36 699/700/39
f 697/695/37 699/700/39 700/698/40
f 695/696/35 694/688/34 698/699/38
f 693/681/33 700/698/40 683/682/23
f 699/700/39 698/699/38 681/685/21
f 699/700/39 681/685/21 682/684/22
f 700/698/40 699/700/39 682/684/22
f 700/698/40 682/684/22 683/682/23
f 698/699/38 694/688/34 681/685/21
f 713/701/33 703/702/23 706/703/26
f 702/704/22 701/705/21 704/706/24
f 702/704/22 704/706/24 705/707/25
f 703/702/23 702/704/22 705/707/25
f 703/702/23 705/707/25 706/703/26
f 701/705/21 714/708/34 704/706/24
f 706/703/26 705/707/25 708/709/28
f 706/703/26 708/709/28 709/710/29
f 704/706/24 714/708/34 707/711/27
f 713/701/33 706/703/26 709/710/29
f 705/707/25 704/706/24 707/711/27
f 705/707/25 707/711/27 708/709/28
f 708/709/28 707/711/27 710/712/30
f 708/709/28 710/712/30 711/713/31
f 709/710/29 708/709/28 711/713/31
f 709/710/29 711/713/31 712/714/32
f 707/711/27 714/708/34 710/712/30
f 713/701/33 709/710/29 712/714/32
f 713/701/33 712/714/32 717/715/37
f 711/713/31 710/712/30 715/716/35
f 711/713/31 715/716/35 716/717/36
f 712/714/32 711/713/31 716/717/36
f 712/714/32 716/717/36 717/715/37
f 710/712/30 714/708/34 715/716/35
f 713/701/33 717/715/37 720/718/40
f 716/717/36 715/716/35 718/719/38
f 716/717/36 718/719/38 719/720/39
f 717/715/37 716/717/36 719/720/39
f 717/715/37 719/720/39 720/718/40
f 715/716/35 714/708/34 718/719/38
f 713/701/33 720/718/40 703/702/23
f 719/720/39 718/719/38 701/705/21
f 719/720/39 701/705/21 702/704/22
f 720/718/40 719/720/39 702/704/22
f 720/718/40 702/704/22 703/702/23
f 718/719/38 714/708/34 701/705/21
f 733/721/33 723/722/23 726/723/26
f 722/724/22 721/725/21 724/726/24
f 722/724/22 724/726/24 725/727/25
f 723/722/23 722/724/22 725/727/25
f 723/722/23 725/727/25 726/723/26
f 721/725/21 734/728/34 724/726/24
f 726/723/26 725/727/25 728/729/28
f 726/723/26 728/729/28 729/730/29
f 724/726/24 734/728/34 727/731/27
f 733/721/33 726/723/26 729/730/29
f 725/727/25 724/726/24 727/731/27
f 725/727/25 727/731/27 728/729/28
f 728/729/28 727/731/27 730/732/30
f 728/729/28 730/732/30 731/733/31
f 729/730/29 728/729/28 731/733/31
f 729/730/29 731/733/31 732/734/32
f 727/731/27 734/728/34 730/732/30
f 733/721/33 729/730/29 732/734/32
f 733/721/33 732/734/32 737/735/37
f 731/733/31 730/732/30 735/736/35
f 731/733/31 735/736/35 736/737/36
f 732/734/32 731/733/31 736/737/36
f 732/734/32 736/737/36 737/735/37
f 730/732/30 734/728/34 735/736/35
f 733/721/33 737/735/37 740/738/40
f 736/737/36 735/736/35 738/739/38
f 736/737/36 738/739/38 739/740/39
f 737/735/37 736/737/36 739/740/39
f 737/735/37 739/740/39 740/738/40
f 735/736/35 734/728/34 738/739/38
f 733/721/33 740/738/40 723/722/23
f 739/740/39 738/739/38 721/725/21
f 739/740/39 721/725/21 722/724/22
f 740/738/40 739/740/39 722/724/22
f 740/738/40 722/724/22 723/722/23
f 738/739/38 734/728/34 721/725/21
f 753/741/33 743/742/23 746/743/26
f 742/744/22 741/745/21 744/746/24
f 742/744/22 744/746/24 745/747/25
f 743/742/23 742/744/22 745/747/25
f 743/742/23 745/747/25 746/743/26
f 741/745/21 754/748/34 744/746/24
f 746/743/26 745/747/25 748/749/28
f 746/743/26 748/749/28 749/750/29
f 744/746/24 754/748/34 747/751/27
f 753/741/33 746/743/26 749/750/29
f 745/747/25 744/746/24 747/751/27
f 745/747/25 747/751/27 748/749/28
f 748/749/28 747/751/27 750/752/30
f 748/749/28 750/752/30 751/753/31
f 749/750/29 748/749/28 751/753/31
f 749/750/29 751/753/31 752/754/32
f 747/751/27 754/748/34 750/752/30
f 753/741/33 749/750/29 752/754/32
f 753/741/33 752/754/32 757/755/37
f 751/753/31 750/752/30 755/756/35
f 751/753/31 755/756/35 756/757/36
f 752/754/32 751/753/31 756/757/36
f 752/754/32 756/757/36 757/755/37
f 750/752/30 754/748/34 755/756/35
f 753/741/33 757/755/37 760/758/40
f 756/757/36 755/756/35 758/759/38
f 756/757/36 758/759/38 759/760/39
f 757/755/37 756/757/36 759/760/39
f 757/755/37 759/760/39 760/758/40
f 755/756/35 754/748/34 758/759/38
f 753/741/33 760/758/40 743/742/23
f 759/760/39 758/759/38 741/745/21
f 759/760/39 741/745/21 742/744/22
f 760/758/40 759/760/39 742/744/22
f 760/758/40 742/744/22 743/742/23
f 758/759/38 754/748/34 741/745/21
f 773/761/33 763/762/23 766/763/26
f 762/764/22 761/765/21 764/766/24
f 762/764/22 764/766/24 765/767/25
f 763/762/23 762/764/22 765/767/25
f 763/762/23 765/767/25 766/763/26
f 761/765/21 774/768/34 764/766/24
f 766/763/26 765/767/25 768/769/28
f 766/763/26 768/769/28 769/770/29
f 764/766/24 774/768/34 767/771/27
f 773/761/33 766/763/26 769/770/29
f 765/767/25 764/766/24 767/771/27
f 765/767/25 767/771/27 768/769/28
f 768/769/28 767/771/27 770/772/30
f 768/769/28 770/772/30 771/773/31
f 769/770/29 768/769/28 771/773/31
f 769/770/29 771/773/31 772/774/32
f 767/771/27 774/768/34 770/772/30
f 773/761/33 769/770/29 772/774/32
f 773/761/33 772/774/32 777/775/37
f 771/773/31 770/772/30 775/776/35
f 771/773/31 775/776/35 776/777/36
f 772/774/32 771/773/31 776/777/36
f 772/774/32 776/777/36 777/775/37
f 770/772/30 774/768/34 775/776/35
f 773/761/33 777/775/37 780/778/40
f 776/777/36 775/776/35 778/779/38
f 776/777/36 778/779/38 779/780/39
f 777/775/37 776/777/36 779/780/39
f 777/775/37 779/780/39 780/778/40
f 775/776/35 774/768/34 778/779/38
f 773/761/33 780/778/40 763/762/23
f 779/780/39 778/779/38 761/765/21
f 779/780/39 761/765/21 762/764/22
f 780/778/40 779/780/39 762/764/22
f 780/778/40 762/764/22 763/762/23
f 778/779/38 774/768/34 761/765/21
f 793/781/33 783/782/23 786/783/26
f 782/784/22 781/785/21 784/786/24
f 782/784/22 784/786/24 785/787/25
f 783/782/23 782/784/22 785/787/25
f 783/782/23 785/787/25 786/783/26
f 781/785/21 794/788/34 784/786/24
f 786/783/26 785/787/25 788/789/28
f 786/783/26 788/789/28 789/790/29
f 784/786/24 794/788/34 787/791/27
f 793/781/33 786/783/26 789/790/29
f 785/787/25 784/786/24 787/791/27
f 785/787/25 787/791/27 788/789/28
f 788/789/28 787/791/27 790/792/30
f 788/789/28 790/792/30 791/793/31
f 789/790/29 788/789/28 791/793/31
f 789/790/29 791/793/31 792/794/32
f 787/791/27 794/788/34 790/792/30
f 793/781/33 789/790/29 792/794/32
f 793/781/33 792/794/32 797/795/37
f 791/793/31 790/792/30 795/796/35
f 791/793/31 795/796/35 796/797/36
f 792/794/32 791/793/31 796/797/36
f 792/794/32 796/797/36 797/795/37
f 790/792/30 794/788/34 795/796/35
f 793/781/33 797/795/37 800/798/40
f 796/797/36 795/796/35 798/799/38
f 796/797/36 798/799/38 799/800/39
f 797/795/37 796/797/36 799/800/39
f 797/795/37 799/800/39 800/798/40
f 795/796/35 794/788/34 798/799/38
f 793/781/33 800/798/40 783/782/23
f 799/800/39 798/799/38 781/785/21
f 799/800/39 781/785/21 782/784/22
f 800/798/40 799/800/39 782/784/22
f 800/798/40 782/784/22 783/782/23
f 798/799/38 794/788/34 781/785/21
