# Blender 4.5.5 LTS
# www.blender.org
o Body.004
v -0.000000 0.152231 -0.400238
v -0.000000 0.090586 -0.385345
v -0.000000 0.028940 -0.400238
v 0.053312 0.012306 -0.353296
v 0.067460 0.073002 -0.331822
v 0.053312 0.137172 -0.337054
v -0.000000 0.006199 -0.348876
v -0.000000 0.074411 -0.327971
v -0.000000 0.146357 -0.332634
v -0.000000 0.144427 -0.523272
v -0.000000 0.086911 -0.532288
v -0.000000 0.029394 -0.521791
v -0.000000 0.009519 -0.450947
v -0.000000 0.164302 -0.450947
v 0.053969 0.144427 -0.494514
v 0.074601 0.086911 -0.491617
v 0.053969 0.029394 -0.493033
v 0.043562 0.141830 -0.421479
v 0.050870 0.086911 -0.410105
v 0.043562 0.031991 -0.421479
v 0.053425 0.120137 -0.249448
v -0.000000 0.127657 -0.245261
v -0.000000 0.060622 -0.235965
v 0.067244 0.060390 -0.239614
v 0.053425 0.001847 -0.255078
v -0.000000 -0.005120 -0.250891
v 0.056244 0.136748 -0.147261
v -0.000000 0.146557 -0.142979
v -0.000000 0.065530 -0.128899
v 0.070171 0.064565 -0.132630
v 0.056244 -0.007782 -0.143870
v -0.000000 -0.015674 -0.139588
v 0.053426 0.126669 -0.025669
v -0.000000 0.134842 -0.022174
v -0.000000 0.067443 -0.016625
v 0.066394 0.066580 -0.019671
v 0.053426 0.008485 -0.034790
v -0.000000 0.002185 -0.031295
v 0.057926 0.129801 0.099308
v 0.000000 0.138232 0.103073
v 0.000000 0.065323 0.107597
v 0.071243 0.064789 0.104316
v 0.057926 0.002445 0.086577
v 0.000000 -0.004720 0.090342
v 0.057205 0.104283 0.241562
v 0.000000 0.109432 0.244917
v 0.000000 0.043794 0.245760
v 0.070041 0.045732 0.242837
v 0.057205 -0.009302 0.223843
v 0.000000 -0.018063 0.227198
v 0.060376 0.087186 0.393406
v 0.000000 0.090532 0.396860
v 0.000000 0.023941 0.402389
v 0.073292 0.027819 0.399379
v 0.060376 -0.029594 0.384484
v 0.000000 -0.040550 0.387938
v 0.056328 0.064313 0.503097
v 0.000000 0.064946 0.505703
v 0.000000 0.014698 0.509875
v 0.068184 0.019516 0.507604
v 0.056328 -0.023807 0.496365
v 0.000000 -0.033965 0.498971
v 0.054149 0.047349 0.588735
v 0.000000 0.047162 0.590732
v 0.000000 0.012862 0.593928
v 0.056646 0.013025 0.592188
v 0.054149 -0.020170 0.583577
v 0.000000 -0.020357 0.585574
v -0.053312 0.012306 -0.353296
v -0.067461 0.073002 -0.331822
v -0.053312 0.137172 -0.337054
v -0.053969 0.144427 -0.494514
v -0.074602 0.086911 -0.491617
v -0.053969 0.029394 -0.493033
v -0.043562 0.141830 -0.421479
v -0.050870 0.086911 -0.410105
v -0.043562 0.031991 -0.421479
v -0.053426 0.120137 -0.249448
v -0.067244 0.060390 -0.239614
v -0.053426 0.001847 -0.255078
v -0.056244 0.136748 -0.147261
v -0.070171 0.064565 -0.132630
v -0.056244 -0.007782 -0.143870
v -0.053426 0.126669 -0.025669
v -0.066394 0.066580 -0.019671
v -0.053426 0.008485 -0.034790
v -0.057926 0.129801 0.099308
v -0.071243 0.064789 0.104316
v -0.057926 0.002445 0.086577
v -0.057205 0.104283 0.241562
v -0.070041 0.045732 0.242837
v -0.057205 -0.009302 0.223843
v -0.060376 0.087186 0.393406
v -0.073292 0.027819 0.399379
v -0.060376 -0.029594 0.384484
v -0.056328 0.064313 0.503097
v -0.068184 0.019516 0.507604
v -0.056328 -0.023807 0.496365
v -0.054149 0.047349 0.588735
v -0.056646 0.013025 0.592188
v -0.054149 -0.020170 0.583577
vn 0.0005 -0.9424 -0.3345
vn 0.2116 0.9759 0.0540
vn -1.0000 -0.0000 -0.0000
vn 0.9750 -0.2206 -0.0262
vn 0.9715 -0.1227 -0.2028
vn 0.4696 -0.1529 -0.8696
vn 0.1398 0.9548 -0.2624
vn 0.1425 -0.9530 -0.2674
vn 0.4711 0.1309 -0.8723
vn 0.9417 0.2610 0.2124
vn 0.9419 -0.2585 0.2145
vn 0.4076 0.9087 0.0904
vn 0.4066 -0.9090 0.0921
vn 0.2332 -0.9081 0.3478
vn 0.9776 0.1566 -0.1404
vn 0.3263 0.9196 0.2189
vn 0.1409 0.9751 -0.1713
vn 0.9738 0.2243 0.0375
vn 0.1121 -0.9876 -0.1097
vn 0.1671 0.9660 0.1972
vn 0.1674 0.9818 0.0902
vn 0.9791 -0.2013 -0.0308
vn 0.9792 0.1973 -0.0465
vn 0.1268 -0.9877 -0.0912
vn 0.9786 0.2023 -0.0378
vn 0.9765 -0.2107 0.0464
vn 0.9783 0.2043 0.0345
vn 0.1376 -0.9782 0.1554
vn 0.9770 -0.2124 -0.0169
vn 0.1163 -0.9917 -0.0550
vn 0.1456 0.9889 -0.0284
vn 0.9785 -0.2016 -0.0437
vn 0.9769 0.2136 0.0039
vn 0.9771 0.2088 0.0398
vn 0.1310 -0.9873 -0.0900
vn 0.1265 0.9743 0.1866
vn 0.9681 -0.2478 0.0374
vn 0.1565 -0.9788 -0.1318
vn 0.0783 0.9901 0.1165
vn 0.9766 -0.2101 -0.0451
vn 0.9766 0.1877 0.1046
vn 0.9684 0.2378 0.0747
vn 0.1806 -0.9819 0.0578
vn 0.0445 0.9751 0.2171
vn 0.0334 -0.2486 0.9680
vn 0.0332 0.0976 0.9947
vn 0.0969 -0.9903 0.0995
vn 0.0123 0.9798 0.1996
vn 0.9764 -0.2025 0.0746
vn -0.0005 -0.9424 -0.3345
vn -0.2116 0.9759 0.0540
vn -0.9750 -0.2206 -0.0262
vn -0.9715 -0.1227 -0.2028
vn -0.4696 -0.1529 -0.8696
vn -0.1398 0.9548 -0.2624
vn -0.1425 -0.9530 -0.2674
vn -0.4711 0.1309 -0.8723
vn -0.9417 0.2610 0.2124
vn -0.9419 -0.2585 0.2145
vn -0.4076 0.9087 0.0904
vn -0.4066 -0.9090 0.0921
vn -0.2332 -0.9081 0.3478
vn -0.9776 0.1566 -0.1404
vn -0.3263 0.9196 0.2189
vn -0.1409 0.9751 -0.1713
vn -0.9738 0.2243 0.0375
vn -0.1121 -0.9876 -0.1097
vn -0.1671 0.9660 0.1972
vn -0.1674 0.9818 0.0902
vn -0.9791 -0.2013 -0.0308
vn -0.9792 0.1973 -0.0465
vn -0.1268 -0.9877 -0.0912
vn -0.9786 0.2023 -0.0378
vn -0.9765 -0.2107 0.0464
vn -0.9783 0.2043 0.0345
vn -0.1376 -0.9782 0.1554
vn -0.9770 -0.2124 -0.0169
vn -0.1163 -0.9917 -0.0550
vn -0.1456 0.9889 -0.0284
vn -0.9785 -0.2016 -0.0437
vn -0.9769 0.2136 0.0039
vn -0.9771 0.2088 0.0398
vn -0.1310 -0.9873 -0.0900
vn -0.1265 0.9743 0.1866
vn -0.9681 -0.2478 0.0374
vn -0.1565 -0.9788 -0.1318
vn -0.0783 0.9901 0.1165
vn -0.9766 -0.2101 -0.0451
vn -0.9766 0.1877 0.1046
vn -0.9684 0.2378 0.0747
vn -0.1806 -0.9819 0.0578
vn -0.0445 0.9751 0.2171
vn -0.0334 -0.2486 0.9680
vn -0.0332 0.0976 0.9947
vn -0.0969 -0.9903 0.0995
vn -0.0123 0.9798 0.1996
vn -0.9764 -0.2025 0.0746
vt 0.368598 0.392897
vt 0.368642 0.375445
vt 0.368131 0.432328
vt 0.367918 0.436438
vt 0.372732 0.365873
vt 0.373188 0.382152
vt 0.373188 0.437363
vt 0.372832 0.434588
vt 0.370941 0.399576
vt 0.370525 0.447407
vt 0.367710 0.353561
vt 0.373473 0.340072
vt 0.372498 0.283285
vt 0.370328 0.281004
vt 0.368220 0.294509
vt 0.279300 0.837813
vt 0.281954 0.835660
vt 0.282095 0.819534
vt 0.279642 0.822394
vt 0.284363 0.838863
vt 0.282022 0.836297
vt 0.282118 0.820159
vt 0.284355 0.821729
vt 0.370724 0.379862
vt 0.370460 0.444413
vt 0.370459 0.313910
vt 0.368314 0.317777
vt 0.372591 0.306553
vt 0.284597 0.820876
vt 0.284539 0.801484
vt 0.281480 0.801163
vt 0.279938 0.822975
vt 0.278527 0.805110
vt 0.278909 0.805664
vt 0.279660 0.838403
vt 0.284572 0.837986
vt 0.283438 0.783143
vt 0.280955 0.781837
vt 0.278475 0.784057
vt 0.278792 0.784507
vt 0.281531 0.801788
vt 0.284263 0.802370
vt 0.281000 0.782346
vt 0.278171 0.763013
vt 0.280566 0.760930
vt 0.280533 0.760375
vt 0.277843 0.762522
vt 0.283219 0.783864
vt 0.282953 0.762821
vt 0.280714 0.736685
vt 0.282835 0.738929
vt 0.283204 0.762037
vt 0.283147 0.738186
vt 0.280774 0.736144
vt 0.278545 0.738003
vt 0.278566 0.711496
vt 0.280747 0.709353
vt 0.278340 0.737520
vt 0.280879 0.708761
vt 0.278428 0.710963
vt 0.282940 0.710845
vt 0.280619 0.690534
vt 0.282273 0.691660
vt 0.283333 0.710044
vt 0.282640 0.691020
vt 0.280788 0.690051
vt 0.278973 0.692151
vt 0.279257 0.677064
vt 0.280518 0.675825
vt 0.278939 0.691713
vt 0.280517 0.675522
vt 0.279256 0.676716
vt 0.281786 0.676688
vt 0.281785 0.676340
s 0
f 3/1/1 20/2/1 4/3/1
f 3/1/1 4/3/1 7/4/1
f 18/5/2 1/6/2 9/7/2
f 18/5/2 9/7/2 6/8/2
f 2/9/3 3/1/3 7/4/3
f 2/9/3 7/4/3 8/10/3
f 13/11/3 3/1/3 2/9/3
f 13/11/3 2/9/3 1/6/3
f 13/11/3 1/6/3 14/12/3
f 13/11/3 14/12/3 10/13/3
f 13/11/3 10/13/3 11/14/3
f 13/11/3 11/14/3 12/15/3
f 9/16/3 8/17/3 23/18/3
f 9/16/3 23/18/3 22/19/3
f 4/20/4 5/21/4 24/22/4
f 4/20/4 24/22/4 25/23/4
f 20/2/5 19/24/5 5/25/5
f 20/2/5 5/25/5 4/3/5
f 12/15/6 11/14/6 16/26/6
f 12/15/6 16/26/6 17/27/6
f 10/13/7 14/12/7 15/28/7
f 13/11/8 12/15/8 17/27/8
f 11/14/9 10/13/9 15/28/9
f 11/14/9 15/28/9 16/26/9
f 16/26/10 15/28/10 18/5/10
f 16/26/10 18/5/10 19/24/10
f 17/27/11 16/26/11 19/24/11
f 17/27/11 19/24/11 20/2/11
f 15/28/12 14/12/12 18/5/12
f 13/11/13 17/27/13 20/2/13
f 13/11/14 20/2/14 3/1/14
f 1/6/3 2/9/3 8/10/3
f 1/6/3 8/10/3 9/7/3
f 19/24/15 18/5/15 6/8/15
f 19/24/15 6/8/15 5/25/15
f 18/5/16 14/12/16 1/6/16
f 23/18/3 26/29/3 32/30/3
f 23/18/3 32/30/3 29/31/3
f 21/32/17 22/19/17 28/33/17
f 21/32/17 28/33/17 27/34/17
f 5/21/18 6/35/18 21/32/18
f 5/21/18 21/32/18 24/22/18
f 7/36/19 4/20/19 25/23/19
f 7/36/19 25/23/19 26/29/19
f 6/35/20 9/16/20 22/19/20
f 6/35/20 22/19/20 21/32/20
f 8/17/3 7/36/3 26/29/3
f 8/17/3 26/29/3 23/18/3
f 29/31/3 32/30/3 38/37/3
f 29/31/3 38/37/3 35/38/3
f 27/34/21 28/33/21 34/39/21
f 27/34/21 34/39/21 33/40/21
f 25/23/22 24/22/22 30/41/22
f 25/23/22 30/41/22 31/42/22
f 22/19/3 23/18/3 29/31/3
f 22/19/3 29/31/3 28/33/3
f 24/22/23 21/32/23 27/34/23
f 24/22/23 27/34/23 30/41/23
f 26/29/24 25/23/24 31/42/24
f 26/29/24 31/42/24 32/30/24
f 36/43/25 33/40/25 39/44/25
f 36/43/25 39/44/25 42/45/25
f 34/39/3 35/38/3 41/46/3
f 34/39/3 41/46/3 40/47/3
f 31/42/26 30/41/26 36/43/26
f 31/42/26 36/43/26 37/48/26
f 28/33/3 29/31/3 35/38/3
f 28/33/3 35/38/3 34/39/3
f 30/41/27 27/34/27 33/40/27
f 30/41/27 33/40/27 36/43/27
f 32/30/28 31/42/28 37/48/28
f 32/30/28 37/48/28 38/37/28
f 43/49/29 42/45/29 48/50/29
f 43/49/29 48/50/29 49/51/29
f 41/46/3 44/52/3 50/53/3
f 41/46/3 50/53/3 47/54/3
f 38/37/30 37/48/30 43/49/30
f 38/37/30 43/49/30 44/52/30
f 33/40/31 34/39/31 40/47/31
f 33/40/31 40/47/31 39/44/31
f 35/38/3 38/37/3 44/52/3
f 35/38/3 44/52/3 41/46/3
f 37/48/32 36/43/32 42/45/32
f 37/48/32 42/45/32 43/49/32
f 48/50/33 45/55/33 51/56/33
f 48/50/33 51/56/33 54/57/33
f 46/58/3 47/54/3 53/59/3
f 46/58/3 53/59/3 52/60/3
f 40/47/3 41/46/3 47/54/3
f 40/47/3 47/54/3 46/58/3
f 42/45/34 39/44/34 45/55/34
f 42/45/34 45/55/34 48/50/34
f 44/52/35 43/49/35 49/51/35
f 44/52/35 49/51/35 50/53/35
f 39/44/36 40/47/36 46/58/36
f 39/44/36 46/58/36 45/55/36
f 55/61/37 54/57/37 60/62/37
f 55/61/37 60/62/37 61/63/37
f 53/59/3 56/64/3 62/65/3
f 53/59/3 62/65/3 59/66/3
f 50/53/38 49/51/38 55/61/38
f 50/53/38 55/61/38 56/64/38
f 45/55/39 46/58/39 52/60/39
f 45/55/39 52/60/39 51/56/39
f 47/54/3 50/53/3 56/64/3
f 47/54/3 56/64/3 53/59/3
f 49/51/40 48/50/40 54/57/40
f 49/51/40 54/57/40 55/61/40
f 60/62/41 57/67/41 63/68/41
f 60/62/41 63/68/41 66/69/41
f 58/70/3 59/66/3 65/71/3
f 58/70/3 65/71/3 64/72/3
f 52/60/3 53/59/3 59/66/3
f 52/60/3 59/66/3 58/70/3
f 54/57/42 51/56/42 57/67/42
f 54/57/42 57/67/42 60/62/42
f 56/64/43 55/61/43 61/63/43
f 56/64/43 61/63/43 62/65/43
f 51/56/44 52/60/44 58/70/44
f 51/56/44 58/70/44 57/67/44
f 67/73/45 66/69/45 65/71/45
f 67/73/45 65/71/45 68/74/45
f 66/69/46 63/68/46 64/72/46
f 66/69/46 64/72/46 65/71/46
f 62/65/47 61/63/47 67/73/47
f 62/65/47 67/73/47 68/74/47
f 57/67/48 58/70/48 64/72/48
f 57/67/48 64/72/48 63/68/48
f 59/66/3 62/65/3 68/74/3
f 59/66/3 68/74/3 65/71/3
f 61/63/49 60/62/49 66/69/49
f 61/63/49 66/69/49 67/73/49
f 3/1/50 7/4/50 69/3/50
f 3/1/50 69/3/50 77/2/50
f 75/5/51 71/8/51 9/7/51
f 75/5/51 9/7/51 1/6/51
f 69/20/52 80/23/52 79/22/52
f 69/20/52 79/22/52 70/21/52
f 77/2/53 69/3/53 70/25/53
f 77/2/53 70/25/53 76/24/53
f 12/15/54 74/27/54 73/26/54
f 12/15/54 73/26/54 11/14/54
f 10/13/55 72/28/55 14/12/55
f 13/11/56 74/27/56 12/15/56
f 11/14/57 73/26/57 72/28/57
f 11/14/57 72/28/57 10/13/57
f 73/26/58 76/24/58 75/5/58
f 73/26/58 75/5/58 72/28/58
f 74/27/59 77/2/59 76/24/59
f 74/27/59 76/24/59 73/26/59
f 72/28/60 75/5/60 14/12/60
f 13/11/61 77/2/61 74/27/61
f 13/11/62 3/1/62 77/2/62
f 76/24/63 70/25/63 71/8/63
f 76/24/63 71/8/63 75/5/63
f 75/5/64 1/6/64 14/12/64
f 78/32/65 81/34/65 28/33/65
f 78/32/65 28/33/65 22/19/65
f 70/21/66 79/22/66 78/32/66
f 70/21/66 78/32/66 71/35/66
f 7/36/67 26/29/67 80/23/67
f 7/36/67 80/23/67 69/20/67
f 71/35/68 78/32/68 22/19/68
f 71/35/68 22/19/68 9/16/68
f 81/34/69 84/40/69 34/39/69
f 81/34/69 34/39/69 28/33/69
f 80/23/70 83/42/70 82/41/70
f 80/23/70 82/41/70 79/22/70
f 79/22/71 82/41/71 81/34/71
f 79/22/71 81/34/71 78/32/71
f 26/29/72 32/30/72 83/42/72
f 26/29/72 83/42/72 80/23/72
f 85/43/73 88/45/73 87/44/73
f 85/43/73 87/44/73 84/40/73
f 83/42/74 86/48/74 85/43/74
f 83/42/74 85/43/74 82/41/74
f 82/41/75 85/43/75 84/40/75
f 82/41/75 84/40/75 81/34/75
f 32/30/76 38/37/76 86/48/76
f 32/30/76 86/48/76 83/42/76
f 89/49/77 92/51/77 91/50/77
f 89/49/77 91/50/77 88/45/77
f 38/37/78 44/52/78 89/49/78
f 38/37/78 89/49/78 86/48/78
f 84/40/79 87/44/79 40/47/79
f 84/40/79 40/47/79 34/39/79
f 86/48/80 89/49/80 88/45/80
f 86/48/80 88/45/80 85/43/80
f 91/50/81 94/57/81 93/56/81
f 91/50/81 93/56/81 90/55/81
f 88/45/82 91/50/82 90/55/82
f 88/45/82 90/55/82 87/44/82
f 44/52/83 50/53/83 92/51/83
f 44/52/83 92/51/83 89/49/83
f 87/44/84 90/55/84 46/58/84
f 87/44/84 46/58/84 40/47/84
f 95/61/85 98/63/85 97/62/85
f 95/61/85 97/62/85 94/57/85
f 50/53/86 56/64/86 95/61/86
f 50/53/86 95/61/86 92/51/86
f 90/55/87 93/56/87 52/60/87
f 90/55/87 52/60/87 46/58/87
f 92/51/88 95/61/88 94/57/88
f 92/51/88 94/57/88 91/50/88
f 97/62/89 100/69/89 99/68/89
f 97/62/89 99/68/89 96/67/89
f 94/57/90 97/62/90 96/67/90
f 94/57/90 96/67/90 93/56/90
f 56/64/91 62/65/91 98/63/91
f 56/64/91 98/63/91 95/61/91
f 93/56/92 96/67/92 58/70/92
f 93/56/92 58/70/92 52/60/92
f 101/73/93 68/74/93 65/71/93
f 101/73/93 65/71/93 100/69/93
f 100/69/94 65/71/94 64/72/94
f 100/69/94 64/72/94 99/68/94
f 62/65/95 68/74/95 101/73/95
f 62/65/95 101/73/95 98/63/95
f 96/67/96 99/68/96 64/72/96
f 96/67/96 64/72/96 58/70/96
f 98/63/97 101/73/97 100/69/97
f 98/63/97 100/69/97 97/62/97
