# Blender 4.5.5 LTS
# www.blender.org
mtllib Animal_Spider.mtl
o Spider
v -0.032962 0.051620 -0.708931
v -0.039703 0.146889 -0.728151
v -0.001779 0.051299 -0.754549
v -0.005237 0.089015 -0.769131
v 0.013870 0.055000 -0.763028
v 0.011004 0.091004 -0.768938
v 0.005426 0.055856 -0.703489
v 0.003657 0.145890 -0.716158
v -0.031877 0.083995 -0.598324
v -0.032998 0.124284 -0.607070
v -0.012056 0.124436 -0.603964
v -0.012181 0.084889 -0.595507
v -0.056669 0.086426 -0.716999
v -0.012348 0.063987 -0.758386
v -0.042689 0.103499 -0.602640
v -0.025379 0.060071 -0.784530
v -0.009057 0.044150 -0.782698
v -0.012076 0.093869 -0.795200
v 0.011479 0.096617 -0.794118
v 0.016795 0.044898 -0.785845
v -0.007401 0.076555 -0.626762
v -0.009558 0.079909 -0.612578
v -0.034678 0.129716 -0.638456
v -0.033787 0.126912 -0.623102
v -0.006765 0.126840 -0.618953
v 0.000524 0.129504 -0.633239
v -0.035110 0.075537 -0.630759
v -0.033647 0.079182 -0.616075
v -0.049392 0.095024 -0.635591
v -0.046363 0.098953 -0.620712
v -0.002915 0.134274 -0.651113
v -0.003749 0.072479 -0.642873
v -0.037491 0.133234 -0.658006
v -0.036465 0.071398 -0.647490
v -0.052690 0.092092 -0.652846
v 0.011321 0.073669 -0.824355
v -0.000518 0.072283 -0.824935
v 0.012761 0.060568 -0.822456
v -0.000448 0.059880 -0.821956
v -0.004625 0.063512 -0.822547
v -0.002473 0.053728 -0.820180
v 0.017751 0.054398 -0.821281
v 0.015382 0.075940 -0.824404
v -0.003418 0.073740 -0.825324
v -0.009989 0.060366 -0.821243
v 0.043087 0.057236 -0.696453
v 0.046867 0.150887 -0.702710
v 0.022062 0.056213 -0.752366
v 0.027111 0.092806 -0.767577
v 0.007520 0.085100 -0.592594
v 0.008873 0.125458 -0.600981
v 0.064879 0.093533 -0.696555
v 0.034835 0.070395 -0.755851
v 0.018027 0.105200 -0.593810
v 0.053521 0.068151 -0.780111
v 0.039860 0.048393 -0.779079
v 0.035027 0.099383 -0.792912
v 0.022324 0.131711 -0.629877
v 0.015746 0.128568 -0.615324
v 0.020311 0.077090 -0.622698
v 0.014531 0.080533 -0.609067
v 0.034286 0.097369 -0.623421
v 0.026937 0.101007 -0.610051
v 0.028213 0.135655 -0.645080
v 0.027264 0.073341 -0.638392
v 0.042907 0.094941 -0.638999
v 0.019833 0.074665 -0.823938
v 0.031671 0.076051 -0.823359
v 0.021273 0.061564 -0.822040
v 0.034238 0.063445 -0.820307
v 0.037531 0.067942 -0.820560
v 0.037402 0.057406 -0.818183
v 0.034182 0.078141 -0.823484
v 0.043329 0.065687 -0.818686
v -0.087567 0.059692 -0.817955
v -0.094876 0.044674 -0.809596
v -0.064001 0.091786 -0.782367
v -0.057593 0.107018 -0.796209
v -0.004086 0.040194 -0.761116
v -0.079614 0.042397 -0.818135
v -0.059280 0.080052 -0.801255
v 0.000860 0.062483 -0.753244
v -0.131342 0.001467 -0.897709
v -0.126256 -0.007030 -0.886097
v -0.015203 0.048102 -0.742586
v -0.124824 -0.009374 -0.895273
v 0.122927 0.060071 -0.815433
v 0.130277 0.043308 -0.810378
v 0.088440 0.085014 -0.772540
v 0.085279 0.097345 -0.790200
v 0.020614 0.042706 -0.754863
v 0.112990 0.043103 -0.812714
v 0.088826 0.068465 -0.788496
v 0.015913 0.066394 -0.754890
v 0.124648 -0.004621 -0.903265
v 0.123277 -0.012312 -0.890154
v 0.027430 0.055357 -0.736891
v 0.118181 -0.014431 -0.897982
v -0.130591 0.056175 -0.725527
v -0.126047 0.041579 -0.717319
v -0.081466 0.080896 -0.714262
v -0.089571 0.092204 -0.727861
v -0.017874 0.055826 -0.739640
v -0.118802 0.045572 -0.730151
v -0.087746 0.066947 -0.727950
v -0.017725 0.077327 -0.739173
v -0.169698 -0.008475 -0.782998
v -0.158147 -0.012750 -0.777252
v -0.015431 0.065270 -0.721620
v -0.159950 -0.013984 -0.785497
v 0.149129 0.055978 -0.754568
v 0.150643 0.042495 -0.743888
v 0.101830 0.078358 -0.736062
v 0.105565 0.089324 -0.751750
v 0.037633 0.044613 -0.743570
v 0.141402 0.040290 -0.756228
v 0.106239 0.063825 -0.750153
v 0.034946 0.065937 -0.744329
v 0.210222 0.003914 -0.804769
v 0.202174 -0.003653 -0.796852
v 0.038380 0.055264 -0.726081
v 0.204027 -0.005740 -0.804912
v -0.094814 0.080681 -0.664689
v -0.098103 0.069992 -0.646834
v -0.040647 0.079383 -0.688061
v -0.055290 0.084098 -0.699172
v 0.013569 0.045484 -0.765266
v -0.090913 0.064588 -0.660013
v -0.051357 0.059997 -0.691110
v 0.013025 0.066937 -0.773324
v -0.167227 0.014519 -0.685485
v -0.157177 0.009148 -0.677193
v 0.011460 0.063895 -0.749455
v -0.160365 0.004881 -0.684253
v 0.127214 0.055395 -0.688328
v 0.128895 0.042906 -0.672587
v 0.070123 0.064471 -0.698615
v 0.082830 0.070186 -0.711395
v 0.125721 0.037029 -0.687443
v 0.077373 0.045368 -0.707792
v 0.015294 0.067000 -0.772994
v 0.212732 -0.001590 -0.691023
v 0.201693 -0.008503 -0.685644
v 0.207199 -0.012107 -0.691553
v -0.101541 0.058020 -0.612640
v -0.097032 0.055061 -0.595724
v -0.046597 0.084279 -0.648759
v -0.064369 0.081212 -0.655957
v -0.000066 0.044417 -0.753638
v -0.093916 0.043069 -0.606662
v -0.048747 0.063074 -0.644329
v -0.008559 0.062006 -0.755858
v -0.198784 0.012598 -0.588275
v -0.185617 0.007939 -0.581078
v 0.008276 0.057841 -0.752523
v -0.192552 0.002518 -0.584527
v 0.087687 0.059312 -0.606896
v 0.083914 0.055237 -0.591818
v 0.050309 0.067781 -0.660962
v 0.068409 0.065311 -0.663690
v 0.018873 0.043507 -0.755469
v 0.079364 0.043036 -0.601457
v 0.053791 0.045457 -0.657221
v 0.028938 0.062086 -0.756091
v 0.181604 0.003228 -0.588422
v 0.168654 0.000432 -0.579975
v 0.174733 -0.005889 -0.583507
v -0.108176 0.025777 -0.850522
v -0.132440 0.031634 -0.858415
v -0.108143 0.026064 -0.851813
v -0.132548 0.031672 -0.858704
v -0.108294 0.026663 -0.850807
v -0.132245 0.031871 -0.858457
v -0.108260 0.026950 -0.852099
v -0.132352 0.031909 -0.858746
v -0.098541 0.035922 -0.829096
v -0.124859 0.044842 -0.828682
v -0.098575 0.036163 -0.830397
v -0.124984 0.044894 -0.828961
v -0.098503 0.036805 -0.829409
v -0.124624 0.045032 -0.828751
v -0.098537 0.037047 -0.830710
v -0.124749 0.045084 -0.829030
v -0.122717 0.005465 -0.879735
v -0.134107 0.007029 -0.881346
v -0.122402 0.005861 -0.880958
v -0.134135 0.007061 -0.881653
v -0.122992 0.006308 -0.880039
v -0.133982 0.007312 -0.881327
v -0.122678 0.006704 -0.881262
v -0.134010 0.007345 -0.881634
v -0.100563 0.028709 -0.849225
v -0.092562 0.034566 -0.868047
v -0.099714 0.028996 -0.848251
v -0.092288 0.034604 -0.867907
v -0.100283 0.029594 -0.849094
v -0.092678 0.034803 -0.867884
v -0.099434 0.029881 -0.848120
v -0.092404 0.034841 -0.867744
v -0.086230 0.048336 -0.820169
v -0.079269 0.053893 -0.840861
v -0.085320 0.049027 -0.819642
v -0.079011 0.054031 -0.840842
v -0.086282 0.049242 -0.820174
v -0.079402 0.054103 -0.840676
v -0.085376 0.049924 -0.819642
v -0.079145 0.054241 -0.840658
v -0.115140 0.013488 -0.872421
v -0.105329 0.017545 -0.878528
v -0.114494 0.013884 -0.871335
v -0.105091 0.017577 -0.878331
v -0.114730 0.014331 -0.872402
v -0.105430 0.017828 -0.878452
v -0.114085 0.014727 -0.871316
v -0.105193 0.017861 -0.878255
v -0.141159 0.026894 -0.741819
v -0.166203 0.020032 -0.738488
v -0.141824 0.027167 -0.742930
v -0.166430 0.020013 -0.738698
v -0.141769 0.027607 -0.741837
v -0.166173 0.020335 -0.738547
v -0.142433 0.027880 -0.742948
v -0.166400 0.020316 -0.738758
v -0.128755 0.040358 -0.723940
v -0.152201 0.036181 -0.709727
v -0.129457 0.040559 -0.725045
v -0.152446 0.036165 -0.709890
v -0.129253 0.041147 -0.724042
v -0.152147 0.036446 -0.709863
v -0.129955 0.041347 -0.725146
v -0.152393 0.036429 -0.710029
v -0.155567 0.002679 -0.767470
v -0.166620 -0.002055 -0.763905
v -0.156030 0.003185 -0.768602
v -0.166791 -0.002038 -0.764163
v -0.156289 0.003277 -0.767454
v -0.166640 -0.001747 -0.763873
v -0.156752 0.003784 -0.768586
v -0.166810 -0.001730 -0.764131
v -0.135929 0.033199 -0.742877
v -0.140468 0.042349 -0.761538
v -0.134966 0.033863 -0.742256
v -0.140209 0.042516 -0.761507
v -0.136044 0.034107 -0.742669
v -0.140593 0.042497 -0.761295
v -0.135082 0.034770 -0.742049
v -0.140334 0.042664 -0.761265
v -0.121636 0.058927 -0.721131
v -0.124726 0.070392 -0.740257
v -0.120600 0.059590 -0.720813
v -0.124488 0.070558 -0.740303
v -0.121740 0.059809 -0.720910
v -0.124780 0.070535 -0.740003
v -0.120705 0.060473 -0.720591
v -0.124542 0.070701 -0.740049
v -0.151851 0.012018 -0.761503
v -0.147505 0.021299 -0.769901
v -0.151047 0.012676 -0.760682
v -0.147248 0.021443 -0.769807
v -0.151895 0.012954 -0.761454
v -0.147677 0.021494 -0.769733
v -0.151091 0.013611 -0.760634
v -0.147420 0.021639 -0.769638
v -0.117021 0.053893 -0.659626
v -0.141111 0.056734 -0.649779
v -0.117873 0.054039 -0.660628
v -0.141384 0.056731 -0.649927
v -0.117415 0.054729 -0.659787
v -0.141024 0.056981 -0.649946
v -0.118267 0.054874 -0.660789
v -0.141297 0.056978 -0.650093
v -0.094979 0.068920 -0.651235
v -0.106071 0.077032 -0.632020
v -0.095837 0.069170 -0.651862
v -0.106339 0.077085 -0.632054
v -0.095248 0.069777 -0.651502
v -0.106032 0.077209 -0.632250
v -0.096170 0.070016 -0.652110
v -0.106299 0.077262 -0.632285
v -0.141654 0.029587 -0.674099
v -0.153857 0.029710 -0.665312
v -0.142266 0.029872 -0.675237
v -0.154081 0.029706 -0.665526
v -0.142172 0.030365 -0.674169
v -0.153790 0.030003 -0.665387
v -0.142785 0.030650 -0.675307
v -0.154014 0.030000 -0.665601
v -0.110881 0.057595 -0.663730
v -0.117899 0.062020 -0.683319
v -0.109653 0.058059 -0.663561
v -0.117608 0.062097 -0.683395
v -0.110708 0.058510 -0.663838
v -0.117912 0.062263 -0.683126
v -0.109480 0.058975 -0.663669
v -0.117621 0.062339 -0.683202
v -0.083326 0.077077 -0.668736
v -0.099041 0.084750 -0.683364
v -0.082491 0.077014 -0.669620
v -0.098941 0.084720 -0.683637
v -0.083020 0.077861 -0.669154
v -0.098817 0.084931 -0.683303
v -0.082182 0.077777 -0.670057
v -0.098717 0.084901 -0.683576
v -0.134329 0.041261 -0.672566
v -0.131922 0.042914 -0.682377
v -0.133196 0.041828 -0.672182
v -0.131621 0.042989 -0.682386
v -0.134125 0.042134 -0.672843
v -0.131988 0.043194 -0.682261
v -0.132993 0.042701 -0.672459
v -0.131687 0.043269 -0.682270
v -0.141719 0.027916 -0.591486
v -0.157998 0.035550 -0.573650
v -0.142946 0.028083 -0.591954
v -0.158308 0.035573 -0.573643
v -0.142072 0.028781 -0.591576
v -0.157988 0.035761 -0.573878
v -0.143299 0.028947 -0.592044
v -0.158297 0.035784 -0.573870
v -0.118965 0.040384 -0.595402
v -0.128111 0.050469 -0.573247
v -0.120220 0.040512 -0.595803
v -0.128418 0.050509 -0.573223
v -0.119294 0.041227 -0.595646
v -0.128112 0.050627 -0.573514
v -0.120549 0.041356 -0.596048
v -0.128418 0.050667 -0.573490
v -0.171984 0.013804 -0.587261
v -0.178983 0.009324 -0.576071
v -0.173062 0.014055 -0.587986
v -0.179284 0.009332 -0.576144
v -0.172402 0.014641 -0.587202
v -0.178940 0.009593 -0.576219
v -0.173480 0.014892 -0.587928
v -0.179241 0.009601 -0.576292
v -0.138005 0.030142 -0.598130
v -0.154568 0.033448 -0.614583
v -0.136827 0.030424 -0.598663
v -0.154350 0.033469 -0.614803
v -0.137837 0.031001 -0.598465
v -0.154463 0.033709 -0.614453
v -0.136659 0.031283 -0.598999
v -0.154245 0.033731 -0.614673
v -0.108664 0.051985 -0.607328
v -0.121849 0.056972 -0.625142
v -0.107607 0.052233 -0.608020
v -0.121676 0.057004 -0.625385
v -0.108473 0.052867 -0.607576
v -0.121702 0.057200 -0.625003
v -0.107414 0.053111 -0.608256
v -0.121529 0.057232 -0.625245
v -0.163865 0.016815 -0.591283
v -0.167688 0.016991 -0.603646
v -0.162652 0.017236 -0.591605
v -0.167428 0.017016 -0.603813
v -0.163759 0.017610 -0.591770
v -0.167663 0.017289 -0.603563
v -0.162547 0.018031 -0.592092
v -0.167403 0.017314 -0.603730
v 0.124489 0.022729 -0.852213
v 0.144494 0.025092 -0.868935
v 0.124007 0.023018 -0.853411
v 0.144488 0.025114 -0.869244
v 0.124605 0.023589 -0.852569
v 0.144330 0.025355 -0.868913
v 0.124123 0.023877 -0.853768
v 0.144324 0.025377 -0.869222
v 0.125110 0.034137 -0.829316
v 0.150545 0.039243 -0.839284
v 0.124680 0.034372 -0.830546
v 0.150561 0.039277 -0.839592
v 0.125072 0.035017 -0.829639
v 0.150328 0.039465 -0.839271
v 0.124642 0.035252 -0.830869
v 0.150344 0.039499 -0.839579
v 0.124081 0.000559 -0.883610
v 0.134110 0.000496 -0.889458
v 0.123381 0.000996 -0.884646
v 0.134024 0.000524 -0.889755
v 0.124328 0.001355 -0.884040
v 0.134040 0.000794 -0.889409
v 0.123629 0.001792 -0.885076
v 0.133953 0.000822 -0.889706
v 0.118390 0.026709 -0.848315
v 0.104695 0.033637 -0.863047
v 0.118019 0.027113 -0.847111
v 0.104501 0.033713 -0.862816
v 0.118299 0.027625 -0.848137
v 0.104894 0.033855 -0.862952
v 0.117929 0.028029 -0.846932
v 0.104700 0.033931 -0.862722
v 0.121897 0.048736 -0.818305
v 0.112973 0.056445 -0.836459
v 0.121021 0.049306 -0.817612
v 0.112722 0.056564 -0.836395
v 0.121899 0.049665 -0.818227
v 0.113110 0.056646 -0.836281
v 0.121042 0.050227 -0.817537
v 0.112858 0.056765 -0.836217
v 0.120961 0.009575 -0.874431
v 0.110191 0.014979 -0.876620
v 0.120834 0.010059 -0.873205
v 0.110052 0.015045 -0.876351
v 0.120704 0.010468 -0.874305
v 0.110349 0.015245 -0.876604
v 0.120576 0.010952 -0.873079
v 0.110211 0.015311 -0.876334
v 0.170179 0.031081 -0.767091
v 0.195672 0.036938 -0.765991
v 0.170600 0.031368 -0.768312
v 0.195873 0.036976 -0.766224
v 0.170390 0.031967 -0.767317
v 0.195503 0.037175 -0.766099
v 0.170811 0.032254 -0.768539
v 0.195705 0.037213 -0.766331
v 0.153654 0.041226 -0.750394
v 0.177119 0.049725 -0.739084
v 0.154141 0.041467 -0.751600
v 0.177338 0.049762 -0.739276
v 0.153728 0.042109 -0.750700
v 0.176948 0.049916 -0.739253
v 0.154215 0.042351 -0.751907
v 0.177168 0.049954 -0.739448
v 0.193143 0.010769 -0.789718
v 0.205260 0.012333 -0.786887
v 0.193277 0.011165 -0.790974
v 0.205394 0.012365 -0.787165
v 0.193508 0.011612 -0.789907
v 0.205136 0.012616 -0.786913
v 0.193641 0.012008 -0.791163
v 0.205270 0.012649 -0.787191
v 0.162594 0.034013 -0.768542
v 0.161688 0.039870 -0.788973
v 0.161458 0.034300 -0.767926
v 0.161382 0.039908 -0.788938
v 0.162286 0.034898 -0.768517
v 0.161740 0.040107 -0.788780
v 0.161150 0.035185 -0.767901
v 0.161434 0.040145 -0.788745
v 0.139352 0.056273 -0.749659
v 0.136188 0.063594 -0.770701
v 0.138180 0.056634 -0.749292
v 0.135902 0.063668 -0.770735
v 0.139172 0.057172 -0.749573
v 0.136218 0.063800 -0.770474
v 0.137999 0.057533 -0.749205
v 0.135932 0.063874 -0.770509
v 0.185768 0.018554 -0.785066
v 0.177316 0.022849 -0.794321
v 0.184784 0.018950 -0.784275
v 0.177025 0.022881 -0.794220
v 0.185378 0.019398 -0.785191
v 0.177385 0.023132 -0.794215
v 0.184393 0.019794 -0.784401
v 0.177093 0.023165 -0.794114
v 0.152498 0.029840 -0.679900
v 0.172480 0.035697 -0.664032
v 0.153556 0.030127 -0.680641
v 0.172780 0.035735 -0.664102
v 0.152801 0.030725 -0.679959
v 0.172407 0.035934 -0.664218
v 0.153860 0.031012 -0.680700
v 0.172707 0.035972 -0.664288
v 0.127325 0.041868 -0.676797
v 0.136502 0.049700 -0.653339
v 0.128366 0.042160 -0.677285
v 0.136796 0.049760 -0.653332
v 0.127576 0.042755 -0.676960
v 0.136473 0.049888 -0.653578
v 0.128671 0.043038 -0.677435
v 0.136766 0.049948 -0.653571
v 0.183218 0.009527 -0.687022
v 0.192516 0.011091 -0.675307
v 0.184064 0.009923 -0.687960
v 0.192788 0.011124 -0.675454
v 0.183623 0.010370 -0.686960
v 0.192432 0.011374 -0.675401
v 0.184469 0.010766 -0.687898
v 0.192703 0.011407 -0.675548
v 0.147212 0.032771 -0.685530
v 0.158484 0.038628 -0.702596
v 0.145931 0.033058 -0.685699
v 0.158215 0.038666 -0.702747
v 0.146948 0.033657 -0.685691
v 0.158412 0.038865 -0.702409
v 0.145668 0.033944 -0.685860
v 0.158143 0.038903 -0.702560
v 0.114476 0.053814 -0.690768
v 0.128861 0.062878 -0.706626
v 0.113463 0.053996 -0.691541
v 0.128710 0.062912 -0.706889
v 0.114173 0.054696 -0.690963
v 0.128660 0.063063 -0.706487
v 0.113155 0.054867 -0.691746
v 0.128510 0.063097 -0.706750
v 0.174199 0.020043 -0.687625
v 0.174272 0.021607 -0.697741
v 0.172938 0.020439 -0.687563
v 0.173977 0.021640 -0.697831
v 0.173957 0.020886 -0.687956
v 0.174265 0.021890 -0.697615
v 0.172695 0.021282 -0.687894
v 0.173970 0.021923 -0.697704
v 0.126234 0.024096 -0.588636
v 0.144538 0.031168 -0.572624
v 0.127431 0.024105 -0.589202
v 0.144847 0.031160 -0.572641
v 0.126662 0.024912 -0.588814
v 0.144530 0.031363 -0.572865
v 0.127858 0.024920 -0.589380
v 0.144839 0.031355 -0.572882
v 0.104570 0.038556 -0.591809
v 0.116376 0.049079 -0.571168
v 0.105795 0.038528 -0.592308
v 0.116686 0.049089 -0.571168
v 0.104959 0.039343 -0.592137
v 0.116371 0.049218 -0.571445
v 0.106185 0.039315 -0.592636
v 0.116681 0.049228 -0.571445
v 0.155214 0.007251 -0.585575
v 0.162603 0.002819 -0.574619
v 0.156251 0.007342 -0.586392
v 0.162897 0.002791 -0.574714
v 0.155715 0.008043 -0.585608
v 0.162575 0.003081 -0.574783
v 0.156752 0.008134 -0.586426
v 0.162869 0.003053 -0.574878
v 0.122242 0.026251 -0.595141
v 0.137700 0.026747 -0.612940
v 0.121059 0.026617 -0.595607
v 0.137468 0.026776 -0.613144
v 0.122133 0.027100 -0.595525
v 0.137631 0.027026 -0.612822
v 0.120950 0.027466 -0.595992
v 0.137399 0.027055 -0.613027
v 0.093900 0.051337 -0.602934
v 0.106262 0.055510 -0.620135
v 0.092924 0.051601 -0.603604
v 0.106100 0.055544 -0.620363
v 0.093753 0.052206 -0.603241
v 0.106133 0.055745 -0.620019
v 0.092771 0.052475 -0.603891
v 0.105970 0.055780 -0.620247
v 0.147136 0.010811 -0.589213
v 0.149970 0.009781 -0.601798
v 0.145949 0.011333 -0.589476
v 0.149701 0.009821 -0.601947
v 0.147071 0.011579 -0.589748
v 0.149982 0.010084 -0.601735
v 0.145883 0.012100 -0.590011
v 0.149713 0.010125 -0.601884
vn -0.9468 -0.1771 -0.2687
vn -0.5336 0.7411 -0.4075
vn -0.5827 0.7457 -0.3231
vn -0.9356 -0.3180 -0.1536
vn 0.2627 0.8688 -0.4198
vn -0.5467 0.8225 0.1570
vn -0.4632 0.6915 0.5543
vn -0.4541 0.8724 0.1807
vn 0.0157 0.6583 -0.7526
vn -0.3807 0.6964 -0.6083
vn -0.2245 -0.9701 0.0917
vn -0.2742 -0.7850 0.5555
vn -0.0120 -0.6734 0.7392
vn -0.4455 -0.8951 -0.0164
vn -0.9797 -0.0370 0.1969
vn -0.4801 -0.8288 0.2872
vn -0.4114 -0.5273 0.7435
vn -0.7560 0.1023 0.6465
vn -0.5064 -0.6618 0.5528
vn -0.0045 -0.9111 0.4122
vn -0.3687 -0.9270 0.0680
vn -0.4161 -0.8511 0.3202
vn -0.0437 0.6828 -0.7293
vn -0.6014 0.7822 -0.1628
vn -0.9810 -0.1905 0.0373
vn -0.2473 -0.7158 -0.6530
vn -0.4644 -0.8053 -0.3687
vn -0.6015 0.7786 0.1790
vn -0.9795 -0.1296 0.1543
vn -0.9729 -0.0930 0.2118
vn -0.5493 0.8114 0.1996
vn -0.4687 -0.8486 0.2453
vn -0.5074 -0.6678 0.5446
vn -0.0922 -0.6113 0.7860
vn -0.4618 -0.8446 0.2708
vn 0.0682 -0.1763 -0.9820
vn -0.3945 0.3160 -0.8629
vn -0.6759 -0.2726 -0.6847
vn -0.0453 -0.2363 -0.9706
vn 0.0144 -0.1867 -0.9823
vn 0.0948 -0.5962 -0.7972
vn 0.1611 0.2793 -0.9466
vn -0.0356 -0.2268 -0.9733
vn -0.4715 0.8418 -0.2628
vn 0.0248 0.8883 -0.4586
vn 0.8317 0.3499 -0.4311
vn 0.8586 -0.1230 -0.4977
vn 0.8200 0.3431 -0.4581
vn 0.8749 0.0187 -0.4839
vn 0.8364 0.2621 -0.4814
vn 0.8626 0.4659 -0.1969
vn 0.8369 0.4461 0.3172
vn 0.8285 0.2870 0.4808
vn 0.8093 -0.0802 0.5818
vn 0.6942 0.4853 0.5317
vn 0.8393 -0.3292 0.4327
vn 0.7527 -0.1300 0.6454
vn 0.6516 -0.5802 0.4887
vn 0.7212 -0.0616 0.6900
vn 0.9212 -0.3841 -0.0624
vn 0.8873 0.4610 0.0111
vn 0.9947 -0.1030 -0.0024
vn 0.9821 -0.1624 0.0957
vn 0.5376 0.8295 -0.1515
vn 0.5636 0.8149 -0.1354
vn 0.1815 0.7059 0.6846
vn 0.0467 0.9774 0.2061
vn 0.2247 0.7078 0.6697
vn 0.4337 0.8379 0.3313
vn 0.2345 0.9543 0.1855
vn -0.0756 0.9637 0.2559
vn 0.3637 -0.9216 0.1355
vn 0.5241 -0.8460 0.0984
vn 0.5203 -0.8212 -0.2344
vn 0.0546 -0.9406 -0.3351
vn 0.8713 -0.0126 0.4906
vn 0.5222 0.1255 0.8435
vn 0.2111 -0.5098 0.8340
vn 0.4232 -0.8035 0.4186
vn 0.4030 -0.6669 0.6268
vn 0.0781 -0.9127 -0.4010
vn 0.1134 -0.8051 -0.5822
vn 0.5164 -0.8370 0.1809
vn 0.4342 0.8951 -0.1015
vn 0.3512 0.9124 0.2101
vn 0.9821 -0.0146 0.1879
vn 0.1632 -0.1142 -0.9800
vn 0.4569 -0.6506 -0.6066
vn 0.4628 0.8081 0.3645
vn 0.4491 0.8112 0.3746
vn 0.8687 -0.0738 0.4898
vn 0.8985 -0.1003 0.4273
vn 0.4404 -0.8179 0.3703
vn 0.4073 -0.8216 0.3989
vn 0.5092 -0.8471 -0.1521
vn 0.0807 -0.9124 -0.4013
vn 0.4048 0.4111 -0.8168
vn 0.4155 0.6766 -0.6080
vn 0.7875 -0.1238 -0.6038
vn 0.1832 -0.2014 -0.9622
vn 0.1719 -0.2006 -0.9645
vn -0.1136 0.2580 -0.9595
vn 0.1208 -0.5921 -0.7967
vn 0.1195 -0.1683 -0.9785
vn -0.3564 0.6368 0.6837
vn 0.4027 0.7214 0.5633
vn -0.5125 -0.4011 0.7593
vn -0.6748 0.1885 0.7135
vn -0.0044 0.9597 -0.2811
vn -0.4302 0.6664 -0.6090
vn 0.8644 -0.4984 -0.0660
vn 0.6230 -0.4977 -0.6034
vn 0.6336 0.7719 -0.0525
vn -0.0608 -0.7046 -0.7070
vn -0.6116 -0.6262 0.4835
vn -0.0126 -0.8067 -0.5909
vn -0.4397 0.5028 -0.7442
vn -0.6757 -0.1641 0.7187
vn 0.7585 -0.3796 0.5297
vn 0.4034 0.7833 -0.4730
vn 0.0180 0.9169 -0.3987
vn 0.5336 0.2706 0.8013
vn -0.8134 -0.5550 0.1740
vn -0.4266 -0.8667 -0.2583
vn 0.1706 -0.8785 -0.4462
vn -0.5310 0.7404 -0.4122
vn -0.3175 -0.7972 -0.5135
vn 0.6558 -0.7106 0.2548
vn 0.1959 0.4313 -0.8807
vn 0.4493 0.0228 0.8931
vn -0.0410 -0.4735 0.8798
vn 0.0524 0.1439 0.9882
vn -0.3221 0.9170 -0.2354
vn -0.7478 0.6639 0.0023
vn 0.7065 -0.3500 -0.6151
vn 0.2179 -0.7489 -0.6258
vn 0.0837 0.8391 -0.5375
vn -0.2527 -0.8856 -0.3897
vn 0.0148 -0.8423 0.5388
vn 0.1477 -0.7167 -0.6816
vn -0.8780 0.2078 -0.4313
vn 0.1352 -0.0869 0.9870
vn 0.2517 -0.3229 0.9123
vn 0.5417 0.7870 -0.2952
vn 0.1604 0.9116 -0.3785
vn 0.1501 0.2470 0.9573
vn -0.6735 -0.6291 -0.3881
vn -0.2535 -0.8119 -0.5258
vn 0.2602 -0.8834 -0.3897
vn -0.3115 0.7778 -0.5458
vn 0.2125 -0.8150 -0.5391
vn 0.3809 -0.6324 0.6745
vn 0.6948 0.4798 -0.5358
vn 0.1138 -0.0150 0.9934
vn -0.0089 0.1299 0.9915
vn 0.6507 0.3804 0.6572
vn -0.4534 0.7731 -0.4436
vn -0.4133 0.8682 -0.2746
vn 0.4995 -0.8585 -0.1161
vn -0.0931 -0.9952 0.0286
vn -0.6943 0.2144 -0.6870
vn -0.1203 -0.7324 -0.6702
vn -0.2588 -0.4105 0.8744
vn -0.1184 -0.9725 -0.2005
vn -0.7469 0.2278 -0.6246
vn 0.0856 0.2942 0.9519
vn -0.1079 -0.0131 0.9941
vn 0.4774 0.8395 -0.2593
vn 0.4513 0.8027 -0.3899
vn -0.4858 0.3328 0.8083
vn -0.3502 -0.8209 -0.4511
vn -0.0120 -0.9858 -0.1672
vn 0.5907 0.4547 -0.6666
vn 0.3789 -0.9096 -0.1703
vn 0.0632 -0.4060 0.9117
vn 0.8419 0.4124 -0.3480
vn 0.2467 0.3541 0.9021
vn 0.5771 0.6898 0.4371
vn -0.7469 0.5248 -0.4085
vn -0.6574 0.5498 -0.5153
vn 0.4679 -0.8829 -0.0407
vn 0.3839 -0.8968 0.2199
vn -0.7351 0.4626 -0.4957
vn 0.2716 -0.9160 0.2953
vn 0.0051 0.0403 0.9992
vn -0.4775 -0.8446 0.2419
vn -0.8441 0.3380 -0.4163
vn 0.1199 0.7494 0.6511
vn -0.3226 0.3908 0.8621
vn 0.6513 0.7001 -0.2927
vn 0.8224 0.4959 -0.2787
vn -0.6873 0.6521 0.3200
vn -0.5722 -0.8197 0.0255
vn -0.1989 -0.9717 0.1276
vn -0.2069 -0.9688 0.1363
vn 0.7821 0.5052 -0.3648
vn 0.5075 -0.8302 0.2308
vn 0.0547 0.0716 0.9959
vn 0.8441 0.3053 -0.4408
vn -0.1257 0.6954 0.7076
vn -0.1698 -0.9668 -0.1908
vn 0.1990 -0.2871 -0.9370
vn 0.1480 0.9701 0.1925
vn -0.2335 0.2872 0.9290
vn -0.6942 0.6334 0.3420
vn -0.3187 -0.9371 -0.1422
vn -0.1506 -0.2976 -0.9427
vn 0.2995 0.9430 0.1452
vn 0.1194 0.3063 0.9444
vn -0.5142 0.7716 0.3746
vn -0.0859 -0.9551 -0.2835
vn 0.0256 -0.2421 -0.9699
vn 0.0500 0.9593 0.2780
vn -0.0987 0.2319 0.9677
vn -0.9107 0.3937 0.1246
vn 0.3834 -0.9159 -0.1192
vn 0.9343 -0.2116 0.2869
vn -0.3699 0.9233 0.1035
vn -0.9224 0.2182 -0.3186
vn 0.2807 0.6336 -0.7210
vn 0.5850 -0.8108 -0.0191
vn 0.9457 0.1113 0.3055
vn -0.5758 0.8176 -0.0011
vn -0.9350 -0.1013 -0.3398
vn -0.4882 -0.0266 0.8724
vn -0.2382 0.5527 -0.7986
vn 0.3944 -0.9182 0.0353
vn 0.6431 -0.2372 0.7281
vn -0.3744 0.9258 -0.0517
vn -0.5848 0.2255 -0.7792
vn 0.5541 0.3938 -0.7335
vn 0.2118 -0.9233 -0.3204
vn -0.1258 -0.1463 -0.9812
vn -0.2296 0.9154 0.3308
vn 0.0953 0.1291 0.9870
vn -0.6748 0.2056 0.7088
vn 0.0616 -0.9801 -0.1887
vn -0.4588 -0.3773 -0.8045
vn -0.0782 0.9767 0.1996
vn 0.4333 0.3684 0.8225
vn -0.5113 0.4760 0.7155
vn 0.2372 -0.8689 -0.4345
vn -0.2986 -0.1949 -0.9343
vn -0.2673 0.8556 0.4432
vn 0.2494 0.1534 0.9562
vn -0.8333 -0.1088 0.5421
vn 0.6538 -0.6059 -0.4532
vn 0.9507 0.2764 -0.1405
vn -0.6534 0.6191 0.4356
vn -0.9582 -0.2646 0.1090
vn -0.3755 0.6932 -0.6152
vn 0.5462 -0.6777 -0.4924
vn 0.9772 0.1928 -0.0888
vn -0.5496 0.6890 0.4725
vn -0.9826 -0.1772 0.0547
vn -0.1301 -0.2558 0.9579
vn -0.5586 0.6660 -0.4944
vn 0.7261 -0.6188 -0.2998
vn 0.8912 0.0847 0.4457
vn -0.7206 0.6346 0.2794
vn -0.8573 -0.0658 -0.5106
vn -0.0604 0.6202 -0.7821
vn -0.1183 -0.9930 -0.0068
vn -0.4193 -0.3701 -0.8290
vn 0.1027 0.9945 0.0222
vn 0.3882 0.3663 0.8457
vn -0.3847 0.6050 0.6971
vn -0.3531 -0.9178 0.1816
vn -0.8691 -0.3910 -0.3029
vn 0.3235 0.9297 -0.1761
vn 0.8659 0.3604 0.3468
vn 0.0753 0.7846 0.6154
vn -0.1056 -0.9846 -0.1394
vn -0.5963 -0.3498 -0.7225
vn 0.0813 0.9847 0.1544
vn 0.5564 0.3379 0.7591
vn -0.6551 0.3249 0.6821
vn 0.3353 -0.8869 -0.3177
vn 0.9146 -0.0976 -0.3923
vn -0.3364 0.8937 0.2968
vn -0.9272 0.1016 0.3605
vn -0.3443 0.5723 -0.7443
vn -0.3004 -0.9391 -0.1668
vn 0.3950 -0.5233 -0.7550
vn 0.2930 0.9454 0.1426
vn -0.4354 0.5132 0.7397
vn 0.7311 0.0830 0.6772
vn -0.5539 0.7815 -0.2873
vn 0.4175 -0.9076 -0.0445
vn -0.4091 0.9125 0.0040
vn -0.9722 0.0859 -0.2176
vn -0.1147 0.3574 -0.9269
vn -0.1883 -0.9538 0.2342
vn -0.7769 -0.3927 -0.4922
vn 0.1825 0.9600 -0.2125
vn 0.7558 0.3949 0.5223
vn 0.0705 0.7301 0.6797
vn -0.1821 -0.9215 0.3431
vn -0.9101 -0.3819 -0.1606
vn 0.1781 0.9296 -0.3227
vn 0.8990 0.3939 0.1913
vn 0.1516 0.8510 0.5029
vn 0.0302 -0.9341 -0.3559
vn -0.7867 -0.3100 -0.5338
vn -0.0534 0.9189 0.3909
vn 0.7504 0.3021 0.5879
vn -0.1920 0.4957 0.8470
vn 0.0690 -0.9632 -0.2599
vn 0.6187 -0.2853 -0.7320
vn -0.0790 0.9669 0.2428
vn -0.6425 0.2870 0.7105
vn -0.6255 0.5345 -0.5684
vn 0.0097 -0.9616 -0.2743
vn 0.7076 -0.2738 -0.6514
vn -0.0242 0.9662 0.2566
vn -0.7299 0.2834 0.6221
vn -0.6527 0.6545 -0.3816
vn 0.2611 -0.9611 -0.0897
vn 0.9035 -0.2394 -0.3555
vn -0.2712 0.9607 0.0589
vn -0.9294 0.2204 0.2960
vn -0.5380 0.2676 -0.7994
vn -0.0433 -0.9812 -0.1883
vn -0.5749 -0.2563 -0.7770
vn 0.0643 0.9813 0.1815
vn 0.6036 0.2515 0.7566
vn 0.8485 0.5288 0.0221
vn 0.1154 -0.9728 -0.2008
vn -0.2582 -0.3161 -0.9129
vn -0.0959 0.9759 0.1961
vn 0.2886 0.3202 0.9023
vn 0.7140 0.6911 0.1123
vn -0.1538 -0.9577 -0.2433
vn -0.4227 -0.2362 -0.8750
vn 0.1852 0.9567 0.2245
vn 0.4875 0.2156 0.8461
vn 0.9331 0.2609 -0.2475
vn -0.5163 -0.8524 0.0827
vn -0.7749 -0.0773 0.6274
vn 0.4989 0.8617 -0.0926
vn 0.7529 0.0853 -0.6526
vn -0.4474 0.6666 -0.5962
vn -0.5562 -0.8275 -0.0759
vn -0.9100 0.0350 0.4132
vn 0.5491 0.8341 0.0533
vn 0.8967 -0.0093 -0.4425
vn 0.5919 -0.0736 0.8026
vn 0.0971 0.6217 -0.7772
vn -0.4682 -0.8532 0.2300
vn -0.3443 -0.1437 0.9278
vn 0.4446 0.8635 -0.2381
vn 0.2700 0.1405 -0.9525
vn -0.7340 0.4681 -0.4921
vn 0.2258 -0.9668 -0.1193
vn 0.1416 -0.2872 -0.9473
vn -0.2061 0.9701 0.1285
vn -0.1064 0.2872 0.9519
vn 0.5305 0.6333 0.5635
vn 0.3446 -0.9387 -0.0133
vn 0.5299 -0.3043 -0.7916
vn -0.3273 0.9446 0.0233
vn -0.5021 0.3120 0.8066
vn 0.3366 0.7758 0.5337
vn 0.1739 -0.9559 -0.2368
vn 0.3190 -0.2428 -0.9161
vn -0.1408 0.9596 0.2436
vn -0.2554 0.2333 0.9383
vn 0.8096 0.3935 0.4356
vn -0.3174 -0.9159 -0.2459
vn -0.9756 -0.2116 -0.0583
vn 0.3103 0.9233 0.2264
vn 0.9756 0.2182 0.0245
vn -0.0104 0.6334 -0.7738
vn -0.3300 -0.9063 -0.2640
vn -0.9872 -0.1500 0.0534
vn 0.3270 0.9136 0.2418
vn 0.9831 0.1593 -0.0904
vn 0.2889 -0.0347 0.9567
vn 0.2599 0.6972 -0.6681
vn -0.3698 -0.9253 -0.0842
vn -0.8121 -0.2228 0.5393
vn 0.3567 0.9321 0.0623
vn 0.7709 0.2100 -0.6013
vn -0.2623 0.3937 -0.8810
vn 0.2528 -0.9668 0.0362
vn 0.6712 -0.2873 -0.6833
vn -0.2422 0.9701 -0.0171
vn -0.6454 0.2871 0.7078
vn 0.0982 0.6334 0.7675
vn 0.3132 -0.9311 0.1868
vn 0.9217 -0.3182 -0.2220
vn -0.2915 0.9405 -0.1747
vn -0.9206 0.2889 0.2629
vn -0.1712 0.7638 0.6223
vn 0.2747 -0.9568 -0.0951
vn 0.8091 -0.2455 -0.5338
vn -0.2555 0.9598 0.1161
vn -0.7791 0.2384 0.5798
vn 0.3991 0.3936 0.8281
vn -0.1124 -0.9159 -0.3854
vn -0.7552 -0.2116 -0.6203
vn 0.1181 0.9233 0.3655
vn 0.7750 0.2182 0.5930
vn 0.4462 0.6334 -0.6322
vn 0.1618 -0.9137 -0.3728
vn -0.5695 -0.3221 -0.7562
vn -0.1536 0.9234 0.3519
vn 0.6009 0.3218 0.7316
vn -0.6117 -0.0332 0.7904
vn 0.5726 0.7882 -0.2255
vn -0.2603 -0.9548 -0.1437
vn 0.2624 0.9595 0.1024
vn 0.9734 0.2240 0.0479
vn 0.3053 0.3939 -0.8670
vn 0.1121 -0.9506 0.2893
vn 0.6935 -0.5021 -0.5167
vn -0.1041 0.9576 -0.2686
vn -0.6700 0.5041 0.5450
vn 0.0550 0.7765 0.6277
vn 0.1177 -0.9108 0.3957
vn 0.8529 -0.4833 -0.1972
vn -0.1113 0.9198 -0.3763
vn -0.8383 0.4961 0.2261
vn -0.0276 0.8932 0.4488
vn -0.1493 -0.9473 -0.2834
vn 0.7081 -0.4238 -0.5649
vn 0.1737 0.9321 0.3177
vn -0.6686 0.4157 0.6166
vn 0.3057 0.5281 0.7922
vn -0.1831 -0.9659 -0.1830
vn -0.6994 -0.2676 -0.6628
vn 0.1920 0.9674 0.1650
vn 0.7215 0.2655 0.6395
vn 0.6280 0.4287 -0.6495
vn -0.0443 -0.9636 -0.2636
vn -0.7197 -0.2812 -0.6348
vn 0.0646 0.9662 0.2495
vn 0.7410 0.2903 0.6055
vn 0.6989 0.5864 -0.4095
vn -0.3600 -0.9329 -0.0000
vn -0.9478 -0.1679 -0.2712
vn 0.3676 0.9295 -0.0313
vn 0.9669 0.1425 0.2114
vn 0.4967 0.1577 -0.8535
vt 0.458811 0.335711
vt 0.458811 0.347565
vt 0.446098 0.337665
vt 0.446098 0.332711
vt 0.945302 0.130121
vt 0.945302 0.130196
vt 0.948427 0.129118
vt 0.948427 0.129025
vt 0.446098 0.330082
vt 0.458811 0.328426
vt 0.945302 0.124257
vt 0.945302 0.119981
vt 0.949045 0.120464
vt 0.949045 0.124672
vt 0.945302 0.119992
vt 0.949045 0.120537
vt 0.441014 0.328441
vt 0.441014 0.339571
vt 0.441014 0.332298
vt 0.434067 0.331502
vt 0.938676 0.132483
vt 0.938676 0.123791
vt 0.942215 0.123876
vt 0.942215 0.131262
vt 0.475606 0.342088
vt 0.475606 0.334703
vt 0.478693 0.335083
vt 0.478693 0.341023
vt 0.938676 0.119296
vt 0.938676 0.119317
vt 0.942215 0.119702
vt 0.942215 0.119651
vt 0.475606 0.330477
vt 0.475606 0.330529
vt 0.478693 0.330818
vt 0.478693 0.330807
vt 0.472067 0.330123
vt 0.472067 0.334618
vt 0.472067 0.330144
vt 0.472067 0.343310
vt 0.434067 0.336110
vt 0.434067 0.333099
vt 0.936331 0.242328
vt 0.936331 0.244269
vt 0.936331 0.241467
vt 0.942215 0.131203
vt 0.938676 0.132443
vt 0.478693 0.340947
vt 0.475606 0.342029
vt 0.472067 0.343270
vt 0.481818 0.339852
vt 0.482436 0.331363
vt 0.434067 0.332928
vt 0.434067 0.335730
vt 0.434067 0.333790
vt 0.440149 0.378934
vt 0.444879 0.380718
vt 0.444104 0.381755
vt 0.439876 0.380185
vt 0.439902 0.378756
vt 0.444146 0.379545
vt 0.450000 0.380648
vt 0.450021 0.378800
vt 0.433849 0.374971
vt 0.433213 0.374791
vt 0.432881 0.375622
vt 0.450439 0.379555
vt 0.443346 0.378780
vt 0.447127 0.380368
vt 0.446189 0.381292
vt 0.442872 0.379894
vt 0.442775 0.378622
vt 0.446185 0.379324
vt 0.450661 0.380306
vt 0.450646 0.378660
vt 0.438139 0.375250
vt 0.437512 0.375090
vt 0.437346 0.375831
vt 0.451422 0.379333
vt 0.454593 0.379272
vt 0.453109 0.381063
vt 0.452045 0.381722
vt 0.453570 0.380189
vt 0.453464 0.378820
vt 0.452352 0.379713
vt 0.450073 0.380787
vt 0.450337 0.379107
vt 0.456326 0.375333
vt 0.456126 0.375056
vt 0.456362 0.375863
vt 0.451541 0.380134
vt 0.461138 0.379743
vt 0.456147 0.381337
vt 0.455896 0.381367
vt 0.460492 0.380087
vt 0.460569 0.378829
vt 0.456341 0.379717
vt 0.449991 0.380485
vt 0.450378 0.379105
vt 0.467805 0.376135
vt 0.468190 0.375720
vt 0.468517 0.376493
vt 0.450833 0.380412
vt 0.445404 0.030307
vt 0.444632 0.029060
vt 0.444614 0.029058
vt 0.445332 0.030327
vt 0.444615 0.029069
vt 0.445315 0.030324
vt 0.444632 0.029071
vt 0.445387 0.030305
vt 0.446732 0.030553
vt 0.446396 0.029077
vt 0.446379 0.029074
vt 0.446659 0.030569
vt 0.446378 0.029088
vt 0.446642 0.030575
vt 0.446396 0.029092
vt 0.446715 0.030560
vt 0.443574 0.029894
vt 0.443329 0.029280
vt 0.443311 0.029282
vt 0.443510 0.029928
vt 0.443314 0.029289
vt 0.443489 0.029917
vt 0.443331 0.029286
vt 0.443553 0.029883
vt 0.445580 0.030715
vt 0.444638 0.031419
vt 0.444650 0.031432
vt 0.445646 0.030749
vt 0.444657 0.031423
vt 0.445658 0.030763
vt 0.444646 0.031410
vt 0.445592 0.030729
vt 0.447354 0.031186
vt 0.446637 0.032211
vt 0.446648 0.032225
vt 0.447419 0.031223
vt 0.446658 0.032214
vt 0.447436 0.031229
vt 0.446647 0.032201
vt 0.447371 0.031193
vt 0.444086 0.030217
vt 0.443879 0.030849
vt 0.443893 0.030859
vt 0.444155 0.030238
vt 0.443896 0.030852
vt 0.444162 0.030261
vt 0.443881 0.030842
vt 0.444093 0.030240
vt 0.448814 0.027864
vt 0.448431 0.026448
vt 0.448415 0.026441
vt 0.448740 0.027863
vt 0.448412 0.026452
vt 0.448724 0.027855
vt 0.448428 0.026459
vt 0.448798 0.027857
vt 0.450016 0.028480
vt 0.450117 0.026970
vt 0.450101 0.026962
vt 0.449942 0.028474
vt 0.450096 0.026975
vt 0.449924 0.028475
vt 0.450112 0.026983
vt 0.449998 0.028481
vt 0.447174 0.026999
vt 0.447119 0.026286
vt 0.447101 0.026283
vt 0.447103 0.027014
vt 0.447102 0.026291
vt 0.447087 0.026997
vt 0.447120 0.026293
vt 0.447158 0.026983
vt 0.448866 0.028305
vt 0.447762 0.028710
vt 0.447769 0.028726
vt 0.448920 0.028357
vt 0.447779 0.028720
vt 0.448927 0.028373
vt 0.447772 0.028704
vt 0.448873 0.028322
vt 0.450431 0.029264
vt 0.449451 0.030041
vt 0.449458 0.030057
vt 0.450483 0.029318
vt 0.449470 0.030050
vt 0.450498 0.029329
vt 0.449463 0.030034
vt 0.450445 0.029275
vt 0.447558 0.027323
vt 0.447197 0.027947
vt 0.447208 0.027961
vt 0.447618 0.027363
vt 0.447213 0.027955
vt 0.447618 0.027386
vt 0.447202 0.027941
vt 0.447558 0.027346
vt 0.459239 0.026821
vt 0.460625 0.026338
vt 0.460631 0.026322
vt 0.459236 0.026747
vt 0.460620 0.026319
vt 0.459242 0.026730
vt 0.460614 0.026336
vt 0.459246 0.026804
vt 0.458711 0.028064
vt 0.460224 0.028057
vt 0.460231 0.028040
vt 0.458711 0.027989
vt 0.460218 0.028037
vt 0.458709 0.027971
vt 0.460211 0.028053
vt 0.458708 0.028046
vt 0.459839 0.025109
vt 0.460694 0.025018
vt 0.460695 0.025000
vt 0.459819 0.025039
vt 0.460688 0.025002
vt 0.459835 0.025022
vt 0.460687 0.025019
vt 0.459854 0.025092
vt 0.458803 0.026904
vt 0.458321 0.025832
vt 0.458305 0.025840
vt 0.458756 0.026961
vt 0.458312 0.025849
vt 0.458740 0.026969
vt 0.458328 0.025841
vt 0.458787 0.026912
vt 0.457958 0.028533
vt 0.457113 0.027611
vt 0.457098 0.027618
vt 0.457908 0.028589
vt 0.457105 0.027630
vt 0.457898 0.028604
vt 0.457121 0.027623
vt 0.457948 0.028548
vt 0.459532 0.025529
vt 0.459043 0.025214
vt 0.459029 0.025226
vt 0.459496 0.025592
vt 0.459472 0.025594
vt 0.459035 0.025230
vt 0.459049 0.025218
vt 0.459508 0.025531
vt 0.466098 0.030305
vt 0.467316 0.030972
vt 0.467333 0.030967
vt 0.466156 0.030257
vt 0.467328 0.030954
vt 0.466173 0.030245
vt 0.467311 0.030960
vt 0.466115 0.030294
vt 0.464787 0.030516
vt 0.465697 0.031551
vt 0.465715 0.031547
vt 0.464848 0.030471
vt 0.465710 0.031532
vt 0.464861 0.030452
vt 0.465692 0.031536
vt 0.464800 0.030497
vt 0.467823 0.029971
vt 0.468412 0.030449
vt 0.468427 0.030439
vt 0.467868 0.029911
vt 0.468422 0.030432
vt 0.467892 0.029907
vt 0.468407 0.030442
vt 0.467847 0.029966
vt 0.465772 0.030013
vt 0.466366 0.028809
vt 0.466350 0.028801
vt 0.465698 0.030006
vt 0.466347 0.028810
vt 0.465682 0.029991
vt 0.466363 0.028818
vt 0.465756 0.029998
vt 0.463978 0.029972
vt 0.464227 0.028688
vt 0.464212 0.028679
vt 0.463903 0.029963
vt 0.464207 0.028691
vt 0.463886 0.029957
vt 0.464223 0.028700
vt 0.463960 0.029966
vt 0.467306 0.029903
vt 0.467284 0.029160
vt 0.467266 0.029155
vt 0.467234 0.029908
vt 0.467267 0.029160
vt 0.467219 0.029884
vt 0.467284 0.029165
vt 0.467291 0.029879
s 1
usemtl Material
f 13/1/1 2/2/2 4/3/3 14/4/4
f 25/5/5 24/6/6 10/7/7 11/8/8
f 6/3/9 4/3/3 2/2/2 8/2/10
f 3/9/11 5/9/12 7/10/13 1/10/14
f 30/11/15 28/12/16 9/13/17 15/14/18
f 28/12/16 22/15/19 12/16/20 9/13/17
f 24/6/6 30/11/15 15/14/18 10/7/7
f 15/14/18 9/13/17 12/16/20 11/8/8 10/7/7
f 5/9/12 3/9/11 17/17/21 20/17/22
f 1/10/14 13/1/1 14/4/4 3/9/11
f 4/3/3 6/3/9 19/18/23 18/18/24
f 14/4/4 4/3/3 18/18/24 16/19/25
f 3/9/11 14/4/4 16/19/25 17/17/21
f 20/17/22 17/17/21 41/20/26 42/20/27
f 33/21/28 35/22/29 29/23/30 23/24/31
f 23/25/31 29/26/30 30/27/15 24/28/6
f 34/29/32 32/30/33 21/31/34 27/32/35
f 27/33/35 21/34/34 22/35/19 28/36/16
f 35/22/29 34/29/32 27/32/35 29/23/30
f 29/26/30 27/33/35 28/36/16 30/27/15
f 13/1/1 1/10/14 34/37/32 35/38/29
f 1/10/14 7/10/13 32/39/33 34/37/32
f 2/2/2 13/1/1 35/38/29 33/40/28
f 18/18/24 19/18/23 43/41/36 44/41/37
f 16/19/25 18/18/24 44/41/37 45/42/38
f 40/43/39 37/44/40 36/44/41 38/45/42 39/45/43
f 17/17/21 16/19/25 45/42/38 41/20/26
f 26/46/44 31/47/45 33/21/28 23/24/31
f 25/48/5 26/49/44 23/25/31 24/28/6
f 31/50/45 8/2/10 2/2/2 33/40/28
f 22/35/46 21/34/47 32/39/48 7/10/49 5/9/50 20/17/51 42/20/52 43/41/53 19/18/54 6/3/55 8/2/56 31/50/57 26/49/58 25/48/59 11/51/60 12/52/61
f 39/53/43 38/53/42 42/20/27 41/20/26
f 36/54/41 37/54/40 44/41/37 43/41/36
f 37/54/40 40/55/39 45/42/38 44/41/37
f 38/53/42 36/54/41 43/41/36 42/20/27
f 40/55/39 39/53/43 41/20/26 45/42/38
f 52/1/62 53/4/63 49/3/64 47/2/65
f 25/5/66 11/8/67 51/7/68 59/6/69
f 6/3/70 8/2/71 47/2/65 49/3/64
f 48/9/72 46/10/73 7/10/74 5/9/75
f 63/11/76 54/14/77 50/13/78 61/12/79
f 61/12/79 50/13/78 12/16/80 22/15/81
f 59/6/69 51/7/68 54/14/77 63/11/76
f 54/14/77 51/7/68 11/8/67 12/16/80 50/13/78
f 5/9/75 20/17/82 56/17/83 48/9/72
f 46/10/73 48/9/72 53/4/63 52/1/62
f 49/3/64 57/18/84 19/18/85 6/3/70
f 53/4/63 55/19/86 57/18/84 49/3/64
f 48/9/72 56/17/83 55/19/86 53/4/63
f 20/17/82 42/20/87 72/20/88 56/17/83
f 64/21/89 58/24/90 62/23/91 66/22/92
f 58/25/90 59/28/69 63/27/76 62/26/91
f 65/29/93 60/32/94 21/31/95 32/30/96
f 60/33/94 61/36/79 22/35/81 21/34/95
f 66/22/92 62/23/91 60/32/94 65/29/93
f 62/26/91 63/27/76 61/36/79 60/33/94
f 52/1/62 66/38/92 65/37/93 46/10/73
f 46/10/73 65/37/93 32/39/96 7/10/74
f 47/2/65 64/40/89 66/38/92 52/1/62
f 57/18/84 73/41/97 43/41/98 19/18/85
f 55/19/86 74/42/99 73/41/97 57/18/84
f 71/43/100 70/45/101 69/45/102 67/44/103 68/44/104
f 56/17/83 72/20/88 74/42/99 55/19/86
f 26/46/105 58/24/90 64/21/89 31/47/106
f 25/48/66 59/28/69 58/25/90 26/49/105
f 31/50/106 64/40/89 47/2/65 8/2/71
f 70/53/101 72/20/88 42/20/87 69/53/102
f 67/54/103 43/41/98 73/41/97 68/54/104
f 68/54/104 73/41/97 74/42/99 71/55/100
f 69/53/102 42/20/87 43/41/98 67/54/103
f 71/55/100 74/42/99 72/20/88 70/53/101
s 0
f 168/104/201 169/105/201 171/106/201 170/107/201
f 170/107/202 171/106/202 175/108/202 174/109/202
f 174/109/203 175/108/203 173/110/203 172/111/203
f 172/111/204 173/110/204 169/105/204 168/104/204
f 175/108/205 171/106/205 169/105/205 173/110/205
f 176/112/206 177/113/206 179/114/206 178/115/206
f 178/115/207 179/114/207 183/116/207 182/117/207
f 182/117/208 183/116/208 181/118/208 180/119/208
f 180/119/209 181/118/209 177/113/209 176/112/209
f 183/116/210 179/114/210 177/113/210 181/118/210
f 184/120/211 185/121/211 187/122/211 186/123/211
f 186/123/212 187/122/212 191/124/212 190/125/212
f 190/125/213 191/124/213 189/126/213 188/127/213
f 188/127/214 189/126/214 185/121/214 184/120/214
f 191/124/215 187/122/215 185/121/215 189/126/215
f 192/128/216 193/129/216 195/130/216 194/131/216
f 194/131/217 195/130/217 199/132/217 198/133/217
f 198/133/218 199/132/218 197/134/218 196/135/218
f 196/135/219 197/134/219 193/129/219 192/128/219
f 199/132/220 195/130/220 193/129/220 197/134/220
f 200/136/221 201/137/221 203/138/221 202/139/221
f 202/139/222 203/138/222 207/140/222 206/141/222
f 206/141/223 207/140/223 205/142/223 204/143/223
f 204/143/224 205/142/224 201/137/224 200/136/224
f 202/139/225 206/141/225 204/143/225 200/136/225
f 207/140/226 203/138/226 201/137/226 205/142/226
f 208/144/227 209/145/227 211/146/227 210/147/227
f 210/147/228 211/146/228 215/148/228 214/149/228
f 214/149/229 215/148/229 213/150/229 212/151/229
f 212/151/230 213/150/230 209/145/230 208/144/230
f 215/148/231 211/146/231 209/145/231 213/150/231
f 216/152/232 217/153/232 219/154/232 218/155/232
f 218/155/233 219/154/233 223/156/233 222/157/233
f 222/157/234 223/156/234 221/158/234 220/159/234
f 220/159/235 221/158/235 217/153/235 216/152/235
f 223/156/236 219/154/236 217/153/236 221/158/236
f 224/160/237 225/161/237 227/162/237 226/163/237
f 226/163/238 227/162/238 231/164/238 230/165/238
f 230/165/239 231/164/239 229/166/239 228/167/239
f 228/167/240 229/166/240 225/161/240 224/160/240
f 231/164/241 227/162/241 225/161/241 229/166/241
f 232/168/242 233/169/242 235/170/242 234/171/242
f 234/171/243 235/170/243 239/172/243 238/173/243
f 238/173/244 239/172/244 237/174/244 236/175/244
f 236/175/245 237/174/245 233/169/245 232/168/245
f 239/172/246 235/170/246 233/169/246 237/174/246
f 240/176/247 241/177/247 243/178/247 242/179/247
f 242/179/248 243/178/248 247/180/248 246/181/248
f 246/181/249 247/180/249 245/182/249 244/183/249
f 244/183/250 245/182/250 241/177/250 240/176/250
f 247/180/251 243/178/251 241/177/251 245/182/251
f 248/184/252 249/185/252 251/186/252 250/187/252
f 250/187/253 251/186/253 255/188/253 254/189/253
f 254/189/254 255/188/254 253/190/254 252/191/254
f 252/191/255 253/190/255 249/185/255 248/184/255
f 250/187/256 254/189/256 252/191/256 248/184/256
f 255/188/257 251/186/257 249/185/257 253/190/257
f 256/192/258 257/193/258 259/194/258 258/195/258
f 258/195/259 259/194/259 263/196/259 262/197/259
f 262/197/260 263/196/260 261/198/260 260/199/260
f 260/199/261 261/198/261 257/193/261 256/192/261
f 263/196/262 259/194/262 257/193/262 261/198/262
f 264/200/263 265/201/263 267/202/263 266/203/263
f 266/203/264 267/202/264 271/204/264 270/205/264
f 270/205/265 271/204/265 269/206/265 268/207/265
f 268/207/266 269/206/266 265/201/266 264/200/266
f 271/204/267 267/202/267 265/201/267 269/206/267
f 272/208/268 273/209/268 275/210/268 274/211/268
f 274/211/269 275/210/269 279/212/269 278/213/269
f 278/213/270 279/212/270 277/214/270 276/215/270
f 276/215/271 277/214/271 273/209/271 272/208/271
f 279/212/272 275/210/272 273/209/272 277/214/272
f 280/216/273 281/217/273 283/218/273 282/219/273
f 282/219/274 283/218/274 287/220/274 286/221/274
f 286/221/275 287/220/275 285/222/275 284/223/275
f 284/223/276 285/222/276 281/217/276 280/216/276
f 287/220/277 283/218/277 281/217/277 285/222/277
f 288/224/278 289/225/278 291/226/278 290/227/278
f 290/227/279 291/226/279 295/228/279 294/229/279
f 294/229/280 295/228/280 293/230/280 292/231/280
f 292/231/281 293/230/281 289/225/281 288/224/281
f 295/228/282 291/226/282 289/225/282 293/230/282
f 296/232/283 297/233/283 299/234/283 298/235/283
f 298/235/284 299/234/284 303/236/284 302/237/284
f 302/237/285 303/236/285 301/238/285 300/239/285
f 300/239/286 301/238/286 297/233/286 296/232/286
f 298/235/287 302/237/287 300/239/287 296/232/287
f 303/236/288 299/234/288 297/233/288 301/238/288
f 304/240/289 305/241/289 307/242/289 306/243/289
f 310/244/290 311/245/290 309/246/290 308/247/290
f 308/247/291 309/246/291 305/241/291 304/240/291
f 311/245/292 307/242/292 305/241/292 309/246/292
f 312/248/293 313/249/293 315/250/293 314/251/293
f 314/251/294 315/250/294 319/252/294 318/253/294
f 318/253/295 319/252/295 317/254/295 316/255/295
f 316/255/296 317/254/296 313/249/296 312/248/296
f 319/252/297 315/250/297 313/249/297 317/254/297
f 320/256/298 321/257/298 323/258/298 322/259/298
f 322/259/299 323/258/299 327/260/299 326/261/299
f 326/261/300 327/260/300 325/262/300 324/263/300
f 324/263/301 325/262/301 321/257/301 320/256/301
f 327/260/302 323/258/302 321/257/302 325/262/302
f 328/264/303 329/265/303 331/266/303 330/267/303
f 330/267/304 331/266/304 335/268/304 334/269/304
f 334/269/305 335/268/305 333/270/305 332/271/305
f 332/271/306 333/270/306 329/265/306 328/264/306
f 335/268/307 331/266/307 329/265/307 333/270/307
f 336/272/308 337/273/308 339/274/308 338/275/308
f 338/275/309 339/274/309 343/276/309 342/277/309
f 342/277/310 343/276/310 341/278/310 340/279/310
f 340/279/311 341/278/311 337/273/311 336/272/311
f 343/276/312 339/274/312 337/273/312 341/278/312
f 344/280/313 345/281/313 347/282/313 346/283/313
f 346/283/314 347/282/314 351/284/314 350/285/314
f 350/285/315 351/284/315 349/286/315 348/287/315
f 348/287/316 349/286/316 345/281/316 344/280/316
f 351/284/317 347/282/317 345/281/317 349/286/317
f 352/288/318 353/289/318 355/290/318 354/291/318
f 354/291/319 355/290/319 359/292/319 358/293/319
f 358/293/320 359/292/320 357/294/320 356/295/320
f 356/295/321 357/294/321 353/289/321 352/288/321
f 359/292/322 355/290/322 353/289/322 357/294/322
f 360/104/323 362/107/323 363/106/323 361/105/323
f 362/107/324 366/109/324 367/108/324 363/106/324
f 366/109/325 364/111/325 365/110/325 367/108/325
f 364/111/326 360/104/326 361/105/326 365/110/326
f 367/108/327 365/110/327 361/105/327 363/106/327
f 368/112/328 370/115/328 371/114/328 369/113/328
f 370/115/329 374/117/329 375/116/329 371/114/329
f 374/117/330 372/119/330 373/118/330 375/116/330
f 372/119/331 368/112/331 369/113/331 373/118/331
f 375/116/332 373/118/332 369/113/332 371/114/332
f 376/120/333 378/123/333 379/122/333 377/121/333
f 378/123/334 382/125/334 383/124/334 379/122/334
f 382/125/335 380/127/335 381/126/335 383/124/335
f 380/127/336 376/120/336 377/121/336 381/126/336
f 383/124/337 381/126/337 377/121/337 379/122/337
f 384/128/338 386/131/338 387/130/338 385/129/338
f 386/131/339 390/133/339 391/132/339 387/130/339
f 390/133/340 388/135/340 389/134/340 391/132/340
f 388/135/341 384/128/341 385/129/341 389/134/341
f 391/132/342 389/134/342 385/129/342 387/130/342
f 392/136/343 394/139/343 395/138/343 393/137/343
f 394/139/344 398/141/344 399/140/344 395/138/344
f 398/141/345 396/143/345 397/142/345 399/140/345
f 396/143/346 392/136/346 393/137/346 397/142/346
f 394/139/347 392/136/347 396/143/347 398/141/347
f 399/140/348 397/142/348 393/137/348 395/138/348
f 400/144/349 402/147/349 403/146/349 401/145/349
f 402/147/350 406/149/350 407/148/350 403/146/350
f 406/149/351 404/151/351 405/150/351 407/148/351
f 404/151/352 400/144/352 401/145/352 405/150/352
f 407/148/353 405/150/353 401/145/353 403/146/353
f 408/152/354 410/155/354 411/154/354 409/153/354
f 410/155/355 414/157/355 415/156/355 411/154/355
f 414/157/356 412/159/356 413/158/356 415/156/356
f 412/159/357 408/152/357 409/153/357 413/158/357
f 415/156/358 413/158/358 409/153/358 411/154/358
f 416/160/359 418/163/359 419/162/359 417/161/359
f 418/163/360 422/165/360 423/164/360 419/162/360
f 422/165/361 420/167/361 421/166/361 423/164/361
f 420/167/362 416/160/362 417/161/362 421/166/362
f 423/164/363 421/166/363 417/161/363 419/162/363
f 424/168/364 426/171/364 427/170/364 425/169/364
f 426/171/365 430/173/365 431/172/365 427/170/365
f 430/173/366 428/175/366 429/174/366 431/172/366
f 428/175/367 424/168/367 425/169/367 429/174/367
f 431/172/368 429/174/368 425/169/368 427/170/368
f 432/176/369 434/179/369 435/178/369 433/177/369
f 434/179/370 438/181/370 439/180/370 435/178/370
f 438/181/371 436/183/371 437/182/371 439/180/371
f 436/183/372 432/176/372 433/177/372 437/182/372
f 439/180/373 437/182/373 433/177/373 435/178/373
f 440/184/374 442/187/374 443/186/374 441/185/374
f 442/187/375 446/189/375 447/188/375 443/186/375
f 446/189/376 444/191/376 445/190/376 447/188/376
f 444/191/377 440/184/377 441/185/377 445/190/377
f 442/187/378 440/184/378 444/191/378 446/189/378
f 447/188/379 445/190/379 441/185/379 443/186/379
f 448/192/380 450/195/380 451/194/380 449/193/380
f 450/195/381 454/197/381 455/196/381 451/194/381
f 454/197/382 452/199/382 453/198/382 455/196/382
f 452/199/383 448/192/383 449/193/383 453/198/383
f 455/196/384 453/198/384 449/193/384 451/194/384
f 456/200/385 458/203/385 459/202/385 457/201/385
f 458/203/386 462/205/386 463/204/386 459/202/386
f 462/205/387 460/207/387 461/206/387 463/204/387
f 460/207/388 456/200/388 457/201/388 461/206/388
f 463/204/389 461/206/389 457/201/389 459/202/389
f 464/208/390 466/211/390 467/210/390 465/209/390
f 466/211/391 470/213/391 471/212/391 467/210/391
f 470/213/392 468/215/392 469/214/392 471/212/392
f 468/215/393 464/208/393 465/209/393 469/214/393
f 471/212/394 469/214/394 465/209/394 467/210/394
f 472/216/395 474/219/395 475/218/395 473/217/395
f 474/219/396 478/221/396 479/220/396 475/218/396
f 478/221/397 476/223/397 477/222/397 479/220/397
f 476/223/398 472/216/398 473/217/398 477/222/398
f 479/220/399 477/222/399 473/217/399 475/218/399
f 480/224/400 482/227/400 483/226/400 481/225/400
f 482/227/401 486/229/401 487/228/401 483/226/401
f 486/229/402 484/231/402 485/230/402 487/228/402
f 484/231/403 480/224/403 481/225/403 485/230/403
f 487/228/404 485/230/404 481/225/404 483/226/404
f 488/232/405 490/235/405 491/234/405 489/233/405
f 490/235/406 494/237/406 495/236/406 491/234/406
f 494/237/407 492/239/407 493/238/407 495/236/407
f 492/239/408 488/232/408 489/233/408 493/238/408
f 490/235/409 488/232/409 492/239/409 494/237/409
f 495/236/410 493/238/410 489/233/410 491/234/410
f 496/240/411 498/243/411 499/242/411 497/241/411
f 502/244/412 500/247/412 501/246/412 503/245/412
f 500/247/413 496/240/413 497/241/413 501/246/413
f 503/245/414 501/246/414 497/241/414 499/242/414
f 504/248/415 506/251/415 507/250/415 505/249/415
f 506/251/416 510/253/416 511/252/416 507/250/416
f 510/253/417 508/255/417 509/254/417 511/252/417
f 508/255/418 504/248/418 505/249/418 509/254/418
f 511/252/419 509/254/419 505/249/419 507/250/419
f 512/256/420 514/259/420 515/258/420 513/257/420
f 514/259/421 518/261/421 519/260/421 515/258/421
f 518/261/422 516/263/422 517/262/422 519/260/422
f 516/263/423 512/256/423 513/257/423 517/262/423
f 519/260/424 517/262/424 513/257/424 515/258/424
f 520/264/425 522/267/425 523/266/425 521/265/425
f 522/267/426 526/269/426 527/268/426 523/266/426
f 526/269/427 524/271/427 525/270/427 527/268/427
f 524/271/428 520/264/428 521/265/428 525/270/428
f 527/268/429 525/270/429 521/265/429 523/266/429
f 528/272/430 530/275/430 531/274/430 529/273/430
f 530/275/431 534/277/431 535/276/431 531/274/431
f 534/277/432 532/279/432 533/278/432 535/276/432
f 532/279/433 528/272/433 529/273/433 533/278/433
f 535/276/434 533/278/434 529/273/434 531/274/434
f 536/280/435 538/283/435 539/282/435 537/281/435
f 538/283/436 542/285/436 543/284/436 539/282/436
f 542/285/437 540/287/437 541/286/437 543/284/437
f 540/287/438 536/280/438 537/281/438 541/286/438
f 543/284/439 541/286/439 537/281/439 539/282/439
f 544/288/440 546/291/440 547/290/440 545/289/440
f 546/291/441 550/293/441 551/292/441 547/290/441
f 550/293/442 548/295/442 549/294/442 551/292/442
f 548/295/443 544/288/443 545/289/443 549/294/443
f 551/292/444 549/294/444 545/289/444 547/290/444
s 1
usemtl Material.001
f 76/56/107 77/57/108 78/58/109 75/59/110
f 80/60/111 75/59/110 78/58/109 81/61/112
f 81/61/112 78/58/109 82/62/113 79/63/114
f 77/57/108 76/56/107 80/60/111 81/61/112
f 80/60/111 76/56/107 84/64/115 86/65/116
f 84/64/115 83/66/117 86/65/116
f 75/59/110 80/60/111 86/65/116 83/66/117
f 76/56/107 75/59/110 83/66/117 84/64/115
f 77/57/108 81/61/112 79/63/114 85/67/118
f 78/58/109 77/57/108 85/67/118 82/62/113
f 88/56/119 87/59/120 90/58/121 89/57/122
f 92/60/123 93/61/124 90/58/121 87/59/120
f 93/61/124 91/63/125 94/62/126 90/58/121
f 89/57/122 93/61/124 92/60/123 88/56/119
f 92/60/123 98/65/127 96/64/128 88/56/119
f 96/64/128 98/65/127 95/66/129
f 87/59/120 95/66/129 98/65/127 92/60/123
f 88/56/119 96/64/128 95/66/129 87/59/120
f 89/57/122 97/67/130 91/63/125 93/61/124
f 90/58/121 94/62/126 97/67/130 89/57/122
f 100/68/131 101/69/132 102/70/133 99/71/134
f 104/72/135 99/71/134 102/70/133 105/73/136
f 105/73/136 102/70/133 106/74/137 103/75/138
f 101/69/132 100/68/131 104/72/135 105/73/136
f 104/72/135 100/68/131 108/76/139 110/77/140
f 108/76/139 107/78/141 110/77/140
f 99/71/134 104/72/135 110/77/140 107/78/141
f 100/68/131 99/71/134 107/78/141 108/76/139
f 101/69/132 105/73/136 103/75/138 109/79/142
f 102/70/133 101/69/132 109/79/142 106/74/137
f 112/68/143 111/71/144 114/70/145 113/69/146
f 116/72/147 117/73/148 114/70/145 111/71/144
f 117/73/148 115/75/149 118/74/150 114/70/145
f 113/69/146 117/73/148 116/72/147 112/68/143
f 116/72/147 122/77/151 120/76/152 112/68/143
f 120/76/152 122/77/151 119/78/153
f 111/71/144 119/78/153 122/77/151 116/72/147
f 112/68/143 120/76/152 119/78/153 111/71/144
f 113/69/146 121/79/154 115/75/149 117/73/148
f 114/70/145 118/74/150 121/79/154 113/69/146
f 124/80/155 125/81/156 126/82/157 123/83/158
f 128/84/159 123/83/158 126/82/157 129/85/160
f 129/85/160 126/82/157 130/86/161 127/87/162
f 125/81/156 124/80/155 128/84/159 129/85/160
f 128/84/159 124/80/155 132/88/163 134/89/164
f 132/88/163 131/90/165 134/89/164
f 123/83/158 128/84/159 134/89/164 131/90/165
f 124/80/155 123/83/158 131/90/165 132/88/163
f 125/81/156 129/85/160 127/87/162 133/91/166
f 126/82/157 125/81/156 133/91/166 130/86/161
f 136/80/167 135/83/168 138/82/169 137/81/170
f 139/84/171 140/85/172 138/82/169 135/83/168
f 140/85/172 127/87/162 141/86/173 138/82/169
f 137/81/170 140/85/172 139/84/171 136/80/167
f 139/84/171 144/89/174 143/88/175 136/80/167
f 143/88/175 144/89/174 142/90/176
f 135/83/168 142/90/176 144/89/174 139/84/171
f 136/80/167 143/88/175 142/90/176 135/83/168
f 137/81/170 133/91/166 127/87/162 140/85/172
f 138/82/169 141/86/173 133/91/166 137/81/170
f 146/92/177 147/93/178 148/94/179 145/95/180
f 150/96/181 145/95/180 148/94/179 151/97/182
f 151/97/182 148/94/179 152/98/183 149/99/184
f 147/93/178 146/92/177 150/96/181 151/97/182
f 150/96/181 146/92/177 154/100/185 156/101/186
f 154/100/185 153/102/187 156/101/186
f 145/95/180 150/96/181 156/101/186 153/102/187
f 146/92/177 145/95/180 153/102/187 154/100/185
f 147/93/178 151/97/182 149/99/184 155/103/188
f 148/94/179 147/93/178 155/103/188 152/98/183
f 158/92/189 157/95/190 160/94/191 159/93/192
f 162/96/193 163/97/194 160/94/191 157/95/190
f 163/97/194 161/99/195 164/98/196 160/94/191
f 159/93/192 163/97/194 162/96/193 158/92/189
f 162/96/193 167/101/197 166/100/198 158/92/189
f 166/100/198 167/101/197 165/102/199
f 157/95/190 165/102/199 167/101/197 162/96/193
f 158/92/189 166/100/198 165/102/199 157/95/190
f 159/93/192 155/103/200 161/99/195 163/97/194
f 160/94/191 164/98/196 155/103/200 159/93/192
