# Blender 4.5.5 LTS
# www.blender.org
o SM_RiceCrop_Tillering
v -0.213645 1.418327 0.013016
v -0.137086 1.839708 -0.027059
v -0.151590 0.563480 0.080661
v -0.165688 1.414063 0.025944
v -0.093152 1.831104 -0.016754
v -0.080270 1.827178 -0.034821
v -0.150331 1.411986 0.006689
v -0.125493 0.563382 0.052656
v -0.075161 -0.082671 0.050441
v -0.103336 -0.082671 0.080312
v -0.151114 -0.082671 0.081708
v -0.180985 -0.082671 0.053532
v -0.106428 -0.082671 -0.025512
v -0.076557 -0.082671 0.002663
v -0.182381 -0.082671 0.005755
v -0.154206 -0.082671 -0.024117
v -0.224145 0.563737 0.055603
v -0.196134 0.563639 0.081992
v -0.194277 1.416928 0.028803
v -0.118800 1.836762 -0.013250
v -0.128689 1.834988 -0.071326
v -0.201593 1.415745 -0.035050
v -0.199617 0.563663 -0.017159
v -0.225714 0.563748 0.010837
v -0.216946 1.417793 -0.015813
v -0.141571 1.838911 -0.053267
v -0.084715 1.826372 -0.061050
v -0.153644 1.411455 -0.022134
v -0.127072 0.563390 0.007890
v -0.155087 0.563501 -0.018489
v -0.173018 1.412885 -0.037901
v -0.103002 1.829323 -0.074849
v -0.115466 0.246179 0.050892
v -0.188648 0.238084 0.081187
v -0.142605 0.243119 0.079842
v -0.217441 0.235026 0.053867
v -0.191646 0.238084 -0.021405
v -0.116824 0.246180 0.004577
v -0.218794 0.235026 0.007549
v -0.145608 0.243120 -0.022747
v 0.186370 2.706151 -0.119350
v 0.137284 2.565698 -0.094123
v 0.146088 2.560068 -0.108078
v 0.188473 2.704972 -0.122769
v 0.178338 2.708829 -0.121128
v 0.104250 2.578904 -0.101332
v 0.118403 2.574200 -0.091087
v 0.181796 2.707895 -0.118610
v 0.187367 2.704751 -0.127646
v 0.141612 2.559164 -0.127945
v 0.127405 2.563727 -0.138155
v 0.183927 2.705674 -0.130161
v 0.179352 2.707417 -0.129421
v 0.108516 2.572233 -0.135102
v 0.099769 2.578002 -0.121186
v 0.177231 2.708608 -0.126006
v -0.866907 1.491093 -0.098261
v -0.219588 0.323621 0.060711
v -0.194128 0.328225 -0.026002
v -0.502432 1.068397 0.014594
v -0.324930 0.724297 0.061524
v -0.291800 0.729404 -0.107851
v -0.473197 1.073281 -0.141802
v -0.525650 1.029296 -0.071810
v -0.348346 0.684128 -0.032701
v -0.209191 0.289833 0.037052
v -0.251946 0.298075 0.013039
v -0.196726 0.292784 -0.005632
v -0.662688 1.322868 -0.062719
v -0.687267 1.286547 -0.099775
v -0.648975 1.324040 -0.135612
v 0.744748 1.684351 -0.744667
v -0.073872 0.778125 -0.074636
v -0.011143 0.786307 0.008051
v 0.301952 1.551031 -0.436747
v 0.083999 1.264768 -0.256456
v 0.214395 1.270434 -0.111139
v 0.425290 1.555733 -0.301404
v 0.384474 1.495707 -0.385963
v 0.172406 1.207011 -0.201600
v -0.068089 0.743841 -0.040942
v -0.016318 0.735714 -0.062830
v -0.036990 0.748582 -0.000458
v 0.501623 1.659344 -0.538451
v 0.536301 1.608527 -0.520703
v 0.558218 1.659502 -0.474537
v 0.171538 1.572949 -0.656642
v -0.190047 1.254225 0.007479
v -0.115204 1.266851 0.059820
v -0.113166 1.896427 -0.283810
v -0.207752 1.658001 -0.083869
v -0.055888 1.679647 0.002293
v 0.033767 1.925334 -0.221477
v -0.047437 1.868246 -0.214713
v -0.104828 1.629404 -0.077306
v -0.166343 1.222641 0.024182
v -0.130909 1.235609 -0.009070
v -0.129567 1.229541 0.049899
v 0.065171 1.761296 -0.499092
v 0.086019 1.732384 -0.452905
v 0.133211 1.774740 -0.469022
v -0.490881 1.893150 0.582362
v -0.178760 0.519748 0.070503
v -0.229472 0.529436 0.047180
v -0.329907 1.396192 0.324126
v -0.239319 0.991121 0.181271
v -0.339708 1.005111 0.145254
v -0.422772 1.409283 0.291705
v -0.380346 1.353212 0.324995
v -0.294421 0.947209 0.181363
v -0.187887 0.481042 0.057928
v -0.208234 0.490937 0.082285
v -0.212941 0.486619 0.046569
v -0.426072 1.696989 0.443036
v -0.446884 1.655146 0.449908
v -0.469208 1.701786 0.427742
v -0.623714 2.515866 -0.333102
v -0.214410 0.348250 0.020201
v -0.140484 0.374780 -0.010851
v -0.437028 1.704934 -0.083675
v -0.324249 1.067342 0.011307
v -0.189144 1.113920 -0.061447
v -0.313093 1.748376 -0.151765
v -0.386746 1.658852 -0.155156
v -0.268589 1.021273 -0.064935
v -0.188068 0.293145 0.008561
v -0.197683 0.317719 -0.033390
v -0.151799 0.307422 -0.006663
v -0.508222 2.189567 -0.198242
v -0.492936 2.136649 -0.242113
v -0.450276 2.207851 -0.230092
v 0.188467 1.328885 0.139255
v 0.309397 1.732192 0.227283
v 0.103341 0.474091 0.103608
v 0.212004 1.316021 0.181275
v 0.331624 1.715838 0.264011
v 0.353105 1.710439 0.259866
v 0.236221 1.312063 0.178312
v 0.141439 0.470573 0.102369
v 0.117661 -0.174057 0.040644
v 0.076780 -0.170349 0.041712
v 0.042716 -0.162241 0.009176
v 0.042212 -0.156100 -0.031422
v 0.150391 -0.165912 -0.034249
v 0.150895 -0.172054 0.006349
v 0.075446 -0.154097 -0.065717
v 0.116327 -0.157805 -0.066785
v 0.071090 0.487660 0.035285
v 0.071577 0.481805 0.073319
v 0.190439 1.323617 0.163641
v 0.311893 1.725659 0.249302
v 0.346455 1.727745 0.201606
v 0.230973 1.326060 0.113810
v 0.140142 0.486085 0.001739
v 0.102050 0.489592 0.002971
v 0.206769 1.329987 0.116758
v 0.324978 1.733141 0.205744
v 0.368729 1.711374 0.238341
v 0.254510 1.313171 0.155811
v 0.172390 0.472503 0.070047
v 0.171895 0.478370 0.032020
v 0.252523 1.318469 0.131440
v 0.366226 1.717911 0.216329
v 0.120085 0.156601 0.061292
v 0.047000 0.160009 0.029893
v 0.080296 0.157153 0.061992
v 0.046345 0.162924 -0.009804
v 0.118362 0.164310 -0.043748
v 0.152299 0.158544 0.028043
v 0.078564 0.164866 -0.043051
v 0.151653 0.161456 -0.011651
v 0.680580 2.534105 0.515254
v 0.550478 2.240824 0.427361
v 0.564598 2.235827 0.423883
v 0.682704 2.533324 0.514647
v 0.678319 2.536387 0.511625
v 0.535735 2.255459 0.403436
v 0.537476 2.249713 0.418132
v 0.678601 2.535489 0.513890
v 0.684220 2.533408 0.512289
v 0.574745 2.236430 0.408902
v 0.572951 2.242115 0.394173
v 0.683943 2.534298 0.510031
v 0.681963 2.535682 0.508667
v 0.559896 2.250982 0.384957
v 0.545841 2.256040 0.388468
v 0.679834 2.536471 0.509267
v 0.785511 1.700538 0.542951
v 0.205582 0.549471 0.014696
v 0.129444 0.558425 0.085136
v 0.462844 1.430487 0.180162
v 0.314442 1.080324 0.048563
v 0.184177 1.091983 0.193640
v 0.341809 1.441197 0.317231
v 0.431036 1.387201 0.277959
v 0.279662 1.035344 0.153099
v 0.179149 0.512568 0.031536
v 0.207195 0.519136 0.080482
v 0.141782 0.517744 0.066256
v 0.563536 1.593191 0.339323
v 0.558507 1.548936 0.385325
v 0.506575 1.595904 0.402853
v 0.115441 1.779934 0.800881
v 0.106217 0.123705 0.003866
v 0.048761 0.152408 -0.022657
v 0.170429 1.175971 0.422655
v 0.165844 0.686906 0.197505
v 0.050497 0.736326 0.156758
v 0.063757 1.221753 0.386074
v 0.098060 1.139112 0.419219
v 0.087657 0.650356 0.193078
v 0.084543 0.081874 -0.016070
v 0.062728 0.096401 0.015167
v 0.056378 0.096974 -0.028877
v 0.139174 1.545746 0.605933
v 0.102400 1.501121 0.609521
v 0.089264 1.565518 0.588498
v -0.030832 1.506919 -0.070080
v -0.090460 1.929131 -0.013417
v -0.077070 0.648754 -0.045477
v -0.076898 1.501188 -0.051909
v -0.131515 1.919303 0.004702
v -0.131051 1.916501 0.027055
v -0.077825 1.500283 -0.027226
v -0.081600 0.650310 -0.007498
v -0.087877 0.005450 0.056055
v -0.082767 0.003691 0.015349
v -0.045069 0.004162 -0.014033
v -0.004379 0.006494 -0.009025
v -0.017903 0.011150 0.098689
v -0.058593 0.008818 0.093681
v 0.024905 0.009862 0.028601
v 0.019794 0.011622 0.069307
v -0.003817 0.651633 -0.068236
v -0.041950 0.649350 -0.072902
v -0.055680 1.504185 -0.071261
v -0.113191 1.925006 -0.013569
v -0.070898 1.927428 0.027409
v -0.012088 1.507571 -0.024140
v 0.019295 0.656370 0.004834
v 0.023831 0.654803 -0.033136
v -0.011152 1.508447 -0.048804
v -0.071356 1.930228 0.005061
v -0.111969 1.917589 0.045575
v -0.058139 1.501815 -0.005963
v -0.053943 0.653477 0.027596
v -0.015815 0.655771 0.032250
v -0.033300 1.504578 -0.004803
v -0.089243 1.921719 0.045719
v -0.072444 0.333915 0.015564
v -0.030883 0.324588 -0.051701
v -0.067469 0.329155 -0.023635
v 0.008589 0.323797 -0.046593
v 0.031999 0.331820 0.029093
v -0.044052 0.337181 0.052036
v 0.036979 0.327062 -0.010116
v -0.004585 0.336388 0.057153
v -0.338394 2.796483 0.210170
v -0.265769 2.481583 0.131224
v -0.264881 2.478244 0.146208
v -0.338193 2.795973 0.212320
v -0.334476 2.798017 0.208338
v -0.238554 2.491878 0.118685
v -0.253887 2.487769 0.118824
v -0.336717 2.797407 0.208373
v -0.336189 2.796044 0.214061
v -0.251503 2.478857 0.158390
v -0.236137 2.482897 0.158212
v -0.333956 2.796648 0.214031
v -0.332278 2.797571 0.212234
v -0.224262 2.489054 0.145759
v -0.225185 2.492466 0.130827
v -0.332471 2.798088 0.210079
v -0.471584 1.990583 0.408840
v 0.004248 0.728912 0.059417
v -0.053364 0.733826 -0.027160
v -0.098635 1.647876 0.180545
v 0.013537 1.270470 0.097255
v -0.109601 1.277479 -0.054206
v -0.215296 1.654473 0.039482
v -0.195113 1.609689 0.139513
v -0.089338 1.230818 0.052475
v -0.012627 0.690450 0.035334
v -0.064023 0.705128 0.054530
v -0.040964 0.693647 -0.007274
v -0.251670 1.836356 0.235310
v -0.301058 1.796157 0.228620
v -0.305865 1.837076 0.169353
v -0.711645 2.444940 -0.458402
v -0.122479 0.749434 -0.062731
v -0.079686 0.767502 -0.114411
v -0.426770 1.828463 -0.235574
v -0.262163 1.328299 -0.123154
v -0.189188 1.357415 -0.229146
v -0.360336 1.855551 -0.333890
v -0.409708 1.781428 -0.299639
v -0.242683 1.280658 -0.192576
v -0.102519 0.703543 -0.073341
v -0.125662 0.717088 -0.104060
v -0.081617 0.713430 -0.098849
v -0.555264 2.202618 -0.357227
v -0.554558 2.153566 -0.388048
v -0.524053 2.213640 -0.402947
v 0.047794 1.437512 0.150418
v 0.050813 1.862943 0.104230
v 0.071730 0.592225 0.148367
v 0.071776 1.434618 0.106810
v 0.070936 1.856103 0.063503
v 0.056354 1.854694 0.046381
v 0.056798 1.435144 0.087155
v 0.051082 0.593781 0.116171
v 0.015525 -0.051079 0.115480
v 0.037458 -0.052838 0.150150
v 0.027039 -0.052367 0.196797
v -0.007554 -0.050035 0.218799
v -0.065593 -0.045379 0.127057
v -0.031001 -0.047711 0.105054
v -0.054079 -0.046667 0.208373
v -0.076012 -0.044907 0.173703
v 0.029656 0.595104 0.212505
v 0.062056 0.592821 0.191864
v 0.067712 1.435688 0.135377
v 0.068434 1.859829 0.089618
v 0.009753 1.862944 0.085088
v 0.004129 1.440023 0.126981
v -0.034639 0.599841 0.170795
v -0.014000 0.598273 0.202988
v 0.019087 1.439469 0.146626
v 0.024326 1.864351 0.102208
v 0.029857 1.856097 0.044314
v 0.028095 1.437103 0.083376
v 0.007423 0.596947 0.106665
v -0.024967 0.599242 0.127312
v 0.008197 1.438955 0.098430
v 0.012245 1.859216 0.058930
v 0.029353 0.277386 0.116770
v 0.040035 0.268059 0.195114
v 0.050434 0.272626 0.150190
v 0.006319 0.267268 0.216265
v -0.059867 0.275291 0.172726
v -0.015750 0.280652 0.106667
v -0.038785 0.270533 0.206157
v -0.049468 0.279859 0.127808
v 0.160545 2.568278 -0.066196
v 0.123572 2.248223 0.016614
v 0.113167 2.246723 0.005392
v 0.158772 2.568000 -0.067984
v 0.158566 2.569878 -0.061616
v 0.111384 2.257624 0.044309
v 0.122756 2.253177 0.034165
v 0.160452 2.569128 -0.063322
v 0.155764 2.568376 -0.068056
v 0.095243 2.249123 0.004547
v 0.083862 2.253498 0.014737
v 0.153881 2.569119 -0.066361
v 0.153788 2.569969 -0.063486
v 0.083083 2.258417 0.032321
v 0.093489 2.259995 0.043487
v 0.155558 2.570255 -0.061688
v -0.157814 1.421051 0.184827
v -0.118154 1.846482 0.208691
v -0.166968 0.575763 0.207039
v -0.130060 1.418157 0.226137
v -0.091189 1.839641 0.245249
v -0.069287 1.838232 0.240143
v -0.105725 1.418682 0.221840
v -0.128888 0.577320 0.203454
v -0.111969 -0.067540 0.172172
v -0.152837 -0.069300 0.175765
v -0.189511 -0.068829 0.145115
v -0.193201 -0.066497 0.104284
v -0.085058 -0.061840 0.094778
v -0.081368 -0.064173 0.135609
v -0.162600 -0.063129 0.067721
v -0.121732 -0.061369 0.064128
v -0.204671 0.578642 0.140237
v -0.201186 0.576359 0.178495
v -0.153582 1.419227 0.209425
v -0.113249 1.843367 0.231051
v -0.082314 1.846482 0.180980
v -0.116964 1.423561 0.156772
v -0.138121 0.583379 0.102228
v -0.176194 0.581812 0.105806
v -0.141280 1.423007 0.161056
v -0.104211 1.847889 0.186080
v -0.055299 1.839635 0.217545
v -0.089204 1.420641 0.198065
v -0.100420 0.580486 0.169016
v -0.103915 0.582780 0.130764
v -0.093457 1.422494 0.173479
v -0.060211 1.842754 0.195191
v -0.119456 0.260924 0.183870
v -0.193976 0.251597 0.157436
v -0.158823 0.256165 0.187277
v -0.197310 0.250806 0.117775
v -0.128268 0.258829 0.078923
v -0.089796 0.264190 0.148422
v -0.167644 0.254071 0.082328
v -0.093120 0.263397 0.108764
v -0.016904 2.552114 0.383084
v -0.073659 2.231761 0.313527
v -0.058915 2.230262 0.309427
v -0.015346 2.551934 0.382594
v -0.018955 2.553152 0.380581
v -0.092681 2.241162 0.289996
v -0.088881 2.236715 0.304754
v -0.018533 2.552665 0.382176
v -0.014409 2.552177 0.380882
v -0.049945 2.232661 0.293886
v -0.053781 2.237036 0.279100
v -0.014826 2.552660 0.379292
v -0.016456 2.553211 0.378383
v -0.069050 2.241955 0.270343
v -0.083745 2.243533 0.274470
v -0.018019 2.553396 0.378868
v -0.249267 1.979378 0.604173
v -0.114041 1.056500 0.213526
v -0.152344 1.075021 0.160393
v -0.111813 1.624554 0.407518
v -0.077676 1.353530 0.300516
v -0.160484 1.388148 0.206642
v -0.188828 1.656744 0.321673
v -0.179947 1.615118 0.381771
v -0.150649 1.344880 0.271416
v -0.130131 1.035993 0.194966
v -0.160920 1.049894 0.211022
v -0.148875 1.045609 0.168892
v -0.174337 1.835570 0.485727
v -0.213880 1.818505 0.482512
v -0.210419 1.849768 0.445602
vn -0.4293 -0.0091 -0.9031
vn -0.4878 -0.0020 -0.8730
vn 0.2730 -0.0710 -0.9594
vn 0.3422 0.0042 -0.9396
vn -0.8781 0.1165 0.4641
vn -0.8251 0.2561 0.5037
vn -0.9463 0.2164 -0.2402
vn -0.9574 0.0758 -0.2787
vn -0.9032 0.0061 0.4291
vn -0.9436 -0.0080 -0.3310
vn -0.9121 -0.0631 0.4052
vn -0.9345 -0.0608 -0.3507
vn -0.5153 0.0547 -0.8553
vn 0.2152 -0.1345 -0.9673
vn -0.4191 -0.0195 -0.9077
vn 0.3444 0.0362 -0.9381
vn -0.6743 -0.6690 0.3127
vn -0.2522 -0.6439 0.7223
vn -0.3650 -0.0257 0.9307
vn -0.2939 -0.6439 -0.7064
vn -0.6914 -0.6690 -0.2728
vn 0.9072 0.0732 -0.4143
vn 0.7417 -0.5871 -0.3244
vn 0.3001 -0.6100 -0.7334
vn 0.7593 -0.5871 0.2806
vn 0.3424 -0.6100 0.7146
vn 0.9069 0.0233 -0.4207
vn 0.9388 0.0365 0.3426
vn 0.9315 0.0702 0.3570
vn 0.8757 -0.0882 -0.4748
vn 0.9525 -0.0430 0.3015
vn 0.8195 -0.2415 -0.5197
vn 0.9481 -0.2009 0.2466
vn 0.4003 0.0294 0.9159
vn 0.4214 0.0368 0.9061
vn -0.3415 0.0244 0.9396
vn 0.4493 0.0364 0.8927
vn -0.3084 0.1009 0.9459
vn 0.4955 -0.0306 0.8681
vn -0.2415 0.1574 0.9575
vn 0.9200 0.3883 0.0534
vn 0.6348 0.5323 0.5600
vn 0.5231 -0.0535 0.8506
vn 0.9409 -0.2613 0.2156
vn 0.0751 0.7705 0.6330
vn -0.3533 0.8694 0.3454
vn -0.7561 0.3992 0.5186
vn -0.1823 0.2185 0.9587
vn -0.4096 0.8757 -0.2559
vn -0.1453 0.6955 -0.7036
vn -0.4869 0.1806 -0.8546
vn -0.8918 0.3879 -0.2329
vn 0.3644 0.5269 -0.7678
vn 0.8094 0.3915 -0.4377
vn 0.7923 -0.2713 -0.5465
vn 0.2063 -0.0904 -0.9743
vn -0.8032 -0.3796 0.4591
vn -0.8604 -0.4789 -0.1742
vn -0.9000 -0.3818 -0.2101
vn -0.8554 -0.3130 0.4127
vn -0.5965 -0.3453 -0.7246
vn -0.5665 -0.3877 -0.7272
vn -0.6330 -0.4133 0.6546
vn -0.7457 -0.6540 -0.1275
vn -0.8150 -0.5620 -0.1413
vn -0.4793 -0.3760 -0.7931
vn -0.6514 -0.7223 0.2323
vn -0.8432 -0.5075 -0.1776
vn -0.4851 -0.6209 -0.6158
vn -0.5784 -0.2751 -0.7679
vn -0.8691 -0.2135 0.4461
vn -0.0057 -0.6125 -0.7904
vn 0.4851 -0.7659 -0.4220
vn 0.6277 -0.5834 -0.5153
vn 0.1261 -0.5058 -0.8534
vn 0.8563 -0.5158 0.0243
vn 0.7718 -0.6241 0.1217
vn -0.3057 -0.6125 -0.7290
vn 0.1696 -0.9706 -0.1707
vn 0.2977 -0.9089 -0.2921
vn 0.6984 -0.6525 0.2940
vn 0.0564 -0.8523 -0.5200
vn 0.5589 -0.6849 -0.4675
vn 0.6717 -0.7350 0.0927
vn 0.9154 -0.4020 0.0214
vn 0.1524 -0.3778 -0.9133
vn -0.3508 -0.8664 -0.3553
vn 0.3619 -0.8711 -0.3319
vn 0.5085 -0.4258 -0.7484
vn 0.0263 -0.4395 -0.8979
vn 0.8253 -0.3939 -0.4045
vn 0.7010 -0.6558 0.2804
vn -0.7432 -0.6665 0.0581
vn -0.1231 -0.8060 0.5790
vn -0.0687 -0.8666 0.4942
vn 0.5907 -0.5214 0.6158
vn 0.0652 -0.7037 -0.7075
vn 0.4885 -0.4379 -0.7547
vn 0.8064 -0.5207 -0.2804
vn 0.9357 -0.1563 -0.3162
vn -0.1256 -0.2089 -0.9698
vn 0.3380 -0.2615 0.9041
vn -0.3400 -0.3825 0.8592
vn -0.3730 -0.3212 0.8705
vn 0.2551 -0.2428 0.9359
vn -0.8270 -0.3227 0.4603
vn -0.8471 -0.3352 0.4123
vn 0.6203 -0.2478 0.7442
vn -0.3452 -0.5043 0.7915
vn -0.2995 -0.4224 0.8555
vn -0.8989 -0.3202 0.2992
vn -0.0026 -0.7284 0.6852
vn -0.3391 -0.4655 0.8175
vn -0.6983 -0.6240 0.3507
vn -0.8621 -0.2758 0.4251
vn 0.2890 -0.1756 0.9411
vn -0.8969 -0.2320 -0.3765
vn -0.4256 -0.2097 -0.8803
vn -0.4169 -0.1419 -0.8978
vn -0.8699 -0.1929 -0.4539
vn 0.1873 -0.0893 -0.9782
vn 0.2379 -0.1021 -0.9659
vn -0.9532 -0.2955 -0.0631
vn -0.3633 -0.3340 -0.8698
vn -0.4462 -0.2575 -0.8571
vn 0.3570 -0.0883 -0.9299
vn -0.4858 -0.6358 -0.5999
vn -0.3894 -0.2949 -0.8726
vn 0.2074 -0.4209 -0.8831
vn 0.2341 -0.0399 -0.9714
vn -0.8992 -0.1343 -0.4164
vn 0.3486 0.0977 -0.9322
vn 0.2871 0.1136 -0.9511
vn 0.8691 -0.0811 -0.4880
vn 0.9098 -0.0196 -0.4145
vn -0.9290 0.2475 -0.2750
vn -0.9044 0.3805 -0.1930
vn -0.4582 0.3889 -0.7993
vn -0.4560 0.2484 -0.8546
vn -0.9317 0.1444 -0.3334
vn -0.4168 0.1655 -0.8938
vn -0.9271 0.0786 -0.3665
vn -0.4014 0.1127 -0.9089
vn 0.2642 0.1779 -0.9479
vn 0.8315 -0.1314 -0.5398
vn 0.3579 0.0859 -0.9298
vn 0.9133 0.0115 -0.4072
vn -0.7528 -0.5551 -0.3537
vn -0.7516 -0.6177 0.2316
vn -0.9212 0.0027 0.3892
vn 0.2422 -0.5578 -0.7939
vn -0.3455 -0.5306 -0.7740
vn 0.9312 -0.0675 0.3582
vn 0.6908 -0.6927 0.2072
vn 0.6758 -0.6248 -0.3910
vn 0.2700 -0.7181 0.6414
vn -0.3314 -0.6855 0.6483
vn 0.9309 -0.1164 0.3462
vn 0.4079 -0.1370 0.9027
vn 0.3956 -0.1031 0.9126
vn 0.9376 -0.2188 0.2701
vn 0.4394 -0.2161 0.8719
vn 0.9162 -0.3575 0.1813
vn 0.4585 -0.3670 0.8094
vn -0.3759 -0.0732 0.9238
vn -0.3536 -0.0692 0.9328
vn -0.9066 0.0476 0.4193
vn -0.3247 -0.0738 0.9429
vn -0.8811 0.1171 0.4582
vn -0.2835 -0.1435 0.9482
vn -0.8387 0.1665 0.5186
vn 0.6016 0.2077 0.7713
vn 0.0543 0.4002 0.9148
vn -0.2588 -0.1788 0.9492
vn 0.4639 -0.4253 0.7771
vn -0.3580 0.6928 0.6261
vn -0.4135 0.9049 0.1009
vn -0.8780 0.4598 -0.1332
vn -0.8067 0.1881 0.5603
vn -0.0862 0.9211 -0.3796
vn 0.4560 0.7234 -0.5184
vn 0.2800 0.2461 -0.9279
vn -0.4364 0.4897 -0.7548
vn 0.8672 0.4407 -0.2318
vn 0.9281 0.2326 0.2906
vn 0.9065 -0.3950 0.1489
vn 0.8291 -0.1204 -0.5460
vn 0.8807 -0.4736 0.0080
vn 0.5958 -0.5715 0.5643
vn 0.6696 -0.3507 0.6547
vn 0.9369 -0.3329 0.1068
vn 0.1521 -0.3174 0.9360
vn 0.0672 -0.4547 0.8881
vn 0.7904 -0.5472 -0.2752
vn 0.3539 -0.8746 0.3315
vn 0.4748 -0.7692 0.4276
vn -0.1040 -0.5238 0.8455
vn 0.6640 -0.7322 0.1515
vn 0.6336 -0.4706 0.6141
vn 0.1049 -0.5789 0.8086
vn 0.1410 -0.1945 0.9707
vn 0.9758 -0.1947 0.0993
vn 0.2584 -0.4212 0.8694
vn -0.4287 -0.3774 0.8209
vn -0.4468 -0.3116 0.8386
vn 0.1817 -0.3872 0.9039
vn -0.8843 -0.1674 0.4360
vn -0.9062 -0.1701 0.3872
vn 0.5380 -0.4571 0.7082
vn -0.4611 -0.4874 0.7415
vn -0.3985 -0.4250 0.8127
vn -0.9518 -0.1324 0.2768
vn -0.1782 -0.7727 0.6092
vn -0.4465 -0.4538 0.7712
vn -0.8273 -0.4779 0.2953
vn -0.9072 -0.1104 0.4060
vn 0.2302 -0.3305 0.9153
vn 0.8788 0.0594 0.4734
vn 0.9079 0.0651 0.4141
vn 0.3490 -0.0068 0.9371
vn 0.2776 0.0660 0.9584
vn 0.4284 0.0941 -0.8987
vn 0.3588 0.2361 -0.9031
vn 0.8934 0.2499 -0.3732
vn 0.9323 0.1065 -0.3457
vn 0.4750 -0.0132 -0.8799
vn 0.9563 0.0265 -0.2913
vn 0.4998 -0.0805 -0.8624
vn 0.9632 -0.0249 -0.2675
vn 0.9150 0.1257 0.3834
vn 0.3998 -0.0661 0.9142
vn 0.8739 0.0492 0.4836
vn 0.2733 0.0979 0.9569
vn 0.3935 -0.6812 -0.6174
vn -0.1895 -0.6900 -0.6986
vn -0.2529 -0.0865 -0.9636
vn 0.6862 -0.5893 0.4265
vn 0.7524 -0.6399 -0.1562
vn -0.4910 0.0913 0.8664
vn -0.3767 -0.5717 0.7289
vn 0.2214 -0.5606 0.7980
vn -0.7476 -0.6144 0.2524
vn -0.6661 -0.6627 -0.3424
vn -0.4844 0.0419 0.8738
vn -0.9607 0.0012 0.2777
vn -0.9650 0.0339 0.2601
vn -0.4217 -0.0651 0.9044
vn -0.9434 -0.0753 0.3229
vn -0.3465 -0.2128 0.9136
vn -0.9010 -0.2273 0.3694
vn -0.8641 -0.0397 -0.5018
vn -0.8757 -0.0319 -0.4818
vn -0.2797 -0.0375 -0.9594
vn -0.8902 -0.0317 -0.4545
vn -0.3140 0.0379 -0.9487
vn -0.9087 -0.0943 -0.4066
vn -0.3740 0.0979 -0.9223
vn -0.8210 0.3559 0.4465
vn -0.8640 0.4849 -0.1353
vn -0.9172 -0.1255 -0.3783
vn -0.8766 -0.2867 0.3866
vn -0.4900 0.6919 -0.5303
vn 0.0577 0.8464 -0.5294
vn 0.3049 0.3235 -0.8958
vn -0.4172 0.1276 -0.8998
vn 0.4861 0.8632 -0.1365
vn 0.5246 0.7288 0.4401
vn 0.9004 0.1971 0.3878
vn 0.8576 0.3565 -0.3707
vn 0.1539 0.5311 0.8332
vn -0.3914 0.3811 0.8376
vn -0.3174 -0.2538 0.9137
vn 0.4073 -0.0559 0.9116
vn -0.1836 -0.3478 0.9194
vn -0.7016 -0.4327 0.5662
vn -0.7768 -0.1967 0.5983
vn -0.2734 -0.1924 0.9425
vn -0.9771 -0.2083 0.0434
vn -0.9330 -0.3595 -0.0160
vn 0.0997 -0.4582 0.8833
vn -0.4715 -0.7854 0.4011
vn -0.5716 -0.6565 0.4923
vn -0.8745 -0.4546 -0.1691
vn -0.3225 -0.6193 0.7158
vn -0.7448 -0.3236 0.5836
vn -0.8736 -0.4842 0.0481
vn -0.9963 -0.0853 0.0124
vn -0.2564 -0.0515 0.9652
vn -0.9468 -0.3131 0.0739
vn -0.7266 -0.3723 -0.5775
vn -0.7320 -0.3087 -0.6073
vn -0.9575 -0.2880 -0.0126
vn -0.2210 -0.2596 -0.9401
vn -0.1689 -0.2690 -0.9482
vn -0.8642 -0.3205 0.3879
vn -0.6542 -0.4915 -0.5749
vn -0.7314 -0.4156 -0.5407
vn -0.0473 -0.2467 -0.9679
vn -0.6274 -0.7423 -0.2353
vn -0.6827 -0.4541 -0.5725
vn -0.1334 -0.5683 -0.8119
vn -0.1803 -0.2089 -0.9612
vn -0.9742 -0.2242 0.0241
vn -0.9783 0.0669 0.1961
vn -0.9680 0.0486 0.2462
vn -0.8584 -0.0115 -0.5128
vn -0.8267 0.0378 -0.5614
vn 0.2476 0.0840 0.9652
vn 0.2876 0.0993 0.9526
vn -0.4670 0.1526 0.8710
vn -0.5034 0.0880 0.8596
vn 0.1962 0.0325 0.9800
vn -0.5484 0.0644 0.8337
vn 0.1687 -0.0001 0.9857
vn -0.5738 0.0420 0.8179
vn -0.9523 0.1254 0.2783
vn -0.8830 0.0356 -0.4681
vn -0.9829 0.0637 0.1730
vn -0.8172 0.0521 -0.5740
vn 0.0932 -0.6359 0.7661
vn 0.5972 -0.6652 0.4483
vn 0.8150 -0.0394 0.5782
vn -0.8020 -0.5827 0.1310
vn -0.4856 -0.6019 0.6340
vn -0.1746 0.0129 -0.9846
vn -0.1722 -0.6169 -0.7680
vn -0.6720 -0.5889 -0.4491
vn 0.4075 -0.6513 -0.6401
vn 0.7282 -0.6717 -0.1361
vn -0.1856 -0.0051 -0.9826
vn 0.5635 -0.0364 -0.8253
vn 0.5706 -0.0311 -0.8206
vn -0.2466 -0.0555 -0.9675
vn 0.5137 -0.0580 -0.8560
vn -0.3183 -0.0636 -0.9458
vn 0.4428 -0.1192 -0.8887
vn 0.9836 -0.0528 -0.1725
vn 0.9823 -0.0383 -0.1833
vn 0.8264 -0.0097 0.5630
vn 0.9722 -0.0174 -0.2337
vn 0.8536 0.0411 0.5193
vn 0.9530 -0.0943 -0.2879
vn 0.8755 -0.0019 0.4833
vn 0.3881 0.3854 -0.8372
vn 0.7991 0.4428 -0.4067
vn 0.9422 -0.1735 -0.2866
vn 0.4251 -0.2065 -0.8813
vn 0.7775 0.6105 0.1506
vn 0.3683 0.7777 0.5094
vn 0.3438 0.1726 0.9230
vn 0.8894 -0.0142 0.4569
vn -0.2080 0.8522 0.4801
vn -0.6126 0.7888 0.0503
vn -0.9195 0.2537 0.3003
vn -0.4019 0.2856 0.8700
vn -0.5916 0.6302 -0.5028
vn -0.1871 0.4681 -0.8636
vn -0.3443 -0.0901 -0.9345
vn -0.8904 0.0979 -0.4446
vn 0.2744 0.0669 -0.9593
vn 0.2251 0.0486 -0.9731
vn 0.8494 -0.0115 -0.5277
vn 0.8780 0.0378 -0.4772
vn -0.9713 0.0840 -0.2226
vn -0.9784 0.0993 -0.1812
vn -0.5599 0.1526 -0.8144
vn -0.5330 0.0880 -0.8415
vn -0.9609 0.0325 -0.2750
vn -0.4894 0.0644 -0.8697
vn -0.9533 -0.0001 -0.3021
vn -0.4637 0.0420 -0.8850
vn 0.1894 0.1254 -0.9739
vn 0.8209 0.0356 -0.5700
vn 0.2970 0.0637 -0.9527
vn 0.8848 0.0521 -0.4630
vn -0.7236 -0.6359 -0.2685
vn -0.6722 -0.6652 0.3251
vn -0.8875 -0.0394 0.4591
vn 0.2514 -0.5827 -0.7728
vn -0.3407 -0.6019 -0.7222
vn 0.9550 0.0129 0.2963
vn 0.7614 -0.6169 0.1992
vn 0.7073 -0.5889 -0.3912
vn 0.3819 -0.6514 0.6557
vn -0.2130 -0.6717 0.7095
vn 0.9583 -0.0051 0.2857
vn 0.4750 -0.0364 0.8792
vn 0.4676 -0.0311 0.8834
vn 0.9729 -0.0555 0.2245
vn 0.5251 -0.0580 0.8491
vn 0.9865 -0.0636 0.1509
vn 0.5867 -0.1192 0.8010
vn -0.2977 -0.0528 0.9532
vn -0.2875 -0.0383 0.9570
vn -0.8793 -0.0097 0.4763
vn -0.2381 -0.0174 0.9711
vn -0.8529 0.0411 0.5204
vn -0.1812 -0.0943 0.9789
vn -0.8309 -0.0019 0.5564
vn 0.5648 0.3872 0.7287
vn -0.0053 0.4445 0.8957
vn -0.1775 -0.1716 0.9691
vn 0.5880 -0.2046 0.7826
vn -0.4895 0.6119 0.6213
vn -0.6200 0.7790 0.0937
vn -0.9776 0.1745 -0.1176
vn -0.8137 -0.0123 0.5812
vn -0.3298 0.8532 -0.4040
vn 0.2368 0.7897 -0.5659
vn 0.1554 0.2555 -0.9543
vn -0.5882 0.2874 -0.7559
vn 0.7175 0.6315 -0.2940
vn 0.8523 0.4696 0.2304
vn 0.9884 -0.0883 0.1233
vn 0.8036 0.0997 -0.5867
vn -0.2120 -0.4046 0.8896
vn -0.7600 -0.3280 0.5610
vn -0.7843 -0.2215 0.5795
vn -0.2598 -0.3232 0.9100
vn -0.9959 -0.0818 0.0375
vn -0.9921 -0.1248 0.0085
vn 0.0278 -0.5052 0.8626
vn -0.7052 -0.5198 0.4822
vn -0.7310 -0.4209 0.5371
vn -0.9895 -0.1050 -0.0996
vn -0.3920 -0.6891 0.6094
vn -0.7604 -0.3563 0.5430
vn -0.9225 -0.3859 -0.0101
vn -1.0000 -0.0048 0.0029
vn -0.2150 -0.2351 0.9479
vt 0.048560 0.668517
vt 0.048525 0.683709
vt 0.049034 0.683658
vt 0.049354 0.668514
vt 0.048310 0.683755
vt 0.049675 0.691267
vt 0.049595 0.691253
vt 0.048251 0.683745
vt 0.048123 0.668518
vt 0.048095 0.668519
vt 0.050568 0.552982
vt 0.050543 0.552982
vt 0.049825 0.691183
vt 0.050283 0.691082
vt 0.051027 0.553036
vt 0.051848 0.553126
vt 0.051218 0.547318
vt 0.051750 0.547318
vt 0.051081 0.553036
vt 0.051695 0.547318
vt 0.051193 0.547318
vt 0.052361 0.553180
vt 0.053079 0.547318
vt 0.052547 0.547318
vt 0.053104 0.547318
vt 0.052602 0.547318
vt 0.049853 0.668512
vt 0.049882 0.668512
vt 0.052386 0.553180
vt 0.049380 0.683632
vt 0.049439 0.683642
vt 0.050609 0.691029
vt 0.050688 0.691044
vt 0.051902 0.553126
vt 0.049416 0.668514
vt 0.048622 0.668517
vt 0.049165 0.683679
vt 0.048655 0.683730
vt 0.050458 0.691114
vt 0.050001 0.691215
vt 0.055775 0.706598
vt 0.055627 0.706681
vt 0.054567 0.704211
vt 0.054724 0.704110
vt 0.055304 0.706804
vt 0.055061 0.706870
vt 0.053978 0.704446
vt 0.054230 0.704362
vt 0.054983 0.706854
vt 0.055132 0.706770
vt 0.054054 0.704327
vt 0.053898 0.704430
vt 0.055454 0.706648
vt 0.055697 0.706583
vt 0.054644 0.704094
vt 0.054390 0.704175
vt 0.037306 0.706326
vt 0.036892 0.705629
vt 0.040053 0.699475
vt 0.040470 0.700191
vt 0.041061 0.700282
vt 0.037827 0.706413
vt 0.034449 0.710863
vt 0.030808 0.713862
vt 0.034010 0.710215
vt 0.034693 0.710883
vt 0.042534 0.692445
vt 0.041772 0.692592
vt 0.042756 0.692498
vt 0.042802 0.693129
vt 0.042348 0.693047
vt 0.120664 0.776980
vt 0.121775 0.776235
vt 0.118919 0.772348
vt 0.117729 0.773125
vt 0.119485 0.773202
vt 0.122325 0.777044
vt 0.123353 0.778439
vt 0.126627 0.778776
vt 0.123820 0.777755
vt 0.124115 0.778441
vt 0.115681 0.766110
vt 0.116378 0.766001
vt 0.116100 0.766174
vt 0.116448 0.766682
vt 0.115603 0.766572
vt 0.134063 0.795495
vt 0.134463 0.795323
vt 0.134114 0.793872
vt 0.133488 0.794046
vt 0.134411 0.794177
vt 0.134956 0.795670
vt 0.135147 0.794674
vt 0.135793 0.793529
vt 0.135273 0.794498
vt 0.135560 0.794755
vt 0.133740 0.791401
vt 0.133955 0.791479
vt 0.133963 0.791443
vt 0.134051 0.791669
vt 0.133596 0.791592
vt 0.125664 0.793580
vt 0.125388 0.793345
vt 0.125858 0.791128
vt 0.126159 0.791367
vt 0.125610 0.791444
vt 0.125156 0.793652
vt 0.125138 0.795223
vt 0.124784 0.796295
vt 0.125025 0.794995
vt 0.124903 0.795249
vt 0.126440 0.788581
vt 0.126328 0.788635
vt 0.126303 0.788611
vt 0.126212 0.788845
vt 0.126489 0.788792
vt 0.021364 0.680680
vt 0.022135 0.679973
vt 0.023948 0.670189
vt 0.023094 0.670896
vt 0.025168 0.671611
vt 0.023266 0.681347
vt 0.020271 0.688117
vt 0.018499 0.693125
vt 0.020506 0.687305
vt 0.021160 0.688398
vt 0.027509 0.549339
vt 0.027362 0.549716
vt 0.028066 0.549558
vt 0.028240 0.550591
vt 0.027105 0.550184
vt 0.046894 0.669485
vt 0.048513 0.684460
vt 0.048897 0.684325
vt 0.047460 0.669347
vt 0.047755 0.684511
vt 0.049911 0.691701
vt 0.050189 0.691718
vt 0.048081 0.684530
vt 0.045662 0.669513
vt 0.046214 0.669547
vt 0.047547 0.554047
vt 0.048121 0.554081
vt 0.050572 0.691622
vt 0.050924 0.691447
vt 0.048831 0.554072
vt 0.049424 0.554021
vt 0.047473 0.548359
vt 0.047482 0.548250
vt 0.047558 0.553995
vt 0.048794 0.548329
vt 0.048065 0.548395
vt 0.049436 0.553969
vt 0.049411 0.548075
vt 0.049402 0.548184
vt 0.048818 0.548039
vt 0.048089 0.548105
vt 0.047469 0.669243
vt 0.046917 0.669208
vt 0.048861 0.553934
vt 0.048933 0.684231
vt 0.048607 0.684211
vt 0.050969 0.691330
vt 0.050690 0.691313
vt 0.048152 0.553944
vt 0.046237 0.669271
vt 0.045671 0.669408
vt 0.048175 0.684281
vt 0.047790 0.684417
vt 0.050307 0.691410
vt 0.049956 0.691585
vt 0.056662 0.705880
vt 0.056483 0.705946
vt 0.054209 0.700769
vt 0.054461 0.700680
vt 0.056317 0.706062
vt 0.056293 0.706138
vt 0.053946 0.701030
vt 0.053978 0.700928
vt 0.056420 0.706145
vt 0.056599 0.706078
vt 0.054377 0.700950
vt 0.054127 0.701041
vt 0.056766 0.705962
vt 0.056789 0.705887
vt 0.054642 0.700691
vt 0.054610 0.700792
vt 0.120783 0.796070
vt 0.120592 0.795810
vt 0.119683 0.793698
vt 0.119892 0.793968
vt 0.119110 0.794038
vt 0.120056 0.796135
vt 0.121388 0.797047
vt 0.122721 0.797692
vt 0.121358 0.796782
vt 0.121046 0.797064
vt 0.119080 0.790558
vt 0.119248 0.790598
vt 0.118855 0.790589
vt 0.118781 0.790834
vt 0.119238 0.790780
vt 0.118285 0.777947
vt 0.117321 0.777451
vt 0.117509 0.770869
vt 0.118549 0.771361
vt 0.117063 0.772026
vt 0.116910 0.778564
vt 0.117602 0.782927
vt 0.117002 0.786080
vt 0.117104 0.782326
vt 0.116958 0.783193
vt 0.117769 0.763213
vt 0.117432 0.763409
vt 0.117411 0.763417
vt 0.117300 0.764163
vt 0.118030 0.763776
vt 0.116858 0.764932
vt 0.116435 0.776395
vt 0.116149 0.776355
vt 0.116385 0.764924
vt 0.116183 0.776386
vt 0.115379 0.782072
vt 0.115637 0.782087
vt 0.116448 0.776407
vt 0.116546 0.764868
vt 0.116919 0.764911
vt 0.113613 0.566291
vt 0.113995 0.566335
vt 0.115643 0.782049
vt 0.115396 0.781972
vt 0.113928 0.566400
vt 0.113436 0.566461
vt 0.113438 0.562018
vt 0.112890 0.561987
vt 0.113081 0.566302
vt 0.113764 0.562087
vt 0.113833 0.562064
vt 0.112904 0.566472
vt 0.112708 0.562050
vt 0.113256 0.562081
vt 0.112314 0.562004
vt 0.112383 0.561981
vt 0.115871 0.764893
vt 0.115499 0.764851
vt 0.112522 0.566428
vt 0.115815 0.776318
vt 0.115550 0.776297
vt 0.115090 0.781917
vt 0.114833 0.781902
vt 0.112589 0.566364
vt 0.115560 0.764830
vt 0.116033 0.764838
vt 0.115562 0.776309
vt 0.115848 0.776349
vt 0.114827 0.781940
vt 0.115073 0.782017
vt 0.111890 0.793689
vt 0.111877 0.793723
vt 0.113019 0.789512
vt 0.113031 0.789467
vt 0.111989 0.793785
vt 0.112139 0.793826
vt 0.113385 0.789650
vt 0.113179 0.789595
vt 0.112274 0.793831
vt 0.112287 0.793796
vt 0.113578 0.789612
vt 0.113565 0.789658
vt 0.112174 0.793734
vt 0.112025 0.793694
vt 0.113211 0.789475
vt 0.113418 0.789529
vt 0.115269 0.778284
vt 0.113970 0.777770
vt 0.115395 0.772668
vt 0.116780 0.773202
vt 0.115122 0.773296
vt 0.113698 0.778373
vt 0.113209 0.780823
vt 0.110247 0.782900
vt 0.112543 0.780281
vt 0.112479 0.780832
vt 0.116428 0.765391
vt 0.115736 0.765589
vt 0.116046 0.765434
vt 0.115879 0.765975
vt 0.116655 0.765909
vt 0.131397 0.793795
vt 0.131499 0.793514
vt 0.132499 0.790516
vt 0.132383 0.790801
vt 0.132819 0.790975
vt 0.131795 0.793957
vt 0.130628 0.796035
vt 0.129692 0.797486
vt 0.130632 0.795741
vt 0.130815 0.796101
vt 0.133338 0.787061
vt 0.133200 0.787142
vt 0.133463 0.787120
vt 0.133475 0.787444
vt 0.133219 0.787336
vt 0.033364 0.668512
vt 0.032805 0.683688
vt 0.032427 0.683634
vt 0.032739 0.668501
vt 0.032471 0.683676
vt 0.031408 0.691204
vt 0.031748 0.691223
vt 0.032822 0.683703
vt 0.032952 0.668428
vt 0.033445 0.668484
vt 0.035499 0.552906
vt 0.036005 0.552965
vt 0.031756 0.691173
vt 0.031429 0.691071
vt 0.035916 0.553049
vt 0.035264 0.553131
vt 0.035268 0.547249
vt 0.034542 0.547208
vt 0.034795 0.552920
vt 0.035699 0.547341
vt 0.035790 0.547309
vt 0.034560 0.553145
vt 0.034301 0.547291
vt 0.035027 0.547332
vt 0.033779 0.547231
vt 0.033870 0.547199
vt 0.032059 0.668460
vt 0.031566 0.668404
vt 0.034054 0.553087
vt 0.031984 0.683585
vt 0.031633 0.683558
vt 0.031024 0.690998
vt 0.030684 0.690978
vt 0.034143 0.553002
vt 0.031646 0.668376
vt 0.032273 0.668387
vt 0.031650 0.683574
vt 0.032028 0.683627
vt 0.030676 0.691028
vt 0.031002 0.691130
vt 0.026788 0.706583
vt 0.026770 0.706629
vt 0.028282 0.701053
vt 0.028298 0.700993
vt 0.026919 0.706711
vt 0.027118 0.706765
vt 0.028767 0.701237
vt 0.028494 0.701163
vt 0.027296 0.706771
vt 0.027313 0.706725
vt 0.029022 0.701186
vt 0.029006 0.701247
vt 0.027164 0.706643
vt 0.026966 0.706590
vt 0.028537 0.701004
vt 0.028811 0.701076
vt 0.016306 0.671710
vt 0.015746 0.686886
vt 0.015368 0.686833
vt 0.015680 0.671700
vt 0.015412 0.686875
vt 0.014349 0.694402
vt 0.014690 0.694422
vt 0.015763 0.686902
vt 0.015894 0.671626
vt 0.016387 0.671683
vt 0.016115 0.665781
vt 0.016621 0.665839
vt 0.014698 0.694372
vt 0.014371 0.694270
vt 0.016532 0.665924
vt 0.015880 0.666006
vt 0.018209 0.550448
vt 0.017484 0.550406
vt 0.015411 0.665795
vt 0.018640 0.550539
vt 0.018731 0.550508
vt 0.015176 0.666020
vt 0.017242 0.550489
vt 0.017968 0.550531
vt 0.016720 0.550429
vt 0.016811 0.550398
vt 0.015000 0.671659
vt 0.014507 0.671602
vt 0.014670 0.665962
vt 0.014925 0.686784
vt 0.014574 0.686756
vt 0.013966 0.694196
vt 0.013625 0.694177
vt 0.014759 0.665877
vt 0.014588 0.671575
vt 0.015214 0.671585
vt 0.014591 0.686772
vt 0.014969 0.686826
vt 0.013617 0.694227
vt 0.013944 0.694329
vt 0.009730 0.709782
vt 0.009712 0.709827
vt 0.011223 0.704252
vt 0.011239 0.704192
vt 0.009861 0.709909
vt 0.010059 0.709963
vt 0.011709 0.704435
vt 0.011435 0.704362
vt 0.010237 0.709969
vt 0.010254 0.709924
vt 0.011963 0.704385
vt 0.011947 0.704446
vt 0.010105 0.709842
vt 0.009907 0.709788
vt 0.011478 0.704203
vt 0.011752 0.704275
s 1
f 23/1/1 22/2/2 31/3/3
f 23/1/1 31/3/3 30/4/4
f 1/5/5 2/6/6 26/7/7
f 1/5/5 26/7/7 25/8/8
f 17/9/9 1/5/5 25/8/8
f 17/9/9 25/8/8 24/10/10
f 36/11/11 17/9/9 24/10/10
f 36/11/11 24/10/10 39/12/12
f 22/2/2 21/13/13 32/14/14
f 22/2/2 32/14/14 31/3/3
f 37/15/15 23/1/1 30/4/4
f 37/15/15 30/4/4 40/16/16
f 36/11/11 12/17/17 11/18/18
f 36/11/11 11/18/18 34/19/19
f 37/15/15 16/20/20 15/21/21
f 37/15/15 15/21/21 39/12/12
f 38/22/22 14/23/23 13/24/24
f 38/22/22 13/24/24 40/16/16
f 11/18/18 12/17/17 15/21/21
f 11/18/18 15/21/21 16/20/20
f 11/18/18 16/20/20 13/24/24
f 11/18/18 13/24/24 14/23/23
f 11/18/18 14/23/23 9/25/25
f 11/18/18 9/25/25 10/26/26
f 38/22/22 29/27/27 8/28/28
f 38/22/22 8/28/28 33/29/29
f 29/27/27 28/30/30 7/31/31
f 29/27/27 7/31/31 8/28/28
f 28/30/30 27/32/32 6/33/33
f 28/30/30 6/33/33 7/31/31
f 35/34/34 3/35/35 18/36/36
f 35/34/34 18/36/36 34/19/19
f 3/35/35 4/37/37 19/38/38
f 3/35/35 19/38/38 18/36/36
f 4/37/37 5/39/39 20/40/40
f 4/37/37 20/40/40 19/38/38
f 27/32/32 28/30/30 31/3/3
f 27/32/32 31/3/3 32/14/14
f 28/30/30 29/27/27 30/4/4
f 28/30/30 30/4/4 31/3/3
f 21/13/13 22/2/2 25/8/8
f 21/13/13 25/8/8 26/7/7
f 22/2/2 23/1/1 24/10/10
f 22/2/2 24/10/10 25/8/8
f 2/6/6 1/5/5 19/38/38
f 2/6/6 19/38/38 20/40/40
f 1/5/5 17/9/9 18/36/36
f 1/5/5 18/36/36 19/38/38
f 33/29/29 8/28/28 3/35/35
f 33/29/29 3/35/35 35/34/34
f 8/28/28 7/31/31 4/37/37
f 8/28/28 4/37/37 3/35/35
f 7/31/31 6/33/33 5/39/39
f 7/31/31 5/39/39 4/37/37
f 9/25/25 33/29/29 35/34/34
f 9/25/25 35/34/34 10/26/26
f 10/26/26 35/34/34 34/19/19
f 10/26/26 34/19/19 11/18/18
f 14/23/23 38/22/22 33/29/29
f 14/23/23 33/29/29 9/25/25
f 29/27/27 38/22/22 40/16/16
f 29/27/27 40/16/16 30/4/4
f 23/1/1 37/15/15 39/12/12
f 23/1/1 39/12/12 24/10/10
f 17/9/9 36/11/11 34/19/19
f 17/9/9 34/19/19 18/36/36
f 16/20/20 37/15/15 40/16/16
f 16/20/20 40/16/16 13/24/24
f 12/17/17 36/11/11 39/12/12
f 12/17/17 39/12/12 15/21/21
f 44/41/41 41/42/42 42/43/43
f 44/41/41 42/43/43 43/44/44
f 48/45/45 45/46/46 46/47/47
f 48/45/45 46/47/47 47/48/48
f 56/49/49 53/50/50 54/51/51
f 56/49/49 54/51/51 55/52/52
f 52/53/53 49/54/54 50/55/55
f 52/53/53 50/55/55 51/56/56
f 41/42/42 48/45/45 47/48/48
f 41/42/42 47/48/48 42/43/43
f 49/54/54 44/41/41 43/44/44
f 49/54/54 43/44/44 50/55/55
f 51/56/56 54/51/51 53/50/50
f 51/56/56 53/50/50 52/53/53
f 55/52/52 46/47/47 45/46/46
f 55/52/52 45/46/46 56/49/49
f 5/39/39 42/43/43 47/48/48
f 5/39/39 47/48/48 20/40/40
f 6/33/33 43/44/44 42/43/43
f 6/33/33 42/43/43 5/39/39
f 27/32/32 50/55/55 43/44/44
f 27/32/32 43/44/44 6/33/33
f 46/47/47 2/6/6 20/40/40
f 46/47/47 20/40/40 47/48/48
f 2/6/6 46/47/47 55/52/52
f 2/6/6 55/52/52 26/7/7
f 50/55/55 27/32/32 32/14/14
f 50/55/55 32/14/14 51/56/56
f 21/13/13 54/51/51 51/56/56
f 21/13/13 51/56/56 32/14/14
f 44/41/41 49/54/54 52/53/53
f 44/41/41 52/53/53 53/50/50
f 44/41/41 53/50/50 56/49/49
f 44/41/41 56/49/49 45/46/46
f 44/41/41 45/46/46 48/45/45
f 44/41/41 48/45/45 41/42/42
f 54/51/51 21/13/13 26/7/7
f 54/51/51 26/7/7 55/52/52
f 60/57/57 64/58/58 65/59/59
f 60/57/57 65/59/59 61/60/60
f 62/61/61 65/59/59 64/58/58
f 62/61/61 64/58/58 63/62/62
f 69/63/63 57/64/64 70/65/65
f 71/66/66 63/62/62 64/58/58
f 71/66/66 64/58/58 70/65/65
f 66/67/67 67/68/68 68/69/69
f 62/61/61 59/70/70 68/69/69
f 62/61/61 68/69/69 67/68/68
f 62/61/61 67/68/68 65/59/59
f 58/71/71 61/60/60 65/59/59
f 58/71/71 65/59/59 67/68/68
f 58/71/71 67/68/68 66/67/67
f 57/64/64 71/66/66 70/65/65
f 60/57/57 69/63/63 70/65/65
f 60/57/57 70/65/65 64/58/58
f 75/72/72 79/73/73 80/74/74
f 75/72/72 80/74/74 76/75/75
f 77/76/76 80/74/74 79/73/73
f 77/76/76 79/73/73 78/77/77
f 84/78/78 72/79/79 85/80/80
f 86/81/81 78/77/77 79/73/73
f 86/81/81 79/73/73 85/80/80
f 81/82/82 82/83/83 83/84/84
f 77/76/76 74/85/85 83/84/84
f 77/76/76 83/84/84 82/83/83
f 77/76/76 82/83/83 80/74/74
f 73/86/86 76/75/75 80/74/74
f 73/86/86 80/74/74 82/83/83
f 73/86/86 82/83/83 81/82/82
f 72/79/79 86/81/81 85/80/80
f 75/72/72 84/78/78 85/80/80
f 75/72/72 85/80/80 79/73/73
f 90/87/87 94/88/88 95/89/89
f 90/87/87 95/89/89 91/90/90
f 92/91/91 95/89/89 94/88/88
f 92/91/91 94/88/88 93/92/92
f 99/93/93 87/94/94 100/95/95
f 101/96/96 93/92/92 94/88/88
f 101/96/96 94/88/88 100/95/95
f 96/97/97 97/98/98 98/99/99
f 92/91/91 89/100/100 98/99/99
f 92/91/91 98/99/99 97/98/98
f 92/91/91 97/98/98 95/89/89
f 88/101/101 91/90/90 95/89/89
f 88/101/101 95/89/89 97/98/98
f 88/101/101 97/98/98 96/97/97
f 87/94/94 101/96/96 100/95/95
f 90/87/87 99/93/93 100/95/95
f 90/87/87 100/95/95 94/88/88
f 105/102/102 109/103/103 110/104/104
f 105/102/102 110/104/104 106/105/105
f 107/106/106 110/104/104 109/103/103
f 107/106/106 109/103/103 108/107/107
f 114/108/108 102/109/109 115/110/110
f 116/111/111 108/107/107 109/103/103
f 116/111/111 109/103/103 115/110/110
f 111/112/112 112/113/113 113/114/114
f 107/106/106 104/115/115 113/114/114
f 107/106/106 113/114/114 112/113/113
f 107/106/106 112/113/113 110/104/104
f 103/116/116 106/105/105 110/104/104
f 103/116/116 110/104/104 112/113/113
f 103/116/116 112/113/113 111/112/112
f 102/109/109 116/111/111 115/110/110
f 105/102/102 114/108/108 115/110/110
f 105/102/102 115/110/110 109/103/103
f 120/117/117 124/118/118 125/119/119
f 120/117/117 125/119/119 121/120/120
f 122/121/121 125/119/119 124/118/118
f 122/121/121 124/118/118 123/122/122
f 129/123/123 117/124/124 130/125/125
f 131/126/126 123/122/122 124/118/118
f 131/126/126 124/118/118 130/125/125
f 126/127/127 127/128/128 128/129/129
f 122/121/121 119/130/130 128/129/129
f 122/121/121 128/129/129 127/128/128
f 122/121/121 127/128/128 125/119/119
f 118/131/131 121/120/120 125/119/119
f 118/131/131 125/119/119 127/128/128
f 118/131/131 127/128/128 126/127/127
f 117/124/124 131/126/126 130/125/125
f 120/117/117 129/123/123 130/125/125
f 120/117/117 130/125/125 124/118/118
f 154/132/132 153/133/133 162/134/134
f 154/132/132 162/134/134 161/135/135
f 132/136/136 133/137/137 157/138/138
f 132/136/136 157/138/138 156/139/139
f 148/140/140 132/136/136 156/139/139
f 148/140/140 156/139/139 155/141/141
f 167/142/142 148/140/140 155/141/141
f 167/142/142 155/141/141 170/143/143
f 153/133/133 152/144/144 163/145/145
f 153/133/133 163/145/145 162/134/134
f 168/146/146 154/132/132 161/135/135
f 168/146/146 161/135/135 171/147/147
f 167/142/142 143/148/148 142/149/149
f 167/142/142 142/149/149 165/150/150
f 168/146/146 147/151/151 146/152/152
f 168/146/146 146/152/152 170/143/143
f 169/153/153 145/154/154 144/155/155
f 169/153/153 144/155/155 171/147/147
f 142/149/149 143/148/148 146/152/152
f 142/149/149 146/152/152 147/151/151
f 142/149/149 147/151/151 144/155/155
f 142/149/149 144/155/155 145/154/154
f 142/149/149 145/154/154 140/156/156
f 142/149/149 140/156/156 141/157/157
f 169/153/153 160/158/158 139/159/159
f 169/153/153 139/159/159 164/160/160
f 160/158/158 159/161/161 138/162/162
f 160/158/158 138/162/162 139/159/159
f 159/161/161 158/163/163 137/164/164
f 159/161/161 137/164/164 138/162/162
f 166/165/165 134/166/166 149/167/167
f 166/165/165 149/167/167 165/150/150
f 134/166/166 135/168/168 150/169/169
f 134/166/166 150/169/169 149/167/167
f 135/168/168 136/170/170 151/171/171
f 135/168/168 151/171/171 150/169/169
f 158/163/163 159/161/161 162/134/134
f 158/163/163 162/134/134 163/145/145
f 159/161/161 160/158/158 161/135/135
f 159/161/161 161/135/135 162/134/134
f 152/144/144 153/133/133 156/139/139
f 152/144/144 156/139/139 157/138/138
f 153/133/133 154/132/132 155/141/141
f 153/133/133 155/141/141 156/139/139
f 133/137/137 132/136/136 150/169/169
f 133/137/137 150/169/169 151/171/171
f 132/136/136 148/140/140 149/167/167
f 132/136/136 149/167/167 150/169/169
f 164/160/160 139/159/159 134/166/166
f 164/160/160 134/166/166 166/165/165
f 139/159/159 138/162/162 135/168/168
f 139/159/159 135/168/168 134/166/166
f 138/162/162 137/164/164 136/170/170
f 138/162/162 136/170/170 135/168/168
f 140/156/156 164/160/160 166/165/165
f 140/156/156 166/165/165 141/157/157
f 141/157/157 166/165/165 165/150/150
f 141/157/157 165/150/150 142/149/149
f 145/154/154 169/153/153 164/160/160
f 145/154/154 164/160/160 140/156/156
f 160/158/158 169/153/153 171/147/147
f 160/158/158 171/147/147 161/135/135
f 154/132/132 168/146/146 170/143/143
f 154/132/132 170/143/143 155/141/141
f 148/140/140 167/142/142 165/150/150
f 148/140/140 165/150/150 149/167/167
f 147/151/151 168/146/146 171/147/147
f 147/151/151 171/147/147 144/155/155
f 143/148/148 167/142/142 170/143/143
f 143/148/148 170/143/143 146/152/152
f 175/172/172 172/173/173 173/174/174
f 175/172/172 173/174/174 174/175/175
f 179/176/176 176/177/177 177/178/178
f 179/176/176 177/178/178 178/179/179
f 187/180/180 184/181/181 185/182/182
f 187/180/180 185/182/182 186/183/183
f 183/184/184 180/185/185 181/186/186
f 183/184/184 181/186/186 182/187/187
f 172/173/173 179/176/176 178/179/179
f 172/173/173 178/179/179 173/174/174
f 180/185/185 175/172/172 174/175/175
f 180/185/185 174/175/175 181/186/186
f 182/187/187 185/182/182 184/181/181
f 182/187/187 184/181/181 183/184/184
f 186/183/183 177/178/178 176/177/177
f 186/183/183 176/177/177 187/180/180
f 136/170/170 173/174/174 178/179/179
f 136/170/170 178/179/179 151/171/171
f 137/164/164 174/175/175 173/174/174
f 137/164/164 173/174/174 136/170/170
f 158/163/163 181/186/186 174/175/175
f 158/163/163 174/175/175 137/164/164
f 177/178/178 133/137/137 151/171/171
f 177/178/178 151/171/171 178/179/179
f 133/137/137 177/178/178 186/183/183
f 133/137/137 186/183/183 157/138/138
f 181/186/186 158/163/163 163/145/145
f 181/186/186 163/145/145 182/187/187
f 152/144/144 185/182/182 182/187/187
f 152/144/144 182/187/187 163/145/145
f 185/182/182 152/144/144 157/138/138
f 185/182/182 157/138/138 186/183/183
f 175/172/172 180/185/185 183/184/184
f 175/172/172 183/184/184 184/181/181
f 175/172/172 184/181/181 187/180/180
f 175/172/172 187/180/180 176/177/177
f 175/172/172 176/177/177 179/176/176
f 175/172/172 179/176/176 172/173/173
f 191/188/188 195/189/189 196/190/190
f 191/188/188 196/190/190 192/191/191
f 193/192/192 196/190/190 195/189/189
f 193/192/192 195/189/189 194/193/193
f 200/194/194 188/195/195 201/196/196
f 202/197/197 194/193/193 195/189/189
f 202/197/197 195/189/189 201/196/196
f 197/198/198 198/199/199 199/200/200
f 193/192/192 190/201/201 199/200/200
f 193/192/192 199/200/200 198/199/199
f 193/192/192 198/199/199 196/190/190
f 189/202/202 192/191/191 196/190/190
f 189/202/202 196/190/190 198/199/199
f 189/202/202 198/199/199 197/198/198
f 188/195/195 202/197/197 201/196/196
f 191/188/188 200/194/194 201/196/196
f 191/188/188 201/196/196 195/189/189
f 206/203/203 210/204/204 211/205/205
f 206/203/203 211/205/205 207/206/206
f 208/207/207 211/205/205 210/204/204
f 208/207/207 210/204/204 209/208/208
f 215/209/209 203/210/210 216/211/211
f 217/212/212 209/208/208 210/204/204
f 217/212/212 210/204/204 216/211/211
f 212/213/213 213/214/214 214/215/215
f 208/207/207 205/216/216 214/215/215
f 208/207/207 214/215/215 213/214/214
f 208/207/207 213/214/214 211/205/205
f 204/217/217 207/206/206 211/205/205
f 204/217/217 211/205/205 213/214/214
f 204/217/217 213/214/214 212/213/213
f 203/210/210 217/212/212 216/211/211
f 206/203/203 215/209/209 216/211/211
f 206/203/203 216/211/211 210/204/204
f 240/218/218 239/219/219 248/220/220
f 240/218/218 248/220/220 247/221/221
f 218/222/222 219/223/223 243/224/224
f 218/222/222 243/224/224 242/225/225
f 234/226/226 218/222/222 242/225/225
f 234/226/226 242/225/225 241/227/227
f 253/228/228 234/226/226 241/227/227
f 253/228/228 241/227/227 256/229/229
f 239/219/219 238/230/230 249/231/231
f 239/219/219 249/231/231 248/220/220
f 254/232/232 240/218/218 247/221/221
f 254/232/232 247/221/221 257/233/233
f 253/228/228 229/234/234 228/235/235
f 253/228/228 228/235/235 251/236/236
f 254/232/232 233/237/237 232/238/238
f 254/232/232 232/238/238 256/229/229
f 255/239/239 231/240/240 230/241/241
f 255/239/239 230/241/241 257/233/233
f 228/235/235 229/234/234 232/238/238
f 228/235/235 232/238/238 233/237/237
f 228/235/235 233/237/237 230/241/241
f 228/235/235 230/241/241 231/240/240
f 228/235/235 231/240/240 226/242/242
f 228/235/235 226/242/242 227/243/243
f 255/239/239 246/244/244 225/245/245
f 255/239/239 225/245/245 250/246/246
f 246/244/244 245/247/247 224/248/248
f 246/244/244 224/248/248 225/245/245
f 245/247/247 244/249/249 223/250/250
f 245/247/247 223/250/250 224/248/248
f 252/251/251 220/252/252 235/253/253
f 252/251/251 235/253/253 251/236/236
f 220/252/252 221/254/254 236/255/255
f 220/252/252 236/255/255 235/253/253
f 221/254/254 222/256/256 237/257/257
f 221/254/254 237/257/257 236/255/255
f 244/249/249 245/247/247 248/220/220
f 244/249/249 248/220/220 249/231/231
f 245/247/247 246/244/244 247/221/221
f 245/247/247 247/221/221 248/220/220
f 238/230/230 239/219/219 242/225/225
f 238/230/230 242/225/225 243/224/224
f 239/219/219 240/218/218 241/227/227
f 239/219/219 241/227/227 242/225/225
f 219/223/223 218/222/222 236/255/255
f 219/223/223 236/255/255 237/257/257
f 218/222/222 234/226/226 235/253/253
f 218/222/222 235/253/253 236/255/255
f 250/246/246 225/245/245 220/252/252
f 250/246/246 220/252/252 252/251/251
f 225/245/245 224/248/248 221/254/254
f 225/245/245 221/254/254 220/252/252
f 224/248/248 223/250/250 222/256/256
f 224/248/248 222/256/256 221/254/254
f 226/242/242 250/246/246 252/251/251
f 226/242/242 252/251/251 227/243/243
f 227/243/243 252/251/251 251/236/236
f 227/243/243 251/236/236 228/235/235
f 231/240/240 255/239/239 250/246/246
f 231/240/240 250/246/246 226/242/242
f 246/244/244 255/239/239 257/233/233
f 246/244/244 257/233/233 247/221/221
f 240/218/218 254/232/232 256/229/229
f 240/218/218 256/229/229 241/227/227
f 234/226/226 253/228/228 251/236/236
f 234/226/226 251/236/236 235/253/253
f 233/237/237 254/232/232 257/233/233
f 233/237/237 257/233/233 230/241/241
f 229/234/234 253/228/228 256/229/229
f 229/234/234 256/229/229 232/238/238
f 261/258/258 258/259/259 259/260/260
f 261/258/258 259/260/260 260/261/261
f 265/262/262 262/263/263 263/264/264
f 265/262/262 263/264/264 264/265/265
f 273/266/266 270/267/267 271/268/268
f 273/266/266 271/268/268 272/269/269
f 269/270/270 266/271/271 267/272/272
f 269/270/270 267/272/272 268/273/273
f 258/259/259 265/262/262 264/265/265
f 258/259/259 264/265/265 259/260/260
f 266/271/271 261/258/258 260/261/261
f 266/271/271 260/261/261 267/272/272
f 268/273/273 271/268/268 270/267/267
f 268/273/273 270/267/267 269/270/270
f 272/269/269 263/264/264 262/263/263
f 272/269/269 262/263/263 273/266/266
f 222/256/256 259/260/260 264/265/265
f 222/256/256 264/265/265 237/257/257
f 223/250/250 260/261/261 259/260/260
f 223/250/250 259/260/260 222/256/256
f 244/249/249 267/272/272 260/261/261
f 244/249/249 260/261/261 223/250/250
f 263/264/264 219/223/223 237/257/257
f 263/264/264 237/257/257 264/265/265
f 219/223/223 263/264/264 272/269/269
f 219/223/223 272/269/269 243/224/224
f 267/272/272 244/249/249 249/231/231
f 267/272/272 249/231/231 268/273/273
f 238/230/230 271/268/268 268/273/273
f 238/230/230 268/273/273 249/231/231
f 271/268/268 238/230/230 243/224/224
f 271/268/268 243/224/224 272/269/269
f 261/258/258 266/271/271 269/270/270
f 261/258/258 269/270/270 270/267/267
f 261/258/258 270/267/267 273/266/266
f 261/258/258 273/266/266 262/263/263
f 261/258/258 262/263/263 265/262/262
f 261/258/258 265/262/262 258/259/259
f 277/274/274 281/275/275 282/276/276
f 277/274/274 282/276/276 278/277/277
f 279/278/278 282/276/276 281/275/275
f 279/278/278 281/275/275 280/279/279
f 286/280/280 274/281/281 287/282/282
f 288/283/283 280/279/279 281/275/275
f 288/283/283 281/275/275 287/282/282
f 283/284/284 284/285/285 285/286/286
f 279/278/278 276/287/287 285/286/286
f 279/278/278 285/286/286 284/285/285
f 279/278/278 284/285/285 282/276/276
f 275/288/288 278/277/277 282/276/276
f 275/288/288 282/276/276 284/285/285
f 275/288/288 284/285/285 283/284/284
f 274/281/281 288/283/283 287/282/282
f 277/274/274 286/280/280 287/282/282
f 277/274/274 287/282/282 281/275/275
f 292/289/289 296/290/290 297/291/291
f 292/289/289 297/291/291 293/292/292
f 294/293/293 297/291/291 296/290/290
f 294/293/293 296/290/290 295/294/294
f 301/295/295 289/296/296 302/297/297
f 303/298/298 295/294/294 296/290/290
f 303/298/298 296/290/290 302/297/297
f 298/299/299 299/300/300 300/301/301
f 294/293/293 291/302/302 300/301/301
f 294/293/293 300/301/301 299/300/300
f 294/293/293 299/300/300 297/291/291
f 290/303/303 293/292/292 297/291/291
f 290/303/303 297/291/291 299/300/300
f 290/303/303 299/300/300 298/299/299
f 289/296/296 303/298/298 302/297/297
f 292/289/289 301/295/295 302/297/297
f 292/289/289 302/297/297 296/290/290
f 326/304/304 325/305/305 334/306/306
f 326/304/304 334/306/306 333/307/307
f 304/308/308 305/309/309 329/310/310
f 304/308/308 329/310/310 328/311/311
f 320/312/312 304/308/308 328/311/311
f 320/312/312 328/311/311 327/313/313
f 339/314/314 320/312/312 327/313/313
f 339/314/314 327/313/313 342/315/315
f 325/305/305 324/316/316 335/317/317
f 325/305/305 335/317/317 334/306/306
f 340/318/318 326/304/304 333/307/307
f 340/318/318 333/307/307 343/319/319
f 339/314/314 315/320/320 314/321/321
f 339/314/314 314/321/321 337/322/322
f 340/318/318 319/323/323 318/324/324
f 340/318/318 318/324/324 342/315/315
f 341/325/325 317/326/326 316/327/327
f 341/325/325 316/327/327 343/319/319
f 314/321/321 315/320/320 318/324/324
f 314/321/321 318/324/324 319/323/323
f 314/321/321 319/323/323 316/327/327
f 314/321/321 316/327/327 317/326/326
f 314/321/321 317/326/326 312/328/328
f 314/321/321 312/328/328 313/329/329
f 341/325/325 332/330/330 311/331/331
f 341/325/325 311/331/331 336/332/332
f 332/330/330 331/333/333 310/334/334
f 332/330/330 310/334/334 311/331/331
f 331/333/333 330/335/335 309/336/336
f 331/333/333 309/336/336 310/334/334
f 338/337/337 306/338/338 321/339/339
f 338/337/337 321/339/339 337/322/322
f 306/338/338 307/340/340 322/341/341
f 306/338/338 322/341/341 321/339/339
f 307/340/340 308/342/342 323/343/343
f 307/340/340 323/343/343 322/341/341
f 330/335/335 331/333/333 334/306/306
f 330/335/335 334/306/306 335/317/317
f 331/333/333 332/330/330 333/307/307
f 331/333/333 333/307/307 334/306/306
f 324/316/316 325/305/305 328/311/311
f 324/316/316 328/311/311 329/310/310
f 325/305/305 326/304/304 327/313/313
f 325/305/305 327/313/313 328/311/311
f 305/309/309 304/308/308 322/341/341
f 305/309/309 322/341/341 323/343/343
f 304/308/308 320/312/312 321/339/339
f 304/308/308 321/339/339 322/341/341
f 336/332/332 311/331/331 306/338/338
f 336/332/332 306/338/338 338/337/337
f 311/331/331 310/334/334 307/340/340
f 311/331/331 307/340/340 306/338/338
f 310/334/334 309/336/336 308/342/342
f 310/334/334 308/342/342 307/340/340
f 312/328/328 336/332/332 338/337/337
f 312/328/328 338/337/337 313/329/329
f 313/329/329 338/337/337 337/322/322
f 313/329/329 337/322/322 314/321/321
f 317/326/326 341/325/325 336/332/332
f 317/326/326 336/332/332 312/328/328
f 332/330/330 341/325/325 343/319/319
f 332/330/330 343/319/319 333/307/307
f 326/304/304 340/318/318 342/315/315
f 326/304/304 342/315/315 327/313/313
f 320/312/312 339/314/314 337/322/322
f 320/312/312 337/322/322 321/339/339
f 319/323/323 340/318/318 343/319/319
f 319/323/323 343/319/319 316/327/327
f 315/320/320 339/314/314 342/315/315
f 315/320/320 342/315/315 318/324/324
f 347/344/344 344/345/345 345/346/346
f 347/344/344 345/346/346 346/347/347
f 351/348/348 348/349/349 349/350/350
f 351/348/348 349/350/350 350/351/351
f 359/352/352 356/353/353 357/354/354
f 359/352/352 357/354/354 358/355/355
f 355/356/356 352/357/357 353/358/358
f 355/356/356 353/358/358 354/359/359
f 344/345/345 351/348/348 350/351/351
f 344/345/345 350/351/351 345/346/346
f 352/357/357 347/344/344 346/347/347
f 352/357/357 346/347/347 353/358/358
f 354/359/359 357/354/354 356/353/353
f 354/359/359 356/353/353 355/356/356
f 358/355/355 349/350/350 348/349/349
f 358/355/355 348/349/349 359/352/352
f 308/342/342 345/346/346 350/351/351
f 308/342/342 350/351/351 323/343/343
f 309/336/336 346/347/347 345/346/346
f 309/336/336 345/346/346 308/342/342
f 330/335/335 353/358/358 346/347/347
f 330/335/335 346/347/347 309/336/336
f 349/350/350 305/309/309 323/343/343
f 349/350/350 323/343/343 350/351/351
f 305/309/309 349/350/350 358/355/355
f 305/309/309 358/355/355 329/310/310
f 353/358/358 330/335/335 335/317/317
f 353/358/358 335/317/317 354/359/359
f 324/316/316 357/354/354 354/359/359
f 324/316/316 354/359/359 335/317/317
f 357/354/354 324/316/316 329/310/310
f 357/354/354 329/310/310 358/355/355
f 347/344/344 352/357/357 355/356/356
f 347/344/344 355/356/356 356/353/353
f 347/344/344 356/353/353 359/352/352
f 347/344/344 359/352/352 348/349/349
f 347/344/344 348/349/349 351/348/348
f 347/344/344 351/348/348 344/345/345
f 382/360/360 381/361/361 390/362/362
f 382/360/360 390/362/362 389/363/363
f 360/364/364 361/365/365 385/366/366
f 360/364/364 385/366/366 384/367/367
f 376/368/368 360/364/364 384/367/367
f 376/368/368 384/367/367 383/369/369
f 395/370/370 376/368/368 383/369/369
f 395/370/370 383/369/369 398/371/371
f 381/361/361 380/372/372 391/373/373
f 381/361/361 391/373/373 390/362/362
f 396/374/374 382/360/360 389/363/363
f 396/374/374 389/363/363 399/375/375
f 395/370/370 371/376/376 370/377/377
f 395/370/370 370/377/377 393/378/378
f 396/374/374 375/379/379 374/380/380
f 396/374/374 374/380/380 398/371/371
f 397/381/381 373/382/382 372/383/383
f 397/381/381 372/383/383 399/375/375
f 370/377/377 371/376/376 374/380/380
f 370/377/377 374/380/380 375/379/379
f 370/377/377 375/379/379 372/383/383
f 370/377/377 372/383/383 373/382/382
f 370/377/377 373/382/382 368/384/384
f 370/377/377 368/384/384 369/385/385
f 397/381/381 388/386/386 367/387/387
f 397/381/381 367/387/387 392/388/388
f 388/386/386 387/389/389 366/390/390
f 388/386/386 366/390/390 367/387/387
f 387/389/389 386/391/391 365/392/392
f 387/389/389 365/392/392 366/390/390
f 394/393/393 362/394/394 377/395/395
f 394/393/393 377/395/395 393/378/378
f 362/394/394 363/396/396 378/397/397
f 362/394/394 378/397/397 377/395/395
f 363/396/396 364/398/398 379/399/399
f 363/396/396 379/399/399 378/397/397
f 386/391/391 387/389/389 390/362/362
f 386/391/391 390/362/362 391/373/373
f 387/389/389 388/386/386 389/363/363
f 387/389/389 389/363/363 390/362/362
f 380/372/372 381/361/361 384/367/367
f 380/372/372 384/367/367 385/366/366
f 381/361/361 382/360/360 383/369/369
f 381/361/361 383/369/369 384/367/367
f 361/365/365 360/364/364 378/397/397
f 361/365/365 378/397/397 379/399/399
f 360/364/364 376/368/368 377/395/395
f 360/364/364 377/395/395 378/397/397
f 392/388/388 367/387/387 362/394/394
f 392/388/388 362/394/394 394/393/393
f 367/387/387 366/390/390 363/396/396
f 367/387/387 363/396/396 362/394/394
f 366/390/390 365/392/392 364/398/398
f 366/390/390 364/398/398 363/396/396
f 368/384/384 392/388/388 394/393/393
f 368/384/384 394/393/393 369/385/385
f 369/385/385 394/393/393 393/378/378
f 369/385/385 393/378/378 370/377/377
f 373/382/382 397/381/381 392/388/388
f 373/382/382 392/388/388 368/384/384
f 388/386/386 397/381/381 399/375/375
f 388/386/386 399/375/375 389/363/363
f 382/360/360 396/374/374 398/371/371
f 382/360/360 398/371/371 383/369/369
f 376/368/368 395/370/370 393/378/378
f 376/368/368 393/378/378 377/395/395
f 375/379/379 396/374/374 399/375/375
f 375/379/379 399/375/375 372/383/383
f 371/376/376 395/370/370 398/371/371
f 371/376/376 398/371/371 374/380/380
f 403/400/400 400/401/401 401/402/402
f 403/400/400 401/402/402 402/403/403
f 407/404/404 404/405/405 405/406/406
f 407/404/404 405/406/406 406/407/407
f 415/408/408 412/409/409 413/410/410
f 415/408/408 413/410/410 414/411/411
f 411/412/412 408/413/413 409/414/414
f 411/412/412 409/414/414 410/415/415
f 400/401/401 407/404/404 406/407/407
f 400/401/401 406/407/407 401/402/402
f 408/413/413 403/400/400 402/403/403
f 408/413/413 402/403/403 409/414/414
f 410/415/415 413/410/410 412/409/409
f 410/415/415 412/409/409 411/412/412
f 414/411/411 405/406/406 404/405/405
f 414/411/411 404/405/405 415/408/408
f 364/398/398 401/402/402 406/407/407
f 364/398/398 406/407/407 379/399/399
f 365/392/392 402/403/403 401/402/402
f 365/392/392 401/402/402 364/398/398
f 386/391/391 409/414/414 402/403/403
f 386/391/391 402/403/403 365/392/392
f 405/406/406 361/365/365 379/399/399
f 405/406/406 379/399/399 406/407/407
f 361/365/365 405/406/406 414/411/411
f 361/365/365 414/411/411 385/366/366
f 409/414/414 386/391/391 391/373/373
f 409/414/414 391/373/373 410/415/415
f 380/372/372 413/410/410 410/415/415
f 380/372/372 410/415/415 391/373/373
f 413/410/410 380/372/372 385/366/366
f 413/410/410 385/366/366 414/411/411
f 403/400/400 408/413/413 411/412/412
f 403/400/400 411/412/412 412/409/409
f 403/400/400 412/409/409 415/408/408
f 403/400/400 415/408/408 404/405/405
f 403/400/400 404/405/405 407/404/404
f 403/400/400 407/404/404 400/401/401
f 419/57/416 423/58/417 424/59/418
f 419/57/416 424/59/418 420/60/419
f 421/61/420 424/59/418 423/58/417
f 421/61/420 423/58/417 422/62/421
f 428/63/422 416/64/423 429/65/424
f 430/66/425 422/62/421 423/58/417
f 430/66/425 423/58/417 429/65/424
f 425/67/426 426/68/427 427/69/428
f 421/61/420 418/70/429 427/69/428
f 421/61/420 427/69/428 426/68/427
f 421/61/420 426/68/427 424/59/418
f 417/71/430 420/60/419 424/59/418
f 417/71/430 424/59/418 426/68/427
f 417/71/430 426/68/427 425/67/426
f 416/64/423 430/66/425 429/65/424
f 419/57/416 428/63/422 429/65/424
f 419/57/416 429/65/424 423/58/417
