# Blender 4.5.5 LTS
# www.blender.org
mtllib BrownPlanthopper_Eggs.mtl
o Eggs.001
v -0.012411 -0.029091 -0.037645
v -0.014870 -0.004731 -0.021465
v 0.016027 -0.029091 -0.037645
v 0.006742 -0.004731 -0.021465
v -0.012411 -0.029091 -0.010756
v -0.014870 -0.002203 -0.010756
v 0.016027 -0.029091 -0.010756
v 0.006742 -0.002203 -0.010756
v -0.021731 -0.056140 -0.037645
v 0.015204 -0.062337 -0.037645
v -0.021731 -0.056140 -0.010756
v 0.015204 -0.062337 -0.010756
v -0.045989 -0.085308 -0.041000
v -0.000901 -0.094917 -0.041000
v -0.045989 -0.085308 -0.007401
v -0.000901 -0.094917 -0.007401
v -0.074206 -0.118523 -0.036769
v -0.041466 -0.129681 -0.036769
v -0.074206 -0.118523 -0.011632
v -0.041466 -0.129681 -0.011632
v -0.074529 -0.132872 -0.029819
v -0.063772 -0.134941 -0.029819
v -0.074529 -0.132872 -0.018582
v -0.063772 -0.134941 -0.018582
v 0.016451 -0.041954 -0.011292
v 0.006730 -0.005686 -0.011292
v 0.044889 -0.041954 -0.011292
v 0.028342 -0.005686 -0.011292
v 0.016451 -0.041954 0.015596
v 0.006730 0.001353 -0.000269
v 0.044889 -0.041954 0.015596
v 0.028342 0.001353 -0.000269
v 0.007131 -0.063254 -0.011292
v 0.044066 -0.069451 -0.011292
v 0.007131 -0.063254 0.015596
v 0.044066 -0.069451 0.015596
v -0.017127 -0.100743 -0.014648
v 0.027961 -0.110351 -0.014648
v -0.017127 -0.100743 0.018951
v 0.027961 -0.110351 0.018951
v -0.040624 -0.138133 -0.010417
v -0.009775 -0.149291 -0.010417
v -0.040624 -0.138133 0.014720
v -0.009775 -0.149291 0.014720
v -0.040947 -0.152482 -0.003466
v -0.030190 -0.154551 -0.003466
v -0.040947 -0.152482 0.007770
v -0.030190 -0.154551 0.007770
v -0.120877 -0.051836 -0.035356
v -0.119372 -0.016704 -0.021465
v -0.097280 -0.051836 -0.035356
v -0.097760 -0.016704 -0.021465
v -0.120877 -0.051836 -0.013045
v -0.119372 -0.026158 -0.010757
v -0.097280 -0.051836 -0.013045
v -0.097760 -0.026158 -0.010757
v -0.116278 -0.078884 -0.037645
v -0.079343 -0.085081 -0.037645
v -0.116278 -0.078884 -0.010757
v -0.079343 -0.085081 -0.010757
v -0.122944 -0.113019 -0.039503
v -0.081874 -0.121772 -0.039503
v -0.122944 -0.113019 -0.008898
v -0.081874 -0.121772 -0.008898
v -0.146892 -0.152312 -0.036769
v -0.116043 -0.163469 -0.036769
v -0.146892 -0.152312 -0.011632
v -0.116043 -0.163469 -0.011632
v -0.149211 -0.161617 -0.029819
v -0.136877 -0.169570 -0.029819
v -0.149211 -0.161617 -0.018582
v -0.136877 -0.169570 -0.018582
v -0.141128 -0.060989 -0.034458
v -0.144495 -0.020662 -0.019161
v -0.119430 -0.060989 -0.034458
v -0.126587 -0.020662 -0.019161
v -0.141128 -0.060989 -0.013943
v -0.144495 -0.030117 -0.013061
v -0.119430 -0.060989 -0.013943
v -0.126587 -0.030117 -0.013061
v -0.147171 -0.088984 -0.035697
v -0.117777 -0.089606 -0.035697
v -0.147171 -0.088984 -0.012704
v -0.117777 -0.089606 -0.012704
v -0.162452 -0.113019 -0.039503
v -0.127432 -0.121772 -0.039503
v -0.162452 -0.113019 -0.008898
v -0.127432 -0.121772 -0.008898
v -0.185807 -0.137734 -0.037345
v -0.155007 -0.154597 -0.037345
v -0.185807 -0.137734 -0.011056
v -0.155007 -0.154597 -0.011056
v -0.202334 -0.152036 -0.029819
v -0.195170 -0.164905 -0.029819
v -0.202334 -0.152036 -0.018582
v -0.195170 -0.164905 -0.018582
v -0.174682 -0.058783 -0.035102
v -0.165839 -0.025407 -0.019161
v -0.152797 -0.060580 -0.035102
v -0.150957 -0.025407 -0.019161
v -0.174682 -0.058783 -0.013300
v -0.165839 -0.034861 -0.013061
v -0.152797 -0.060580 -0.013300
v -0.150957 -0.034861 -0.013061
v -0.186654 -0.084155 -0.035697
v -0.157825 -0.090875 -0.035697
v -0.186654 -0.084155 -0.012704
v -0.157825 -0.090875 -0.012704
v -0.207482 -0.102532 -0.039503
v -0.176834 -0.121282 -0.039503
v -0.207482 -0.102532 -0.008898
v -0.176834 -0.121282 -0.008898
v -0.229036 -0.112629 -0.037345
v -0.202805 -0.140656 -0.037345
v -0.229036 -0.112629 -0.011056
v -0.202805 -0.140656 -0.011056
v -0.259567 -0.123778 -0.029819
v -0.252728 -0.139413 -0.029819
v -0.259567 -0.123778 -0.018582
v -0.252728 -0.139413 -0.018582
v -0.194164 -0.057837 -0.032668
v -0.187571 -0.026916 -0.017379
v -0.178497 -0.062355 -0.032668
v -0.175521 -0.027280 -0.017379
v -0.194164 -0.057837 -0.015733
v -0.187571 -0.036370 -0.014842
v -0.178497 -0.062355 -0.015733
v -0.175521 -0.036735 -0.014842
v -0.217138 -0.070353 -0.035697
v -0.193353 -0.084428 -0.035697
v -0.217138 -0.070353 -0.012704
v -0.193353 -0.084428 -0.012704
v -0.238995 -0.075813 -0.039503
v -0.216783 -0.102249 -0.039503
v -0.238995 -0.075813 -0.008898
v -0.216783 -0.102249 -0.008898
v -0.268324 -0.076368 -0.037345
v -0.264788 -0.109564 -0.037345
v -0.268324 -0.076368 -0.011056
v -0.264788 -0.109564 -0.011056
v -0.304504 -0.069489 -0.029819
v -0.302859 -0.085754 -0.029819
v -0.304504 -0.069489 -0.018582
v -0.302859 -0.085754 -0.018582
v -0.193202 -0.056440 -0.006762
v -0.183548 -0.035413 -0.006087
v -0.174835 -0.058076 -0.006762
v -0.172082 -0.035518 -0.006087
v -0.193202 -0.056440 0.012390
v -0.183548 -0.028374 -0.004150
v -0.174835 -0.058076 0.012390
v -0.172082 -0.028479 -0.004150
v -0.223196 -0.092380 -0.008683
v -0.199410 -0.108471 -0.008683
v -0.223196 -0.092380 0.014311
v -0.199410 -0.108471 0.014311
v -0.249589 -0.105535 -0.012489
v -0.227377 -0.131214 -0.012489
v -0.249589 -0.105535 0.018116
v -0.227377 -0.131214 0.018116
v -0.272464 -0.112747 -0.010330
v -0.268927 -0.147985 -0.010330
v -0.272464 -0.112747 0.015958
v -0.268927 -0.147985 0.015958
v -0.314695 -0.130931 -0.002804
v -0.312105 -0.144990 -0.002804
v -0.314695 -0.130931 0.008432
v -0.312105 -0.144990 0.008432
v -0.072048 -0.034121 -0.007770
v -0.069071 -0.011995 -0.008741
v -0.049252 -0.032577 -0.007770
v -0.049286 -0.011995 -0.008741
v -0.072048 -0.034121 0.013833
v -0.069071 -0.004955 -0.001060
v -0.049252 -0.032577 0.013833
v -0.049286 -0.004955 -0.001060
v -0.078930 -0.064581 -0.010412
v -0.041500 -0.063331 -0.010412
v -0.078930 -0.064581 0.016476
v -0.041500 -0.063331 0.016476
v -0.087503 -0.093746 -0.012271
v -0.047637 -0.103630 -0.012271
v -0.087503 -0.093746 0.018334
v -0.047637 -0.103630 0.018334
v -0.120901 -0.124122 -0.009537
v -0.081267 -0.135189 -0.009537
v -0.120901 -0.124122 0.015600
v -0.081267 -0.135189 0.015600
v -0.130360 -0.135648 -0.002586
v -0.119872 -0.145912 -0.002586
v -0.130360 -0.135648 0.008650
v -0.119872 -0.145912 0.008650
v 0.052594 -0.040520 -0.038719
v 0.043629 0.003245 -0.020994
v 0.084057 -0.044434 -0.038719
v 0.065241 0.003245 -0.020994
v 0.052594 -0.040520 -0.008741
v 0.043629 -0.006209 -0.010286
v 0.084057 -0.044434 -0.008741
v 0.065241 -0.006209 -0.010286
v 0.048602 -0.058163 -0.037174
v 0.084562 -0.068628 -0.037174
v 0.048602 -0.058163 -0.010286
v 0.084562 -0.068628 -0.010286
v 0.038877 -0.077215 -0.037228
v 0.068448 -0.099523 -0.037228
v 0.038877 -0.077215 -0.010231
v 0.068448 -0.099523 -0.010231
v 0.007861 -0.104095 -0.036298
v 0.027317 -0.122985 -0.036298
v 0.007861 -0.104095 -0.011162
v 0.027317 -0.122985 -0.011162
v -0.002284 -0.111585 -0.029348
v 0.005068 -0.122353 -0.029348
v -0.002284 -0.111585 -0.018112
v 0.005068 -0.122353 -0.018112
v 0.092785 -0.038018 -0.037867
v 0.085458 0.000893 -0.020994
v 0.122682 -0.037420 -0.037867
v 0.107070 0.000893 -0.020994
v 0.092785 -0.038018 -0.009593
v 0.085458 -0.008562 -0.010286
v 0.122682 -0.037420 -0.009593
v 0.107070 -0.008562 -0.010286
v 0.091910 -0.055010 -0.036183
v 0.126122 -0.060753 -0.036183
v 0.091910 -0.055010 -0.011277
v 0.126122 -0.060753 -0.011277
v 0.076585 -0.083807 -0.037228
v 0.109496 -0.097637 -0.037228
v 0.076585 -0.083807 -0.010231
v 0.109496 -0.097637 -0.010231
v 0.048355 -0.111871 -0.036298
v 0.067077 -0.133243 -0.036298
v 0.048355 -0.111871 -0.011162
v 0.067077 -0.133243 -0.011162
v 0.029559 -0.128310 -0.029348
v 0.037542 -0.137717 -0.029348
v 0.029559 -0.128310 -0.018112
v 0.037542 -0.137717 -0.018112
v 0.131246 -0.044522 -0.037866
v 0.121021 0.004142 -0.020994
v 0.160914 -0.048261 -0.037866
v 0.142633 0.004142 -0.020994
v 0.131246 -0.044522 -0.009593
v 0.121021 -0.005313 -0.010286
v 0.160914 -0.048261 -0.009593
v 0.142633 -0.005313 -0.010286
v 0.127229 -0.063204 -0.036183
v 0.162050 -0.070509 -0.036183
v 0.127229 -0.063204 -0.011277
v 0.162050 -0.070509 -0.011277
v 0.114869 -0.089454 -0.037228
v 0.145574 -0.106915 -0.037228
v 0.114869 -0.089454 -0.010231
v 0.145574 -0.106915 -0.010231
v 0.099435 -0.108356 -0.036298
v 0.118157 -0.125525 -0.036298
v 0.099435 -0.108356 -0.011162
v 0.118157 -0.125525 -0.011162
v 0.080114 -0.124900 -0.029348
v 0.088097 -0.134307 -0.029348
v 0.080114 -0.124900 -0.018112
v 0.088097 -0.134307 -0.018112
v -0.155189 -0.056505 -0.010686
v -0.152902 -0.020785 -0.010406
v -0.127551 -0.057602 -0.010686
v -0.135488 -0.020785 -0.010406
v -0.155189 -0.056505 0.014990
v -0.152902 -0.013746 -0.001155
v -0.127551 -0.057602 0.014990
v -0.135488 -0.013746 -0.001155
v -0.158891 -0.080272 -0.010128
v -0.124764 -0.082631 -0.010128
v -0.158891 -0.080272 0.014432
v -0.124764 -0.082631 0.014432
v -0.165307 -0.114912 -0.014648
v -0.129201 -0.122977 -0.014648
v -0.165307 -0.114912 0.018951
v -0.129201 -0.122977 0.018951
v -0.188987 -0.152628 -0.010417
v -0.158138 -0.163785 -0.010417
v -0.188987 -0.152628 0.014720
v -0.158138 -0.163785 0.014720
v -0.186261 -0.166501 -0.003466
v -0.176156 -0.170731 -0.003466
v -0.186261 -0.166501 0.007770
v -0.176156 -0.170731 0.007770
v 0.114515 -0.047093 -0.011201
v 0.104289 -0.007666 -0.010508
v 0.144183 -0.050832 -0.011201
v 0.125902 -0.007666 -0.010508
v 0.114515 -0.047093 0.017072
v 0.104289 -0.000626 0.000515
v 0.144183 -0.050832 0.017072
v 0.125902 -0.000626 0.000515
v 0.109136 -0.073526 -0.009517
v 0.143957 -0.080832 -0.009517
v 0.109136 -0.073526 0.015389
v 0.143957 -0.080832 0.015389
v 0.098137 -0.099928 -0.010563
v 0.128842 -0.117389 -0.010563
v 0.098137 -0.099928 0.016434
v 0.128842 -0.117389 0.016434
v 0.082703 -0.120948 -0.009632
v 0.101425 -0.135848 -0.009632
v 0.082703 -0.120948 0.015504
v 0.101425 -0.135848 0.015504
v 0.065064 -0.137492 -0.002682
v 0.073656 -0.144251 -0.002682
v 0.065064 -0.137492 0.008554
v 0.073656 -0.144251 0.008554
v -0.203317 -0.032510 -0.018017
v -0.204035 -0.021223 -0.018017
v -0.175979 -0.032283 -0.021625
v -0.176284 -0.013480 -0.021625
v -0.203317 -0.032510 -0.003279
v -0.204035 -0.021223 -0.003279
v -0.175979 -0.032283 0.000329
v -0.176284 -0.013480 0.000329
v -0.069450 -0.017854 -0.021625
v -0.069754 0.000949 -0.021625
v -0.069450 -0.017854 0.000329
v -0.069754 0.000949 0.000329
v 0.030124 -0.013022 -0.022270
v 0.029801 0.006887 -0.022270
v 0.030124 -0.013022 0.000974
v 0.029801 0.006887 0.000974
v 0.151905 -0.002725 -0.021647
v 0.151599 0.016115 -0.021647
v 0.151905 -0.002725 0.000351
v 0.151599 0.016115 0.000351
vn -0.5724 0.3088 -0.7596
vn -0.6679 0.5961 -0.4456
vn 0.6679 0.2681 -0.6943
vn 0.4886 0.7528 -0.4410
vn -0.6470 0.0761 0.7587
vn -0.5961 0.6250 0.5040
vn 0.7366 0.1226 0.6651
vn 0.4515 0.7117 0.5382
vn -0.5707 0.3719 -0.7321
vn 0.7428 -0.1572 -0.6508
vn -0.5707 0.3719 0.7321
vn 0.7428 -0.1572 0.6508
vn -0.5359 0.4213 -0.7316
vn 0.5829 -0.4305 -0.6891
vn -0.5359 0.4213 0.7316
vn 0.5829 -0.4305 0.6891
vn -0.7408 0.1115 -0.6624
vn 0.2935 -0.7163 -0.6330
vn -0.7408 0.1115 0.6624
vn 0.2935 -0.7163 0.6330
vn -0.6823 -0.6104 -0.4024
vn -0.0462 -0.8916 -0.4504
vn -0.6823 -0.6104 0.4024
vn -0.0462 -0.8916 0.4504
vn -0.6195 0.0563 -0.7830
vn -0.6787 0.2765 -0.6804
vn 0.7286 0.1292 -0.6726
vn 0.4671 0.5080 -0.7237
vn -0.5667 0.2067 0.7976
vn -0.6459 0.7244 0.2407
vn 0.7047 0.2166 0.6756
vn 0.4330 0.8521 0.2939
vn -0.6024 0.3620 -0.7114
vn 0.7392 -0.1289 -0.6610
vn -0.6024 0.3620 0.7114
vn 0.7392 -0.1289 0.6610
vn -0.5903 0.3535 -0.7257
vn 0.6169 -0.3865 -0.6857
vn -0.5903 0.3535 0.7257
vn 0.6169 -0.3865 0.6857
vn -0.7432 0.0528 -0.6669
vn 0.3316 -0.7009 -0.6315
vn -0.7432 0.0528 0.6669
vn 0.3316 -0.7009 0.6315
vn -0.6838 -0.6103 -0.3999
vn -0.0408 -0.8949 -0.4445
vn -0.6838 -0.6103 0.3999
vn -0.0408 -0.8949 0.4445
vn -0.7033 0.1128 -0.7019
vn -0.5455 0.8146 -0.1972
vn 0.5694 0.3286 -0.7535
vn 0.5562 0.8080 -0.1944
vn -0.7448 -0.0511 0.6653
vn -0.6019 0.3101 0.7359
vn 0.6432 0.1702 0.7465
vn 0.6131 0.2972 0.7319
vn -0.6539 0.0633 -0.7540
vn 0.7419 0.1905 -0.6429
vn -0.6539 0.0633 0.7540
vn 0.7419 0.1905 0.6429
vn -0.6084 0.2289 -0.7599
vn 0.7014 -0.2755 -0.6574
vn -0.6084 0.2289 0.7599
vn 0.7014 -0.2755 0.6574
vn -0.7031 0.0816 -0.7064
vn 0.3652 -0.6789 -0.6370
vn -0.7031 0.0816 0.7064
vn 0.3652 -0.6789 0.6370
vn -0.8277 -0.4047 -0.3886
vn -0.1685 -0.8946 -0.4140
vn -0.8277 -0.4047 0.3886
vn -0.1685 -0.8946 0.4140
vn -0.6245 0.2016 -0.7546
vn -0.5823 0.8103 -0.0655
vn 0.6830 0.2156 -0.6978
vn 0.4884 0.8633 -0.1270
vn -0.6798 0.0496 0.7317
vn -0.6735 0.1575 0.7223
vn 0.7160 0.0940 0.6918
vn 0.5730 0.2933 0.7653
vn -0.6048 0.3269 -0.7262
vn 0.7502 -0.0395 -0.6600
vn -0.6048 0.3269 0.7262
vn 0.7502 -0.0395 0.6600
vn -0.5229 0.4147 -0.7447
vn 0.6506 -0.3183 -0.6895
vn -0.5229 0.4147 0.7447
vn 0.6506 -0.3183 0.6895
vn -0.5530 0.3745 -0.7443
vn 0.3632 -0.6769 -0.6402
vn -0.5530 0.3745 0.7443
vn 0.3632 -0.6769 0.6402
vn -0.8597 0.0898 -0.5028
vn -0.3473 -0.7977 -0.4931
vn -0.8597 0.0898 0.5028
vn -0.3473 -0.7977 0.4931
vn -0.5804 0.3761 -0.7223
vn -0.4491 0.8873 -0.1054
vn 0.6840 0.0879 -0.7242
vn 0.5821 0.8118 -0.0462
vn -0.6381 0.2452 0.7299
vn -0.5309 0.3363 0.7779
vn 0.7200 -0.0760 0.6898
vn 0.6659 0.1817 0.7236
vn -0.5022 0.4608 -0.7318
vn 0.7204 -0.2314 -0.6538
vn -0.5022 0.4608 0.7318
vn 0.7204 -0.2314 0.6538
vn -0.3621 0.5407 -0.7593
vn 0.5435 -0.4725 -0.6938
vn -0.3621 0.5407 0.7593
vn 0.5435 -0.4725 0.6938
vn -0.3630 0.5679 -0.7387
vn 0.1850 -0.7534 -0.6310
vn -0.3630 0.5679 0.7387
vn 0.1850 -0.7534 0.6310
vn -0.8031 0.3021 -0.5136
vn -0.4872 -0.6979 -0.5250
vn -0.8031 0.3021 0.5136
vn -0.4872 -0.6979 0.5250
vn -0.3401 0.5483 -0.7640
vn -0.4175 0.9086 -0.0066
vn 0.7251 -0.0866 -0.6832
vn 0.6269 0.7719 0.1058
vn -0.4449 0.4019 0.8003
vn -0.5730 0.2008 0.7946
vn 0.7407 -0.2391 0.6278
vn 0.7017 0.0253 0.7121
vn -0.1694 0.6985 -0.6953
vn 0.5916 -0.4438 -0.6731
vn -0.1694 0.6985 0.6953
vn 0.5916 -0.4438 0.6731
vn -0.0828 0.6570 -0.7493
vn 0.3194 -0.6524 -0.6872
vn -0.0828 0.6570 0.7493
vn 0.3194 -0.6524 0.6872
vn -0.0544 0.6611 -0.7484
vn -0.2027 -0.7457 -0.6347
vn -0.0544 0.6611 0.7484
vn -0.2027 -0.7457 0.6347
vn -0.5994 0.6220 -0.5039
vn -0.7314 -0.4171 -0.5394
vn -0.5994 0.6220 0.5039
vn -0.7314 -0.4171 0.5394
vn -0.5575 0.3495 -0.7530
vn -0.5225 0.2872 -0.8028
vn 0.7232 -0.1832 -0.6658
vn 0.7056 0.0455 -0.7071
vn -0.4868 0.4803 0.7297
vn -0.4138 0.9103 0.0060
vn 0.7010 0.0036 0.7132
vn 0.5997 0.7875 -0.1422
vn -0.3634 0.5704 -0.7366
vn 0.6192 -0.4374 -0.6521
vn -0.3634 0.5704 0.7366
vn 0.6192 -0.4374 0.6521
vn -0.2472 0.6249 -0.7405
vn 0.3838 -0.6028 -0.6995
vn -0.2472 0.6249 0.7405
vn 0.3838 -0.6028 0.6995
vn -0.3161 0.6458 -0.6950
vn 0.0492 -0.7416 -0.6690
vn -0.3161 0.6458 0.6950
vn 0.0492 -0.7416 0.6690
vn -0.7590 0.3801 -0.5287
vn -0.5858 -0.6117 -0.5316
vn -0.7590 0.3801 0.5287
vn -0.5858 -0.6117 0.5316
vn -0.6962 0.1373 -0.7046
vn -0.5844 0.3445 -0.7347
vn 0.6860 0.1028 -0.7203
vn 0.6228 0.2992 -0.7229
vn -0.6336 0.3014 0.7125
vn -0.5320 0.8331 0.1511
vn 0.6091 0.3025 0.7332
vn 0.5599 0.8163 0.1423
vn -0.6682 0.2219 -0.7101
vn 0.7413 0.0754 -0.6669
vn -0.6682 0.2219 0.7101
vn 0.7413 0.0754 0.6669
vn -0.5326 0.3149 -0.7856
vn 0.6703 -0.3501 -0.6543
vn -0.5326 0.3149 0.7856
vn 0.6703 -0.3501 0.6543
vn -0.5857 0.3285 -0.7410
vn 0.3337 -0.6917 -0.6405
vn -0.5857 0.3285 0.7410
vn 0.3337 -0.6917 0.6405
vn -0.8737 -0.1084 -0.4742
vn -0.2225 -0.8464 -0.4839
vn -0.8737 -0.1084 0.4742
vn -0.2225 -0.8464 0.4839
vn -0.5920 0.1469 -0.7924
vn -0.6268 0.7616 -0.1645
vn 0.6949 0.2074 -0.6885
vn 0.4344 0.8694 -0.2355
vn -0.6416 -0.0074 0.7670
vn -0.6898 0.2277 0.6872
vn 0.7077 0.1326 0.6940
vn 0.4678 0.4827 0.7403
vn -0.6535 0.2076 -0.7279
vn 0.7382 -0.1919 -0.6467
vn -0.6535 0.2076 0.7279
vn 0.7382 -0.1919 0.6467
vn -0.5213 0.3975 -0.7551
vn 0.5435 -0.5297 -0.6512
vn -0.5213 0.3975 0.7551
vn 0.5435 -0.5297 0.6512
vn -0.5532 0.3769 -0.7429
vn 0.1202 -0.7451 -0.6560
vn -0.5532 0.3769 0.7429
vn 0.1202 -0.7451 0.6560
vn -0.9001 0.0926 -0.4257
vn -0.4645 -0.7680 -0.4410
vn -0.9001 0.0926 0.4257
vn -0.4645 -0.7680 0.4410
vn -0.6241 0.0936 -0.7757
vn -0.6333 0.7582 -0.1553
vn 0.6597 0.2702 -0.7013
vn 0.4162 0.8831 -0.2166
vn -0.6644 -0.0723 0.7439
vn -0.6860 0.2307 0.6901
vn 0.6902 0.1730 0.7026
vn 0.4558 0.4776 0.7511
vn -0.6447 0.1572 -0.7481
vn 0.7628 -0.1201 -0.6354
vn -0.6447 0.1572 0.7481
vn 0.7628 -0.1201 0.6354
vn -0.5338 0.3970 -0.7466
vn 0.5968 -0.4458 -0.6671
vn -0.5338 0.3970 0.7466
vn 0.5968 -0.4458 0.6671
vn -0.5377 0.4197 -0.7313
vn 0.2564 -0.7055 -0.6607
vn -0.5377 0.4197 0.7313
vn 0.2564 -0.7055 0.6607
vn -0.8723 0.0298 -0.4881
vn -0.3386 -0.7918 -0.5084
vn -0.8723 0.0298 0.4881
vn -0.3386 -0.7918 0.5084
vn -0.5981 0.1168 -0.7929
vn -0.6267 0.7581 -0.1802
vn 0.6922 0.1902 -0.6962
vn 0.4486 0.8568 -0.2544
vn -0.6465 -0.0273 0.7625
vn -0.6882 0.2181 0.6919
vn 0.7036 0.1175 0.7008
vn 0.4866 0.4602 0.7426
vn -0.6606 0.2056 -0.7220
vn 0.7490 -0.1555 -0.6440
vn -0.6606 0.2056 0.7220
vn 0.7490 -0.1555 0.6440
vn -0.5682 0.3557 -0.7420
vn 0.5766 -0.4835 -0.6587
vn -0.5682 0.3557 0.7420
vn 0.5766 -0.4835 0.6587
vn -0.5533 0.3779 -0.7423
vn 0.2547 -0.6898 -0.6777
vn -0.5533 0.3779 0.7423
vn 0.2547 -0.6898 0.6777
vn -0.8687 0.0309 -0.4945
vn -0.2778 -0.8167 -0.5058
vn -0.8687 0.0309 0.4945
vn -0.2778 -0.8167 0.5058
vn -0.6878 0.0665 -0.7229
vn -0.6011 0.3750 -0.7058
vn 0.7007 0.0987 -0.7066
vn 0.5524 0.4260 -0.7165
vn -0.6445 0.1920 0.7401
vn -0.5410 0.8072 0.2362
vn 0.6671 0.2031 0.7167
vn 0.5016 0.8284 0.2491
vn -0.7049 0.1573 -0.6917
vn 0.7476 0.0319 -0.6634
vn -0.7049 0.1573 0.6917
vn 0.7476 0.0319 0.6634
vn -0.5928 0.2344 -0.7705
vn 0.6900 -0.2476 -0.6802
vn -0.5928 0.2344 0.7705
vn 0.6900 -0.2476 0.6802
vn -0.7637 0.0142 -0.6455
vn 0.4051 -0.6602 -0.6325
vn -0.7637 0.0142 0.6455
vn 0.4051 -0.6602 0.6325
vn -0.6626 -0.6269 -0.4098
vn -0.0662 -0.9027 -0.4251
vn -0.6626 -0.6269 0.4098
vn -0.0662 -0.9027 0.4251
vn -0.6480 -0.0239 -0.7612
vn -0.6784 0.2832 -0.6780
vn 0.7173 0.1117 -0.6877
vn 0.4767 0.5104 -0.7157
vn -0.6015 0.1253 0.7890
vn -0.6360 0.7310 0.2473
vn 0.7014 0.1837 0.6887
vn 0.4481 0.8419 0.3006
vn -0.6659 0.1949 -0.7201
vn 0.7386 -0.1578 -0.6554
vn -0.6659 0.1949 0.7201
vn 0.7386 -0.1578 0.6554
vn -0.5849 0.3293 -0.7412
vn 0.5860 -0.4768 -0.6552
vn -0.5849 0.3293 0.7412
vn 0.5860 -0.4768 0.6552
vn -0.5743 0.3380 -0.7456
vn 0.2580 -0.6892 -0.6771
vn -0.5743 0.3380 0.7456
vn 0.2580 -0.6892 0.6771
vn -0.8738 -0.0692 -0.4814
vn -0.2009 -0.8385 -0.5065
vn -0.8738 -0.0692 0.4814
vn -0.2009 -0.8385 0.5065
vn -0.5885 -0.6036 -0.5379
vn -0.6950 0.4705 -0.5437
vn 0.0049 -0.7072 -0.7070
vn -0.1803 0.6895 -0.7015
vn -0.5885 -0.6036 0.5379
vn -0.6950 0.4705 0.5437
vn 0.0049 -0.7072 0.7070
vn -0.1803 0.6895 0.7015
vn 0.0615 -0.6951 -0.7163
vn -0.0717 0.7126 -0.6979
vn 0.0615 -0.6951 0.7163
vn -0.0717 0.7126 0.6979
vn 0.0465 -0.7083 -0.7044
vn -0.0479 0.7024 -0.7102
vn 0.0465 -0.7083 0.7044
vn -0.0479 0.7024 0.7102
vn 0.6051 -0.5461 -0.5794
vn 0.5530 0.6052 -0.5727
vn 0.6051 -0.5461 0.5794
vn 0.5530 0.6052 0.5727
vt 0.786174 0.488741
vt 0.786449 0.491462
vt 0.784035 0.491462
vt 0.782998 0.488741
vt 0.784035 0.491744
vt 0.786449 0.491744
vt 0.787215 0.485720
vt 0.789925 0.482462
vt 0.783090 0.485028
vt 0.784889 0.481389
vt 0.789419 0.477506
vt 0.793076 0.478752
vt 0.793112 0.477149
vt 0.791911 0.476918
vt 0.782950 0.487304
vt 0.784036 0.491355
vt 0.781622 0.491355
vt 0.779774 0.487304
vt 0.781622 0.492141
vt 0.784036 0.492141
vt 0.783991 0.484925
vt 0.786701 0.480738
vt 0.779866 0.484233
vt 0.781665 0.479665
vt 0.785880 0.475315
vt 0.789325 0.476561
vt 0.789361 0.474959
vt 0.788160 0.474728
vt 0.798289 0.486200
vt 0.798121 0.490125
vt 0.795707 0.490125
vt 0.795653 0.486200
vt 0.795707 0.489069
vt 0.798121 0.489069
vt 0.797775 0.483179
vt 0.798520 0.479367
vt 0.793650 0.482487
vt 0.793933 0.478389
vt 0.797749 0.473732
vt 0.801195 0.474978
vt 0.801454 0.473938
vt 0.800076 0.473050
vt 0.800551 0.485178
vt 0.800927 0.489682
vt 0.798927 0.489682
vt 0.798128 0.485178
vt 0.798927 0.488626
vt 0.800927 0.488626
vt 0.801226 0.482051
vt 0.802933 0.479367
vt 0.797943 0.481982
vt 0.799021 0.478389
vt 0.802101 0.474723
vt 0.805541 0.476606
vt 0.807387 0.475009
vt 0.806587 0.473571
vt 0.804299 0.485424
vt 0.803311 0.489152
vt 0.801649 0.489152
vt 0.801854 0.485224
vt 0.801649 0.488096
vt 0.803311 0.488096
vt 0.805636 0.482591
vt 0.807962 0.480538
vt 0.802416 0.481840
vt 0.804539 0.478444
vt 0.807440 0.476280
vt 0.810370 0.479410
vt 0.813780 0.478165
vt 0.813016 0.476419
vt 0.806475 0.485530
vt 0.805738 0.488984
vt 0.804393 0.488943
vt 0.804725 0.485025
vt 0.804393 0.487887
vt 0.805738 0.487928
vt 0.809041 0.484132
vt 0.811482 0.483522
vt 0.811482 0.483522
vt 0.806384 0.482560
vt 0.809001 0.480570
vt 0.814363 0.479752
vt 0.814758 0.483460
vt 0.818799 0.484229
vt 0.818616 0.482412
vt 0.806367 0.485686
vt 0.805289 0.488035
vt 0.804008 0.488023
vt 0.804316 0.485503
vt 0.804008 0.488809
vt 0.805289 0.488821
vt 0.809718 0.481672
vt 0.812666 0.480203
vt 0.807061 0.479875
vt 0.810185 0.477334
vt 0.814826 0.475461
vt 0.815220 0.479397
vt 0.819937 0.477366
vt 0.819648 0.475796
vt 0.792835 0.488179
vt 0.792503 0.490651
vt 0.790293 0.490651
vt 0.790289 0.488352
vt 0.790293 0.491437
vt 0.792503 0.491437
vt 0.793604 0.484777
vt 0.794562 0.481519
vt 0.789423 0.484917
vt 0.790109 0.480415
vt 0.793865 0.476890
vt 0.798292 0.478127
vt 0.799348 0.476839
vt 0.798177 0.475693
vt 0.778913 0.487464
vt 0.779915 0.492353
vt 0.777501 0.492353
vt 0.775399 0.487027
vt 0.777501 0.491297
vt 0.779915 0.491297
vt 0.779359 0.485494
vt 0.780445 0.483366
vt 0.780445 0.483366
vt 0.775343 0.484325
vt 0.777143 0.480874
vt 0.781737 0.478254
vt 0.783910 0.480363
vt 0.785043 0.479527
vt 0.784222 0.478324
vt 0.774424 0.487744
vt 0.775243 0.492090
vt 0.772829 0.492090
vt 0.771085 0.487811
vt 0.772829 0.491034
vt 0.775243 0.491034
vt 0.774522 0.485846
vt 0.776234 0.482629
vt 0.770701 0.485204
vt 0.772558 0.481085
vt 0.777296 0.477108
vt 0.779387 0.479495
vt 0.781486 0.477659
vt 0.780595 0.476608
vt 0.770128 0.487017
vt 0.771270 0.492453
vt 0.768856 0.492453
vt 0.766815 0.486600
vt 0.768856 0.491397
vt 0.771270 0.491397
vt 0.770577 0.484931
vt 0.771958 0.481999
vt 0.766688 0.484115
vt 0.768528 0.480048
vt 0.771590 0.477970
vt 0.773682 0.479887
vt 0.775839 0.478040
vt 0.774948 0.476989
vt 0.802122 0.485679
vt 0.801866 0.489669
vt 0.799921 0.489669
vt 0.799035 0.485556
vt 0.799921 0.490455
vt 0.801866 0.490455
vt 0.802535 0.483024
vt 0.803252 0.479155
vt 0.798723 0.482761
vt 0.799219 0.478254
vt 0.802451 0.473696
vt 0.805897 0.474943
vt 0.805592 0.473393
vt 0.804463 0.472921
vt 0.771997 0.486730
vt 0.773139 0.491134
vt 0.770725 0.491134
vt 0.768683 0.486313
vt 0.770725 0.491920
vt 0.773139 0.491920
vt 0.772598 0.483778
vt 0.773826 0.480829
vt 0.768709 0.482962
vt 0.770397 0.478879
vt 0.773459 0.476817
vt 0.775550 0.478481
vt 0.777521 0.476633
vt 0.776561 0.475878
vt 0.137812 0.880559
vt 0.137893 0.881819
vt 0.134793 0.882684
vt 0.134759 0.880584
vt 0.122860 0.882196
vt 0.122894 0.884296
vt 0.111738 0.882735
vt 0.111774 0.884959
vt 0.098170 0.885990
vt 0.098136 0.883885
s 1
usemtl Material.001
f 1/1/1 2/2/2 4/3/4
f 1/1/1 4/3/4 3/4/3
f 3/4/3 4/3/4 8/5/8
f 3/4/3 8/5/8 7/4/7
f 7/4/7 8/5/8 6/6/6
f 7/4/7 6/6/6 5/1/5
f 5/1/5 6/6/6 2/2/2
f 5/1/5 2/2/2 1/1/1
f 5/1/5 1/1/1 9/7/9
f 5/1/5 9/7/9 11/7/11
f 8/5/8 4/3/4 2/2/2
f 8/5/8 2/2/2 6/6/6
f 11/7/11 9/7/9 13/8/13
f 11/7/11 13/8/13 15/8/15
f 3/4/3 7/4/7 12/9/12
f 3/4/3 12/9/12 10/9/10
f 1/1/1 3/4/3 10/9/10
f 1/1/1 10/9/10 9/7/9
f 7/4/7 5/1/5 11/7/11
f 7/4/7 11/7/11 12/9/12
f 14/10/14 16/10/16 20/11/20
f 14/10/14 20/11/20 18/11/18
f 10/9/10 12/9/12 16/10/16
f 10/9/10 16/10/16 14/10/14
f 12/9/12 11/7/11 15/8/15
f 12/9/12 15/8/15 16/10/16
f 9/7/9 10/9/10 14/10/14
f 9/7/9 14/10/14 13/8/13
f 20/11/20 19/12/19 23/13/23
f 20/11/20 23/13/23 24/14/24
f 16/10/16 15/8/15 19/12/19
f 16/10/16 19/12/19 20/11/20
f 13/8/13 14/10/14 18/11/18
f 13/8/13 18/11/18 17/12/17
f 15/8/15 13/8/13 17/12/17
f 15/8/15 17/12/17 19/12/19
f 22/14/22 24/14/24 23/13/23
f 22/14/22 23/13/23 21/13/21
f 17/12/17 18/11/18 22/14/22
f 17/12/17 22/14/22 21/13/21
f 19/12/19 17/12/17 21/13/21
f 19/12/19 21/13/21 23/13/23
f 18/11/18 20/11/20 24/14/24
f 18/11/18 24/14/24 22/14/22
f 25/15/25 26/16/26 28/17/28
f 25/15/25 28/17/28 27/18/27
f 27/18/27 28/17/28 32/19/32
f 27/18/27 32/19/32 31/18/31
f 31/18/31 32/19/32 30/20/30
f 31/18/31 30/20/30 29/15/29
f 29/15/29 30/20/30 26/16/26
f 29/15/29 26/16/26 25/15/25
f 29/15/29 25/15/25 33/21/33
f 29/15/29 33/21/33 35/21/35
f 32/19/32 28/17/28 26/16/26
f 32/19/32 26/16/26 30/20/30
f 35/21/35 33/21/33 37/22/37
f 35/21/35 37/22/37 39/22/39
f 27/18/27 31/18/31 36/23/36
f 27/18/27 36/23/36 34/23/34
f 25/15/25 27/18/27 34/23/34
f 25/15/25 34/23/34 33/21/33
f 31/18/31 29/15/29 35/21/35
f 31/18/31 35/21/35 36/23/36
f 38/24/38 40/24/40 44/25/44
f 38/24/38 44/25/44 42/25/42
f 34/23/34 36/23/36 40/24/40
f 34/23/34 40/24/40 38/24/38
f 36/23/36 35/21/35 39/22/39
f 36/23/36 39/22/39 40/24/40
f 33/21/33 34/23/34 38/24/38
f 33/21/33 38/24/38 37/22/37
f 44/25/44 43/26/43 47/27/47
f 44/25/44 47/27/47 48/28/48
f 40/24/40 39/22/39 43/26/43
f 40/24/40 43/26/43 44/25/44
f 37/22/37 38/24/38 42/25/42
f 37/22/37 42/25/42 41/26/41
f 39/22/39 37/22/37 41/26/41
f 39/22/39 41/26/41 43/26/43
f 46/28/46 48/28/48 47/27/47
f 46/28/46 47/27/47 45/27/45
f 41/26/41 42/25/42 46/28/46
f 41/26/41 46/28/46 45/27/45
f 43/26/43 41/26/41 45/27/45
f 43/26/43 45/27/45 47/27/47
f 42/25/42 44/25/44 48/28/48
f 42/25/42 48/28/48 46/28/46
f 49/29/49 50/30/50 52/31/52
f 49/29/49 52/31/52 51/32/51
f 51/32/51 52/31/52 56/33/56
f 51/32/51 56/33/56 55/32/55
f 55/32/55 56/33/56 54/34/54
f 55/32/55 54/34/54 53/29/53
f 53/29/53 54/34/54 50/30/50
f 53/29/53 50/30/50 49/29/49
f 53/29/53 49/29/49 57/35/57
f 53/29/53 57/35/57 59/35/59
f 56/33/56 52/31/52 50/30/50
f 56/33/56 50/30/50 54/34/54
f 59/35/59 57/35/57 61/36/61
f 59/35/59 61/36/61 63/36/63
f 51/32/51 55/32/55 60/37/60
f 51/32/51 60/37/60 58/37/58
f 49/29/49 51/32/51 58/37/58
f 49/29/49 58/37/58 57/35/57
f 55/32/55 53/29/53 59/35/59
f 55/32/55 59/35/59 60/37/60
f 62/38/62 64/38/64 68/39/68
f 62/38/62 68/39/68 66/39/66
f 58/37/58 60/37/60 64/38/64
f 58/37/58 64/38/64 62/38/62
f 60/37/60 59/35/59 63/36/63
f 60/37/60 63/36/63 64/38/64
f 57/35/57 58/37/58 62/38/62
f 57/35/57 62/38/62 61/36/61
f 68/39/68 67/40/67 71/41/71
f 68/39/68 71/41/71 72/42/72
f 64/38/64 63/36/63 67/40/67
f 64/38/64 67/40/67 68/39/68
f 61/36/61 62/38/62 66/39/66
f 61/36/61 66/39/66 65/40/65
f 63/36/63 61/36/61 65/40/65
f 63/36/63 65/40/65 67/40/67
f 70/42/70 72/42/72 71/41/71
f 70/42/70 71/41/71 69/41/69
f 65/40/65 66/39/66 70/42/70
f 65/40/65 70/42/70 69/41/69
f 67/40/67 65/40/65 69/41/69
f 67/40/67 69/41/69 71/41/71
f 66/39/66 68/39/68 72/42/72
f 66/39/66 72/42/72 70/42/70
f 73/43/73 74/44/74 76/45/76
f 73/43/73 76/45/76 75/46/75
f 75/46/75 76/45/76 80/47/80
f 75/46/75 80/47/80 79/46/79
f 79/46/79 80/47/80 78/48/78
f 79/46/79 78/48/78 77/43/77
f 77/43/77 78/48/78 74/44/74
f 77/43/77 74/44/74 73/43/73
f 77/43/77 73/43/73 81/49/81
f 77/43/77 81/49/81 83/49/83
f 80/47/80 76/45/76 74/44/74
f 80/47/80 74/44/74 78/48/78
f 83/49/83 81/49/81 85/50/85
f 83/49/83 85/50/85 87/50/87
f 75/46/75 79/46/79 84/51/84
f 75/46/75 84/51/84 82/51/82
f 73/43/73 75/46/75 82/51/82
f 73/43/73 82/51/82 81/49/81
f 79/46/79 77/43/77 83/49/83
f 79/46/79 83/49/83 84/51/84
f 86/52/86 88/52/88 92/53/92
f 86/52/86 92/53/92 90/53/90
f 82/51/82 84/51/84 88/52/88
f 82/51/82 88/52/88 86/52/86
f 84/51/84 83/49/83 87/50/87
f 84/51/84 87/50/87 88/52/88
f 81/49/81 82/51/82 86/52/86
f 81/49/81 86/52/86 85/50/85
f 92/53/92 91/54/91 95/55/95
f 92/53/92 95/55/95 96/56/96
f 88/52/88 87/50/87 91/54/91
f 88/52/88 91/54/91 92/53/92
f 85/50/85 86/52/86 90/53/90
f 85/50/85 90/53/90 89/54/89
f 87/50/87 85/50/85 89/54/89
f 87/50/87 89/54/89 91/54/91
f 94/56/94 96/56/96 95/55/95
f 94/56/94 95/55/95 93/55/93
f 89/54/89 90/53/90 94/56/94
f 89/54/89 94/56/94 93/55/93
f 91/54/91 89/54/89 93/55/93
f 91/54/91 93/55/93 95/55/95
f 90/53/90 92/53/92 96/56/96
f 90/53/90 96/56/96 94/56/94
f 97/57/97 98/58/98 100/59/100
f 97/57/97 100/59/100 99/60/99
f 99/60/99 100/59/100 104/61/104
f 99/60/99 104/61/104 103/60/103
f 103/60/103 104/61/104 102/62/102
f 103/60/103 102/62/102 101/57/101
f 101/57/101 102/62/102 98/58/98
f 101/57/101 98/58/98 97/57/97
f 101/57/101 97/57/97 105/63/105
f 101/57/101 105/63/105 107/63/107
f 104/61/104 100/59/100 98/58/98
f 104/61/104 98/58/98 102/62/102
f 107/63/107 105/63/105 109/64/109
f 107/63/107 109/64/109 111/64/111
f 99/60/99 103/60/103 108/65/108
f 99/60/99 108/65/108 106/65/106
f 97/57/97 99/60/99 106/65/106
f 97/57/97 106/65/106 105/63/105
f 103/60/103 101/57/101 107/63/107
f 103/60/103 107/63/107 108/65/108
f 110/66/110 112/66/112 116/67/116
f 110/66/110 116/67/116 114/67/114
f 106/65/106 108/65/108 112/66/112
f 106/65/106 112/66/112 110/66/110
f 108/65/108 107/63/107 111/64/111
f 108/65/108 111/64/111 112/66/112
f 105/63/105 106/65/106 110/66/110
f 105/63/105 110/66/110 109/64/109
f 116/67/116 115/68/115 119/69/119
f 116/67/116 119/69/119 120/70/120
f 112/66/112 111/64/111 115/68/115
f 112/66/112 115/68/115 116/67/116
f 109/64/109 110/66/110 114/67/114
f 109/64/109 114/67/114 113/68/113
f 111/64/111 109/64/109 113/68/113
f 111/64/111 113/68/113 115/68/115
f 118/70/118 120/70/120 119/69/119
f 118/70/118 119/69/119 117/69/117
f 113/68/113 114/67/114 118/70/118
f 113/68/113 118/70/118 117/69/117
f 115/68/115 113/68/113 117/69/117
f 115/68/115 117/69/117 119/69/119
f 114/67/114 116/67/116 120/70/120
f 114/67/114 120/70/120 118/70/118
f 121/71/121 122/72/122 124/73/124
f 121/71/121 124/73/124 123/74/123
f 123/74/123 124/73/124 128/75/128
f 123/74/123 128/75/128 127/74/127
f 127/74/127 128/75/128 126/76/126
f 127/74/127 126/76/126 125/71/125
f 125/71/125 126/76/126 122/72/122
f 125/71/125 122/72/122 121/71/121
f 125/71/125 121/71/121 129/77/129
f 125/71/125 129/77/129 131/77/131
f 128/75/128 124/73/124 122/72/122
f 128/75/128 122/72/122 126/76/126
f 131/77/131 129/77/129 133/78/133
f 131/77/131 133/78/133 135/79/135
f 123/74/123 127/74/127 132/80/132
f 123/74/123 132/80/132 130/80/130
f 121/71/121 123/74/123 130/80/130
f 121/71/121 130/80/130 129/77/129
f 127/74/127 125/71/125 131/77/131
f 127/74/127 131/77/131 132/80/132
f 134/81/134 136/81/136 140/82/140
f 134/81/134 140/82/140 138/82/138
f 130/80/130 132/80/132 136/81/136
f 130/80/130 136/81/136 134/81/134
f 132/80/132 131/77/131 135/79/135
f 132/80/132 135/79/135 136/81/136
f 129/77/129 130/80/130 134/81/134
f 129/77/129 134/81/134 133/78/133
f 140/82/140 139/83/139 143/84/143
f 140/82/140 143/84/143 144/85/144
f 136/81/136 135/79/135 139/83/139
f 136/81/136 139/83/139 140/82/140
f 133/78/133 134/81/134 138/82/138
f 133/78/133 138/82/138 137/83/137
f 135/79/135 133/78/133 137/83/137
f 135/79/135 137/83/137 139/83/139
f 142/85/142 144/85/144 143/84/143
f 142/85/142 143/84/143 141/84/141
f 137/83/137 138/82/138 142/85/142
f 137/83/137 142/85/142 141/84/141
f 139/83/139 137/83/137 141/84/141
f 139/83/139 141/84/141 143/84/143
f 138/82/138 140/82/140 144/85/144
f 138/82/138 144/85/144 142/85/142
f 145/86/145 146/87/146 148/88/148
f 145/86/145 148/88/148 147/89/147
f 147/89/147 148/88/148 152/90/152
f 147/89/147 152/90/152 151/89/151
f 151/89/151 152/90/152 150/91/150
f 151/89/151 150/91/150 149/86/149
f 149/86/149 150/91/150 146/87/146
f 149/86/149 146/87/146 145/86/145
f 149/86/149 145/86/145 153/92/153
f 149/86/149 153/92/153 155/92/155
f 152/90/152 148/88/148 146/87/146
f 152/90/152 146/87/146 150/91/150
f 155/92/155 153/92/153 157/93/157
f 155/92/155 157/93/157 159/93/159
f 147/89/147 151/89/151 156/94/156
f 147/89/147 156/94/156 154/94/154
f 145/86/145 147/89/147 154/94/154
f 145/86/145 154/94/154 153/92/153
f 151/89/151 149/86/149 155/92/155
f 151/89/151 155/92/155 156/94/156
f 158/95/158 160/95/160 164/96/164
f 158/95/158 164/96/164 162/96/162
f 154/94/154 156/94/156 160/95/160
f 154/94/154 160/95/160 158/95/158
f 156/94/156 155/92/155 159/93/159
f 156/94/156 159/93/159 160/95/160
f 153/92/153 154/94/154 158/95/158
f 153/92/153 158/95/158 157/93/157
f 164/96/164 163/97/163 167/98/167
f 164/96/164 167/98/167 168/99/168
f 160/95/160 159/93/159 163/97/163
f 160/95/160 163/97/163 164/96/164
f 157/93/157 158/95/158 162/96/162
f 157/93/157 162/96/162 161/97/161
f 159/93/159 157/93/157 161/97/161
f 159/93/159 161/97/161 163/97/163
f 166/99/166 168/99/168 167/98/167
f 166/99/166 167/98/167 165/98/165
f 161/97/161 162/96/162 166/99/166
f 161/97/161 166/99/166 165/98/165
f 163/97/163 161/97/161 165/98/165
f 163/97/163 165/98/165 167/98/167
f 162/96/162 164/96/164 168/99/168
f 162/96/162 168/99/168 166/99/166
f 169/100/169 170/101/170 172/102/172
f 169/100/169 172/102/172 171/103/171
f 171/103/171 172/102/172 176/104/176
f 171/103/171 176/104/176 175/103/175
f 175/103/175 176/104/176 174/105/174
f 175/103/175 174/105/174 173/100/173
f 173/100/173 174/105/174 170/101/170
f 173/100/173 170/101/170 169/100/169
f 173/100/173 169/100/169 177/106/177
f 173/100/173 177/106/177 179/106/179
f 176/104/176 172/102/172 170/101/170
f 176/104/176 170/101/170 174/105/174
f 179/106/179 177/106/177 181/107/181
f 179/106/179 181/107/181 183/107/183
f 171/103/171 175/103/175 180/108/180
f 171/103/171 180/108/180 178/108/178
f 169/100/169 171/103/171 178/108/178
f 169/100/169 178/108/178 177/106/177
f 175/103/175 173/100/173 179/106/179
f 175/103/175 179/106/179 180/108/180
f 182/109/182 184/109/184 188/110/188
f 182/109/182 188/110/188 186/110/186
f 178/108/178 180/108/180 184/109/184
f 178/108/178 184/109/184 182/109/182
f 180/108/180 179/106/179 183/107/183
f 180/108/180 183/107/183 184/109/184
f 177/106/177 178/108/178 182/109/182
f 177/106/177 182/109/182 181/107/181
f 188/110/188 187/111/187 191/112/191
f 188/110/188 191/112/191 192/113/192
f 184/109/184 183/107/183 187/111/187
f 184/109/184 187/111/187 188/110/188
f 181/107/181 182/109/182 186/110/186
f 181/107/181 186/110/186 185/111/185
f 183/107/183 181/107/181 185/111/185
f 183/107/183 185/111/185 187/111/187
f 190/113/190 192/113/192 191/112/191
f 190/113/190 191/112/191 189/112/189
f 185/111/185 186/110/186 190/113/190
f 185/111/185 190/113/190 189/112/189
f 187/111/187 185/111/185 189/112/189
f 187/111/187 189/112/189 191/112/191
f 186/110/186 188/110/188 192/113/192
f 186/110/186 192/113/192 190/113/190
f 193/114/193 194/115/194 196/116/196
f 193/114/193 196/116/196 195/117/195
f 195/117/195 196/116/196 200/118/200
f 195/117/195 200/118/200 199/117/199
f 199/117/199 200/118/200 198/119/198
f 199/117/199 198/119/198 197/114/197
f 197/114/197 198/119/198 194/115/194
f 197/114/197 194/115/194 193/114/193
f 197/114/197 193/114/193 201/120/201
f 197/114/197 201/120/201 203/120/203
f 200/118/200 196/116/196 194/115/194
f 200/118/200 194/115/194 198/119/198
f 203/120/203 201/120/201 205/121/205
f 203/120/203 205/121/205 207/122/207
f 195/117/195 199/117/199 204/123/204
f 195/117/195 204/123/204 202/123/202
f 193/114/193 195/117/195 202/123/202
f 193/114/193 202/123/202 201/120/201
f 199/117/199 197/114/197 203/120/203
f 199/117/199 203/120/203 204/123/204
f 206/124/206 208/124/208 212/125/212
f 206/124/206 212/125/212 210/125/210
f 202/123/202 204/123/204 208/124/208
f 202/123/202 208/124/208 206/124/206
f 204/123/204 203/120/203 207/122/207
f 204/123/204 207/122/207 208/124/208
f 201/120/201 202/123/202 206/124/206
f 201/120/201 206/124/206 205/121/205
f 212/125/212 211/126/211 215/127/215
f 212/125/212 215/127/215 216/128/216
f 208/124/208 207/122/207 211/126/211
f 208/124/208 211/126/211 212/125/212
f 205/121/205 206/124/206 210/125/210
f 205/121/205 210/125/210 209/126/209
f 207/122/207 205/121/205 209/126/209
f 207/122/207 209/126/209 211/126/211
f 214/128/214 216/128/216 215/127/215
f 214/128/214 215/127/215 213/127/213
f 209/126/209 210/125/210 214/128/214
f 209/126/209 214/128/214 213/127/213
f 211/126/211 209/126/209 213/127/213
f 211/126/211 213/127/213 215/127/215
f 210/125/210 212/125/212 216/128/216
f 210/125/210 216/128/216 214/128/214
f 217/129/217 218/130/218 220/131/220
f 217/129/217 220/131/220 219/132/219
f 219/132/219 220/131/220 224/133/224
f 219/132/219 224/133/224 223/132/223
f 223/132/223 224/133/224 222/134/222
f 223/132/223 222/134/222 221/129/221
f 221/129/221 222/134/222 218/130/218
f 221/129/221 218/130/218 217/129/217
f 221/129/221 217/129/217 225/135/225
f 221/129/221 225/135/225 227/135/227
f 224/133/224 220/131/220 218/130/218
f 224/133/224 218/130/218 222/134/222
f 227/135/227 225/135/225 229/136/229
f 227/135/227 229/136/229 231/136/231
f 219/132/219 223/132/223 228/137/228
f 219/132/219 228/137/228 226/137/226
f 217/129/217 219/132/219 226/137/226
f 217/129/217 226/137/226 225/135/225
f 223/132/223 221/129/221 227/135/227
f 223/132/223 227/135/227 228/137/228
f 230/138/230 232/138/232 236/139/236
f 230/138/230 236/139/236 234/139/234
f 226/137/226 228/137/228 232/138/232
f 226/137/226 232/138/232 230/138/230
f 228/137/228 227/135/227 231/136/231
f 228/137/228 231/136/231 232/138/232
f 225/135/225 226/137/226 230/138/230
f 225/135/225 230/138/230 229/136/229
f 236/139/236 235/140/235 239/141/239
f 236/139/236 239/141/239 240/142/240
f 232/138/232 231/136/231 235/140/235
f 232/138/232 235/140/235 236/139/236
f 229/136/229 230/138/230 234/139/234
f 229/136/229 234/139/234 233/140/233
f 231/136/231 229/136/229 233/140/233
f 231/136/231 233/140/233 235/140/235
f 238/142/238 240/142/240 239/141/239
f 238/142/238 239/141/239 237/141/237
f 233/140/233 234/139/234 238/142/238
f 233/140/233 238/142/238 237/141/237
f 235/140/235 233/140/233 237/141/237
f 235/140/235 237/141/237 239/141/239
f 234/139/234 236/139/236 240/142/240
f 234/139/234 240/142/240 238/142/238
f 241/143/241 242/144/242 244/145/244
f 241/143/241 244/145/244 243/146/243
f 243/146/243 244/145/244 248/147/248
f 243/146/243 248/147/248 247/146/247
f 247/146/247 248/147/248 246/148/246
f 247/146/247 246/148/246 245/143/245
f 245/143/245 246/148/246 242/144/242
f 245/143/245 242/144/242 241/143/241
f 245/143/245 241/143/241 249/149/249
f 245/143/245 249/149/249 251/149/251
f 248/147/248 244/145/244 242/144/242
f 248/147/248 242/144/242 246/148/246
f 251/149/251 249/149/249 253/150/253
f 251/149/251 253/150/253 255/150/255
f 243/146/243 247/146/247 252/151/252
f 243/146/243 252/151/252 250/151/250
f 241/143/241 243/146/243 250/151/250
f 241/143/241 250/151/250 249/149/249
f 247/146/247 245/143/245 251/149/251
f 247/146/247 251/149/251 252/151/252
f 254/152/254 256/152/256 260/153/260
f 254/152/254 260/153/260 258/153/258
f 250/151/250 252/151/252 256/152/256
f 250/151/250 256/152/256 254/152/254
f 252/151/252 251/149/251 255/150/255
f 252/151/252 255/150/255 256/152/256
f 249/149/249 250/151/250 254/152/254
f 249/149/249 254/152/254 253/150/253
f 260/153/260 259/154/259 263/155/263
f 260/153/260 263/155/263 264/156/264
f 256/152/256 255/150/255 259/154/259
f 256/152/256 259/154/259 260/153/260
f 253/150/253 254/152/254 258/153/258
f 253/150/253 258/153/258 257/154/257
f 255/150/255 253/150/253 257/154/257
f 255/150/255 257/154/257 259/154/259
f 262/156/262 264/156/264 263/155/263
f 262/156/262 263/155/263 261/155/261
f 257/154/257 258/153/258 262/156/262
f 257/154/257 262/156/262 261/155/261
f 259/154/259 257/154/257 261/155/261
f 259/154/259 261/155/261 263/155/263
f 258/153/258 260/153/260 264/156/264
f 258/153/258 264/156/264 262/156/262
f 265/157/265 266/158/266 268/159/268
f 265/157/265 268/159/268 267/160/267
f 267/160/267 268/159/268 272/161/272
f 267/160/267 272/161/272 271/160/271
f 271/160/271 272/161/272 270/162/270
f 271/160/271 270/162/270 269/157/269
f 269/157/269 270/162/270 266/158/266
f 269/157/269 266/158/266 265/157/265
f 269/157/269 265/157/265 273/163/273
f 269/157/269 273/163/273 275/163/275
f 272/161/272 268/159/268 266/158/266
f 272/161/272 266/158/266 270/162/270
f 275/163/275 273/163/273 277/164/277
f 275/163/275 277/164/277 279/164/279
f 267/160/267 271/160/271 276/165/276
f 267/160/267 276/165/276 274/165/274
f 265/157/265 267/160/267 274/165/274
f 265/157/265 274/165/274 273/163/273
f 271/160/271 269/157/269 275/163/275
f 271/160/271 275/163/275 276/165/276
f 278/166/278 280/166/280 284/167/284
f 278/166/278 284/167/284 282/167/282
f 274/165/274 276/165/276 280/166/280
f 274/165/274 280/166/280 278/166/278
f 276/165/276 275/163/275 279/164/279
f 276/165/276 279/164/279 280/166/280
f 273/163/273 274/165/274 278/166/278
f 273/163/273 278/166/278 277/164/277
f 284/167/284 283/168/283 287/169/287
f 284/167/284 287/169/287 288/170/288
f 280/166/280 279/164/279 283/168/283
f 280/166/280 283/168/283 284/167/284
f 277/164/277 278/166/278 282/167/282
f 277/164/277 282/167/282 281/168/281
f 279/164/279 277/164/277 281/168/281
f 279/164/279 281/168/281 283/168/283
f 286/170/286 288/170/288 287/169/287
f 286/170/286 287/169/287 285/169/285
f 281/168/281 282/167/282 286/170/286
f 281/168/281 286/170/286 285/169/285
f 283/168/283 281/168/281 285/169/285
f 283/168/283 285/169/285 287/169/287
f 282/167/282 284/167/284 288/170/288
f 282/167/282 288/170/288 286/170/286
f 289/171/289 290/172/290 292/173/292
f 289/171/289 292/173/292 291/174/291
f 291/174/291 292/173/292 296/175/296
f 291/174/291 296/175/296 295/174/295
f 295/174/295 296/175/296 294/176/294
f 295/174/295 294/176/294 293/171/293
f 293/171/293 294/176/294 290/172/290
f 293/171/293 290/172/290 289/171/289
f 293/171/293 289/171/289 297/177/297
f 293/171/293 297/177/297 299/177/299
f 296/175/296 292/173/292 290/172/290
f 296/175/296 290/172/290 294/176/294
f 299/177/299 297/177/297 301/178/301
f 299/177/299 301/178/301 303/178/303
f 291/174/291 295/174/295 300/179/300
f 291/174/291 300/179/300 298/179/298
f 289/171/289 291/174/291 298/179/298
f 289/171/289 298/179/298 297/177/297
f 295/174/295 293/171/293 299/177/299
f 295/174/295 299/177/299 300/179/300
f 302/180/302 304/180/304 308/181/308
f 302/180/302 308/181/308 306/181/306
f 298/179/298 300/179/300 304/180/304
f 298/179/298 304/180/304 302/180/302
f 300/179/300 299/177/299 303/178/303
f 300/179/300 303/178/303 304/180/304
f 297/177/297 298/179/298 302/180/302
f 297/177/297 302/180/302 301/178/301
f 308/181/308 307/182/307 311/183/311
f 308/181/308 311/183/311 312/184/312
f 304/180/304 303/178/303 307/182/307
f 304/180/304 307/182/307 308/181/308
f 301/178/301 302/180/302 306/181/306
f 301/178/301 306/181/306 305/182/305
f 303/178/303 301/178/301 305/182/305
f 303/178/303 305/182/305 307/182/307
f 310/184/310 312/184/312 311/183/311
f 310/184/310 311/183/311 309/183/309
f 305/182/305 306/181/306 310/184/310
f 305/182/305 310/184/310 309/183/309
f 307/182/307 305/182/305 309/183/309
f 307/182/307 309/183/309 311/183/311
f 306/181/306 308/181/308 312/184/312
f 306/181/306 312/184/312 310/184/310
f 313/185/313 314/186/314 316/187/316
f 313/185/313 316/187/316 315/188/315
f 319/188/319 315/188/315 321/189/321
f 319/188/319 321/189/321 323/189/323
f 319/188/319 320/187/320 318/186/318
f 319/188/319 318/186/318 317/185/317
f 317/185/317 318/186/318 314/186/314
f 317/185/317 314/186/314 313/185/313
f 315/188/315 319/188/319 317/185/317
f 315/188/315 317/185/317 313/185/313
f 320/187/320 316/187/316 314/186/314
f 320/187/320 314/186/314 318/186/318
f 324/190/324 323/189/323 327/191/327
f 324/190/324 327/191/327 328/192/328
f 316/187/316 320/187/320 324/190/324
f 316/187/316 324/190/324 322/190/322
f 315/188/315 316/187/316 322/190/322
f 315/188/315 322/190/322 321/189/321
f 320/187/320 319/188/319 323/189/323
f 320/187/320 323/189/323 324/190/324
f 326/192/326 328/192/328 332/193/332
f 326/192/326 332/193/332 330/193/330
f 323/189/323 321/189/321 325/191/325
f 323/189/323 325/191/325 327/191/327
f 322/190/322 324/190/324 328/192/328
f 322/190/322 328/192/328 326/192/326
f 321/189/321 322/190/322 326/192/326
f 321/189/321 326/192/326 325/191/325
f 329/194/329 330/193/330 332/193/332
f 329/194/329 332/193/332 331/194/331
f 325/191/325 326/192/326 330/193/330
f 325/191/325 330/193/330 329/194/329
f 328/192/328 327/191/327 331/194/331
f 328/192/328 331/194/331 332/193/332
f 327/191/327 325/191/325 329/194/329
f 327/191/327 329/194/329 331/194/331
