# Blender 4.5.5 LTS
# www.blender.org
mtllib BrownPlanthopper_Nymph.mtl
o Body.007
v -0.001334 0.465412 -0.120436
v -0.001334 0.428097 -0.076997
v -0.001334 0.375238 -0.059944
v -0.001334 0.319899 -0.064675
v -0.001334 0.276907 -0.089924
v -0.001334 0.474177 -0.153568
v -0.039431 0.459154 -0.132342
v -0.067319 0.425748 -0.097620
v -0.077527 0.372526 -0.083757
v -0.067319 0.317550 -0.085298
v -0.039431 0.275551 -0.101831
v -0.001334 0.257782 -0.128925
v -0.055210 0.455881 -0.153546
v -0.094650 0.420078 -0.147407
v -0.109086 0.365979 -0.141246
v -0.094650 0.311880 -0.135085
v -0.055210 0.272277 -0.130575
v -0.039431 0.453150 -0.180662
v -0.067319 0.414408 -0.199909
v -0.077527 0.359432 -0.192221
v -0.067319 0.306211 -0.176578
v -0.039431 0.269004 -0.159320
v -0.001334 0.451794 -0.192569
v -0.001334 0.412060 -0.220532
v -0.001334 0.356721 -0.216034
v -0.001334 0.303862 -0.197201
v -0.001334 0.267648 -0.171227
v -0.001334 0.464743 -0.119530
v -0.001334 0.427819 -0.076614
v -0.001334 0.375515 -0.059766
v -0.001334 0.320756 -0.064441
v -0.001334 0.278214 -0.089386
v -0.042300 0.458551 -0.129138
v -0.067924 0.425495 -0.093286
v -0.077239 0.372831 -0.079023
v -0.067240 0.318432 -0.081112
v -0.040606 0.276872 -0.098994
v -0.001334 0.501418 -0.004584
v -0.001334 0.451657 0.045459
v -0.001334 0.385114 0.061712
v -0.001334 0.317450 0.050985
v -0.001334 0.266797 0.016152
v -0.080859 0.494581 -0.017087
v -0.112801 0.450264 0.024523
v -0.124413 0.383506 0.037529
v -0.111948 0.316057 0.030049
v -0.078747 0.265991 0.004085
v -0.001334 0.494658 0.110224
v -0.181620 0.279606 0.412262
v -0.212847 0.276302 0.627863
v -0.135699 0.345826 0.753314
v -0.001334 0.278892 0.139015
v -0.075087 0.489730 0.101171
v -0.100469 0.454100 0.133999
v -0.110858 0.392596 0.144501
v -0.099653 0.317626 0.150345
v -0.073771 0.277939 0.130768
v -0.001334 0.506559 0.100872
v -0.001334 0.458369 0.149336
v -0.001334 0.393926 0.165076
v -0.001334 0.314717 0.166415
v -0.001334 0.265662 0.132682
v -0.100499 0.499939 0.088765
v -0.131433 0.457020 0.129061
v -0.142679 0.392369 0.141657
v -0.130607 0.313368 0.146140
v -0.098454 0.264881 0.120996
v -0.140622 0.304853 0.287656
v -0.180688 0.293948 0.710119
v -0.155449 0.404063 0.279921
v -0.141700 0.485453 0.266024
v -0.211676 0.269357 0.539414
v -0.001334 0.539125 0.234562
v -0.001334 0.253594 0.272661
v -0.108111 0.532603 0.222581
v -0.106371 0.252333 0.261749
v -0.200664 0.407035 0.402328
v -0.183006 0.511576 0.384477
v -0.001334 0.343789 0.761719
v -0.001334 0.580514 0.344066
v -0.001334 0.213767 0.393002
v -0.139862 0.572137 0.328678
v -0.137627 0.212147 0.378986
v -0.232928 0.411559 0.528328
v -0.213222 0.528219 0.508409
v -0.192817 0.373481 0.727494
v -0.001334 0.605149 0.463313
v -0.001334 0.195886 0.517922
v -0.165078 0.595801 0.446140
v -0.162583 0.194079 0.502280
v -0.231553 0.400958 0.642775
v -0.214208 0.505087 0.645665
v -0.130335 0.310656 0.745630
v -0.001334 0.579256 0.619982
v -0.001334 0.216582 0.596662
v -0.171831 0.574144 0.603550
v -0.169635 0.217715 0.582850
v -0.181570 0.440512 0.735833
v -0.001334 0.489982 0.723867
v -0.001334 0.257342 0.686267
v -0.154091 0.487704 0.712943
v -0.152667 0.258931 0.677422
v -0.001334 0.307626 0.751728
v -0.130726 0.375468 0.757002
v -0.001334 0.375101 0.763543
v -0.001334 0.397345 0.751710
v -0.001334 0.294468 0.735083
v -0.118574 0.396337 0.746879
v -0.117944 0.295171 0.731172
v 0.036763 0.459154 -0.132342
v 0.064651 0.425748 -0.097620
v 0.074859 0.372526 -0.083757
v 0.064651 0.317550 -0.085298
v 0.036763 0.275551 -0.101831
v 0.052543 0.455881 -0.153546
v 0.091983 0.420078 -0.147407
v 0.106419 0.365979 -0.141246
v 0.091983 0.311880 -0.135085
v 0.052543 0.272277 -0.130575
v 0.036763 0.453150 -0.180662
v 0.064651 0.414408 -0.199909
v 0.074859 0.359432 -0.192221
v 0.064651 0.306211 -0.176578
v 0.036763 0.269004 -0.159320
v 0.039632 0.458551 -0.129138
v 0.065257 0.425495 -0.093286
v 0.074572 0.372831 -0.079023
v 0.064572 0.318432 -0.081112
v 0.037938 0.276872 -0.098994
v 0.078191 0.494581 -0.017087
v 0.110134 0.450264 0.024523
v 0.121746 0.383506 0.037529
v 0.109281 0.316057 0.030049
v 0.076079 0.265991 0.004085
v 0.178952 0.279606 0.412262
v 0.210179 0.276302 0.627863
v 0.133032 0.345826 0.753314
v 0.072419 0.489730 0.101171
v 0.097801 0.454100 0.133999
v 0.108190 0.392596 0.144501
v 0.096986 0.317626 0.150345
v 0.071104 0.277939 0.130768
v 0.097832 0.499939 0.088765
v 0.128766 0.457020 0.129061
v 0.140011 0.392369 0.141657
v 0.127940 0.313368 0.146140
v 0.095786 0.264881 0.120996
v 0.137954 0.304853 0.287656
v 0.178020 0.293948 0.710119
v 0.152781 0.404063 0.279921
v 0.139033 0.485453 0.266024
v 0.209008 0.269357 0.539414
v 0.105444 0.532603 0.222581
v 0.103703 0.252333 0.261749
v 0.197997 0.407035 0.402328
v 0.180338 0.511576 0.384477
v 0.137195 0.572137 0.328678
v 0.134959 0.212147 0.378986
v 0.230261 0.411559 0.528328
v 0.210555 0.528219 0.508409
v 0.190150 0.373481 0.727494
v 0.162410 0.595801 0.446140
v 0.159915 0.194079 0.502280
v 0.228885 0.400958 0.642775
v 0.211540 0.505087 0.645665
v 0.127668 0.310656 0.745630
v 0.169164 0.574144 0.603550
v 0.166968 0.217715 0.582850
v 0.178903 0.440512 0.735833
v 0.151424 0.487704 0.712943
v 0.150000 0.258931 0.677422
v 0.128058 0.375468 0.757002
v 0.115906 0.396337 0.746879
v 0.115277 0.295171 0.731172
v -0.096479 0.396660 -0.172336
v -0.095376 0.361336 -0.186975
v -0.094272 0.326011 -0.172336
v -0.096479 0.396660 -0.101653
v -0.095376 0.361336 -0.087014
v -0.094272 0.326011 -0.101653
v -0.093815 0.311380 -0.136994
v -0.096936 0.411291 -0.136994
v -0.108895 0.372050 -0.131231
v -0.111800 0.360822 -0.126665
v -0.108232 0.350808 -0.131231
v -0.108895 0.372050 -0.142758
v -0.111800 0.360822 -0.147323
v -0.108232 0.350808 -0.142758
v -0.107840 0.396305 -0.119324
v -0.111442 0.360834 -0.112004
v -0.105633 0.325657 -0.119324
v -0.107840 0.396305 -0.154665
v -0.111442 0.360834 -0.161985
v -0.105633 0.325657 -0.154665
v 0.093812 0.396660 -0.172336
v 0.092708 0.361336 -0.186975
v 0.091605 0.326011 -0.172336
v 0.093812 0.396660 -0.101653
v 0.092708 0.361336 -0.087014
v 0.091605 0.326011 -0.101653
v 0.091148 0.311380 -0.136994
v 0.094269 0.411291 -0.136994
v 0.106228 0.372050 -0.131231
v 0.109133 0.360822 -0.126665
v 0.105564 0.350808 -0.131231
v 0.106228 0.372050 -0.142758
v 0.109133 0.360822 -0.147323
v 0.105564 0.350808 -0.142758
v 0.105172 0.396305 -0.119324
v 0.108775 0.360834 -0.112004
v 0.102965 0.325657 -0.119324
v 0.105172 0.396305 -0.154665
v 0.108775 0.360834 -0.161985
v 0.102965 0.325657 -0.154665
v -0.064827 0.247437 -0.036930
v -0.059378 0.279514 -0.056208
v -0.064749 0.247895 -0.061612
v -0.059300 0.279972 -0.080890
v -0.040489 0.243302 -0.036930
v -0.035040 0.275380 -0.056208
v -0.040412 0.243760 -0.061612
v -0.034962 0.275838 -0.080890
v -0.068434 0.212237 -0.025749
v -0.068137 0.217307 -0.050431
v -0.049456 0.196449 -0.025749
v -0.049159 0.201519 -0.050431
v -0.096285 0.212137 -0.055255
v -0.069094 0.212550 -0.056515
v -0.095822 0.184939 -0.054168
v -0.068631 0.185352 -0.055428
v -0.065934 0.234682 -0.108269
v -0.104322 0.234100 -0.106491
v -0.065281 0.196285 -0.106734
v -0.103668 0.195703 -0.104956
v -0.077385 0.233772 -0.173366
v -0.104340 0.234047 -0.172081
v -0.076926 0.211022 -0.158855
v -0.103881 0.211297 -0.157571
v -0.086412 0.213430 -0.185771
v -0.106936 0.215219 -0.185043
v -0.086547 0.204350 -0.167265
v -0.107071 0.206139 -0.166536
v -0.101959 0.071995 -0.236479
v -0.119648 0.073671 -0.236011
v -0.101859 0.068199 -0.219115
v -0.119548 0.069874 -0.218647
v -0.113331 0.002788 -0.269453
v -0.122279 0.003636 -0.269217
v -0.113281 0.000868 -0.260670
v -0.122229 0.001715 -0.260433
v 0.062160 0.247437 -0.036930
v 0.056710 0.279514 -0.056208
v 0.062082 0.247895 -0.061612
v 0.056633 0.279972 -0.080890
v 0.037822 0.243302 -0.036930
v 0.032373 0.275380 -0.056208
v 0.037744 0.243760 -0.061612
v 0.032295 0.275838 -0.080890
v 0.065767 0.212237 -0.025749
v 0.065469 0.217307 -0.050431
v 0.046789 0.196449 -0.025749
v 0.046492 0.201519 -0.050431
v 0.093617 0.212137 -0.055255
v 0.066426 0.212550 -0.056515
v 0.093154 0.184939 -0.054168
v 0.065963 0.185352 -0.055428
v 0.063267 0.234682 -0.108269
v 0.101654 0.234100 -0.106491
v 0.062613 0.196285 -0.106734
v 0.101001 0.195703 -0.104956
v 0.074717 0.233772 -0.173366
v 0.101673 0.234047 -0.172081
v 0.074258 0.211022 -0.158855
v 0.101214 0.211297 -0.157571
v 0.083745 0.213430 -0.185771
v 0.104268 0.215219 -0.185043
v 0.083879 0.204350 -0.167265
v 0.104403 0.206139 -0.166536
v 0.099291 0.071995 -0.236479
v 0.116980 0.073671 -0.236011
v 0.099192 0.068199 -0.219115
v 0.116880 0.069874 -0.218647
v 0.110663 0.002788 -0.269453
v 0.119612 0.003636 -0.269217
v 0.110613 0.000868 -0.260670
v 0.119561 0.001715 -0.260433
v -0.099605 0.232456 0.061413
v -0.085166 0.272625 0.053629
v -0.099164 0.226406 0.026906
v -0.085166 0.276342 0.029224
v -0.065417 0.224995 0.063158
v -0.060712 0.269282 0.053120
v -0.064976 0.218945 0.028651
v -0.060712 0.272998 0.028715
v -0.128693 0.148327 0.076417
v -0.128346 0.138743 0.050554
v -0.101777 0.142797 0.078827
v -0.101430 0.133213 0.052964
v -0.175336 0.053228 0.175794
v -0.175213 0.048256 0.167321
v -0.165749 0.051439 0.176984
v -0.165626 0.046467 0.168511
v -0.188399 -0.002790 0.216949
v -0.188334 -0.005407 0.212490
v -0.183354 -0.003732 0.217575
v -0.183289 -0.006348 0.213117
v 0.096937 0.232456 0.061413
v 0.082498 0.272625 0.053629
v 0.096496 0.226406 0.026906
v 0.082498 0.276342 0.029224
v 0.062749 0.224995 0.063158
v 0.058044 0.269282 0.053120
v 0.062308 0.218945 0.028651
v 0.058044 0.272998 0.028715
v 0.126025 0.148327 0.076417
v 0.125678 0.138743 0.050554
v 0.099109 0.142797 0.078827
v 0.098762 0.133213 0.052964
v 0.172669 0.053228 0.175794
v 0.172545 0.048256 0.167321
v 0.163082 0.051439 0.176984
v 0.162958 0.046467 0.168511
v 0.185732 -0.002790 0.216949
v 0.185667 -0.005407 0.212490
v 0.180687 -0.003732 0.217575
v 0.180622 -0.006348 0.213117
v -0.092945 0.239055 0.099908
v -0.087402 0.279225 0.091294
v -0.093820 0.231843 0.070599
v -0.088118 0.273329 0.067333
v -0.062969 0.235415 0.099908
v -0.062895 0.276250 0.091294
v -0.063844 0.228203 0.070599
v -0.063611 0.270353 0.067333
v -0.111407 0.203315 0.114731
v -0.112142 0.181286 0.102227
v -0.086250 0.201217 0.116950
v -0.086985 0.179187 0.104447
v -0.161441 0.072273 0.319881
v -0.161867 0.059516 0.312640
v -0.146874 0.071057 0.321166
v -0.147299 0.058300 0.313925
v -0.167233 0.023255 0.396421
v -0.167368 0.019215 0.394128
v -0.162619 0.022870 0.396828
v -0.162754 0.018830 0.394535
v 0.090277 0.239055 0.099908
v 0.084734 0.279225 0.091294
v 0.091153 0.231843 0.070599
v 0.085450 0.273329 0.067333
v 0.060301 0.235415 0.099908
v 0.060228 0.276250 0.091294
v 0.061177 0.228203 0.070599
v 0.060944 0.270353 0.067333
v 0.108740 0.203315 0.114731
v 0.109475 0.181286 0.102227
v 0.083583 0.201217 0.116950
v 0.084318 0.179187 0.104447
v 0.158774 0.072273 0.319881
v 0.159199 0.059516 0.312640
v 0.144206 0.071057 0.321166
v 0.144632 0.058300 0.313925
v 0.164565 0.023255 0.396421
v 0.164700 0.019215 0.394128
v 0.159951 0.022870 0.396828
v 0.160086 0.018830 0.394535
v -0.186998 0.488578 0.274224
v -0.184880 0.294565 0.337168
v -0.109097 0.318350 0.005387
v -0.104022 0.284539 0.024749
v -0.162886 0.491564 0.153498
v -0.162886 0.253302 0.180916
v -0.143852 0.257374 0.102743
v -0.143852 0.461024 0.067045
v -0.191890 0.417903 0.361307
v -0.106560 0.301444 0.015068
v -0.162886 0.372433 0.167207
v -0.143852 0.359199 0.084894
v 0.184330 0.488578 0.274224
v 0.182212 0.294565 0.337168
v 0.106430 0.318350 0.005387
v 0.101354 0.284539 0.024749
v 0.160218 0.491564 0.153498
v 0.160218 0.253302 0.180916
v 0.141185 0.257374 0.102743
v 0.141185 0.461024 0.067045
v 0.189222 0.417903 0.361307
v 0.103892 0.301444 0.015068
v 0.160218 0.372433 0.167207
v 0.141185 0.359199 0.084894
vn 0.4223 0.8872 0.1856
vn 1.0000 -0.0000 -0.0000
vn -1.0000 -0.0000 -0.0000
vn 0.3772 -0.7884 0.4860
vn 0.4033 0.9101 -0.0954
vn -0.4071 0.9009 0.1505
vn -0.9157 0.4012 0.0244
vn -0.9707 0.0260 0.2390
vn -0.8708 -0.4170 0.2606
vn -0.3951 -0.8203 0.4136
vn 0.3984 -0.9113 0.1038
vn -0.5532 0.8285 -0.0870
vn -0.8776 0.4766 -0.0518
vn -0.9998 -0.0144 -0.0161
vn -0.8865 -0.4618 0.0285
vn -0.5636 -0.8220 0.0814
vn -0.3626 0.7567 -0.5441
vn -0.5698 0.3160 -0.7586
vn -0.6364 -0.1434 -0.7579
vn -0.5721 -0.4890 -0.6585
vn -0.3705 -0.8227 -0.4311
vn 0.4184 0.6508 -0.6335
vn 0.4163 0.2196 -0.8823
vn 0.4447 -0.1861 -0.8761
vn 0.4410 -0.4088 -0.7990
vn 0.4032 -0.7354 -0.5446
vn 0.5401 0.8370 -0.0878
vn -0.2923 -0.9334 0.2083
vn -0.6506 0.6897 -0.3178
vn -0.9375 0.2032 -0.2826
vn -0.9787 -0.0231 -0.2039
vn -0.9328 -0.3125 -0.1794
vn -0.5581 -0.8270 0.0673
vn 0.4220 0.8931 -0.1558
vn 0.4362 -0.8987 -0.0448
vn -0.5538 0.7761 -0.3016
vn -0.9273 0.2600 -0.2693
vn -0.9649 -0.0221 -0.2618
vn -0.9189 -0.3059 -0.2490
vn -0.5112 -0.8352 -0.2031
vn -0.0000 0.9708 0.2400
vn -0.9104 -0.2984 -0.2867
vn -0.8545 -0.4597 0.2418
vn -0.2901 -0.1726 0.9413
vn -0.0000 -0.9147 0.4042
vn -0.2698 0.8672 0.4186
vn -0.7844 0.5228 0.3338
vn -0.8277 0.0794 0.5555
vn -0.7833 -0.4249 0.4538
vn -0.2566 -0.7773 0.5744
vn 0.3959 0.8274 0.3983
vn 0.3825 -0.7725 0.5069
vn -0.4857 0.8485 0.2101
vn -0.7054 0.4801 0.5214
vn -0.8117 0.0758 0.5791
vn -0.7200 -0.3481 0.6004
vn -0.4480 -0.8251 0.3443
vn -0.9025 -0.2775 -0.3295
vn -0.6097 -0.5095 0.6072
vn -0.9438 -0.0295 -0.3291
vn -0.9150 0.1993 -0.3507
vn -0.9277 -0.3645 -0.0806
vn -0.0000 0.9382 -0.3461
vn -0.0000 -0.9672 -0.2541
vn -0.5341 0.7354 -0.4170
vn -0.4921 -0.8009 -0.3411
vn -0.9554 -0.0273 -0.2941
vn -0.9236 0.2359 -0.3022
vn -0.0000 -0.1658 0.9862
vn -0.0000 0.9618 -0.2736
vn -0.0000 -0.9748 -0.2230
vn -0.5368 0.7621 -0.3620
vn -0.4804 -0.8191 -0.3134
vn -0.9936 0.0018 -0.1129
vn -0.9295 0.3603 -0.0790
vn -0.7369 -0.0913 0.6698
vn -0.0000 0.9999 -0.0162
vn -0.0000 -0.9970 0.0772
vn -0.5309 0.8392 -0.1180
vn -0.4810 -0.8759 -0.0390
vn -0.9762 -0.0041 0.2166
vn -0.8257 0.4399 0.3531
vn -0.2344 -0.4853 0.8423
vn -0.0000 0.9072 0.4206
vn -0.0000 -0.9395 0.3427
vn -0.4395 0.8379 0.3235
vn -0.4421 -0.8576 0.2629
vn -0.4826 0.3118 0.8184
vn -0.0000 0.5565 0.8308
vn -0.0000 -0.8632 0.5048
vn -0.2190 0.6058 0.7649
vn -0.2632 -0.8315 0.4893
vn -0.0000 -0.5153 0.8570
vn -0.1666 0.1201 0.9787
vn -0.0000 0.1944 0.9809
vn -0.0000 0.3874 0.9219
vn -0.0000 -0.7760 0.6307
vn 0.0076 0.3876 0.9218
vn -0.0910 -0.7692 0.6325
vn 0.4071 0.9009 0.1505
vn 0.9157 0.4012 0.0244
vn 0.9707 0.0260 0.2390
vn 0.8708 -0.4170 0.2606
vn 0.3951 -0.8203 0.4136
vn 0.5532 0.8285 -0.0870
vn 0.8776 0.4766 -0.0518
vn 0.9998 -0.0144 -0.0161
vn 0.8865 -0.4618 0.0285
vn 0.5636 -0.8220 0.0814
vn 0.3626 0.7567 -0.5441
vn 0.5698 0.3160 -0.7586
vn 0.6364 -0.1434 -0.7579
vn 0.5721 -0.4890 -0.6585
vn 0.3705 -0.8227 -0.4311
vn 0.6506 0.6897 -0.3178
vn 0.9375 0.2032 -0.2826
vn 0.9787 -0.0231 -0.2039
vn 0.9328 -0.3125 -0.1794
vn 0.5581 -0.8270 0.0673
vn 0.5538 0.7761 -0.3016
vn 0.9273 0.2600 -0.2693
vn 0.9649 -0.0221 -0.2618
vn 0.9189 -0.3059 -0.2490
vn 0.5112 -0.8352 -0.2031
vn 0.9104 -0.2984 -0.2867
vn 0.8545 -0.4597 0.2418
vn 0.2901 -0.1726 0.9413
vn 0.2698 0.8672 0.4186
vn 0.7844 0.5228 0.3338
vn 0.8277 0.0794 0.5555
vn 0.7833 -0.4249 0.4538
vn 0.2566 -0.7773 0.5744
vn 0.4857 0.8485 0.2101
vn 0.7054 0.4801 0.5214
vn 0.8117 0.0758 0.5791
vn 0.7200 -0.3481 0.6004
vn 0.4480 -0.8251 0.3443
vn 0.9025 -0.2775 -0.3295
vn 0.6097 -0.5095 0.6072
vn 0.9438 -0.0295 -0.3291
vn 0.9150 0.1993 -0.3507
vn 0.9277 -0.3645 -0.0806
vn 0.5341 0.7354 -0.4170
vn 0.4921 -0.8009 -0.3411
vn 0.9554 -0.0273 -0.2941
vn 0.9236 0.2359 -0.3022
vn 0.5368 0.7621 -0.3620
vn 0.4804 -0.8191 -0.3134
vn 0.9936 0.0018 -0.1129
vn 0.9295 0.3603 -0.0790
vn 0.7369 -0.0913 0.6698
vn 0.5309 0.8392 -0.1180
vn 0.4810 -0.8759 -0.0390
vn 0.9762 -0.0041 0.2166
vn 0.8257 0.4399 0.3531
vn 0.2344 -0.4853 0.8423
vn 0.4395 0.8379 0.3235
vn 0.4421 -0.8576 0.2629
vn 0.4826 0.3118 0.8184
vn 0.2190 0.6058 0.7649
vn 0.2632 -0.8315 0.4893
vn 0.1666 0.1201 0.9787
vn -0.0076 0.3876 0.9218
vn 0.0910 -0.7692 0.6325
vn 0.2594 0.5989 -0.7576
vn 0.2338 0.0073 -0.9722
vn 0.2963 -0.5816 -0.7576
vn 0.2594 0.5989 0.7576
vn 0.2338 0.0073 0.9722
vn 0.2963 -0.5816 0.7576
vn 0.3454 -0.9385 -0.0000
vn 0.2861 0.9582 -0.0000
vn -0.9903 0.1374 -0.0218
vn -0.9985 -0.0359 -0.0404
vn -0.9779 -0.2076 -0.0243
vn -0.9903 0.1374 0.0218
vn -0.9985 -0.0359 0.0404
vn -0.9779 -0.2076 0.0243
vn -0.8619 0.4397 0.2526
vn -0.9594 -0.0303 0.2803
vn -0.8332 -0.4922 0.2521
vn -0.8619 0.4397 -0.2526
vn -0.9594 -0.0303 -0.2803
vn -0.8332 -0.4922 -0.2521
vn -0.2594 0.5989 -0.7576
vn -0.2338 0.0073 -0.9722
vn -0.2963 -0.5816 -0.7576
vn -0.2594 0.5989 0.7576
vn -0.2338 0.0073 0.9722
vn -0.2963 -0.5816 0.7576
vn -0.3454 -0.9385 -0.0000
vn -0.2861 0.9582 -0.0000
vn 0.9903 0.1374 -0.0218
vn 0.9985 -0.0359 -0.0404
vn 0.9779 -0.2076 -0.0243
vn 0.9903 0.1374 0.0218
vn 0.9985 -0.0359 0.0404
vn 0.9779 -0.2076 0.0243
vn 0.8619 0.4397 0.2526
vn 0.9594 -0.0303 0.2803
vn 0.8332 -0.4922 0.2521
vn 0.8619 0.4397 -0.2526
vn 0.9594 -0.0303 -0.2803
vn 0.8332 -0.4922 -0.2521
vn -0.6279 0.3725 0.6834
vn -0.4891 0.7762 0.3979
vn -0.7818 -0.1551 -0.6040
vn -0.4757 0.5059 -0.7196
vn 0.7310 0.1506 0.6655
vn 0.7180 0.5711 0.3979
vn 0.6698 -0.4012 -0.6248
vn 0.6161 0.3204 -0.7196
vn -0.4935 0.2047 0.8453
vn -0.5272 0.4646 -0.7114
vn 0.3911 -0.4874 0.7807
vn 0.6980 -0.4940 -0.5183
vn -0.7162 0.4714 0.5147
vn 0.5569 0.7864 -0.2672
vn -0.5660 -0.7647 0.3080
vn 0.5359 -0.8275 -0.1677
vn 0.6958 0.7132 0.0853
vn -0.6806 0.7091 0.1845
vn 0.7236 -0.6624 -0.1940
vn -0.7148 -0.6911 -0.1069
vn 0.6155 0.6017 -0.5091
vn -0.5997 0.7241 -0.3407
vn 0.7607 -0.6162 -0.2040
vn -0.7962 -0.5843 0.1573
vn 0.5971 0.1920 -0.7788
vn -0.6869 0.3976 -0.6083
vn 0.6556 -0.6381 0.4038
vn -0.7989 -0.2692 0.5379
vn 0.7253 0.1750 -0.6658
vn -0.7187 0.3033 -0.6257
vn 0.6739 -0.3977 0.6227
vn -0.6990 -0.2742 0.6605
vn 0.4939 -0.4226 -0.7599
vn -0.6003 -0.3213 -0.7324
vn 0.5131 -0.8053 0.2971
vn -0.6348 -0.7002 0.3268
vn 0.6279 0.3725 0.6834
vn 0.4891 0.7762 0.3979
vn 0.7818 -0.1551 -0.6040
vn 0.4757 0.5059 -0.7196
vn -0.7310 0.1506 0.6655
vn -0.7180 0.5711 0.3979
vn -0.6698 -0.4012 -0.6248
vn -0.6161 0.3204 -0.7196
vn 0.4935 0.2047 0.8453
vn 0.5272 0.4646 -0.7114
vn -0.3911 -0.4874 0.7807
vn -0.6980 -0.4940 -0.5183
vn 0.7162 0.4714 0.5147
vn -0.5569 0.7864 -0.2672
vn 0.5660 -0.7647 0.3080
vn -0.5359 -0.8275 -0.1677
vn -0.6958 0.7132 0.0853
vn 0.6806 0.7091 0.1845
vn -0.7236 -0.6624 -0.1940
vn 0.7148 -0.6911 -0.1069
vn -0.6155 0.6017 -0.5091
vn 0.5997 0.7241 -0.3407
vn -0.7607 -0.6162 -0.2040
vn 0.7962 -0.5843 0.1573
vn -0.5971 0.1920 -0.7788
vn 0.6869 0.3976 -0.6083
vn -0.6556 -0.6381 0.4038
vn 0.7989 -0.2692 0.5379
vn -0.7253 0.1750 -0.6658
vn 0.7187 0.3033 -0.6257
vn -0.6739 -0.3977 0.6227
vn 0.6990 -0.2742 0.6605
vn -0.4939 -0.4226 -0.7599
vn 0.6003 -0.3213 -0.7324
vn -0.5131 -0.8053 0.2971
vn 0.6348 -0.7002 0.3268
vn -0.6734 0.3498 0.6512
vn -0.4452 0.7037 0.5537
vn -0.6271 0.1029 -0.7721
vn -0.4152 0.7292 -0.5439
vn 0.7064 -0.0408 0.7067
vn 0.6596 0.5114 0.5508
vn 0.7058 -0.2592 -0.6593
vn 0.6423 0.5541 -0.5295
vn -0.7117 0.5391 0.4504
vn -0.6551 -0.2397 -0.7165
vn 0.7250 -0.0414 0.6876
vn 0.5549 -0.6290 -0.5445
vn -0.6499 0.6121 0.4506
vn -0.7638 -0.2963 -0.5735
vn 0.6688 0.2945 0.6826
vn 0.5970 -0.7155 -0.3628
vn -0.6774 -0.0583 0.7333
vn -0.6918 -0.6902 -0.2121
vn 0.4197 -0.2625 0.8689
vn 0.4317 -0.8991 -0.0730
vn 0.6734 0.3498 0.6512
vn 0.4452 0.7037 0.5537
vn 0.6271 0.1029 -0.7721
vn 0.4152 0.7292 -0.5439
vn -0.7064 -0.0408 0.7067
vn -0.6596 0.5114 0.5508
vn -0.7058 -0.2592 -0.6593
vn -0.6423 0.5541 -0.5295
vn 0.7117 0.5391 0.4504
vn 0.6551 -0.2397 -0.7165
vn -0.7250 -0.0414 0.6876
vn -0.5549 -0.6290 -0.5445
vn 0.6499 0.6121 0.4506
vn 0.7638 -0.2963 -0.5735
vn -0.6688 0.2945 0.6826
vn -0.5970 -0.7155 -0.3628
vn 0.6774 -0.0583 0.7333
vn 0.6918 -0.6902 -0.2121
vn -0.4197 -0.2625 0.8689
vn -0.4317 -0.8991 -0.0730
vn -0.6686 0.3931 0.6312
vn -0.4824 0.7610 0.4337
vn -0.6248 -0.1181 -0.7718
vn -0.5193 0.5448 -0.6584
vn 0.7548 0.0264 0.6555
vn 0.6217 0.6523 0.4336
vn 0.6856 -0.3547 -0.6357
vn 0.6035 0.4347 -0.6685
vn -0.7479 0.5916 0.3011
vn -0.6674 -0.4168 -0.6171
vn 0.6931 0.2151 0.6880
vn 0.5968 -0.6916 -0.4069
vn -0.7003 0.6474 0.3006
vn -0.7301 -0.5507 -0.4046
vn 0.6977 0.5107 0.5024
vn 0.6527 -0.7219 -0.2299
vn -0.6129 0.2400 0.7528
vn -0.6455 -0.7377 0.1979
vn 0.5036 0.1469 0.8513
vn 0.4710 -0.8308 0.2964
vn 0.6686 0.3931 0.6312
vn 0.4824 0.7610 0.4337
vn 0.6248 -0.1181 -0.7718
vn 0.5193 0.5448 -0.6584
vn -0.7548 0.0264 0.6555
vn -0.6217 0.6523 0.4336
vn -0.6856 -0.3547 -0.6357
vn -0.6035 0.4347 -0.6685
vn 0.7479 0.5916 0.3011
vn 0.6674 -0.4168 -0.6171
vn -0.6931 0.2151 0.6880
vn -0.5968 -0.6916 -0.4069
vn 0.7003 0.6474 0.3006
vn 0.7301 -0.5507 -0.4046
vn -0.6977 0.5107 0.5024
vn -0.6527 -0.7219 -0.2299
vn 0.6129 0.2400 0.7528
vn 0.6455 -0.7377 0.1979
vn -0.5036 0.1469 0.8513
vn -0.4710 -0.8308 0.2964
vn 0.9856 0.0587 0.1584
vn 0.9901 0.0227 0.1385
vn 0.9297 0.1020 0.3540
vn 0.8901 0.1209 0.4394
vn 0.9818 0.0450 0.1847
vn 0.9826 0.0277 0.1836
vn 0.9477 0.0671 0.3120
vn 0.9669 0.0493 0.2503
vn 0.9883 0.0387 0.1474
vn 0.9083 0.1128 0.4028
vn 0.9822 0.0355 0.1842
vn 0.9502 0.0704 0.3037
vn -0.9856 0.0587 0.1584
vn -0.9901 0.0227 0.1385
vn -0.9297 0.1020 0.3540
vn -0.8901 0.1209 0.4394
vn -0.9818 0.0450 0.1847
vn -0.9826 0.0277 0.1836
vn -0.9477 0.0671 0.3120
vn -0.9669 0.0493 0.2503
vn -0.9883 0.0387 0.1474
vn -0.9083 0.1128 0.4028
vn -0.9822 0.0355 0.1842
vn -0.9502 0.0704 0.3037
vt 0.789408 0.145505
vt 0.788873 0.129464
vt 0.787146 0.120073
vt 0.784659 0.113667
vt 0.782084 0.112785
vt 0.780293 0.124091
vt 0.779327 0.139358
vt 0.779794 0.151907
vt 0.781605 0.167965
vt 0.784088 0.173690
vt 0.786645 0.171039
vt 0.788593 0.160723
vt 0.548189 0.751392
vt 0.547703 0.778396
vt 0.547554 0.770135
vt 0.779827 0.152243
vt 0.781618 0.168108
vt 0.547627 0.778765
vt 0.547524 0.772098
vt 0.786606 0.171142
vt 0.788533 0.160949
vt 0.537697 0.772465
vt 0.541497 0.782301
vt 0.541571 0.785587
vt 0.537800 0.775476
vt 0.534615 0.756468
vt 0.533372 0.733428
vt 0.534791 0.748225
vt 0.547196 0.750189
vt 0.545105 0.781448
vt 0.540781 0.742410
vt 0.544485 0.746900
vt 0.534584 0.733515
vt 0.537076 0.737918
vt 0.540195 0.707042
vt 0.544030 0.718113
vt 0.534222 0.714698
vt 0.536402 0.701487
vt 0.546838 0.730242
vt 0.534074 0.706436
vt 0.536145 0.687177
vt 0.543773 0.703803
vt 0.546690 0.721980
vt 0.539898 0.690518
vt 0.541779 0.798946
vt 0.537980 0.787042
vt 0.538843 0.871708
vt 0.543572 0.883256
vt 0.534895 0.750452
vt 0.538516 0.857177
vt 0.534751 0.828111
vt 0.545130 0.784351
vt 0.550305 0.843713
vt 0.547510 0.861543
vt 0.534677 0.757099
vt 0.534548 0.836765
vt 0.784075 0.173762
vt 0.780062 0.147254
vt 0.781676 0.160037
vt 0.781695 0.161692
vt 0.780096 0.148472
vt 0.552716 0.924892
vt 0.550009 0.942159
vt 0.780737 0.215193
vt 0.778337 0.196794
vt 0.778293 0.237234
vt 0.780617 0.255052
vt 0.789257 0.201169
vt 0.786972 0.215270
vt 0.787311 0.259409
vt 0.789524 0.245752
vt 0.543195 0.866471
vt 0.544690 0.938735
vt 0.550493 0.852089
vt 0.545310 0.795917
vt 0.547837 0.876075
vt 0.780787 0.249118
vt 0.783659 0.252203
vt 0.783376 0.304208
vt 0.779575 0.300125
vt 0.788951 0.245206
vt 0.788922 0.248378
vt 0.790341 0.299145
vt 0.790380 0.294949
vt 0.779074 0.237093
vt 0.777309 0.284213
vt 0.787146 0.253302
vt 0.787991 0.305662
vt 0.540159 0.929735
vt 0.536513 0.901587
vt 0.783853 0.220403
vt 0.783635 0.260098
vt 0.552898 0.933003
vt 0.536316 0.909967
vt 0.778578 0.232500
vt 0.780642 0.247272
vt 0.783664 0.251111
vt 0.787336 0.251628
vt 0.789539 0.241268
vt 0.778862 0.240633
vt 0.777028 0.288897
vt 0.775670 0.325420
vt 0.775310 0.331438
vt 0.783463 0.351103
vt 0.778582 0.345858
vt 0.792410 0.344601
vt 0.792459 0.339211
vt 0.789392 0.352971
vt 0.790101 0.401482
vt 0.783485 0.399398
vt 0.774789 0.370738
vt 0.774387 0.377452
vt 0.778038 0.393545
vt 0.793469 0.392141
vt 0.793524 0.386127
vt 0.779363 0.445727
vt 0.776083 0.430656
vt 0.792576 0.417323
vt 0.789941 0.435440
vt 0.784187 0.443040
vt 0.775876 0.437023
vt 0.792654 0.422592
vt 0.790928 0.457507
vt 0.790838 0.454145
vt 0.782524 0.479257
vt 0.780293 0.471213
vt 0.789274 0.467191
vt 0.785618 0.475048
vt 0.786948 0.484511
vt 0.785580 0.486372
vt 0.789296 0.476754
vt 0.789256 0.475267
vt 0.784593 0.482815
vt 0.788565 0.481036
vt 0.780207 0.475429
vt 0.788716 0.483324
vt 0.787058 0.487696
vt 0.785609 0.488870
vt 0.784555 0.484679
vt 0.455798 0.115415
vt 0.450683 0.135532
vt 0.448564 0.184100
vt 0.450683 0.232668
vt 0.455798 0.252785
vt 0.460914 0.232668
vt 0.463033 0.184100
vt 0.460914 0.135532
vt 0.458356 0.232179
vt 0.459416 0.183410
vt 0.458356 0.135044
vt 0.453241 0.135044
vt 0.948442 0.258119
vt 0.945524 0.265293
vt 0.938159 0.265293
vt 0.935242 0.258119
vt 0.945524 0.251720
vt 0.938159 0.251720
vt 0.453241 0.232179
vt 0.452181 0.183410
vt 0.456633 0.198831
vt 0.457293 0.183395
vt 0.456633 0.169626
vt 0.454303 0.183395
vt 0.454964 0.198831
vt 0.454964 0.169626
vt 0.947679 0.468519
vt 0.946423 0.487756
vt 0.944815 0.488031
vt 0.946071 0.468793
vt 0.944815 0.485551
vt 0.946071 0.466314
vt 0.946423 0.485277
vt 0.947679 0.466039
vt 0.948407 0.447408
vt 0.948407 0.437940
vt 0.946799 0.440981
vt 0.946556 0.431038
vt 0.946474 0.431285
vt 0.946799 0.450449
vt 0.946485 0.447349
vt 0.943147 0.460521
vt 0.943247 0.437493
vt 0.946403 0.447596
vt 0.943132 0.437842
vt 0.939820 0.446845
vt 0.939736 0.446680
vt 0.943031 0.460870
vt 0.938875 0.460489
vt 0.938791 0.460323
vt 0.937983 0.448124
vt 0.938030 0.449198
vt 0.939236 0.443752
vt 0.934710 0.364308
vt 0.935841 0.362031
vt 0.939188 0.442679
vt 0.935811 0.361026
vt 0.933119 0.321154
vt 0.933104 0.320646
vt 0.934680 0.363303
vt 0.932532 0.321798
vt 0.932547 0.322306
vt 0.954085 0.459534
vt 0.953578 0.483625
vt 0.951988 0.485854
vt 0.951837 0.455906
vt 0.951955 0.483848
vt 0.951951 0.451431
vt 0.953545 0.481620
vt 0.954199 0.455060
vt 0.955219 0.405764
vt 0.953535 0.400016
vt 0.961613 0.350975
vt 0.961062 0.347993
vt 0.955062 0.409081
vt 0.953378 0.403333
vt 0.961536 0.352048
vt 0.964217 0.318452
vt 0.964258 0.317888
vt 0.960984 0.349066
vt 0.963926 0.316883
vt 0.963967 0.316318
vt 0.956593 0.463492
vt 0.956031 0.487583
vt 0.954471 0.484047
vt 0.954683 0.459167
vt 0.954471 0.482263
vt 0.954683 0.456984
vt 0.956031 0.485799
vt 0.956593 0.461309
vt 0.957703 0.440800
vt 0.956888 0.427588
vt 0.957558 0.442058
vt 0.970922 0.363469
vt 0.971006 0.362740
vt 0.956744 0.428847
vt 0.970534 0.355090
vt 0.975935 0.333841
vt 0.975785 0.331418
vt 0.970450 0.355819
vt 0.975759 0.331649
vt 0.975908 0.334072
vt 0.542844 0.803679
vt 0.559094 0.798934
vt 0.551537 0.770362
vt 0.548544 0.768413
vt 0.546089 0.923231
vt 0.563759 0.898839
vt 0.563152 0.830305
vt 0.544455 0.838779
vt 0.525758 0.847254
vt 0.526593 0.808425
vt 0.531523 0.896091
vt 0.545550 0.766464
s 1
usemtl Material.001
f 12/1/11 27/2/26 26/3/25
f 12/1/11 26/3/25 25/4/24
f 12/1/11 25/4/24 24/5/23
f 12/1/11 24/5/23 23/6/22
f 12/1/11 23/6/22 6/7/5
f 12/1/11 6/7/5 1/8/1
f 12/1/11 1/8/1 2/9/2
f 12/1/11 2/9/2 3/10/2
f 12/1/11 3/10/2 4/11/3
f 12/1/11 4/11/3 5/12/4
f 12/13/11 5/14/4 11/15/10
f 2/9/2 1/8/1 28/16/27
f 2/9/2 28/16/27 29/17/2
f 11/15/10 5/14/4 32/18/28
f 11/15/10 32/18/28 37/19/33
f 5/12/4 4/11/3 31/20/2
f 5/12/4 31/20/2 32/21/28
f 8/22/7 9/23/8 35/24/31
f 8/22/7 35/24/31 34/25/30
f 1/26/1 6/27/5 7/28/6
f 12/13/11 11/15/10 17/29/16
f 10/30/9 9/23/8 15/31/14
f 10/30/9 15/31/14 16/32/15
f 8/22/7 7/28/6 13/33/12
f 8/22/7 13/33/12 14/34/13
f 11/15/10 10/30/9 16/32/15
f 11/15/10 16/32/15 17/29/16
f 9/23/8 8/22/7 14/34/13
f 9/23/8 14/34/13 15/31/14
f 7/28/6 6/27/5 13/33/12
f 16/32/15 15/31/14 20/35/19
f 16/32/15 20/35/19 21/36/20
f 14/34/13 13/33/12 18/37/17
f 14/34/13 18/37/17 19/38/18
f 17/29/16 16/32/15 21/36/20
f 17/29/16 21/36/20 22/39/21
f 15/31/14 14/34/13 19/38/18
f 15/31/14 19/38/18 20/35/19
f 13/33/12 6/27/5 18/37/17
f 12/13/11 17/29/16 22/39/21
f 19/38/18 18/37/17 23/40/22
f 19/38/18 23/40/22 24/41/23
f 22/39/21 21/36/20 26/42/25
f 22/39/21 26/42/25 27/43/26
f 20/35/19 19/38/18 24/41/23
f 20/35/19 24/41/23 25/44/24
f 18/37/17 6/27/5 23/40/22
f 12/13/11 22/39/21 27/43/26
f 21/36/20 20/35/19 25/44/24
f 21/36/20 25/44/24 26/42/25
f 30/45/2 29/46/2 39/47/2
f 30/45/2 39/47/2 40/48/2
f 33/49/29 34/25/30 44/50/37
f 33/49/29 44/50/37 43/51/36
f 36/52/32 37/19/33 47/53/40
f 36/52/32 47/53/40 46/54/39
f 29/46/2 28/55/27 38/56/34
f 29/46/2 38/56/34 39/47/2
f 9/23/8 10/30/9 36/52/32
f 9/23/8 36/52/32 35/24/31
f 1/26/1 7/28/6 33/49/29
f 1/26/1 33/49/29 28/55/27
f 3/10/2 2/9/2 29/17/2
f 3/10/2 29/17/2 30/57/2
f 10/30/9 11/15/10 37/19/33
f 10/30/9 37/19/33 36/52/32
f 7/58/6 8/59/7 34/60/30
f 7/58/6 34/60/30 33/61/29
f 4/11/3 3/10/2 30/57/2
f 4/11/3 30/57/2 31/20/2
f 46/54/39 47/53/40 67/62/57
f 46/54/39 67/62/57 66/63/56
f 39/64/2 38/65/34 58/66/51
f 39/64/2 58/66/51 59/67/2
f 42/68/35 41/69/2 61/70/2
f 42/68/35 61/70/2 62/71/52
f 45/72/38 46/54/39 66/63/56
f 45/72/38 66/63/56 65/73/55
f 37/19/33 32/18/28 42/74/35
f 37/19/33 42/74/35 47/53/40
f 34/25/30 35/24/31 45/72/38
f 34/25/30 45/72/38 44/50/37
f 28/55/27 33/49/29 43/51/36
f 28/55/27 43/51/36 38/56/34
f 31/75/2 30/45/2 40/48/2
f 31/75/2 40/48/2 41/76/2
f 35/24/31 36/52/32 46/54/39
f 35/24/31 46/54/39 45/72/38
f 32/18/28 31/75/2 41/76/2
f 32/18/28 41/76/2 42/74/35
f 54/77/47 55/78/48 70/79/60
f 54/77/47 70/79/60 71/80/61
f 57/81/50 52/82/45 74/83/64
f 57/81/50 74/83/64 76/84/66
f 53/85/46 54/77/47 71/80/61
f 53/85/46 71/80/61 75/86/65
f 56/87/49 57/81/50 76/84/66
f 56/87/49 76/84/66 68/88/58
f 43/51/36 44/50/37 64/89/54
f 43/51/36 64/89/54 63/90/53
f 40/91/2 39/64/2 59/67/2
f 40/91/2 59/67/2 60/92/2
f 47/53/40 42/74/35 62/93/52
f 47/53/40 62/93/52 67/62/57
f 44/50/37 45/72/38 65/73/55
f 44/50/37 65/73/55 64/89/54
f 38/56/34 43/51/36 63/90/53
f 38/56/34 63/90/53 58/94/51
f 41/69/2 40/91/2 60/92/2
f 41/69/2 60/92/2 61/70/2
f 54/77/47 53/85/46 63/95/53
f 54/77/47 63/95/53 64/96/54
f 55/78/48 54/77/47 64/96/54
f 55/78/48 64/96/54 65/97/55
f 56/87/49 55/78/48 65/97/55
f 56/87/49 65/97/55 66/98/56
f 57/81/50 56/87/49 66/98/56
f 57/81/50 66/98/56 67/99/57
f 52/82/45 57/81/50 67/99/57
f 52/82/45 67/99/57 62/71/52
f 53/85/46 48/100/41 58/66/51
f 53/85/46 58/66/51 63/95/53
f 73/101/63 75/86/65 82/102/72
f 73/101/63 82/102/72 80/103/70
f 71/80/61 70/79/60 77/104/67
f 71/80/61 77/104/67 78/105/68
f 76/84/66 74/83/64 81/106/71
f 76/84/66 81/106/71 83/107/73
f 75/86/65 71/80/61 78/105/68
f 75/86/65 78/105/68 82/102/72
f 48/100/41 53/85/46 75/86/65
f 48/100/41 75/86/65 73/101/63
f 55/78/48 56/87/49 68/88/58
f 55/78/48 68/88/58 70/79/60
f 77/104/67 49/108/42 72/109/62
f 77/104/67 72/109/62 84/110/74
f 80/103/70 82/102/72 89/111/79
f 80/103/70 89/111/79 87/112/77
f 78/105/68 77/104/67 84/110/74
f 78/105/68 84/110/74 85/113/75
f 83/107/73 81/106/71 88/114/78
f 83/107/73 88/114/78 90/115/80
f 70/79/60 68/88/58 49/108/42
f 70/79/60 49/108/42 77/104/67
f 68/88/58 76/84/66 83/107/73
f 68/88/58 83/107/73 49/108/42
f 89/111/79 85/113/75 92/116/82
f 89/111/79 92/116/82 96/117/86
f 72/109/62 90/115/80 97/118/87
f 72/109/62 97/118/87 50/119/43
f 84/110/74 72/109/62 50/119/43
f 84/110/74 50/119/43 91/120/81
f 87/112/77 89/111/79 96/117/86
f 87/112/77 96/117/86 94/121/84
f 49/108/42 83/107/73 90/115/80
f 49/108/42 90/115/80 72/109/62
f 82/102/72 78/105/68 85/113/75
f 82/102/72 85/113/75 89/111/79
f 97/118/87 95/122/85 100/123/90
f 97/118/87 100/123/90 102/124/92
f 96/117/86 92/116/82 98/125/88
f 96/117/86 98/125/88 101/126/91
f 50/119/43 97/118/87 102/124/92
f 50/119/43 102/124/92 69/127/59
f 91/120/81 50/119/43 69/127/59
f 91/120/81 69/127/59 86/128/76
f 90/115/80 88/114/78 95/122/85
f 90/115/80 95/122/85 97/118/87
f 85/113/75 84/110/74 91/120/81
f 85/113/75 91/120/81 92/116/82
f 98/125/88 86/128/76 51/129/44
f 98/125/88 51/129/44 104/130/94
f 102/124/92 100/123/90 107/131/97
f 102/124/92 107/131/97 109/132/99
f 101/126/91 98/125/88 104/130/94
f 101/126/91 104/130/94 108/133/98
f 69/127/59 102/124/92 109/132/99
f 69/127/59 109/132/99 93/134/83
f 92/116/82 91/120/81 86/128/76
f 92/116/82 86/128/76 98/125/88
f 94/121/84 96/117/86 101/126/91
f 94/121/84 101/126/91 99/135/89
f 103/136/93 79/137/69 51/129/44
f 103/136/93 51/129/44 93/134/83
f 105/138/95 106/139/96 108/133/98
f 105/138/95 108/133/98 104/130/94
f 107/131/97 103/136/93 93/134/83
f 107/131/97 93/134/83 109/132/99
f 79/137/69 105/138/95 104/130/94
f 79/137/69 104/130/94 51/129/44
f 99/135/89 101/126/91 108/133/98
f 99/135/89 108/133/98 106/139/96
f 86/128/76 69/127/59 93/134/83
f 86/128/76 93/134/83 51/129/44
f 12/13/11 114/15/104 5/14/4
f 114/15/104 129/19/119 32/18/28
f 114/15/104 32/18/28 5/14/4
f 111/22/101 126/25/116 127/24/117
f 111/22/101 127/24/117 112/23/102
f 1/26/1 110/28/100 6/27/5
f 12/13/11 119/29/109 114/15/104
f 113/30/103 118/32/108 117/31/107
f 113/30/103 117/31/107 112/23/102
f 111/22/101 116/34/106 115/33/105
f 111/22/101 115/33/105 110/28/100
f 114/15/104 119/29/109 118/32/108
f 114/15/104 118/32/108 113/30/103
f 112/23/102 117/31/107 116/34/106
f 112/23/102 116/34/106 111/22/101
f 110/28/100 115/33/105 6/27/5
f 118/32/108 123/36/113 122/35/112
f 118/32/108 122/35/112 117/31/107
f 116/34/106 121/38/111 120/37/110
f 116/34/106 120/37/110 115/33/105
f 119/29/109 124/39/114 123/36/113
f 119/29/109 123/36/113 118/32/108
f 117/31/107 122/35/112 121/38/111
f 117/31/107 121/38/111 116/34/106
f 115/33/105 120/37/110 6/27/5
f 12/13/11 124/39/114 119/29/109
f 121/38/111 24/41/23 23/40/22
f 121/38/111 23/40/22 120/37/110
f 124/39/114 27/43/26 26/42/25
f 124/39/114 26/42/25 123/36/113
f 122/35/112 25/44/24 24/41/23
f 122/35/112 24/41/23 121/38/111
f 120/37/110 23/40/22 6/27/5
f 12/13/11 27/43/26 124/39/114
f 123/36/113 26/42/25 25/44/24
f 123/36/113 25/44/24 122/35/112
f 125/49/115 130/51/120 131/50/121
f 125/49/115 131/50/121 126/25/116
f 128/52/118 133/54/123 134/53/124
f 128/52/118 134/53/124 129/19/119
f 112/23/102 127/24/117 128/52/118
f 112/23/102 128/52/118 113/30/103
f 1/26/1 28/55/27 125/49/115
f 1/26/1 125/49/115 110/28/100
f 113/30/103 128/52/118 129/19/119
f 113/30/103 129/19/119 114/15/104
f 110/58/100 125/61/115 126/60/116
f 110/58/100 126/60/116 111/59/101
f 133/54/123 146/63/136 147/62/137
f 133/54/123 147/62/137 134/53/124
f 132/72/122 145/73/135 146/63/136
f 132/72/122 146/63/136 133/54/123
f 129/19/119 134/53/124 42/74/35
f 129/19/119 42/74/35 32/18/28
f 126/25/116 131/50/121 132/72/122
f 126/25/116 132/72/122 127/24/117
f 28/55/27 38/56/34 130/51/120
f 28/55/27 130/51/120 125/49/115
f 127/24/117 132/72/122 133/54/123
f 127/24/117 133/54/123 128/52/118
f 139/77/129 151/80/141 150/79/140
f 139/77/129 150/79/140 140/78/130
f 142/81/132 154/84/144 74/83/64
f 142/81/132 74/83/64 52/82/45
f 138/85/128 153/86/143 151/80/141
f 138/85/128 151/80/141 139/77/129
f 141/87/131 148/88/138 154/84/144
f 141/87/131 154/84/144 142/81/132
f 130/51/120 143/90/133 144/89/134
f 130/51/120 144/89/134 131/50/121
f 134/53/124 147/62/137 62/93/52
f 134/53/124 62/93/52 42/74/35
f 131/50/121 144/89/134 145/73/135
f 131/50/121 145/73/135 132/72/122
f 38/56/34 58/94/51 143/90/133
f 38/56/34 143/90/133 130/51/120
f 139/77/129 144/96/134 143/95/133
f 139/77/129 143/95/133 138/85/128
f 140/78/130 145/97/135 144/96/134
f 140/78/130 144/96/134 139/77/129
f 141/87/131 146/98/136 145/97/135
f 141/87/131 145/97/135 140/78/130
f 142/81/132 147/99/137 146/98/136
f 142/81/132 146/98/136 141/87/131
f 52/82/45 62/71/52 147/99/137
f 52/82/45 147/99/137 142/81/132
f 138/85/128 143/95/133 58/66/51
f 138/85/128 58/66/51 48/100/41
f 73/101/63 80/103/70 157/102/147
f 73/101/63 157/102/147 153/86/143
f 151/80/141 156/105/146 155/104/145
f 151/80/141 155/104/145 150/79/140
f 154/84/144 158/107/148 81/106/71
f 154/84/144 81/106/71 74/83/64
f 153/86/143 157/102/147 156/105/146
f 153/86/143 156/105/146 151/80/141
f 48/100/41 73/101/63 153/86/143
f 48/100/41 153/86/143 138/85/128
f 140/78/130 150/79/140 148/88/138
f 140/78/130 148/88/138 141/87/131
f 155/104/145 159/110/149 152/109/142
f 155/104/145 152/109/142 135/108/125
f 80/103/70 87/112/77 162/111/152
f 80/103/70 162/111/152 157/102/147
f 156/105/146 160/113/150 159/110/149
f 156/105/146 159/110/149 155/104/145
f 158/107/148 163/115/153 88/114/78
f 158/107/148 88/114/78 81/106/71
f 150/79/140 155/104/145 135/108/125
f 150/79/140 135/108/125 148/88/138
f 148/88/138 135/108/125 158/107/148
f 148/88/138 158/107/148 154/84/144
f 162/111/152 167/117/157 165/116/155
f 162/111/152 165/116/155 160/113/150
f 152/109/142 136/119/126 168/118/158
f 152/109/142 168/118/158 163/115/153
f 159/110/149 164/120/154 136/119/126
f 159/110/149 136/119/126 152/109/142
f 87/112/77 94/121/84 167/117/157
f 87/112/77 167/117/157 162/111/152
f 135/108/125 152/109/142 163/115/153
f 135/108/125 163/115/153 158/107/148
f 157/102/147 162/111/152 160/113/150
f 157/102/147 160/113/150 156/105/146
f 168/118/158 171/124/161 100/123/90
f 168/118/158 100/123/90 95/122/85
f 167/117/157 170/126/160 169/125/159
f 167/117/157 169/125/159 165/116/155
f 136/119/126 149/127/139 171/124/161
f 136/119/126 171/124/161 168/118/158
f 164/120/154 161/128/151 149/127/139
f 164/120/154 149/127/139 136/119/126
f 163/115/153 168/118/158 95/122/85
f 163/115/153 95/122/85 88/114/78
f 160/113/150 165/116/155 164/120/154
f 160/113/150 164/120/154 159/110/149
f 169/125/159 172/130/162 137/129/127
f 169/125/159 137/129/127 161/128/151
f 171/124/161 174/132/164 107/131/97
f 171/124/161 107/131/97 100/123/90
f 170/126/160 173/133/163 172/130/162
f 170/126/160 172/130/162 169/125/159
f 149/127/139 166/134/156 174/132/164
f 149/127/139 174/132/164 171/124/161
f 165/116/155 169/125/159 161/128/151
f 165/116/155 161/128/151 164/120/154
f 94/121/84 99/135/89 170/126/160
f 94/121/84 170/126/160 167/117/157
f 103/136/93 166/134/156 137/129/127
f 103/136/93 137/129/127 79/137/69
f 105/138/95 172/130/162 173/133/163
f 105/138/95 173/133/163 106/139/96
f 107/131/97 174/132/164 166/134/156
f 107/131/97 166/134/156 103/136/93
f 79/137/69 137/129/127 172/130/162
f 79/137/69 172/130/162 105/138/95
f 99/135/89 106/139/96 173/133/163
f 99/135/89 173/133/163 170/126/160
f 161/128/151 137/129/127 166/134/156
f 161/128/151 166/134/156 149/127/139
f 181/140/171 177/141/167 176/142/166
f 181/140/171 176/142/166 175/143/165
f 181/140/171 175/143/165 182/144/172
f 181/140/171 182/144/172 178/145/168
f 181/140/171 178/145/168 179/146/169
f 181/140/171 179/146/169 180/147/170
f 179/146/169 178/145/168 189/148/179
f 179/146/169 189/148/179 190/149/180
f 180/147/170 179/146/169 190/149/180
f 180/147/170 190/149/180 191/150/181
f 178/145/168 182/144/172 189/148/179
f 181/140/171 180/147/170 191/150/181
f 181/140/171 191/150/181 194/151/184
f 184/152/174 183/153/173 186/154/176
f 184/152/174 186/154/176 187/155/177
f 185/156/175 184/152/174 187/155/177
f 185/156/175 187/155/177 188/157/178
f 189/148/179 182/144/172 192/158/182
f 181/140/171 194/151/184 177/141/167
f 193/159/183 192/158/182 175/143/165
f 193/159/183 175/143/165 176/142/166
f 194/151/184 193/159/183 176/142/166
f 194/151/184 176/142/166 177/141/167
f 192/158/182 182/144/172 175/143/165
f 183/160/173 184/161/174 190/149/180
f 183/160/173 190/149/180 189/148/179
f 184/161/174 185/162/175 191/150/181
f 184/161/174 191/150/181 190/149/180
f 187/163/177 186/164/176 192/158/182
f 187/163/177 192/158/182 193/159/183
f 188/165/178 187/163/177 193/159/183
f 188/165/178 193/159/183 194/151/184
f 185/162/175 188/165/178 194/151/184
f 185/162/175 194/151/184 191/150/181
f 186/164/176 183/160/173 189/148/179
f 186/164/176 189/148/179 192/158/182
f 201/140/191 200/147/190 199/146/189
f 201/140/191 199/146/189 198/145/188
f 201/140/191 198/145/188 202/144/192
f 201/140/191 202/144/192 195/143/185
f 201/140/191 195/143/185 196/142/186
f 201/140/191 196/142/186 197/141/187
f 199/146/189 210/149/200 209/148/199
f 199/146/189 209/148/199 198/145/188
f 200/147/190 211/150/201 210/149/200
f 200/147/190 210/149/200 199/146/189
f 198/145/188 209/148/199 202/144/192
f 201/140/191 211/150/201 200/147/190
f 201/140/191 214/151/204 211/150/201
f 204/152/194 207/155/197 206/154/196
f 204/152/194 206/154/196 203/153/193
f 205/156/195 208/157/198 207/155/197
f 205/156/195 207/155/197 204/152/194
f 209/148/199 212/158/202 202/144/192
f 201/140/191 197/141/187 214/151/204
f 213/159/203 196/142/186 195/143/185
f 213/159/203 195/143/185 212/158/202
f 214/151/204 197/141/187 196/142/186
f 214/151/204 196/142/186 213/159/203
f 212/158/202 195/143/185 202/144/192
f 203/160/193 209/148/199 210/149/200
f 203/160/193 210/149/200 204/161/194
f 204/161/194 210/149/200 211/150/201
f 204/161/194 211/150/201 205/162/195
f 207/163/197 213/159/203 212/158/202
f 207/163/197 212/158/202 206/164/196
f 208/165/198 214/151/204 213/159/203
f 208/165/198 213/159/203 207/163/197
f 205/162/195 211/150/201 214/151/204
f 205/162/195 214/151/204 208/165/198
f 206/164/196 212/158/202 209/148/199
f 206/164/196 209/148/199 203/160/193
f 215/166/205 216/167/206 218/168/208
f 215/166/205 218/168/208 217/169/207
f 217/169/207 218/168/208 222/170/212
f 217/169/207 222/170/212 221/171/211
f 221/171/211 222/170/212 220/172/210
f 221/171/211 220/172/210 219/173/209
f 219/173/209 220/172/210 216/167/206
f 219/173/209 216/167/206 215/166/205
f 219/173/209 215/166/205 223/174/213
f 219/173/209 223/174/213 225/175/215
f 222/170/212 218/168/208 216/167/206
f 222/170/212 216/167/206 220/172/210
f 226/176/216 225/175/215 229/177/219
f 226/176/216 229/177/219 230/178/220
f 217/169/207 221/171/211 226/176/216
f 217/169/207 226/176/216 224/179/214
f 215/166/205 217/169/207 224/179/214
f 215/166/205 224/179/214 223/174/213
f 221/171/211 219/173/209 225/175/215
f 221/171/211 225/175/215 226/176/216
f 229/177/219 227/180/217 232/181/222
f 229/177/219 232/181/222 234/182/224
f 223/174/213 224/179/214 228/183/218
f 223/174/213 228/183/218 227/180/217
f 225/175/215 223/174/213 227/180/217
f 225/175/215 227/180/217 229/177/219
f 224/179/214 226/176/216 230/178/220
f 224/179/214 230/178/220 228/183/218
f 233/184/223 234/182/224 238/185/228
f 233/184/223 238/185/228 237/186/227
f 228/183/218 230/178/220 233/184/223
f 228/183/218 233/184/223 231/187/221
f 230/178/220 229/177/219 234/182/224
f 230/178/220 234/182/224 233/184/223
f 227/180/217 228/183/218 231/187/221
f 227/180/217 231/187/221 232/181/222
f 236/188/226 235/189/225 239/190/229
f 236/188/226 239/190/229 240/191/230
f 232/181/222 231/187/221 235/189/225
f 232/181/222 235/189/225 236/188/226
f 234/182/224 232/181/222 236/188/226
f 234/182/224 236/188/226 238/185/228
f 231/187/221 233/184/223 237/186/227
f 231/187/221 237/186/227 235/189/225
f 242/192/232 240/191/230 244/193/234
f 242/192/232 244/193/234 246/194/236
f 238/185/228 236/188/226 240/191/230
f 238/185/228 240/191/230 242/192/232
f 235/189/225 237/186/227 241/195/231
f 235/189/225 241/195/231 239/190/229
f 237/186/227 238/185/228 242/192/232
f 237/186/227 242/192/232 241/195/231
f 245/196/235 246/194/236 250/197/240
f 245/196/235 250/197/240 249/198/239
f 239/190/229 241/195/231 245/196/235
f 239/190/229 245/196/235 243/199/233
f 241/195/231 242/192/232 246/194/236
f 241/195/231 246/194/236 245/196/235
f 240/191/230 239/190/229 243/199/233
f 240/191/230 243/199/233 244/193/234
f 247/200/237 249/198/239 250/197/240
f 247/200/237 250/197/240 248/201/238
f 244/193/234 243/199/233 247/200/237
f 244/193/234 247/200/237 248/201/238
f 246/194/236 244/193/234 248/201/238
f 246/194/236 248/201/238 250/197/240
f 243/199/233 245/196/235 249/198/239
f 243/199/233 249/198/239 247/200/237
f 251/166/241 253/169/243 254/168/244
f 251/166/241 254/168/244 252/167/242
f 253/169/243 257/171/247 258/170/248
f 253/169/243 258/170/248 254/168/244
f 257/171/247 255/173/245 256/172/246
f 257/171/247 256/172/246 258/170/248
f 255/173/245 251/166/241 252/167/242
f 255/173/245 252/167/242 256/172/246
f 255/173/245 261/175/251 259/174/249
f 255/173/245 259/174/249 251/166/241
f 258/170/248 256/172/246 252/167/242
f 258/170/248 252/167/242 254/168/244
f 262/176/252 266/178/256 265/177/255
f 262/176/252 265/177/255 261/175/251
f 253/169/243 260/179/250 262/176/252
f 253/169/243 262/176/252 257/171/247
f 251/166/241 259/174/249 260/179/250
f 251/166/241 260/179/250 253/169/243
f 257/171/247 262/176/252 261/175/251
f 257/171/247 261/175/251 255/173/245
f 265/177/255 270/182/260 268/181/258
f 265/177/255 268/181/258 263/180/253
f 259/174/249 263/180/253 264/183/254
f 259/174/249 264/183/254 260/179/250
f 261/175/251 265/177/255 263/180/253
f 261/175/251 263/180/253 259/174/249
f 260/179/250 264/183/254 266/178/256
f 260/179/250 266/178/256 262/176/252
f 269/184/259 273/186/263 274/185/264
f 269/184/259 274/185/264 270/182/260
f 264/183/254 267/187/257 269/184/259
f 264/183/254 269/184/259 266/178/256
f 266/178/256 269/184/259 270/182/260
f 266/178/256 270/182/260 265/177/255
f 263/180/253 268/181/258 267/187/257
f 263/180/253 267/187/257 264/183/254
f 272/188/262 276/191/266 275/190/265
f 272/188/262 275/190/265 271/189/261
f 268/181/258 272/188/262 271/189/261
f 268/181/258 271/189/261 267/187/257
f 270/182/260 274/185/264 272/188/262
f 270/182/260 272/188/262 268/181/258
f 267/187/257 271/189/261 273/186/263
f 267/187/257 273/186/263 269/184/259
f 278/192/268 282/194/272 280/193/270
f 278/192/268 280/193/270 276/191/266
f 274/185/264 278/192/268 276/191/266
f 274/185/264 276/191/266 272/188/262
f 271/189/261 275/190/265 277/195/267
f 271/189/261 277/195/267 273/186/263
f 273/186/263 277/195/267 278/192/268
f 273/186/263 278/192/268 274/185/264
f 281/196/271 285/198/275 286/197/276
f 281/196/271 286/197/276 282/194/272
f 275/190/265 279/199/269 281/196/271
f 275/190/265 281/196/271 277/195/267
f 277/195/267 281/196/271 282/194/272
f 277/195/267 282/194/272 278/192/268
f 276/191/266 280/193/270 279/199/269
f 276/191/266 279/199/269 275/190/265
f 283/200/273 284/201/274 286/197/276
f 283/200/273 286/197/276 285/198/275
f 280/193/270 284/201/274 283/200/273
f 280/193/270 283/200/273 279/199/269
f 282/194/272 286/197/276 284/201/274
f 282/194/272 284/201/274 280/193/270
f 279/199/269 283/200/273 285/198/275
f 279/199/269 285/198/275 281/196/271
f 287/202/277 288/203/278 290/204/280
f 287/202/277 290/204/280 289/205/279
f 289/205/279 290/204/280 294/206/284
f 289/205/279 294/206/284 293/207/283
f 293/207/283 294/206/284 292/208/282
f 293/207/283 292/208/282 291/209/281
f 291/209/281 292/208/282 288/203/278
f 291/209/281 288/203/278 287/202/277
f 293/207/283 291/209/281 297/210/287
f 293/207/283 297/210/287 298/211/288
f 294/206/284 290/204/280 288/203/278
f 294/206/284 288/203/278 292/208/282
f 298/211/288 297/210/287 301/212/291
f 298/211/288 301/212/291 302/213/292
f 291/209/281 287/202/277 295/214/285
f 291/209/281 295/214/285 297/210/287
f 289/205/279 293/207/283 298/211/288
f 289/205/279 298/211/288 296/215/286
f 287/202/277 289/205/279 296/215/286
f 287/202/277 296/215/286 295/214/285
f 301/212/291 299/216/289 303/217/293
f 301/212/291 303/217/293 305/218/295
f 295/214/285 296/215/286 300/219/290
f 295/214/285 300/219/290 299/216/289
f 297/210/287 295/214/285 299/216/289
f 297/210/287 299/216/289 301/212/291
f 296/215/286 298/211/288 302/213/292
f 296/215/286 302/213/292 300/219/290
f 304/220/294 306/221/296 305/218/295
f 304/220/294 305/218/295 303/217/293
f 300/219/290 302/213/292 306/221/296
f 300/219/290 306/221/296 304/220/294
f 302/213/292 301/212/291 305/218/295
f 302/213/292 305/218/295 306/221/296
f 299/216/289 300/219/290 304/220/294
f 299/216/289 304/220/294 303/217/293
f 307/202/297 309/205/299 310/204/300
f 307/202/297 310/204/300 308/203/298
f 309/205/299 313/207/303 314/206/304
f 309/205/299 314/206/304 310/204/300
f 313/207/303 311/209/301 312/208/302
f 313/207/303 312/208/302 314/206/304
f 311/209/301 307/202/297 308/203/298
f 311/209/301 308/203/298 312/208/302
f 313/207/303 318/211/308 317/210/307
f 313/207/303 317/210/307 311/209/301
f 314/206/304 312/208/302 308/203/298
f 314/206/304 308/203/298 310/204/300
f 318/211/308 322/213/312 321/212/311
f 318/211/308 321/212/311 317/210/307
f 311/209/301 317/210/307 315/214/305
f 311/209/301 315/214/305 307/202/297
f 309/205/299 316/215/306 318/211/308
f 309/205/299 318/211/308 313/207/303
f 307/202/297 315/214/305 316/215/306
f 307/202/297 316/215/306 309/205/299
f 321/212/311 325/218/315 323/217/313
f 321/212/311 323/217/313 319/216/309
f 315/214/305 319/216/309 320/219/310
f 315/214/305 320/219/310 316/215/306
f 317/210/307 321/212/311 319/216/309
f 317/210/307 319/216/309 315/214/305
f 316/215/306 320/219/310 322/213/312
f 316/215/306 322/213/312 318/211/308
f 324/220/314 323/217/313 325/218/315
f 324/220/314 325/218/315 326/221/316
f 320/219/310 324/220/314 326/221/316
f 320/219/310 326/221/316 322/213/312
f 322/213/312 326/221/316 325/218/315
f 322/213/312 325/218/315 321/212/311
f 319/216/309 323/217/313 324/220/314
f 319/216/309 324/220/314 320/219/310
f 327/222/317 328/223/318 330/224/320
f 327/222/317 330/224/320 329/225/319
f 329/225/319 330/224/320 334/226/324
f 329/225/319 334/226/324 333/227/323
f 333/227/323 334/226/324 332/228/322
f 333/227/323 332/228/322 331/229/321
f 331/229/321 332/228/322 328/223/318
f 331/229/321 328/223/318 327/222/317
f 333/227/323 331/229/321 337/230/327
f 333/227/323 337/230/327 338/231/328
f 334/226/324 330/224/320 328/223/318
f 334/226/324 328/223/318 332/228/322
f 337/230/327 335/232/325 339/233/329
f 337/230/327 339/233/329 341/234/331
f 331/229/321 327/222/317 335/232/325
f 331/229/321 335/232/325 337/230/327
f 329/225/319 333/227/323 338/231/328
f 329/225/319 338/231/328 336/235/326
f 327/222/317 329/225/319 336/235/326
f 327/222/317 336/235/326 335/232/325
f 342/236/332 341/234/331 345/237/335
f 342/236/332 345/237/335 346/238/336
f 336/235/326 338/231/328 342/236/332
f 336/235/326 342/236/332 340/239/330
f 338/231/328 337/230/327 341/234/331
f 338/231/328 341/234/331 342/236/332
f 335/232/325 336/235/326 340/239/330
f 335/232/325 340/239/330 339/233/329
f 344/240/334 346/238/336 345/237/335
f 344/240/334 345/237/335 343/241/333
f 339/233/329 340/239/330 344/240/334
f 339/233/329 344/240/334 343/241/333
f 341/234/331 339/233/329 343/241/333
f 341/234/331 343/241/333 345/237/335
f 340/239/330 342/236/332 346/238/336
f 340/239/330 346/238/336 344/240/334
f 347/222/337 349/225/339 350/224/340
f 347/222/337 350/224/340 348/223/338
f 349/225/339 353/227/343 354/226/344
f 349/225/339 354/226/344 350/224/340
f 353/227/343 351/229/341 352/228/342
f 353/227/343 352/228/342 354/226/344
f 351/229/341 347/222/337 348/223/338
f 351/229/341 348/223/338 352/228/342
f 353/227/343 358/231/348 357/230/347
f 353/227/343 357/230/347 351/229/341
f 354/226/344 352/228/342 348/223/338
f 354/226/344 348/223/338 350/224/340
f 357/230/347 361/234/351 359/233/349
f 357/230/347 359/233/349 355/232/345
f 351/229/341 357/230/347 355/232/345
f 351/229/341 355/232/345 347/222/337
f 349/225/339 356/235/346 358/231/348
f 349/225/339 358/231/348 353/227/343
f 347/222/337 355/232/345 356/235/346
f 347/222/337 356/235/346 349/225/339
f 362/236/352 366/238/356 365/237/355
f 362/236/352 365/237/355 361/234/351
f 356/235/346 360/239/350 362/236/352
f 356/235/346 362/236/352 358/231/348
f 358/231/348 362/236/352 361/234/351
f 358/231/348 361/234/351 357/230/347
f 355/232/345 359/233/349 360/239/350
f 355/232/345 360/239/350 356/235/346
f 364/240/354 363/241/353 365/237/355
f 364/240/354 365/237/355 366/238/356
f 359/233/349 363/241/353 364/240/354
f 359/233/349 364/240/354 360/239/350
f 361/234/351 365/237/355 363/241/353
f 361/234/351 363/241/353 359/233/349
f 360/239/350 364/240/354 366/238/356
f 360/239/350 366/238/356 362/236/352
usemtl Material.002
f 378/242/368 373/243/363 370/244/360
f 378/242/368 370/244/360 376/245/366
f 375/246/365 368/247/358 372/248/362
f 375/246/365 372/248/362 377/249/367
f 377/249/367 372/248/362 373/243/363
f 377/249/367 373/243/363 378/242/368
f 371/250/361 377/249/367 378/242/368
f 371/250/361 378/242/368 374/251/364
f 367/252/357 375/246/365 377/249/367
f 367/252/357 377/249/367 371/250/361
f 374/251/364 378/242/368 376/245/366
f 374/251/364 376/245/366 369/253/359
f 390/242/380 388/245/378 382/244/372
f 390/242/380 382/244/372 385/243/375
f 387/246/377 389/249/379 384/248/374
f 387/246/377 384/248/374 380/247/370
f 389/249/379 390/242/380 385/243/375
f 389/249/379 385/243/375 384/248/374
f 383/250/373 386/251/376 390/242/380
f 383/250/373 390/242/380 389/249/379
f 379/252/369 383/250/373 389/249/379
f 379/252/369 389/249/379 387/246/377
f 386/251/376 381/253/371 388/245/378
f 386/251/376 388/245/378 390/242/380
