# Blender 4.5.5 LTS
# www.blender.org
mtllib Animal_Butterfly.mtl
o Butterfly
v -0.000014 0.330423 -0.030179
v 0.000032 0.311578 -0.015982
v 0.000023 0.297412 -0.018648
v 0.000094 0.292175 0.003188
v -0.000099 0.250672 -0.056718
v -0.000086 0.349380 -0.052474
v -0.017714 0.332179 -0.037230
v -0.023807 0.314619 -0.028218
v -0.027457 0.292982 -0.030624
v -0.024725 0.271991 -0.039262
v -0.017819 0.251520 -0.069626
v -0.000195 0.245074 -0.086466
v -0.025092 0.336418 -0.054369
v -0.039925 0.321961 -0.057892
v -0.046643 0.297690 -0.063865
v -0.039959 0.279213 -0.068450
v -0.025172 0.257828 -0.079141
v -0.017825 0.340657 -0.071554
v -0.022728 0.330769 -0.082263
v -0.026675 0.306759 -0.096071
v -0.026588 0.285815 -0.100016
v -0.011524 0.255590 -0.093679
v -0.000170 0.342412 -0.078720
v -0.000233 0.332882 -0.098074
v -0.000272 0.310271 -0.110373
v -0.000278 0.288806 -0.112211
v -0.000245 0.258553 -0.101919
v -0.000054 0.257335 -0.042558
v -0.021006 0.259254 -0.055029
v -0.030828 0.266019 -0.074385
v -0.020899 0.269051 -0.097174
v -0.000264 0.271178 -0.107649
v 0.000012 0.294712 -0.022137
v -0.029330 0.293056 -0.023871
v -0.037909 0.271864 -0.033218
v -0.000051 0.243314 -0.041594
v -0.028415 0.258846 -0.050036
v -0.041774 0.286964 0.003211
v -0.048190 0.247385 0.008631
v 0.000088 0.203127 0.001432
v -0.038493 0.212855 -0.004218
v 0.000242 0.288716 0.049283
v -0.047281 0.284625 0.045439
v -0.052954 0.232563 0.044425
v 0.000155 0.180803 0.022134
v -0.043052 0.190679 0.020919
v 0.000466 0.251437 0.118739
v 0.000475 0.249055 0.121416
v -0.026133 0.238190 0.114550
v -0.025003 0.219619 0.112922
v 0.000404 0.183031 0.099403
v -0.024664 0.203598 0.105036
v 0.000457 0.234179 0.115951
v -0.038956 0.246583 0.115875
v -0.046053 0.217527 0.113701
v 0.000427 0.203706 0.106526
v -0.036565 0.193666 0.100189
v 0.001289 0.072715 0.373953
v -0.033986 0.224616 0.115427
v 0.000434 0.194680 0.108639
v -0.026166 0.242133 0.117619
v -0.024689 0.206012 0.110353
v -0.045123 0.216947 0.147720
v 0.000608 0.263398 0.162793
v 0.000466 0.175665 0.118721
v -0.038907 0.259795 0.157490
v -0.035370 0.185162 0.121549
v -0.048588 0.191127 0.209184
v 0.000818 0.245529 0.227904
v 0.000638 0.144635 0.172023
v -0.042934 0.242715 0.222320
v -0.038678 0.153845 0.174758
v -0.042264 0.147000 0.286822
v 0.001043 0.185123 0.297547
v 0.000901 0.105003 0.253517
v -0.035395 0.192165 0.298318
v -0.032732 0.114359 0.256680
v -0.025881 0.080145 0.366152
v 0.001305 0.102603 0.378880
v 0.001201 0.059471 0.346482
v -0.017127 0.097127 0.374516
v -0.016909 0.069713 0.351397
v -0.017895 0.257291 -0.093156
v -0.004345 0.256219 -0.098040
v -0.007757 0.252153 -0.102855
v -0.004320 0.249503 -0.090341
v -0.007727 0.244039 -0.093553
v -0.016431 0.251393 -0.097587
v -0.007757 0.252153 -0.102855
v -0.007727 0.244039 -0.093553
v -0.016431 0.251393 -0.097587
v -0.008282 0.249514 -0.104486
v -0.009407 0.241353 -0.095354
v -0.016774 0.248089 -0.101674
v -0.006759 0.242738 -0.108739
v -0.007655 0.236857 -0.102157
v -0.013502 0.241711 -0.106710
v 0.017641 0.332179 -0.037344
v 0.023791 0.314619 -0.028372
v 0.027426 0.292982 -0.030801
v 0.024639 0.271991 -0.039421
v 0.017536 0.251520 -0.069740
v 0.024908 0.336418 -0.054530
v 0.039718 0.321961 -0.058148
v 0.046397 0.297690 -0.064165
v 0.039684 0.279213 -0.068707
v 0.024828 0.257828 -0.079302
v 0.017530 0.340657 -0.071668
v 0.022364 0.330769 -0.082409
v 0.026221 0.306759 -0.096241
v 0.026109 0.285815 -0.100186
v 0.011086 0.255590 -0.093752
v 0.020818 0.259254 -0.055164
v 0.030514 0.266019 -0.074583
v 0.020439 0.269051 -0.097308
v 0.029343 0.293056 -0.024060
v 0.037861 0.271864 -0.033463
v 0.028258 0.258846 -0.050219
v 0.041961 0.286964 0.002941
v 0.048412 0.247385 0.008320
v 0.038632 0.212855 -0.004466
v 0.047740 0.284625 0.045132
v 0.053406 0.232563 0.044082
v 0.043353 0.190679 0.020640
v 0.027038 0.238190 0.114379
v 0.025898 0.219619 0.112758
v 0.025508 0.203598 0.104875
v 0.039869 0.246583 0.115621
v 0.046952 0.217527 0.113401
v 0.037377 0.193666 0.099950
v 0.034897 0.224616 0.115205
v 0.027091 0.242133 0.117447
v 0.025567 0.206012 0.110191
v 0.046241 0.216947 0.147425
v 0.040088 0.259795 0.157235
v 0.036320 0.185162 0.121318
v 0.050103 0.191127 0.208865
v 0.044534 0.242715 0.222038
v 0.039971 0.153845 0.174505
v 0.044279 0.147000 0.286543
v 0.037485 0.192165 0.298083
v 0.034554 0.114359 0.256463
v 0.028408 0.080145 0.365977
v 0.019709 0.097127 0.374397
v 0.019342 0.069713 0.351280
v 0.017460 0.257291 -0.093270
v 0.003879 0.256219 -0.098067
v 0.007260 0.252153 -0.102904
v 0.003904 0.249503 -0.090367
v 0.007290 0.244039 -0.093602
v 0.015968 0.251393 -0.097691
v 0.007260 0.252153 -0.102904
v 0.007290 0.244039 -0.093602
v 0.015968 0.251393 -0.097691
v 0.007775 0.249514 -0.104538
v 0.008959 0.241353 -0.095413
v 0.016285 0.248089 -0.101781
v 0.006225 0.242738 -0.108780
v 0.007163 0.236857 -0.102204
v 0.012980 0.241711 -0.106795
v -0.005553 0.335974 -0.090462
v -0.018634 0.360829 -0.145715
v -0.005850 0.331384 -0.093534
v -0.018783 0.355614 -0.146500
v -0.002233 0.335914 -0.090695
v -0.015467 0.360772 -0.145937
v -0.002531 0.331324 -0.093766
v -0.015616 0.355557 -0.146721
v -0.039060 0.369334 -0.224449
v -0.039165 0.364334 -0.224648
v -0.036057 0.369279 -0.224659
v -0.036161 0.364280 -0.224858
v -0.052951 0.361823 -0.298496
v -0.052967 0.359520 -0.298130
v -0.051552 0.361798 -0.298593
v -0.051568 0.359495 -0.298228
v 0.005136 0.335974 -0.090497
v 0.017860 0.360829 -0.145833
v 0.005414 0.331384 -0.093570
v 0.018005 0.355614 -0.146618
v 0.001815 0.335914 -0.090708
v 0.014693 0.360772 -0.146034
v 0.002093 0.331324 -0.093781
v 0.014837 0.355557 -0.146819
v 0.037779 0.369334 -0.224697
v 0.037882 0.364334 -0.224896
v 0.034774 0.369279 -0.224888
v 0.034877 0.364280 -0.225087
v 0.051192 0.361823 -0.298831
v 0.051210 0.359520 -0.298466
v 0.049792 0.361798 -0.298920
v 0.049810 0.359495 -0.298555
v -0.021765 0.336506 -0.078138
v -0.024129 0.314582 -0.098268
v -0.028291 0.284699 -0.098745
v -0.027337 0.318604 -0.033148
v -0.031963 0.289415 -0.035019
v -0.033538 0.267842 -0.056380
v -0.030798 0.263529 -0.082030
v -0.021982 0.340146 -0.049217
v -0.040968 0.327193 -0.046350
v -0.051126 0.301490 -0.053579
v -0.046374 0.275930 -0.068812
v -0.038182 0.336144 -0.068844
v -0.047209 0.314074 -0.085203
v -0.043750 0.284359 -0.089994
v 0.021427 0.336506 -0.078277
v 0.023662 0.314582 -0.098422
v 0.027820 0.284699 -0.098926
v 0.027289 0.318604 -0.033324
v 0.031903 0.289415 -0.035225
v 0.033341 0.267842 -0.056596
v 0.030435 0.263529 -0.082228
v 0.021831 0.340146 -0.049358
v 0.040835 0.327193 -0.046614
v 0.050947 0.301490 -0.053908
v 0.046096 0.275930 -0.069110
v 0.037904 0.336144 -0.069090
v 0.046826 0.314074 -0.085507
v 0.043336 0.284359 -0.090275
v -0.037908 0.198194 -0.025309
v -0.030949 0.237153 -0.015243
v -0.037935 0.203697 -0.033658
v -0.030981 0.238758 -0.025113
v -0.027908 0.198194 -0.025341
v -0.020949 0.237153 -0.015275
v -0.027935 0.203697 -0.033691
v -0.020981 0.238758 -0.025145
v -0.059280 0.096763 -0.106092
v -0.059301 0.099700 -0.112667
v -0.052079 0.096763 -0.106115
v -0.052100 0.099700 -0.112690
v -0.060704 0.100271 -0.113940
v -0.060675 0.096192 -0.104810
v -0.050704 0.100271 -0.113972
v -0.050675 0.096192 -0.104842
v -0.051589 -0.000958 -0.151440
v -0.051597 0.000177 -0.153981
v -0.048806 -0.000958 -0.151449
v -0.048814 0.000177 -0.153990
v 0.037911 0.198194 -0.025554
v 0.031017 0.237153 -0.015442
v 0.037884 0.203697 -0.033903
v 0.030985 0.238758 -0.025313
v 0.027911 0.198194 -0.025521
v 0.021017 0.237153 -0.015410
v 0.027884 0.203697 -0.033871
v 0.020985 0.238758 -0.025281
v 0.058761 0.096763 -0.106473
v 0.058740 0.099700 -0.113047
v 0.051560 0.096763 -0.106449
v 0.051539 0.099700 -0.113024
v 0.060135 0.100271 -0.114330
v 0.060165 0.096192 -0.105199
v 0.050135 0.100271 -0.114297
v 0.050165 0.096192 -0.105167
v 0.050779 -0.000958 -0.151770
v 0.050770 0.000177 -0.154311
v 0.047995 -0.000958 -0.151761
v 0.047987 0.000177 -0.154302
v -0.060553 0.181313 0.028556
v -0.030564 0.210023 0.031248
v -0.060586 0.182298 0.018605
v -0.030596 0.211008 0.021297
v -0.050553 0.181313 0.028524
v -0.020564 0.210023 0.031216
v -0.050586 0.182298 0.018572
v -0.020596 0.211008 0.021265
v -0.114394 0.110095 0.020578
v -0.114417 0.110178 0.013338
v -0.107154 0.110095 0.020554
v -0.107177 0.110178 0.013315
v -0.115801 0.110194 0.011963
v -0.115769 0.110079 0.021962
v -0.105802 0.110194 0.011930
v -0.105769 0.110079 0.021930
v -0.129191 0.001749 0.002358
v -0.129200 0.001783 -0.000564
v -0.126269 0.001749 0.002349
v -0.126278 0.001783 -0.000573
v 0.060903 0.181313 0.028164
v 0.030931 0.210023 0.031050
v 0.060871 0.182298 0.018213
v 0.030899 0.211008 0.021099
v 0.050903 0.181313 0.028197
v 0.020931 0.210023 0.031082
v 0.050871 0.182298 0.018245
v 0.020899 0.211008 0.021131
v 0.114691 0.110095 0.019839
v 0.114668 0.110178 0.012599
v 0.107451 0.110095 0.019862
v 0.107428 0.110178 0.012623
v 0.116043 0.110194 0.011215
v 0.116075 0.110079 0.021214
v 0.106043 0.110194 0.011247
v 0.106075 0.110079 0.021246
v 0.129370 0.001749 0.001524
v 0.129361 0.001783 -0.001397
v 0.126448 0.001749 0.001534
v 0.126439 0.001783 -0.001388
v -0.058511 0.194491 0.110755
v -0.034219 0.222123 0.086427
v -0.058541 0.190706 0.101611
v -0.034250 0.219550 0.076875
v -0.048511 0.194529 0.110670
v -0.024219 0.222278 0.086334
v -0.048541 0.190777 0.101496
v -0.024250 0.219734 0.076775
v -0.098764 0.120746 0.141380
v -0.098787 0.117616 0.134328
v -0.090921 0.120752 0.141299
v -0.090944 0.117624 0.134250
v -0.099868 0.117187 0.133347
v -0.099839 0.121172 0.142397
v -0.089869 0.117203 0.133215
v -0.089840 0.121183 0.142245
v -0.117307 0.004442 0.140412
v -0.117316 0.003175 0.137730
v -0.114274 0.004444 0.140376
v -0.114283 0.003178 0.137695
v 0.059391 0.194491 0.110374
v 0.034943 0.222123 0.086204
v 0.059362 0.190706 0.101231
v 0.034912 0.219551 0.076652
v 0.049391 0.194529 0.110355
v 0.024943 0.222278 0.086176
v 0.049361 0.190777 0.101180
v 0.024912 0.219734 0.076616
v 0.099841 0.120746 0.140739
v 0.099818 0.117616 0.133688
v 0.091997 0.120752 0.140709
v 0.091975 0.117624 0.133660
v 0.100893 0.117187 0.132700
v 0.100922 0.121172 0.141749
v 0.090893 0.117203 0.132632
v 0.090922 0.121183 0.141663
v 0.118377 0.004442 0.139652
v 0.118369 0.003175 0.136970
v 0.115344 0.004444 0.139635
v 0.115336 0.003178 0.136954
v -0.037322 0.227113 0.459708
v -0.038610 0.291754 0.060331
v -0.531079 -0.110798 0.637230
v -0.576305 -0.104830 0.388748
v -0.037966 0.259434 0.260020
v -0.593556 -0.144564 0.549595
v -0.256160 0.072443 0.674198
v -0.398401 0.072981 0.121581
v -0.326548 0.076025 0.380510
v -0.489037 -0.013642 0.243283
v -0.463887 -0.030792 0.465628
v -0.399501 -0.017398 0.686190
v -0.080671 0.183435 0.568416
v -0.238836 0.183955 0.037539
v -0.183042 0.168142 0.320334
v -0.769748 -0.220970 0.389377
v -0.782456 -0.195122 0.124696
v -0.019135 0.256761 0.401158
v -0.045552 0.306326 0.008824
v -0.810317 -0.240196 0.251157
v -0.038334 0.279013 0.204601
v -0.692309 -0.159290 0.488458
v -0.688775 -0.089169 0.055390
v -0.666922 -0.095130 0.234131
v -0.565786 0.019727 -0.000029
v -0.544427 -0.001095 0.230805
v -0.572744 -0.067069 0.523426
v -0.357348 0.154589 -0.043942
v -0.294335 0.146749 0.218973
v -0.305849 0.089738 0.540692
v -0.202502 0.238080 -0.044606
v -0.166496 0.214488 0.212048
v -0.168750 0.169170 0.492912
v 0.035587 0.232626 0.460365
v 0.034299 0.297268 0.060989
v 0.529873 -0.106250 0.634545
v 0.573428 -0.100369 0.385763
v 0.034943 0.264947 0.260677
v 0.591689 -0.140138 0.546490
v 0.255569 0.077528 0.673370
v 0.394069 0.077791 0.119804
v 0.323975 0.080974 0.379213
v 0.485357 -0.009009 0.240891
v 0.461678 -0.026111 0.463401
v 0.398811 -0.012594 0.684394
v 0.079585 0.188863 0.568778
v 0.234156 0.189078 0.036843
v 0.180246 0.173372 0.320009
v 0.771250 -0.216112 0.385194
v 0.782218 -0.190287 0.120433
v 0.021669 0.263084 0.402050
v 0.045528 0.312600 0.009546
v 0.810845 -0.235416 0.246704
v 0.039581 0.285300 0.205367
v 0.694604 -0.154282 0.484796
v 0.688277 -0.084151 0.051761
v 0.667622 -0.090071 0.230647
v 0.565128 0.024986 -0.002825
v 0.545291 0.004204 0.228149
v 0.575459 -0.061827 0.520572
v 0.356663 0.160254 -0.045327
v 0.295415 0.152536 0.218008
v 0.308993 0.095501 0.539642
v 0.201979 0.244049 -0.044944
v 0.167664 0.220525 0.211947
v 0.171729 0.175201 0.492790
vn -0.9476 0.2469 -0.2029
vn -0.2995 0.5478 0.7812
vn -0.5991 0.3829 -0.7032
vn -0.4233 -0.0845 0.9020
vn -0.1797 0.7491 0.6376
vn -0.1792 -0.9667 0.1825
vn -0.3726 0.6486 -0.6637
vn -0.7787 -0.5820 0.2343
vn -0.8590 0.1024 0.5016
vn -0.4467 0.8046 0.3913
vn -0.4896 -0.8518 -0.1864
vn -0.8500 -0.3381 0.4040
vn -0.6939 0.5360 0.4809
vn -0.8296 -0.3670 -0.4207
vn -0.8281 0.3593 -0.4304
vn -0.4615 0.8868 0.0236
vn -0.4946 -0.8396 -0.2247
vn -0.8801 -0.0490 -0.4722
vn -0.7015 0.6845 -0.1981
vn -0.3977 -0.2557 -0.8812
vn -0.5044 0.4543 -0.7343
vn -0.1962 0.9479 -0.2510
vn -0.5252 -0.1635 0.8351
vn -0.4576 0.1193 -0.8811
vn -0.3462 0.8131 -0.4680
vn -0.3874 -0.3832 -0.8385
vn -0.8396 -0.3490 -0.4162
vn -0.7605 -0.6271 0.1685
vn -0.3212 -0.8604 0.3957
vn 0.2032 -0.4610 -0.8638
vn -0.0984 0.9854 0.1391
vn -0.2162 0.8180 0.5331
vn -0.1058 0.9926 0.0587
vn -0.9633 -0.1373 -0.2307
vn -0.1194 -0.7059 -0.6981
vn -0.9256 -0.1595 -0.3432
vn -0.1263 0.8702 0.4762
vn -0.9478 -0.3133 0.0600
vn -0.1110 -0.7076 -0.6978
vn -0.9868 0.1253 -0.1024
vn -0.5824 0.1378 -0.8012
vn -0.3921 0.1684 -0.9044
vn -0.9757 0.1472 0.1623
vn -0.2478 -0.9679 0.0429
vn -0.2083 -0.4167 -0.8849
vn 0.0460 -0.0852 0.9953
vn -0.0609 -0.1876 0.9803
vn 0.0662 0.4121 -0.9087
vn 0.0588 -0.4607 0.8856
vn -0.0684 -0.3402 0.9379
vn -0.9005 0.2760 -0.3362
vn -0.1675 -0.7363 -0.6556
vn -0.9916 0.1283 -0.0152
vn -0.9779 -0.1584 -0.1367
vn -0.0946 0.9212 -0.3775
vn -0.8817 -0.0420 -0.4699
vn -0.9853 0.0907 0.1448
vn -0.9724 -0.2287 -0.0451
vn -0.2442 -0.8337 -0.4952
vn -0.1074 0.9609 0.2553
vn -0.9323 0.1261 0.3389
vn -0.9357 -0.3492 -0.0506
vn -0.2558 -0.8739 -0.4134
vn 0.0056 0.7956 0.6058
vn -0.3553 -0.8452 0.3992
vn -0.2603 -0.2180 0.9406
vn -0.3790 -0.8464 -0.3741
vn -0.0302 0.6616 0.7493
vn -0.2897 -0.7032 -0.6494
vn -0.1889 -0.7403 -0.6451
vn -0.2963 -0.7364 -0.6082
vn 0.5070 -0.0000 -0.8619
vn -0.3456 0.8233 -0.4503
vn 0.8772 -0.3605 -0.3172
vn -0.7073 -0.3594 0.6087
vn 0.8049 -0.0000 0.5934
vn -1.0000 -0.0000 0.0032
vn -0.7465 -0.6168 0.2497
vn -0.3847 0.6685 -0.6364
vn 0.9444 -0.2723 -0.1843
vn -0.0895 -0.7366 -0.6703
vn -0.3353 0.4588 -0.8229
vn 0.9757 0.0855 0.2019
vn 0.9462 0.2469 -0.2090
vn 0.3045 0.5478 0.7793
vn 0.5945 0.3829 -0.7071
vn 0.4291 -0.0845 0.8993
vn 0.1838 0.7491 0.6364
vn 0.1804 -0.9667 0.1813
vn 0.3683 0.6486 -0.6661
vn 0.7802 -0.5820 0.2292
vn 0.8622 0.1024 0.4961
vn 0.4492 0.8046 0.3884
vn 0.4884 -0.8518 -0.1895
vn 0.8526 -0.3381 0.3985
vn 0.6970 0.5360 0.4764
vn 0.8269 -0.3670 -0.4260
vn 0.8253 0.3593 -0.4358
vn 0.4616 0.8868 0.0206
vn 0.4931 -0.8396 -0.2278
vn 0.8771 -0.0490 -0.4778
vn 0.7003 0.6845 -0.2026
vn 0.3920 -0.2557 -0.8837
vn 0.4997 0.4543 -0.7375
vn 0.1945 0.9479 -0.2523
vn 0.5306 -0.1635 0.8317
vn 0.4519 0.1193 -0.8840
vn 0.3431 0.8131 -0.4702
vn 0.3820 -0.3832 -0.8410
vn 0.8369 -0.3490 -0.4216
vn 0.7616 -0.6271 0.1636
vn 0.3238 -0.8604 0.3936
vn -0.2088 -0.4610 -0.8625
vn 0.0993 0.9854 0.1384
vn 0.2197 0.8180 0.5317
vn 0.1062 0.9926 0.0581
vn 0.9618 -0.1373 -0.2369
vn 0.1149 -0.7059 -0.6989
vn 0.9234 -0.1595 -0.3491
vn 0.1293 0.8702 0.4754
vn 0.9481 -0.3133 0.0539
vn 0.1065 -0.7076 -0.6985
vn 0.9862 0.1253 -0.1087
vn 0.5772 0.1378 -0.8049
vn 0.3863 0.1684 -0.9069
vn 0.9767 0.1472 0.1560
vn 0.2481 -0.9679 0.0413
vn 0.2026 -0.4167 -0.8862
vn -0.0396 -0.0852 0.9956
vn 0.0673 -0.1876 0.9799
vn -0.0721 0.4121 -0.9083
vn -0.0530 -0.4607 0.8860
vn 0.0744 -0.3402 0.9374
vn 0.8983 0.2760 -0.3420
vn 0.1633 -0.7363 -0.6567
vn 0.9915 0.1283 -0.0216
vn 0.9770 -0.1584 -0.1430
vn 0.0922 0.9212 -0.3781
vn 0.8787 -0.0420 -0.4756
vn 0.9862 0.0907 0.1384
vn 0.9721 -0.2287 -0.0514
vn 0.2410 -0.8337 -0.4968
vn 0.1091 0.9609 0.2546
vn 0.9345 0.1261 0.3329
vn 0.9353 -0.3492 -0.0566
vn 0.2531 -0.8739 -0.4150
vn -0.0017 0.7956 0.6058
vn 0.3579 -0.8452 0.3969
vn 0.2663 -0.2180 0.9389
vn 0.3766 -0.8464 -0.3766
vn 0.0350 0.6616 0.7490
vn 0.2855 -0.7032 -0.6512
vn 0.1848 -0.7403 -0.6463
vn 0.2924 -0.7364 -0.6101
vn -0.5077 -0.0000 -0.8615
vn 0.3427 0.8233 -0.4525
vn -0.8792 -0.3605 -0.3116
vn 0.7112 -0.3594 0.6042
vn -0.8011 -0.0000 0.5985
vn 1.0000 -0.0000 0.0006
vn 0.7481 -0.6168 0.2449
vn 0.3806 0.6685 -0.6389
vn -0.9456 -0.2723 -0.1782
vn 0.0851 -0.7366 -0.6709
vn 0.3300 0.4588 -0.8250
vn -0.9744 0.0855 0.2081
vn -0.9755 -0.0405 0.2161
vn -0.0449 -0.9126 -0.4065
vn 0.9750 0.0414 -0.2184
vn 0.0446 0.9150 0.4010
vn 0.9673 0.0004 -0.2536
vn -0.9829 0.0204 0.1828
vn -0.9678 -0.0002 0.2517
vn 0.0250 0.9946 0.1009
vn -0.0253 -0.9942 -0.1043
vn -0.0717 -0.1557 -0.9852
vn 0.0108 0.9946 -0.1029
vn -0.0133 -0.9976 0.0678
vn 0.9788 -0.0208 -0.2036
vn 0.9769 -0.0405 0.2098
vn 0.0423 -0.9126 -0.4068
vn -0.9764 0.0414 -0.2121
vn -0.0420 0.9150 0.4013
vn -0.9689 0.0004 -0.2474
vn 0.9841 0.0204 0.1765
vn 0.9694 -0.0002 0.2455
vn -0.0244 0.9946 0.1011
vn 0.0246 -0.9942 -0.1045
vn 0.0654 -0.1557 -0.9856
vn -0.0114 0.9946 -0.1028
vn 0.0137 -0.9976 0.0678
vn -0.9801 -0.0208 -0.1973
vn 0.9872 -0.1461 0.0641
vn -0.7527 -0.4346 0.4944
vn -0.3115 0.6167 0.7229
vn -0.5820 -0.8098 0.0740
vn -0.6748 0.0598 0.7356
vn -0.9835 -0.0891 -0.1573
vn -0.5170 0.8154 0.2604
vn -0.7423 -0.5859 -0.3251
vn -0.9323 0.3606 0.0280
vn -0.3867 0.6460 -0.6581
vn -0.4923 0.0824 -0.8665
vn -0.0925 0.9878 -0.1250
vn -0.4069 -0.5359 -0.7397
vn -0.9868 -0.1461 0.0705
vn 0.7559 -0.4346 0.4896
vn 0.3162 0.6167 0.7209
vn 0.5824 -0.8098 0.0702
vn 0.6795 0.0598 0.7312
vn 0.9825 -0.0891 -0.1636
vn 0.5186 0.8154 0.2571
vn 0.7402 -0.5859 -0.3299
vn 0.9325 0.3606 0.0220
vn 0.3825 0.6460 -0.6606
vn 0.4867 0.0824 -0.8697
vn 0.0917 0.9878 -0.1256
vn 0.4022 -0.5359 -0.7424
vn -0.9835 0.1676 0.0686
vn -0.0031 0.2374 -0.9714
vn 0.9835 -0.1676 -0.0686
vn 0.0031 -0.2507 0.9681
vn 0.9847 -0.1513 -0.0861
vn 0.0005 0.9870 0.1605
vn 0.9995 0.0290 0.0097
vn 0.0025 -0.6151 0.7885
vn -0.0025 0.6135 -0.7897
vn -0.9847 0.1513 0.0861
vn -0.0013 -0.9131 -0.4078
vn -0.9975 -0.0663 -0.0264
vn 0.0029 -0.4207 0.9072
vn -0.0030 0.3832 -0.9237
vn 0.9839 0.1676 0.0622
vn -0.9839 -0.1676 -0.0622
vn -0.9853 -0.1513 -0.0798
vn -0.9994 0.0290 0.0162
vn 0.9853 0.1513 0.0798
vn 0.9973 -0.0663 -0.0328
vn -0.6931 0.7171 0.0732
vn -0.0032 0.0967 -0.9953
vn 0.6931 -0.7171 -0.0732
vn 0.0032 -0.0967 0.9953
vn 0.0032 -0.0946 0.9955
vn 0.0003 0.9951 0.0985
vn 0.0032 -0.1663 0.9861
vn -0.0032 0.0942 -0.9956
vn -0.7933 0.6078 0.0361
vn 0.7933 -0.6078 -0.0361
vn -0.0000 -0.9999 -0.0115
vn -0.0032 0.1276 -0.9918
vn 0.9849 -0.1729 -0.0052
vn -0.9909 0.1345 0.0047
vn 0.6936 0.7171 0.0688
vn -0.6936 -0.7171 -0.0688
vn 0.7935 0.6078 0.0310
vn -0.7935 -0.6078 -0.0310
vn -0.9849 -0.1729 0.0012
vn 0.9909 0.1345 -0.0016
vn -0.8182 0.5451 -0.1827
vn 0.0001 -0.6502 -0.7598
vn 0.8187 -0.5451 0.1806
vn 0.0003 0.6599 0.7513
vn 0.0099 0.3911 0.9203
vn -0.0189 0.9658 -0.2585
vn -0.9852 0.1576 -0.0680
vn -0.0097 -0.3915 -0.9201
vn -0.8884 0.4233 -0.1779
vn 0.8884 -0.4235 0.1770
vn 0.0078 -0.9146 0.4042
vn 0.0058 -0.9216 0.3881
vn 0.0212 -0.9144 0.4042
vn 0.0060 -0.9164 0.4002
vn 0.0059 -0.9042 0.4271
vn 0.0107 -0.0101 0.9999
vn -0.0104 -0.0280 -0.9996
vn 0.9767 -0.1967 0.0857
vn 0.8170 0.5451 -0.1880
vn -0.0050 -0.6502 -0.7598
vn -0.8175 -0.5451 0.1859
vn 0.0046 0.6599 0.7513
vn -0.0040 0.3911 0.9203
vn 0.0172 0.9658 -0.2586
vn 0.9847 0.1576 -0.0744
vn 0.0038 -0.3915 -0.9202
vn 0.8872 0.4233 -0.1836
vn -0.8872 -0.4235 0.1828
vn -0.0052 -0.9146 0.4042
vn -0.0033 -0.9216 0.3882
vn -0.0186 -0.9144 0.4043
vn -0.0035 -0.9164 0.4003
vn -0.0031 -0.9042 0.4271
vn -0.0043 -0.0101 0.9999
vn 0.0039 -0.0280 -0.9996
vn -0.9761 -0.1967 0.0920
vn -0.6055 0.7853 0.1291
vn -0.4814 0.8661 0.1348
vn -0.5048 0.8520 0.1390
vn -0.5398 0.8324 0.1256
vn -0.5652 0.8134 0.1378
vn -0.4827 0.8641 0.1427
vn -0.4870 0.8613 0.1448
vn 0.4366 -0.8884 -0.1417
vn 0.4362 -0.8887 -0.1413
vn 0.7005 -0.7054 -0.1078
vn 0.7051 -0.7015 -0.1034
vn 0.6153 -0.7784 -0.1248
vn 0.6162 -0.7790 -0.1160
vn 0.5039 -0.8527 -0.1380
vn 0.5079 -0.8506 -0.1362
vn 0.4589 -0.8776 -0.1385
vn 0.4640 -0.8745 -0.1413
vn 0.6079 0.7841 0.1250
vn 0.4839 0.8652 0.1315
vn 0.5074 0.8510 0.1356
vn 0.5422 0.8313 0.1219
vn 0.5677 0.8123 0.1339
vn 0.4853 0.8631 0.1394
vn 0.4897 0.8603 0.1415
vn -0.4393 -0.8876 -0.1387
vn -0.4389 -0.8878 -0.1383
vn -0.7026 -0.7041 -0.1031
vn -0.7072 -0.7001 -0.0986
vn -0.6176 -0.7772 -0.1206
vn -0.6185 -0.7778 -0.1118
vn -0.5065 -0.8517 -0.1346
vn -0.5105 -0.8496 -0.1327
vn -0.4615 -0.8767 -0.1354
vn -0.4667 -0.8736 -0.1382
vt 0.444151 0.367620
vt 0.442977 0.366171
vt 0.445709 0.363389
vt 0.446123 0.366577
vt 0.445161 0.368890
vt 0.444455 0.370653
vt 0.443940 0.370939
vt 0.444269 0.369386
vt 0.443625 0.367756
vt 0.442513 0.366307
vt 0.444656 0.367846
vt 0.443122 0.372595
vt 0.452238 0.377610
vt 0.454666 0.377418
vt 0.453677 0.377757
vt 0.441021 0.365649
vt 0.441399 0.365513
vt 0.440394 0.367484
vt 0.439658 0.366583
vt 0.442114 0.370582
vt 0.441137 0.368823
vt 0.442696 0.371630
vt 0.453069 0.378448
vt 0.438084 0.368660
vt 0.437954 0.367298
vt 0.440411 0.371778
vt 0.438832 0.370204
vt 0.441452 0.372320
vt 0.451971 0.378701
vt 0.437207 0.369147
vt 0.437190 0.367682
vt 0.439233 0.372273
vt 0.437801 0.370776
vt 0.440937 0.372606
vt 0.957393 0.232317
vt 0.957260 0.232861
vt 0.956867 0.232617
vt 0.957027 0.231961
vt 0.438019 0.366299
vt 0.437369 0.366581
vt 0.439117 0.366046
vt 0.439725 0.365356
vt 0.440714 0.365017
vt 0.441955 0.365236
vt 0.441734 0.364127
vt 0.444328 0.367710
vt 0.446242 0.366980
vt 0.450845 0.366157
vt 0.451095 0.366544
vt 0.443987 0.360977
vt 0.450412 0.358355
vt 0.451595 0.362034
vt 0.444231 0.360100
vt 0.457022 0.364164
vt 0.457164 0.364670
vt 0.456777 0.359743
vt 0.457447 0.361828
vt 0.450677 0.357598
vt 0.457468 0.361883
vt 0.457062 0.360556
vt 0.457528 0.360798
vt 0.457814 0.362157
vt 0.457181 0.363312
vt 0.457400 0.363554
vt 0.456927 0.358892
vt 0.457596 0.359903
vt 0.460146 0.358697
vt 0.459981 0.359481
vt 0.457268 0.363225
vt 0.457496 0.364138
vt 0.457136 0.360627
vt 0.460679 0.362789
vt 0.459671 0.366192
vt 0.466032 0.363578
vt 0.464816 0.367687
vt 0.465191 0.359584
vt 0.459903 0.366663
vt 0.473219 0.363727
vt 0.472155 0.367324
vt 0.472482 0.360230
vt 0.465390 0.358840
vt 0.465096 0.368117
vt 0.481462 0.362376
vt 0.481342 0.363896
vt 0.480873 0.361048
vt 0.472657 0.359457
vt 0.472400 0.366811
vt 0.480960 0.360140
vt 0.482313 0.362187
vt 0.481423 0.364457
vt 0.450022 0.380270
vt 0.450346 0.380130
vt 0.450420 0.380251
vt 0.449771 0.380532
vt 0.450479 0.379586
vt 0.450687 0.379160
vt 0.956936 0.233001
vt 0.956476 0.232787
vt 0.956479 0.232447
vt 0.956831 0.231790
vt 0.955955 0.232057
vt 0.956208 0.231584
vt 0.956293 0.232616
vt 0.955821 0.232179
vt 0.980906 0.280892
vt 0.977134 0.283987
vt 0.976963 0.283598
vt 0.980571 0.280600
vt 0.976946 0.283598
vt 0.980552 0.280600
vt 0.977117 0.283987
vt 0.980888 0.280892
vt 0.971055 0.285922
vt 0.971176 0.286306
vt 0.971072 0.285922
vt 0.971192 0.286306
vt 0.965279 0.287283
vt 0.965259 0.287096
vt 0.965251 0.287096
vt 0.965271 0.287283
vt 0.941275 0.261137
vt 0.940423 0.263133
vt 0.941090 0.265444
vt 0.943116 0.266723
vt 0.945439 0.266397
vt 0.946232 0.264386
vt 0.945471 0.262158
vt 0.943357 0.260932
vt 0.944279 0.263488
vt 0.942559 0.261823
vt 0.945384 0.265332
vt 0.942088 0.265131
vt 0.941091 0.262924
vt 0.943826 0.266501
vt 0.454745 0.452167
vt 0.455666 0.455723
vt 0.454765 0.455870
vt 0.453983 0.452670
vt 0.447483 0.442857
vt 0.446649 0.443230
vt 0.446766 0.443177
vt 0.447366 0.442909
vt 0.443229 0.433990
vt 0.442997 0.434094
vt 0.460701 0.450627
vt 0.460955 0.453247
vt 0.460047 0.453337
vt 0.459793 0.450716
vt 0.460083 0.444125
vt 0.459957 0.444126
vt 0.458290 0.434237
vt 0.459170 0.444135
vt 0.459296 0.444134
vt 0.458023 0.434240
vt 0.468730 0.451449
vt 0.466271 0.453630
vt 0.465443 0.453246
vt 0.467934 0.451004
vt 0.472177 0.445037
vt 0.472091 0.444989
vt 0.471466 0.444640
vt 0.472350 0.434161
vt 0.472592 0.434296
vt 0.471380 0.444592
vt 0.472177 0.445037
vt 0.459525 0.302270
vt 0.452288 0.303233
vt 0.457428 0.306692
vt 0.462801 0.307392
vt 0.466549 0.299759
vt 0.465448 0.304940
vt 0.461753 0.287941
vt 0.453850 0.291673
vt 0.456248 0.297000
vt 0.465711 0.294376
vt 0.444675 0.293689
vt 0.447936 0.299683
vt 0.451452 0.286309
vt 0.444868 0.286309
vt 0.458037 0.286309
vt 0.450131 0.292280
vt 0.441758 0.293558
vt 0.443136 0.287901
vt 0.449570 0.287650
vt 0.459392 0.292374
vt 0.456003 0.286974
vt 0.458032 0.315385
vt 0.453686 0.317094
vt 0.452399 0.311061
vt 0.460903 0.312127
vt 0.449391 0.315946
vt 0.446623 0.311978
vt 0.451816 0.306242
vt 0.461559 0.307349
vt 0.444288 0.307063
vt 0.450693 0.296940
vt 0.461326 0.297378
vt 0.442197 0.299233
s 0
usemtl Material.001
f 34/1/1 35/2/1 39/3/1
f 34/1/1 39/3/1 38/4/1
f 2/5/2 1/6/2 7/7/2
f 2/5/2 7/7/2 8/8/2
f 9/9/3 10/10/3 35/2/3
f 9/9/3 35/2/3 34/1/3
f 3/11/4 2/5/4 8/8/4
f 3/11/4 8/8/4 9/9/4
f 1/6/5 6/12/5 7/7/5
f 12/13/6 5/14/6 11/15/6
f 10/10/7 29/16/7 37/17/7
f 10/10/7 37/17/7 35/2/7
f 29/16/8 10/10/8 16/18/8
f 29/16/8 16/18/8 30/19/8
f 9/9/9 8/8/9 14/20/9
f 9/9/9 14/20/9 15/21/9
f 7/7/10 6/12/10 13/22/10
f 12/13/11 11/15/11 17/23/11
f 10/10/12 9/9/12 15/21/12
f 10/10/12 15/21/12 16/18/12
f 8/8/13 7/7/13 13/22/13
f 8/8/13 13/22/13 14/20/13
f 30/19/14 16/18/14 21/24/14
f 30/19/14 21/24/14 31/25/14
f 15/21/15 14/20/15 19/26/15
f 15/21/15 19/26/15 20/27/15
f 13/22/16 6/12/16 18/28/16
f 12/13/17 17/23/17 83/29/17
f 16/18/18 15/21/18 20/27/18
f 16/18/18 20/27/18 21/24/18
f 14/20/19 13/22/19 18/28/19
f 14/20/19 18/28/19 19/26/19
f 31/25/20 21/24/20 26/30/20
f 31/25/20 26/30/20 32/31/20
f 20/27/21 19/26/21 24/32/21
f 20/27/21 24/32/21 25/33/21
f 18/28/22 6/12/22 23/34/22
f 86/35/23 22/36/23 88/37/23
f 86/35/23 88/37/23 87/38/23
f 21/24/24 20/27/24 25/33/24
f 21/24/24 25/33/24 26/30/24
f 19/26/25 18/28/25 23/34/25
f 19/26/25 23/34/25 24/32/25
f 83/39/26 31/25/26 32/31/26
f 83/39/26 32/31/26 27/40/26
f 17/41/27 30/19/27 31/25/27
f 17/41/27 31/25/27 83/39/27
f 11/42/28 29/16/28 30/19/28
f 11/42/28 30/19/28 17/41/28
f 5/43/29 28/44/29 29/16/29
f 5/43/29 29/16/29 11/42/29
f 29/16/30 28/44/30 36/45/30
f 29/16/30 36/45/30 37/17/30
f 33/46/31 34/1/31 38/4/31
f 33/46/31 38/4/31 4/47/31
f 3/11/32 9/9/32 34/1/32
f 3/11/32 34/1/32 33/46/32
f 4/47/33 38/4/33 43/48/33
f 4/47/33 43/48/33 42/49/33
f 39/3/34 41/50/34 46/51/34
f 39/3/34 46/51/34 44/52/34
f 37/17/35 36/45/35 40/53/35
f 37/17/35 40/53/35 41/50/35
f 35/2/36 37/17/36 41/50/36
f 35/2/36 41/50/36 39/3/36
f 42/49/37 43/48/37 54/54/37
f 42/49/37 54/54/37 47/55/37
f 44/52/38 46/51/38 57/56/38
f 44/52/38 57/56/38 55/57/38
f 41/50/39 40/53/39 45/58/39
f 41/50/39 45/58/39 46/51/39
f 38/4/40 39/3/40 44/52/40
f 38/4/40 44/52/40 43/48/40
f 50/59/41 52/60/41 62/61/41
f 50/59/41 62/61/41 59/62/41
f 49/63/42 50/59/42 59/62/42
f 49/63/42 59/62/42 61/64/42
f 43/48/43 44/52/43 55/57/43
f 43/48/43 55/57/43 54/54/43
f 46/51/44 45/58/44 51/65/44
f 46/51/44 51/65/44 57/56/44
f 62/61/45 60/66/45 65/67/45
f 62/61/45 65/67/45 67/68/45
f 50/59/46 49/63/46 54/54/46
f 50/59/46 54/54/46 55/57/46
f 49/63/47 53/69/47 47/55/47
f 49/63/47 47/55/47 54/54/47
f 53/69/48 49/63/48 61/64/48
f 53/69/48 61/64/48 48/70/48
f 52/60/49 50/59/49 55/57/49
f 52/60/49 55/57/49 57/56/49
f 56/71/50 52/60/50 57/56/50
f 56/71/50 57/56/50 51/65/50
f 61/64/51 59/62/51 63/72/51
f 61/64/51 63/72/51 66/73/51
f 52/60/52 56/71/52 60/66/52
f 52/60/52 60/66/52 62/61/52
f 66/73/53 63/72/53 68/74/53
f 66/73/53 68/74/53 71/75/53
f 63/72/54 67/68/54 72/76/54
f 63/72/54 72/76/54 68/74/54
f 48/70/55 61/64/55 66/73/55
f 48/70/55 66/73/55 64/77/55
f 59/62/56 62/61/56 67/68/56
f 59/62/56 67/68/56 63/72/56
f 71/75/57 68/74/57 73/78/57
f 71/75/57 73/78/57 76/79/57
f 68/74/58 72/76/58 77/80/58
f 68/74/58 77/80/58 73/78/58
f 67/68/59 65/67/59 70/81/59
f 67/68/59 70/81/59 72/76/59
f 64/77/60 66/73/60 71/75/60
f 64/77/60 71/75/60 69/82/60
f 76/79/61 73/78/61 78/83/61
f 76/79/61 78/83/61 81/84/61
f 73/78/62 77/80/62 82/85/62
f 73/78/62 82/85/62 78/83/62
f 72/76/63 70/81/63 75/86/63
f 72/76/63 75/86/63 77/80/63
f 69/82/64 71/75/64 76/79/64
f 69/82/64 76/79/64 74/87/64
f 80/88/65 58/89/65 78/83/65
f 80/88/65 78/83/65 82/85/65
f 58/89/66 79/90/66 81/84/66
f 58/89/66 81/84/66 78/83/66
f 77/80/67 75/86/67 80/88/67
f 77/80/67 80/88/67 82/85/67
f 74/87/68 76/79/68 81/84/68
f 74/87/68 81/84/68 79/90/68
f 84/91/69 22/92/69 83/93/69
f 84/91/69 83/93/69 27/94/69
f 86/95/70 84/91/70 27/94/70
f 86/95/70 27/94/70 12/96/70
f 22/92/71 86/95/71 12/96/71
f 22/92/71 12/96/71 83/93/71
f 87/38/72 88/37/72 91/37/72
f 87/38/72 91/37/72 90/38/72
f 22/36/73 84/97/73 85/98/73
f 22/36/73 85/98/73 88/37/73
f 84/97/74 86/35/74 87/38/74
f 84/97/74 87/38/74 85/98/74
f 90/38/75 91/37/75 94/99/75
f 90/38/75 94/99/75 93/100/75
f 88/37/76 85/98/76 89/98/76
f 88/37/76 89/98/76 91/37/76
f 85/98/77 87/38/77 90/38/77
f 85/98/77 90/38/77 89/98/77
f 93/100/78 94/99/78 97/101/78
f 93/100/78 97/101/78 96/102/78
f 91/37/79 89/98/79 92/103/79
f 91/37/79 92/103/79 94/99/79
f 89/98/80 90/38/80 93/100/80
f 89/98/80 93/100/80 92/103/80
f 96/102/81 97/101/81 95/104/81
f 94/99/82 92/103/82 95/104/82
f 94/99/82 95/104/82 97/101/82
f 92/103/83 93/100/83 96/102/83
f 92/103/83 96/102/83 95/104/83
f 116/1/84 119/4/84 120/3/84
f 116/1/84 120/3/84 117/2/84
f 2/5/85 99/8/85 98/7/85
f 2/5/85 98/7/85 1/6/85
f 100/9/86 116/1/86 117/2/86
f 100/9/86 117/2/86 101/10/86
f 3/11/87 100/9/87 99/8/87
f 3/11/87 99/8/87 2/5/87
f 1/6/88 98/7/88 6/12/88
f 12/13/89 102/15/89 5/14/89
f 101/10/90 117/2/90 118/17/90
f 101/10/90 118/17/90 113/16/90
f 113/16/91 114/19/91 106/18/91
f 113/16/91 106/18/91 101/10/91
f 100/9/92 105/21/92 104/20/92
f 100/9/92 104/20/92 99/8/92
f 98/7/93 103/22/93 6/12/93
f 12/13/94 107/23/94 102/15/94
f 101/10/95 106/18/95 105/21/95
f 101/10/95 105/21/95 100/9/95
f 99/8/96 104/20/96 103/22/96
f 99/8/96 103/22/96 98/7/96
f 114/19/97 115/25/97 111/24/97
f 114/19/97 111/24/97 106/18/97
f 105/21/98 110/27/98 109/26/98
f 105/21/98 109/26/98 104/20/98
f 103/22/99 108/28/99 6/12/99
f 12/13/100 146/29/100 107/23/100
f 106/18/101 111/24/101 110/27/101
f 106/18/101 110/27/101 105/21/101
f 104/20/102 109/26/102 108/28/102
f 104/20/102 108/28/102 103/22/102
f 115/25/103 32/31/103 26/30/103
f 115/25/103 26/30/103 111/24/103
f 110/27/104 25/33/104 24/32/104
f 110/27/104 24/32/104 109/26/104
f 108/28/105 23/34/105 6/12/105
f 149/35/106 150/38/106 151/37/106
f 149/35/106 151/37/106 112/36/106
f 111/24/107 26/30/107 25/33/107
f 111/24/107 25/33/107 110/27/107
f 109/26/108 24/32/108 23/34/108
f 109/26/108 23/34/108 108/28/108
f 146/39/109 27/40/109 32/31/109
f 146/39/109 32/31/109 115/25/109
f 107/41/110 146/39/110 115/25/110
f 107/41/110 115/25/110 114/19/110
f 102/42/111 107/41/111 114/19/111
f 102/42/111 114/19/111 113/16/111
f 5/43/112 102/42/112 113/16/112
f 5/43/112 113/16/112 28/44/112
f 113/16/113 118/17/113 36/45/113
f 113/16/113 36/45/113 28/44/113
f 33/46/114 4/47/114 119/4/114
f 33/46/114 119/4/114 116/1/114
f 3/11/115 33/46/115 116/1/115
f 3/11/115 116/1/115 100/9/115
f 4/47/116 42/49/116 122/48/116
f 4/47/116 122/48/116 119/4/116
f 120/3/117 123/52/117 124/51/117
f 120/3/117 124/51/117 121/50/117
f 118/17/118 121/50/118 40/53/118
f 118/17/118 40/53/118 36/45/118
f 117/2/119 120/3/119 121/50/119
f 117/2/119 121/50/119 118/17/119
f 42/49/120 47/55/120 128/54/120
f 42/49/120 128/54/120 122/48/120
f 123/52/121 129/57/121 130/56/121
f 123/52/121 130/56/121 124/51/121
f 121/50/122 124/51/122 45/58/122
f 121/50/122 45/58/122 40/53/122
f 119/4/123 122/48/123 123/52/123
f 119/4/123 123/52/123 120/3/123
f 126/59/124 131/62/124 133/61/124
f 126/59/124 133/61/124 127/60/124
f 125/63/125 132/64/125 131/62/125
f 125/63/125 131/62/125 126/59/125
f 122/48/126 128/54/126 129/57/126
f 122/48/126 129/57/126 123/52/126
f 124/51/127 130/56/127 51/65/127
f 124/51/127 51/65/127 45/58/127
f 133/61/128 136/68/128 65/67/128
f 133/61/128 65/67/128 60/66/128
f 126/59/129 129/57/129 128/54/129
f 126/59/129 128/54/129 125/63/129
f 125/63/130 128/54/130 47/55/130
f 125/63/130 47/55/130 53/69/130
f 53/69/131 48/70/131 132/64/131
f 53/69/131 132/64/131 125/63/131
f 127/60/132 130/56/132 129/57/132
f 127/60/132 129/57/132 126/59/132
f 56/71/133 51/65/133 130/56/133
f 56/71/133 130/56/133 127/60/133
f 132/64/134 135/73/134 134/72/134
f 132/64/134 134/72/134 131/62/134
f 127/60/135 133/61/135 60/66/135
f 127/60/135 60/66/135 56/71/135
f 135/73/136 138/75/136 137/74/136
f 135/73/136 137/74/136 134/72/136
f 134/72/137 137/74/137 139/76/137
f 134/72/137 139/76/137 136/68/137
f 48/70/138 64/77/138 135/73/138
f 48/70/138 135/73/138 132/64/138
f 131/62/139 134/72/139 136/68/139
f 131/62/139 136/68/139 133/61/139
f 138/75/140 141/79/140 140/78/140
f 138/75/140 140/78/140 137/74/140
f 137/74/141 140/78/141 142/80/141
f 137/74/141 142/80/141 139/76/141
f 136/68/142 139/76/142 70/81/142
f 136/68/142 70/81/142 65/67/142
f 64/77/143 69/82/143 138/75/143
f 64/77/143 138/75/143 135/73/143
f 141/79/144 144/84/144 143/83/144
f 141/79/144 143/83/144 140/78/144
f 140/78/145 143/83/145 145/85/145
f 140/78/145 145/85/145 142/80/145
f 139/76/146 142/80/146 75/86/146
f 139/76/146 75/86/146 70/81/146
f 69/82/147 74/87/147 141/79/147
f 69/82/147 141/79/147 138/75/147
f 80/88/148 145/85/148 143/83/148
f 80/88/148 143/83/148 58/89/148
f 58/89/149 143/83/149 144/84/149
f 58/89/149 144/84/149 79/90/149
f 142/80/150 145/85/150 80/88/150
f 142/80/150 80/88/150 75/86/150
f 74/87/151 79/90/151 144/84/151
f 74/87/151 144/84/151 141/79/151
f 147/91/152 27/94/152 146/93/152
f 147/91/152 146/93/152 112/92/152
f 149/95/153 12/96/153 27/94/153
f 149/95/153 27/94/153 147/91/153
f 112/92/154 146/93/154 12/96/154
f 112/92/154 12/96/154 149/95/154
f 150/38/155 153/38/155 154/37/155
f 150/38/155 154/37/155 151/37/155
f 112/36/156 151/37/156 148/98/156
f 112/36/156 148/98/156 147/97/156
f 147/97/157 148/98/157 150/38/157
f 147/97/157 150/38/157 149/35/157
f 153/38/158 156/100/158 157/99/158
f 153/38/158 157/99/158 154/37/158
f 151/37/159 154/37/159 152/98/159
f 151/37/159 152/98/159 148/98/159
f 148/98/160 152/98/160 153/38/160
f 148/98/160 153/38/160 150/38/160
f 156/100/161 159/102/161 160/101/161
f 156/100/161 160/101/161 157/99/161
f 154/37/162 157/99/162 155/103/162
f 154/37/162 155/103/162 152/98/162
f 152/98/163 155/103/163 156/100/163
f 152/98/163 156/100/163 153/38/163
f 159/102/164 158/104/164 160/101/164
f 157/99/165 160/101/165 158/104/165
f 157/99/165 158/104/165 155/103/165
f 155/103/166 158/104/166 159/102/166
f 155/103/166 159/102/166 156/100/166
f 161/105/167 162/106/167 164/107/167
f 161/105/167 164/107/167 163/108/167
f 163/108/168 164/107/168 168/109/168
f 163/108/168 168/109/168 167/110/168
f 167/110/169 168/109/169 166/111/169
f 167/110/169 166/111/169 165/112/169
f 165/112/170 166/111/170 162/106/170
f 165/112/170 162/106/170 161/105/170
f 166/111/171 168/109/171 172/113/171
f 166/111/171 172/113/171 171/114/171
f 170/115/172 169/116/172 173/117/172
f 170/115/172 173/117/172 174/118/172
f 164/107/173 162/106/173 169/116/173
f 164/107/173 169/116/173 170/115/173
f 162/106/174 166/111/174 171/114/174
f 162/106/174 171/114/174 169/116/174
f 168/109/175 164/107/175 170/115/175
f 168/109/175 170/115/175 172/113/175
f 176/119/176 174/118/176 173/117/176
f 176/119/176 173/117/176 175/120/176
f 169/116/177 171/114/177 175/120/177
f 169/116/177 175/120/177 173/117/177
f 172/113/178 170/115/178 174/118/178
f 172/113/178 174/118/178 176/119/178
f 171/114/179 172/113/179 176/119/179
f 171/114/179 176/119/179 175/120/179
f 177/105/180 179/108/180 180/107/180
f 177/105/180 180/107/180 178/106/180
f 179/108/181 183/110/181 184/109/181
f 179/108/181 184/109/181 180/107/181
f 183/110/182 181/112/182 182/111/182
f 183/110/182 182/111/182 184/109/182
f 181/112/183 177/105/183 178/106/183
f 181/112/183 178/106/183 182/111/183
f 182/111/184 187/114/184 188/113/184
f 182/111/184 188/113/184 184/109/184
f 186/115/185 190/118/185 189/117/185
f 186/115/185 189/117/185 185/116/185
f 180/107/186 186/115/186 185/116/186
f 180/107/186 185/116/186 178/106/186
f 178/106/187 185/116/187 187/114/187
f 178/106/187 187/114/187 182/111/187
f 184/109/188 188/113/188 186/115/188
f 184/109/188 186/115/188 180/107/188
f 192/119/189 191/120/189 189/117/189
f 192/119/189 189/117/189 190/118/189
f 185/116/190 189/117/190 191/120/190
f 185/116/190 191/120/190 187/114/190
f 188/113/191 192/119/191 190/118/191
f 188/113/191 190/118/191 186/115/191
f 187/114/192 191/120/192 192/119/192
f 187/114/192 192/119/192 188/113/192
f 199/121/193 195/122/193 194/123/193
f 199/121/193 194/123/193 193/124/193
f 199/121/193 193/124/193 200/125/193
f 199/121/193 200/125/193 196/126/193
f 199/121/193 196/126/193 197/127/193
f 199/121/193 197/127/193 198/128/193
f 198/128/194 197/127/194 202/129/194
f 198/128/194 202/129/194 203/130/194
f 196/126/195 200/125/195 201/131/195
f 199/121/196 198/128/196 203/130/196
f 197/127/197 196/126/197 201/131/197
f 197/127/197 201/131/197 202/129/197
f 203/130/198 202/129/198 205/132/198
f 203/130/198 205/132/198 206/133/198
f 201/131/199 200/125/199 204/134/199
f 199/121/200 203/130/200 206/133/200
f 202/129/201 201/131/201 204/134/201
f 202/129/201 204/134/201 205/132/201
f 205/132/202 204/134/202 193/124/202
f 205/132/202 193/124/202 194/123/202
f 206/133/203 205/132/203 194/123/203
f 206/133/203 194/123/203 195/122/203
f 204/134/204 200/125/204 193/124/204
f 199/121/205 206/133/205 195/122/205
f 213/121/206 212/128/206 211/127/206
f 213/121/206 211/127/206 210/126/206
f 213/121/206 210/126/206 214/125/206
f 213/121/206 214/125/206 207/124/206
f 213/121/206 207/124/206 208/123/206
f 213/121/206 208/123/206 209/122/206
f 212/128/207 217/130/207 216/129/207
f 212/128/207 216/129/207 211/127/207
f 210/126/208 215/131/208 214/125/208
f 213/121/209 217/130/209 212/128/209
f 211/127/210 216/129/210 215/131/210
f 211/127/210 215/131/210 210/126/210
f 217/130/211 220/133/211 219/132/211
f 217/130/211 219/132/211 216/129/211
f 215/131/212 218/134/212 214/125/212
f 213/121/213 220/133/213 217/130/213
f 216/129/214 219/132/214 218/134/214
f 216/129/214 218/134/214 215/131/214
f 219/132/215 208/123/215 207/124/215
f 219/132/215 207/124/215 218/134/215
f 220/133/216 209/122/216 208/123/216
f 220/133/216 208/123/216 219/132/216
f 218/134/217 207/124/217 214/125/217
f 213/121/218 209/122/218 220/133/218
f 221/135/219 222/136/219 224/137/219
f 221/135/219 224/137/219 223/138/219
f 223/138/220 224/137/220 228/137/220
f 223/138/220 228/137/220 227/138/220
f 227/138/221 228/137/221 226/136/221
f 227/138/221 226/136/221 225/135/221
f 225/135/222 226/136/222 222/136/222
f 225/135/222 222/136/222 221/135/222
f 227/138/223 225/135/223 236/139/223
f 227/138/223 236/139/223 235/140/223
f 228/137/224 224/137/224 222/136/224
f 228/137/224 222/136/224 226/136/224
f 232/141/225 231/142/225 239/143/225
f 232/141/225 239/143/225 240/144/225
f 225/135/226 221/135/226 234/139/226
f 225/135/226 234/139/226 236/139/226
f 223/138/227 227/138/227 235/140/227
f 223/138/227 235/140/227 233/140/227
f 221/135/228 223/138/228 233/140/228
f 221/135/228 233/140/228 234/139/228
f 230/141/229 229/142/229 234/139/229
f 230/141/229 234/139/229 233/140/229
f 232/141/229 230/141/229 233/140/229
f 232/141/229 233/140/229 235/140/229
f 231/142/229 232/141/229 235/140/229
f 231/142/229 235/140/229 236/139/229
f 229/142/229 231/142/229 236/139/229
f 229/142/229 236/139/229 234/139/229
f 238/144/229 240/144/229 239/143/229
f 238/144/229 239/143/229 237/143/229
f 229/142/230 230/141/230 238/144/230
f 229/142/230 238/144/230 237/143/230
f 231/142/231 229/142/231 237/143/231
f 231/142/231 237/143/231 239/143/231
f 230/141/232 232/141/232 240/144/232
f 230/141/232 240/144/232 238/144/232
f 241/135/233 243/138/233 244/137/233
f 241/135/233 244/137/233 242/136/233
f 243/138/220 247/138/220 248/137/220
f 243/138/220 248/137/220 244/137/220
f 247/138/234 245/135/234 246/136/234
f 247/138/234 246/136/234 248/137/234
f 245/135/222 241/135/222 242/136/222
f 245/135/222 242/136/222 246/136/222
f 247/138/235 255/140/235 256/139/235
f 247/138/235 256/139/235 245/135/235
f 248/137/224 246/136/224 242/136/224
f 248/137/224 242/136/224 244/137/224
f 252/141/236 260/144/236 259/143/236
f 252/141/236 259/143/236 251/142/236
f 245/135/226 256/139/226 254/139/226
f 245/135/226 254/139/226 241/135/226
f 243/138/227 253/140/227 255/140/227
f 243/138/227 255/140/227 247/138/227
f 241/135/237 254/139/237 253/140/237
f 241/135/237 253/140/237 243/138/237
f 250/141/229 253/140/229 254/139/229
f 250/141/229 254/139/229 249/142/229
f 252/141/229 255/140/229 253/140/229
f 252/141/229 253/140/229 250/141/229
f 251/142/229 256/139/229 255/140/229
f 251/142/229 255/140/229 252/141/229
f 249/142/229 254/139/229 256/139/229
f 249/142/229 256/139/229 251/142/229
f 258/144/229 257/143/229 259/143/229
f 258/144/229 259/143/229 260/144/229
f 249/142/238 257/143/238 258/144/238
f 249/142/238 258/144/238 250/141/238
f 251/142/231 259/143/231 257/143/231
f 251/142/231 257/143/231 249/142/231
f 250/141/232 258/144/232 260/144/232
f 250/141/232 260/144/232 252/141/232
f 261/145/239 262/146/239 264/147/239
f 261/145/239 264/147/239 263/148/239
f 263/148/240 264/147/240 268/147/240
f 263/148/240 268/147/240 267/148/240
f 267/148/241 268/147/241 266/146/241
f 267/148/241 266/146/241 265/145/241
f 265/145/242 266/146/242 262/146/242
f 265/145/242 262/146/242 261/145/242
f 265/145/243 261/145/243 274/149/243
f 265/145/243 274/149/243 276/149/243
f 268/147/244 264/147/244 262/146/244
f 268/147/244 262/146/244 266/146/244
f 271/150/245 269/150/245 277/151/245
f 271/150/245 277/151/245 279/151/245
f 263/148/246 267/148/246 275/152/246
f 263/148/246 275/152/246 273/152/246
f 261/145/247 263/148/247 273/152/247
f 261/145/247 273/152/247 274/149/247
f 267/148/248 265/145/248 276/149/248
f 267/148/248 276/149/248 275/152/248
f 270/153/249 269/150/249 274/149/249
f 270/153/249 274/149/249 273/152/249
f 272/153/249 270/153/249 273/152/249
f 272/153/249 273/152/249 275/152/249
f 271/150/249 272/153/249 275/152/249
f 271/150/249 275/152/249 276/149/249
f 269/150/249 271/150/249 276/149/249
f 269/150/249 276/149/249 274/149/249
f 278/154/249 280/154/249 279/151/249
f 278/154/249 279/151/249 277/151/249
f 270/153/250 272/153/250 280/154/250
f 270/153/250 280/154/250 278/154/250
f 272/153/251 271/150/251 279/151/251
f 272/153/251 279/151/251 280/154/251
f 269/150/252 270/153/252 278/154/252
f 269/150/252 278/154/252 277/151/252
f 281/145/253 283/148/253 284/147/253
f 281/145/253 284/147/253 282/146/253
f 283/148/240 287/148/240 288/147/240
f 283/148/240 288/147/240 284/147/240
f 287/148/254 285/145/254 286/146/254
f 287/148/254 286/146/254 288/147/254
f 285/145/242 281/145/242 282/146/242
f 285/145/242 282/146/242 286/146/242
f 285/145/243 296/149/243 294/149/243
f 285/145/243 294/149/243 281/145/243
f 288/147/244 286/146/244 282/146/244
f 288/147/244 282/146/244 284/147/244
f 291/150/245 299/151/245 297/151/245
f 291/150/245 297/151/245 289/150/245
f 283/148/246 293/152/246 295/152/246
f 283/148/246 295/152/246 287/148/246
f 281/145/255 294/149/255 293/152/255
f 281/145/255 293/152/255 283/148/255
f 287/148/256 295/152/256 296/149/256
f 287/148/256 296/149/256 285/145/256
f 290/153/249 293/152/249 294/149/249
f 290/153/249 294/149/249 289/150/249
f 292/153/249 295/152/249 293/152/249
f 292/153/249 293/152/249 290/153/249
f 291/150/249 296/149/249 295/152/249
f 291/150/249 295/152/249 292/153/249
f 289/150/249 294/149/249 296/149/249
f 289/150/249 296/149/249 291/150/249
f 298/154/249 297/151/249 299/151/249
f 298/154/249 299/151/249 300/154/249
f 290/153/250 298/154/250 300/154/250
f 290/153/250 300/154/250 292/153/250
f 292/153/257 300/154/257 299/151/257
f 292/153/257 299/151/257 291/150/257
f 289/150/258 297/151/258 298/154/258
f 289/150/258 298/154/258 290/153/258
f 301/155/259 302/156/259 304/157/259
f 301/155/259 304/157/259 303/158/259
f 303/158/260 304/157/260 308/157/260
f 303/158/260 308/157/260 307/158/260
f 307/158/261 308/157/261 306/156/261
f 307/158/261 306/156/261 305/155/261
f 305/155/262 306/156/262 302/156/262
f 305/155/262 302/156/262 301/155/262
f 305/155/263 301/155/263 314/159/263
f 305/155/263 314/159/263 316/159/263
f 308/157/264 304/157/264 302/156/264
f 308/157/264 302/156/264 306/156/264
f 309/160/265 310/161/265 318/162/265
f 309/160/265 318/162/265 317/163/265
f 303/158/266 307/158/266 315/164/266
f 303/158/266 315/164/266 313/164/266
f 301/155/267 303/158/267 313/164/267
f 301/155/267 313/164/267 314/159/267
f 307/158/268 305/155/268 316/159/268
f 307/158/268 316/159/268 315/164/268
f 310/161/269 309/160/269 314/159/269
f 310/161/269 314/159/269 313/164/269
f 312/161/270 310/161/270 313/164/270
f 312/161/270 313/164/270 315/164/270
f 311/160/271 312/161/271 315/164/271
f 311/160/271 315/164/271 316/159/271
f 309/160/272 311/160/272 316/159/272
f 309/160/272 316/159/272 314/159/272
f 318/162/273 320/162/273 319/163/273
f 318/162/273 319/163/273 317/163/273
f 311/160/274 309/160/274 317/163/274
f 311/160/274 317/163/274 319/163/274
f 310/161/275 312/161/275 320/162/275
f 310/161/275 320/162/275 318/162/275
f 312/161/276 311/160/276 319/163/276
f 312/161/276 319/163/276 320/162/276
f 321/155/277 323/158/277 324/157/277
f 321/155/277 324/157/277 322/156/277
f 323/158/278 327/158/278 328/157/278
f 323/158/278 328/157/278 324/157/278
f 327/158/279 325/155/279 326/156/279
f 327/158/279 326/156/279 328/157/279
f 325/155/280 321/155/280 322/156/280
f 325/155/280 322/156/280 326/156/280
f 325/155/281 336/165/281 334/165/281
f 325/155/281 334/165/281 321/155/281
f 328/157/282 326/156/282 322/156/282
f 328/157/282 322/156/282 324/157/282
f 329/160/283 337/163/283 338/162/283
f 329/160/283 338/162/283 330/161/283
f 323/158/284 333/164/284 335/164/284
f 323/158/284 335/164/284 327/158/284
f 321/155/285 334/165/285 333/164/285
f 321/155/285 333/164/285 323/158/285
f 327/158/286 335/164/286 336/165/286
f 327/158/286 336/165/286 325/155/286
f 330/161/287 333/164/287 334/165/287
f 330/161/287 334/165/287 329/160/287
f 332/161/288 335/164/288 333/164/288
f 332/161/288 333/164/288 330/161/288
f 331/160/289 336/165/289 335/164/289
f 331/160/289 335/164/289 332/161/289
f 329/160/290 334/165/290 336/165/290
f 329/160/290 336/165/290 331/160/290
f 338/162/291 337/163/291 339/163/291
f 338/162/291 339/163/291 340/162/291
f 331/160/292 339/163/292 337/163/292
f 331/160/292 337/163/292 329/160/292
f 330/161/293 338/162/293 340/162/293
f 330/161/293 340/162/293 332/161/293
f 332/161/294 340/162/294 339/163/294
f 332/161/294 339/163/294 331/160/294
usemtl Material.002
f 351/166/295 350/167/295 344/168/295
f 351/166/295 344/168/295 346/169/295
f 352/170/295 351/166/295 346/169/295
f 352/170/295 346/169/295 343/171/295
f 353/172/296 355/173/296 349/174/296
f 353/172/296 349/174/296 347/175/296
f 355/173/297 354/176/297 348/177/297
f 355/173/297 348/177/297 349/174/297
f 347/175/298 349/174/298 351/166/298
f 347/175/298 351/166/298 352/170/298
f 349/174/299 348/177/299 350/167/299
f 349/174/299 350/167/299 351/166/299
f 345/178/300 342/179/300 354/176/300
f 345/178/300 354/176/300 355/173/300
f 341/180/301 345/178/301 355/173/301
f 341/180/301 355/173/301 353/172/301
f 372/181/302 371/182/302 359/183/302
f 372/181/302 359/183/302 361/184/302
f 373/185/303 372/181/303 361/184/303
f 373/185/303 361/184/303 358/186/303
f 356/187/304 360/188/304 364/189/304
f 356/187/304 364/189/304 362/190/304
f 360/188/305 357/191/305 363/192/305
f 360/188/305 363/192/305 364/189/305
f 362/190/306 364/189/306 366/193/306
f 362/190/306 366/193/306 367/194/306
f 364/189/307 363/192/307 365/195/307
f 364/189/307 365/195/307 366/193/307
f 367/194/308 366/193/308 369/196/308
f 367/194/308 369/196/308 370/197/308
f 366/193/309 365/195/309 368/198/309
f 366/193/309 368/198/309 369/196/309
f 370/197/310 369/196/310 372/181/310
f 370/197/310 372/181/310 373/185/310
f 369/196/311 368/198/311 371/182/311
f 369/196/311 371/182/311 372/181/311
f 384/166/312 379/169/312 377/168/312
f 384/166/312 377/168/312 383/167/312
f 385/170/312 376/171/312 379/169/312
f 385/170/312 379/169/312 384/166/312
f 386/172/313 380/175/313 382/174/313
f 386/172/313 382/174/313 388/173/313
f 388/173/314 382/174/314 381/177/314
f 388/173/314 381/177/314 387/176/314
f 380/175/315 385/170/315 384/166/315
f 380/175/315 384/166/315 382/174/315
f 382/174/316 384/166/316 383/167/316
f 382/174/316 383/167/316 381/177/316
f 378/178/317 388/173/317 387/176/317
f 378/178/317 387/176/317 375/179/317
f 374/180/318 386/172/318 388/173/318
f 374/180/318 388/173/318 378/178/318
f 405/181/319 394/184/319 392/183/319
f 405/181/319 392/183/319 404/182/319
f 406/185/320 391/186/320 394/184/320
f 406/185/320 394/184/320 405/181/320
f 389/187/321 395/190/321 397/189/321
f 389/187/321 397/189/321 393/188/321
f 393/188/322 397/189/322 396/192/322
f 393/188/322 396/192/322 390/191/322
f 395/190/323 400/194/323 399/193/323
f 395/190/323 399/193/323 397/189/323
f 397/189/324 399/193/324 398/195/324
f 397/189/324 398/195/324 396/192/324
f 400/194/325 403/197/325 402/196/325
f 400/194/325 402/196/325 399/193/325
f 399/193/326 402/196/326 401/198/326
f 399/193/326 401/198/326 398/195/326
f 403/197/327 406/185/327 405/181/327
f 403/197/327 405/181/327 402/196/327
f 402/196/328 405/181/328 404/182/328
f 402/196/328 404/182/328 401/198/328
