# Blender 4.5.5 LTS
# www.blender.org
mtllib Animal_Cricket.mtl
o Cricket
v -0.000000 0.229526 -0.086943
v 0.000000 0.215398 -0.091487
v 0.000000 0.203301 -0.088721
v -0.000000 0.221144 -0.057023
v 0.000000 0.210046 -0.057309
v 0.000000 0.197302 -0.063289
v 0.000000 0.195071 -0.077418
v -0.000000 0.231526 -0.069666
v -0.009181 0.221291 -0.062883
v -0.012102 0.210772 -0.063691
v -0.010472 0.198696 -0.069791
v -0.012535 0.227378 -0.078984
v -0.016372 0.213385 -0.083188
v -0.010472 0.201793 -0.082505
v -0.000000 0.222605 -0.055658
v 0.000000 0.207677 -0.056562
v -0.012535 0.223452 -0.063361
v -0.016372 0.209044 -0.065335
v -0.000000 0.222973 -0.055166
v 0.000000 0.210098 -0.055161
v -0.015224 0.220057 -0.056817
v -0.015975 0.212561 -0.056008
v 0.000000 0.230873 -0.048451
v 0.000000 0.200487 -0.047428
v -0.020216 0.227609 -0.052915
v -0.023694 0.203079 -0.053152
v -0.000000 0.233364 -0.038295
v 0.000000 0.199644 -0.037377
v -0.021480 0.229982 -0.043511
v -0.025339 0.201982 -0.043792
v -0.000000 0.229611 -0.021372
v 0.000000 0.201533 -0.022988
v -0.018955 0.226994 -0.026764
v -0.022142 0.204633 -0.027342
v -0.000000 0.229880 0.006816
v -0.000000 0.190224 0.001345
v -0.020168 0.228105 -0.000103
v -0.024891 0.195323 -0.004698
v -0.000000 0.226617 0.037357
v -0.000172 0.181857 0.031143
v -0.019179 0.224521 0.029869
v -0.025672 0.186107 0.023491
v -0.000000 0.218496 0.068898
v -0.000000 0.181918 0.063695
v -0.020691 0.216397 0.062640
v -0.025299 0.184899 0.057243
v -0.000000 0.207150 0.112083
v -0.000000 0.178613 0.108174
v -0.018504 0.204733 0.108812
v -0.019355 0.181532 0.105123
v -0.000000 0.180456 0.183363
v -0.000000 0.177033 0.182916
v -0.003408 0.178978 0.183068
v -0.003409 0.178297 0.182955
v -0.011381 0.191685 0.152749
v -0.000000 0.176130 0.152031
v -0.011559 0.178707 0.150750
v -0.000000 0.194266 0.154472
v 0.009181 0.221291 -0.062883
v 0.012102 0.210772 -0.063691
v 0.010472 0.198696 -0.069791
v 0.012535 0.227378 -0.078984
v 0.016372 0.213385 -0.083188
v 0.010472 0.201793 -0.082505
v 0.012535 0.223453 -0.063358
v 0.016372 0.209044 -0.065335
v 0.015224 0.220057 -0.056817
v 0.015975 0.212561 -0.056008
v 0.020216 0.227609 -0.052915
v 0.023694 0.203079 -0.053152
v 0.021480 0.229982 -0.043511
v 0.025339 0.201982 -0.043792
v 0.018955 0.226994 -0.026764
v 0.022189 0.204667 -0.027310
v 0.020168 0.228106 -0.000102
v 0.025003 0.195398 -0.004565
v 0.019132 0.224415 0.029953
v 0.024834 0.185399 0.023349
v 0.020691 0.216397 0.062640
v 0.025075 0.184694 0.057190
v 0.018504 0.204733 0.108812
v 0.019355 0.181532 0.105123
v 0.003408 0.178978 0.183068
v 0.003409 0.178297 0.182955
v 0.011381 0.191685 0.152749
v 0.011559 0.178707 0.150750
v -0.006214 0.226946 -0.082382
v -0.005727 0.228345 -0.079671
v -0.007786 0.233914 -0.086548
v -0.007374 0.236171 -0.085313
v -0.003400 0.227112 -0.082990
v -0.002912 0.228526 -0.080273
v -0.005410 0.233760 -0.087055
v -0.004998 0.236017 -0.085821
v -0.015424 0.247790 -0.115410
v -0.015086 0.249821 -0.114830
v -0.013474 0.247575 -0.115789
v -0.013136 0.249606 -0.115208
v -0.023952 0.261405 -0.168749
v -0.023800 0.262315 -0.168489
v -0.023078 0.261309 -0.168918
v -0.022926 0.262219 -0.168658
v 0.006214 0.226946 -0.082382
v 0.005727 0.228345 -0.079671
v 0.007786 0.233914 -0.086548
v 0.007374 0.236171 -0.085313
v 0.003400 0.227112 -0.082990
v 0.002912 0.228526 -0.080273
v 0.005410 0.233760 -0.087055
v 0.004998 0.236017 -0.085821
v 0.015424 0.247790 -0.115410
v 0.015086 0.249821 -0.114830
v 0.013474 0.247575 -0.115789
v 0.013136 0.249606 -0.115208
v 0.023952 0.261405 -0.168749
v 0.023800 0.262315 -0.168489
v 0.023078 0.261309 -0.168918
v 0.022926 0.262219 -0.168658
v -0.013077 0.225487 -0.079320
v -0.014550 0.220710 -0.082900
v -0.016023 0.214823 -0.081906
v -0.013077 0.222810 -0.068278
v -0.014550 0.216923 -0.067285
v -0.016023 0.212145 -0.070865
v -0.016633 0.211276 -0.076921
v -0.012467 0.226357 -0.073264
v -0.017828 0.224719 -0.070738
v -0.021270 0.219623 -0.070763
v -0.020775 0.214055 -0.073324
v -0.017828 0.226058 -0.076259
v -0.021270 0.221516 -0.078571
v -0.020775 0.215394 -0.078845
v 0.013077 0.225487 -0.079320
v 0.014550 0.220710 -0.082900
v 0.016023 0.214823 -0.081906
v 0.013077 0.222810 -0.068278
v 0.014550 0.216923 -0.067285
v 0.016023 0.212145 -0.070865
v 0.016633 0.211276 -0.076921
v 0.012467 0.226357 -0.073264
v 0.017828 0.224719 -0.070738
v 0.021270 0.219623 -0.070763
v 0.020775 0.214055 -0.073324
v 0.017828 0.226058 -0.076259
v 0.021270 0.221516 -0.078571
v 0.020775 0.215394 -0.078845
v -0.018194 0.196413 -0.028830
v -0.018768 0.204788 -0.028673
v -0.016553 0.197236 -0.038660
v -0.015014 0.200608 -0.042086
v -0.009109 0.196256 -0.027326
v -0.009184 0.206761 -0.026606
v -0.007468 0.197079 -0.037156
v -0.005431 0.202581 -0.040019
v -0.018013 0.191891 -0.030384
v -0.017334 0.193434 -0.038723
v -0.010338 0.193049 -0.029625
v -0.009658 0.194591 -0.037964
v -0.015452 0.181888 -0.043510
v -0.015997 0.186834 -0.050562
v -0.007707 0.183452 -0.043110
v -0.008252 0.188398 -0.050162
v -0.014132 0.175439 -0.057620
v -0.014555 0.178072 -0.062279
v -0.008901 0.176822 -0.057238
v -0.009381 0.179660 -0.061848
v -0.012352 0.173755 -0.060251
v -0.012279 0.174934 -0.063849
v -0.008811 0.174940 -0.059802
v -0.008746 0.176129 -0.063391
v -0.010813 0.157082 -0.063540
v -0.011202 0.158417 -0.065732
v -0.008255 0.157901 -0.063313
v -0.008629 0.159464 -0.065517
v -0.011498 0.158431 -0.065975
v -0.011031 0.156841 -0.063344
v -0.008413 0.159742 -0.065707
v -0.007963 0.157841 -0.063064
v -0.010716 0.138245 -0.054981
v -0.010839 0.137875 -0.056421
v -0.009238 0.138062 -0.055060
v -0.009360 0.137692 -0.056500
v 0.018119 0.196451 -0.028765
v 0.018599 0.204831 -0.028581
v 0.016604 0.197281 -0.038615
v 0.015075 0.200645 -0.042054
v 0.009016 0.196191 -0.027387
v 0.008967 0.206694 -0.026641
v 0.007501 0.197021 -0.037237
v 0.005444 0.202508 -0.040114
v 0.018009 0.191931 -0.030333
v 0.017427 0.193487 -0.038677
v 0.010311 0.193003 -0.029677
v 0.009729 0.194559 -0.038021
v 0.015737 0.181934 -0.043517
v 0.016324 0.186903 -0.050549
v 0.007970 0.183412 -0.043219
v 0.008557 0.188382 -0.050251
v 0.014685 0.175515 -0.057655
v 0.015136 0.178163 -0.062309
v 0.009431 0.176833 -0.057345
v 0.009934 0.179679 -0.061948
v 0.012980 0.173823 -0.060292
v 0.012932 0.174985 -0.063895
v 0.009414 0.174950 -0.059892
v 0.009373 0.176121 -0.063487
v 0.011775 0.157108 -0.063518
v 0.012159 0.158433 -0.065719
v 0.009198 0.157887 -0.063324
v 0.009571 0.159445 -0.065532
v 0.012455 0.158448 -0.065961
v 0.011995 0.156872 -0.063318
v 0.009353 0.159719 -0.065725
v 0.008904 0.157823 -0.063079
v 0.011664 0.138245 -0.054981
v 0.011786 0.137875 -0.056421
v 0.010185 0.138062 -0.055060
v 0.010308 0.137692 -0.056500
v -0.023870 0.192837 -0.003930
v -0.029812 0.199907 -0.006308
v -0.024675 0.195447 -0.014451
v -0.030307 0.202403 -0.017710
v -0.019073 0.198278 -0.002948
v -0.023913 0.206599 -0.005099
v -0.019878 0.200888 -0.013468
v -0.024408 0.209094 -0.016502
v -0.020557 0.188296 -0.004678
v -0.021104 0.190527 -0.013232
v -0.014960 0.191044 -0.004320
v -0.015507 0.193274 -0.012873
v -0.023276 0.180912 -0.006050
v -0.023826 0.183752 -0.016863
v -0.015872 0.182277 -0.006072
v -0.016428 0.185115 -0.016873
v -0.021685 0.171044 -0.015311
v -0.021930 0.172342 -0.020917
v -0.018554 0.171801 -0.015294
v -0.018787 0.173040 -0.020876
v -0.022938 0.172328 -0.021910
v -0.022602 0.170559 -0.014347
v -0.017839 0.173456 -0.021841
v -0.017523 0.171790 -0.014322
v -0.014987 0.155791 -0.008643
v -0.017115 0.155465 -0.014340
v -0.013019 0.155818 -0.009782
v -0.014019 0.156132 -0.014382
v -0.014925 0.137675 -0.005243
v -0.016195 0.137232 -0.006565
v -0.014178 0.137747 -0.005985
v -0.015448 0.137304 -0.007307
v 0.023724 0.193121 -0.004011
v 0.029213 0.200485 -0.006579
v 0.024312 0.195544 -0.014590
v 0.029493 0.202756 -0.018036
v 0.018611 0.198281 -0.003113
v 0.022925 0.206831 -0.005475
v 0.019199 0.200704 -0.013692
v 0.023205 0.209102 -0.016932
v 0.020689 0.188372 -0.004639
v 0.021053 0.190444 -0.013241
v 0.014938 0.190782 -0.004302
v 0.015302 0.192855 -0.012904
v 0.023845 0.181139 -0.005869
v 0.024172 0.183767 -0.016738
v 0.016371 0.182051 -0.005872
v 0.016695 0.184681 -0.016734
v 0.022798 0.170978 -0.014904
v 0.022998 0.172190 -0.020512
v 0.019632 0.171559 -0.014885
v 0.019839 0.172808 -0.020497
v 0.024017 0.172199 -0.021496
v 0.023748 0.170569 -0.013936
v 0.018893 0.173205 -0.021472
v 0.018611 0.171506 -0.013905
v 0.015526 0.155620 -0.008766
v 0.017694 0.155290 -0.014444
v 0.013490 0.155581 -0.009919
v 0.014611 0.156022 -0.014550
v 0.015915 0.137651 -0.004875
v 0.017165 0.137194 -0.006211
v 0.015151 0.137689 -0.005602
v 0.016401 0.137232 -0.006939
v -0.027422 0.193757 0.007684
v -0.022834 0.198280 0.008930
v -0.024106 0.195435 -0.001324
v -0.018343 0.200021 0.000036
v -0.024478 0.192403 0.011808
v -0.013888 0.197242 0.013266
v -0.017933 0.194564 0.002881
v -0.009409 0.199080 0.004455
v -0.027073 0.189322 0.004414
v -0.027963 0.188826 0.007204
v -0.021653 0.188830 0.006965
v -0.025309 0.188177 0.009195
v -0.034096 0.200167 0.024358
v -0.024090 0.200189 0.025896
v -0.035766 0.182634 0.014402
v -0.024242 0.182095 0.014443
v -0.038396 0.187396 0.059566
v -0.023039 0.187513 0.061018
v -0.041022 0.164353 0.041091
v -0.023493 0.163713 0.041157
v -0.034383 0.147972 0.091842
v -0.027036 0.148026 0.092506
v -0.035587 0.138199 0.081371
v -0.027207 0.138300 0.080987
v -0.032643 0.124057 0.113127
v -0.028627 0.124086 0.113490
v -0.033301 0.118715 0.107403
v -0.028721 0.118770 0.107193
v -0.032143 0.108256 0.124882
v -0.028898 0.108230 0.125155
v -0.032672 0.105179 0.121796
v -0.028997 0.105294 0.121619
v -0.032569 0.109459 0.126196
v -0.028502 0.109493 0.126564
v -0.033235 0.103982 0.120461
v -0.028596 0.104036 0.120249
v -0.031293 0.098778 0.127124
v -0.028011 0.098922 0.127016
v -0.032173 0.096265 0.123797
v -0.028523 0.096192 0.123359
v -0.031257 0.004174 0.174715
v -0.028908 0.004031 0.174732
v -0.031806 0.001700 0.172035
v -0.029145 0.001708 0.171871
v -0.031115 -0.021717 0.189220
v -0.029898 -0.021745 0.189322
v -0.031339 -0.022936 0.188136
v -0.029960 -0.022924 0.188065
v -0.030620 0.094442 0.128848
v -0.029646 0.095886 0.134101
v -0.030594 0.096172 0.128482
v -0.029641 0.096266 0.134021
v -0.029224 0.094400 0.128747
v -0.029340 0.095877 0.134079
v -0.029198 0.096129 0.128381
v -0.029334 0.096257 0.133999
v -0.030534 0.073795 0.138701
v -0.029564 0.074944 0.144027
v -0.030500 0.075542 0.138431
v -0.029557 0.075328 0.143968
v -0.029138 0.073753 0.138599
v -0.029257 0.074935 0.144005
v -0.029105 0.075500 0.138329
v -0.029250 0.075318 0.143945
v -0.030781 0.084971 0.130604
v -0.030532 0.081355 0.128010
v -0.030744 0.083586 0.131703
v -0.030524 0.081051 0.128251
v -0.029386 0.084928 0.130502
v -0.030225 0.081346 0.127988
v -0.029348 0.083543 0.131601
v -0.030217 0.081042 0.128229
v -0.030647 0.062964 0.141696
v -0.030397 0.059348 0.139102
v -0.030609 0.061579 0.142794
v -0.030389 0.059044 0.139343
v -0.029251 0.062921 0.141594
v -0.030091 0.059339 0.139079
v -0.029213 0.061536 0.142693
v -0.030082 0.059035 0.139321
v -0.030392 0.048094 0.151437
v -0.029419 0.049538 0.156690
v -0.030366 0.049824 0.151071
v -0.029413 0.049918 0.156610
v -0.028997 0.048051 0.151336
v -0.029112 0.049528 0.156668
v -0.028971 0.049781 0.150970
v -0.029107 0.049908 0.156588
v -0.030292 0.025581 0.162266
v -0.029322 0.026730 0.167593
v -0.030259 0.027328 0.161996
v -0.029315 0.027114 0.167533
v -0.028897 0.025538 0.162165
v -0.029016 0.026720 0.167570
v -0.028863 0.027286 0.161895
v -0.029008 0.027104 0.167511
v -0.030491 0.039141 0.153833
v -0.030242 0.035525 0.151239
v -0.030454 0.037756 0.154932
v -0.030234 0.035221 0.151480
v -0.029096 0.039098 0.153732
v -0.029936 0.035516 0.151217
v -0.029058 0.037713 0.154830
v -0.029927 0.035212 0.151458
v -0.030385 0.017853 0.164238
v -0.030135 0.014238 0.161644
v -0.030347 0.016468 0.165337
v -0.030127 0.013933 0.161886
v -0.028989 0.017811 0.164137
v -0.029829 0.014228 0.161622
v -0.028952 0.016426 0.165236
v -0.029821 0.013924 0.161864
v -0.030171 0.005918 0.172190
v -0.029201 0.007067 0.177517
v -0.030137 0.007666 0.171920
v -0.029194 0.007451 0.177457
v -0.028775 0.005876 0.172089
v -0.028895 0.007058 0.177494
v -0.028742 0.007623 0.171819
v -0.028887 0.007442 0.177435
v 0.027223 0.193454 0.007980
v 0.022731 0.198093 0.009148
v 0.024474 0.195542 -0.001135
v 0.018801 0.200285 0.000069
v 0.024021 0.192031 0.011920
v 0.013526 0.197225 0.012947
v 0.018050 0.194758 0.002696
v 0.009609 0.199522 0.003965
v 0.026907 0.189151 0.004540
v 0.027622 0.188535 0.007350
v 0.021337 0.188788 0.006766
v 0.024827 0.187929 0.009115
v 0.033173 0.198526 0.025193
v 0.023090 0.198835 0.026196
v 0.034765 0.181662 0.014499
v 0.023241 0.181600 0.013909
v 0.035412 0.184911 0.058686
v 0.020039 0.185373 0.059910
v 0.037841 0.161505 0.040335
v 0.020314 0.161548 0.039541
v 0.030443 0.147595 0.092920
v 0.023093 0.147807 0.093506
v 0.031576 0.137218 0.083038
v 0.023204 0.137434 0.082566
v 0.028106 0.124975 0.115522
v 0.024088 0.125091 0.115842
v 0.028725 0.119303 0.110121
v 0.024148 0.119421 0.109862
v 0.027232 0.109886 0.128158
v 0.023984 0.109929 0.128400
v 0.027737 0.106628 0.125259
v 0.024065 0.106794 0.125039
v 0.027667 0.111156 0.129405
v 0.023598 0.111278 0.129730
v 0.028291 0.105348 0.124001
v 0.023656 0.105465 0.123739
v 0.026644 0.100630 0.131356
v 0.023457 0.100440 0.131078
v 0.027936 0.098165 0.127982
v 0.024316 0.097881 0.127368
v 0.030928 0.004248 0.175338
v 0.028601 0.003965 0.175247
v 0.031792 0.001676 0.172400
v 0.029136 0.001661 0.172219
v 0.031115 -0.021442 0.189993
v 0.029898 -0.021468 0.190095
v 0.031340 -0.022682 0.188932
v 0.029961 -0.022672 0.188861
v 0.026289 0.096052 0.132877
v 0.025002 0.097220 0.138131
v 0.026165 0.097789 0.132575
v 0.024974 0.097602 0.138065
v 0.024905 0.095924 0.132712
v 0.024697 0.097192 0.138095
v 0.024781 0.097662 0.132409
v 0.024670 0.097574 0.138028
v 0.027142 0.075066 0.141946
v 0.025874 0.075937 0.147262
v 0.027005 0.076817 0.141740
v 0.025844 0.076322 0.147217
v 0.025758 0.074938 0.141781
v 0.025570 0.075909 0.147226
v 0.025621 0.076689 0.141574
v 0.025540 0.076294 0.147181
v 0.026997 0.086547 0.134287
v 0.027096 0.083029 0.131553
v 0.027004 0.085121 0.135331
v 0.027097 0.082716 0.131782
v 0.025613 0.086420 0.134122
v 0.026792 0.083001 0.131516
v 0.025620 0.084993 0.135166
v 0.026793 0.082688 0.131746
v 0.027838 0.064153 0.144541
v 0.027937 0.060635 0.141806
v 0.027845 0.062726 0.145585
v 0.027939 0.060322 0.142036
v 0.026454 0.064026 0.144376
v 0.027633 0.060607 0.141770
v 0.026461 0.062599 0.145420
v 0.027634 0.060294 0.141999
v 0.028149 0.048922 0.153705
v 0.026862 0.050090 0.158959
v 0.028025 0.050659 0.153402
v 0.026835 0.050472 0.158893
v 0.026765 0.048794 0.153540
v 0.026558 0.050062 0.158923
v 0.026641 0.050532 0.153237
v 0.026531 0.050444 0.158856
v 0.029069 0.026036 0.163679
v 0.027802 0.026907 0.168996
v 0.028933 0.027786 0.163473
v 0.027772 0.027292 0.168950
v 0.027685 0.025908 0.163514
v 0.027498 0.026879 0.168959
v 0.027548 0.027659 0.163308
v 0.027468 0.027264 0.168914
v 0.028734 0.039905 0.155770
v 0.028833 0.036387 0.153036
v 0.028741 0.038478 0.156814
v 0.028834 0.036074 0.153265
v 0.027350 0.039777 0.155605
v 0.028529 0.036359 0.153000
v 0.027357 0.038350 0.156649
v 0.028530 0.036045 0.153229
v 0.029585 0.018257 0.165367
v 0.029684 0.014739 0.162632
v 0.029592 0.016830 0.166411
v 0.029685 0.014426 0.162862
v 0.028201 0.018130 0.165202
v 0.029380 0.014711 0.162596
v 0.028208 0.016703 0.166246
v 0.029381 0.014398 0.162825
v 0.029820 0.006026 0.172854
v 0.028552 0.006898 0.178171
v 0.029683 0.007777 0.172648
v 0.028522 0.007283 0.178125
v 0.028435 0.005899 0.172689
v 0.028248 0.006870 0.178134
v 0.028299 0.007649 0.172483
v 0.028218 0.007254 0.178089
vn -0.0000 0.7323 -0.6810
vn -0.0000 0.0697 -0.9976
vn -0.0000 -0.5024 -0.8646
vn -0.0001 0.6051 0.7961
vn -0.0000 -0.6564 0.7544
vn -0.0000 -0.8034 0.5955
vn -0.0000 -0.9719 -0.2352
vn -0.0000 0.9729 0.2311
vn -0.7400 0.1278 0.6603
vn -0.6298 -0.1306 0.7657
vn -0.6195 -0.7536 0.2200
vn -0.7003 0.6610 -0.2696
vn -0.8623 -0.0191 -0.5060
vn -0.6124 -0.5984 -0.5166
vn -0.0001 0.1061 0.9944
vn -0.0000 -0.1607 0.9870
vn -0.6908 0.4180 0.5900
vn -0.8520 -0.1954 0.4856
vn -0.0000 0.8236 -0.5672
vn -0.0000 -0.8789 -0.4771
vn -0.4341 0.4013 -0.8066
vn -0.4395 -0.3108 -0.8428
vn -0.0000 0.8552 -0.5183
vn -0.0000 -0.8796 -0.4758
vn -0.5475 0.5941 -0.5893
vn -0.6046 -0.5461 -0.5798
vn -0.0000 0.9999 0.0149
vn 0.0002 -0.9988 0.0485
vn -0.6967 0.7166 -0.0315
vn -0.7880 -0.6157 0.0029
vn -0.0000 0.9974 0.0720
vn 0.0012 -0.9862 -0.1654
vn -0.7139 0.6920 0.1068
vn -0.8334 -0.5524 -0.0177
vn 0.0009 0.9983 0.0589
vn -0.0036 -0.9398 -0.3418
vn -0.6885 0.7251 0.0144
vn -0.7790 -0.5699 -0.2614
vn 0.0011 0.9815 0.1917
vn -0.0076 -0.9917 -0.1287
vn -0.6888 0.7155 0.1167
vn -0.7689 -0.6277 -0.1218
vn 0.0004 0.9688 0.2478
vn -0.0039 -0.9991 -0.0426
vn -0.7312 0.6582 0.1790
vn -0.8028 -0.5962 0.0107
vn -0.0000 0.9598 0.2806
vn -0.0008 -0.9986 -0.0530
vn -0.7454 0.6177 0.2507
vn -0.7690 -0.6372 0.0509
vn -0.0000 0.5675 0.8233
vn -0.0000 -0.8019 0.5974
vn -0.5687 0.2837 0.7720
vn -0.5695 -0.5330 0.6258
vn -0.7555 0.5585 0.3425
vn -0.0000 -1.0000 0.0012
vn -0.7624 -0.6352 0.1237
vn -0.0000 0.9266 0.3760
vn 0.7400 0.1277 0.6604
vn 0.6297 -0.1307 0.7657
vn 0.6195 -0.7536 0.2200
vn 0.7002 0.6611 -0.2696
vn 0.8623 -0.0191 -0.5060
vn 0.6124 -0.5984 -0.5166
vn 0.6908 0.4179 0.5901
vn 0.8520 -0.1954 0.4857
vn 0.4341 0.4013 -0.8066
vn 0.4395 -0.3108 -0.8428
vn 0.5475 0.5941 -0.5893
vn 0.6046 -0.5461 -0.5798
vn 0.6966 0.7168 -0.0320
vn 0.7878 -0.6160 0.0026
vn 0.7132 0.6929 0.1060
vn 0.8346 -0.5506 -0.0185
vn 0.6906 0.7230 0.0200
vn 0.7837 -0.5662 -0.2554
vn 0.6944 0.7097 0.1186
vn 0.7511 -0.6479 -0.1271
vn 0.7352 0.6551 0.1740
vn 0.7994 -0.6007 0.0073
vn 0.7463 0.6169 0.2499
vn 0.7686 -0.6377 0.0506
vn 0.5687 0.2837 0.7720
vn 0.5695 -0.5330 0.6258
vn 0.7555 0.5585 0.3425
vn 0.7624 -0.6352 0.1237
vn -0.5760 -0.8143 -0.0714
vn -0.3500 -0.2027 0.9146
vn -0.8607 -0.4773 -0.1770
vn -0.5081 0.6019 0.6160
vn 0.5634 -0.7401 -0.3673
vn 0.7662 -0.1528 0.6241
vn 0.6151 -0.4593 -0.6409
vn 0.7518 0.5979 0.2780
vn -0.8192 -0.5725 -0.0345
vn -0.5707 0.7339 0.3683
vn 0.5843 -0.7089 -0.3951
vn 0.7633 0.6440 0.0524
vn -0.7379 -0.3355 -0.5856
vn -0.5681 0.7649 -0.3037
vn 0.3774 -0.4587 -0.8044
vn 0.5599 0.6411 -0.5248
vn 0.5760 -0.8143 -0.0714
vn 0.3500 -0.2027 0.9146
vn 0.8607 -0.4773 -0.1770
vn 0.5081 0.6019 0.6160
vn -0.5634 -0.7401 -0.3673
vn -0.7662 -0.1528 0.6241
vn -0.6151 -0.4593 -0.6409
vn -0.7518 0.5979 0.2780
vn 0.8192 -0.5725 -0.0345
vn 0.5707 0.7339 0.3683
vn -0.5843 -0.7089 -0.3951
vn -0.7633 0.6440 0.0524
vn 0.7379 -0.3355 -0.5856
vn 0.5681 0.7649 -0.3037
vn -0.3774 -0.4587 -0.8045
vn -0.5599 0.6411 -0.5248
vn 0.6022 0.5787 -0.5499
vn 0.4117 0.1058 -0.9052
vn 0.3044 -0.4991 -0.8113
vn 0.6022 0.2625 0.7539
vn 0.4117 -0.3206 0.8531
vn 0.3044 -0.8153 0.4925
vn 0.2657 -0.9369 -0.2272
vn 0.7129 0.6815 0.1653
vn -0.4668 0.6866 0.5574
vn -0.8364 0.1004 0.5388
vn -0.8040 -0.5341 0.2613
vn -0.4668 0.8657 -0.1809
vn -0.8364 0.3361 -0.4330
vn -0.8040 -0.3550 -0.4770
vn -0.6022 0.5787 -0.5499
vn -0.4117 0.1058 -0.9052
vn -0.3044 -0.4991 -0.8113
vn -0.6022 0.2625 0.7539
vn -0.4117 -0.3206 0.8531
vn -0.3044 -0.8153 0.4925
vn -0.2657 -0.9369 -0.2272
vn -0.7129 0.6815 0.1653
vn 0.4668 0.6866 0.5574
vn 0.8364 0.1004 0.5388
vn 0.8040 -0.5341 0.2613
vn 0.4668 0.8657 -0.1809
vn 0.8364 0.3361 -0.4330
vn 0.8040 -0.3550 -0.4770
vn -0.7787 -0.1489 0.6095
vn -0.7192 0.5890 0.3686
vn -0.6833 -0.1128 -0.7214
vn -0.3503 0.1450 -0.9254
vn 0.5306 -0.3420 0.7756
vn 0.3927 0.6972 0.5997
vn 0.8298 -0.4415 -0.3414
vn 0.7265 0.3388 -0.5979
vn -0.6805 -0.4959 0.5394
vn -0.8404 0.2703 -0.4698
vn 0.4950 -0.6291 0.5993
vn 0.7826 0.2122 -0.5853
vn -0.5814 -0.7345 0.3498
vn -0.7692 0.4930 -0.4066
vn 0.7760 -0.5156 0.3633
vn 0.6400 0.6490 -0.4113
vn -0.6136 -0.7490 0.2499
vn -0.7341 0.1961 -0.6501
vn 0.7991 -0.5271 0.2892
vn 0.5543 0.5554 -0.6199
vn -0.6431 -0.5884 0.4900
vn -0.5614 0.0329 -0.8269
vn 0.8403 -0.2701 0.4701
vn 0.6789 0.2682 -0.6835
vn -0.3688 -0.9130 -0.1743
vn 0.2226 -0.6933 -0.6854
vn 0.7185 -0.5955 -0.3594
vn 0.4005 -0.6553 -0.6405
vn -0.5023 -0.4322 -0.7490
vn -0.3948 -0.8842 0.2497
vn 0.6720 -0.1906 -0.7156
vn 0.6800 -0.6279 0.3787
vn -0.6002 -0.2693 0.7531
vn -0.6030 -0.7372 -0.3047
vn 0.5026 -0.4885 0.7133
vn 0.5402 -0.7375 -0.4054
vn 0.7719 -0.1420 0.6197
vn 0.7076 0.5958 0.3798
vn 0.6943 -0.1035 -0.7122
vn 0.3613 0.1511 -0.9201
vn -0.5374 -0.3497 0.7674
vn -0.4085 0.6914 0.5959
vn -0.8201 -0.4496 -0.3538
vn -0.7219 0.3324 -0.6070
vn 0.6784 -0.4898 0.5475
vn 0.8438 0.2806 -0.4575
vn -0.4963 -0.6359 0.5910
vn -0.7767 0.2052 -0.5954
vn 0.5846 -0.7291 0.3559
vn 0.7691 0.5026 -0.3949
vn -0.7751 -0.5251 0.3514
vn -0.6416 0.6430 -0.4183
vn 0.6195 -0.7415 0.2575
vn 0.7393 0.2066 -0.6409
vn -0.7971 -0.5366 0.2768
vn -0.5533 0.5473 -0.6280
vn 0.6469 -0.5769 0.4987
vn 0.5701 0.0389 -0.8206
vn -0.8421 -0.2830 0.4590
vn -0.6749 0.2535 -0.6930
vn 0.3765 -0.9102 -0.1724
vn -0.2088 -0.7015 -0.6814
vn -0.7090 -0.6062 -0.3603
vn -0.3861 -0.6642 -0.6401
vn 0.5152 -0.4302 -0.7413
vn 0.4064 -0.8758 0.2605
vn -0.6608 -0.2055 -0.7219
vn -0.6736 -0.6377 0.3737
vn 0.5961 -0.2711 0.7558
vn 0.6057 -0.7348 -0.3053
vn -0.5081 -0.4862 0.7110
vn -0.5367 -0.7393 -0.4066
vn -0.5946 -0.4404 0.6727
vn -0.8850 -0.0545 0.4624
vn -0.3807 -0.5265 -0.7601
vn -0.6964 0.0374 -0.7166
vn 0.4793 0.3377 0.8101
vn 0.0601 0.7893 0.6110
vn 0.7775 0.2839 -0.5611
vn 0.1090 0.8390 -0.5331
vn -0.5183 -0.2246 0.8252
vn -0.6676 0.0845 -0.7397
vn 0.7679 0.0356 0.6396
vn 0.7936 0.2751 -0.5427
vn -0.6546 -0.2425 0.7160
vn -0.7727 0.3443 -0.5332
vn 0.6969 -0.3395 0.6317
vn 0.6494 0.2640 -0.7131
vn -0.1643 -0.9800 0.1122
vn 0.0477 -0.9173 -0.3954
vn 0.7103 -0.7021 0.0502
vn 0.3516 -0.8229 -0.4464
vn -0.5071 -0.4643 -0.7261
vn -0.4788 -0.8389 0.2587
vn 0.5549 -0.3166 -0.7693
vn 0.6520 -0.7203 0.2368
vn -0.3420 0.1955 0.9191
vn -0.7410 -0.3858 -0.5496
vn 0.8899 0.1902 0.4146
vn 0.6789 -0.1436 -0.7201
vn -0.1689 -0.4864 0.8572
vn -0.5810 -0.8051 -0.1197
vn 0.8403 -0.4431 0.3124
vn 0.4230 -0.6878 -0.5899
vn 0.6239 -0.3888 0.6780
vn 0.8892 0.0093 0.4575
vn 0.4079 -0.5189 -0.7512
vn 0.6890 0.0639 -0.7220
vn -0.4945 0.3257 0.8058
vn -0.1046 0.7974 0.5943
vn -0.7964 0.2239 -0.5618
vn -0.1627 0.8190 -0.5503
vn 0.5354 -0.1746 0.8264
vn 0.6572 0.1087 -0.7459
vn -0.7652 0.0030 0.6438
vn -0.8117 0.2146 -0.5432
vn 0.6711 -0.1861 0.7177
vn 0.7496 0.3793 -0.5425
vn -0.6724 -0.3680 0.6423
vn -0.6668 0.2077 -0.7157
vn 0.1912 -0.9755 0.1089
vn -0.0043 -0.9236 -0.3834
vn -0.6875 -0.7215 0.0825
vn -0.3308 -0.8228 -0.4621
vn 0.5285 -0.4545 -0.7170
vn 0.5264 -0.8048 0.2743
vn -0.5390 -0.3436 -0.7690
vn -0.6097 -0.7521 0.2504
vn 0.3315 0.1993 0.9221
vn 0.7317 -0.3916 -0.5579
vn -0.9017 0.1735 0.3961
vn -0.6735 -0.1336 -0.7270
vn 0.1853 -0.4540 0.8715
vn 0.5971 -0.7962 -0.0981
vn -0.8272 -0.4574 0.3265
vn -0.4073 -0.7108 -0.5735
vn -0.7543 0.6225 -0.2087
vn -0.4360 0.8238 0.3622
vn -0.4130 0.0526 -0.9092
vn 0.0798 0.6595 -0.7474
vn 0.8528 0.3890 0.3483
vn 0.5418 0.0777 0.8369
vn 0.5104 -0.7342 -0.4477
vn 0.9652 0.2200 -0.1416
vn -0.5366 -0.5949 -0.5985
vn -0.6290 -0.4503 -0.6337
vn 0.6371 -0.7694 0.0463
vn 0.6070 -0.7611 -0.2285
vn -0.5429 0.8298 -0.1295
vn 0.6604 0.7509 -0.0023
vn -0.7075 -0.3519 -0.6129
vn 0.6826 -0.5516 -0.4794
vn -0.6701 0.6150 0.4156
vn 0.6455 0.6066 0.4640
vn -0.7677 -0.5217 -0.3722
vn 0.6984 -0.6043 -0.3834
vn -0.7007 0.4246 0.5733
vn 0.6832 0.4330 0.5880
vn -0.7396 -0.5888 -0.3260
vn 0.6937 -0.6174 -0.3710
vn -0.6975 0.4617 0.5480
vn 0.6794 0.4758 0.5587
vn -0.7594 -0.4977 -0.4191
vn 0.7118 -0.5298 -0.4611
vn -0.2099 -0.5201 0.8279
vn 0.1467 -0.5593 0.8159
vn -0.4354 -0.7754 0.4574
vn 0.4371 -0.8510 0.2913
vn -0.5876 -0.0335 0.8085
vn 0.5448 -0.0418 0.8375
vn -0.5931 -0.8050 -0.0108
vn 0.5814 -0.8109 -0.0657
vn -0.6477 0.2254 0.7278
vn 0.7795 0.2401 0.5786
vn -0.7662 -0.2310 -0.5997
vn 0.6194 -0.2477 -0.7450
vn -0.6470 0.3556 0.6745
vn 0.7421 0.3038 0.5975
vn -0.7739 -0.3248 -0.5436
vn 0.6477 -0.3928 -0.6528
vn -0.5440 -0.0804 0.8352
vn 0.5969 -0.1266 0.7922
vn -0.6144 -0.7884 -0.0322
vn 0.5291 -0.8411 -0.1120
vn -0.6521 -0.6693 -0.3561
vn -0.5069 -0.4063 0.7602
vn -0.6239 0.5280 -0.5762
vn -0.4942 0.6583 0.5677
vn 0.5520 -0.7060 -0.4436
vn 0.5858 -0.4397 0.6808
vn 0.5650 0.4918 -0.6625
vn 0.6100 0.6247 0.4875
vn -0.6541 -0.6461 -0.3934
vn -0.5098 -0.4455 0.7359
vn -0.6208 0.5614 -0.5472
vn -0.4926 0.6280 0.6024
vn 0.5501 -0.6828 -0.4809
vn 0.5829 -0.4788 0.6565
vn 0.5681 0.5252 -0.6336
vn 0.6116 0.5944 0.5221
vn -0.5748 0.8182 0.0057
vn -0.6084 -0.0248 -0.7933
vn -0.5594 -0.1056 0.8222
vn -0.5704 -0.8166 -0.0887
vn 0.6182 0.7819 -0.0809
vn 0.4848 -0.0581 -0.8727
vn 0.6648 -0.1429 0.7332
vn 0.5010 -0.8493 -0.1666
vn -0.5748 0.8183 0.0057
vn -0.5594 -0.1056 0.8221
vn 0.5010 -0.8493 -0.1665
vn -0.5069 -0.4064 0.7602
vn -0.4942 0.6583 0.5678
vn 0.6100 0.6246 0.4875
vn -0.5099 -0.4455 0.7359
vn -0.4927 0.6281 0.6023
vn 0.5500 -0.6828 -0.4809
vn -0.5704 -0.8166 -0.0888
vn -0.5703 -0.8166 -0.0888
vn 0.5010 -0.8492 -0.1666
vn -0.5098 -0.4456 0.7359
vn -0.4927 0.6281 0.6024
vn 0.7851 0.6045 -0.1349
vn 0.4427 0.7952 0.4143
vn 0.4644 0.0672 -0.8830
vn -0.0161 0.6861 -0.7273
vn -0.8505 0.4185 0.3185
vn -0.5858 0.0698 0.8075
vn -0.5090 -0.7002 -0.5006
vn -0.9475 0.2595 -0.1867
vn 0.5484 -0.5940 -0.5886
vn 0.6486 -0.4397 -0.6213
vn -0.6639 -0.7477 -0.0165
vn -0.6235 -0.7239 -0.2953
vn 0.5813 0.8113 -0.0631
vn -0.6338 0.7735 -0.0001
vn 0.7239 -0.3444 -0.5978
vn -0.6764 -0.4932 -0.5470
vn 0.6793 0.5979 0.4255
vn -0.6534 0.6202 0.4341
vn 0.7469 -0.5587 -0.3605
vn -0.6959 -0.5888 -0.4112
vn 0.7030 0.4448 0.5549
vn -0.6821 0.4765 0.5547
vn 0.7323 -0.6185 -0.2850
vn -0.7003 -0.6262 -0.3427
vn 0.7003 0.4809 0.5276
vn -0.6762 0.5182 0.5237
vn 0.7546 -0.5334 -0.3822
vn -0.7165 -0.5437 -0.4371
vn 0.1923 -0.4543 0.8699
vn -0.1779 -0.5172 0.8372
vn 0.4373 -0.7506 0.4954
vn -0.4318 -0.8296 0.3541
vn 0.5796 0.0034 0.8149
vn -0.5530 0.0153 0.8331
vn 0.5795 -0.8139 0.0413
vn -0.5945 -0.8037 -0.0249
vn 0.5898 0.2904 0.7535
vn -0.7976 0.2090 0.5658
vn 0.8108 -0.1886 -0.5541
vn -0.5922 -0.2944 -0.7501
vn 0.6049 0.3738 0.7031
vn -0.7855 0.2548 0.5639
vn 0.7970 -0.2921 -0.5287
vn -0.6029 -0.4116 -0.6835
vn 0.5194 -0.0541 0.8528
vn -0.6198 -0.1340 0.7733
vn 0.6223 -0.7828 0.0041
vn -0.5150 -0.8490 -0.1186
vn 0.7091 -0.6115 -0.3511
vn 0.4999 -0.4030 0.7666
vn 0.6117 0.5894 -0.5277
vn 0.4255 0.6655 0.6132
vn -0.4853 -0.7217 -0.4937
vn -0.5839 -0.5030 0.6372
vn -0.5675 0.4806 -0.6685
vn -0.6698 0.5645 0.4825
vn 0.7111 -0.5868 -0.3874
vn 0.5064 -0.4409 0.7410
vn 0.6052 0.6213 -0.4978
vn 0.4245 0.6338 0.6466
vn -0.4832 -0.6969 -0.5299
vn -0.5774 -0.5409 0.6116
vn -0.5740 0.5126 -0.6385
vn -0.6708 0.5329 0.5158
vn 0.5191 0.8525 0.0617
vn 0.6417 0.0458 -0.7656
vn 0.5299 -0.1022 0.8419
vn 0.6260 -0.7742 -0.0932
vn -0.6642 0.7433 -0.0796
vn -0.4426 -0.0542 -0.8951
vn -0.6844 -0.2142 0.6970
vn -0.4367 -0.8723 -0.2201
vn 0.6260 -0.7743 -0.0932
vn -0.6642 0.7433 -0.0795
vn -0.4427 -0.0543 -0.8950
vn 0.6117 0.5894 -0.5278
vn 0.4255 0.6655 0.6133
vn -0.4853 -0.7217 -0.4936
vn 0.7111 -0.5867 -0.3874
vn 0.5064 -0.4409 0.7411
vn 0.6051 0.6213 -0.4978
vn 0.4244 0.6339 0.6466
vn -0.5774 -0.5408 0.6116
vn 0.6417 0.0457 -0.7656
vn 0.6260 -0.7743 -0.0933
vn -0.4427 -0.0542 -0.8950
vn -0.6844 -0.2142 0.6969
vn 0.4245 0.6339 0.6466
vn -0.5741 0.5126 -0.6385
vn -0.6708 0.5328 0.5158
vt 0.556911 0.832022
vt 0.556844 0.832183
vt 0.556265 0.832865
vt 0.556654 0.832716
vt 0.557127 0.833100
vt 0.556870 0.832307
vt 0.557472 0.832329
vt 0.557578 0.833117
vt 0.556984 0.831267
vt 0.558162 0.830872
vt 0.557565 0.831300
vt 0.558016 0.833506
vt 0.557036 0.831411
vt 0.557482 0.831438
vt 0.557018 0.831490
vt 0.556904 0.831283
vt 0.558747 0.832374
vt 0.558480 0.833149
vt 0.558728 0.831341
vt 0.559349 0.832396
vt 0.558931 0.833165
vt 0.559310 0.831350
vt 0.557400 0.832184
vt 0.556968 0.832170
vt 0.555550 0.832916
vt 0.555981 0.832769
vt 0.556773 0.830960
vt 0.556451 0.830726
vt 0.556114 0.830773
vt 0.554825 0.832536
vt 0.554933 0.830940
vt 0.555756 0.830536
vt 0.554636 0.830710
vt 0.553146 0.830588
vt 0.552698 0.830368
vt 0.554464 0.832686
vt 0.551080 0.830468
vt 0.550537 0.830243
vt 0.553171 0.833027
vt 0.552637 0.833203
vt 0.551116 0.833212
vt 0.550473 0.833391
vt 0.548192 0.833053
vt 0.548684 0.832878
vt 0.545058 0.832775
vt 0.545304 0.832606
vt 0.548660 0.830665
vt 0.548249 0.830447
vt 0.542095 0.832281
vt 0.541977 0.832446
vt 0.539837 0.832030
vt 0.539849 0.831941
vt 0.545312 0.830949
vt 0.545112 0.830743
vt 0.539845 0.831786
vt 0.539848 0.831893
vt 0.542014 0.831155
vt 0.542104 0.831355
vt 0.947256 0.302534
vt 0.947422 0.302672
vt 0.946915 0.303128
vt 0.946863 0.302954
vt 0.946882 0.303110
vt 0.946831 0.302935
vt 0.944637 0.303458
vt 0.944646 0.303607
vt 0.947378 0.302675
vt 0.947212 0.302538
vt 0.940758 0.303608
vt 0.940763 0.303675
vt 0.944660 0.303478
vt 0.944669 0.303628
vt 0.940769 0.303617
vt 0.940773 0.303684
vt 0.937033 0.256558
vt 0.936633 0.256719
vt 0.936467 0.257106
vt 0.936633 0.257493
vt 0.937033 0.257653
vt 0.937434 0.257493
vt 0.937600 0.257106
vt 0.937434 0.256719
vt 0.937317 0.257233
vt 0.937234 0.256809
vt 0.937234 0.257583
vt 0.936750 0.257233
vt 0.936833 0.256809
vt 0.936833 0.257583
vt 0.554875 0.833144
vt 0.554704 0.832590
vt 0.555729 0.832627
vt 0.555537 0.832900
vt 0.555727 0.832682
vt 0.555602 0.833075
vt 0.554702 0.832646
vt 0.554940 0.833319
vt 0.555661 0.833189
vt 0.555596 0.833136
vt 0.555127 0.833462
vt 0.555062 0.833409
vt 0.556152 0.833816
vt 0.556234 0.833835
vt 0.556601 0.833350
vt 0.557261 0.833943
vt 0.557523 0.833664
vt 0.556518 0.833331
vt 0.557210 0.833939
vt 0.557401 0.834008
vt 0.557433 0.834024
vt 0.557472 0.833659
vt 0.557638 0.833891
vt 0.557670 0.833906
vt 0.557908 0.834953
vt 0.557878 0.834949
vt 0.557892 0.834966
vt 0.557758 0.835104
vt 0.558730 0.836322
vt 0.558803 0.836246
vt 0.557747 0.835118
vt 0.557716 0.835114
vt 0.557867 0.834963
vt 0.557732 0.835101
vt 0.558789 0.836245
vt 0.558716 0.836320
vt 0.553270 0.833141
vt 0.553579 0.832548
vt 0.554403 0.832578
vt 0.554037 0.833136
vt 0.553854 0.833525
vt 0.553229 0.833528
vt 0.553848 0.833696
vt 0.553223 0.833699
vt 0.553201 0.834063
vt 0.553990 0.834065
vt 0.553599 0.834559
vt 0.554146 0.834560
vt 0.554002 0.833732
vt 0.553213 0.833730
vt 0.554077 0.834519
vt 0.553671 0.834518
vt 0.553040 0.835506
vt 0.553446 0.835507
vt 0.554152 0.834346
vt 0.553605 0.834345
vt 0.554080 0.834387
vt 0.553674 0.834386
vt 0.553043 0.835380
vt 0.553218 0.836290
vt 0.553217 0.836331
vt 0.553449 0.835381
vt 0.553351 0.836290
vt 0.553350 0.836331
vt 0.552372 0.833154
vt 0.552392 0.832822
vt 0.553043 0.832846
vt 0.553031 0.833184
vt 0.552773 0.832836
vt 0.552761 0.833174
vt 0.552122 0.832813
vt 0.552101 0.833157
vt 0.552358 0.833508
vt 0.552522 0.833514
vt 0.552152 0.833504
vt 0.552315 0.833502
vt 0.551636 0.833741
vt 0.551612 0.833709
vt 0.551504 0.832327
vt 0.549313 0.834106
vt 0.549149 0.832002
vt 0.551452 0.832291
vt 0.549351 0.834154
vt 0.549070 0.831948
vt 0.545591 0.832490
vt 0.545726 0.833544
vt 0.545708 0.833521
vt 0.543433 0.833305
vt 0.543424 0.833293
vt 0.545629 0.832515
vt 0.543381 0.832743
vt 0.540743 0.833327
vt 0.540706 0.832770
vt 0.543360 0.832729
vt 0.540717 0.832896
vt 0.540731 0.833202
vt 0.538768 0.833323
vt 0.538755 0.833017
vt 0.540686 0.832756
vt 0.540753 0.833340
vt 0.540699 0.832888
vt 0.540742 0.833209
vt 0.538780 0.833330
vt 0.538737 0.833009
vt 0.527027 0.835191
vt 0.527058 0.835424
vt 0.527050 0.835419
vt 0.525076 0.836049
vt 0.525072 0.836047
vt 0.527040 0.835197
vt 0.525060 0.835929
vt 0.525066 0.835932
vt 0.535092 0.833743
vt 0.534950 0.833381
vt 0.534975 0.833370
vt 0.535205 0.833690
vt 0.533510 0.834062
vt 0.533348 0.833708
vt 0.533372 0.833695
vt 0.533620 0.834003
vt 0.534483 0.834046
vt 0.534389 0.834343
vt 0.534361 0.834342
vt 0.534359 0.834042
vt 0.532772 0.834352
vt 0.532677 0.834649
vt 0.532650 0.834648
vt 0.532647 0.834348
vt 0.531520 0.834432
vt 0.531378 0.834070
vt 0.531403 0.834059
vt 0.531633 0.834379
vt 0.529791 0.834774
vt 0.529630 0.834421
vt 0.529654 0.834408
vt 0.529901 0.834715
vt 0.530914 0.834676
vt 0.530819 0.834973
vt 0.530792 0.834973
vt 0.530789 0.834673
vt 0.529272 0.834991
vt 0.529177 0.835288
vt 0.529150 0.835287
vt 0.529147 0.834987
vt 0.528262 0.835047
vt 0.528100 0.834694
vt 0.528124 0.834681
vt 0.528372 0.834988
vt 0.534359 0.834042
s 1
usemtl Material.001
f 22/1/22 20/2/20 24/3/24
f 22/1/22 24/3/24 26/4/26
f 6/5/6 16/6/16 18/7/18
f 6/5/6 18/7/18 11/8/11
f 15/9/15 8/10/8 17/11/17
f 7/12/7 6/5/6 11/8/11
f 4/13/4 9/14/9 21/15/21
f 4/13/4 21/15/21 19/16/19
f 11/8/11 18/7/18 13/17/13
f 11/8/11 13/17/13 14/18/14
f 17/11/17 8/10/8 12/19/12
f 7/12/7 11/8/11 14/18/14
f 18/7/18 17/11/17 12/19/12
f 18/7/18 12/19/12 13/17/13
f 14/18/14 13/17/13 2/20/2
f 14/18/14 2/20/2 3/21/3
f 12/19/12 8/10/8 1/22/1
f 7/12/7 14/18/14 3/21/3
f 13/17/13 12/19/12 1/22/1
f 13/17/13 1/22/1 2/20/2
f 9/14/9 10/23/10 22/1/22
f 9/14/9 22/1/22 21/15/21
f 10/23/10 9/14/9 17/11/17
f 10/23/10 17/11/17 18/7/18
f 5/24/5 10/23/10 18/7/18
f 5/24/5 18/7/18 16/6/16
f 9/14/9 4/13/4 15/9/15
f 9/14/9 15/9/15 17/11/17
f 10/23/10 5/24/5 20/2/20
f 10/23/10 20/2/20 22/1/22
f 26/4/26 24/3/24 28/25/28
f 26/4/26 28/25/28 30/26/30
f 19/16/19 21/15/21 25/27/25
f 19/16/19 25/27/25 23/28/23
f 21/15/21 22/1/22 26/4/26
f 21/15/21 26/4/26 25/27/25
f 29/29/29 30/26/30 34/30/34
f 29/29/29 34/30/34 33/31/33
f 23/28/23 25/27/25 29/29/29
f 23/28/23 29/29/29 27/32/27
f 25/27/25 26/4/26 30/26/30
f 25/27/25 30/26/30 29/29/29
f 31/33/31 33/31/33 37/34/37
f 31/33/31 37/34/37 35/35/35
f 30/26/30 28/25/28 32/36/32
f 30/26/30 32/36/32 34/30/34
f 27/32/27 29/29/29 33/31/33
f 27/32/27 33/31/33 31/33/31
f 35/35/35 37/34/37 41/37/41
f 35/35/35 41/37/41 39/38/39
f 33/31/33 34/30/34 38/39/38
f 33/31/33 38/39/38 37/34/37
f 34/30/34 32/36/32 36/40/36
f 34/30/34 36/40/36 38/39/38
f 42/41/42 40/42/40 44/43/44
f 42/41/42 44/43/44 46/44/46
f 37/34/37 38/39/38 42/41/42
f 37/34/37 42/41/42 41/37/41
f 38/39/38 36/40/36 40/42/40
f 38/39/38 40/42/40 42/41/42
f 46/44/46 44/43/44 48/45/48
f 46/44/46 48/45/48 50/46/50
f 39/38/39 41/37/41 45/47/45
f 39/38/39 45/47/45 43/48/43
f 41/37/41 42/41/42 46/44/46
f 41/37/41 46/44/46 45/47/45
f 57/49/57 56/50/56 52/51/52
f 57/49/57 52/51/52 54/52/54
f 43/48/43 45/47/45 49/53/49
f 43/48/43 49/53/49 47/54/47
f 45/47/45 46/44/46 50/46/50
f 45/47/45 50/46/50 49/53/49
f 52/51/52 51/55/51 53/56/53
f 52/51/52 53/56/53 54/52/54
f 58/57/58 55/58/55 53/56/53
f 58/57/58 53/56/53 51/55/51
f 55/58/55 57/49/57 54/52/54
f 55/58/55 54/52/54 53/56/53
f 49/53/49 50/46/50 57/49/57
f 49/53/49 57/49/57 55/58/55
f 47/54/47 49/53/49 55/58/55
f 47/54/47 55/58/55 58/57/58
f 50/46/50 48/45/48 56/50/56
f 50/46/50 56/50/56 57/49/57
f 68/1/68 70/4/70 24/3/24
f 68/1/68 24/3/24 20/2/20
f 6/5/6 61/8/61 66/7/66
f 6/5/6 66/7/66 16/6/16
f 15/9/15 65/11/65 8/10/8
f 7/12/7 61/8/61 6/5/6
f 4/13/4 19/16/19 67/15/67
f 4/13/4 67/15/67 59/14/59
f 61/8/61 64/18/64 63/17/63
f 61/8/61 63/17/63 66/7/66
f 65/11/65 62/19/62 8/10/8
f 7/12/7 64/18/64 61/8/61
f 66/7/66 63/17/63 62/19/62
f 66/7/66 62/19/62 65/11/65
f 64/18/64 3/21/3 2/20/2
f 64/18/64 2/20/2 63/17/63
f 62/19/62 1/22/1 8/10/8
f 7/12/7 3/21/3 64/18/64
f 63/17/63 2/20/2 1/22/1
f 63/17/63 1/22/1 62/19/62
f 59/14/59 67/15/67 68/1/68
f 59/14/59 68/1/68 60/23/60
f 60/23/60 66/7/66 65/11/65
f 60/23/60 65/11/65 59/14/59
f 5/24/5 16/6/16 66/7/66
f 5/24/5 66/7/66 60/23/60
f 59/14/59 65/11/65 15/9/15
f 59/14/59 15/9/15 4/13/4
f 60/23/60 68/1/68 20/2/20
f 60/23/60 20/2/20 5/24/5
f 70/4/70 72/26/72 28/25/28
f 70/4/70 28/25/28 24/3/24
f 19/16/19 23/28/23 69/27/69
f 19/16/19 69/27/69 67/15/67
f 67/15/67 69/27/69 70/4/70
f 67/15/67 70/4/70 68/1/68
f 71/29/71 73/31/73 74/30/74
f 71/29/71 74/30/74 72/26/72
f 23/28/23 27/32/27 71/29/71
f 23/28/23 71/29/71 69/27/69
f 69/27/69 71/29/71 72/26/72
f 69/27/69 72/26/72 70/4/70
f 31/33/31 35/35/35 75/34/75
f 31/33/31 75/34/75 73/31/73
f 72/26/72 74/30/74 32/36/32
f 72/26/72 32/36/32 28/25/28
f 27/32/27 31/33/31 73/31/73
f 27/32/27 73/31/73 71/29/71
f 35/35/35 39/38/39 77/37/77
f 35/35/35 77/37/77 75/34/75
f 73/31/73 75/34/75 76/39/76
f 73/31/73 76/39/76 74/30/74
f 74/30/74 76/39/76 36/40/36
f 74/30/74 36/40/36 32/36/32
f 78/41/78 80/44/80 44/43/44
f 78/41/78 44/43/44 40/42/40
f 75/34/75 77/37/77 78/41/78
f 75/34/75 78/41/78 76/39/76
f 76/39/76 78/41/78 40/42/40
f 76/39/76 40/42/40 36/40/36
f 80/44/80 82/46/82 48/45/48
f 80/44/80 48/45/48 44/43/44
f 39/38/39 43/48/43 79/47/79
f 39/38/39 79/47/79 77/37/77
f 77/37/77 79/47/79 80/44/80
f 77/37/77 80/44/80 78/41/78
f 86/49/86 84/52/84 52/51/52
f 86/49/86 52/51/52 56/50/56
f 43/48/43 47/54/47 81/53/81
f 43/48/43 81/53/81 79/47/79
f 79/47/79 81/53/81 82/46/82
f 79/47/79 82/46/82 80/44/80
f 52/51/52 84/52/84 83/56/83
f 52/51/52 83/56/83 51/55/51
f 58/57/58 51/55/51 83/56/83
f 58/57/58 83/56/83 85/58/85
f 85/58/85 83/56/83 84/52/84
f 85/58/85 84/52/84 86/49/86
f 81/53/81 85/58/85 86/49/86
f 81/53/81 86/49/86 82/46/82
f 47/54/47 58/57/58 85/58/85
f 47/54/47 85/58/85 81/53/81
f 82/46/82 86/49/86 56/50/56
f 82/46/82 56/50/56 48/45/48
f 87/59/87 88/60/88 90/61/90
f 87/59/87 90/61/90 89/62/89
f 94/63/94 93/64/93 97/65/97
f 94/63/94 97/65/97 98/66/98
f 93/64/93 94/63/94 92/67/92
f 93/64/93 92/67/92 91/68/91
f 91/68/91 92/67/92 88/60/88
f 91/68/91 88/60/88 87/59/87
f 89/62/89 93/64/93 91/68/91
f 89/62/89 91/68/91 87/59/87
f 94/63/94 90/61/90 88/60/88
f 94/63/94 88/60/88 92/67/92
f 98/66/98 97/65/97 101/69/101
f 98/66/98 101/69/101 102/70/102
f 93/64/93 89/62/89 95/71/95
f 93/64/93 95/71/95 97/65/97
f 90/61/90 94/63/94 98/66/98
f 90/61/90 98/66/98 96/72/96
f 89/62/89 90/61/90 96/72/96
f 89/62/89 96/72/96 95/71/95
f 99/73/99 100/74/100 102/70/102
f 99/73/99 102/70/102 101/69/101
f 97/65/97 95/71/95 99/73/99
f 97/65/97 99/73/99 101/69/101
f 96/72/96 98/66/98 102/70/102
f 96/72/96 102/70/102 100/74/100
f 95/71/95 96/72/96 100/74/100
f 95/71/95 100/74/100 99/73/99
f 103/59/103 105/62/105 106/61/106
f 103/59/103 106/61/106 104/60/104
f 110/63/110 114/66/114 113/65/113
f 110/63/110 113/65/113 109/64/109
f 109/64/109 107/68/107 108/67/108
f 109/64/109 108/67/108 110/63/110
f 107/68/107 103/59/103 104/60/104
f 107/68/107 104/60/104 108/67/108
f 105/62/105 103/59/103 107/68/107
f 105/62/105 107/68/107 109/64/109
f 110/63/110 108/67/108 104/60/104
f 110/63/110 104/60/104 106/61/106
f 114/66/114 118/70/118 117/69/117
f 114/66/114 117/69/117 113/65/113
f 109/64/109 113/65/113 111/71/111
f 109/64/109 111/71/111 105/62/105
f 106/61/106 112/72/112 114/66/114
f 106/61/106 114/66/114 110/63/110
f 105/62/105 111/71/111 112/72/112
f 105/62/105 112/72/112 106/61/106
f 115/73/115 117/69/117 118/70/118
f 115/73/115 118/70/118 116/74/116
f 113/65/113 117/69/117 115/73/115
f 113/65/113 115/73/115 111/71/111
f 112/72/112 116/74/116 118/70/118
f 112/72/112 118/70/118 114/66/114
f 111/71/111 115/73/115 116/74/116
f 111/71/111 116/74/116 112/72/112
f 125/75/125 121/76/121 120/77/120
f 125/75/125 120/77/120 119/78/119
f 125/75/125 119/78/119 126/79/126
f 125/75/125 126/79/126 122/80/122
f 125/75/125 122/80/122 123/81/123
f 125/75/125 123/81/123 124/82/124
f 124/82/124 123/81/123 128/83/128
f 124/82/124 128/83/128 129/84/129
f 122/80/122 126/79/126 127/85/127
f 125/75/125 124/82/124 129/84/129
f 123/81/123 122/80/122 127/85/127
f 123/81/123 127/85/127 128/83/128
f 129/84/129 128/83/128 131/86/131
f 129/84/129 131/86/131 132/87/132
f 127/85/127 126/79/126 130/88/130
f 125/75/125 129/84/129 132/87/132
f 128/83/128 127/85/127 130/88/130
f 128/83/128 130/88/130 131/86/131
f 132/87/132 131/86/131 120/77/120
f 132/87/132 120/77/120 121/76/121
f 130/88/130 126/79/126 119/78/119
f 125/75/125 132/87/132 121/76/121
f 131/86/131 130/88/130 119/78/119
f 131/86/131 119/78/119 120/77/120
f 139/75/139 138/82/138 137/81/137
f 139/75/139 137/81/137 136/80/136
f 139/75/139 136/80/136 140/79/140
f 139/75/139 140/79/140 133/78/133
f 139/75/139 133/78/133 134/77/134
f 139/75/139 134/77/134 135/76/135
f 138/82/138 143/84/143 142/83/142
f 138/82/138 142/83/142 137/81/137
f 136/80/136 141/85/141 140/79/140
f 139/75/139 143/84/143 138/82/138
f 137/81/137 142/83/142 141/85/141
f 137/81/137 141/85/141 136/80/136
f 143/84/143 146/87/146 145/86/145
f 143/84/143 145/86/145 142/83/142
f 141/85/141 144/88/144 140/79/140
f 139/75/139 146/87/146 143/84/143
f 142/83/142 145/86/145 144/88/144
f 142/83/142 144/88/144 141/85/141
f 146/87/146 135/76/135 134/77/134
f 146/87/146 134/77/134 145/86/145
f 144/88/144 133/78/133 140/79/140
f 139/75/139 135/76/135 146/87/146
f 145/86/145 134/77/134 133/78/133
f 145/86/145 133/78/133 144/88/144
f 147/89/147 148/90/148 150/91/150
f 147/89/147 150/91/150 149/92/149
f 149/92/149 150/91/150 154/93/154
f 149/92/149 154/93/154 153/94/153
f 153/94/153 154/93/154 152/95/152
f 153/94/153 152/95/152 151/96/151
f 151/96/151 152/95/152 148/90/148
f 151/96/151 148/90/148 147/89/147
f 149/92/149 153/94/153 158/97/158
f 149/92/149 158/97/158 156/98/156
f 154/93/154 150/91/150 148/90/148
f 154/93/154 148/90/148 152/95/152
f 157/99/157 155/100/155 159/101/159
f 157/99/157 159/101/159 161/102/161
f 147/89/147 149/92/149 156/98/156
f 147/89/147 156/98/156 155/100/155
f 153/94/153 151/96/151 157/99/157
f 153/94/153 157/99/157 158/97/158
f 151/96/151 147/89/147 155/100/155
f 151/96/151 155/100/155 157/99/157
f 162/103/162 161/102/161 165/104/165
f 162/103/162 165/104/165 166/105/166
f 156/98/156 158/97/158 162/103/162
f 156/98/156 162/103/162 160/106/160
f 158/97/158 157/99/157 161/102/161
f 158/97/158 161/102/161 162/103/162
f 155/100/155 156/98/156 160/106/160
f 155/100/155 160/106/160 159/101/159
f 165/104/165 163/107/163 167/108/167
f 165/104/165 167/108/167 169/109/169
f 159/101/159 160/106/160 164/110/164
f 159/101/159 164/110/164 163/107/163
f 161/102/161 159/101/159 163/107/163
f 161/102/161 163/107/163 165/104/165
f 160/106/160 162/103/162 166/105/166
f 160/106/160 166/105/166 164/110/164
f 168/111/168 170/112/170 177/113/177
f 168/111/168 177/113/177 175/114/175
f 164/110/164 166/105/166 170/112/170
f 164/110/164 170/112/170 168/111/168
f 166/105/166 165/104/165 169/109/169
f 166/105/166 169/109/169 170/112/170
f 163/107/163 164/110/164 168/111/168
f 163/107/163 168/111/168 167/108/167
f 174/115/174 173/116/173 181/117/181
f 174/115/174 181/117/181 182/118/182
f 170/112/170 169/109/169 178/119/178
f 170/112/170 178/119/178 177/113/177
f 167/108/167 168/111/168 175/114/175
f 167/108/167 175/114/175 176/120/176
f 169/109/169 167/108/167 176/120/176
f 169/109/169 176/120/176 178/119/178
f 172/121/172 171/122/171 176/120/176
f 172/121/172 176/120/176 175/114/175
f 174/115/174 172/121/172 175/114/175
f 174/115/174 175/114/175 177/113/177
f 173/116/173 174/115/174 177/113/177
f 173/116/173 177/113/177 178/119/178
f 171/122/171 173/116/173 178/119/178
f 171/122/171 178/119/178 176/120/176
f 180/123/180 182/118/182 181/117/181
f 180/123/180 181/117/181 179/124/179
f 171/122/171 172/121/172 180/123/180
f 171/122/171 180/123/180 179/124/179
f 173/116/173 171/122/171 179/124/179
f 173/116/173 179/124/179 181/117/181
f 172/121/172 174/115/174 182/118/182
f 172/121/172 182/118/182 180/123/180
f 183/89/183 185/92/185 186/91/186
f 183/89/183 186/91/186 184/90/184
f 185/92/185 189/94/189 190/93/190
f 185/92/185 190/93/190 186/91/186
f 189/94/189 187/96/187 188/95/188
f 189/94/189 188/95/188 190/93/190
f 187/96/187 183/89/183 184/90/184
f 187/96/187 184/90/184 188/95/188
f 185/92/185 192/98/192 194/97/194
f 185/92/185 194/97/194 189/94/189
f 190/93/190 188/95/188 184/90/184
f 190/93/190 184/90/184 186/91/186
f 193/99/193 197/102/197 195/101/195
f 193/99/193 195/101/195 191/100/191
f 183/89/183 191/100/191 192/98/192
f 183/89/183 192/98/192 185/92/185
f 189/94/189 194/97/194 193/99/193
f 189/94/189 193/99/193 187/96/187
f 187/96/187 193/99/193 191/100/191
f 187/96/187 191/100/191 183/89/183
f 198/103/198 202/105/202 201/104/201
f 198/103/198 201/104/201 197/102/197
f 192/98/192 196/106/196 198/103/198
f 192/98/192 198/103/198 194/97/194
f 194/97/194 198/103/198 197/102/197
f 194/97/194 197/102/197 193/99/193
f 191/100/191 195/101/195 196/106/196
f 191/100/191 196/106/196 192/98/192
f 201/104/201 205/109/205 203/108/203
f 201/104/201 203/108/203 199/107/199
f 195/101/195 199/107/199 200/110/200
f 195/101/195 200/110/200 196/106/196
f 197/102/197 201/104/201 199/107/199
f 197/102/197 199/107/199 195/101/195
f 196/106/196 200/110/200 202/105/202
f 196/106/196 202/105/202 198/103/198
f 204/111/204 211/114/211 213/113/213
f 204/111/204 213/113/213 206/112/206
f 200/110/200 204/111/204 206/112/206
f 200/110/200 206/112/206 202/105/202
f 202/105/202 206/112/206 205/109/205
f 202/105/202 205/109/205 201/104/201
f 199/107/199 203/108/203 204/111/204
f 199/107/199 204/111/204 200/110/200
f 210/115/210 218/118/218 217/117/217
f 210/115/210 217/117/217 209/116/209
f 206/112/206 213/113/213 214/119/214
f 206/112/206 214/119/214 205/109/205
f 203/108/203 212/120/212 211/114/211
f 203/108/203 211/114/211 204/111/204
f 205/109/205 214/119/214 212/120/212
f 205/109/205 212/120/212 203/108/203
f 208/121/208 211/114/211 212/120/212
f 208/121/208 212/120/212 207/122/207
f 210/115/210 213/113/213 211/114/211
f 210/115/210 211/114/211 208/121/208
f 209/116/209 214/119/214 213/113/213
f 209/116/209 213/113/213 210/115/210
f 207/122/207 212/120/212 214/119/214
f 207/122/207 214/119/214 209/116/209
f 216/123/216 215/124/215 217/117/217
f 216/123/216 217/117/217 218/118/218
f 207/122/207 215/124/215 216/123/216
f 207/122/207 216/123/216 208/121/208
f 209/116/209 217/117/217 215/124/215
f 209/116/209 215/124/215 207/122/207
f 208/121/208 216/123/216 218/118/218
f 208/121/208 218/118/218 210/115/210
f 219/125/219 220/126/220 222/127/222
f 219/125/219 222/127/222 221/128/221
f 221/128/221 222/127/222 226/127/226
f 221/128/221 226/127/226 225/128/225
f 225/128/225 226/127/226 224/126/224
f 225/128/225 224/126/224 223/125/223
f 223/125/223 224/126/224 220/126/220
f 223/125/223 220/126/220 219/125/219
f 219/125/219 221/128/221 228/129/228
f 219/125/219 228/129/228 227/130/227
f 226/127/226 222/127/222 220/126/220
f 226/127/226 220/126/220 224/126/224
f 230/131/230 229/132/229 233/133/233
f 230/131/230 233/133/233 234/134/234
f 225/128/225 223/125/223 229/132/229
f 225/128/225 229/132/229 230/131/230
f 223/125/223 219/125/219 227/130/227
f 223/125/223 227/130/227 229/132/229
f 221/128/221 225/128/225 230/131/230
f 221/128/221 230/131/230 228/129/228
f 234/134/234 233/133/233 242/135/242
f 234/134/234 242/135/242 241/136/241
f 227/130/227 228/129/228 232/137/232
f 227/130/227 232/137/232 231/138/231
f 229/132/229 227/130/227 231/138/231
f 229/132/229 231/138/231 233/133/233
f 228/129/228 230/131/230 234/134/234
f 228/129/228 234/134/234 232/137/232
f 238/139/238 237/140/237 245/141/245
f 238/139/238 245/141/245 246/142/246
f 231/138/231 232/137/232 239/143/239
f 231/138/231 239/143/239 240/144/240
f 233/133/233 231/138/231 240/144/240
f 233/133/233 240/144/240 242/135/242
f 232/137/232 234/134/234 241/136/241
f 232/137/232 241/136/241 239/143/239
f 236/145/236 235/146/235 240/144/240
f 236/145/236 240/144/240 239/143/239
f 238/139/238 236/145/236 239/143/239
f 238/139/238 239/143/239 241/136/241
f 237/140/237 238/139/238 241/136/241
f 237/140/237 241/136/241 242/135/242
f 235/146/235 237/140/237 242/135/242
f 235/146/235 242/135/242 240/144/240
f 245/141/245 243/147/243 247/148/247
f 245/141/245 247/148/247 249/149/249
f 235/146/235 236/145/236 244/150/244
f 235/146/235 244/150/244 243/147/243
f 237/140/237 235/146/235 243/147/243
f 237/140/237 243/147/243 245/141/245
f 236/145/236 238/139/238 246/142/246
f 236/145/236 246/142/246 244/150/244
f 248/151/248 250/152/250 249/149/249
f 248/151/248 249/149/249 247/148/247
f 244/150/244 246/142/246 250/152/250
f 244/150/244 250/152/250 248/151/248
f 246/142/246 245/141/245 249/149/249
f 246/142/246 249/149/249 250/152/250
f 243/147/243 244/150/244 248/151/248
f 243/147/243 248/151/248 247/148/247
f 251/125/251 253/128/253 254/127/254
f 251/125/251 254/127/254 252/126/252
f 253/128/253 257/128/257 258/127/258
f 253/128/253 258/127/258 254/127/254
f 257/128/257 255/125/255 256/126/256
f 257/128/257 256/126/256 258/127/258
f 255/125/255 251/125/251 252/126/252
f 255/125/255 252/126/252 256/126/256
f 251/125/251 259/130/259 260/129/260
f 251/125/251 260/129/260 253/128/253
f 258/127/258 256/126/256 252/126/252
f 258/127/258 252/126/252 254/127/254
f 262/131/262 266/134/266 265/133/265
f 262/131/262 265/133/265 261/132/261
f 257/128/257 262/131/262 261/132/261
f 257/128/257 261/132/261 255/125/255
f 255/125/255 261/132/261 259/130/259
f 255/125/255 259/130/259 251/125/251
f 253/128/253 260/129/260 262/131/262
f 253/128/253 262/131/262 257/128/257
f 266/134/266 273/136/273 274/135/274
f 266/134/266 274/135/274 265/133/265
f 259/130/259 263/138/263 264/137/264
f 259/130/259 264/137/264 260/129/260
f 261/132/261 265/133/265 263/138/263
f 261/132/261 263/138/263 259/130/259
f 260/129/260 264/137/264 266/134/266
f 260/129/260 266/134/266 262/131/262
f 270/139/270 278/142/278 277/141/277
f 270/139/270 277/141/277 269/140/269
f 263/138/263 272/144/272 271/143/271
f 263/138/263 271/143/271 264/137/264
f 265/133/265 274/135/274 272/144/272
f 265/133/265 272/144/272 263/138/263
f 264/137/264 271/143/271 273/136/273
f 264/137/264 273/136/273 266/134/266
f 268/145/268 271/143/271 272/144/272
f 268/145/268 272/144/272 267/146/267
f 270/139/270 273/136/273 271/143/271
f 270/139/270 271/143/271 268/145/268
f 269/140/269 274/135/274 273/136/273
f 269/140/269 273/136/273 270/139/270
f 267/146/267 272/144/272 274/135/274
f 267/146/267 274/135/274 269/140/269
f 277/141/277 281/149/281 279/148/279
f 277/141/277 279/148/279 275/147/275
f 267/146/267 275/147/275 276/150/276
f 267/146/267 276/150/276 268/145/268
f 269/140/269 277/141/277 275/147/275
f 269/140/269 275/147/275 267/146/267
f 268/145/268 276/150/276 278/142/278
f 268/145/268 278/142/278 270/139/270
f 280/151/280 279/148/279 281/149/281
f 280/151/280 281/149/281 282/152/282
f 276/150/276 280/151/280 282/152/282
f 276/150/276 282/152/282 278/142/278
f 278/142/278 282/152/282 281/149/281
f 278/142/278 281/149/281 277/141/277
f 275/147/275 279/148/279 280/151/280
f 275/147/275 280/151/280 276/150/276
f 283/153/283 284/154/284 286/155/286
f 283/153/283 286/155/286 285/156/285
f 285/156/285 286/155/286 290/157/290
f 285/156/285 290/157/290 289/158/289
f 289/158/289 290/157/290 288/159/288
f 289/158/289 288/159/288 287/160/287
f 287/160/287 288/159/288 284/154/284
f 287/160/287 284/154/284 283/153/283
f 285/156/285 289/158/289 293/161/293
f 285/156/285 293/161/293 291/162/291
f 290/157/290 286/155/286 284/154/284
f 290/157/290 284/154/284 288/159/288
f 291/162/291 293/161/293 294/163/294
f 291/162/291 294/163/294 292/164/292
f 283/153/283 285/156/285 291/162/291
f 283/153/283 291/162/291 292/164/292
f 289/158/289 287/160/287 294/163/294
f 289/158/289 294/163/294 293/161/293
f 292/164/292 294/163/294 298/165/298
f 292/164/292 298/165/298 297/166/297
f 295/167/295 297/166/297 301/168/301
f 295/167/295 301/168/301 299/169/299
f 283/153/283 292/164/292 297/166/297
f 283/153/283 297/166/297 295/167/295
f 287/160/287 283/153/283 295/167/295
f 287/160/287 295/167/295 296/170/296
f 294/163/294 287/160/287 296/170/296
f 294/163/294 296/170/296 298/165/298
f 302/171/302 300/172/300 304/173/304
f 302/171/302 304/173/304 306/174/306
f 296/170/296 295/167/295 299/169/299
f 296/170/296 299/169/299 300/172/300
f 298/165/298 296/170/296 300/172/300
f 298/165/298 300/172/300 302/171/302
f 297/166/297 298/165/298 302/171/302
f 297/166/297 302/171/302 301/168/301
f 305/175/305 306/174/306 310/176/310
f 305/175/305 310/176/310 309/177/309
f 301/168/301 302/171/302 306/174/306
f 301/168/301 306/174/306 305/175/305
f 299/169/299 301/168/301 305/175/305
f 299/169/299 305/175/305 303/178/303
f 300/172/300 299/169/299 303/178/303
f 300/172/300 303/178/303 304/173/304
f 307/179/307 309/177/309 317/180/317
f 307/179/307 317/180/317 315/181/315
f 303/178/303 305/175/305 309/177/309
f 303/178/303 309/177/309 307/179/307
f 304/173/304 303/178/303 307/179/307
f 304/173/304 307/179/307 308/182/308
f 306/174/306 304/173/304 308/182/308
f 306/174/306 308/182/308 310/176/310
f 311/183/311 313/184/313 321/185/321
f 311/183/311 321/185/321 319/186/319
f 308/182/308 307/179/307 315/181/315
f 308/182/308 315/181/315 316/187/316
f 310/176/310 308/182/308 316/187/316
f 310/176/310 316/187/316 318/188/318
f 309/177/309 310/176/310 318/188/318
f 309/177/309 318/188/318 317/180/317
f 311/183/311 312/189/312 316/187/316
f 311/183/311 316/187/316 315/181/315
f 314/190/314 313/184/313 317/180/317
f 314/190/314 317/180/317 318/188/318
f 313/184/313 311/183/311 315/181/315
f 313/184/313 315/181/315 317/180/317
f 312/189/312 314/190/314 318/188/318
f 312/189/312 318/188/318 316/187/316
f 322/191/322 320/192/320 324/193/324
f 322/191/322 324/193/324 326/194/326
f 312/189/312 311/183/311 319/186/319
f 312/189/312 319/186/319 320/192/320
f 314/190/314 312/189/312 320/192/320
f 314/190/314 320/192/320 322/191/322
f 313/184/313 314/190/314 322/191/322
f 313/184/313 322/191/322 321/185/321
f 325/195/325 326/194/326 330/196/330
f 325/195/325 330/196/330 329/197/329
f 321/185/321 322/191/322 326/194/326
f 321/185/321 326/194/326 325/195/325
f 319/186/319 321/185/321 325/195/325
f 319/186/319 325/195/325 323/198/323
f 320/192/320 319/186/319 323/198/323
f 320/192/320 323/198/323 324/193/324
f 328/199/328 327/200/327 329/197/329
f 328/199/328 329/197/329 330/196/330
f 323/198/323 325/195/325 329/197/329
f 323/198/323 329/197/329 327/200/327
f 324/193/324 323/198/323 327/200/327
f 324/193/324 327/200/327 328/199/328
f 326/194/326 324/193/324 328/199/328
f 326/194/326 328/199/328 330/196/330
f 331/201/331 332/202/332 334/203/334
f 331/201/331 334/203/334 333/204/333
f 333/204/333 334/203/334 338/203/338
f 333/204/333 338/203/338 337/204/337
f 337/204/337 338/203/338 336/202/336
f 337/204/337 336/202/336 335/201/335
f 335/201/335 336/202/336 332/202/332
f 335/201/335 332/202/332 331/201/331
f 333/204/333 337/204/337 335/201/335
f 333/204/333 335/201/335 331/201/331
f 338/203/338 334/203/334 332/202/332
f 338/203/338 332/202/332 336/202/336
f 339/205/339 340/206/340 342/207/342
f 339/205/339 342/207/342 341/208/341
f 341/208/341 342/207/342 346/207/346
f 341/208/341 346/207/346 345/208/345
f 345/208/345 346/207/346 344/206/344
f 345/208/345 344/206/344 343/205/343
f 343/205/343 344/206/344 340/206/340
f 343/205/343 340/206/340 339/205/339
f 341/208/341 345/208/345 343/205/343
f 341/208/341 343/205/343 339/205/339
f 346/207/346 342/207/342 340/206/340
f 346/207/346 340/206/340 344/206/344
f 347/209/347 348/210/348 350/211/350
f 347/209/347 350/211/350 349/212/349
f 349/212/349 350/211/350 354/211/354
f 349/212/349 354/211/354 353/212/353
f 353/212/353 354/211/354 352/210/352
f 353/212/353 352/210/352 351/209/351
f 351/209/351 352/210/352 348/210/348
f 351/209/351 348/210/348 347/209/347
f 349/212/349 353/212/353 351/209/351
f 349/212/349 351/209/351 347/209/347
f 354/211/354 350/211/350 348/210/348
f 354/211/354 348/210/348 352/210/352
f 355/213/355 356/214/348 358/215/350
f 355/213/355 358/215/350 357/216/356
f 357/216/356 358/215/350 362/215/357
f 357/216/356 362/215/357 361/216/353
f 361/216/353 362/215/357 360/214/352
f 361/216/353 360/214/352 359/213/351
f 359/213/351 360/214/352 356/214/348
f 359/213/351 356/214/348 355/213/355
f 357/216/356 361/216/353 359/213/351
f 357/216/356 359/213/351 355/213/355
f 362/215/357 358/215/350 356/214/348
f 362/215/357 356/214/348 360/214/352
f 363/217/331 364/218/358 366/219/359
f 363/217/331 366/219/359 365/220/333
f 365/220/333 366/219/359 370/219/360
f 365/220/333 370/219/360 369/220/337
f 369/220/337 370/219/360 368/218/336
f 369/220/337 368/218/336 367/217/335
f 367/217/335 368/218/336 364/218/358
f 367/217/335 364/218/358 363/217/331
f 365/220/333 369/220/337 367/217/335
f 365/220/333 367/217/335 363/217/331
f 370/219/360 366/219/359 364/218/358
f 370/219/360 364/218/358 368/218/336
f 371/221/339 372/222/361 374/223/362
f 371/221/339 374/223/362 373/224/341
f 373/224/341 374/223/362 378/223/346
f 373/224/341 378/223/346 377/224/345
f 377/224/345 378/223/346 376/222/344
f 377/224/345 376/222/344 375/221/363
f 375/221/363 376/222/344 372/222/361
f 375/221/363 372/222/361 371/221/339
f 373/224/341 377/224/345 375/221/363
f 373/224/341 375/221/363 371/221/339
f 378/223/346 374/223/362 372/222/361
f 378/223/346 372/222/361 376/222/344
f 379/225/347 380/226/348 382/227/364
f 379/225/347 382/227/364 381/228/356
f 381/228/356 382/227/364 386/227/357
f 381/228/356 386/227/357 385/228/353
f 385/228/353 386/227/357 384/226/352
f 385/228/353 384/226/352 383/225/351
f 383/225/351 384/226/352 380/226/348
f 383/225/351 380/226/348 379/225/347
f 381/228/356 385/228/353 383/225/351
f 381/228/356 383/225/351 379/225/347
f 386/227/357 382/227/364 380/226/348
f 386/227/357 380/226/348 384/226/352
f 387/229/347 388/230/348 390/231/365
f 387/229/347 390/231/365 389/232/349
f 389/232/349 390/231/365 394/231/366
f 389/232/349 394/231/366 393/232/353
f 393/232/353 394/231/366 392/230/352
f 393/232/353 392/230/352 391/229/351
f 391/229/351 392/230/352 388/230/348
f 391/229/351 388/230/348 387/229/347
f 389/232/349 393/232/353 391/229/351
f 389/232/349 391/229/351 387/229/347
f 394/231/366 390/231/365 388/230/348
f 394/231/366 388/230/348 392/230/352
f 395/233/339 396/234/367 398/235/368
f 395/233/339 398/235/368 397/236/341
f 397/236/341 398/235/368 402/235/346
f 397/236/341 402/235/346 401/236/345
f 401/236/345 402/235/346 400/234/344
f 401/236/345 400/234/344 399/233/343
f 399/233/343 400/234/344 396/234/367
f 399/233/343 396/234/367 395/233/339
f 397/236/341 401/236/345 399/233/343
f 397/236/341 399/233/343 395/233/339
f 402/235/346 398/235/368 396/234/367
f 402/235/346 396/234/367 400/234/344
f 403/153/369 405/156/371 406/155/372
f 403/153/369 406/155/372 404/154/370
f 405/156/371 409/158/375 410/157/376
f 405/156/371 410/157/376 406/155/372
f 409/158/375 407/160/373 408/159/374
f 409/158/375 408/159/374 410/157/376
f 407/160/373 403/153/369 404/154/370
f 407/160/373 404/154/370 408/159/374
f 405/156/371 411/162/377 413/161/379
f 405/156/371 413/161/379 409/158/375
f 410/157/376 408/159/374 404/154/370
f 410/157/376 404/154/370 406/155/372
f 411/162/377 412/164/378 414/163/380
f 411/162/377 414/163/380 413/161/379
f 403/153/369 412/164/378 411/162/377
f 403/153/369 411/162/377 405/156/371
f 409/158/375 413/161/379 414/163/380
f 409/158/375 414/163/380 407/160/373
f 412/164/378 417/166/383 418/165/384
f 412/164/378 418/165/384 414/163/380
f 415/167/381 419/169/385 421/168/387
f 415/167/381 421/168/387 417/166/383
f 403/153/369 415/167/381 417/166/383
f 403/153/369 417/166/383 412/164/378
f 407/160/373 416/170/382 415/167/381
f 407/160/373 415/167/381 403/153/369
f 414/163/380 418/165/384 416/170/382
f 414/163/380 416/170/382 407/160/373
f 422/171/388 426/174/392 424/173/390
f 422/171/388 424/173/390 420/172/386
f 416/170/382 420/172/386 419/169/385
f 416/170/382 419/169/385 415/167/381
f 418/165/384 422/171/388 420/172/386
f 418/165/384 420/172/386 416/170/382
f 417/166/383 421/168/387 422/171/388
f 417/166/383 422/171/388 418/165/384
f 425/175/391 429/177/395 430/176/396
f 425/175/391 430/176/396 426/174/392
f 421/168/387 425/175/391 426/174/392
f 421/168/387 426/174/392 422/171/388
f 419/169/385 423/178/389 425/175/391
f 419/169/385 425/175/391 421/168/387
f 420/172/386 424/173/390 423/178/389
f 420/172/386 423/178/389 419/169/385
f 427/179/393 435/181/401 437/180/403
f 427/179/393 437/180/403 429/177/395
f 423/178/389 427/179/393 429/177/395
f 423/178/389 429/177/395 425/175/391
f 424/173/390 428/182/394 427/179/393
f 424/173/390 427/179/393 423/178/389
f 426/174/392 430/176/396 428/182/394
f 426/174/392 428/182/394 424/173/390
f 431/183/397 439/186/405 441/185/407
f 431/183/397 441/185/407 433/184/399
f 428/182/394 436/187/402 435/181/401
f 428/182/394 435/181/401 427/179/393
f 430/176/396 438/188/404 436/187/402
f 430/176/396 436/187/402 428/182/394
f 429/177/395 437/180/403 438/188/404
f 429/177/395 438/188/404 430/176/396
f 431/183/397 435/181/401 436/187/402
f 431/183/397 436/187/402 432/189/398
f 434/190/400 438/188/404 437/180/403
f 434/190/400 437/180/403 433/184/399
f 433/184/399 437/180/403 435/181/401
f 433/184/399 435/181/401 431/183/397
f 432/189/398 436/187/402 438/188/404
f 432/189/398 438/188/404 434/190/400
f 442/191/408 446/194/412 444/193/410
f 442/191/408 444/193/410 440/192/406
f 432/189/398 440/192/406 439/186/405
f 432/189/398 439/186/405 431/183/397
f 434/190/400 442/191/408 440/192/406
f 434/190/400 440/192/406 432/189/398
f 433/184/399 441/185/407 442/191/408
f 433/184/399 442/191/408 434/190/400
f 445/195/411 449/197/415 450/196/416
f 445/195/411 450/196/416 446/194/412
f 441/185/407 445/195/411 446/194/412
f 441/185/407 446/194/412 442/191/408
f 439/186/405 443/198/409 445/195/411
f 439/186/405 445/195/411 441/185/407
f 440/192/406 444/193/410 443/198/409
f 440/192/406 443/198/409 439/186/405
f 448/199/414 450/196/416 449/197/415
f 448/199/414 449/197/415 447/200/413
f 443/198/409 447/200/413 449/197/415
f 443/198/409 449/197/415 445/195/411
f 444/193/410 448/199/414 447/200/413
f 444/193/410 447/200/413 443/198/409
f 446/194/412 450/196/416 448/199/414
f 446/194/412 448/199/414 444/193/410
f 451/201/417 453/204/419 454/203/420
f 451/201/417 454/203/420 452/202/418
f 453/204/419 457/204/423 458/203/424
f 453/204/419 458/203/424 454/203/420
f 457/204/423 455/201/421 456/202/422
f 457/204/423 456/202/422 458/203/424
f 455/201/421 451/201/417 452/202/418
f 455/201/421 452/202/418 456/202/422
f 453/204/419 451/201/417 455/201/421
f 453/204/419 455/201/421 457/204/423
f 458/203/424 456/202/422 452/202/418
f 458/203/424 452/202/418 454/203/420
f 459/205/425 461/208/427 462/207/428
f 459/205/425 462/207/428 460/206/426
f 461/208/427 465/208/431 466/207/432
f 461/208/427 466/207/432 462/207/428
f 465/208/431 463/205/429 464/206/430
f 465/208/431 464/206/430 466/207/432
f 463/205/429 459/205/425 460/206/426
f 463/205/429 460/206/426 464/206/430
f 461/208/427 459/205/425 463/205/429
f 461/208/427 463/205/429 465/208/431
f 466/207/432 464/206/430 460/206/426
f 466/207/432 460/206/426 462/207/428
f 467/209/433 469/212/435 470/211/436
f 467/209/433 470/211/436 468/210/434
f 469/212/435 473/237/439 474/211/440
f 469/212/435 474/211/440 470/211/436
f 473/237/439 471/209/437 472/210/438
f 473/237/439 472/210/438 474/211/440
f 471/209/437 467/209/433 468/210/434
f 471/209/437 468/210/434 472/210/438
f 469/212/435 467/209/433 471/209/437
f 469/212/435 471/209/437 473/237/439
f 474/211/440 472/210/438 468/210/434
f 474/211/440 468/210/434 470/211/436
f 475/213/433 477/216/435 478/215/441
f 475/213/433 478/215/441 476/214/434
f 477/216/435 481/216/439 482/215/440
f 477/216/435 482/215/440 478/215/441
f 481/216/439 479/213/442 480/214/443
f 481/216/439 480/214/443 482/215/440
f 479/213/442 475/213/433 476/214/434
f 479/213/442 476/214/434 480/214/443
f 477/216/435 475/213/433 479/213/442
f 477/216/435 479/213/442 481/216/439
f 482/215/440 480/214/443 476/214/434
f 482/215/440 476/214/434 478/215/441
f 483/217/417 485/220/444 486/219/445
f 483/217/417 486/219/445 484/218/418
f 485/220/444 489/220/423 490/219/424
f 485/220/444 490/219/424 486/219/445
f 489/220/423 487/217/446 488/218/422
f 489/220/423 488/218/422 490/219/424
f 487/217/446 483/217/417 484/218/418
f 487/217/446 484/218/418 488/218/422
f 485/220/444 483/217/417 487/217/446
f 485/220/444 487/217/446 489/220/423
f 490/219/424 488/218/422 484/218/418
f 490/219/424 484/218/418 486/219/445
f 491/221/447 493/224/449 494/223/450
f 491/221/447 494/223/450 492/222/448
f 493/224/449 497/224/431 498/223/432
f 493/224/449 498/223/432 494/223/450
f 497/224/431 495/221/429 496/222/451
f 497/224/431 496/222/451 498/223/432
f 495/221/429 491/221/447 492/222/448
f 495/221/429 492/222/448 496/222/451
f 493/224/449 491/221/447 495/221/429
f 493/224/449 495/221/429 497/224/431
f 498/223/432 496/222/451 492/222/448
f 498/223/432 492/222/448 494/223/450
f 499/225/433 501/228/435 502/227/453
f 499/225/433 502/227/453 500/226/452
f 501/228/435 505/228/439 506/227/440
f 501/228/435 506/227/440 502/227/453
f 505/228/439 503/225/437 504/226/454
f 505/228/439 504/226/454 506/227/440
f 503/225/437 499/225/433 500/226/452
f 503/225/437 500/226/452 504/226/454
f 501/228/435 499/225/433 503/225/437
f 501/228/435 503/225/437 505/228/439
f 506/227/440 504/226/454 500/226/452
f 506/227/440 500/226/452 502/227/453
f 507/229/433 509/232/435 510/231/441
f 507/229/433 510/231/441 508/230/452
f 509/232/435 513/232/455 514/231/440
f 509/232/435 514/231/440 510/231/441
f 513/232/455 511/229/442 512/230/443
f 513/232/455 512/230/443 514/231/440
f 511/229/442 507/229/433 508/230/452
f 511/229/442 508/230/452 512/230/443
f 509/232/435 507/229/433 511/229/442
f 509/232/435 511/229/442 513/232/455
f 514/231/440 512/230/443 508/230/452
f 514/231/440 508/230/452 510/231/441
f 515/233/447 517/236/449 518/235/456
f 515/233/447 518/235/456 516/234/426
f 517/236/449 521/236/457 522/235/458
f 517/236/449 522/235/458 518/235/456
f 521/236/457 519/233/429 520/234/430
f 521/236/457 520/234/430 522/235/458
f 519/233/429 515/233/447 516/234/426
f 519/233/429 516/234/426 520/234/430
f 517/236/449 515/233/447 519/233/429
f 517/236/449 519/233/429 521/236/457
f 522/235/458 520/234/430 516/234/426
f 522/235/458 516/234/426 518/235/456
