# Blender 4.5.5 LTS
# www.blender.org
o Fish
v -0.035482 0.234835 -2.594365
v -0.072789 0.200449 -2.649984
v -0.087817 0.133429 -2.661201
v -0.072065 0.098502 -2.664203
v -0.033975 0.058880 -2.619667
v 0.032378 0.234835 -2.616836
v 0.038662 0.200449 -2.689132
v 0.041321 0.168337 -2.719723
v 0.042978 0.124629 -2.738790
v 0.040253 0.089016 -2.707434
v 0.011086 0.316197 -2.360774
v 0.009366 0.039332 -2.322241
v 0.006501 0.330823 -2.249545
v -0.118426 0.331107 -2.254478
v -0.170171 0.248188 -2.204587
v -0.190364 0.202273 -2.154546
v -0.170320 0.088844 -2.200913
v -0.118812 0.049536 -2.250908
v -0.084786 0.295801 -2.357965
v -0.155639 0.244311 -2.340761
v -0.181941 0.171579 -2.324766
v -0.155021 0.075561 -2.355346
v -0.085567 0.024447 -2.340698
v 0.031977 0.117239 -2.612221
v -0.180600 0.144853 -2.171718
v -0.168506 0.123570 -2.340103
v -0.026169 0.148678 -2.693221
v -0.025400 0.126285 -2.657232
v 0.000878 0.346205 -2.117878
v 0.092060 0.261326 -0.946947
v 0.098011 0.251602 -0.921800
v 0.104419 0.129354 -0.897864
v 0.105637 0.157772 -0.892389
v 0.028603 0.312905 -1.354785
v -0.109611 0.346489 -2.121870
v -0.152018 0.255652 -2.124782
v -0.167573 0.217655 -2.125060
v -0.159597 0.151959 -2.129924
v -0.152696 0.104226 -2.106986
v -0.122456 0.068686 -2.132047
v -0.084455 0.001421 -2.122007
v 0.000914 0.001312 -2.119000
v -0.000897 0.343886 -1.880771
v 0.070023 0.253913 -1.050845
v -0.111043 0.344167 -1.880834
v -0.156301 0.254332 -1.882160
v -0.172876 0.216755 -1.881878
v -0.164571 0.151785 -1.881994
v -0.156307 0.104579 -1.882606
v -0.124240 0.069432 -1.882364
v -0.084270 0.002909 -1.881859
v -0.001009 0.002801 -1.881884
v 0.104555 0.199977 -0.897051
v -0.072836 0.313136 -1.345433
v -0.103469 0.239536 -1.343571
v -0.114642 0.208750 -1.342292
v -0.108985 0.155521 -1.342916
v -0.103443 0.116846 -1.343987
v -0.085953 0.088050 -1.345466
v -0.054828 0.033549 -1.347870
v 0.028104 0.033461 -1.355610
v -0.010856 0.254055 -1.038291
v -0.020118 0.208373 -1.037948
v -0.023461 0.189264 -1.037444
v -0.021672 0.156225 -1.037550
v -0.019906 0.132220 -1.037515
v -0.010491 0.114346 -1.038196
v -0.004572 0.080517 -1.037148
v 0.070087 0.080462 -1.051458
v 0.098874 0.079321 -0.920567
v 0.053212 0.261483 -0.938922
v 0.070116 0.252014 -0.915788
v 0.082870 0.202155 -0.892181
v 0.082612 0.152291 -0.887494
v 0.079911 0.125503 -0.892557
v 0.060323 0.079367 -0.912634
v 0.047729 0.066502 -0.938130
v 0.092687 0.066443 -0.947764
v 0.005940 0.328396 -1.617300
v 0.005904 0.018131 -1.618309
v -0.100650 0.328651 -1.613761
v -0.158606 0.212753 -1.612812
v -0.143089 0.246934 -1.613574
v -0.113850 0.078741 -1.614742
v -0.150820 0.153653 -1.613183
v -0.143073 0.110712 -1.613994
v -0.075534 0.018229 -1.615544
v 0.093938 0.234835 -2.583575
v 0.141113 0.200449 -2.631641
v 0.157041 0.133429 -2.640583
v 0.141869 0.098502 -2.646249
v 0.095461 0.058880 -2.609219
v 0.131220 0.331107 -2.244050
v 0.178437 0.248188 -2.190588
v 0.194470 0.202273 -2.139452
v 0.178289 0.088844 -2.186919
v 0.130815 0.049536 -2.240299
v 0.106287 0.295801 -2.349206
v 0.175345 0.244311 -2.325806
v 0.200280 0.171579 -2.307955
v 0.175937 0.075561 -2.339983
v 0.105508 0.024447 -2.331981
v 0.186122 0.144853 -2.157212
v 0.188076 0.123570 -2.323921
v 0.103225 0.148678 -2.681974
v 0.096259 0.126285 -2.646658
v 0.111336 0.346489 -2.113615
v 0.153853 0.255652 -2.113260
v 0.169384 0.217655 -2.112379
v 0.161815 0.151959 -2.117697
v 0.153187 0.104226 -2.096022
v 0.124949 0.068686 -2.122610
v 0.086258 0.001421 -2.115634
v 0.109048 0.344167 -1.880443
v 0.154425 0.254332 -1.881645
v 0.171025 0.216755 -1.881330
v 0.162743 0.151785 -1.881483
v 0.154419 0.104579 -1.882080
v 0.122333 0.069432 -1.881950
v 0.082212 0.002909 -1.881554
v 0.129738 0.313136 -1.363895
v 0.160401 0.239536 -1.367834
v 0.171670 0.208750 -1.368630
v 0.166107 0.155521 -1.368234
v 0.160442 0.116846 -1.368147
v 0.142995 0.088050 -1.366365
v 0.111463 0.033549 -1.363153
v 0.149521 0.254055 -1.063104
v 0.158919 0.208373 -1.064358
v 0.162350 0.189264 -1.064749
v 0.160677 0.156225 -1.064842
v 0.158884 0.132220 -1.065320
v 0.149610 0.114346 -1.064607
v 0.143969 0.080517 -1.065548
v 0.129864 0.261483 -0.954621
v 0.125638 0.252014 -0.927642
v 0.125836 0.202155 -0.901663
v 0.128566 0.152291 -0.897713
v 0.128866 0.125503 -0.903444
v 0.136812 0.079367 -0.929250
v 0.136716 0.066502 -0.957023
v 0.112387 0.328651 -1.620590
v 0.170391 0.212753 -1.623300
v 0.154837 0.246934 -1.623079
v 0.125658 0.078741 -1.622375
v 0.162643 0.153653 -1.623175
v 0.154857 0.110712 -1.623462
v 0.087297 0.018229 -1.620749
v 0.064215 0.304930 -0.977777
v 0.055858 0.253463 -1.048207
v -0.041584 0.403474 -2.061671
v -0.043401 0.344789 -2.101277
v 0.000923 0.427489 -1.519423
v -0.005944 0.328426 -1.592054
v -0.027079 0.342406 -1.837383
v -0.022439 0.439421 -1.776497
v -0.033773 0.344610 -1.938385
v -0.030234 0.440353 -1.881739
v -0.039704 0.344699 -2.050488
v -0.037768 0.427434 -1.999875
v 0.029156 0.409747 -1.261024
v 0.019519 0.312517 -1.354435
v 0.046876 0.385922 -1.109125
v 0.034077 0.291852 -1.218572
v 0.059073 0.352901 -1.013825
v 0.044092 0.274382 -1.135024
v 0.066109 0.054944 -1.018812
v 0.061175 0.079847 -1.063751
v -0.003371 -0.040874 -1.724136
v -0.005929 0.012923 -1.763881
v 0.016997 0.029982 -1.463084
v 0.023724 -0.062977 -1.391705
v 0.037659 0.047536 -1.258979
v 0.048561 -0.039731 -1.164961
v 0.051613 0.066549 -1.140442
v 0.064345 -0.002799 -1.031965
v -0.000532 0.016622 -1.685999
v 0.002687 -0.071591 -1.634486
v 0.119202 0.324223 -0.831387
v 0.119618 0.006181 -0.829515
v 0.092625 0.261706 -0.950900
v 0.092487 0.067182 -0.951520
v 0.161989 0.165202 -0.638984
v 0.092556 0.164444 -0.951210
v 0.092587 0.208592 -0.951069
v 0.156027 0.268981 -0.665792
v 0.092611 0.242352 -0.950962
v 0.138846 0.329542 -0.743051
v 0.156708 0.072118 -0.662728
v 0.092530 0.127566 -0.951328
v 0.138513 0.001286 -0.744551
v 0.092506 0.093967 -0.951434
v -0.194963 0.181277 -2.013855
v -0.163511 0.014640 -2.030943
v -0.164634 0.151584 -2.123620
v -0.140863 0.071025 -2.124964
v -0.207857 0.089561 -1.895310
v -0.155071 0.104501 -2.100347
v -0.160225 0.123178 -2.102025
v -0.213987 0.151814 -1.915606
v -0.163420 0.139476 -2.110733
v -0.207251 0.173045 -1.956487
v -0.191830 0.032151 -1.926296
v -0.148953 0.087573 -2.107015
v -0.177613 0.013555 -1.968407
v -0.145102 0.077924 -2.112637
v 0.194963 0.181277 -2.013855
v 0.163511 0.014640 -2.030943
v 0.164634 0.151584 -2.123620
v 0.140863 0.071025 -2.124964
v 0.207857 0.089561 -1.895310
v 0.155071 0.104501 -2.100347
v 0.160225 0.123178 -2.102025
v 0.213987 0.151814 -1.915606
v 0.163420 0.139476 -2.110733
v 0.207251 0.173045 -1.956487
v 0.191830 0.032151 -1.926296
v 0.148953 0.087573 -2.107015
v 0.177613 0.013555 -1.968407
v 0.145102 0.077924 -2.112637
v -0.111892 0.215096 -2.587220
v -0.123291 0.193118 -2.589304
v -0.121257 0.168388 -2.588034
v -0.097960 0.212685 -2.609153
v -0.103588 0.189708 -2.620321
v -0.107325 0.165976 -2.609967
v -0.081745 0.209363 -2.605106
v -0.080657 0.185010 -2.614598
v -0.091110 0.162655 -2.605921
v -0.106981 0.155392 -2.584157
v -0.093737 0.221448 -2.583005
v -0.093394 0.210864 -2.557195
v -0.097131 0.187133 -2.546841
v -0.102759 0.164156 -2.558009
v -0.109609 0.214186 -2.561242
v -0.120062 0.191830 -2.552564
v -0.118974 0.167477 -2.562056
v 0.169375 0.215096 -2.562773
v 0.180962 0.193118 -2.562859
v 0.178740 0.168388 -2.561959
v 0.159436 0.212685 -2.586781
v 0.166906 0.189708 -2.596810
v 0.168801 0.165976 -2.585967
v 0.142766 0.209363 -2.585593
v 0.143331 0.185010 -2.595129
v 0.152131 0.162655 -2.584779
v 0.164009 0.155392 -2.560603
v 0.150765 0.221448 -2.561754
v 0.145974 0.210864 -2.536390
v 0.147868 0.187133 -2.525547
v 0.155339 0.164156 -2.535576
v 0.162644 0.214186 -2.537578
v 0.171443 0.191830 -2.527227
v 0.172009 0.167477 -2.536764
vn -0.3059 0.8895 -0.3393
vn -0.5885 0.6032 -0.5383
vn -0.7917 0.0626 -0.6076
vn -0.6376 -0.5053 -0.5815
vn -0.1872 -0.9455 -0.2665
vn 0.0303 0.9256 -0.3773
vn 0.0633 0.6861 -0.7247
vn 0.0854 -0.1876 -0.9785
vn 0.0850 0.2227 -0.9712
vn 0.0455 -0.8560 -0.5149
vn 0.0124 0.9647 -0.2630
vn 0.0074 -0.9913 -0.1316
vn 0.0075 0.9842 -0.1772
vn -0.5053 0.8461 -0.1697
vn -0.8949 0.4451 -0.0330
vn -0.9606 0.0835 0.2650
vn -0.8455 -0.5257 0.0939
vn -0.6925 -0.7212 0.0188
vn -0.3929 0.8758 -0.2803
vn -0.8341 0.4947 -0.2440
vn -0.9879 0.0302 -0.1523
vn -0.8192 -0.5537 -0.1493
vn -0.2708 -0.9558 -0.1143
vn 0.0839 0.2460 -0.9656
vn -0.9594 -0.2023 0.1964
vn -0.9632 -0.2220 -0.1514
vn -0.2307 -0.3277 -0.9162
vn 0.3667 0.3137 -0.8758
vn 0.0022 0.9986 -0.0533
vn 0.0301 0.9900 0.1380
vn 0.1398 0.7451 0.6521
vn 0.2051 -0.3114 0.9279
vn 0.2166 -0.0279 0.9759
vn 0.0130 0.9923 0.1233
vn -0.4993 0.8662 -0.0205
vn -0.8894 0.4535 0.0585
vn -0.9638 0.1998 0.1768
vn -0.9534 -0.1767 0.2444
vn -0.8843 -0.4593 0.0837
vn -0.7401 -0.6702 0.0553
vn -0.4452 -0.8944 -0.0440
vn 0.0031 -0.9976 -0.0698
vn 0.0004 0.9994 0.0342
vn 0.0054 0.9982 0.0597
vn -0.5267 0.8493 0.0348
vn -0.9059 0.4229 0.0223
vn -0.9897 0.1423 0.0179
vn -0.9890 -0.1473 0.0162
vn -0.9007 -0.4341 0.0202
vn -0.8046 -0.5933 0.0249
vn -0.4933 -0.8692 0.0336
vn 0.0004 -0.9995 0.0321
vn 0.2061 0.2702 0.9405
vn -0.5386 0.8211 0.1887
vn -0.9137 0.3496 0.2070
vn -0.9679 0.1183 0.2216
vn -0.9694 -0.1206 0.2136
vn -0.9134 -0.3543 0.2005
vn -0.8467 -0.5027 0.1745
vn -0.5098 -0.8462 0.1549
vn 0.0122 -0.9945 0.1040
vn -0.6131 0.7158 0.3343
vn -0.8818 0.2016 0.4263
vn -0.8969 0.0729 0.4362
vn -0.9012 -0.0568 0.4297
vn -0.8928 -0.1836 0.4114
vn -0.8877 -0.2559 0.3827
vn -0.6255 -0.7364 0.2578
vn -0.0024 -0.9999 0.0109
vn 0.1492 -0.7134 0.6846
vn -0.5027 0.7646 0.4034
vn -0.3292 0.6071 0.7232
vn -0.3083 0.2205 0.9254
vn -0.3261 -0.0537 0.9438
vn -0.3179 -0.2515 0.9142
vn -0.4044 -0.5461 0.7336
vn -0.5174 -0.7801 0.3519
vn 0.0328 -0.9884 0.1480
vn 0.0023 0.9983 0.0587
vn 0.0022 -0.9983 0.0580
vn -0.5315 0.8423 0.0899
vn -0.9846 0.1389 0.1060
vn -0.9037 0.4168 0.0982
vn -0.8082 -0.5833 0.0811
vn -0.9839 -0.1464 0.1022
vn -0.9039 -0.4170 0.0951
vn -0.4919 -0.8672 0.0774
vn 0.3458 0.8922 -0.2905
vn 0.6657 0.6051 -0.4367
vn 0.8774 0.0564 -0.4765
vn 0.7209 -0.5119 -0.4671
vn 0.2151 -0.9480 -0.2345
vn 0.5187 0.8454 -0.1275
vn 0.8945 0.4450 0.0417
vn 0.9347 0.0832 0.3455
vn 0.8345 -0.5258 0.1648
vn 0.6891 -0.7205 0.0772
vn 0.4138 0.8794 -0.2356
vn 0.8516 0.5020 -0.1509
vn 0.9986 0.0284 -0.0446
vn 0.8252 -0.5627 -0.0497
vn 0.2714 -0.9586 -0.0865
vn 0.9392 -0.2026 0.2773
vn 0.9724 -0.2302 -0.0387
vn 0.3854 -0.3269 -0.8629
vn -0.2162 0.3130 -0.9248
vn 0.4916 0.8708 0.0028
vn 0.8848 0.4546 0.1022
vn 0.9533 0.2030 0.2238
vn 0.9379 -0.1802 0.2963
vn 0.8779 -0.4641 0.1179
vn 0.7376 -0.6686 0.0943
vn 0.4396 -0.8979 -0.0252
vn 0.5187 0.8545 0.0265
vn 0.9059 0.4235 0.0068
vn 0.9896 0.1440 0.0006
vn 0.9886 -0.1504 -0.0018
vn 0.8995 -0.4368 0.0042
vn 0.8069 -0.5906 0.0111
vn 0.4847 -0.8743 0.0261
vn 0.5528 0.8300 0.0744
vn 0.9355 0.3533 0.0081
vn 0.9926 0.1210 0.0123
vn 0.9927 -0.1205 0.0029
vn 0.9339 -0.3574 0.0021
vn 0.8629 -0.5052 -0.0119
vn 0.5171 -0.8547 0.0458
vn 0.6627 0.7406 0.1109
vn 0.9685 0.2229 0.1112
vn 0.9896 0.0832 0.1170
vn 0.9926 -0.0575 0.1067
vn 0.9778 -0.1892 0.0899
vn 0.9593 -0.2768 0.0552
vn 0.6469 -0.7620 0.0280
vn 0.5953 0.7857 0.1679
vn 0.5867 0.6128 0.5294
vn 0.6626 0.2255 0.7142
vn 0.6894 -0.0552 0.7223
vn 0.6698 -0.2585 0.6961
vn 0.6646 -0.5565 0.4987
vn 0.5992 -0.7935 0.1064
vn 0.5217 0.8525 0.0335
vn 0.9900 0.1412 -0.0008
vn 0.9082 0.4185 -0.0005
vn 0.8118 -0.5839 -0.0090
vn 0.9893 -0.1461 -0.0055
vn 0.9071 -0.4210 -0.0039
vn 0.4811 -0.8763 0.0254
vn 0.9915 0.0127 -0.1293
vn 0.9973 0.0185 -0.0705
vn 0.9949 0.0053 -0.1012
vn 0.9955 0.0033 -0.0942
vn 0.9971 0.0008 -0.0761
vn 0.9966 0.0012 -0.0822
vn 0.9980 0.0032 -0.0625
vn 0.9978 0.0017 -0.0666
vn 0.9977 0.0140 -0.0666
vn 0.9981 0.0078 -0.0613
vn 0.9939 0.0030 -0.1101
vn 0.9941 0.0054 -0.1084
vn 0.9929 0.0030 -0.1191
vn 0.9934 0.0020 -0.1144
vn 0.9919 0.0095 -0.1268
vn 0.9923 0.0059 -0.1241
vn 0.9929 -0.0077 -0.1191
vn 0.9976 -0.0036 -0.0688
vn 0.9960 -0.0006 -0.0896
vn 0.9952 0.0002 -0.0981
vn 0.9941 0.0002 -0.1085
vn 0.9935 -0.0008 -0.1137
vn 0.9931 -0.0030 -0.1175
vn 0.9930 -0.0052 -0.1183
vn 0.9973 -0.0028 -0.0736
vn 0.9969 -0.0019 -0.0790
vn 0.9762 -0.0000 -0.2171
vn 0.9513 0.2216 0.2141
vn 0.9714 0.0224 0.2363
vn 0.9502 0.1765 0.2570
vn 0.9505 0.1734 0.2578
vn 0.9478 0.2090 0.2410
vn 0.9475 0.2047 0.2457
vn 0.9501 0.2199 0.2211
vn 0.9486 0.2177 0.2298
vn 0.9523 0.1488 0.2666
vn 0.9517 0.1473 0.2695
vn 0.9547 0.1274 0.2689
vn 0.9654 0.0698 0.2513
vn -0.9513 0.2216 0.2141
vn -0.9714 0.0224 0.2363
vn -0.9502 0.1765 0.2570
vn -0.9505 0.1734 0.2578
vn -0.9478 0.2090 0.2410
vn -0.9475 0.2047 0.2457
vn -0.9501 0.2199 0.2211
vn -0.9486 0.2177 0.2298
vn -0.9523 0.1488 0.2666
vn -0.9517 0.1473 0.2695
vn -0.9547 0.1274 0.2689
vn -0.9654 0.0698 0.2513
vn -0.6581 0.7304 -0.1829
vn -0.9516 0.1949 -0.2375
vn -0.8875 -0.4138 -0.2028
vn -0.1654 0.7111 -0.6833
vn -0.3272 0.0820 -0.9414
vn -0.4221 -0.5691 -0.7056
vn 0.3070 0.6353 -0.7087
vn 0.2361 -0.0304 -0.9712
vn 0.0432 -0.6804 -0.7316
vn -0.5075 -0.8562 -0.0966
vn -0.1377 0.9884 -0.0644
vn -0.0432 0.6804 0.7316
vn -0.2361 0.0304 0.9712
vn -0.3070 -0.6353 0.7087
vn -0.4502 0.7478 0.4880
vn -0.7214 0.1328 0.6797
vn -0.7069 -0.5324 0.4657
vn 0.6798 0.7304 -0.0666
vn 0.9783 0.1949 -0.0697
vn 0.9092 -0.4138 -0.0467
vn 0.2808 0.7111 -0.6446
vn 0.4847 0.0820 -0.8708
vn 0.5375 -0.5691 -0.6222
vn -0.1801 0.6353 -0.7510
vn -0.0650 -0.0304 -0.9974
vn 0.0837 -0.6804 -0.7281
vn 0.5166 -0.8562 -0.0076
vn 0.1468 0.9884 -0.0397
vn -0.0837 0.6804 0.7281
vn 0.0650 0.0304 0.9974
vn 0.1801 -0.6353 0.7510
vn 0.3592 0.7478 0.5583
vn 0.5933 0.1328 0.7940
vn 0.6159 -0.5324 0.5806
vt 0.970699 0.414114
vt 0.971043 0.412903
vt 0.978478 0.412787
vt 0.977439 0.413680
vt 0.941841 0.236675
vt 0.941434 0.238423
vt 0.934019 0.237369
vt 0.933777 0.235759
vt 0.932853 0.237369
vt 0.932115 0.236598
vt 0.932890 0.236125
vt 0.945494 0.236033
vt 0.944786 0.234687
vt 0.947008 0.235057
vt 0.946472 0.236204
vt 0.940945 0.239661
vt 0.935270 0.238196
vt 0.980529 0.412279
vt 0.979723 0.413089
vt 0.291486 0.415224
vt 0.290626 0.415762
vt 0.289851 0.416235
vt 0.292444 0.415007
vt 0.940772 0.240151
vt 0.943454 0.240509
vt 0.943448 0.240502
vt 0.970382 0.413737
vt 0.965448 0.414362
vt 0.965444 0.414360
vt 0.944697 0.238516
vt 0.945914 0.237413
vt 0.946594 0.237783
vt 0.946587 0.238696
vt 0.941464 0.235522
vt 0.941088 0.234368
vt 0.934597 0.238196
vt 0.943543 0.233743
vt 0.941360 0.233140
vt 0.946618 0.240879
vt 0.965743 0.412758
vt 0.959757 0.413990
vt 0.959861 0.412395
vt 0.946615 0.240872
vt 0.952317 0.240823
vt 0.952313 0.240816
vt 0.946387 0.234203
vt 0.952280 0.234221
vt 0.952276 0.235065
vt 0.952290 0.236200
vt 0.952294 0.237761
vt 0.952286 0.238664
vt 0.968556 0.413384
vt 0.958647 0.240444
vt 0.958650 0.240450
vt 0.964983 0.240077
vt 0.964980 0.240072
vt 0.958612 0.235213
vt 0.958616 0.234444
vt 0.964953 0.234668
vt 0.964949 0.235360
vt 0.958626 0.236245
vt 0.964961 0.236290
vt 0.958622 0.238486
vt 0.958629 0.237665
vt 0.964964 0.237569
vt 0.964958 0.238309
vt 0.953454 0.413251
vt 0.953458 0.413254
vt 0.947154 0.412515
vt 0.947151 0.412513
vt 0.959761 0.413993
vt 0.972342 0.237560
vt 0.972352 0.238657
vt 0.939854 0.410955
vt 0.939853 0.410954
vt 0.972341 0.236306
vt 0.972343 0.237100
vt 0.947237 0.411206
vt 0.939903 0.410143
vt 0.972351 0.238654
vt 0.972336 0.235300
vt 0.972336 0.235730
vt 0.953549 0.411800
vt 0.976249 0.236212
vt 0.976141 0.237410
vt 0.937286 0.411141
vt 0.936647 0.410794
vt 0.974906 0.238836
vt 0.974905 0.238832
vt 0.975548 0.234459
vt 0.976116 0.235568
vt 0.975527 0.238608
vt 0.976119 0.235661
vt 0.976254 0.236344
vt 0.976139 0.237358
vt 0.975525 0.238599
vt 0.975558 0.234458
vt 0.937288 0.411142
vt 0.936637 0.410794
vt 0.931655 0.235547
vt 0.933672 0.234919
vt 0.291512 0.415396
vt 0.289391 0.415184
vt 0.938907 0.312895
vt 0.937494 0.310589
vt 0.936070 0.310592
vt 0.937177 0.312227
vt 0.959626 0.312402
vt 0.957004 0.309692
vt 0.950333 0.310136
vt 0.952370 0.312896
vt 0.943456 0.310525
vt 0.945161 0.313229
vt 0.940629 0.310587
vt 0.942214 0.313255
vt 0.963896 0.311738
vt 0.960818 0.309116
vt 0.966579 0.310818
vt 0.963167 0.308630
vt 0.967595 0.309481
vt 0.965613 0.308047
vt 0.966079 0.300905
vt 0.963034 0.302838
vt 0.965188 0.303208
vt 0.966449 0.302514
vt 0.949192 0.298988
vt 0.947753 0.301446
vt 0.953988 0.301818
vt 0.955986 0.299228
vt 0.959707 0.302308
vt 0.962345 0.299876
vt 0.946686 0.299844
vt 0.945576 0.301343
vt 0.974317 0.301019
vt 0.971892 0.301155
vt 0.968409 0.302855
vt 0.968411 0.303602
vt 0.976566 0.308479
vt 0.977331 0.305587
vt 0.968417 0.305566
vt 0.968421 0.306796
vt 0.974360 0.310167
vt 0.968424 0.307737
vt 0.971838 0.310019
vt 0.968426 0.308276
vt 0.976653 0.302993
vt 0.968414 0.304538
vt 0.939891 0.301361
vt 0.938149 0.301391
vt 0.935528 0.302962
vt 0.935872 0.303155
vt 0.941363 0.305214
vt 0.941929 0.303479
vt 0.936215 0.303895
vt 0.936168 0.304416
vt 0.940224 0.305805
vt 0.935925 0.304870
vt 0.938625 0.306035
vt 0.935566 0.305207
vt 0.941065 0.301879
vt 0.936029 0.303423
vt 0.933761 0.083415
vt 0.933734 0.084009
vt 0.932951 0.083927
vt 0.933206 0.083357
vt 0.933761 0.084537
vt 0.933824 0.084690
vt 0.933206 0.084480
vt 0.933824 0.083103
vt 0.933270 0.083277
vt 0.933270 0.084400
vt 0.933040 0.083814
vt 0.934441 0.083313
vt 0.934697 0.083865
vt 0.934607 0.083978
vt 0.934378 0.083393
vt 0.934441 0.084436
vt 0.934378 0.084516
s 1
f 23/1/23 22/2/22 4/3/4
f 23/1/23 4/3/4 5/4/5
f 21/5/21 20/6/20 2/7/2
f 21/5/21 2/7/2 3/8/3
f 3/8/3 2/7/2 7/9/7
f 3/8/3 7/9/7 8/10/8
f 3/8/3 8/10/8 27/11/27
f 25/12/25 17/13/17 39/14/39
f 25/12/25 39/14/39 38/15/38
f 20/6/20 19/16/19 1/17/1
f 20/6/20 1/17/1 2/7/2
f 5/4/5 4/3/4 9/18/9
f 5/4/5 9/18/9 10/19/10
f 28/20/28 27/21/27 8/22/8
f 28/20/28 8/22/8 24/23/24
f 11/24/11 19/16/19 14/25/14
f 11/24/11 14/25/14 13/26/13
f 5/4/5 10/19/10 12/27/12
f 5/4/5 12/27/12 23/1/23
f 23/1/23 12/27/12 42/28/42
f 23/1/23 42/28/42 41/29/41
f 15/30/15 16/31/16 37/32/37
f 15/30/15 37/32/37 36/33/36
f 17/13/17 25/12/25 26/34/26
f 17/13/17 26/34/26 22/35/22
f 2/7/2 1/17/1 6/36/6
f 2/7/2 6/36/6 7/9/7
f 15/30/15 14/25/14 19/16/19
f 15/30/15 19/16/19 20/6/20
f 18/37/18 17/13/17 22/35/22
f 18/37/18 22/35/22 23/38/23
f 16/31/16 15/30/15 20/6/20
f 16/31/16 20/6/20 21/5/21
f 25/12/25 16/31/16 21/5/21
f 25/12/25 21/5/21 26/34/26
f 14/25/14 15/30/15 36/33/36
f 14/25/14 36/33/36 35/39/35
f 11/24/11 6/36/6 1/17/1
f 11/24/11 1/17/1 19/16/19
f 40/40/40 41/29/41 51/41/51
f 40/40/40 51/41/51 50/42/50
f 29/43/29 35/39/35 45/44/45
f 29/43/29 45/44/45 43/45/43
f 39/14/39 40/46/40 50/47/50
f 39/14/39 50/47/50 49/48/49
f 38/15/38 39/14/39 49/48/49
f 38/15/38 49/48/49 48/49/48
f 36/33/36 37/32/37 47/50/47
f 36/33/36 47/50/47 46/51/46
f 35/39/35 36/33/36 46/51/46
f 35/39/35 46/51/46 45/44/45
f 18/52/18 23/1/23 41/29/41
f 18/52/18 41/29/41 40/40/40
f 17/13/17 18/37/18 40/46/40
f 17/13/17 40/46/40 39/14/39
f 13/26/13 14/25/14 35/39/35
f 13/26/13 35/39/35 29/43/29
f 16/31/16 25/12/25 38/15/38
f 16/31/16 38/15/38 37/32/37
f 79/53/79 81/54/81 54/55/54
f 79/53/79 54/55/54 34/56/34
f 86/57/86 84/58/84 59/59/59
f 86/57/86 59/59/59 58/60/58
f 85/61/85 86/57/86 58/60/58
f 85/61/85 58/60/58 57/62/57
f 83/63/83 82/64/82 56/65/56
f 83/63/83 56/65/56 55/66/55
f 81/54/81 83/63/83 55/66/55
f 81/54/81 55/66/55 54/55/54
f 87/67/87 80/68/80 61/69/61
f 87/67/87 61/69/61 60/70/60
f 37/32/37 38/15/38 48/49/48
f 37/32/37 48/49/48 47/50/47
f 41/29/41 42/28/42 52/71/52
f 41/29/41 52/71/52 51/41/51
f 54/55/54 55/66/55 63/72/63
f 54/55/54 63/72/63 62/73/62
f 60/70/60 61/69/61 69/74/69
f 60/70/60 69/74/69 68/75/68
f 56/65/56 57/62/57 65/76/65
f 56/65/56 65/76/65 64/77/64
f 59/78/59 60/70/60 68/75/68
f 59/78/59 68/75/68 67/79/67
f 34/56/34 54/55/54 62/73/62
f 34/56/34 62/73/62 44/80/44
f 58/60/58 59/59/59 67/81/67
f 58/60/58 67/81/67 66/82/66
f 84/83/84 87/67/87 60/70/60
f 84/83/84 60/70/60 59/78/59
f 82/64/82 85/61/85 57/62/57
f 82/64/82 57/62/57 56/65/56
f 64/77/64 65/76/65 74/84/74
f 64/77/64 74/84/74 73/85/73
f 67/79/67 68/75/68 77/86/77
f 67/79/67 77/86/77 76/87/76
f 44/80/44 62/73/62 71/88/71
f 44/80/44 71/88/71 30/89/30
f 66/82/66 67/81/67 76/90/76
f 66/82/66 76/90/76 75/91/75
f 65/76/65 66/82/66 75/91/75
f 65/76/65 75/91/75 74/84/74
f 63/72/63 64/77/64 73/85/73
f 63/72/63 73/85/73 72/92/72
f 55/66/55 56/65/56 64/77/64
f 55/66/55 64/77/64 63/72/63
f 57/62/57 58/60/58 66/82/66
f 57/62/57 66/82/66 65/76/65
f 32/93/32 33/94/33 74/84/74
f 32/93/32 74/84/74 75/91/75
f 33/94/33 53/95/53 73/85/73
f 33/94/33 73/85/73 74/84/74
f 31/96/31 30/89/30 71/88/71
f 31/96/31 71/88/71 72/92/72
f 70/97/70 32/93/32 75/91/75
f 70/97/70 75/91/75 76/90/76
f 53/95/53 31/96/31 72/92/72
f 53/95/53 72/92/72 73/85/73
f 76/87/76 77/86/77 78/98/78
f 76/87/76 78/98/78 70/99/70
f 68/75/68 69/74/69 78/98/78
f 68/75/68 78/98/78 77/86/77
f 62/73/62 63/72/63 72/92/72
f 62/73/62 72/92/72 71/88/71
f 47/50/47 48/49/48 85/61/85
f 47/50/47 85/61/85 82/64/82
f 50/42/50 51/41/51 87/67/87
f 50/42/50 87/67/87 84/83/84
f 51/41/51 52/71/52 80/68/80
f 51/41/51 80/68/80 87/67/87
f 45/44/45 46/51/46 83/63/83
f 45/44/45 83/63/83 81/54/81
f 46/51/46 47/50/47 82/64/82
f 46/51/46 82/64/82 83/63/83
f 48/49/48 49/48/49 86/57/86
f 48/49/48 86/57/86 85/61/85
f 49/48/49 50/47/50 84/58/84
f 49/48/49 84/58/84 86/57/86
f 43/45/43 45/44/45 81/54/81
f 43/45/43 81/54/81 79/53/79
f 9/100/9 4/101/4 3/8/3
f 22/35/22 26/34/26 21/5/21
f 22/35/22 21/5/21 3/8/3
f 22/35/22 3/8/3 4/101/4
f 3/102/3 27/21/27 28/20/28
f 24/23/24 9/103/9 28/20/28
f 9/103/9 3/102/3 28/20/28
f 102/1/102 92/4/92 91/3/91
f 102/1/102 91/3/91 101/2/101
f 100/5/100 90/8/90 89/7/89
f 100/5/100 89/7/89 99/6/99
f 90/8/90 105/11/105 8/10/8
f 90/8/90 8/10/8 7/9/7
f 90/8/90 7/9/7 89/7/89
f 103/12/103 110/15/110 111/14/111
f 103/12/103 111/14/111 96/13/96
f 99/6/99 89/7/89 88/17/88
f 99/6/99 88/17/88 98/16/98
f 92/4/92 10/19/10 9/18/9
f 92/4/92 9/18/9 91/3/91
f 106/20/106 24/23/24 8/22/8
f 106/20/106 8/22/8 105/21/105
f 11/24/11 13/26/13 93/25/93
f 11/24/11 93/25/93 98/16/98
f 92/4/92 102/1/102 12/27/12
f 92/4/92 12/27/12 10/19/10
f 102/1/102 113/29/113 42/28/42
f 102/1/102 42/28/42 12/27/12
f 94/30/94 108/33/108 109/32/109
f 94/30/94 109/32/109 95/31/95
f 96/13/96 101/35/101 104/34/104
f 96/13/96 104/34/104 103/12/103
f 89/7/89 7/9/7 6/36/6
f 89/7/89 6/36/6 88/17/88
f 94/30/94 99/6/99 98/16/98
f 94/30/94 98/16/98 93/25/93
f 97/37/97 102/38/102 101/35/101
f 97/37/97 101/35/101 96/13/96
f 95/31/95 100/5/100 99/6/99
f 95/31/95 99/6/99 94/30/94
f 103/12/103 104/34/104 100/5/100
f 103/12/103 100/5/100 95/31/95
f 93/25/93 107/39/107 108/33/108
f 93/25/93 108/33/108 94/30/94
f 11/24/11 98/16/98 88/17/88
f 11/24/11 88/17/88 6/36/6
f 112/40/112 119/42/119 120/41/120
f 112/40/112 120/41/120 113/29/113
f 29/43/29 43/45/43 114/44/114
f 29/43/29 114/44/114 107/39/107
f 111/14/111 118/48/118 119/47/119
f 111/14/111 119/47/119 112/46/112
f 110/15/110 117/49/117 118/48/118
f 110/15/110 118/48/118 111/14/111
f 108/33/108 115/51/115 116/50/116
f 108/33/108 116/50/116 109/32/109
f 107/39/107 114/44/114 115/51/115
f 107/39/107 115/51/115 108/33/108
f 97/52/97 112/40/112 113/29/113
f 97/52/97 113/29/113 102/1/102
f 96/13/96 111/14/111 112/46/112
f 96/13/96 112/46/112 97/37/97
f 13/26/13 29/43/29 107/39/107
f 13/26/13 107/39/107 93/25/93
f 95/31/95 109/32/109 110/15/110
f 95/31/95 110/15/110 103/12/103
f 79/53/79 34/56/34 121/55/121
f 79/53/79 121/55/121 142/54/142
f 147/57/147 125/60/125 126/59/126
f 147/57/147 126/59/126 145/58/145
f 146/61/146 124/62/124 125/60/125
f 146/61/146 125/60/125 147/57/147
f 144/63/144 122/66/122 123/65/123
f 144/63/144 123/65/123 143/64/143
f 142/54/142 121/55/121 122/66/122
f 142/54/142 122/66/122 144/63/144
f 148/67/148 127/70/127 61/69/61
f 148/67/148 61/69/61 80/68/80
f 109/32/109 116/50/116 117/49/117
f 109/32/109 117/49/117 110/15/110
f 113/29/113 120/41/120 52/71/52
f 113/29/113 52/71/52 42/28/42
f 121/55/121 128/73/128 129/72/129
f 121/55/121 129/72/129 122/66/122
f 127/70/127 134/75/134 69/74/69
f 127/70/127 69/74/69 61/69/61
f 123/65/123 130/77/130 131/76/131
f 123/65/123 131/76/131 124/62/124
f 126/78/126 133/79/133 134/75/134
f 126/78/126 134/75/134 127/70/127
f 34/56/34 44/80/44 128/73/128
f 34/56/34 128/73/128 121/55/121
f 125/60/125 132/82/132 133/81/133
f 125/60/125 133/81/133 126/59/126
f 145/83/145 126/78/126 127/70/127
f 145/83/145 127/70/127 148/67/148
f 143/64/143 123/65/123 124/62/124
f 143/64/143 124/62/124 146/61/146
f 130/77/130 137/85/137 138/84/138
f 130/77/130 138/84/138 131/76/131
f 133/79/133 140/87/140 141/86/141
f 133/79/133 141/86/141 134/75/134
f 44/80/44 30/89/30 135/88/135
f 44/80/44 135/88/135 128/73/128
f 132/82/132 139/91/139 140/90/140
f 132/82/132 140/90/140 133/81/133
f 131/76/131 138/84/138 139/91/139
f 131/76/131 139/91/139 132/82/132
f 129/72/129 136/92/136 137/85/137
f 129/72/129 137/85/137 130/77/130
f 122/66/122 129/72/129 130/77/130
f 122/66/122 130/77/130 123/65/123
f 124/62/124 131/76/131 132/82/132
f 124/62/124 132/82/132 125/60/125
f 32/93/32 139/91/139 138/84/138
f 32/93/32 138/84/138 33/94/33
f 33/94/33 138/84/138 137/85/137
f 33/94/33 137/85/137 53/95/53
f 31/96/31 136/92/136 135/88/135
f 31/96/31 135/88/135 30/89/30
f 70/97/70 140/90/140 139/91/139
f 70/97/70 139/91/139 32/93/32
f 53/95/53 137/85/137 136/92/136
f 53/95/53 136/92/136 31/96/31
f 140/87/140 70/99/70 78/98/78
f 140/87/140 78/98/78 141/86/141
f 134/75/134 141/86/141 78/98/78
f 134/75/134 78/98/78 69/74/69
f 128/73/128 135/88/135 136/92/136
f 128/73/128 136/92/136 129/72/129
f 116/50/116 143/64/143 146/61/146
f 116/50/116 146/61/146 117/49/117
f 119/42/119 145/83/145 148/67/148
f 119/42/119 148/67/148 120/41/120
f 120/41/120 148/67/148 80/68/80
f 120/41/120 80/68/80 52/71/52
f 114/44/114 142/54/142 144/63/144
f 114/44/114 144/63/144 115/51/115
f 115/51/115 144/63/144 143/64/143
f 115/51/115 143/64/143 116/50/116
f 117/49/117 146/61/146 147/57/147
f 117/49/117 147/57/147 118/48/118
f 118/48/118 147/57/147 145/58/145
f 118/48/118 145/58/145 119/47/119
f 43/45/43 79/53/79 142/54/142
f 43/45/43 142/54/142 114/44/114
f 9/100/9 90/8/90 91/101/91
f 101/35/101 91/101/91 90/8/90
f 101/35/101 90/8/90 100/5/100
f 101/35/101 100/5/100 104/34/104
f 90/102/90 106/20/106 105/21/105
f 24/23/24 106/20/106 9/103/9
f 9/103/9 106/20/106 90/102/90
f 160/104/158 159/105/157 152/106/150
f 160/104/158 152/106/150 151/107/150
f 161/108/159 162/109/160 154/110/152
f 161/108/159 154/110/152 153/111/151
f 153/111/151 154/110/152 155/112/153
f 153/111/151 155/112/153 156/113/154
f 156/113/154 155/112/153 157/114/155
f 156/113/154 157/114/155 158/115/156
f 158/115/156 157/114/155 159/105/157
f 158/115/156 159/105/157 160/104/158
f 163/116/161 164/117/162 162/109/160
f 163/116/161 162/109/160 161/108/159
f 165/118/163 166/119/164 164/117/162
f 165/118/163 164/117/162 163/116/161
f 149/120/149 150/121/149 166/119/164
f 149/120/149 166/119/164 165/118/163
f 176/122/172 175/123/171 168/124/165
f 176/122/172 168/124/165 167/125/165
f 178/126/174 177/127/173 171/128/167
f 178/126/174 171/128/167 172/129/168
f 172/129/168 171/128/167 173/130/169
f 172/129/168 173/130/169 174/131/170
f 174/131/170 173/130/169 175/123/171
f 174/131/170 175/123/171 176/122/172
f 169/132/166 170/133/166 177/127/173
f 169/132/166 177/127/173 178/126/174
f 191/134/175 180/135/175 182/136/175
f 191/134/175 182/136/175 192/137/175
f 186/138/175 183/139/175 184/140/175
f 186/138/175 184/140/175 185/141/175
f 188/142/175 186/138/175 185/141/175
f 188/142/175 185/141/175 187/143/175
f 179/144/175 188/142/175 187/143/175
f 179/144/175 187/143/175 181/145/175
f 183/139/175 189/146/175 190/147/175
f 183/139/175 190/147/175 184/140/175
f 189/146/175 191/134/175 192/137/175
f 189/146/175 192/137/175 190/147/175
f 205/148/186 194/149/177 196/150/177
f 205/148/186 196/150/177 206/151/187
f 200/152/181 197/153/178 198/154/179
f 200/152/181 198/154/179 199/155/180
f 202/156/183 200/152/181 199/155/180
f 202/156/183 199/155/180 201/157/182
f 193/158/176 202/156/183 201/157/182
f 193/158/176 201/157/182 195/159/176
f 197/153/178 203/160/184 204/161/185
f 197/153/178 204/161/185 198/154/179
f 203/160/184 205/148/186 206/151/187
f 203/160/184 206/151/187 204/161/185
f 219/148/198 220/151/199 210/150/189
f 219/148/198 210/150/189 208/149/189
f 214/152/193 213/155/192 212/154/191
f 214/152/193 212/154/191 211/153/190
f 216/156/195 215/157/194 213/155/192
f 216/156/195 213/155/192 214/152/193
f 207/158/188 209/159/188 215/157/194
f 207/158/188 215/157/194 216/156/195
f 211/153/190 212/154/191 218/161/197
f 211/153/190 218/161/197 217/160/196
f 217/160/196 218/161/197 220/151/199
f 217/160/196 220/151/199 219/148/198
f 223/162/202 222/163/201 225/164/204
f 223/162/202 225/164/204 226/165/205
f 221/166/200 231/167/210 224/168/203
f 230/169/209 223/162/202 226/165/205
f 222/163/201 221/166/200 224/168/203
f 222/163/201 224/168/203 225/164/204
f 230/169/209 226/165/205 229/170/208
f 225/164/204 224/168/203 227/171/206
f 225/164/204 227/171/206 228/172/207
f 226/165/205 225/164/204 228/172/207
f 226/165/205 228/172/207 229/170/208
f 224/168/203 231/167/210 227/171/206
f 234/173/213 233/174/212 236/175/215
f 234/173/213 236/175/215 237/176/216
f 232/177/211 231/167/210 235/178/214
f 230/169/209 234/173/213 237/176/216
f 233/174/212 232/177/211 235/178/214
f 233/174/212 235/178/214 236/175/215
f 237/176/216 236/175/215 222/163/201
f 237/176/216 222/163/201 223/162/202
f 235/178/214 231/167/210 221/166/200
f 230/169/209 237/176/216 223/162/202
f 236/175/215 235/178/214 221/166/200
f 236/175/215 221/166/200 222/163/201
f 240/162/219 243/165/222 242/164/221
f 240/162/219 242/164/221 239/163/218
f 238/166/217 241/168/220 248/167/227
f 247/169/226 243/165/222 240/162/219
f 239/163/218 242/164/221 241/168/220
f 239/163/218 241/168/220 238/166/217
f 247/169/226 246/170/225 243/165/222
f 242/164/221 245/172/224 244/171/223
f 242/164/221 244/171/223 241/168/220
f 243/165/222 246/170/225 245/172/224
f 243/165/222 245/172/224 242/164/221
f 241/168/220 244/171/223 248/167/227
f 251/173/230 254/176/233 253/175/232
f 251/173/230 253/175/232 250/174/229
f 249/177/228 252/178/231 248/167/227
f 247/169/226 254/176/233 251/173/230
f 250/174/229 253/175/232 252/178/231
f 250/174/229 252/178/231 249/177/228
f 254/176/233 240/162/219 239/163/218
f 254/176/233 239/163/218 253/175/232
f 252/178/231 238/166/217 248/167/227
f 247/169/226 240/162/219 254/176/233
f 253/175/232 239/163/218 238/166/217
f 253/175/232 238/166/217 252/178/231
