# Blender 4.5.5 LTS
# www.blender.org
mtllib Animal_Frog.mtl
o Frog
v 0.083970 0.054319 -2.429644
v 0.082367 0.140764 -2.375277
v 0.063611 0.135992 -2.562210
v 0.081925 0.202252 -2.500482
v -0.000179 0.105721 -2.558856
v -0.005039 0.239386 -2.490344
v 0.004923 0.049806 -2.441247
v 0.001265 0.156025 -2.343446
v 0.084828 0.065523 -2.482258
v 0.075918 0.092302 -2.531518
v 0.090768 0.184143 -2.458142
v 0.086801 0.178213 -2.409604
v -0.003397 0.226506 -2.435006
v -0.002052 0.202458 -2.368008
v 0.000993 0.082528 -2.521669
v 0.002586 0.070492 -2.484335
v 0.097587 0.148486 -2.552656
v 0.098737 0.104845 -2.391460
v -0.006264 0.237079 -2.559065
v 0.106804 0.121949 -2.511374
v 0.104897 0.118287 -2.441348
v 0.096855 0.080264 -2.358882
v 0.078900 0.056645 -2.391151
v 0.009767 0.010218 -2.350937
v 0.076521 0.112682 -2.356179
v 0.008065 0.067067 -2.296662
v 0.009806 0.024968 -2.315646
v 0.063837 0.233900 -2.549881
v 0.073349 0.200915 -2.560513
v 0.057461 0.174220 -2.573482
v -0.001392 0.129527 -2.582223
v 0.025239 0.245139 -2.732146
v 0.082391 0.183016 -2.628027
v -0.010611 0.276657 -2.650935
v 0.066228 0.275108 -2.608785
v -0.003985 0.143818 -2.631284
v 0.014605 0.220066 -2.726117
v -0.011763 0.255064 -2.726785
v 0.012817 0.255963 -2.725323
v -0.010160 0.219159 -2.727574
v -0.011430 0.243693 -2.733268
v 0.088395 0.207386 -2.589615
v 0.026987 0.264895 -2.621995
v 0.071711 0.249034 -2.604857
v 0.085406 0.204953 -2.594955
v 0.026840 0.264831 -2.622244
v 0.084517 0.232342 -2.627865
v 0.077675 0.229778 -2.666532
v 0.055290 0.285062 -2.649051
v 0.052209 0.264619 -2.677119
v 0.081578 0.253783 -2.617691
v 0.074915 0.280148 -2.622365
v 0.077396 0.248590 -2.645062
v 0.068686 0.250783 -2.655810
v 0.070554 0.272792 -2.652867
v 0.068210 0.264426 -2.659937
v 0.079335 0.257115 -2.640349
v 0.077566 0.268690 -2.642933
v 0.079132 0.242303 -2.636040
v 0.064996 0.245788 -2.656722
v 0.065655 0.281406 -2.650544
v 0.060083 0.263230 -2.664513
v 0.082024 0.256009 -2.630475
v 0.077615 0.274502 -2.633983
v -0.080244 0.046331 -2.438840
v -0.092046 0.124618 -2.366819
v -0.072156 0.134862 -2.558501
v -0.096763 0.201530 -2.492523
v -0.087141 0.064798 -2.488227
v -0.083125 0.094272 -2.531415
v -0.110936 0.180982 -2.443990
v -0.105260 0.168261 -2.394634
v -0.106869 0.143824 -2.547188
v -0.108877 0.083462 -2.394922
v -0.129008 0.122220 -2.500614
v -0.128600 0.109258 -2.436627
v -0.091475 0.058663 -2.362792
v -0.070945 0.044688 -2.398411
v -0.077250 0.095910 -2.353793
v -0.076793 0.231099 -2.545848
v -0.083211 0.197028 -2.556548
v -0.066162 0.171432 -2.570005
v -0.047959 0.241827 -2.730092
v -0.092301 0.174945 -2.623658
v -0.084450 0.268362 -2.604625
v -0.034785 0.217831 -2.724731
v -0.036202 0.253744 -2.723948
v -0.098432 0.200301 -2.585432
v -0.045287 0.261636 -2.619989
v -0.087220 0.241997 -2.600561
v -0.096247 0.196859 -2.590050
v -0.045178 0.261571 -2.620223
v -0.099001 0.224443 -2.623387
v -0.095040 0.221962 -2.661685
v -0.076793 0.279085 -2.645345
v -0.073455 0.258931 -2.673592
v -0.098067 0.245898 -2.612909
v -0.094336 0.272524 -2.617648
v -0.094982 0.240927 -2.640424
v -0.087398 0.243719 -2.651430
v -0.091077 0.265477 -2.648331
v -0.088387 0.257339 -2.655542
v -0.097492 0.249238 -2.635544
v -0.097079 0.260817 -2.638067
v -0.095304 0.234706 -2.631585
v -0.083329 0.239076 -2.652560
v -0.086853 0.274504 -2.646264
v -0.080454 0.256869 -2.660569
v -0.099456 0.247983 -2.625597
v -0.097161 0.266622 -2.629109
v 0.147063 0.077647 -2.336237
v 0.176080 0.092943 -2.502152
v 0.151970 0.084719 -2.299225
v 0.148384 0.140751 -2.475436
v 0.125921 0.078885 -2.291562
v 0.123116 0.074563 -2.304045
v 0.116544 0.064024 -2.321332
v 0.109235 0.065284 -2.441298
v 0.123712 0.058715 -2.327932
v 0.147177 0.073209 -2.499457
v 0.136129 0.063934 -2.323127
v 0.161265 0.067542 -2.308767
v 0.143635 0.055768 -2.292325
v 0.128203 0.059696 -2.298316
v 0.139362 0.025150 -2.339234
v 0.144121 0.014591 -2.327563
v 0.128537 -0.000751 -2.311297
v 0.115146 -0.000656 -2.319858
v 0.116452 0.006653 -2.339942
v 0.125534 0.021082 -2.346225
v 0.146694 0.004775 -2.353715
v 0.148689 0.018947 -2.355229
v 0.150244 -0.000646 -2.344079
v 0.151838 0.011460 -2.345290
v 0.128707 0.010502 -2.355629
v 0.131108 -0.001077 -2.352402
v 0.137474 0.017146 -2.358690
v 0.139460 0.006422 -2.357264
v 0.192233 0.000615 -2.405557
v 0.194244 0.001339 -2.401619
v 0.197186 -0.005537 -2.400908
v 0.193804 -0.006519 -2.407718
v 0.137624 -0.001696 -2.426829
v 0.145734 -0.001692 -2.429719
v 0.144162 -0.007825 -2.424519
v 0.139940 -0.007798 -2.423545
v 0.172338 -0.000572 -2.426697
v 0.177734 0.000480 -2.424475
v 0.180698 -0.007753 -2.424492
v 0.171756 -0.008041 -2.428556
v 0.144166 0.141823 -2.507164
v 0.122061 0.119208 -2.521050
v 0.123094 0.127089 -2.447774
v 0.122668 0.103882 -2.431823
v 0.106941 0.083261 -2.459933
v 0.121383 0.085252 -2.510338
v 0.062441 0.151092 -2.419219
v 0.042328 0.123781 -2.445854
v 0.102318 0.138275 -2.390304
v 0.108043 0.104546 -2.384888
v 0.080474 0.086055 -2.408656
v 0.052480 0.085702 -2.439744
v 0.148369 0.141602 -2.493073
v 0.108278 0.076353 -2.452022
v 0.143738 0.085414 -2.526907
v 0.158132 0.113627 -2.531668
v 0.010272 0.117689 -2.362463
v -0.002368 0.101880 -2.377002
v 0.028038 0.110614 -2.346827
v 0.033239 0.089539 -2.343714
v 0.020228 0.073695 -2.357135
v 0.003343 0.080703 -2.374147
v -0.165211 0.074996 -2.331554
v -0.204379 0.093799 -2.494152
v -0.154783 0.084417 -2.298703
v -0.175582 0.133081 -2.461745
v -0.128767 0.078666 -2.291208
v -0.128788 0.074103 -2.303158
v -0.129144 0.063898 -2.319524
v -0.130348 0.066520 -2.439852
v -0.138037 0.057072 -2.324749
v -0.174764 0.074874 -2.494734
v -0.149810 0.060428 -2.318769
v -0.166124 0.066339 -2.307439
v -0.146026 0.055398 -2.291911
v -0.133526 0.058888 -2.297205
v -0.143677 0.025099 -2.336888
v -0.148109 0.014165 -2.325343
v -0.132359 -0.001507 -2.309823
v -0.119132 -0.001207 -2.318631
v -0.120600 0.006877 -2.338641
v -0.129980 0.021210 -2.344247
v -0.151308 0.005103 -2.351737
v -0.153313 0.019309 -2.352856
v -0.154682 -0.000557 -2.342176
v -0.156283 0.011577 -2.343050
v -0.133353 0.010861 -2.353846
v -0.135707 -0.000793 -2.350867
v -0.142168 0.017587 -2.356572
v -0.144140 0.006833 -2.355380
v -0.197825 0.002290 -2.402796
v -0.199759 0.002916 -2.398804
v -0.202696 -0.003974 -2.398210
v -0.199445 -0.004786 -2.405106
v -0.143631 0.000470 -2.425150
v -0.151794 0.000554 -2.427884
v -0.150131 -0.005710 -2.422872
v -0.145892 -0.005710 -2.421978
v -0.178334 0.001620 -2.424332
v -0.183686 0.002620 -2.421982
v -0.186660 -0.005608 -2.422151
v -0.177797 -0.005800 -2.426389
v -0.146206 0.142034 -2.505628
v -0.152250 0.131097 -2.511780
v -0.147462 0.116875 -2.439671
v -0.145590 0.102015 -2.428275
v -0.128750 0.084030 -2.460234
v -0.144973 0.097378 -2.512843
v -0.093975 0.143761 -2.405339
v -0.070442 0.134885 -2.441386
v -0.123786 0.118222 -2.383260
v -0.122078 0.088979 -2.388075
v -0.091926 0.081440 -2.419793
v -0.068751 0.096875 -2.450589
v -0.160692 0.139898 -2.486836
v -0.130230 0.077113 -2.451126
v -0.170381 0.091386 -2.524701
v -0.190099 0.119116 -2.521418
v -0.026025 0.112223 -2.368420
v -0.011956 0.106622 -2.388171
v -0.038583 0.096205 -2.356120
v -0.037417 0.075125 -2.360876
v -0.022532 0.068849 -2.379887
v -0.010806 0.085559 -2.393750
v 0.108593 0.095809 -2.601523
v 0.068056 0.168354 -2.570017
v 0.127709 0.112363 -2.581630
v 0.072728 0.174469 -2.531006
v 0.139261 0.118079 -2.535925
v 0.055783 0.150401 -2.521450
v 0.115739 0.090111 -2.543131
v 0.042343 0.130111 -2.542400
v 0.097150 0.067267 -2.566685
v 0.046432 0.131294 -2.573914
v 0.096371 0.067723 -2.592833
v 0.057931 0.138980 -2.589949
v 0.113183 0.071318 -2.606335
v 0.133904 0.097433 -2.597147
v 0.143746 0.091395 -2.569952
v 0.127473 0.063888 -2.553730
v 0.106007 0.029532 -2.630773
v 0.118925 0.026192 -2.625975
v 0.123904 0.012242 -2.605009
v 0.108846 0.005692 -2.601923
v 0.094040 0.011417 -2.624311
v 0.099228 0.024261 -2.632233
v 0.118587 0.006788 -2.644361
v 0.120380 0.020878 -2.647651
v 0.124190 0.002346 -2.635882
v 0.125170 0.014373 -2.638590
v 0.100840 0.013221 -2.642066
v 0.103698 0.001520 -2.638289
v 0.108618 0.019421 -2.647923
v 0.110707 0.008498 -2.646051
v 0.144609 -0.002705 -2.706676
v 0.147690 -0.001598 -2.703642
v 0.150783 -0.008291 -2.703340
v 0.145326 -0.009893 -2.708696
v 0.087454 -0.007036 -2.709819
v 0.093863 -0.007480 -2.714862
v 0.094471 -0.012824 -2.709185
v 0.090853 -0.012664 -2.707011
v 0.124055 -0.005639 -2.720704
v 0.129864 -0.004633 -2.720066
v 0.132564 -0.012957 -2.720107
v 0.122865 -0.013205 -2.721663
v -0.120446 0.092949 -2.594608
v -0.075646 0.167500 -2.568577
v -0.139865 0.106345 -2.572946
v -0.080197 0.172134 -2.528350
v -0.141855 0.115563 -2.532892
v -0.064573 0.146206 -2.516651
v -0.119959 0.083735 -2.537775
v -0.051123 0.123984 -2.536908
v -0.100670 0.063585 -2.563089
v -0.053417 0.124855 -2.569993
v -0.102816 0.067194 -2.589303
v -0.064750 0.136967 -2.588241
v -0.121342 0.068618 -2.601022
v -0.145378 0.089376 -2.587946
v -0.150902 0.081024 -2.561508
v -0.128879 0.054681 -2.548368
v -0.108317 0.031127 -2.629927
v -0.120417 0.025010 -2.624193
v -0.120914 0.008850 -2.604159
v -0.104847 0.004637 -2.602803
v -0.093321 0.012044 -2.625757
v -0.099444 0.025114 -2.633011
v -0.119814 0.007321 -2.643511
v -0.121688 0.021436 -2.646648
v -0.124668 0.002932 -2.634612
v -0.125839 0.015028 -2.637179
v -0.101850 0.013511 -2.642740
v -0.104342 0.002029 -2.638815
v -0.110013 0.019818 -2.647920
v -0.112084 0.008924 -2.645867
v -0.151076 -0.001026 -2.703431
v -0.153915 0.000027 -2.700125
v -0.156954 -0.006704 -2.699604
v -0.151910 -0.008172 -2.705445
v -0.093979 -0.005273 -2.711658
v -0.100795 -0.005513 -2.716141
v -0.100944 -0.011141 -2.710445
v -0.097137 -0.011028 -2.708594
v -0.131933 -0.005007 -2.719099
v -0.137652 -0.003922 -2.717970
v -0.140459 -0.012208 -2.717774
v -0.130932 -0.012588 -2.720149
v 0.074676 0.262985 -2.653304
v 0.076481 0.248056 -2.646534
v 0.068686 0.250783 -2.655810
v 0.070554 0.272792 -2.652867
v 0.068210 0.264426 -2.659937
v 0.078581 0.256841 -2.641515
v 0.077387 0.268648 -2.643204
v -0.094315 0.255336 -2.648561
v -0.094383 0.240323 -2.641740
v -0.087398 0.243719 -2.651430
v -0.091077 0.265477 -2.648331
v -0.088387 0.257339 -2.655542
v -0.096983 0.248895 -2.636588
v -0.096956 0.260757 -2.638312
vn 0.8354 -0.0289 -0.5489
vn 0.3593 -0.4499 -0.8176
vn 0.5469 -0.6380 -0.5421
vn 0.9514 0.2632 -0.1596
vn 0.9977 -0.0369 0.0568
vn 0.7025 0.6011 0.3810
vn 0.6130 0.4779 0.6292
vn 0.9827 0.0086 0.1852
vn 0.0230 -0.9180 -0.3959
vn 0.4712 -0.8364 -0.2799
vn 0.5067 -0.8269 -0.2440
vn 0.0554 -0.9483 -0.3126
vn 0.0231 0.7676 0.6405
vn 0.0161 0.4779 0.8783
vn 0.5546 0.3226 0.7671
vn 0.7960 -0.2821 0.5355
vn 0.6867 0.7197 0.1024
vn 0.0102 0.9759 0.2178
vn 0.0201 0.9612 0.2751
vn 0.7274 0.6694 0.1511
vn -0.0029 -0.6124 -0.7906
vn 0.4012 -0.7366 -0.5444
vn 0.0031 -0.8216 -0.5701
vn 0.9603 -0.1378 -0.2425
vn 0.1179 0.1408 0.9830
vn 0.4327 0.8846 0.1739
vn -0.0098 0.9553 0.2955
vn 0.0827 -0.6586 0.7479
vn 0.5986 -0.8008 -0.0169
vn 0.2596 -0.9656 -0.0124
vn -0.2985 0.9504 -0.0878
vn -0.5171 0.7509 0.4108
vn -0.1965 0.5032 0.8415
vn 0.2749 0.8890 0.3661
vn 0.3057 0.2216 0.9260
vn 0.9277 0.2372 0.2881
vn -0.0868 -0.8137 -0.5748
vn 0.5641 -0.7184 -0.4071
vn 0.0268 -0.9193 -0.3927
vn -0.2957 -0.5239 -0.7988
vn 0.4127 -0.6503 -0.6378
vn 0.9958 -0.0701 -0.0590
vn 0.8542 -0.0369 -0.5187
vn 0.9695 0.2386 0.0562
vn 0.9567 0.2418 -0.1620
vn -0.0393 0.2736 -0.9610
vn -0.3550 0.7282 -0.5863
vn 0.2982 0.8518 -0.4308
vn 0.6483 -0.0960 -0.7553
vn 0.5363 0.8440 -0.0075
vn 0.2591 0.9134 -0.3139
vn 0.0241 0.9945 0.1019
vn 0.8638 0.3796 -0.3314
vn 0.9218 0.2454 -0.3002
vn 0.5779 0.6764 -0.4567
vn 0.7331 0.4570 -0.5037
vn 0.9861 0.1320 -0.1004
vn 0.8443 0.5233 -0.1155
vn 0.5858 -0.3743 -0.7189
vn 0.8482 -0.3206 -0.4217
vn 0.6390 0.5313 -0.5562
vn 0.4903 0.1544 -0.8578
vn 0.9741 0.0505 -0.2202
vn 0.8905 0.3647 -0.2719
vn -0.7952 -0.0585 -0.6035
vn -0.9548 0.1908 -0.2278
vn -0.5271 -0.6757 -0.5153
vn -0.3535 -0.4474 -0.8215
vn -0.9770 -0.1873 0.1020
vn -0.9058 -0.3191 0.2787
vn -0.5638 0.3077 0.7665
vn -0.6765 0.5256 0.5159
vn -0.2870 -0.9269 -0.2419
vn -0.3409 -0.8726 -0.3498
vn -0.6521 -0.5099 0.5610
vn -0.5254 0.1398 0.8393
vn -0.6558 0.7538 0.0413
vn -0.6931 0.7028 0.1603
vn -0.3464 -0.7344 -0.5836
vn -0.9486 -0.1350 -0.2863
vn -0.4859 0.8563 0.1751
vn -0.3517 -0.9346 -0.0523
vn 0.2057 0.9733 -0.1021
vn -0.3362 0.8593 0.3854
vn 0.1971 0.5303 0.8246
vn 0.4749 0.8130 0.3368
vn -0.9317 0.1402 0.3351
vn -0.2821 0.1910 0.9402
vn -0.5089 -0.7827 -0.3582
vn -0.3822 -0.6893 -0.6154
vn -0.9985 -0.0409 -0.0363
vn -0.6106 -0.3745 -0.6978
vn -0.9841 0.1511 0.0936
vn -0.8782 -0.1217 -0.4625
vn -0.6778 -0.1572 -0.7183
vn -0.3975 0.8203 -0.4114
vn -0.3326 0.9416 -0.0517
vn -0.3581 0.8855 -0.2959
vn -0.9204 0.2894 -0.2628
vn -0.9603 0.1414 -0.2404
vn -0.6613 0.6201 -0.4221
vn -0.7984 0.3877 -0.4607
vn -0.9989 0.0248 -0.0403
vn -0.8954 0.4406 -0.0649
vn -0.5907 -0.4321 -0.6814
vn -0.8378 -0.4101 -0.3604
vn -0.7146 0.4699 -0.5182
vn -0.5495 0.1074 -0.8286
vn -0.9859 -0.0552 -0.1581
vn -0.9356 0.2772 -0.2187
vn 0.9625 -0.2631 -0.0666
vn 0.9452 -0.2558 -0.2028
vn 0.3685 0.9240 0.1022
vn 0.5921 0.5864 0.5528
vn 0.1921 0.9392 0.2846
vn -0.4477 0.3196 0.8351
vn -0.6496 -0.2064 0.7317
vn -0.9523 -0.0146 0.3047
vn -0.7469 -0.6648 -0.0096
vn -0.9990 0.0098 0.0429
vn 0.2609 0.9591 -0.1102
vn -0.0677 0.8690 -0.4901
vn 0.1144 -0.9298 -0.3498
vn -0.0362 -0.5138 -0.8571
vn 0.2493 -0.2603 0.9328
vn 0.9925 -0.0925 0.0801
vn 0.1560 -0.7199 0.6763
vn 0.9622 -0.0708 0.2628
vn 0.6820 -0.1740 -0.7104
vn -0.7564 -0.1906 0.6257
vn -0.4609 0.5064 -0.7288
vn -0.9083 -0.1984 -0.3683
vn -0.6997 -0.6452 0.3068
vn 0.5316 0.6324 -0.5634
vn 0.8303 0.3610 0.4247
vn 0.3478 0.9288 -0.1281
vn -0.0764 -0.9896 -0.1219
vn 0.5428 -0.7752 0.3233
vn -0.3555 -0.9173 -0.1793
vn 0.2053 -0.9774 -0.0500
vn -0.2521 0.8584 -0.4468
vn -0.8751 0.1338 -0.4650
vn 0.1943 0.6019 -0.7746
vn 0.8396 0.5181 0.1633
vn 0.7840 -0.6186 -0.0517
vn -0.0557 -0.4139 -0.9086
vn -0.8052 0.1942 -0.5604
vn 0.2765 0.3204 -0.9060
vn 0.7119 -0.6133 -0.3420
vn -0.3347 -0.8765 -0.3461
vn -0.3167 0.4731 -0.8221
vn 0.7076 0.5959 -0.3798
vn 0.7376 -0.6298 -0.2437
vn -0.3500 -0.6196 -0.7025
vn -0.4494 0.3303 -0.8300
vn -0.5097 -0.6435 -0.5711
vn -0.4716 -0.7598 -0.4475
vn -0.7470 0.3169 -0.5844
vn -0.0556 -0.5826 -0.8108
vn -0.9249 -0.3800 -0.0138
vn -0.2773 -0.9605 0.0244
vn 0.4868 0.1790 -0.8550
vn -0.7490 -0.6548 0.1014
vn -0.9922 0.1241 0.0089
vn 0.7368 -0.3132 0.5992
vn 0.2561 -0.9577 0.1312
vn -0.2134 0.9770 0.0039
vn 0.5472 0.6407 0.5386
vn -0.6530 0.6009 0.4610
vn -0.2559 -0.8255 0.5030
vn 0.0103 -0.3800 0.9249
vn -0.1920 0.4123 0.8906
vn -0.9703 -0.2190 0.1023
vn -0.4536 0.6091 0.6506
vn -0.4650 0.8410 0.2766
vn -0.9635 -0.1969 -0.1815
vn 0.5440 0.3122 0.7789
vn -0.1499 0.9283 0.3404
vn 0.9888 -0.0668 0.1332
vn 0.7575 -0.3807 0.5302
vn 0.9945 0.0279 -0.1014
vn 0.7677 -0.6370 -0.0697
vn 0.0250 0.9803 -0.1961
vn -0.1643 0.9817 0.0965
vn -0.0721 -0.4498 -0.8902
vn -0.1416 -0.9152 -0.3772
vn -0.9489 -0.1307 0.2873
vn -0.1927 -0.2529 0.9481
vn -0.9443 -0.1028 0.3126
vn -0.1301 -0.7208 0.6808
vn -0.7584 -0.2386 -0.6066
vn 0.8351 -0.1885 0.5168
vn 0.8972 -0.1302 -0.4219
vn 0.4249 0.5576 -0.7131
vn 0.7489 -0.6186 0.2375
vn -0.5859 0.6029 -0.5415
vn -0.3493 0.9320 -0.0972
vn -0.8208 0.3511 0.4506
vn 0.0728 -0.9863 -0.1482
vn -0.2075 -0.9757 -0.0707
vn 0.3499 -0.9132 -0.2089
vn -0.5379 -0.7822 0.3144
vn 0.2430 0.8694 -0.4302
vn 0.8642 0.1452 -0.4817
vn -0.2081 0.6214 -0.7553
vn 0.0380 -0.3909 -0.9197
vn -0.7857 -0.6164 -0.0525
vn -0.8357 0.5145 0.1922
vn 0.7947 0.2076 -0.5704
vn 0.3269 -0.8677 -0.3744
vn -0.7191 -0.6039 -0.3438
vn -0.2931 0.3434 -0.8923
vn 0.3017 0.4934 -0.8158
vn 0.3359 -0.6020 -0.7244
vn -0.7429 -0.6228 -0.2454
vn -0.7138 0.6059 -0.3512
vn 0.1711 0.6641 -0.7278
vn 0.5831 0.6641 -0.4678
vn 0.5757 -0.4173 -0.7032
vn 0.5283 -0.3566 -0.7706
vn 0.0287 -0.4618 -0.8865
vn 0.3854 -0.8985 -0.2101
vn 0.9279 -0.3600 -0.0966
vn -0.5742 0.3586 -0.7361
vn 0.9075 0.4192 0.0275
vn 0.8995 -0.4000 -0.1758
vn -0.0580 -0.9890 -0.1360
vn -0.5799 -0.6021 0.5488
vn -0.5922 0.3796 0.7107
vn -0.0280 0.9580 0.2855
vn 0.5401 0.5855 0.6046
vn 0.2139 0.1423 0.9664
vn 0.1933 -0.6457 0.7387
vn 0.4909 -0.8490 0.1954
vn 0.0615 0.4153 -0.9076
vn -0.2521 0.7996 -0.5450
vn 0.0389 0.9977 -0.0555
vn 0.6707 0.6567 -0.3449
vn -0.4661 0.5598 0.6851
vn 0.6779 0.1728 0.7146
vn -0.8376 -0.1388 0.5284
vn -0.0177 -0.5659 0.8243
vn -0.9933 -0.1151 -0.0062
vn -0.7626 -0.5412 0.3542
vn -0.6892 0.1335 -0.7122
vn -0.8353 0.0447 -0.5480
vn 0.9939 -0.0097 0.1095
vn 0.6420 0.3568 -0.6786
vn 0.8507 -0.5146 0.1074
vn 0.8119 0.4181 -0.4075
vn -0.2391 0.3952 -0.8870
vn 0.2606 -0.5817 0.7705
vn -0.7849 0.4346 -0.4416
vn -0.9272 -0.3716 0.0470
vn -0.1102 -0.8715 0.4778
vn -0.1502 0.7156 -0.6822
vn 0.8712 0.4880 0.0533
vn 0.2888 0.9072 -0.3058
vn -0.0483 -0.9979 0.0435
vn 0.7218 -0.6686 0.1787
vn -0.3153 -0.9420 0.1153
vn 0.2377 -0.9712 -0.0148
vn -0.3845 0.7878 -0.4813
vn -0.9801 0.0946 -0.1748
vn -0.0531 0.5359 -0.8426
vn 0.8525 0.5024 -0.1443
vn 0.7346 -0.6329 -0.2446
vn -0.3541 -0.4772 -0.8043
vn -0.9412 0.1633 -0.2958
vn -0.0309 0.1875 -0.9818
vn 0.5841 -0.6593 -0.4734
vn -0.4198 -0.8977 -0.1340
vn -0.5102 0.4167 -0.7524
vn 0.5968 0.5305 -0.6020
vn 0.6341 -0.6792 -0.3697
vn -0.5355 -0.6592 -0.5279
vn -0.2049 0.4452 -0.8717
vn -0.7754 0.5751 -0.2608
vn -0.0278 0.9995 0.0127
vn 0.2400 0.8066 -0.5402
vn -0.6376 0.1793 0.7492
vn 0.4258 0.5211 0.7397
vn 0.0452 -0.5123 0.8576
vn 0.8204 -0.1539 0.5507
vn 0.8215 -0.4888 0.2938
vn 0.9867 -0.1565 -0.0450
vn 0.6470 0.1678 -0.7438
vn 0.7566 0.1716 -0.6309
vn -0.7686 0.2599 -0.5846
vn -0.9545 -0.1579 0.2531
vn -0.8913 0.3358 -0.3046
vn -0.7547 -0.6426 0.1323
vn 0.0772 0.4916 -0.8674
vn -0.1215 -0.6188 0.7761
vn 0.9531 -0.2973 -0.0565
vn 0.7206 0.5081 -0.4718
vn 0.2447 -0.8792 0.4088
vn 0.0151 0.7667 -0.6418
vn -0.3122 0.9074 -0.2814
vn -0.8781 0.4566 0.1432
vn 0.0651 -0.9978 0.0112
vn -0.2129 -0.9768 -0.0222
vn 0.3505 -0.9357 0.0406
vn -0.6863 -0.6954 0.2133
vn 0.3434 0.7890 -0.5095
vn 0.9603 0.0947 -0.2623
vn -0.0170 0.5423 -0.8400
vn 0.2777 -0.4780 -0.8333
vn -0.7561 -0.6286 -0.1819
vn -0.8576 0.5096 -0.0698
vn 0.9133 0.1644 -0.3726
vn 0.4112 -0.8929 -0.1837
vn -0.6195 -0.6520 -0.4371
vn -0.0536 0.2152 -0.9751
vn 0.4499 0.4099 -0.7935
vn 0.4795 -0.6664 -0.5710
vn -0.6725 -0.6703 -0.3138
vn -0.6386 0.5388 -0.5494
vn 0.8487 0.0212 -0.5285
vn 0.8407 -0.1361 -0.5242
vn 0.7017 -0.2043 -0.6826
vn 0.7191 0.0318 -0.6941
vn 0.7808 0.3512 -0.5168
vn 0.9111 0.2033 -0.3585
vn 0.9506 0.0084 -0.3105
vn -0.8754 -0.0568 -0.4801
vn -0.7175 -0.2685 -0.6427
vn -0.8530 -0.2127 -0.4767
vn -0.8370 0.2780 -0.4714
vn -0.7568 -0.0350 -0.6527
vn -0.9633 -0.0782 -0.2568
vn -0.9444 0.1194 -0.3065
vt 0.119791 0.557942
vt 0.120313 0.564008
vt 0.115724 0.561425
vt 0.114866 0.557590
vt 0.111468 0.555714
vt 0.108530 0.563975
vt 0.103950 0.559568
vt 0.105927 0.553867
vt 0.296981 0.951106
vt 0.296445 0.950120
vt 0.302123 0.948721
vt 0.302659 0.949707
vt 0.107293 0.566149
vt 0.102887 0.562598
vt 0.101411 0.556479
vt 0.100963 0.552219
vt 0.120360 0.565348
vt 0.119981 0.567388
vt 0.113881 0.566968
vt 0.114103 0.564722
vt 0.286518 0.951707
vt 0.285409 0.948223
vt 0.290806 0.949975
vt 0.291586 0.951728
vt 0.122337 0.559647
vt 0.116797 0.557562
vt 0.125710 0.565760
vt 0.125703 0.558249
vt 0.131341 0.558393
vt 0.131349 0.565904
vt 0.093814 0.556479
vt 0.137181 0.558473
vt 0.137027 0.564505
vt 0.126578 0.565786
vt 0.093440 0.551369
vt 0.140736 0.562268
vt 0.142411 0.558537
vt 0.149837 0.557066
vt 0.148300 0.561018
vt 0.305832 0.946484
vt 0.313396 0.945234
vt 0.136754 0.569811
vt 0.133682 0.568007
vt 0.132234 0.569105
vt 0.133718 0.569469
vt 0.131580 0.566234
vt 0.133077 0.566556
vt 0.282358 0.950472
vt 0.280820 0.945640
vt 0.126923 0.561476
vt 0.274798 0.947033
vt 0.275838 0.950300
vt 0.262637 0.946773
vt 0.262865 0.946700
vt 0.129929 0.561369
vt 0.138007 0.563422
vt 0.134230 0.563826
vt 0.145835 0.564645
vt 0.145244 0.565971
vt 0.145004 0.565971
vt 0.145596 0.564645
vt 0.097541 0.562557
vt 0.095883 0.560306
vt 0.096112 0.560233
vt 0.097769 0.562484
vt 0.103714 0.559097
vt 0.112034 0.558603
vt 0.109702 0.562818
vt 0.139640 0.567266
vt 0.137108 0.569173
vt 0.137143 0.565353
vt 0.135119 0.564970
vt 0.136842 0.569343
vt 0.138207 0.567214
vt 0.134471 0.566647
vt 0.134926 0.568704
vt 0.137083 0.565897
vt 0.136003 0.565661
vt 0.136988 0.568346
vt 0.137686 0.567357
vt 0.135536 0.566674
vt 0.135854 0.567962
vt 0.100579 0.558391
vt 0.115592 0.561226
vt 0.112957 0.563464
vt 0.097999 0.559751
vt 0.110825 0.561896
vt 0.097137 0.558988
vt 0.109907 0.558358
vt 0.098201 0.557907
vt 0.103681 0.558910
vt 0.119851 0.559533
vt 0.123249 0.556730
vt 0.109743 0.557186
vt 0.113455 0.563464
vt 0.113952 0.563464
vt 0.267993 0.954443
vt 0.286356 0.953822
vt 0.292153 0.957017
vt 0.268367 0.955596
vt 0.102788 0.557273
vt 0.115455 0.558030
vt 0.097333 0.556816
vt 0.098607 0.557801
vt 0.104242 0.558764
vt 0.102482 0.557403
vt 0.114894 0.553481
vt 0.116828 0.555788
vt 0.101673 0.556768
vt 0.097919 0.556164
vt 0.103292 0.556502
vt 0.102589 0.556659
vt 0.109435 0.556259
vt 0.109100 0.554997
vt 0.258121 0.954737
vt 0.259222 0.953512
vt 0.276494 0.949529
vt 0.274996 0.949405
vt 0.107719 0.555647
vt 0.108751 0.556578
vt 0.091053 0.546423
vt 0.099824 0.547354
vt 0.112052 0.544231
vt 0.108326 0.542440
vt 0.109407 0.555342
vt 0.110284 0.556106
vt 0.282356 0.950904
vt 0.280736 0.949834
vt 0.282199 0.949862
vt 0.282957 0.951236
vt 0.110619 0.555962
vt 0.119116 0.553796
vt 0.119160 0.555367
vt 0.110378 0.555322
vt 0.114451 0.544842
vt 0.114030 0.542773
vt 0.143221 0.563129
vt 0.139957 0.563491
vt 0.139777 0.557824
vt 0.145405 0.557419
vt 0.114728 0.554773
vt 0.115100 0.554732
vt 0.126480 0.553689
vt 0.126509 0.554581
vt 0.291954 0.949601
vt 0.290750 0.949688
vt 0.114275 0.546315
vt 0.123318 0.543735
vt 0.123786 0.542512
vt 0.114187 0.543815
vt 0.295241 0.950685
vt 0.295747 0.950722
vt 0.294913 0.949582
vt 0.294742 0.949575
vt 0.117368 0.554678
vt 0.117099 0.554658
vt 0.114788 0.544147
vt 0.126744 0.542493
vt 0.127578 0.543633
vt 0.114903 0.546043
vt 0.127072 0.543596
vt 0.126574 0.542486
vt 0.160585 0.563393
vt 0.158705 0.564124
vt 0.159201 0.557390
vt 0.162542 0.557392
vt 0.116865 0.554846
vt 0.117079 0.554762
vt 0.126739 0.542506
vt 0.126633 0.543948
vt 0.295623 0.949595
vt 0.294908 0.949595
vt 0.127035 0.543791
vt 0.127454 0.542506
vt 0.127933 0.556671
vt 0.127172 0.549928
vt 0.115529 0.550215
vt 0.115709 0.558042
vt 0.297679 0.957017
vt 0.287053 0.953822
vt 0.287750 0.953822
vt 0.295341 0.957017
vt 0.118668 0.561423
vt 0.117557 0.561621
vt 0.118397 0.558030
vt 0.117152 0.558030
vt 0.124275 0.556730
vt 0.123762 0.556730
vt 0.283878 0.965131
vt 0.283698 0.957304
vt 0.272767 0.956298
vt 0.272868 0.960680
vt 0.113857 0.559817
vt 0.117406 0.556563
vt 0.108331 0.564490
vt 0.105774 0.562524
vt 0.278412 0.953596
vt 0.105568 0.558564
vt 0.111048 0.562351
vt 0.270011 0.962930
vt 0.269808 0.954222
vt 0.267106 0.956699
vt 0.267323 0.960863
vt 0.109091 0.558846
vt 0.111078 0.557024
vt 0.103664 0.561179
vt 0.102233 0.560078
vt 0.102117 0.557861
vt 0.293606 0.974223
vt 0.296268 0.972126
vt 0.290524 0.969804
vt 0.289033 0.970978
vt 0.120288 0.561629
vt 0.123495 0.565092
vt 0.121003 0.566690
vt 0.117863 0.562594
vt 0.118152 0.565186
vt 0.115465 0.561831
vt 0.300596 0.971616
vt 0.303229 0.974904
vt 0.302751 0.972040
vt 0.300426 0.970214
vt 0.127288 0.562352
vt 0.130566 0.564927
vt 0.134164 0.562497
vt 0.130721 0.560905
vt 0.306023 0.976378
vt 0.308464 0.974812
vt 0.308118 0.971762
vt 0.305304 0.970317
vt 0.117777 0.559351
vt 0.120270 0.560504
vt 0.123142 0.561979
vt 0.120261 0.559987
vt 0.116825 0.559659
vt 0.119104 0.560644
vt 0.132554 0.562690
vt 0.129405 0.561329
vt 0.136034 0.553941
vt 0.138464 0.555985
vt 0.120959 0.559611
vt 0.127527 0.564329
vt 0.128325 0.559116
vt 0.124184 0.556406
vt 0.123561 0.555121
vt 0.294726 0.960075
vt 0.293257 0.957066
vt 0.303924 0.950022
vt 0.303739 0.950030
vt 0.123383 0.555790
vt 0.124106 0.556752
vt 0.138710 0.555062
vt 0.136170 0.553935
vt 0.125192 0.555446
vt 0.125864 0.556216
vt 0.311474 0.951075
vt 0.310268 0.950005
vt 0.310179 0.950034
vt 0.311484 0.951419
vt 0.125726 0.556085
vt 0.140836 0.553923
vt 0.140963 0.555511
vt 0.125162 0.555426
vt 0.140921 0.555483
vt 0.140771 0.553944
vt 0.308688 0.966491
vt 0.307576 0.966668
vt 0.307994 0.963886
vt 0.309927 0.963687
vt 0.131688 0.554865
vt 0.131946 0.554824
vt 0.150069 0.553816
vt 0.149935 0.554708
vt 0.323664 0.949773
vt 0.322821 0.949860
vt 0.132234 0.554173
vt 0.125743 0.554866
vt 0.307235 0.966173
vt 0.309663 0.966257
vt 0.307661 0.963645
vt 0.306590 0.963628
vt 0.132172 0.554769
vt 0.131609 0.554750
vt 0.143315 0.544330
vt 0.154507 0.542665
vt 0.155380 0.543804
vt 0.143273 0.546276
vt 0.322209 0.949747
vt 0.322676 0.949754
vt 0.149826 0.554549
vt 0.149619 0.553733
vt 0.313045 0.966620
vt 0.313124 0.966979
vt 0.313847 0.963673
vt 0.313818 0.963674
vt 0.132976 0.554937
vt 0.132958 0.554854
vt 0.143305 0.543986
vt 0.157204 0.542678
vt 0.156889 0.544119
vt 0.143533 0.546521
vt 0.325360 0.949767
vt 0.325373 0.949767
vt 0.156854 0.543963
vt 0.157192 0.542678
vt 0.965941 0.234068
vt 0.960058 0.223894
vt 0.967013 0.225413
vt 0.970900 0.234820
vt 0.966406 0.241183
vt 0.959100 0.238715
vt 0.957054 0.230418
s 1
usemtl Material.001
f 17/1/1 3/2/2 30/3/3
f 17/1/1 30/3/3 29/4/4
f 21/5/5 12/6/6 2/7/7
f 21/5/5 2/7/7 18/8/8
f 16/9/9 9/10/10 1/11/11
f 16/9/9 1/11/11 7/12/12
f 12/6/6 14/13/13 8/14/14
f 12/6/6 8/14/14 2/7/7
f 18/8/8 2/7/7 25/15/15
f 18/8/8 25/15/15 22/16/16
f 4/17/17 6/18/18 13/19/19
f 4/17/17 13/19/19 11/20/20
f 11/20/20 13/19/19 14/13/13
f 11/20/20 14/13/13 12/6/6
f 5/21/21 3/22/2 10/23/22
f 5/21/21 10/23/22 15/24/23
f 15/24/23 10/23/22 9/10/10
f 15/24/23 9/10/10 16/9/9
f 17/25/1 4/17/17 11/20/20
f 17/25/1 11/20/20 20/26/24
f 20/26/24 11/20/20 12/6/6
f 20/26/24 12/6/6 21/5/5
f 10/27/22 20/28/24 21/29/5
f 10/27/22 21/29/5 9/30/10
f 3/2/2 17/1/1 20/28/24
f 3/2/2 20/28/24 10/27/22
f 2/7/7 8/14/14 26/31/25
f 2/7/7 26/31/25 25/15/15
f 9/30/10 21/29/5 18/32/8
f 9/30/10 18/32/8 1/33/11
f 6/18/18 4/17/17 28/34/26
f 6/18/18 28/34/26 19/34/27
f 22/16/16 25/15/15 26/31/25
f 22/16/16 26/31/25 27/35/28
f 23/36/29 22/37/16 27/38/28
f 23/36/29 27/38/28 24/39/30
f 7/12/12 1/11/11 23/40/29
f 7/12/12 23/40/29 24/41/30
f 1/33/11 18/32/8 22/37/16
f 1/33/11 22/37/16 23/36/29
f 49/42/31 46/43/32 35/44/33
f 49/42/31 35/44/33 52/45/34
f 35/44/33 44/46/35 51/47/36
f 35/44/33 51/47/36 52/45/34
f 3/22/2 5/21/21 31/48/37
f 3/22/2 31/48/37 30/49/3
f 4/17/17 17/25/1 29/50/4
f 4/17/17 29/50/4 28/34/26
f 33/51/38 36/52/39 40/53/40
f 33/51/38 40/53/40 37/54/41
f 42/55/42 48/56/43 47/57/44
f 42/55/42 47/57/44 45/55/45
f 30/49/3 31/48/37 36/52/39
f 30/49/3 36/52/39 33/51/38
f 41/58/46 38/59/47 39/60/48
f 41/58/46 39/60/48 32/61/49
f 40/62/40 41/63/46 32/64/49
f 40/62/40 32/64/49 37/65/41
f 45/55/45 47/57/44 51/47/36
f 45/55/45 51/47/36 44/46/35
f 43/43/50 42/55/42 45/55/45
f 43/43/50 45/55/45 46/43/32
f 48/66/43 42/67/42 33/68/38
f 43/43/50 50/69/51 34/70/52
f 46/43/32 45/55/45 44/46/35
f 46/43/32 44/46/35 35/44/33
f 29/4/4 30/3/3 33/68/38
f 29/4/4 33/68/38 42/67/42
f 48/66/43 33/68/38 37/65/41
f 48/66/43 37/65/41 32/64/49
f 28/34/26 29/50/4 42/55/42
f 28/34/26 42/55/42 43/43/50
f 50/69/51 48/56/43 32/61/49
f 50/69/51 32/61/49 39/60/48
f 19/34/27 28/34/26 43/43/50
f 19/34/27 43/43/50 34/70/52
f 34/70/52 50/69/51 39/60/48
f 34/70/52 39/60/48 38/59/47
f 50/69/51 43/43/50 46/43/32
f 50/69/51 46/43/32 49/42/31
f 60/71/53 59/72/54 47/57/44
f 60/71/53 47/57/44 48/56/43
f 61/73/55 62/74/56 50/69/51
f 61/73/55 50/69/51 49/42/31
f 63/75/57 64/76/58 52/45/34
f 63/75/57 52/45/34 51/47/36
f 62/74/56 60/71/53 48/56/43
f 62/74/56 48/56/43 50/69/51
f 59/72/54 63/75/57 51/47/36
f 59/72/54 51/47/36 47/57/44
f 64/76/58 61/73/55 49/42/31
f 64/76/58 49/42/31 52/45/34
f 54/77/59 53/78/60 59/72/54
f 54/77/59 59/72/54 60/71/53
f 55/79/61 56/80/62 62/74/56
f 55/79/61 62/74/56 61/73/55
f 57/81/63 58/82/64 64/76/58
f 57/81/63 64/76/58 63/75/57
f 56/80/62 54/77/59 60/71/53
f 56/80/62 60/71/53 62/74/56
f 53/78/60 57/81/63 63/75/57
f 53/78/60 63/75/57 59/72/54
f 58/82/64 55/79/61 61/73/55
f 58/82/64 61/73/55 64/76/58
f 73/1/65 81/4/66 82/3/67
f 73/1/65 82/3/67 67/2/68
f 76/5/69 74/8/70 66/7/71
f 76/5/69 66/7/71 72/6/72
f 16/9/9 7/12/12 65/11/73
f 16/9/9 65/11/73 69/10/74
f 72/6/72 66/7/71 8/14/14
f 72/6/72 8/14/14 14/13/13
f 74/8/70 77/16/75 79/15/76
f 74/8/70 79/15/76 66/7/71
f 68/17/77 71/20/78 13/19/19
f 68/17/77 13/19/19 6/18/18
f 71/20/78 72/6/72 14/13/13
f 71/20/78 14/13/13 13/19/19
f 5/21/21 15/24/23 70/23/79
f 5/21/21 70/23/79 67/22/68
f 15/24/23 16/9/9 69/10/74
f 15/24/23 69/10/74 70/23/79
f 73/25/65 75/26/80 71/20/78
f 73/25/65 71/20/78 68/17/77
f 75/26/80 76/5/69 72/6/72
f 75/26/80 72/6/72 71/20/78
f 70/27/79 69/30/74 76/29/69
f 70/27/79 76/29/69 75/28/80
f 67/2/68 70/27/79 75/28/80
f 67/2/68 75/28/80 73/1/65
f 66/7/71 79/15/76 26/31/25
f 66/7/71 26/31/25 8/14/14
f 69/30/74 65/33/73 74/32/70
f 69/30/74 74/32/70 76/29/69
f 6/18/18 19/34/27 80/34/81
f 6/18/18 80/34/81 68/17/77
f 77/16/75 27/35/28 26/31/25
f 77/16/75 26/31/25 79/15/76
f 78/36/82 24/39/30 27/38/28
f 78/36/82 27/38/28 77/37/75
f 7/12/12 24/41/30 78/40/82
f 7/12/12 78/40/82 65/11/73
f 65/33/73 78/36/82 77/37/75
f 65/33/73 77/37/75 74/32/70
f 95/42/83 98/45/84 85/44/85
f 95/42/83 85/44/85 92/43/86
f 85/44/85 98/45/84 97/47/87
f 85/44/85 97/47/87 90/46/88
f 67/22/68 82/49/67 31/48/37
f 67/22/68 31/48/37 5/21/21
f 68/17/77 80/34/81 81/50/66
f 68/17/77 81/50/66 73/25/65
f 84/51/89 86/54/90 40/53/40
f 84/51/89 40/53/40 36/52/39
f 88/55/91 91/55/92 93/57/93
f 88/55/91 93/57/93 94/56/94
f 82/49/67 84/51/89 36/52/39
f 82/49/67 36/52/39 31/48/37
f 41/58/46 83/61/95 87/60/96
f 41/58/46 87/60/96 38/59/47
f 40/62/40 86/65/90 83/64/95
f 40/62/40 83/64/95 41/63/46
f 91/55/92 90/46/88 97/47/87
f 91/55/92 97/47/87 93/57/93
f 89/43/97 92/43/86 91/55/92
f 89/43/97 91/55/92 88/55/91
f 94/66/94 84/68/89 88/67/91
f 89/43/97 34/70/52 96/69/98
f 92/43/86 85/44/85 90/46/88
f 92/43/86 90/46/88 91/55/92
f 81/4/66 88/67/91 84/68/89
f 81/4/66 84/68/89 82/3/67
f 94/66/94 83/64/95 86/65/90
f 94/66/94 86/65/90 84/68/89
f 80/34/81 89/43/97 88/55/91
f 80/34/81 88/55/91 81/50/66
f 96/69/98 87/60/96 83/61/95
f 96/69/98 83/61/95 94/56/94
f 19/34/27 34/70/52 89/43/97
f 19/34/27 89/43/97 80/34/81
f 34/70/52 38/59/47 87/60/96
f 34/70/52 87/60/96 96/69/98
f 96/69/98 95/42/83 92/43/86
f 96/69/98 92/43/86 89/43/97
f 106/71/99 94/56/94 93/57/93
f 106/71/99 93/57/93 105/72/100
f 107/73/101 95/42/83 96/69/98
f 107/73/101 96/69/98 108/74/102
f 109/75/103 97/47/87 98/45/84
f 109/75/103 98/45/84 110/76/104
f 108/74/102 96/69/98 94/56/94
f 108/74/102 94/56/94 106/71/99
f 105/72/100 93/57/93 97/47/87
f 105/72/100 97/47/87 109/75/103
f 110/76/104 98/45/84 95/42/83
f 110/76/104 95/42/83 107/73/101
f 100/77/105 106/71/99 105/72/100
f 100/77/105 105/72/100 99/78/106
f 101/79/107 107/73/101 108/74/102
f 101/79/107 108/74/102 102/80/108
f 103/81/109 109/75/103 110/76/104
f 103/81/109 110/76/104 104/82/110
f 102/80/108 108/74/102 106/71/99
f 102/80/108 106/71/99 100/77/105
f 99/78/106 105/72/100 109/75/103
f 99/78/106 109/75/103 103/81/109
f 104/82/110 110/76/104 107/73/101
f 104/82/110 107/73/101 101/79/107
f 111/83/111 112/84/112 114/85/113
f 111/83/111 114/85/113 113/86/114
f 113/86/114 114/85/113 153/87/115
f 113/86/114 153/87/115 115/88/116
f 115/88/116 153/87/115 154/89/117
f 115/88/116 154/89/117 116/90/118
f 116/91/118 154/92/117 118/93/119
f 116/91/118 118/93/119 117/94/120
f 153/87/115 163/95/121 151/96/122
f 117/97/120 118/98/119 120/99/123
f 117/97/120 120/99/123 119/100/124
f 119/101/124 120/102/123 112/84/112
f 119/101/124 112/84/112 111/83/111
f 113/86/114 115/88/116 123/103/125
f 113/86/114 123/103/125 122/104/126
f 122/105/126 123/106/125 127/107/127
f 122/105/126 127/107/127 126/108/128
f 111/83/111 113/86/114 122/104/126
f 111/83/111 122/104/126 121/109/129
f 115/88/116 116/90/118 124/110/130
f 115/88/116 124/110/130 123/103/125
f 119/101/124 111/83/111 121/109/129
f 116/91/118 117/94/120 124/111/130
f 117/112/120 119/101/124 130/113/131
f 117/112/120 130/113/131 129/114/132
f 123/115/125 124/116/130 128/117/133
f 123/115/125 128/117/133 127/118/127
f 121/109/129 122/104/126 126/119/128
f 121/109/129 126/119/128 125/120/134
f 119/101/124 121/109/129 125/120/134
f 119/101/124 125/120/134 130/113/131
f 124/121/130 117/122/120 129/123/132
f 124/121/130 129/123/132 128/124/133
f 125/120/134 126/119/128 134/125/135
f 125/120/134 134/125/135 132/126/136
f 131/127/137 133/128/138 127/118/127
f 131/127/137 127/118/127 128/117/133
f 131/127/137 128/117/133 136/129/139
f 131/127/137 136/129/139 138/130/140
f 130/113/131 125/120/134 132/126/136
f 130/113/131 132/126/136 137/131/141
f 126/108/128 127/107/127 133/132/138
f 126/108/128 133/132/138 134/133/135
f 129/114/132 130/113/131 137/131/141
f 129/114/132 137/131/141 135/134/142
f 128/124/133 129/123/132 135/135/142
f 128/124/133 135/135/142 136/136/139
f 139/137/143 140/138/144 141/139/145
f 139/137/143 141/139/145 142/140/146
f 134/125/135 140/141/144 139/142/143
f 134/125/135 139/142/143 132/126/136
f 133/132/138 141/143/145 140/144/144
f 133/132/138 140/144/144 134/133/135
f 131/127/137 142/145/146 141/146/145
f 131/127/137 141/146/145 133/128/138
f 132/147/136 139/148/143 142/149/146
f 132/147/136 142/149/146 131/150/137
f 143/151/147 144/152/148 145/153/149
f 143/151/147 145/153/149 146/154/150
f 137/131/141 144/155/148 143/156/147
f 137/131/141 143/156/147 135/134/142
f 138/157/140 145/158/149 144/159/148
f 138/157/140 144/159/148 137/160/141
f 136/129/139 146/154/150 145/153/149
f 136/129/139 145/153/149 138/130/140
f 135/135/142 143/161/147 146/162/150
f 135/135/142 146/162/150 136/136/139
f 147/163/151 148/164/152 149/165/153
f 147/163/151 149/165/153 150/166/154
f 132/126/136 148/167/152 147/168/151
f 132/126/136 147/168/151 137/131/141
f 131/150/137 149/169/153 148/170/152
f 131/150/137 148/170/152 132/147/136
f 138/130/140 150/171/154 149/172/153
f 138/130/140 149/172/153 131/127/137
f 137/160/141 147/173/151 150/174/154
f 137/160/141 150/174/154 138/157/140
f 152/175/155 156/176/156 162/177/157
f 152/175/155 162/177/157 158/178/158
f 165/179/159 164/180/160 155/181/161
f 165/179/159 155/181/161 156/182/156
f 163/95/121 166/183/162 152/184/155
f 163/95/121 152/184/155 151/96/122
f 166/183/162 165/185/159 156/186/156
f 166/183/162 156/186/156 152/184/155
f 118/93/119 154/92/117 155/187/161
f 118/93/119 155/187/161 164/188/160
f 158/189/158 162/190/157 172/191/163
f 158/189/158 172/191/163 168/192/164
f 155/187/161 154/92/117 160/193/165
f 155/187/161 160/193/165 161/194/166
f 153/87/115 151/96/122 157/195/167
f 153/87/115 157/195/167 159/196/168
f 156/182/156 155/181/161 161/197/166
f 156/182/156 161/197/166 162/190/157
f 154/89/117 153/87/115 159/196/168
f 154/89/117 159/196/168 160/198/165
f 151/96/122 152/184/155 158/199/158
f 151/96/122 158/199/158 157/195/167
f 112/84/112 120/102/123 165/185/159
f 112/84/112 165/185/159 166/183/162
f 114/85/113 112/84/112 166/183/162
f 114/85/113 166/183/162 163/95/121
f 120/99/123 118/98/119 164/180/160
f 120/99/123 164/180/160 165/179/159
f 153/87/115 114/85/113 163/95/121
f 167/200/169 168/192/164 172/191/163
f 167/200/169 172/191/163 171/201/170
f 167/200/169 171/201/170 170/202/171
f 167/200/169 170/202/171 169/203/172
f 161/194/166 160/193/165 170/204/171
f 161/194/166 170/204/171 171/205/170
f 159/196/168 157/195/167 167/206/169
f 159/196/168 167/206/169 169/207/172
f 162/190/157 161/197/166 171/201/170
f 162/190/157 171/201/170 172/191/163
f 160/198/165 159/196/168 169/207/172
f 160/198/165 169/207/172 170/208/171
f 157/209/167 158/210/158 168/211/164
f 157/209/167 168/211/164 167/212/169
f 173/83/173 175/86/174 176/85/175
f 173/83/173 176/85/175 174/84/176
f 175/86/174 177/88/177 215/87/178
f 175/86/174 215/87/178 176/85/175
f 177/88/177 178/90/179 216/89/180
f 177/88/177 216/89/180 215/87/178
f 178/91/179 179/94/181 180/93/182
f 178/91/179 180/93/182 216/92/180
f 215/87/178 213/96/183 225/95/184
f 179/97/181 181/100/185 182/99/186
f 179/97/181 182/99/186 180/98/182
f 181/101/185 173/83/173 174/84/176
f 181/101/185 174/84/176 182/102/186
f 175/86/174 184/104/187 185/103/188
f 175/86/174 185/103/188 177/88/177
f 184/105/187 188/108/189 189/107/190
f 184/105/187 189/107/190 185/106/188
f 173/83/173 183/109/191 184/104/187
f 173/83/173 184/104/187 175/86/174
f 177/88/177 185/103/188 186/110/192
f 177/88/177 186/110/192 178/90/179
f 181/101/185 183/109/191 173/83/173
f 178/91/179 186/111/192 179/94/181
f 179/112/181 191/114/193 192/113/194
f 179/112/181 192/113/194 181/101/185
f 185/115/188 189/118/190 190/117/195
f 185/115/188 190/117/195 186/116/192
f 183/109/191 187/120/196 188/119/189
f 183/109/191 188/119/189 184/104/187
f 181/101/185 192/113/194 187/120/196
f 181/101/185 187/120/196 183/109/191
f 186/121/192 190/124/195 191/123/193
f 186/121/192 191/123/193 179/122/181
f 187/120/196 194/126/197 196/125/198
f 187/120/196 196/125/198 188/119/189
f 193/127/199 200/130/200 198/129/201
f 193/127/199 198/129/201 190/117/195
f 193/127/199 190/117/195 189/118/190
f 193/127/199 189/118/190 195/128/202
f 192/113/194 199/131/203 194/126/197
f 192/113/194 194/126/197 187/120/196
f 188/108/189 196/133/198 195/132/202
f 188/108/189 195/132/202 189/107/190
f 191/114/193 197/134/204 199/131/203
f 191/114/193 199/131/203 192/113/194
f 190/124/195 198/136/201 197/135/204
f 190/124/195 197/135/204 191/123/193
f 201/137/205 204/140/206 203/139/207
f 201/137/205 203/139/207 202/138/208
f 196/125/198 194/126/197 201/142/205
f 196/125/198 201/142/205 202/141/208
f 195/132/202 196/133/198 202/144/208
f 195/132/202 202/144/208 203/143/207
f 193/127/199 195/128/202 203/146/207
f 193/127/199 203/146/207 204/145/206
f 194/147/197 193/150/199 204/149/206
f 194/147/197 204/149/206 201/148/205
f 205/151/209 208/154/210 207/153/211
f 205/151/209 207/153/211 206/152/212
f 199/131/203 197/134/204 205/156/209
f 199/131/203 205/156/209 206/155/212
f 200/157/200 199/160/203 206/159/212
f 200/157/200 206/159/212 207/158/211
f 198/129/201 200/130/200 207/153/211
f 198/129/201 207/153/211 208/154/210
f 197/135/204 198/136/201 208/162/210
f 197/135/204 208/162/210 205/161/209
f 209/163/213 212/166/214 211/165/215
f 209/163/213 211/165/215 210/164/216
f 194/126/197 199/131/203 209/168/213
f 194/126/197 209/168/213 210/167/216
f 193/150/199 194/147/197 210/170/216
f 193/150/199 210/170/216 211/169/215
f 200/130/200 193/127/199 211/172/215
f 200/130/200 211/172/215 212/171/214
f 199/160/203 200/157/200 212/174/214
f 199/160/203 212/174/214 209/173/213
f 214/175/217 220/178/218 224/177/219
f 214/175/217 224/177/219 218/176/220
f 227/179/221 218/182/220 217/181/222
f 227/179/221 217/181/222 226/180/223
f 225/95/184 213/96/183 214/184/217
f 225/95/184 214/184/217 228/183/224
f 228/183/224 214/184/217 218/186/220
f 228/183/224 218/186/220 227/185/221
f 180/93/182 226/188/223 217/187/222
f 180/93/182 217/187/222 216/92/180
f 220/189/218 230/192/225 234/191/226
f 220/189/218 234/191/226 224/190/219
f 217/187/222 223/194/227 222/193/228
f 217/187/222 222/193/228 216/92/180
f 215/87/178 221/196/229 219/195/230
f 215/87/178 219/195/230 213/96/183
f 218/182/220 224/190/219 223/197/227
f 218/182/220 223/197/227 217/181/222
f 216/89/180 222/198/228 221/196/229
f 216/89/180 221/196/229 215/87/178
f 213/96/183 219/195/230 220/199/218
f 213/96/183 220/199/218 214/184/217
f 174/84/176 228/183/224 227/185/221
f 174/84/176 227/185/221 182/102/186
f 176/85/175 225/95/184 228/183/224
f 176/85/175 228/183/224 174/84/176
f 182/99/186 227/179/221 226/180/223
f 182/99/186 226/180/223 180/98/182
f 215/87/178 225/95/184 176/85/175
f 229/200/231 231/203/232 232/202/233
f 229/200/231 232/202/233 233/201/234
f 229/200/231 233/201/234 234/191/226
f 229/200/231 234/191/226 230/192/225
f 223/194/227 233/205/234 232/204/233
f 223/194/227 232/204/233 222/193/228
f 221/196/229 231/207/232 229/206/231
f 221/196/229 229/206/231 219/195/230
f 224/190/219 234/191/226 233/201/234
f 224/190/219 233/201/234 223/197/227
f 222/198/228 232/208/233 231/207/232
f 222/198/228 231/207/232 221/196/229
f 219/209/230 229/212/231 230/211/225
f 219/209/230 230/211/225 220/210/218
f 235/213/235 236/214/236 238/215/237
f 235/213/235 238/215/237 237/216/238
f 237/216/238 238/215/237 240/217/239
f 237/216/238 240/217/239 239/218/240
f 239/219/240 240/220/239 242/221/241
f 239/219/240 242/221/241 241/222/242
f 241/223/242 242/224/241 244/225/243
f 241/223/242 244/225/243 243/226/244
f 238/227/237 236/228/236 246/229/245
f 238/227/237 246/229/245 244/230/243
f 238/227/237 244/230/243 242/221/241
f 238/227/237 242/221/241 240/220/239
f 243/231/244 244/232/243 246/233/245
f 243/231/244 246/233/245 245/234/246
f 245/234/246 246/233/245 236/214/236
f 245/234/246 236/214/236 235/213/235
f 237/216/238 239/218/240 249/235/247
f 237/216/238 249/235/247 248/236/248
f 248/237/248 249/238/247 253/239/249
f 248/237/248 253/239/249 252/240/250
f 235/213/235 237/216/238 248/236/248
f 235/213/235 248/236/248 247/241/251
f 239/242/240 241/223/242 250/243/252
f 239/242/240 250/243/252 249/238/247
f 245/234/246 235/213/235 247/241/251
f 241/223/242 243/226/244 250/243/252
f 243/231/244 245/234/246 256/244/253
f 243/231/244 256/244/253 255/245/254
f 249/246/247 250/247/252 254/248/255
f 249/246/247 254/248/255 253/249/249
f 247/241/251 248/236/248 252/250/250
f 247/241/251 252/250/250 251/251/256
f 245/234/246 247/241/251 251/251/256
f 245/234/246 251/251/256 256/244/253
f 250/243/252 243/226/244 255/252/254
f 250/243/252 255/252/254 254/253/255
f 251/251/256 252/250/250 260/254/257
f 251/251/256 260/254/257 258/255/258
f 257/256/259 259/257/260 253/249/249
f 257/256/259 253/249/249 254/248/255
f 257/256/259 254/248/255 262/258/261
f 257/256/259 262/258/261 264/259/262
f 256/244/253 251/251/256 258/255/258
f 256/244/253 258/255/258 263/260/263
f 252/240/250 253/239/249 259/261/260
f 252/240/250 259/261/260 260/262/257
f 255/245/254 256/244/253 263/260/263
f 255/245/254 263/260/263 261/263/264
f 254/253/255 255/252/254 261/264/264
f 254/253/255 261/264/264 262/265/261
f 265/266/265 266/267/266 267/268/267
f 265/266/265 267/268/267 268/269/268
f 260/254/257 266/270/266 265/271/265
f 260/254/257 265/271/265 258/255/258
f 259/261/260 267/272/267 266/273/266
f 259/261/260 266/273/266 260/262/257
f 257/256/259 268/274/268 267/275/267
f 257/256/259 267/275/267 259/257/260
f 258/255/258 265/271/265 268/276/268
f 258/255/258 268/276/268 257/277/259
f 269/278/269 270/279/270 271/280/271
f 269/278/269 271/280/271 272/281/272
f 263/260/263 270/282/270 269/283/269
f 263/260/263 269/283/269 261/263/264
f 264/284/262 271/285/271 270/286/270
f 264/284/262 270/286/270 263/287/263
f 262/258/261 272/288/272 271/289/271
f 262/258/261 271/289/271 264/259/262
f 261/264/264 269/290/269 272/291/272
f 261/264/264 272/291/272 262/265/261
f 273/292/273 274/293/274 275/294/275
f 273/292/273 275/294/275 276/295/276
f 258/255/258 274/296/274 273/297/273
f 258/255/258 273/297/273 263/260/263
f 257/298/259 275/299/275 274/300/274
f 257/298/259 274/300/274 258/301/258
f 264/259/262 276/302/276 275/303/275
f 264/259/262 275/303/275 257/256/259
f 263/287/263 273/304/273 276/305/276
f 263/287/263 276/305/276 264/284/262
f 277/213/277 279/216/278 280/215/279
f 277/213/277 280/215/279 278/214/280
f 279/216/278 281/218/281 282/217/282
f 279/216/278 282/217/282 280/215/279
f 281/219/281 283/222/283 284/221/284
f 281/219/281 284/221/284 282/220/282
f 283/223/283 285/226/285 286/225/286
f 283/223/283 286/225/286 284/224/284
f 280/227/279 282/220/282 284/221/284
f 280/227/279 284/221/284 286/230/286
f 280/227/279 286/230/286 288/229/287
f 280/227/279 288/229/287 278/228/280
f 285/231/285 287/234/288 288/233/287
f 285/231/285 288/233/287 286/232/286
f 287/234/288 277/213/277 278/214/280
f 287/234/288 278/214/280 288/233/287
f 279/216/278 290/236/289 291/235/290
f 279/216/278 291/235/290 281/218/281
f 290/237/289 294/240/291 295/239/292
f 290/237/289 295/239/292 291/238/290
f 277/213/277 289/241/293 290/236/289
f 277/213/277 290/236/289 279/216/278
f 281/242/281 291/238/290 292/243/294
f 281/242/281 292/243/294 283/223/283
f 287/234/288 289/241/293 277/213/277
f 283/223/283 292/243/294 285/226/285
f 285/231/285 297/245/295 298/244/296
f 285/231/285 298/244/296 287/234/288
f 291/246/290 295/249/292 296/248/297
f 291/246/290 296/248/297 292/247/294
f 289/241/293 293/251/298 294/250/291
f 289/241/293 294/250/291 290/236/289
f 287/234/288 298/244/296 293/251/298
f 287/234/288 293/251/298 289/241/293
f 292/243/294 296/253/297 297/252/295
f 292/243/294 297/252/295 285/226/285
f 293/251/298 300/255/299 302/254/300
f 293/251/298 302/254/300 294/250/291
f 299/256/301 306/259/302 304/258/303
f 299/256/301 304/258/303 296/248/297
f 299/256/301 296/248/297 295/249/292
f 299/256/301 295/249/292 301/257/304
f 298/244/296 305/260/305 300/255/299
f 298/244/296 300/255/299 293/251/298
f 294/240/291 302/262/300 301/261/304
f 294/240/291 301/261/304 295/239/292
f 297/245/295 303/263/306 305/260/305
f 297/245/295 305/260/305 298/244/296
f 296/253/297 304/265/303 303/264/306
f 296/253/297 303/264/306 297/252/295
f 307/266/307 310/269/308 309/268/309
f 307/266/307 309/268/309 308/267/310
f 302/254/300 300/255/299 307/271/307
f 302/254/300 307/271/307 308/270/310
f 301/261/304 302/262/300 308/273/310
f 301/261/304 308/273/310 309/272/309
f 299/256/301 301/257/304 309/275/309
f 299/256/301 309/275/309 310/274/308
f 300/255/299 299/277/301 310/276/308
f 300/255/299 310/276/308 307/271/307
f 311/278/311 314/281/312 313/280/313
f 311/278/311 313/280/313 312/279/314
f 305/260/305 303/263/306 311/283/311
f 305/260/305 311/283/311 312/282/314
f 306/284/302 305/287/305 312/286/314
f 306/284/302 312/286/314 313/285/313
f 304/258/303 306/259/302 313/289/313
f 304/258/303 313/289/313 314/288/312
f 303/264/306 304/265/303 314/291/312
f 303/264/306 314/291/312 311/290/311
f 315/292/315 318/295/316 317/294/317
f 315/292/315 317/294/317 316/293/318
f 300/255/299 305/260/305 315/297/315
f 300/255/299 315/297/315 316/296/318
f 299/298/301 300/301/299 316/300/318
f 299/298/301 316/300/318 317/299/317
f 306/259/302 299/256/301 317/303/317
f 306/259/302 317/303/317 318/302/316
f 305/287/305 306/284/302 318/305/316
f 305/287/305 318/305/316 315/304/315
f 319/306/319 320/307/320 321/308/321
f 319/306/319 323/309/322 322/310/323
f 319/306/319 325/311/324 324/312/325
f 319/306/319 321/308/321 323/309/322
f 319/306/319 324/312/325 320/307/320
f 319/306/319 322/310/323 325/311/324
f 326/306/326 328/308/327 327/307/328
f 326/306/326 329/310/329 330/309/330
f 326/306/326 331/312/331 332/311/332
f 326/306/326 330/309/330 328/308/327
f 326/306/326 327/307/328 331/312/331
f 326/306/326 332/311/332 329/310/329
