# Blender 4.5.5 LTS
# www.blender.org
mtllib Animal_Ladybug.mtl
o Ladybug
v -0.005125 0.010645 -0.045738
v -0.005111 0.011618 -0.045726
v -0.006018 0.010645 -0.044681
v -0.006004 0.011618 -0.044669
v -0.011776 0.010151 -0.048329
v -0.011777 0.009241 -0.048330
v -0.012254 0.010151 -0.047713
v -0.012255 0.009241 -0.047714
v -0.007813 0.010066 -0.046030
v -0.007812 0.011175 -0.046029
v -0.007542 0.010066 -0.046940
v -0.007541 0.011175 -0.046940
v -0.015284 0.008057 -0.051083
v -0.015286 0.006478 -0.051084
v -0.016235 0.008057 -0.050120
v -0.016237 0.006478 -0.050121
v -0.011092 0.041581 -0.012344
v -0.010186 0.028630 -0.026968
v -0.015530 0.024180 -0.025316
v -0.020223 0.015577 -0.014233
v -0.013613 0.011925 -0.008821
v -0.000000 0.042949 -0.016256
v -0.000000 0.032299 -0.027880
v -0.000000 0.020091 -0.026620
v -0.000000 0.014761 -0.021009
v -0.000000 0.011925 -0.012733
v -0.000000 0.047134 -0.000219
v 0.000000 0.010913 0.000198
v 0.000000 0.043525 0.015882
v 0.000000 0.037231 0.026381
v 0.000000 0.027616 0.033928
v 0.000000 0.014353 0.038376
v 0.000000 0.011836 0.032018
v -0.007550 0.042156 0.011970
v -0.020956 0.037231 0.019605
v -0.024941 0.027616 0.026104
v -0.021495 0.014353 0.031601
v -0.010239 0.011836 0.028106
v -0.011358 0.042750 -0.000408
v -0.024443 0.034729 0.000000
v -0.029400 0.026701 0.000000
v -0.025188 0.015632 0.000057
v -0.014571 0.012129 0.000238
v -0.016082 0.031237 -0.023386
v -0.022586 0.024247 -0.020762
v -0.000000 0.033948 -0.028349
v -0.000000 0.018974 -0.026772
v -0.011565 0.028994 -0.034531
v -0.020987 0.017768 -0.027899
v -0.000000 0.034911 -0.030589
v -0.000000 0.015536 -0.028160
v -0.012215 0.022571 -0.040667
v -0.010232 0.011604 -0.039182
v -0.000000 0.021500 -0.041537
v -0.000000 0.008728 -0.038971
v -0.012373 0.022150 -0.039829
v -0.010232 0.011604 -0.039182
v -0.000000 0.021304 -0.042282
v -0.000000 0.008728 -0.039158
v -0.006320 0.020462 -0.041929
v -0.009187 0.018135 -0.040735
v -0.006182 0.010093 -0.039700
v -0.002057 0.019956 -0.043809
v -0.005441 0.018264 -0.045938
v -0.003645 0.008076 -0.043872
v -0.000000 0.014137 -0.047161
v -0.003185 0.012644 -0.047145
v -0.010360 0.014101 -0.040218
v -0.000000 0.009460 -0.039196
v -0.000000 0.021689 -0.042158
v -0.000000 0.006524 -0.043872
v -0.000000 0.018319 -0.045938
v -0.000000 0.019983 -0.044203
v -0.007735 0.011168 -0.039959
v -0.003076 0.010884 -0.047100
v -0.000000 0.006943 -0.047082
v 0.000000 0.014353 0.038376
v -0.011092 0.041581 -0.012344
v -0.010186 0.028630 -0.026968
v -0.015530 0.024180 -0.025316
v -0.020223 0.015577 -0.014233
v -0.000000 0.042949 -0.016256
v -0.000000 0.032299 -0.027880
v -0.000000 0.020091 -0.026620
v -0.000000 0.014761 -0.021009
v -0.000000 0.047134 -0.000219
v 0.000000 0.043525 0.015882
v 0.000000 0.037231 0.026381
v 0.000000 0.027616 0.033928
v 0.000000 0.014353 0.038376
v -0.007550 0.042156 0.011970
v -0.020956 0.037231 0.019605
v -0.024941 0.027616 0.026104
v -0.021495 0.014353 0.031601
v -0.011358 0.042750 -0.000408
v -0.024443 0.034729 0.000000
v -0.029400 0.026701 0.000000
v -0.025188 0.015632 0.000057
v -0.016082 0.031237 -0.023386
v -0.022586 0.024247 -0.020762
v -0.000000 0.033948 -0.028349
v -0.000000 0.018974 -0.026772
v -0.005786 0.014164 -0.047161
v -0.004008 0.008495 -0.047082
v -0.001626 0.012519 -0.047138
v -0.001626 0.010586 -0.047109
v -0.011404 0.032198 -0.030601
v -0.005535 0.030588 -0.034702
v -0.012373 0.022150 -0.039829
v -0.005514 0.022070 -0.041414
v 0.005125 0.010645 -0.045738
v 0.005111 0.011618 -0.045726
v 0.006018 0.010645 -0.044681
v 0.006004 0.011618 -0.044669
v 0.011776 0.010151 -0.048329
v 0.011777 0.009241 -0.048330
v 0.012254 0.010151 -0.047713
v 0.012255 0.009241 -0.047714
v 0.007813 0.010066 -0.046030
v 0.007812 0.011175 -0.046029
v 0.007542 0.010066 -0.046940
v 0.007541 0.011175 -0.046940
v 0.015284 0.008057 -0.051083
v 0.015286 0.006478 -0.051084
v 0.016235 0.008057 -0.050120
v 0.016237 0.006478 -0.050121
v 0.011092 0.041581 -0.012344
v 0.010186 0.028630 -0.026968
v 0.015530 0.024180 -0.025316
v 0.020223 0.015577 -0.014233
v 0.013613 0.011925 -0.008821
v 0.007550 0.042156 0.011970
v 0.020956 0.037231 0.019605
v 0.024941 0.027616 0.026104
v 0.021495 0.014353 0.031601
v 0.010239 0.011836 0.028106
v 0.011358 0.042750 -0.000408
v 0.024443 0.034729 -0.000000
v 0.029400 0.026701 -0.000000
v 0.025188 0.015632 0.000057
v 0.014571 0.012129 0.000238
v 0.016082 0.031237 -0.023386
v 0.022586 0.024247 -0.020762
v 0.011565 0.028994 -0.034531
v 0.020987 0.017768 -0.027899
v 0.012215 0.022571 -0.040667
v 0.010232 0.011604 -0.039182
v 0.012373 0.022150 -0.039829
v 0.010232 0.011604 -0.039182
v 0.006320 0.020462 -0.041929
v 0.009187 0.018135 -0.040735
v 0.006182 0.010093 -0.039700
v 0.002057 0.019956 -0.043809
v 0.005441 0.018264 -0.045938
v 0.003645 0.008076 -0.043872
v 0.003185 0.012644 -0.047145
v 0.010360 0.014101 -0.040218
v 0.007735 0.011168 -0.039959
v 0.003076 0.010884 -0.047100
v 0.011092 0.041581 -0.012344
v 0.010186 0.028630 -0.026968
v 0.015530 0.024180 -0.025316
v 0.020223 0.015577 -0.014233
v 0.007550 0.042156 0.011970
v 0.020956 0.037231 0.019605
v 0.024941 0.027616 0.026104
v 0.021495 0.014353 0.031601
v 0.011358 0.042750 -0.000408
v 0.024443 0.034729 -0.000000
v 0.029400 0.026701 -0.000000
v 0.025188 0.015632 0.000057
v 0.016082 0.031237 -0.023386
v 0.022586 0.024247 -0.020762
v 0.005786 0.014164 -0.047161
v 0.004008 0.008495 -0.047082
v 0.001626 0.012519 -0.047138
v 0.001626 0.010586 -0.047109
v 0.011404 0.032198 -0.030601
v 0.005535 0.030588 -0.034702
v 0.012373 0.022150 -0.039829
v 0.005514 0.022070 -0.041414
v -0.012797 0.012740 -0.020973
v -0.012797 0.016108 -0.020675
v -0.016070 0.013450 -0.020973
v -0.016070 0.016108 -0.020675
v -0.012797 0.014841 -0.025110
v -0.012797 0.017545 -0.026187
v -0.016070 0.014841 -0.025110
v -0.016070 0.017463 -0.026187
v -0.020990 0.014774 -0.029609
v -0.021788 0.015723 -0.029577
v -0.020317 0.015948 -0.031114
v -0.020757 0.017101 -0.031568
v -0.024816 0.002948 -0.035578
v -0.023458 0.002309 -0.035353
v -0.023153 0.003430 -0.037539
v -0.024168 0.004312 -0.038422
v -0.028706 0.001581 -0.039937
v -0.028164 0.001326 -0.039848
v -0.028043 0.001773 -0.040719
v -0.028447 0.002124 -0.041071
v 0.012797 0.012740 -0.020973
v 0.012797 0.016108 -0.020675
v 0.016070 0.013450 -0.020973
v 0.016070 0.016108 -0.020675
v 0.012797 0.014841 -0.025110
v 0.012797 0.017545 -0.026187
v 0.016070 0.014841 -0.025110
v 0.016070 0.017463 -0.026187
v 0.020990 0.014774 -0.029609
v 0.021788 0.015723 -0.029577
v 0.020317 0.015948 -0.031114
v 0.020757 0.017101 -0.031568
v 0.024816 0.002948 -0.035578
v 0.023458 0.002309 -0.035353
v 0.023153 0.003430 -0.037539
v 0.024168 0.004312 -0.038422
v 0.028706 0.001581 -0.039937
v 0.028164 0.001326 -0.039848
v 0.028043 0.001773 -0.040719
v 0.028447 0.002124 -0.041071
v -0.016922 0.013350 -0.009334
v -0.018244 0.016449 -0.009035
v -0.020652 0.011297 -0.009334
v -0.020652 0.013955 -0.009035
v -0.017747 0.015283 -0.013471
v -0.018808 0.017771 -0.014548
v -0.020652 0.012688 -0.013471
v -0.020652 0.015310 -0.014548
v -0.024848 0.010457 -0.011236
v -0.025591 0.011405 -0.010944
v -0.024707 0.011631 -0.014351
v -0.025271 0.012783 -0.014636
v -0.029164 0.000346 -0.002411
v -0.027808 -0.000293 -0.002645
v -0.028237 0.000828 -0.004810
v -0.029486 0.001711 -0.005310
v -0.033542 -0.000557 -0.003007
v -0.033001 -0.000812 -0.003101
v -0.033172 -0.000365 -0.003964
v -0.033670 -0.000013 -0.004163
v 0.016922 0.013350 -0.009334
v 0.018244 0.016449 -0.009035
v 0.020652 0.011297 -0.009334
v 0.020652 0.013955 -0.009035
v 0.017747 0.015283 -0.013471
v 0.018808 0.017771 -0.014548
v 0.020652 0.012688 -0.013471
v 0.020652 0.015310 -0.014548
v 0.024848 0.010457 -0.011236
v 0.025591 0.011405 -0.010944
v 0.024707 0.011631 -0.014351
v 0.025271 0.012783 -0.014636
v 0.029164 0.000346 -0.002411
v 0.027808 -0.000293 -0.002645
v 0.028237 0.000828 -0.004810
v 0.029486 0.001711 -0.005310
v 0.033542 -0.000557 -0.003007
v 0.033001 -0.000812 -0.003101
v 0.033172 -0.000365 -0.003964
v 0.033670 -0.000013 -0.004163
v -0.013827 0.012312 0.007498
v -0.013618 0.015681 0.007712
v -0.020746 0.011216 0.015434
v -0.020572 0.013044 0.015543
v -0.016122 0.012965 0.005136
v -0.016873 0.015670 0.004363
v -0.022583 0.011673 0.013421
v -0.023293 0.013011 0.013837
v -0.026804 0.003793 0.024653
v -0.026553 0.001334 0.025410
v -0.024100 0.002502 0.024917
v -0.023915 0.004154 0.024935
v -0.029190 0.000594 0.032654
v -0.030164 0.000432 0.032559
v -0.030482 0.001211 0.032528
v -0.029102 0.001383 0.032663
v 0.013827 0.012312 0.007498
v 0.013618 0.015681 0.007712
v 0.020746 0.011216 0.015434
v 0.020572 0.013044 0.015543
v 0.016122 0.012965 0.005136
v 0.016873 0.015670 0.004363
v 0.022583 0.011673 0.013421
v 0.023293 0.013011 0.013837
v 0.026804 0.003793 0.024653
v 0.026553 0.001334 0.025410
v 0.024100 0.002502 0.024917
v 0.023915 0.004154 0.024935
v 0.029190 0.000594 0.032654
v 0.030164 0.000432 0.032559
v 0.030482 0.001211 0.032528
v 0.029102 0.001383 0.032663
v -0.000000 0.045816 -0.016784
v -0.000000 0.050000 -0.000802
v 0.000000 0.046461 0.016233
v 0.000000 0.038325 0.027597
v 0.000000 0.027446 0.035414
v 0.000000 0.015074 0.039889
v -0.000000 0.035644 -0.029509
v 0.000000 0.035209 0.029836
v 0.000000 0.042357 0.021965
v -0.000000 0.038011 -0.026548
v -0.000000 0.042929 -0.020396
v 0.011170 0.044282 -0.012399
v 0.021406 0.014053 -0.014315
v 0.011319 0.044927 0.011848
v 0.022228 0.038325 0.020002
v 0.026694 0.027446 0.026644
v 0.022831 0.015041 0.032631
v 0.011469 0.044342 -0.000807
v 0.026137 0.035352 -0.000434
v 0.031692 0.026353 0.000322
v 0.026971 0.014992 0.000656
v 0.016765 0.031437 -0.028810
v 0.024054 0.023602 -0.027911
v 0.006053 0.047014 -0.000805
v 0.011391 0.044646 0.005769
v 0.011291 0.044306 -0.007184
v 0.018074 0.040294 -0.000639
v 0.016289 0.042470 0.004510
v 0.016093 0.042300 -0.005930
v 0.005659 0.047463 0.005523
v 0.007701 0.045830 0.003601
v 0.005585 0.047141 -0.006601
v 0.007845 0.045660 -0.005308
v 0.003939 0.038325 0.026251
v 0.003885 0.036015 0.027929
v 0.004017 0.039991 0.023226
v 0.003392 0.041146 -0.021421
v 0.003210 0.038690 -0.024557
v 0.027462 0.027278 0.022599
v 0.025546 0.023759 0.028424
v 0.021557 0.027446 0.028332
v 0.024836 0.031971 0.023881
v 0.026444 0.029320 0.021198
v 0.021325 0.025841 0.028989
v 0.020992 0.029877 0.026749
v 0.026795 0.024519 0.022963
v 0.026601 0.024519 -0.018497
v 0.028712 0.025279 -0.010694
v 0.027881 0.022901 -0.009939
v 0.025914 0.020014 -0.013196
v 0.025571 0.021665 -0.017733
v 0.024461 0.028477 -0.014556
v 0.027380 0.026792 -0.010657
v 0.024942 0.026350 -0.018582
v -0.011170 0.044282 -0.012399
v -0.021406 0.014053 -0.014315
v -0.000000 0.045816 -0.016784
v -0.000000 0.050000 -0.000802
v 0.000000 0.046461 0.016233
v 0.000000 0.038325 0.027597
v 0.000000 0.027446 0.035414
v 0.000000 0.015074 0.039889
v -0.011319 0.044927 0.011848
v -0.022228 0.038325 0.020002
v -0.026694 0.027446 0.026644
v -0.022831 0.015041 0.032631
v -0.011469 0.044342 -0.000807
v -0.026137 0.035352 -0.000434
v -0.031692 0.026353 0.000322
v -0.026971 0.014992 0.000656
v -0.016765 0.031437 -0.028810
v -0.024054 0.023602 -0.027911
v -0.000000 0.035644 -0.029509
v -0.006053 0.047014 -0.000805
v -0.011391 0.044646 0.005769
v -0.011291 0.044306 -0.007184
v -0.018074 0.040294 -0.000639
v -0.016289 0.042470 0.004510
v -0.016093 0.042300 -0.005930
v -0.005659 0.047463 0.005523
v -0.007701 0.045830 0.003601
v -0.005585 0.047141 -0.006601
v -0.007845 0.045660 -0.005308
v -0.003939 0.038325 0.026251
v 0.000000 0.035209 0.029836
v 0.000000 0.042357 0.021965
v -0.003885 0.036015 0.027929
v -0.004017 0.039991 0.023226
v -0.000000 0.038011 -0.026548
v -0.000000 0.042929 -0.020396
v -0.003392 0.041146 -0.021421
v -0.003210 0.038690 -0.024557
v -0.027462 0.027278 0.022599
v -0.025546 0.023759 0.028424
v -0.021557 0.027446 0.028332
v -0.024836 0.031971 0.023881
v -0.026444 0.029320 0.021198
v -0.021325 0.025841 0.028989
v -0.020992 0.029877 0.026749
v -0.026795 0.024519 0.022963
v -0.026601 0.024519 -0.018497
v -0.028712 0.025279 -0.010694
v -0.027881 0.022901 -0.009939
v -0.025914 0.020014 -0.013196
v -0.025571 0.021665 -0.017733
v -0.024461 0.028477 -0.014556
v -0.027380 0.026792 -0.010657
v -0.024942 0.026350 -0.018582
vn 0.8507 -0.4986 -0.1663
vn 0.7713 0.6141 -0.1672
vn 0.1309 -0.5121 0.8489
vn 0.0547 0.6256 0.7782
vn 0.0849 0.7112 -0.6978
vn 0.5585 -0.6761 -0.4805
vn -0.5019 0.6949 0.5150
vn -0.1561 -0.5700 0.8067
vn -0.1736 -0.7299 0.6611
vn -0.4604 0.7255 0.5115
vn 0.3948 -0.6883 -0.6086
vn 0.1539 0.6790 -0.7178
vn -0.1129 0.4310 -0.8953
vn 0.0797 -0.7305 -0.6782
vn -0.8993 0.4306 0.0771
vn -0.6848 -0.7112 0.1590
vn -0.4284 0.8406 -0.3314
vn -0.6345 0.7289 -0.2572
vn -0.9723 -0.1153 -0.2033
vn -0.5381 -0.7461 -0.3921
vn -0.1913 -0.9674 -0.1662
vn -0.0000 0.8875 -0.4608
vn -0.0000 0.9716 -0.2364
vn -0.0000 -0.9622 0.2724
vn -0.0000 -0.8227 -0.5685
vn -0.0000 -0.9675 -0.2529
vn -0.0000 1.0000 0.0042
vn -0.0000 -0.9998 -0.0178
vn -0.0000 0.9391 0.3435
vn -0.0000 0.7662 0.6426
vn -0.0000 0.4638 0.8860
vn -0.0000 -0.3885 0.9214
vn -0.0000 -0.9742 0.2256
vn -0.3085 0.9239 0.2262
vn -0.5427 0.7528 0.3726
vn -0.7760 0.2732 0.5685
vn -0.6071 -0.4909 0.6248
vn -0.1294 -0.9806 0.1475
vn -0.4506 0.8916 -0.0442
vn -0.7237 0.6819 -0.1063
vn -0.9892 0.1096 -0.0976
vn -0.7286 -0.6823 -0.0602
vn -0.2081 -0.9780 -0.0150
vn -0.5459 0.5232 -0.6544
vn -0.7731 -0.0977 -0.6267
vn -0.0000 0.5859 -0.8104
vn -0.0000 -0.7284 -0.6851
vn -0.6609 0.5633 -0.4958
vn -0.8697 -0.2833 0.4041
vn -0.0000 1.0000 0.0075
vn -0.0000 -0.6783 0.7348
vn -0.6009 -0.1069 -0.7922
vn -0.6662 -0.7228 0.1837
vn -0.0000 0.8337 -0.5523
vn -0.0000 -0.9737 0.2276
vn -0.0454 0.8606 -0.5072
vn -0.3267 -0.1368 -0.9352
vn -0.0000 0.4831 -0.8756
vn -0.0000 -0.8067 -0.5910
vn -0.4411 0.5534 -0.7065
vn -0.6120 0.3336 -0.7171
vn -0.4614 -0.8778 0.1289
vn -0.2087 0.7251 -0.6562
vn -0.4174 0.5094 -0.7526
vn -0.4277 -0.8944 0.1310
vn -0.0000 0.1847 -0.9828
vn 0.0008 -0.0153 -0.9999
vn -0.7606 0.0154 -0.6490
vn -0.0000 -0.8971 0.4418
vn -0.0000 0.6538 -0.7567
vn -0.0000 -0.9780 0.2085
vn -0.0000 0.4486 -0.8938
vn -0.0000 0.6415 -0.7671
vn -0.7674 -0.5818 -0.2696
vn -0.0006 -0.0148 -0.9999
vn -0.0000 -0.7410 -0.6715
vn -0.3461 0.2608 -0.9012
vn -0.4436 -0.3084 -0.8415
vn -0.6774 -0.5592 -0.4780
vn -0.0000 0.3009 -0.9537
vn -0.0000 -0.7384 -0.6744
vn -0.0000 -0.7195 -0.6945
vn -0.0000 0.3169 0.9485
vn -0.6467 0.1110 0.7546
vn -0.9395 -0.3351 -0.0716
vn -0.5181 -0.0120 -0.8552
vn -0.4551 -0.5756 -0.6793
vn -0.0029 -0.0142 -0.9999
vn -0.0049 -0.0122 -0.9999
vn -0.5703 0.8210 -0.0264
vn -0.0779 0.7025 -0.7074
vn -0.7242 0.5152 -0.4584
vn -0.1001 -0.2001 -0.9747
vn -0.8507 -0.4986 -0.1663
vn -0.7713 0.6141 -0.1672
vn -0.1309 -0.5121 0.8489
vn -0.0547 0.6256 0.7782
vn -0.0849 0.7112 -0.6978
vn -0.5585 -0.6761 -0.4805
vn 0.5019 0.6949 0.5150
vn 0.1561 -0.5700 0.8067
vn 0.1736 -0.7299 0.6611
vn 0.4604 0.7255 0.5115
vn -0.3948 -0.6883 -0.6086
vn -0.1539 0.6790 -0.7178
vn 0.1129 0.4310 -0.8953
vn -0.0797 -0.7305 -0.6782
vn 0.8993 0.4306 0.0771
vn 0.6848 -0.7112 0.1590
vn 0.4284 0.8406 -0.3314
vn 0.6345 0.7289 -0.2572
vn 0.9723 -0.1153 -0.2033
vn 0.5381 -0.7461 -0.3921
vn 0.1913 -0.9674 -0.1662
vn 0.3085 0.9239 0.2262
vn 0.5427 0.7528 0.3726
vn 0.7760 0.2732 0.5685
vn 0.6071 -0.4909 0.6248
vn 0.1294 -0.9806 0.1475
vn 0.4506 0.8916 -0.0442
vn 0.7237 0.6819 -0.1063
vn 0.9892 0.1096 -0.0976
vn 0.7286 -0.6823 -0.0602
vn 0.2081 -0.9780 -0.0150
vn 0.5459 0.5232 -0.6544
vn 0.7731 -0.0977 -0.6267
vn 0.6609 0.5633 -0.4958
vn 0.8697 -0.2833 0.4041
vn 0.6009 -0.1069 -0.7922
vn 0.6662 -0.7228 0.1837
vn 0.0454 0.8606 -0.5072
vn 0.3267 -0.1368 -0.9352
vn 0.4411 0.5534 -0.7065
vn 0.6120 0.3336 -0.7171
vn 0.4614 -0.8778 0.1289
vn 0.2087 0.7251 -0.6562
vn 0.4174 0.5094 -0.7526
vn 0.4277 -0.8944 0.1310
vn -0.0008 -0.0153 -0.9999
vn 0.7606 0.0154 -0.6490
vn 0.7673 -0.5818 -0.2696
vn 0.0006 -0.0148 -0.9999
vn 0.3461 0.2608 -0.9012
vn 0.4436 -0.3084 -0.8415
vn 0.6774 -0.5592 -0.4780
vn 0.6467 0.1110 0.7546
vn 0.9395 -0.3351 -0.0716
vn 0.5181 -0.0120 -0.8552
vn 0.4551 -0.5756 -0.6793
vn 0.0029 -0.0142 -0.9999
vn 0.0049 -0.0122 -0.9999
vn 0.5703 0.8210 -0.0264
vn 0.0779 0.7025 -0.7074
vn 0.7242 0.5152 -0.4584
vn 0.1001 -0.2001 -0.9747
vn 0.5223 -0.7549 0.3966
vn 0.5815 0.4674 0.6659
vn -0.3908 -0.7599 0.5194
vn -0.4216 0.4433 0.7910
vn 0.6173 -0.5515 -0.5611
vn 0.5493 0.5560 -0.6238
vn 0.2630 -0.7431 -0.6153
vn 0.1241 0.8554 -0.5028
vn 0.0310 -0.8359 0.5480
vn -0.8512 0.3625 0.3795
vn 0.8399 -0.2202 -0.4961
vn -0.0908 0.7774 -0.6224
vn -0.7697 -0.1544 0.6195
vn 0.3949 -0.7701 0.5009
vn 0.8290 -0.3637 -0.4249
vn 0.0253 0.5577 -0.8297
vn -0.9668 -0.2234 0.1238
vn -0.0908 -0.9958 0.0090
vn 0.2567 -0.6761 -0.6907
vn -0.5110 0.2245 -0.8298
vn -0.5223 -0.7549 0.3966
vn -0.5815 0.4674 0.6659
vn 0.3908 -0.7599 0.5194
vn 0.4216 0.4433 0.7910
vn -0.6173 -0.5515 -0.5611
vn -0.5493 0.5560 -0.6238
vn -0.2630 -0.7431 -0.6153
vn -0.1241 0.8554 -0.5028
vn -0.0310 -0.8359 0.5480
vn 0.8512 0.3625 0.3795
vn -0.8399 -0.2202 -0.4961
vn 0.0908 0.7774 -0.6224
vn 0.7697 -0.1544 0.6195
vn -0.3949 -0.7701 0.5009
vn -0.8290 -0.3637 -0.4249
vn -0.0253 0.5577 -0.8297
vn 0.9668 -0.2234 0.1239
vn 0.0908 -0.9958 0.0090
vn -0.2567 -0.6761 -0.6907
vn 0.5110 0.2245 -0.8298
vn 0.8254 -0.3654 0.4303
vn 0.1912 0.7279 0.6585
vn 0.2001 -0.8079 0.5543
vn -0.4061 0.3416 0.8476
vn 0.8429 -0.1677 -0.5113
vn 0.1205 0.8042 -0.5821
vn 0.3899 -0.6602 -0.6420
vn -0.3341 0.4306 -0.8384
vn 0.7117 -0.5526 0.4337
vn -0.5577 0.5475 0.6239
vn 0.1191 -0.6413 -0.7580
vn -0.5654 0.3601 -0.7421
vn -0.0315 0.2763 0.9606
vn 0.7212 -0.5276 0.4489
vn 0.3924 -0.7036 -0.5924
vn -0.8223 0.0411 -0.5676
vn -0.8205 -0.1504 0.5515
vn -0.1230 -0.9576 0.2604
vn -0.1514 -0.7834 -0.6027
vn -0.8525 0.2405 -0.4642
vn -0.8254 -0.3654 0.4303
vn -0.1912 0.7279 0.6585
vn -0.2001 -0.8079 0.5543
vn 0.4061 0.3416 0.8476
vn -0.8429 -0.1677 -0.5113
vn -0.1205 0.8042 -0.5821
vn -0.3899 -0.6602 -0.6420
vn 0.3341 0.4306 -0.8384
vn -0.7117 -0.5526 0.4337
vn 0.5577 0.5475 0.6239
vn -0.1191 -0.6413 -0.7580
vn 0.5654 0.3601 -0.7421
vn 0.0315 0.2763 0.9606
vn -0.7212 -0.5276 0.4489
vn -0.3924 -0.7036 -0.5924
vn 0.8223 0.0411 -0.5676
vn 0.8205 -0.1504 0.5515
vn 0.1230 -0.9576 0.2604
vn 0.1514 -0.7834 -0.6027
vn 0.8525 0.2405 -0.4642
vn 0.7732 -0.6273 -0.0935
vn 0.7766 0.6280 0.0499
vn 0.7547 -0.6560 0.0092
vn 0.3640 0.6594 0.6578
vn 0.0539 -0.5660 -0.8226
vn -0.1783 0.5531 -0.8138
vn -0.4970 -0.6669 -0.5551
vn -0.8254 0.5542 -0.1072
vn -0.8738 0.4734 -0.1116
vn -0.2642 -0.8695 -0.4173
vn 0.7784 -0.6276 -0.0160
vn 0.6272 0.4855 0.6091
vn 0.4521 -0.5524 0.7004
vn -0.5045 -0.7049 0.4986
vn -0.8537 0.3476 0.3878
vn 0.3304 0.5035 0.7983
vn -0.7732 -0.6273 -0.0935
vn -0.7766 0.6280 0.0499
vn -0.7547 -0.6560 0.0092
vn -0.3640 0.6594 0.6578
vn -0.0538 -0.5660 -0.8226
vn 0.1783 0.5531 -0.8138
vn 0.4970 -0.6669 -0.5551
vn 0.8254 0.5542 -0.1072
vn 0.8738 0.4734 -0.1116
vn 0.2642 -0.8695 -0.4173
vn -0.7784 -0.6276 -0.0160
vn -0.6272 0.4855 0.6091
vn -0.4521 -0.5524 0.7004
vn 0.5045 -0.7049 0.4986
vn 0.8537 0.3476 0.3878
vn -0.3304 0.5035 0.7983
vn 0.2543 0.8616 -0.4392
vn 0.3619 0.9318 -0.0271
vn 0.2154 0.8977 0.3844
vn 0.2623 0.6774 0.6873
vn 0.2793 0.4449 0.8509
vn 0.2905 0.3333 0.8970
vn 0.2672 0.7822 -0.5627
vn 0.2629 0.5678 0.7801
vn 0.2264 0.8271 0.5144
vn 0.2509 0.7762 -0.5784
vn 0.2502 0.7760 -0.5790
vn 0.4522 0.8367 -0.3089
vn 0.8564 -0.4636 -0.2272
vn 0.3678 0.9077 0.2022
vn 0.5641 0.7243 0.3965
vn 0.7762 0.2813 0.5643
vn 0.6358 0.1259 0.7615
vn 0.4307 0.9022 -0.0213
vn 0.7446 0.6579 -0.1129
vn 0.9944 0.0817 -0.0671
vn 0.9179 -0.3943 -0.0436
vn 0.5875 0.7023 -0.4020
vn 0.9122 0.2603 -0.3163
vn 0.4515 0.8920 -0.0229
vn 0.4662 0.8829 -0.0554
vn 0.5071 0.8597 -0.0619
vn 0.5524 0.8276 -0.0999
vn 0.5018 0.8628 -0.0622
vn 0.5629 0.8205 -0.1003
vn 0.3437 0.9364 0.0701
vn 0.4344 0.9002 -0.0318
vn 0.3511 0.9281 -0.1243
vn 0.4374 0.8992 -0.0146
vn 0.2530 0.7052 0.6623
vn 0.2638 0.5667 0.7806
vn 0.2314 0.8226 0.5195
vn 0.2422 0.7729 -0.5865
vn 0.9813 0.1129 0.1558
vn 0.7588 0.0373 0.6503
vn 0.2777 0.4583 0.8443
vn 0.6340 0.5868 0.5036
vn 0.8732 0.4722 0.1207
vn 0.2905 0.3349 0.8963
vn 0.2598 0.5730 0.7772
vn 0.9515 -0.2554 0.1715
vn 0.9513 0.1044 -0.2900
vn 0.9515 0.1028 -0.2901
vn 0.8799 -0.4226 -0.2172
vn 0.7502 0.5989 -0.2803
vn -0.4522 0.8367 -0.3089
vn -0.8564 -0.4636 -0.2272
vn -0.2543 0.8616 -0.4392
vn -0.3619 0.9318 -0.0271
vn -0.2154 0.8977 0.3844
vn -0.2623 0.6774 0.6873
vn -0.2793 0.4449 0.8509
vn -0.2905 0.3333 0.8970
vn -0.3678 0.9077 0.2022
vn -0.5641 0.7243 0.3965
vn -0.7762 0.2813 0.5643
vn -0.6358 0.1259 0.7615
vn -0.4307 0.9022 -0.0213
vn -0.7446 0.6579 -0.1129
vn -0.9944 0.0817 -0.0671
vn -0.9179 -0.3943 -0.0436
vn -0.5875 0.7023 -0.4020
vn -0.9122 0.2603 -0.3163
vn -0.2672 0.7822 -0.5627
vn -0.4515 0.8920 -0.0229
vn -0.4662 0.8829 -0.0554
vn -0.5071 0.8597 -0.0619
vn -0.5524 0.8276 -0.0999
vn -0.5018 0.8628 -0.0622
vn -0.5628 0.8205 -0.1003
vn -0.3437 0.9364 0.0701
vn -0.4344 0.9002 -0.0318
vn -0.3511 0.9281 -0.1243
vn -0.4374 0.8992 -0.0146
vn -0.2530 0.7052 0.6623
vn -0.2629 0.5678 0.7801
vn -0.2264 0.8271 0.5144
vn -0.2638 0.5667 0.7806
vn -0.2314 0.8226 0.5195
vn -0.2509 0.7762 -0.5784
vn -0.2502 0.7760 -0.5790
vn -0.2422 0.7729 -0.5865
vn -0.9813 0.1129 0.1558
vn -0.7588 0.0373 0.6503
vn -0.2777 0.4583 0.8443
vn -0.6340 0.5868 0.5036
vn -0.8732 0.4722 0.1207
vn -0.2905 0.3349 0.8963
vn -0.2598 0.5730 0.7772
vn -0.9515 -0.2554 0.1715
vn -0.9513 0.1044 -0.2900
vn -0.9515 0.1028 -0.2901
vn -0.8799 -0.4226 -0.2172
vn -0.7502 0.5989 -0.2803
vt 0.938661 0.228212
vt 0.938665 0.228546
vt 0.939027 0.228546
vt 0.939023 0.228212
vt 0.937772 0.227731
vt 0.937983 0.227731
vt 0.937158 0.226784
vt 0.936828 0.226784
vt 0.938249 0.228394
vt 0.938249 0.228014
vt 0.937773 0.228043
vt 0.937159 0.227325
vt 0.936829 0.227325
vt 0.938561 0.228394
vt 0.938561 0.228014
vt 0.937984 0.228043
vt 0.954336 0.233715
vt 0.954336 0.236467
vt 0.946321 0.235270
vt 0.947221 0.232874
vt 0.954197 0.239215
vt 0.954261 0.240718
vt 0.950106 0.238815
vt 0.954404 0.228304
vt 0.954418 0.228721
vt 0.951313 0.228651
vt 0.954356 0.229921
vt 0.949458 0.229903
vt 0.949972 0.228651
vt 0.945161 0.231067
vt 0.947136 0.229623
vt 0.948765 0.239284
vt 0.944620 0.236199
vt 0.945213 0.231450
vt 0.945660 0.232851
vt 0.944775 0.230653
vt 0.944685 0.229889
vt 0.965310 0.228621
vt 0.967489 0.229483
vt 0.965167 0.229483
vt 0.963969 0.228621
vt 0.965964 0.234029
vt 0.963378 0.237324
vt 0.961056 0.237324
vt 0.963283 0.234029
vt 0.959779 0.239481
vt 0.958439 0.239012
vt 0.945094 0.234376
vt 0.944781 0.235634
vt 0.940908 0.228541
vt 0.940980 0.227555
vt 0.943849 0.235599
vt 0.943853 0.236529
vt 0.940916 0.227555
vt 0.940686 0.232155
vt 0.771980 0.429826
vt 0.771922 0.430372
vt 0.769621 0.427452
vt 0.769877 0.427624
vt 0.940101 0.231932
vt 0.939845 0.231865
vt 0.940553 0.229397
vt 0.940375 0.230779
vt 0.938592 0.230823
vt 0.938173 0.229418
vt 0.939966 0.231577
vt 0.939888 0.231997
vt 0.939322 0.231403
vt 0.940903 0.227806
vt 0.940730 0.228023
vt 0.939300 0.227332
vt 0.939187 0.231413
vt 0.938592 0.230842
vt 0.938173 0.229409
vt 0.940641 0.228391
vt 0.938200 0.227476
vt 0.939300 0.226800
vt 0.766122 0.302703
vt 0.766107 0.303307
vt 0.766109 0.303264
vt 0.766119 0.302602
vt 0.938200 0.226944
vt 0.938181 0.228855
vt 0.938178 0.228897
vt 0.938194 0.228294
vt 0.938191 0.228192
vt 0.942443 0.235047
vt 0.942502 0.234501
vt 0.940399 0.232300
vt 0.940143 0.232128
vt 0.952181 0.205231
vt 0.952288 0.206440
vt 0.952181 0.205486
vt 0.950309 0.206927
vt 0.948377 0.206797
vt 0.949092 0.206302
vt 0.950696 0.205985
vt 0.950309 0.206956
vt 0.945917 0.202205
vt 0.946938 0.201715
vt 0.949080 0.205961
vt 0.948540 0.206383
vt 0.944965 0.201420
vt 0.945372 0.201224
vt 0.947018 0.201486
vt 0.946233 0.201888
vt 0.945405 0.201133
vt 0.945092 0.201293
vt 0.956360 0.205450
vt 0.956467 0.206563
vt 0.956467 0.205667
vt 0.956360 0.204713
vt 0.954488 0.206154
vt 0.954457 0.205246
vt 0.955782 0.204752
vt 0.954875 0.205212
vt 0.954488 0.207037
vt 0.954875 0.206144
vt 0.957805 0.201271
vt 0.958846 0.200781
vt 0.955677 0.204411
vt 0.954559 0.204833
vt 0.958217 0.200652
vt 0.958632 0.200457
vt 0.958762 0.200552
vt 0.957984 0.200954
vt 0.958598 0.200365
vt 0.958288 0.200526
vt 0.962403 0.205077
vt 0.962480 0.206287
vt 0.965292 0.205340
vt 0.965253 0.204684
vt 0.968658 0.201555
vt 0.968664 0.202148
vt 0.971439 0.201153
vt 0.971435 0.200870
vt 0.964530 0.204848
vt 0.964679 0.205328
vt 0.961278 0.206283
vt 0.961555 0.205312
vt 0.971390 0.201092
vt 0.971401 0.200812
vt 0.968563 0.202019
vt 0.968834 0.201136
vt 0.282559 0.288506
vt 0.274204 0.287692
vt 0.274232 0.288839
vt 0.271275 0.290117
vt 0.268222 0.288504
vt 0.268286 0.287115
vt 0.261146 0.286419
vt 0.260464 0.292362
vt 0.281985 0.295331
vt 0.959125 0.274287
vt 0.955220 0.274265
vt 0.956369 0.275094
vt 0.959126 0.275923
vt 0.282812 0.279890
vt 0.271458 0.279177
vt 0.268865 0.284951
vt 0.272306 0.283698
vt 0.274777 0.285888
vt 0.272910 0.302104
vt 0.276866 0.302122
vt 0.277817 0.300601
vt 0.281829 0.299079
vt 0.259934 0.295552
vt 0.262180 0.297348
vt 0.263690 0.297863
vt 0.266069 0.299725
vt 0.266846 0.301077
vt 0.269585 0.303267
vt 0.281706 0.306440
vt 0.277308 0.304272
vt 0.309173 0.289335
vt 0.303802 0.289335
vt 0.302601 0.291178
vt 0.300426 0.292767
vt 0.297484 0.297586
vt 0.302223 0.297586
vt 0.303496 0.295834
vt 0.304943 0.295222
vt 0.294626 0.303756
vt 0.291300 0.302593
vt 0.286503 0.304517
vt 0.312567 0.279952
vt 0.307063 0.279927
vt 0.303871 0.286539
vt 0.304300 0.288118
vt 0.976517 0.270602
vt 0.975693 0.270602
vt 0.973841 0.271622
vt 0.973069 0.273071
vt 0.975934 0.263941
vt 0.973457 0.263838
vt 0.972599 0.265088
vt 0.974242 0.266712
vt 0.285045 0.303278
vt 0.281704 0.304176
vt 0.299453 0.289208
vt 0.299730 0.287115
vt 0.285735 0.300729
vt 0.286689 0.302380
vt 0.278289 0.303149
vt 0.959228 0.271808
vt 0.963151 0.274473
vt 0.962381 0.273140
vt 0.961824 0.275198
vt 0.955988 0.273036
vt 0.977888 0.268694
vt 0.976721 0.269188
vt 0.298973 0.300644
vt 0.299929 0.298849
vt 0.943364 0.270410
vt 0.947130 0.273421
vt 0.946503 0.272330
vt 0.944583 0.270826
vt 0.298391 0.290756
vt 0.977023 0.261684
vt 0.976967 0.263941
vt 0.977369 0.262958
vt 0.975998 0.265429
vt 0.973680 0.262149
vt 0.948293 0.262149
vt 0.953071 0.262614
vt 0.953534 0.261158
vt 0.951539 0.259390
vt 0.948761 0.260401
vt 0.948241 0.263270
vt 0.950707 0.264572
vt 0.953094 0.263541
s 1
usemtl Material
f 1/1/1 2/2/2 4/3/4
f 1/1/1 4/3/4 3/4/3
f 6/5/6 8/6/8 16/7/16
f 6/5/6 16/7/16 14/8/14
f 12/9/12 11/10/11 6/5/6
f 12/9/12 6/5/6 5/11/5
f 11/10/11 12/9/12 2/2/2
f 11/10/11 2/2/2 1/1/1
f 15/12/15 13/13/13 14/8/14
f 15/12/15 14/8/14 16/7/16
f 10/14/10 4/3/4 2/2/2
f 10/14/10 2/2/2 12/9/12
f 9/15/9 10/14/10 7/16/7
f 9/15/9 7/16/7 8/6/8
f 3/4/3 9/15/9 11/10/11
f 3/4/3 11/10/11 1/1/1
f 11/10/11 9/15/9 8/6/8
f 11/10/11 8/6/8 6/5/6
f 3/4/3 4/3/4 10/14/10
f 3/4/3 10/14/10 9/15/9
f 10/14/10 12/9/12 5/11/5
f 10/14/10 5/11/5 7/16/7
f 5/11/5 6/5/6 14/8/14
f 5/11/5 14/8/14 13/13/13
f 7/16/7 5/11/5 13/13/13
f 7/16/7 13/13/13 15/12/15
f 8/6/8 7/16/7 15/12/15
f 8/6/8 15/12/15 16/7/16
f 41/17/41 40/18/40 44/19/44
f 41/17/41 44/19/44 45/20/45
f 39/21/39 27/22/27 17/23/17
f 28/24/28 43/25/43 21/26/21
f 42/27/42 41/17/41 45/20/45
f 42/27/42 45/20/45 20/28/20
f 40/18/40 39/21/39 17/23/17
f 40/18/40 17/23/17 44/19/44
f 43/25/43 42/27/42 20/28/20
f 43/25/43 20/28/20 21/26/21
f 28/24/28 21/26/21 26/29/26
f 20/28/20 45/20/45 47/30/47
f 20/28/20 47/30/47 25/31/25
f 44/19/44 17/23/17 22/32/22
f 44/19/44 22/32/22 46/33/46
f 21/26/21 20/28/20 25/31/25
f 21/26/21 25/31/25 26/29/26
f 24/34/24 19/35/19 49/36/49
f 24/34/24 49/36/49 51/37/51
f 17/23/17 27/22/27 22/32/22
f 33/38/33 32/39/32 37/40/37
f 33/38/33 37/40/37 38/41/38
f 31/42/31 30/43/30 35/44/35
f 31/42/31 35/44/35 36/45/36
f 29/46/29 27/22/27 34/47/34
f 28/24/28 33/38/33 38/41/38
f 32/39/32 31/42/31 36/45/36
f 32/39/32 36/45/36 37/40/37
f 30/43/30 29/46/29 34/47/34
f 30/43/30 34/47/34 35/44/35
f 38/41/38 37/40/37 42/27/42
f 38/41/38 42/27/42 43/25/43
f 36/45/36 35/44/35 40/18/40
f 36/45/36 40/18/40 41/17/41
f 34/47/34 27/22/27 39/21/39
f 28/24/28 38/41/38 43/25/43
f 37/40/37 36/45/36 41/17/41
f 37/40/37 41/17/41 42/27/42
f 35/44/35 34/47/34 39/21/39
f 35/44/35 39/21/39 40/18/40
f 18/48/18 19/35/19 45/20/45
f 18/48/18 45/20/45 44/19/44
f 19/35/19 24/34/24 47/30/47
f 19/35/19 47/30/47 45/20/45
f 23/49/23 18/48/18 44/19/44
f 23/49/23 44/19/44 46/33/46
f 51/37/51 49/36/49 53/50/53
f 51/37/51 53/50/53 55/51/55
f 19/35/19 18/48/18 107/52/90
f 19/35/19 107/52/90 49/36/49
f 18/48/18 23/49/23 50/53/50
f 18/48/18 50/53/50 107/52/90
f 55/51/55 53/50/53 57/50/57
f 55/51/55 57/50/57 59/54/59
f 49/36/49 107/52/90 109/55/92
f 49/36/49 109/55/92 53/50/53
f 48/56/48 108/57/91 110/58/93
f 48/56/48 110/58/93 52/59/52
f 53/50/53 109/55/92 56/55/56
f 53/50/53 56/55/56 57/50/57
f 109/55/92 54/60/54 58/61/58
f 109/55/92 58/61/58 56/55/56
f 59/54/59 57/50/57 56/55/56
f 59/54/59 56/55/56 58/61/58
f 68/62/68 61/63/61 64/64/64
f 68/62/68 64/64/64 103/65/86
f 60/66/60 70/67/70 63/68/63
f 69/69/69 62/70/62 65/71/65
f 61/63/61 60/66/60 63/68/63
f 61/63/61 63/68/63 64/64/64
f 68/62/68 61/63/61 60/66/60
f 68/62/68 60/66/60 70/67/70
f 68/62/68 70/67/70 63/68/63
f 68/62/68 63/68/63 73/72/73
f 68/62/68 73/72/73 72/73/72
f 68/62/68 72/73/72 66/74/66
f 74/75/74 68/62/68 103/65/86
f 74/75/74 103/65/86 104/76/87
f 69/69/69 65/71/65 71/77/71
f 75/78/75 67/79/67 105/80/88
f 75/78/75 105/80/88 106/81/89
f 64/64/64 63/68/63 73/72/73
f 64/64/64 73/72/73 72/73/72
f 103/65/86 64/64/64 72/73/72
f 103/65/86 72/73/72 66/74/66
f 65/71/65 104/76/87 76/82/76
f 65/71/65 76/82/76 71/77/71
f 62/70/62 74/75/74 104/76/87
f 62/70/62 104/76/87 65/71/65
f 70/67/70 73/72/73 63/68/63
f 97/17/41 96/18/40 99/19/44
f 97/17/41 99/19/44 100/20/45
f 95/21/39 86/22/27 78/23/17
f 98/27/85 97/17/41 100/20/45
f 98/27/85 100/20/45 81/28/79
f 96/18/40 95/21/39 78/23/17
f 96/18/40 78/23/17 99/19/44
f 81/28/79 100/20/45 102/30/47
f 81/28/79 102/30/47 85/31/82
f 99/19/44 78/23/17 82/32/22
f 99/19/44 82/32/22 101/33/46
f 78/23/17 86/22/27 82/32/22
f 89/42/31 88/43/30 92/44/35
f 89/42/31 92/44/35 93/45/36
f 87/46/29 86/22/27 91/47/34
f 90/39/83 89/42/31 93/45/36
f 90/39/83 93/45/36 94/40/84
f 88/43/30 87/46/29 91/47/34
f 88/43/30 91/47/34 92/44/35
f 93/45/36 92/44/35 96/18/40
f 93/45/36 96/18/40 97/17/41
f 91/47/34 86/22/27 95/21/39
f 94/40/84 93/45/36 97/17/41
f 94/40/84 97/17/41 98/27/85
f 92/44/35 91/47/34 95/21/39
f 92/44/35 95/21/39 96/18/40
f 79/48/77 80/35/78 100/20/45
f 79/48/77 100/20/45 99/19/44
f 80/35/78 84/34/81 102/30/47
f 80/35/78 102/30/47 100/20/45
f 83/49/80 79/48/77 99/19/44
f 83/49/80 99/19/44 101/33/46
f 105/83/88 67/84/67 103/65/86
f 105/83/88 103/65/86 66/74/66
f 67/84/67 75/85/75 104/76/87
f 67/84/67 104/76/87 103/65/86
f 106/86/89 105/83/88 66/74/66
f 106/86/89 66/74/66 76/82/76
f 75/85/75 106/86/89 76/82/76
f 75/85/75 76/82/76 104/76/87
f 108/87/91 48/88/48 107/52/90
f 108/87/91 107/52/90 50/53/50
f 52/89/52 110/90/93 54/60/54
f 52/89/52 54/60/54 109/55/92
f 48/88/48 52/89/52 109/55/92
f 48/88/48 109/55/92 107/52/90
f 110/90/93 108/87/91 50/53/50
f 110/90/93 50/53/50 54/60/54
f 111/1/94 113/4/96 114/3/97
f 111/1/94 114/3/97 112/2/95
f 116/5/99 124/8/107 126/7/109
f 116/5/99 126/7/109 118/6/101
f 122/9/105 115/11/98 116/5/99
f 122/9/105 116/5/99 121/10/104
f 121/10/104 111/1/94 112/2/95
f 121/10/104 112/2/95 122/9/105
f 125/12/108 126/7/109 124/8/107
f 125/12/108 124/8/107 123/13/106
f 120/14/103 122/9/105 112/2/95
f 120/14/103 112/2/95 114/3/97
f 119/15/102 118/6/101 117/16/100
f 119/15/102 117/16/100 120/14/103
f 113/4/96 111/1/94 121/10/104
f 113/4/96 121/10/104 119/15/102
f 121/10/104 116/5/99 118/6/101
f 121/10/104 118/6/101 119/15/102
f 113/4/96 119/15/102 120/14/103
f 113/4/96 120/14/103 114/3/97
f 120/14/103 117/16/100 115/11/98
f 120/14/103 115/11/98 122/9/105
f 115/11/98 123/13/106 124/8/107
f 115/11/98 124/8/107 116/5/99
f 117/16/100 125/12/108 123/13/106
f 117/16/100 123/13/106 115/11/98
f 118/6/101 126/7/109 125/12/108
f 118/6/101 125/12/108 117/16/100
f 139/17/122 143/20/126 142/19/125
f 139/17/122 142/19/125 138/18/121
f 137/21/120 127/23/110 27/22/27
f 28/24/28 131/26/114 141/25/124
f 140/27/123 130/28/113 143/20/126
f 140/27/123 143/20/126 139/17/122
f 138/18/121 142/19/125 127/23/110
f 138/18/121 127/23/110 137/21/120
f 141/25/124 131/26/114 130/28/113
f 141/25/124 130/28/113 140/27/123
f 28/24/28 26/29/26 131/26/114
f 130/28/113 25/31/25 47/30/47
f 130/28/113 47/30/47 143/20/126
f 142/19/125 46/33/46 22/32/22
f 142/19/125 22/32/22 127/23/110
f 131/26/114 26/29/26 25/31/25
f 131/26/114 25/31/25 130/28/113
f 24/34/24 51/37/51 145/36/128
f 24/34/24 145/36/128 129/35/112
f 127/23/110 22/32/22 27/22/27
f 33/38/33 136/41/119 135/40/118
f 33/38/33 135/40/118 32/39/32
f 31/42/31 134/45/117 133/44/116
f 31/42/31 133/44/116 30/43/30
f 29/46/29 132/47/115 27/22/27
f 28/24/28 136/41/119 33/38/33
f 32/39/32 135/40/118 134/45/117
f 32/39/32 134/45/117 31/42/31
f 30/43/30 133/44/116 132/47/115
f 30/43/30 132/47/115 29/46/29
f 136/41/119 141/25/124 140/27/123
f 136/41/119 140/27/123 135/40/118
f 134/45/117 139/17/122 138/18/121
f 134/45/117 138/18/121 133/44/116
f 132/47/115 137/21/120 27/22/27
f 28/24/28 141/25/124 136/41/119
f 135/40/118 140/27/123 139/17/122
f 135/40/118 139/17/122 134/45/117
f 133/44/116 138/18/121 137/21/120
f 133/44/116 137/21/120 132/47/115
f 128/48/111 142/19/125 143/20/126
f 128/48/111 143/20/126 129/35/112
f 129/35/112 143/20/126 47/30/47
f 129/35/112 47/30/47 24/34/24
f 23/49/23 46/33/46 142/19/125
f 23/49/23 142/19/125 128/48/111
f 51/37/51 55/51/55 147/50/130
f 51/37/51 147/50/130 145/36/128
f 129/35/112 145/36/128 178/52/152
f 129/35/112 178/52/152 128/48/111
f 128/48/111 178/52/152 50/53/50
f 128/48/111 50/53/50 23/49/23
f 55/51/55 59/54/59 149/50/132
f 55/51/55 149/50/132 147/50/130
f 145/36/128 147/50/130 180/55/154
f 145/36/128 180/55/154 178/52/152
f 144/56/127 146/59/129 181/58/155
f 144/56/127 181/58/155 179/57/153
f 147/50/130 149/50/132 148/55/131
f 147/50/130 148/55/131 180/55/154
f 180/55/154 148/55/131 58/61/58
f 180/55/154 58/61/58 54/60/54
f 59/54/59 58/61/58 148/55/131
f 59/54/59 148/55/131 149/50/132
f 157/62/140 174/65/148 154/64/137
f 157/62/140 154/64/137 151/63/134
f 150/66/133 153/68/136 70/67/70
f 69/69/69 155/71/138 152/70/135
f 151/63/134 154/64/137 153/68/136
f 151/63/134 153/68/136 150/66/133
f 157/62/140 66/74/66 72/73/72
f 157/62/140 72/73/72 73/72/73
f 157/62/140 73/72/73 153/68/136
f 157/62/140 153/68/136 70/67/70
f 157/62/140 70/67/70 150/66/133
f 157/62/140 150/66/133 151/63/134
f 158/75/141 175/76/149 174/65/148
f 158/75/141 174/65/148 157/62/140
f 69/69/69 71/77/71 155/71/138
f 159/78/142 177/81/151 176/80/150
f 159/78/142 176/80/150 156/79/139
f 154/64/137 72/73/72 73/72/73
f 154/64/137 73/72/73 153/68/136
f 174/65/148 66/74/66 72/73/72
f 174/65/148 72/73/72 154/64/137
f 155/71/138 71/77/71 76/82/76
f 155/71/138 76/82/76 175/76/149
f 152/70/135 155/71/138 175/76/149
f 152/70/135 175/76/149 158/75/141
f 70/67/70 153/68/136 73/72/73
f 170/17/122 173/20/126 172/19/125
f 170/17/122 172/19/125 169/18/121
f 168/21/120 160/23/110 86/22/27
f 171/27/147 163/28/145 173/20/126
f 171/27/147 173/20/126 170/17/122
f 169/18/121 172/19/125 160/23/110
f 169/18/121 160/23/110 168/21/120
f 163/28/145 85/31/82 102/30/47
f 163/28/145 102/30/47 173/20/126
f 172/19/125 101/33/46 82/32/22
f 172/19/125 82/32/22 160/23/110
f 160/23/110 82/32/22 86/22/27
f 89/42/31 166/45/117 165/44/116
f 89/42/31 165/44/116 88/43/30
f 87/46/29 164/47/115 86/22/27
f 90/39/83 167/40/146 166/45/117
f 90/39/83 166/45/117 89/42/31
f 88/43/30 165/44/116 164/47/115
f 88/43/30 164/47/115 87/46/29
f 166/45/117 170/17/122 169/18/121
f 166/45/117 169/18/121 165/44/116
f 164/47/115 168/21/120 86/22/27
f 167/40/146 171/27/147 170/17/122
f 167/40/146 170/17/122 166/45/117
f 165/44/116 169/18/121 168/21/120
f 165/44/116 168/21/120 164/47/115
f 161/48/143 172/19/125 173/20/126
f 161/48/143 173/20/126 162/35/144
f 162/35/144 173/20/126 102/30/47
f 162/35/144 102/30/47 84/34/81
f 83/49/80 101/33/46 172/19/125
f 83/49/80 172/19/125 161/48/143
f 176/83/150 66/74/66 174/65/148
f 176/83/150 174/65/148 156/84/139
f 156/84/139 174/65/148 175/76/149
f 156/84/139 175/76/149 159/85/142
f 177/86/151 76/82/76 66/74/66
f 177/86/151 66/74/66 176/83/150
f 159/85/142 175/76/149 76/82/76
f 159/85/142 76/82/76 177/86/151
f 179/87/153 50/53/50 178/52/152
f 179/87/153 178/52/152 144/88/127
f 146/89/129 180/55/154 54/60/54
f 146/89/129 54/60/54 181/90/155
f 144/88/127 178/52/152 180/55/154
f 144/88/127 180/55/154 146/89/129
f 181/90/155 54/60/54 50/53/50
f 181/90/155 50/53/50 179/87/153
f 182/91/156 183/92/157 185/92/159
f 182/91/156 185/92/159 184/93/158
f 185/92/159 189/94/163 193/95/167
f 185/92/159 193/95/167 191/96/165
f 188/97/162 189/94/163 187/98/161
f 188/97/162 187/98/161 186/97/160
f 186/97/160 187/98/161 183/92/157
f 186/97/160 183/92/157 182/91/156
f 184/93/158 188/97/162 186/97/160
f 184/93/158 186/97/160 182/91/156
f 189/94/163 185/92/159 183/92/157
f 189/94/163 183/92/157 187/98/161
f 191/96/165 193/95/167 197/99/171
f 191/96/165 197/99/171 194/100/168
f 184/93/158 185/92/159 191/96/165
f 184/93/158 191/96/165 190/101/164
f 189/94/163 188/97/162 192/102/166
f 189/94/163 192/102/166 193/95/167
f 188/97/162 184/93/158 190/101/164
f 188/97/162 190/101/164 192/102/166
f 194/100/168 197/99/171 201/103/175
f 194/100/168 201/103/175 198/104/172
f 190/101/164 191/96/165 194/100/168
f 190/101/164 194/100/168 195/105/169
f 193/95/167 192/102/166 196/106/170
f 193/95/167 196/106/170 197/99/171
f 192/102/166 190/101/164 195/105/169
f 192/102/166 195/105/169 196/106/170
f 199/107/173 198/104/172 201/103/175
f 199/107/173 201/103/175 200/108/174
f 195/105/169 194/100/168 198/104/172
f 195/105/169 198/104/172 199/107/173
f 197/99/171 196/106/170 200/108/174
f 197/99/171 200/108/174 201/103/175
f 196/106/170 195/105/169 199/107/173
f 196/106/170 199/107/173 200/108/174
f 202/91/176 204/93/178 205/92/179
f 202/91/176 205/92/179 203/92/177
f 205/92/179 211/96/185 213/95/187
f 205/92/179 213/95/187 209/94/183
f 208/97/182 206/97/180 207/98/181
f 208/97/182 207/98/181 209/94/183
f 206/97/180 202/91/176 203/92/177
f 206/97/180 203/92/177 207/98/181
f 204/93/178 202/91/176 206/97/180
f 204/93/178 206/97/180 208/97/182
f 209/94/183 207/98/181 203/92/177
f 209/94/183 203/92/177 205/92/179
f 211/96/185 214/100/188 217/99/191
f 211/96/185 217/99/191 213/95/187
f 204/93/178 210/101/184 211/96/185
f 204/93/178 211/96/185 205/92/179
f 209/94/183 213/95/187 212/102/186
f 209/94/183 212/102/186 208/97/182
f 208/97/182 212/102/186 210/101/184
f 208/97/182 210/101/184 204/93/178
f 214/100/188 218/104/192 221/103/195
f 214/100/188 221/103/195 217/99/191
f 210/101/184 215/105/189 214/100/188
f 210/101/184 214/100/188 211/96/185
f 213/95/187 217/99/191 216/106/190
f 213/95/187 216/106/190 212/102/186
f 212/102/186 216/106/190 215/105/189
f 212/102/186 215/105/189 210/101/184
f 219/107/193 220/108/194 221/103/195
f 219/107/193 221/103/195 218/104/192
f 215/105/189 219/107/193 218/104/192
f 215/105/189 218/104/192 214/100/188
f 217/99/191 221/103/195 220/108/194
f 217/99/191 220/108/194 216/106/190
f 216/106/190 220/108/194 219/107/193
f 216/106/190 219/107/193 215/105/189
f 222/109/196 223/110/197 225/111/199
f 222/109/196 225/111/199 224/112/198
f 225/111/199 229/113/203 233/114/207
f 225/111/199 233/114/207 231/115/205
f 228/116/202 229/113/203 227/117/201
f 228/116/202 227/117/201 226/118/200
f 226/118/200 227/117/201 223/110/197
f 226/118/200 223/110/197 222/109/196
f 224/112/198 228/116/202 226/118/200
f 224/112/198 226/118/200 222/109/196
f 229/113/203 225/111/199 223/110/197
f 229/113/203 223/110/197 227/117/201
f 231/115/205 233/114/207 237/119/211
f 231/115/205 237/119/211 234/120/208
f 224/112/198 225/111/199 231/115/205
f 224/112/198 231/115/205 230/121/204
f 229/113/203 228/116/202 232/122/206
f 229/113/203 232/122/206 233/114/207
f 228/116/202 224/112/198 230/121/204
f 228/116/202 230/121/204 232/122/206
f 234/120/208 237/119/211 241/123/215
f 234/120/208 241/123/215 238/124/212
f 230/121/204 231/115/205 234/120/208
f 230/121/204 234/120/208 235/125/209
f 233/114/207 232/122/206 236/126/210
f 233/114/207 236/126/210 237/119/211
f 232/122/206 230/121/204 235/125/209
f 232/122/206 235/125/209 236/126/210
f 239/127/213 238/124/212 241/123/215
f 239/127/213 241/123/215 240/128/214
f 235/125/209 234/120/208 238/124/212
f 235/125/209 238/124/212 239/127/213
f 237/119/211 236/126/210 240/128/214
f 237/119/211 240/128/214 241/123/215
f 236/126/210 235/125/209 239/127/213
f 236/126/210 239/127/213 240/128/214
f 242/109/216 244/112/218 245/111/219
f 242/109/216 245/111/219 243/110/217
f 245/111/219 251/115/225 253/114/227
f 245/111/219 253/114/227 249/113/223
f 248/116/222 246/118/220 247/117/221
f 248/116/222 247/117/221 249/113/223
f 246/118/220 242/109/216 243/110/217
f 246/118/220 243/110/217 247/117/221
f 244/112/218 242/109/216 246/118/220
f 244/112/218 246/118/220 248/116/222
f 249/113/223 247/117/221 243/110/217
f 249/113/223 243/110/217 245/111/219
f 251/115/225 254/120/228 257/119/231
f 251/115/225 257/119/231 253/114/227
f 244/112/218 250/121/224 251/115/225
f 244/112/218 251/115/225 245/111/219
f 249/113/223 253/114/227 252/122/226
f 249/113/223 252/122/226 248/116/222
f 248/116/222 252/122/226 250/121/224
f 248/116/222 250/121/224 244/112/218
f 254/120/228 258/124/232 261/123/235
f 254/120/228 261/123/235 257/119/231
f 250/121/224 255/125/229 254/120/228
f 250/121/224 254/120/228 251/115/225
f 253/114/227 257/119/231 256/126/230
f 253/114/227 256/126/230 252/122/226
f 252/122/226 256/126/230 255/125/229
f 252/122/226 255/125/229 250/121/224
f 259/127/233 260/128/234 261/123/235
f 259/127/233 261/123/235 258/124/232
f 255/125/229 259/127/233 258/124/232
f 255/125/229 258/124/232 254/120/228
f 257/119/231 261/123/235 260/128/234
f 257/119/231 260/128/234 256/126/230
f 256/126/230 260/128/234 259/127/233
f 256/126/230 259/127/233 255/125/229
f 262/129/236 263/130/237 265/131/239
f 262/129/236 265/131/239 264/132/238
f 272/133/246 273/134/247 277/135/251
f 272/133/246 277/135/251 274/136/248
f 268/137/242 269/138/243 267/139/241
f 268/137/242 267/139/241 266/140/240
f 266/140/240 267/139/241 263/130/237
f 266/140/240 263/130/237 262/129/236
f 264/132/238 268/137/242 266/140/240
f 264/132/238 266/140/240 262/129/236
f 269/138/243 265/131/239 263/130/237
f 269/138/243 263/130/237 267/139/241
f 274/136/248 277/135/251 276/141/250
f 274/136/248 276/141/250 275/142/249
f 265/131/239 269/138/243 270/143/244
f 265/131/239 270/143/244 273/134/247
f 269/138/243 268/137/242 271/144/245
f 269/138/243 271/144/245 270/143/244
f 264/132/238 265/131/239 273/134/247
f 264/132/238 273/134/247 272/133/246
f 270/143/244 271/144/245 275/142/249
f 270/143/244 275/142/249 276/141/250
f 273/134/247 270/143/244 276/141/250
f 273/134/247 276/141/250 277/135/251
f 268/137/242 264/132/238 272/133/246
f 268/137/242 272/133/246 271/144/245
f 271/144/245 272/133/246 274/136/248
f 271/144/245 274/136/248 275/142/249
f 278/129/252 280/132/254 281/131/255
f 278/129/252 281/131/255 279/130/253
f 288/133/262 290/136/264 293/135/267
f 288/133/262 293/135/267 289/134/263
f 284/137/258 282/140/256 283/139/257
f 284/137/258 283/139/257 285/138/259
f 282/140/256 278/129/252 279/130/253
f 282/140/256 279/130/253 283/139/257
f 280/132/254 278/129/252 282/140/256
f 280/132/254 282/140/256 284/137/258
f 285/138/259 283/139/257 279/130/253
f 285/138/259 279/130/253 281/131/255
f 290/136/264 291/142/265 292/141/266
f 290/136/264 292/141/266 293/135/267
f 281/131/255 289/134/263 286/143/260
f 281/131/255 286/143/260 285/138/259
f 285/138/259 286/143/260 287/144/261
f 285/138/259 287/144/261 284/137/258
f 280/132/254 288/133/262 289/134/263
f 280/132/254 289/134/263 281/131/255
f 286/143/260 292/141/266 291/142/265
f 286/143/260 291/142/265 287/144/261
f 289/134/263 293/135/267 292/141/266
f 289/134/263 292/141/266 286/143/260
f 284/137/258 287/144/261 288/133/262
f 284/137/258 288/133/262 280/132/254
f 287/144/261 291/142/265 290/136/264
f 287/144/261 290/136/264 288/133/262
f 313/145/287 341/146/314 346/147/316
f 313/145/287 346/147/316 345/148/316
f 313/145/287 345/148/316 347/149/316
f 313/145/287 347/149/316 340/150/313
f 313/145/287 340/150/313 316/151/290
f 313/145/287 316/151/290 315/152/289
f 313/145/287 315/152/289 312/153/286
f 311/154/285 319/155/293 326/156/300
f 311/154/285 326/156/300 317/157/291
f 314/158/288 306/159/280 316/151/290
f 314/158/288 316/151/290 340/150/313
f 314/158/288 340/150/313 344/160/315
f 314/158/288 344/160/315 343/161/315
f 314/158/288 343/161/315 342/162/315
f 314/158/288 342/162/315 341/146/314
f 314/158/288 341/146/314 313/145/287
f 312/153/286 315/152/289 305/163/279
f 312/153/286 305/163/279 319/164/293
f 312/153/286 319/164/293 322/165/296
f 312/153/286 322/165/296 320/166/294
f 315/152/289 300/167/274 303/168/277
f 315/152/289 303/168/277 331/169/304
f 315/152/289 331/169/304 330/170/304
f 315/152/289 330/170/304 304/171/278
f 315/152/289 304/171/278 294/172/268
f 315/152/289 294/172/268 305/163/279
f 305/163/279 294/172/268 295/173/269
f 305/163/279 295/173/269 325/174/299
f 298/175/272 334/176/307 338/177/311
f 298/175/272 338/177/311 335/178/308
f 298/175/272 335/178/308 308/179/282
f 298/175/272 308/179/282 327/180/301
f 298/175/272 327/180/301 328/181/302
f 298/175/272 328/181/302 301/182/275
f 296/183/270 307/184/281 323/185/297
f 296/183/270 323/185/297 295/173/269
f 299/186/273 310/187/284 333/188/306
f 299/186/273 333/188/306 337/189/310
f 299/186/273 337/189/310 334/176/307
f 299/186/273 334/176/307 298/175/272
f 297/190/271 327/191/301 329/192/303
f 297/190/271 329/192/303 302/193/276
f 309/194/283 332/195/305 336/196/309
f 309/194/283 336/196/309 335/197/308
f 323/185/297 324/198/298 317/199/291
f 323/185/297 317/199/291 295/173/269
f 310/187/284 314/158/288 313/145/287
f 310/187/284 313/145/287 332/200/305
f 310/187/284 332/200/305 339/201/312
f 310/187/284 339/201/312 333/188/306
f 308/179/282 312/153/286 320/166/294
f 308/179/282 320/166/294 321/202/295
f 308/179/282 321/202/295 318/203/292
f 308/179/282 318/203/292 307/184/281
f 307/184/281 318/203/292 324/198/298
f 307/184/281 324/198/298 323/185/297
f 326/204/300 325/174/299 295/173/269
f 326/204/300 295/173/269 317/199/291
f 320/205/294 311/154/285 318/206/292
f 320/205/294 318/206/292 321/207/295
f 318/206/292 311/154/285 317/157/291
f 318/206/292 317/157/291 324/208/298
f 319/155/293 311/154/285 320/205/294
f 319/155/293 320/205/294 322/209/296
f 319/164/293 305/163/279 325/174/299
f 319/164/293 325/174/299 326/204/300
f 327/191/301 297/190/271 301/210/275
f 327/191/301 301/210/275 328/211/302
f 327/180/301 308/179/282 307/184/281
f 327/180/301 307/184/281 296/183/270
f 327/180/301 296/183/270 302/212/276
f 327/180/301 302/212/276 329/213/303
f 303/214/277 304/215/278 330/216/304
f 303/214/277 330/216/304 331/217/304
f 332/200/305 313/145/287 312/153/286
f 332/200/305 312/153/286 308/179/282
f 332/200/305 308/179/282 335/178/308
f 332/200/305 335/178/308 336/218/309
f 333/219/306 309/194/283 334/220/307
f 333/219/306 334/220/307 337/221/310
f 334/220/307 309/194/283 335/197/308
f 334/220/307 335/197/308 338/222/311
f 332/195/305 309/194/283 333/219/306
f 332/195/305 333/219/306 339/223/312
f 340/224/313 341/225/314 342/226/315
f 340/224/313 342/226/315 343/227/315
f 340/224/313 343/227/315 344/228/315
f 341/225/314 340/224/313 347/229/316
f 341/225/314 347/229/316 345/230/316
f 341/225/314 345/230/316 346/231/316
f 362/145/331 361/153/330 364/152/333
f 362/145/331 364/152/333 365/151/334
f 362/145/331 365/151/334 394/150/362
f 362/145/331 394/150/362 401/149/365
f 362/145/331 401/149/365 399/148/365
f 362/145/331 399/148/365 400/147/365
f 362/145/331 400/147/365 395/146/363
f 360/154/329 367/157/336 376/156/345
f 360/154/329 376/156/345 369/155/338
f 363/158/332 362/145/331 395/146/363
f 363/158/332 395/146/363 396/162/364
f 363/158/332 396/162/364 397/161/364
f 363/158/332 397/161/364 398/160/364
f 363/158/332 398/160/364 394/150/362
f 363/158/332 394/150/362 365/151/334
f 363/158/332 365/151/334 349/159/318
f 361/153/330 370/166/339 372/165/341
f 361/153/330 372/165/341 369/164/338
f 361/153/330 369/164/338 348/163/317
f 361/153/330 348/163/317 364/152/333
f 364/152/333 348/163/317 350/172/319
f 364/152/333 350/172/319 383/171/352
f 364/152/333 383/171/352 384/170/353
f 364/152/333 384/170/353 385/169/353
f 364/152/333 385/169/353 382/168/351
f 364/152/333 382/168/351 366/167/335
f 348/163/317 375/174/344 351/173/320
f 348/163/317 351/173/320 350/172/319
f 354/175/323 378/182/347 380/181/349
f 354/175/323 380/181/349 377/180/346
f 354/175/323 377/180/346 357/179/326
f 354/175/323 357/179/326 389/178/357
f 354/175/323 389/178/357 392/177/360
f 354/175/323 392/177/360 388/176/356
f 352/183/321 351/173/320 373/185/342
f 352/183/321 373/185/342 356/184/325
f 355/186/324 354/175/323 388/176/356
f 355/186/324 388/176/356 391/189/359
f 355/186/324 391/189/359 387/188/355
f 355/186/324 387/188/355 359/187/328
f 353/190/322 379/193/348 381/192/350
f 353/190/322 381/192/350 377/191/346
f 358/194/327 389/197/357 390/196/358
f 358/194/327 390/196/358 386/195/354
f 373/185/342 351/173/320 367/199/336
f 373/185/342 367/199/336 374/198/343
f 359/187/328 387/188/355 393/201/361
f 359/187/328 393/201/361 386/200/354
f 359/187/328 386/200/354 362/145/331
f 359/187/328 362/145/331 363/158/332
f 357/179/326 356/184/325 368/203/337
f 357/179/326 368/203/337 371/202/340
f 357/179/326 371/202/340 370/166/339
f 357/179/326 370/166/339 361/153/330
f 356/184/325 373/185/342 374/198/343
f 356/184/325 374/198/343 368/203/337
f 376/204/345 367/199/336 351/173/320
f 376/204/345 351/173/320 375/174/344
f 370/205/339 371/207/340 368/206/337
f 370/205/339 368/206/337 360/154/329
f 368/206/337 374/208/343 367/157/336
f 368/206/337 367/157/336 360/154/329
f 369/155/338 372/209/341 370/205/339
f 369/155/338 370/205/339 360/154/329
f 369/164/338 376/204/345 375/174/344
f 369/164/338 375/174/344 348/163/317
f 377/191/346 380/211/349 378/210/347
f 377/191/346 378/210/347 353/190/322
f 377/180/346 381/213/350 379/212/348
f 377/180/346 379/212/348 352/183/321
f 377/180/346 352/183/321 356/184/325
f 377/180/346 356/184/325 357/179/326
f 382/214/351 385/217/353 384/216/353
f 382/214/351 384/216/353 383/215/352
f 386/200/354 390/218/358 389/178/357
f 386/200/354 389/178/357 357/179/326
f 386/200/354 357/179/326 361/153/330
f 386/200/354 361/153/330 362/145/331
f 387/219/355 391/221/359 388/220/356
f 387/219/355 388/220/356 358/194/327
f 388/220/356 392/222/360 389/197/357
f 388/220/356 389/197/357 358/194/327
f 386/195/354 393/223/361 387/219/355
f 386/195/354 387/219/355 358/194/327
f 394/224/362 398/228/364 397/227/364
f 394/224/362 397/227/364 396/226/364
f 394/224/362 396/226/364 395/225/363
f 395/225/363 400/231/365 399/230/365
f 395/225/363 399/230/365 401/229/365
f 395/225/363 401/229/365 394/224/362
