# Blender 4.5.5 LTS
# www.blender.org
o Eggs.004
v 0.033611 0.008537 0.000000
v 0.030994 0.010687 0.000000
v 0.031670 0.001701 -0.002789
v 0.031943 0.004603 -0.004513
v 0.031089 0.007880 -0.004513
v 0.029436 0.010281 -0.002789
v 0.028553 0.000889 -0.002789
v 0.026899 0.003290 -0.004513
v 0.026046 0.006568 -0.004513
v 0.026319 0.009470 -0.002789
v 0.027614 0.010888 0.000000
v 0.030375 0.000282 0.000000
v 0.026994 0.000484 0.000000
v 0.024377 0.002634 0.000000
v 0.023524 0.005911 0.000000
v 0.024760 0.009064 0.000000
v 0.028553 0.000889 0.002789
v 0.026899 0.003290 0.004513
v 0.026046 0.006568 0.004513
v 0.026319 0.009470 0.002789
v 0.031670 0.001701 0.002789
v 0.031943 0.004603 0.004513
v 0.031089 0.007880 0.004513
v 0.029436 0.010281 0.002789
v 0.033228 0.002106 0.000000
v 0.034464 0.005259 0.000000
v 0.042951 0.008146 0.000000
v 0.040335 0.010296 0.000000
v 0.041010 0.001309 -0.002789
v 0.041283 0.004212 -0.004513
v 0.040429 0.007489 -0.004513
v 0.038776 0.009890 -0.002789
v 0.037893 0.000498 -0.002789
v 0.036239 0.002899 -0.004513
v 0.035386 0.006176 -0.004513
v 0.035659 0.009078 -0.002789
v 0.036954 0.010497 0.000000
v 0.039715 -0.000109 0.000000
v 0.036334 0.000092 0.000000
v 0.033717 0.002242 0.000000
v 0.032864 0.005520 0.000000
v 0.034100 0.008673 0.000000
v 0.037893 0.000498 0.002789
v 0.036239 0.002899 0.004513
v 0.035386 0.006176 0.004513
v 0.035659 0.009078 0.002789
v 0.041010 0.001309 0.002789
v 0.041283 0.004212 0.004513
v 0.040429 0.007489 0.004513
v 0.038776 0.009890 0.002789
v 0.042568 0.001715 0.000000
v 0.043804 0.004868 0.000000
v 0.052955 0.007670 0.000000
v 0.050338 0.009820 0.000000
v 0.051013 0.000834 -0.002789
v 0.051286 0.003736 -0.004513
v 0.050433 0.007014 -0.004513
v 0.048780 0.009415 -0.002789
v 0.047896 0.000023 -0.002789
v 0.046243 0.002423 -0.004513
v 0.045390 0.005701 -0.004513
v 0.045662 0.008603 -0.002789
v 0.046957 0.010022 0.000000
v 0.049718 -0.000584 0.000000
v 0.046338 -0.000383 0.000000
v 0.043721 0.001767 0.000000
v 0.042868 0.005044 0.000000
v 0.044104 0.008197 0.000000
v 0.047896 0.000023 0.002789
v 0.046243 0.002423 0.004513
v 0.045390 0.005701 0.004513
v 0.045662 0.008603 0.002789
v 0.051013 0.000834 0.002789
v 0.051286 0.003736 0.004513
v 0.050433 0.007014 0.004513
v 0.048780 0.009415 0.002789
v 0.052572 0.001240 0.000000
v 0.053808 0.004393 0.000000
v 0.005299 0.020970 0.000000
v 0.004062 0.017817 0.000000
v 0.000270 0.025992 0.002789
v 0.001924 0.023591 0.004513
v 0.002777 0.020314 0.004513
v 0.002504 0.017412 0.002789
v -0.002847 0.025181 0.002789
v -0.003120 0.022278 0.004513
v -0.002267 0.019001 0.004513
v -0.000613 0.016600 0.002789
v -0.004405 0.024775 -0.000000
v -0.005642 0.021622 -0.000000
v -0.004788 0.018344 -0.000000
v -0.002172 0.016194 -0.000000
v 0.001209 0.015993 0.000000
v -0.001552 0.026599 -0.000000
v -0.002847 0.025181 -0.002789
v -0.003120 0.022278 -0.004513
v -0.002267 0.019001 -0.004513
v -0.000613 0.016600 -0.002789
v 0.000270 0.025992 -0.002789
v 0.001924 0.023591 -0.004513
v 0.002777 0.020314 -0.004513
v 0.002504 0.017412 -0.002789
v 0.001829 0.026398 0.000000
v 0.004445 0.024248 0.000000
v -0.004705 0.021446 -0.000000
v -0.005941 0.018293 -0.000000
v -0.009733 0.026467 0.002789
v -0.008080 0.024067 0.004513
v -0.007227 0.020789 0.004513
v -0.007500 0.017887 0.002789
v -0.012850 0.025656 0.002789
v -0.013123 0.022754 0.004513
v -0.012270 0.019476 0.004513
v -0.010617 0.017075 0.002789
v -0.014409 0.025250 -0.000000
v -0.015645 0.022097 -0.000000
v -0.014792 0.018820 -0.000000
v -0.012175 0.016670 -0.000000
v -0.008795 0.016468 -0.000000
v -0.011556 0.027074 -0.000000
v -0.012850 0.025656 -0.002789
v -0.013123 0.022754 -0.004513
v -0.012270 0.019476 -0.004513
v -0.010617 0.017075 -0.002789
v -0.009733 0.026467 -0.002789
v -0.008080 0.024067 -0.004513
v -0.007227 0.020789 -0.004513
v -0.007500 0.017887 -0.002789
v -0.008175 0.026873 0.000000
v -0.005558 0.024723 0.000000
v -0.014045 0.021837 -0.000000
v -0.015281 0.018684 -0.000000
v -0.019073 0.026859 0.002789
v -0.017420 0.024458 0.004513
v -0.016567 0.021180 0.004513
v -0.016840 0.018278 0.002789
v -0.022191 0.026047 0.002789
v -0.022464 0.023145 0.004513
v -0.021610 0.019868 0.004513
v -0.019957 0.017467 0.002789
v -0.023749 0.025642 -0.000000
v -0.024985 0.022489 -0.000000
v -0.024132 0.019211 -0.000000
v -0.021515 0.017061 -0.000000
v -0.018135 0.016860 -0.000000
v -0.020896 0.027466 -0.000000
v -0.022191 0.026047 -0.002789
v -0.022464 0.023145 -0.004513
v -0.021610 0.019868 -0.004513
v -0.019957 0.017467 -0.002789
v -0.019073 0.026859 -0.002789
v -0.017420 0.024458 -0.004513
v -0.016567 0.021180 -0.004513
v -0.016840 0.018278 -0.002789
v -0.017515 0.027264 0.000000
v -0.014898 0.025114 0.000000
v 0.024956 0.021037 0.000000
v 0.023720 0.017884 0.000000
v 0.019927 0.026059 0.002789
v 0.021581 0.023658 0.004513
v 0.022434 0.020381 0.004513
v 0.022161 0.017479 0.002789
v 0.016810 0.025248 0.002789
v 0.016537 0.022345 0.004513
v 0.017391 0.019068 0.004513
v 0.019044 0.016667 0.002789
v 0.015252 0.024842 0.000000
v 0.014016 0.021689 -0.000000
v 0.014869 0.018412 -0.000000
v 0.017486 0.016262 0.000000
v 0.020866 0.016060 0.000000
v 0.018105 0.026666 0.000000
v 0.016810 0.025248 -0.002789
v 0.016537 0.022345 -0.004513
v 0.017391 0.019068 -0.004513
v 0.019044 0.016667 -0.002789
v 0.019927 0.026059 -0.002789
v 0.021581 0.023658 -0.004513
v 0.022434 0.020381 -0.004513
v 0.022161 0.017479 -0.002789
v 0.021486 0.026465 0.000000
v 0.024103 0.024315 0.000000
v 0.015616 0.021429 0.000000
v 0.014379 0.018276 0.000000
v 0.010587 0.026451 0.002789
v 0.012241 0.024050 0.004513
v 0.013094 0.020772 0.004513
v 0.012821 0.017870 0.002789
v 0.007470 0.025639 0.002789
v 0.007197 0.022737 0.004513
v 0.008050 0.019459 0.004513
v 0.009704 0.017059 0.002789
v 0.005912 0.025233 -0.000000
v 0.004676 0.022080 -0.000000
v 0.005529 0.018803 -0.000000
v 0.008145 0.016653 -0.000000
v 0.011526 0.016452 0.000000
v 0.008765 0.027058 0.000000
v 0.007470 0.025639 -0.002789
v 0.007197 0.022737 -0.004513
v 0.008050 0.019459 -0.004513
v 0.009704 0.017059 -0.002789
v 0.010587 0.026451 -0.002789
v 0.012241 0.024050 -0.004513
v 0.013094 0.020772 -0.004513
v 0.012821 0.017870 -0.002789
v 0.012146 0.026856 0.000000
v 0.014762 0.024706 0.000000
v 0.073465 0.004460 0.000000
v 0.072229 0.001307 0.000000
v 0.068437 0.009482 0.002789
v 0.070090 0.007081 0.004513
v 0.070943 0.003803 0.004513
v 0.070670 0.000901 0.002789
v 0.065320 0.008670 0.002789
v 0.065047 0.005768 0.004513
v 0.065900 0.002491 0.004513
v 0.067553 0.000090 0.002789
v 0.063761 0.008265 0.000000
v 0.062525 0.005112 0.000000
v 0.063378 0.001834 0.000000
v 0.065995 -0.000316 0.000000
v 0.069376 -0.000517 0.000000
v 0.066615 0.010089 0.000000
v 0.065320 0.008670 -0.002789
v 0.065047 0.005768 -0.004513
v 0.065900 0.002491 -0.004513
v 0.067553 0.000090 -0.002789
v 0.068437 0.009482 -0.002789
v 0.070090 0.007081 -0.004513
v 0.070943 0.003803 -0.004513
v 0.070670 0.000901 -0.002789
v 0.069995 0.009887 0.000000
v 0.072612 0.007737 0.000000
v 0.064125 0.004851 0.000000
v 0.062889 0.001698 0.000000
v 0.059097 0.009873 0.002789
v 0.060750 0.007472 0.004513
v 0.061603 0.004195 0.004513
v 0.061330 0.001293 0.002789
v 0.055980 0.009062 0.002789
v 0.055707 0.006159 0.004513
v 0.056560 0.002882 0.004513
v 0.058213 0.000481 0.002789
v 0.054421 0.008656 0.000000
v 0.053185 0.005503 0.000000
v 0.054038 0.002225 0.000000
v 0.056655 0.000075 0.000000
v 0.060035 -0.000126 0.000000
v 0.057274 0.010480 0.000000
v 0.055980 0.009062 -0.002789
v 0.055707 0.006159 -0.004513
v 0.056560 0.002882 -0.004513
v 0.058213 0.000481 -0.002789
v 0.059097 0.009873 -0.002789
v 0.060750 0.007472 -0.004513
v 0.061603 0.004195 -0.004513
v 0.061330 0.001293 -0.002789
v 0.060655 0.010279 0.000000
v 0.063272 0.008129 0.000000
v -0.023837 0.022518 -0.000000
v -0.025073 0.019365 -0.000000
v -0.028866 0.027540 0.002789
v -0.027212 0.025139 0.004513
v -0.026359 0.021862 0.004513
v -0.026632 0.018960 0.002789
v -0.031983 0.026729 0.002789
v -0.032256 0.023826 0.004513
v -0.031402 0.020549 0.004513
v -0.029749 0.018148 0.002789
v -0.033541 0.026323 -0.000000
v -0.034777 0.023170 -0.000000
v -0.033924 0.019893 -0.000000
v -0.031307 0.017743 -0.000000
v -0.027927 0.017541 -0.000000
v -0.030688 0.028147 -0.000000
v -0.031983 0.026729 -0.002789
v -0.032256 0.023826 -0.004513
v -0.031402 0.020549 -0.004513
v -0.029749 0.018148 -0.002789
v -0.028866 0.027540 -0.002789
v -0.027212 0.025139 -0.004513
v -0.026359 0.021862 -0.004513
v -0.026632 0.018960 -0.002789
v -0.027307 0.027946 -0.000000
v -0.024690 0.025796 0.000000
v -0.033177 0.022910 -0.000000
v -0.034414 0.019757 -0.000000
v -0.038206 0.027932 0.002789
v -0.036552 0.025531 0.004513
v -0.035699 0.022253 0.004513
v -0.035972 0.019351 0.002789
v -0.041323 0.027120 0.002789
v -0.041596 0.024218 0.004513
v -0.040743 0.020940 0.004513
v -0.039089 0.018540 0.002789
v -0.042881 0.026714 -0.000000
v -0.044117 0.023561 -0.000000
v -0.043264 0.020284 -0.000000
v -0.040648 0.018134 -0.000000
v -0.037267 0.017933 -0.000000
v -0.040028 0.028539 -0.000000
v -0.041323 0.027120 -0.002789
v -0.041596 0.024218 -0.004513
v -0.040743 0.020940 -0.004513
v -0.039089 0.018540 -0.002789
v -0.038206 0.027932 -0.002789
v -0.036552 0.025531 -0.004513
v -0.035699 0.022253 -0.004513
v -0.035972 0.019351 -0.002789
v -0.036647 0.028337 -0.000000
v -0.034031 0.026187 0.000000
v 0.000796 0.042500 0.000000
v -0.000440 0.039347 -0.000000
v -0.004233 0.047521 0.002789
v -0.002579 0.045121 0.004513
v -0.001726 0.041843 0.004513
v -0.001999 0.038941 0.002789
v -0.007350 0.046710 0.002789
v -0.007623 0.043808 0.004513
v -0.006769 0.040530 0.004513
v -0.005116 0.038129 0.002789
v -0.008908 0.046304 -0.000000
v -0.010144 0.043151 -0.000000
v -0.009291 0.039874 -0.000000
v -0.006674 0.037724 -0.000000
v -0.003294 0.037522 -0.000000
v -0.006055 0.048128 -0.000000
v -0.007350 0.046710 -0.002789
v -0.007623 0.043808 -0.004513
v -0.006769 0.040530 -0.004513
v -0.005116 0.038129 -0.002789
v -0.004233 0.047521 -0.002789
v -0.002579 0.045121 -0.004513
v -0.001726 0.041843 -0.004513
v -0.001999 0.038941 -0.002789
v -0.002674 0.047927 0.000000
v -0.000057 0.045777 0.000000
v -0.008996 0.043181 -0.000000
v -0.010232 0.040028 -0.000000
v -0.014025 0.048203 0.002789
v -0.012371 0.045802 0.004513
v -0.011518 0.042525 0.004513
v -0.011791 0.039622 0.002789
v -0.017142 0.047391 0.002789
v -0.017415 0.044489 0.004513
v -0.016562 0.041212 0.004513
v -0.014908 0.038811 0.002789
v -0.018700 0.046986 -0.000000
v -0.019936 0.043833 -0.000000
v -0.019083 0.040555 -0.000000
v -0.016467 0.038405 -0.000000
v -0.013086 0.038204 -0.000000
v -0.015847 0.048810 -0.000000
v -0.017142 0.047391 -0.002789
v -0.017415 0.044489 -0.004513
v -0.016562 0.041212 -0.004513
v -0.014908 0.038811 -0.002789
v -0.014025 0.048203 -0.002789
v -0.012371 0.045802 -0.004513
v -0.011518 0.042525 -0.004513
v -0.011791 0.039622 -0.002789
v -0.012466 0.048609 0.000000
v -0.009849 0.046459 0.000000
v -0.018336 0.043572 -0.000000
v -0.019573 0.040419 -0.000000
v -0.023365 0.048594 0.002789
v -0.021711 0.046193 0.004513
v -0.020858 0.042916 0.004513
v -0.021131 0.040014 0.002789
v -0.026482 0.047783 0.002789
v -0.026755 0.044880 0.004513
v -0.025902 0.041603 0.004513
v -0.024248 0.039202 0.002789
v -0.028040 0.047377 -0.000000
v -0.029277 0.044224 -0.000000
v -0.028423 0.040947 -0.000000
v -0.025807 0.038797 -0.000000
v -0.022426 0.038595 -0.000000
v -0.025187 0.049201 -0.000000
v -0.026482 0.047783 -0.002789
v -0.026755 0.044880 -0.004513
v -0.025902 0.041603 -0.004513
v -0.024248 0.039202 -0.002789
v -0.023365 0.048594 -0.002789
v -0.021711 0.046193 -0.004513
v -0.020858 0.042916 -0.004513
v -0.021131 0.040014 -0.002789
v -0.021806 0.049000 -0.000000
v -0.019190 0.046850 0.000000
v 0.049095 0.042237 0.000000
v 0.047858 0.039084 0.000000
v 0.044066 0.047258 0.002789
v 0.045720 0.044858 0.004513
v 0.046573 0.041580 0.004513
v 0.046300 0.038678 0.002789
v 0.040949 0.046447 0.002789
v 0.040676 0.043545 0.004513
v 0.041529 0.040267 0.004513
v 0.043183 0.037866 0.002789
v 0.039391 0.046041 0.000000
v 0.038154 0.042888 0.000000
v 0.039008 0.039611 0.000000
v 0.041624 0.037461 0.000000
v 0.045005 0.037259 0.000000
v 0.042244 0.047865 0.000000
v 0.040949 0.046447 -0.002789
v 0.040676 0.043545 -0.004513
v 0.041529 0.040267 -0.004513
v 0.043183 0.037866 -0.002789
v 0.044066 0.047258 -0.002789
v 0.045720 0.044858 -0.004513
v 0.046573 0.041580 -0.004513
v 0.046300 0.038678 -0.002789
v 0.045625 0.047664 0.000000
v 0.048241 0.045514 0.000000
v 0.039754 0.042628 0.000000
v 0.038518 0.039475 0.000000
v 0.034726 0.047650 0.002789
v 0.036380 0.045249 0.004513
v 0.037233 0.041971 0.004513
v 0.036960 0.039069 0.002789
v 0.031609 0.046838 0.002789
v 0.031336 0.043936 0.004513
v 0.032189 0.040658 0.004513
v 0.033843 0.038258 0.002789
v 0.030051 0.046432 0.000000
v 0.028814 0.043279 0.000000
v 0.029668 0.040002 0.000000
v 0.032284 0.037852 0.000000
v 0.035665 0.037651 0.000000
v 0.032904 0.048257 0.000000
v 0.031609 0.046838 -0.002789
v 0.031336 0.043936 -0.004513
v 0.032189 0.040658 -0.004513
v 0.033843 0.038258 -0.002789
v 0.034726 0.047650 -0.002789
v 0.036380 0.045249 -0.004513
v 0.037233 0.041971 -0.004513
v 0.036960 0.039069 -0.002789
v 0.036285 0.048055 0.000000
v 0.038901 0.045905 0.000000
vn 0.8567 0.5159 -0.0000
vn 0.4336 0.9011 -0.0000
vn 0.5051 -0.6568 -0.5600
vn 0.5354 -0.1535 -0.8305
vn 0.3926 0.3951 -0.8305
vn 0.1207 0.8197 -0.5600
vn -0.1207 -0.8197 -0.5600
vn -0.3926 -0.3951 -0.8305
vn -0.5354 0.1535 -0.8305
vn -0.5051 0.6568 -0.5600
vn -0.2519 0.9677 -0.0000
vn 0.2519 -0.9677 -0.0000
vn -0.4336 -0.9011 -0.0000
vn -0.8567 -0.5159 -0.0000
vn -0.9995 0.0327 -0.0000
vn -0.8179 0.5753 -0.0000
vn -0.1207 -0.8197 0.5600
vn -0.3926 -0.3951 0.8305
vn -0.5354 0.1535 0.8305
vn -0.5051 0.6568 0.5600
vn 0.5051 -0.6568 0.5600
vn 0.5354 -0.1535 0.8305
vn 0.3926 0.3951 0.8305
vn 0.1207 0.8197 0.5600
vn 0.8179 -0.5753 -0.0000
vn 0.9995 -0.0327 -0.0000
vt 0.284767 0.685573
vt 0.285354 0.685768
vt 0.284264 0.685703
vt 0.283958 0.683741
vt 0.284233 0.684798
vt 0.283420 0.685010
vt 0.283145 0.683953
vt 0.284464 0.682348
vt 0.284046 0.682805
vt 0.283544 0.682936
vt 0.285772 0.685311
vt 0.285585 0.683318
vt 0.285860 0.684375
vt 0.285052 0.682543
vt 0.286275 0.685180
vt 0.286398 0.683106
vt 0.286673 0.684163
vt 0.285554 0.682413
vt 0.281754 0.685446
vt 0.282342 0.685642
vt 0.281251 0.685577
vt 0.280946 0.683615
vt 0.281221 0.684672
vt 0.280408 0.684884
vt 0.280132 0.683827
vt 0.281451 0.682221
vt 0.281034 0.682679
vt 0.280531 0.682810
vt 0.282759 0.685185
vt 0.282572 0.683192
vt 0.282848 0.684249
vt 0.282039 0.682417
vt 0.283262 0.685054
vt 0.283386 0.682980
vt 0.283661 0.684037
vt 0.282542 0.682286
vt 0.278528 0.685293
vt 0.279115 0.685489
vt 0.278025 0.685424
vt 0.277719 0.683462
vt 0.277994 0.684519
vt 0.277181 0.684731
vt 0.276906 0.683673
vt 0.278225 0.682068
vt 0.277807 0.682526
vt 0.277305 0.682657
vt 0.279533 0.685031
vt 0.279346 0.683038
vt 0.279621 0.684095
vt 0.278813 0.682264
vt 0.280036 0.684901
vt 0.280159 0.682827
vt 0.280434 0.683884
vt 0.279315 0.682133
vt 0.277719 0.683462
vt 0.292827 0.690077
vt 0.293671 0.690771
vt 0.294173 0.690640
vt 0.293640 0.689866
vt 0.293871 0.687415
vt 0.292950 0.688003
vt 0.293453 0.687872
vt 0.292552 0.689020
vt 0.293365 0.688808
vt 0.294761 0.690836
vt 0.294992 0.688385
vt 0.294458 0.687611
vt 0.295179 0.690378
vt 0.295267 0.689442
vt 0.295805 0.688173
vt 0.294961 0.687480
vt 0.295681 0.690247
vt 0.296080 0.689230
vt 0.294458 0.687611
vt 0.296053 0.690231
vt 0.296897 0.690924
vt 0.297400 0.690793
vt 0.296867 0.690019
vt 0.297097 0.687568
vt 0.296177 0.688156
vt 0.296679 0.688026
vt 0.295778 0.689173
vt 0.296591 0.688962
vt 0.297988 0.690989
vt 0.298218 0.688538
vt 0.297685 0.687764
vt 0.298405 0.690531
vt 0.298493 0.689595
vt 0.299031 0.688327
vt 0.298187 0.687633
vt 0.298908 0.690401
vt 0.299307 0.689384
vt 0.299066 0.690357
vt 0.299910 0.691050
vt 0.300412 0.690919
vt 0.299879 0.690145
vt 0.300110 0.687694
vt 0.299189 0.688283
vt 0.299692 0.688152
vt 0.298791 0.689300
vt 0.299604 0.689088
vt 0.301000 0.691115
vt 0.301231 0.688664
vt 0.300697 0.687890
vt 0.301418 0.690658
vt 0.301506 0.689722
vt 0.302044 0.688453
vt 0.301200 0.687759
vt 0.301920 0.690527
vt 0.302319 0.689510
vt 0.286487 0.690099
vt 0.287331 0.690792
vt 0.287833 0.690661
vt 0.287300 0.689887
vt 0.287531 0.687437
vt 0.286610 0.688025
vt 0.287113 0.687894
vt 0.286212 0.689042
vt 0.287025 0.688830
vt 0.288421 0.690857
vt 0.288652 0.688407
vt 0.288118 0.687632
vt 0.288839 0.690400
vt 0.288927 0.689464
vt 0.289465 0.688195
vt 0.288621 0.687501
vt 0.289341 0.690269
vt 0.289740 0.689252
vt 0.289499 0.690225
vt 0.290343 0.690919
vt 0.290846 0.690788
vt 0.290313 0.690013
vt 0.290543 0.687563
vt 0.289623 0.688151
vt 0.290125 0.688020
vt 0.289224 0.689168
vt 0.290037 0.688956
vt 0.291434 0.690983
vt 0.291664 0.688533
vt 0.291131 0.687759
vt 0.291851 0.690526
vt 0.291939 0.689590
vt 0.292477 0.688321
vt 0.291633 0.687628
vt 0.292354 0.690395
vt 0.292753 0.689378
vt 0.270841 0.684752
vt 0.271685 0.685446
vt 0.272188 0.685315
vt 0.271654 0.684540
vt 0.271885 0.682090
vt 0.270965 0.682678
vt 0.271467 0.682547
vt 0.270566 0.683695
vt 0.271379 0.683483
vt 0.272775 0.685511
vt 0.273006 0.683060
vt 0.272473 0.682286
vt 0.273193 0.685053
vt 0.273281 0.684117
vt 0.273819 0.682848
vt 0.272975 0.682155
vt 0.273696 0.684922
vt 0.274094 0.683905
vt 0.273854 0.684878
vt 0.274697 0.685572
vt 0.275200 0.685441
vt 0.274667 0.684667
vt 0.274897 0.682216
vt 0.273977 0.682804
vt 0.274480 0.682674
vt 0.273578 0.683821
vt 0.274392 0.683610
vt 0.275788 0.685637
vt 0.276018 0.683186
vt 0.275485 0.682412
vt 0.276205 0.685179
vt 0.276294 0.684243
vt 0.276832 0.682974
vt 0.275988 0.682281
vt 0.276708 0.685048
vt 0.277107 0.684031
vt 0.302224 0.690577
vt 0.303068 0.691270
vt 0.303571 0.691139
vt 0.303037 0.690365
vt 0.303268 0.687914
vt 0.302347 0.688503
vt 0.302850 0.688372
vt 0.301949 0.689519
vt 0.302762 0.689308
vt 0.304158 0.691335
vt 0.304389 0.688884
vt 0.303855 0.688110
vt 0.304576 0.690877
vt 0.304664 0.689941
vt 0.305202 0.688673
vt 0.304358 0.687979
vt 0.305079 0.690747
vt 0.305477 0.689730
vt 0.305236 0.690703
vt 0.306080 0.691396
vt 0.306583 0.691265
vt 0.306050 0.690491
vt 0.306280 0.688040
vt 0.305360 0.688629
vt 0.305863 0.688498
vt 0.304961 0.689646
vt 0.305775 0.689434
vt 0.307171 0.691461
vt 0.307401 0.689011
vt 0.306868 0.688236
vt 0.307588 0.691004
vt 0.307676 0.690068
vt 0.308215 0.688799
vt 0.307371 0.688105
vt 0.308091 0.690873
vt 0.308490 0.689856
vt 0.294279 0.697021
vt 0.295123 0.697715
vt 0.295626 0.697584
vt 0.295092 0.696809
vt 0.295323 0.694359
vt 0.294403 0.694947
vt 0.294905 0.694816
vt 0.294004 0.695964
vt 0.294817 0.695752
vt 0.296213 0.697779
vt 0.296444 0.695329
vt 0.295911 0.694555
vt 0.296631 0.697322
vt 0.296719 0.696386
vt 0.297257 0.695117
vt 0.296413 0.694424
vt 0.297134 0.697191
vt 0.297532 0.696174
vt 0.297437 0.697241
vt 0.298281 0.697934
vt 0.298784 0.697803
vt 0.298251 0.697029
vt 0.298481 0.694578
vt 0.297561 0.695167
vt 0.298063 0.695036
vt 0.297162 0.696184
vt 0.297975 0.695972
vt 0.299372 0.697999
vt 0.299602 0.695549
vt 0.299069 0.694774
vt 0.299789 0.697542
vt 0.299877 0.696606
vt 0.300415 0.695337
vt 0.299572 0.694643
vt 0.300292 0.697411
vt 0.300691 0.696394
vt 0.300450 0.697367
vt 0.301294 0.698061
vt 0.301796 0.697930
vt 0.301263 0.697155
vt 0.301494 0.694705
vt 0.300573 0.695293
vt 0.301076 0.695162
vt 0.300175 0.696310
vt 0.300988 0.696098
vt 0.302384 0.698125
vt 0.302615 0.695675
vt 0.302081 0.694901
vt 0.302802 0.697668
vt 0.302890 0.696732
vt 0.303428 0.695463
vt 0.302584 0.694770
vt 0.303304 0.697537
vt 0.303703 0.696520
vt 0.278701 0.696936
vt 0.279545 0.697630
vt 0.280048 0.697499
vt 0.279515 0.696724
vt 0.279745 0.694274
vt 0.278825 0.694862
vt 0.279327 0.694731
vt 0.278426 0.695879
vt 0.279239 0.695667
vt 0.280636 0.697695
vt 0.280866 0.695244
vt 0.280333 0.694470
vt 0.281053 0.697237
vt 0.281141 0.696301
vt 0.281679 0.695032
vt 0.280835 0.694339
vt 0.281556 0.697106
vt 0.281955 0.696089
vt 0.281714 0.697062
vt 0.282558 0.697756
vt 0.283060 0.697625
vt 0.282527 0.696851
vt 0.282758 0.694400
vt 0.281837 0.694988
vt 0.282340 0.694858
vt 0.281439 0.696005
vt 0.282252 0.695794
vt 0.283648 0.697821
vt 0.283879 0.695370
vt 0.283345 0.694596
vt 0.284066 0.697363
vt 0.284154 0.696427
vt 0.284692 0.695158
vt 0.283848 0.694465
vt 0.284568 0.697232
vt 0.284967 0.696216
s 1
f 6/1/6 11/2/11 2/3/2
f 4/4/4 5/5/5 1/6/1
f 4/4/4 1/6/1 26/7/26
f 12/8/12 3/9/3 25/10/25
f 5/5/5 6/1/6 2/3/2
f 5/5/5 2/3/2 1/6/1
f 3/9/3 4/4/4 26/7/26
f 3/9/3 26/7/26 25/10/25
f 10/11/10 11/2/11 6/1/6
f 8/12/8 9/13/9 5/5/5
f 8/12/8 5/5/5 4/4/4
f 12/8/12 7/14/7 3/9/3
f 9/13/9 10/11/10 6/1/6
f 9/13/9 6/1/6 5/5/5
f 7/14/7 8/12/8 4/4/4
f 7/14/7 4/4/4 3/9/3
f 16/15/16 11/2/11 10/11/10
f 14/16/14 15/17/15 9/13/9
f 14/16/14 9/13/9 8/12/8
f 12/8/12 13/18/13 7/14/7
f 15/17/15 16/15/16 10/11/10
f 15/17/15 10/11/10 9/13/9
f 13/18/13 14/16/14 8/12/8
f 13/18/13 8/12/8 7/14/7
f 20/11/20 11/2/11 16/15/16
f 18/12/18 19/13/19 15/17/15
f 18/12/18 15/17/15 14/16/14
f 12/8/12 17/14/17 13/18/13
f 19/13/19 20/11/20 16/15/16
f 19/13/19 16/15/16 15/17/15
f 17/14/17 18/12/18 14/16/14
f 17/14/17 14/16/14 13/18/13
f 24/1/24 11/2/11 20/11/20
f 22/4/22 23/5/23 19/13/19
f 22/4/22 19/13/19 18/12/18
f 12/8/12 21/9/21 17/14/17
f 23/5/23 24/1/24 20/11/20
f 23/5/23 20/11/20 19/13/19
f 21/9/21 22/4/22 18/12/18
f 21/9/21 18/12/18 17/14/17
f 25/10/25 26/7/26 22/4/22
f 25/10/25 22/4/22 21/9/21
f 2/3/2 11/2/11 24/1/24
f 26/7/26 1/6/1 23/5/23
f 26/7/26 23/5/23 22/4/22
f 12/8/12 25/10/25 21/9/21
f 1/6/1 2/3/2 24/1/24
f 1/6/1 24/1/24 23/5/23
f 32/19/6 37/20/11 28/21/2
f 30/22/4 31/23/5 27/24/1
f 30/22/4 27/24/1 52/25/26
f 38/26/12 29/27/3 51/28/25
f 31/23/5 32/19/6 28/21/2
f 31/23/5 28/21/2 27/24/1
f 29/27/3 30/22/4 52/25/26
f 29/27/3 52/25/26 51/28/25
f 36/29/10 37/20/11 32/19/6
f 34/30/8 35/31/9 31/23/5
f 34/30/8 31/23/5 30/22/4
f 38/26/12 33/32/7 29/27/3
f 35/31/9 36/29/10 32/19/6
f 35/31/9 32/19/6 31/23/5
f 33/32/7 34/30/8 30/22/4
f 33/32/7 30/22/4 29/27/3
f 42/33/16 37/20/11 36/29/10
f 40/34/14 41/35/15 35/31/9
f 40/34/14 35/31/9 34/30/8
f 38/26/12 39/36/13 33/32/7
f 41/35/15 42/33/16 36/29/10
f 41/35/15 36/29/10 35/31/9
f 39/36/13 40/34/14 34/30/8
f 39/36/13 34/30/8 33/32/7
f 46/29/20 37/20/11 42/33/16
f 44/30/18 45/31/19 41/35/15
f 44/30/18 41/35/15 40/34/14
f 38/26/12 43/32/17 39/36/13
f 45/31/19 46/29/20 42/33/16
f 45/31/19 42/33/16 41/35/15
f 43/32/17 44/30/18 40/34/14
f 43/32/17 40/34/14 39/36/13
f 50/19/24 37/20/11 46/29/20
f 48/22/22 49/23/23 45/31/19
f 48/22/22 45/31/19 44/30/18
f 38/26/12 47/27/21 43/32/17
f 49/23/23 50/19/24 46/29/20
f 49/23/23 46/29/20 45/31/19
f 47/27/21 48/22/22 44/30/18
f 47/27/21 44/30/18 43/32/17
f 51/28/25 52/25/26 48/22/22
f 51/28/25 48/22/22 47/27/21
f 28/21/2 37/20/11 50/19/24
f 52/25/26 27/24/1 49/23/23
f 52/25/26 49/23/23 48/22/22
f 38/26/12 51/28/25 47/27/21
f 27/24/1 28/21/2 50/19/24
f 27/24/1 50/19/24 49/23/23
f 58/37/6 63/38/11 54/39/2
f 56/40/4 57/41/5 53/42/1
f 56/40/4 53/42/1 78/43/26
f 64/44/12 55/45/3 77/46/25
f 57/41/5 58/37/6 54/39/2
f 57/41/5 54/39/2 53/42/1
f 55/45/3 56/40/4 78/43/26
f 55/45/3 78/43/26 77/46/25
f 62/47/10 63/38/11 58/37/6
f 60/48/8 61/49/9 57/41/5
f 60/48/8 57/41/5 56/40/4
f 64/44/12 59/50/7 55/45/3
f 61/49/9 62/47/10 58/37/6
f 61/49/9 58/37/6 57/41/5
f 59/50/7 60/48/8 56/40/4
f 59/50/7 56/40/4 55/45/3
f 68/51/16 63/38/11 62/47/10
f 66/52/14 67/53/15 61/49/9
f 66/52/14 61/49/9 60/48/8
f 64/44/12 65/54/13 59/50/7
f 67/53/15 68/51/16 62/47/10
f 67/53/15 62/47/10 61/49/9
f 65/54/13 66/52/14 60/48/8
f 65/54/13 60/48/8 59/50/7
f 72/47/20 63/38/11 68/51/16
f 70/48/18 71/49/19 67/53/15
f 70/48/18 67/53/15 66/52/14
f 64/44/12 69/50/17 65/54/13
f 71/49/19 72/47/20 68/51/16
f 71/49/19 68/51/16 67/53/15
f 69/50/17 70/48/18 66/52/14
f 69/50/17 66/52/14 65/54/13
f 76/37/24 63/38/11 72/47/20
f 74/55/22 75/41/23 71/49/19
f 74/55/22 71/49/19 70/48/18
f 64/44/12 73/45/21 69/50/17
f 75/41/23 76/37/24 72/47/20
f 75/41/23 72/47/20 71/49/19
f 73/45/21 74/55/22 70/48/18
f 73/45/21 70/48/18 69/50/17
f 77/46/25 78/43/26 74/55/22
f 77/46/25 74/55/22 73/45/21
f 54/39/2 63/38/11 76/37/24
f 78/43/26 53/42/1 75/41/23
f 78/43/26 75/41/23 74/55/22
f 64/44/12 77/46/25 73/45/21
f 53/42/1 54/39/2 76/37/24
f 53/42/1 76/37/24 75/41/23
f 104/56/1 103/57/2 81/58/24
f 104/56/1 81/58/24 82/59/23
f 93/60/12 80/61/25 84/62/21
f 79/63/26 104/56/1 82/59/23
f 79/63/26 82/59/23 83/64/22
f 103/57/2 94/65/11 81/58/24
f 80/61/25 79/63/26 83/64/22
f 80/61/25 83/64/22 84/62/21
f 84/62/21 83/64/22 87/66/18
f 84/62/21 87/66/18 88/67/17
f 82/59/23 81/58/24 85/68/20
f 82/59/23 85/68/20 86/69/19
f 93/60/12 84/62/21 88/67/17
f 83/64/22 82/59/23 86/69/19
f 83/64/22 86/69/19 87/66/18
f 81/58/24 94/65/11 85/68/20
f 88/67/17 87/66/18 91/70/14
f 88/67/17 91/70/14 92/71/13
f 86/69/19 85/68/20 89/72/16
f 86/69/19 89/72/16 90/73/15
f 93/60/12 88/67/17 92/71/13
f 87/66/18 86/69/19 90/73/15
f 87/66/18 90/73/15 91/70/14
f 85/68/20 94/65/11 89/72/16
f 92/71/13 91/70/14 97/66/8
f 92/71/13 97/66/8 98/74/7
f 90/73/15 89/72/16 95/68/10
f 90/73/15 95/68/10 96/69/9
f 93/60/12 92/71/13 98/74/7
f 91/70/14 90/73/15 96/69/9
f 91/70/14 96/69/9 97/66/8
f 89/72/16 94/65/11 95/68/10
f 98/74/7 97/66/8 101/64/4
f 98/74/7 101/64/4 102/62/3
f 96/69/9 95/68/10 99/58/6
f 96/69/9 99/58/6 100/59/5
f 93/60/12 98/74/7 102/62/3
f 97/66/8 96/69/9 100/59/5
f 97/66/8 100/59/5 101/64/4
f 95/68/10 94/65/11 99/58/6
f 102/62/3 101/64/4 79/63/26
f 102/62/3 79/63/26 80/61/25
f 100/59/5 99/58/6 103/57/2
f 100/59/5 103/57/2 104/56/1
f 93/60/12 102/62/3 80/61/25
f 101/64/4 100/59/5 104/56/1
f 101/64/4 104/56/1 79/63/26
f 99/58/6 94/65/11 103/57/2
f 130/75/1 129/76/2 107/77/24
f 130/75/1 107/77/24 108/78/23
f 119/79/12 106/80/25 110/81/21
f 105/82/26 130/75/1 108/78/23
f 105/82/26 108/78/23 109/83/22
f 129/76/2 120/84/11 107/77/24
f 106/80/25 105/82/26 109/83/22
f 106/80/25 109/83/22 110/81/21
f 110/81/21 109/83/22 113/85/18
f 110/81/21 113/85/18 114/86/17
f 108/78/23 107/77/24 111/87/20
f 108/78/23 111/87/20 112/88/19
f 119/79/12 110/81/21 114/86/17
f 109/83/22 108/78/23 112/88/19
f 109/83/22 112/88/19 113/85/18
f 107/77/24 120/84/11 111/87/20
f 114/86/17 113/85/18 117/89/14
f 114/86/17 117/89/14 118/90/13
f 112/88/19 111/87/20 115/91/16
f 112/88/19 115/91/16 116/92/15
f 119/79/12 114/86/17 118/90/13
f 113/85/18 112/88/19 116/92/15
f 113/85/18 116/92/15 117/89/14
f 111/87/20 120/84/11 115/91/16
f 118/90/13 117/89/14 123/85/8
f 118/90/13 123/85/8 124/86/7
f 116/92/15 115/91/16 121/87/10
f 116/92/15 121/87/10 122/88/9
f 119/79/12 118/90/13 124/86/7
f 117/89/14 116/92/15 122/88/9
f 117/89/14 122/88/9 123/85/8
f 115/91/16 120/84/11 121/87/10
f 124/86/7 123/85/8 127/83/4
f 124/86/7 127/83/4 128/81/3
f 122/88/9 121/87/10 125/77/6
f 122/88/9 125/77/6 126/78/5
f 119/79/12 124/86/7 128/81/3
f 123/85/8 122/88/9 126/78/5
f 123/85/8 126/78/5 127/83/4
f 121/87/10 120/84/11 125/77/6
f 128/81/3 127/83/4 105/82/26
f 128/81/3 105/82/26 106/80/25
f 126/78/5 125/77/6 129/76/2
f 126/78/5 129/76/2 130/75/1
f 119/79/12 128/81/3 106/80/25
f 127/83/4 126/78/5 130/75/1
f 127/83/4 130/75/1 105/82/26
f 125/77/6 120/84/11 129/76/2
f 156/93/1 155/94/2 133/95/24
f 156/93/1 133/95/24 134/96/23
f 145/97/12 132/98/25 136/99/21
f 131/100/26 156/93/1 134/96/23
f 131/100/26 134/96/23 135/101/22
f 155/94/2 146/102/11 133/95/24
f 132/98/25 131/100/26 135/101/22
f 132/98/25 135/101/22 136/99/21
f 136/99/21 135/101/22 139/103/18
f 136/99/21 139/103/18 140/104/17
f 134/96/23 133/95/24 137/105/20
f 134/96/23 137/105/20 138/106/19
f 145/97/12 136/99/21 140/104/17
f 135/101/22 134/96/23 138/106/19
f 135/101/22 138/106/19 139/103/18
f 133/95/24 146/102/11 137/105/20
f 140/104/17 139/103/18 143/107/14
f 140/104/17 143/107/14 144/108/13
f 138/106/19 137/105/20 141/109/16
f 138/106/19 141/109/16 142/110/15
f 145/97/12 140/104/17 144/108/13
f 139/103/18 138/106/19 142/110/15
f 139/103/18 142/110/15 143/107/14
f 137/105/20 146/102/11 141/109/16
f 144/108/13 143/107/14 149/103/8
f 144/108/13 149/103/8 150/104/7
f 142/110/15 141/109/16 147/105/10
f 142/110/15 147/105/10 148/106/9
f 145/97/12 144/108/13 150/104/7
f 143/107/14 142/110/15 148/106/9
f 143/107/14 148/106/9 149/103/8
f 141/109/16 146/102/11 147/105/10
f 150/104/7 149/103/8 153/101/4
f 150/104/7 153/101/4 154/99/3
f 148/106/9 147/105/10 151/95/6
f 148/106/9 151/95/6 152/96/5
f 145/97/12 150/104/7 154/99/3
f 149/103/8 148/106/9 152/96/5
f 149/103/8 152/96/5 153/101/4
f 147/105/10 146/102/11 151/95/6
f 154/99/3 153/101/4 131/100/26
f 154/99/3 131/100/26 132/98/25
f 152/96/5 151/95/6 155/94/2
f 152/96/5 155/94/2 156/93/1
f 145/97/12 154/99/3 132/98/25
f 153/101/4 152/96/5 156/93/1
f 153/101/4 156/93/1 131/100/26
f 151/95/6 146/102/11 155/94/2
f 182/111/1 181/112/2 159/113/24
f 182/111/1 159/113/24 160/114/23
f 171/115/12 158/116/25 162/117/21
f 157/118/26 182/111/1 160/114/23
f 157/118/26 160/114/23 161/119/22
f 181/112/2 172/120/11 159/113/24
f 158/116/25 157/118/26 161/119/22
f 158/116/25 161/119/22 162/117/21
f 162/117/21 161/119/22 165/121/18
f 162/117/21 165/121/18 166/122/17
f 160/114/23 159/113/24 163/123/20
f 160/114/23 163/123/20 164/124/19
f 171/115/12 162/117/21 166/122/17
f 161/119/22 160/114/23 164/124/19
f 161/119/22 164/124/19 165/121/18
f 159/113/24 172/120/11 163/123/20
f 166/122/17 165/121/18 169/125/14
f 166/122/17 169/125/14 170/126/13
f 164/124/19 163/123/20 167/127/16
f 164/124/19 167/127/16 168/128/15
f 171/115/12 166/122/17 170/126/13
f 165/121/18 164/124/19 168/128/15
f 165/121/18 168/128/15 169/125/14
f 163/123/20 172/120/11 167/127/16
f 170/126/13 169/125/14 175/121/8
f 170/126/13 175/121/8 176/122/7
f 168/128/15 167/127/16 173/123/10
f 168/128/15 173/123/10 174/124/9
f 171/115/12 170/126/13 176/122/7
f 169/125/14 168/128/15 174/124/9
f 169/125/14 174/124/9 175/121/8
f 167/127/16 172/120/11 173/123/10
f 176/122/7 175/121/8 179/119/4
f 176/122/7 179/119/4 180/117/3
f 174/124/9 173/123/10 177/113/6
f 174/124/9 177/113/6 178/114/5
f 171/115/12 176/122/7 180/117/3
f 175/121/8 174/124/9 178/114/5
f 175/121/8 178/114/5 179/119/4
f 173/123/10 172/120/11 177/113/6
f 180/117/3 179/119/4 157/118/26
f 180/117/3 157/118/26 158/116/25
f 178/114/5 177/113/6 181/112/2
f 178/114/5 181/112/2 182/111/1
f 171/115/12 180/117/3 158/116/25
f 179/119/4 178/114/5 182/111/1
f 179/119/4 182/111/1 157/118/26
f 177/113/6 172/120/11 181/112/2
f 208/129/1 207/130/2 185/131/24
f 208/129/1 185/131/24 186/132/23
f 197/133/12 184/134/25 188/135/21
f 183/136/26 208/129/1 186/132/23
f 183/136/26 186/132/23 187/137/22
f 207/130/2 198/138/11 185/131/24
f 184/134/25 183/136/26 187/137/22
f 184/134/25 187/137/22 188/135/21
f 188/135/21 187/137/22 191/139/18
f 188/135/21 191/139/18 192/140/17
f 186/132/23 185/131/24 189/141/20
f 186/132/23 189/141/20 190/142/19
f 197/133/12 188/135/21 192/140/17
f 187/137/22 186/132/23 190/142/19
f 187/137/22 190/142/19 191/139/18
f 185/131/24 198/138/11 189/141/20
f 192/140/17 191/139/18 195/143/14
f 192/140/17 195/143/14 196/144/13
f 190/142/19 189/141/20 193/145/16
f 190/142/19 193/145/16 194/146/15
f 197/133/12 192/140/17 196/144/13
f 191/139/18 190/142/19 194/146/15
f 191/139/18 194/146/15 195/143/14
f 189/141/20 198/138/11 193/145/16
f 196/144/13 195/143/14 201/139/8
f 196/144/13 201/139/8 202/140/7
f 194/146/15 193/145/16 199/141/10
f 194/146/15 199/141/10 200/142/9
f 197/133/12 196/144/13 202/140/7
f 195/143/14 194/146/15 200/142/9
f 195/143/14 200/142/9 201/139/8
f 193/145/16 198/138/11 199/141/10
f 202/140/7 201/139/8 205/137/4
f 202/140/7 205/137/4 206/135/3
f 200/142/9 199/141/10 203/131/6
f 200/142/9 203/131/6 204/132/5
f 197/133/12 202/140/7 206/135/3
f 201/139/8 200/142/9 204/132/5
f 201/139/8 204/132/5 205/137/4
f 199/141/10 198/138/11 203/131/6
f 206/135/3 205/137/4 183/136/26
f 206/135/3 183/136/26 184/134/25
f 204/132/5 203/131/6 207/130/2
f 204/132/5 207/130/2 208/129/1
f 197/133/12 206/135/3 184/134/25
f 205/137/4 204/132/5 208/129/1
f 205/137/4 208/129/1 183/136/26
f 203/131/6 198/138/11 207/130/2
f 234/147/1 233/148/2 211/149/24
f 234/147/1 211/149/24 212/150/23
f 223/151/12 210/152/25 214/153/21
f 209/154/26 234/147/1 212/150/23
f 209/154/26 212/150/23 213/155/22
f 233/148/2 224/156/11 211/149/24
f 210/152/25 209/154/26 213/155/22
f 210/152/25 213/155/22 214/153/21
f 214/153/21 213/155/22 217/157/18
f 214/153/21 217/157/18 218/158/17
f 212/150/23 211/149/24 215/159/20
f 212/150/23 215/159/20 216/160/19
f 223/151/12 214/153/21 218/158/17
f 213/155/22 212/150/23 216/160/19
f 213/155/22 216/160/19 217/157/18
f 211/149/24 224/156/11 215/159/20
f 218/158/17 217/157/18 221/161/14
f 218/158/17 221/161/14 222/162/13
f 216/160/19 215/159/20 219/163/16
f 216/160/19 219/163/16 220/164/15
f 223/151/12 218/158/17 222/162/13
f 217/157/18 216/160/19 220/164/15
f 217/157/18 220/164/15 221/161/14
f 215/159/20 224/156/11 219/163/16
f 222/162/13 221/161/14 227/157/8
f 222/162/13 227/157/8 228/158/7
f 220/164/15 219/163/16 225/159/10
f 220/164/15 225/159/10 226/160/9
f 223/151/12 222/162/13 228/158/7
f 221/161/14 220/164/15 226/160/9
f 221/161/14 226/160/9 227/157/8
f 219/163/16 224/156/11 225/159/10
f 228/158/7 227/157/8 231/155/4
f 228/158/7 231/155/4 232/153/3
f 226/160/9 225/159/10 229/149/6
f 226/160/9 229/149/6 230/150/5
f 223/151/12 228/158/7 232/153/3
f 227/157/8 226/160/9 230/150/5
f 227/157/8 230/150/5 231/155/4
f 225/159/10 224/156/11 229/149/6
f 232/153/3 231/155/4 209/154/26
f 232/153/3 209/154/26 210/152/25
f 230/150/5 229/149/6 233/148/2
f 230/150/5 233/148/2 234/147/1
f 223/151/12 232/153/3 210/152/25
f 231/155/4 230/150/5 234/147/1
f 231/155/4 234/147/1 209/154/26
f 229/149/6 224/156/11 233/148/2
f 260/165/1 259/166/2 237/167/24
f 260/165/1 237/167/24 238/168/23
f 249/169/12 236/170/25 240/171/21
f 235/172/26 260/165/1 238/168/23
f 235/172/26 238/168/23 239/173/22
f 259/166/2 250/174/11 237/167/24
f 236/170/25 235/172/26 239/173/22
f 236/170/25 239/173/22 240/171/21
f 240/171/21 239/173/22 243/175/18
f 240/171/21 243/175/18 244/176/17
f 238/168/23 237/167/24 241/177/20
f 238/168/23 241/177/20 242/178/19
f 249/169/12 240/171/21 244/176/17
f 239/173/22 238/168/23 242/178/19
f 239/173/22 242/178/19 243/175/18
f 237/167/24 250/174/11 241/177/20
f 244/176/17 243/175/18 247/179/14
f 244/176/17 247/179/14 248/180/13
f 242/178/19 241/177/20 245/181/16
f 242/178/19 245/181/16 246/182/15
f 249/169/12 244/176/17 248/180/13
f 243/175/18 242/178/19 246/182/15
f 243/175/18 246/182/15 247/179/14
f 241/177/20 250/174/11 245/181/16
f 248/180/13 247/179/14 253/175/8
f 248/180/13 253/175/8 254/176/7
f 246/182/15 245/181/16 251/177/10
f 246/182/15 251/177/10 252/178/9
f 249/169/12 248/180/13 254/176/7
f 247/179/14 246/182/15 252/178/9
f 247/179/14 252/178/9 253/175/8
f 245/181/16 250/174/11 251/177/10
f 254/176/7 253/175/8 257/173/4
f 254/176/7 257/173/4 258/171/3
f 252/178/9 251/177/10 255/167/6
f 252/178/9 255/167/6 256/168/5
f 249/169/12 254/176/7 258/171/3
f 253/175/8 252/178/9 256/168/5
f 253/175/8 256/168/5 257/173/4
f 251/177/10 250/174/11 255/167/6
f 258/171/3 257/173/4 235/172/26
f 258/171/3 235/172/26 236/170/25
f 256/168/5 255/167/6 259/166/2
f 256/168/5 259/166/2 260/165/1
f 249/169/12 258/171/3 236/170/25
f 257/173/4 256/168/5 260/165/1
f 257/173/4 260/165/1 235/172/26
f 255/167/6 250/174/11 259/166/2
f 286/183/1 285/184/2 263/185/24
f 286/183/1 263/185/24 264/186/23
f 275/187/12 262/188/25 266/189/21
f 261/190/26 286/183/1 264/186/23
f 261/190/26 264/186/23 265/191/22
f 285/184/2 276/192/11 263/185/24
f 262/188/25 261/190/26 265/191/22
f 262/188/25 265/191/22 266/189/21
f 266/189/21 265/191/22 269/193/18
f 266/189/21 269/193/18 270/194/17
f 264/186/23 263/185/24 267/195/20
f 264/186/23 267/195/20 268/196/19
f 275/187/12 266/189/21 270/194/17
f 265/191/22 264/186/23 268/196/19
f 265/191/22 268/196/19 269/193/18
f 263/185/24 276/192/11 267/195/20
f 270/194/17 269/193/18 273/197/14
f 270/194/17 273/197/14 274/198/13
f 268/196/19 267/195/20 271/199/16
f 268/196/19 271/199/16 272/200/15
f 275/187/12 270/194/17 274/198/13
f 269/193/18 268/196/19 272/200/15
f 269/193/18 272/200/15 273/197/14
f 267/195/20 276/192/11 271/199/16
f 274/198/13 273/197/14 279/193/8
f 274/198/13 279/193/8 280/194/7
f 272/200/15 271/199/16 277/195/10
f 272/200/15 277/195/10 278/196/9
f 275/187/12 274/198/13 280/194/7
f 273/197/14 272/200/15 278/196/9
f 273/197/14 278/196/9 279/193/8
f 271/199/16 276/192/11 277/195/10
f 280/194/7 279/193/8 283/191/4
f 280/194/7 283/191/4 284/189/3
f 278/196/9 277/195/10 281/185/6
f 278/196/9 281/185/6 282/186/5
f 275/187/12 280/194/7 284/189/3
f 279/193/8 278/196/9 282/186/5
f 279/193/8 282/186/5 283/191/4
f 277/195/10 276/192/11 281/185/6
f 284/189/3 283/191/4 261/190/26
f 284/189/3 261/190/26 262/188/25
f 282/186/5 281/185/6 285/184/2
f 282/186/5 285/184/2 286/183/1
f 275/187/12 284/189/3 262/188/25
f 283/191/4 282/186/5 286/183/1
f 283/191/4 286/183/1 261/190/26
f 281/185/6 276/192/11 285/184/2
f 312/201/1 311/202/2 289/203/24
f 312/201/1 289/203/24 290/204/23
f 301/205/12 288/206/25 292/207/21
f 287/208/26 312/201/1 290/204/23
f 287/208/26 290/204/23 291/209/22
f 311/202/2 302/210/11 289/203/24
f 288/206/25 287/208/26 291/209/22
f 288/206/25 291/209/22 292/207/21
f 292/207/21 291/209/22 295/211/18
f 292/207/21 295/211/18 296/212/17
f 290/204/23 289/203/24 293/213/20
f 290/204/23 293/213/20 294/214/19
f 301/205/12 292/207/21 296/212/17
f 291/209/22 290/204/23 294/214/19
f 291/209/22 294/214/19 295/211/18
f 289/203/24 302/210/11 293/213/20
f 296/212/17 295/211/18 299/215/14
f 296/212/17 299/215/14 300/216/13
f 294/214/19 293/213/20 297/217/16
f 294/214/19 297/217/16 298/218/15
f 301/205/12 296/212/17 300/216/13
f 295/211/18 294/214/19 298/218/15
f 295/211/18 298/218/15 299/215/14
f 293/213/20 302/210/11 297/217/16
f 300/216/13 299/215/14 305/211/8
f 300/216/13 305/211/8 306/212/7
f 298/218/15 297/217/16 303/213/10
f 298/218/15 303/213/10 304/214/9
f 301/205/12 300/216/13 306/212/7
f 299/215/14 298/218/15 304/214/9
f 299/215/14 304/214/9 305/211/8
f 297/217/16 302/210/11 303/213/10
f 306/212/7 305/211/8 309/209/4
f 306/212/7 309/209/4 310/207/3
f 304/214/9 303/213/10 307/203/6
f 304/214/9 307/203/6 308/204/5
f 301/205/12 306/212/7 310/207/3
f 305/211/8 304/214/9 308/204/5
f 305/211/8 308/204/5 309/209/4
f 303/213/10 302/210/11 307/203/6
f 310/207/3 309/209/4 287/208/26
f 310/207/3 287/208/26 288/206/25
f 308/204/5 307/203/6 311/202/2
f 308/204/5 311/202/2 312/201/1
f 301/205/12 310/207/3 288/206/25
f 309/209/4 308/204/5 312/201/1
f 309/209/4 312/201/1 287/208/26
f 307/203/6 302/210/11 311/202/2
f 338/219/1 337/220/2 315/221/24
f 338/219/1 315/221/24 316/222/23
f 327/223/12 314/224/25 318/225/21
f 313/226/26 338/219/1 316/222/23
f 313/226/26 316/222/23 317/227/22
f 337/220/2 328/228/11 315/221/24
f 314/224/25 313/226/26 317/227/22
f 314/224/25 317/227/22 318/225/21
f 318/225/21 317/227/22 321/229/18
f 318/225/21 321/229/18 322/230/17
f 316/222/23 315/221/24 319/231/20
f 316/222/23 319/231/20 320/232/19
f 327/223/12 318/225/21 322/230/17
f 317/227/22 316/222/23 320/232/19
f 317/227/22 320/232/19 321/229/18
f 315/221/24 328/228/11 319/231/20
f 322/230/17 321/229/18 325/233/14
f 322/230/17 325/233/14 326/234/13
f 320/232/19 319/231/20 323/235/16
f 320/232/19 323/235/16 324/236/15
f 327/223/12 322/230/17 326/234/13
f 321/229/18 320/232/19 324/236/15
f 321/229/18 324/236/15 325/233/14
f 319/231/20 328/228/11 323/235/16
f 326/234/13 325/233/14 331/229/8
f 326/234/13 331/229/8 332/230/7
f 324/236/15 323/235/16 329/231/10
f 324/236/15 329/231/10 330/232/9
f 327/223/12 326/234/13 332/230/7
f 325/233/14 324/236/15 330/232/9
f 325/233/14 330/232/9 331/229/8
f 323/235/16 328/228/11 329/231/10
f 332/230/7 331/229/8 335/227/4
f 332/230/7 335/227/4 336/225/3
f 330/232/9 329/231/10 333/221/6
f 330/232/9 333/221/6 334/222/5
f 327/223/12 332/230/7 336/225/3
f 331/229/8 330/232/9 334/222/5
f 331/229/8 334/222/5 335/227/4
f 329/231/10 328/228/11 333/221/6
f 336/225/3 335/227/4 313/226/26
f 336/225/3 313/226/26 314/224/25
f 334/222/5 333/221/6 337/220/2
f 334/222/5 337/220/2 338/219/1
f 327/223/12 336/225/3 314/224/25
f 335/227/4 334/222/5 338/219/1
f 335/227/4 338/219/1 313/226/26
f 333/221/6 328/228/11 337/220/2
f 364/237/1 363/238/2 341/239/24
f 364/237/1 341/239/24 342/240/23
f 353/241/12 340/242/25 344/243/21
f 339/244/26 364/237/1 342/240/23
f 339/244/26 342/240/23 343/245/22
f 363/238/2 354/246/11 341/239/24
f 340/242/25 339/244/26 343/245/22
f 340/242/25 343/245/22 344/243/21
f 344/243/21 343/245/22 347/247/18
f 344/243/21 347/247/18 348/248/17
f 342/240/23 341/239/24 345/249/20
f 342/240/23 345/249/20 346/250/19
f 353/241/12 344/243/21 348/248/17
f 343/245/22 342/240/23 346/250/19
f 343/245/22 346/250/19 347/247/18
f 341/239/24 354/246/11 345/249/20
f 348/248/17 347/247/18 351/251/14
f 348/248/17 351/251/14 352/252/13
f 346/250/19 345/249/20 349/253/16
f 346/250/19 349/253/16 350/254/15
f 353/241/12 348/248/17 352/252/13
f 347/247/18 346/250/19 350/254/15
f 347/247/18 350/254/15 351/251/14
f 345/249/20 354/246/11 349/253/16
f 352/252/13 351/251/14 357/247/8
f 352/252/13 357/247/8 358/248/7
f 350/254/15 349/253/16 355/249/10
f 350/254/15 355/249/10 356/250/9
f 353/241/12 352/252/13 358/248/7
f 351/251/14 350/254/15 356/250/9
f 351/251/14 356/250/9 357/247/8
f 349/253/16 354/246/11 355/249/10
f 358/248/7 357/247/8 361/245/4
f 358/248/7 361/245/4 362/243/3
f 356/250/9 355/249/10 359/239/6
f 356/250/9 359/239/6 360/240/5
f 353/241/12 358/248/7 362/243/3
f 357/247/8 356/250/9 360/240/5
f 357/247/8 360/240/5 361/245/4
f 355/249/10 354/246/11 359/239/6
f 362/243/3 361/245/4 339/244/26
f 362/243/3 339/244/26 340/242/25
f 360/240/5 359/239/6 363/238/2
f 360/240/5 363/238/2 364/237/1
f 353/241/12 362/243/3 340/242/25
f 361/245/4 360/240/5 364/237/1
f 361/245/4 364/237/1 339/244/26
f 359/239/6 354/246/11 363/238/2
f 390/255/1 389/256/2 367/257/24
f 390/255/1 367/257/24 368/258/23
f 379/259/12 366/260/25 370/261/21
f 365/262/26 390/255/1 368/258/23
f 365/262/26 368/258/23 369/263/22
f 389/256/2 380/264/11 367/257/24
f 366/260/25 365/262/26 369/263/22
f 366/260/25 369/263/22 370/261/21
f 370/261/21 369/263/22 373/265/18
f 370/261/21 373/265/18 374/266/17
f 368/258/23 367/257/24 371/267/20
f 368/258/23 371/267/20 372/268/19
f 379/259/12 370/261/21 374/266/17
f 369/263/22 368/258/23 372/268/19
f 369/263/22 372/268/19 373/265/18
f 367/257/24 380/264/11 371/267/20
f 374/266/17 373/265/18 377/269/14
f 374/266/17 377/269/14 378/270/13
f 372/268/19 371/267/20 375/271/16
f 372/268/19 375/271/16 376/272/15
f 379/259/12 374/266/17 378/270/13
f 373/265/18 372/268/19 376/272/15
f 373/265/18 376/272/15 377/269/14
f 371/267/20 380/264/11 375/271/16
f 378/270/13 377/269/14 383/265/8
f 378/270/13 383/265/8 384/266/7
f 376/272/15 375/271/16 381/267/10
f 376/272/15 381/267/10 382/268/9
f 379/259/12 378/270/13 384/266/7
f 377/269/14 376/272/15 382/268/9
f 377/269/14 382/268/9 383/265/8
f 375/271/16 380/264/11 381/267/10
f 384/266/7 383/265/8 387/263/4
f 384/266/7 387/263/4 388/261/3
f 382/268/9 381/267/10 385/257/6
f 382/268/9 385/257/6 386/258/5
f 379/259/12 384/266/7 388/261/3
f 383/265/8 382/268/9 386/258/5
f 383/265/8 386/258/5 387/263/4
f 381/267/10 380/264/11 385/257/6
f 388/261/3 387/263/4 365/262/26
f 388/261/3 365/262/26 366/260/25
f 386/258/5 385/257/6 389/256/2
f 386/258/5 389/256/2 390/255/1
f 379/259/12 388/261/3 366/260/25
f 387/263/4 386/258/5 390/255/1
f 387/263/4 390/255/1 365/262/26
f 385/257/6 380/264/11 389/256/2
f 416/273/1 415/274/2 393/275/24
f 416/273/1 393/275/24 394/276/23
f 405/277/12 392/278/25 396/279/21
f 391/280/26 416/273/1 394/276/23
f 391/280/26 394/276/23 395/281/22
f 415/274/2 406/282/11 393/275/24
f 392/278/25 391/280/26 395/281/22
f 392/278/25 395/281/22 396/279/21
f 396/279/21 395/281/22 399/283/18
f 396/279/21 399/283/18 400/284/17
f 394/276/23 393/275/24 397/285/20
f 394/276/23 397/285/20 398/286/19
f 405/277/12 396/279/21 400/284/17
f 395/281/22 394/276/23 398/286/19
f 395/281/22 398/286/19 399/283/18
f 393/275/24 406/282/11 397/285/20
f 400/284/17 399/283/18 403/287/14
f 400/284/17 403/287/14 404/288/13
f 398/286/19 397/285/20 401/289/16
f 398/286/19 401/289/16 402/290/15
f 405/277/12 400/284/17 404/288/13
f 399/283/18 398/286/19 402/290/15
f 399/283/18 402/290/15 403/287/14
f 397/285/20 406/282/11 401/289/16
f 404/288/13 403/287/14 409/283/8
f 404/288/13 409/283/8 410/284/7
f 402/290/15 401/289/16 407/285/10
f 402/290/15 407/285/10 408/286/9
f 405/277/12 404/288/13 410/284/7
f 403/287/14 402/290/15 408/286/9
f 403/287/14 408/286/9 409/283/8
f 401/289/16 406/282/11 407/285/10
f 410/284/7 409/283/8 413/281/4
f 410/284/7 413/281/4 414/279/3
f 408/286/9 407/285/10 411/275/6
f 408/286/9 411/275/6 412/276/5
f 405/277/12 410/284/7 414/279/3
f 409/283/8 408/286/9 412/276/5
f 409/283/8 412/276/5 413/281/4
f 407/285/10 406/282/11 411/275/6
f 414/279/3 413/281/4 391/280/26
f 414/279/3 391/280/26 392/278/25
f 412/276/5 411/275/6 415/274/2
f 412/276/5 415/274/2 416/273/1
f 405/277/12 414/279/3 392/278/25
f 413/281/4 412/276/5 416/273/1
f 413/281/4 416/273/1 391/280/26
f 411/275/6 406/282/11 415/274/2
f 442/291/1 441/292/2 419/293/24
f 442/291/1 419/293/24 420/294/23
f 431/295/12 418/296/25 422/297/21
f 417/298/26 442/291/1 420/294/23
f 417/298/26 420/294/23 421/299/22
f 441/292/2 432/300/11 419/293/24
f 418/296/25 417/298/26 421/299/22
f 418/296/25 421/299/22 422/297/21
f 422/297/21 421/299/22 425/301/18
f 422/297/21 425/301/18 426/302/17
f 420/294/23 419/293/24 423/303/20
f 420/294/23 423/303/20 424/304/19
f 431/295/12 422/297/21 426/302/17
f 421/299/22 420/294/23 424/304/19
f 421/299/22 424/304/19 425/301/18
f 419/293/24 432/300/11 423/303/20
f 426/302/17 425/301/18 429/305/14
f 426/302/17 429/305/14 430/306/13
f 424/304/19 423/303/20 427/307/16
f 424/304/19 427/307/16 428/308/15
f 431/295/12 426/302/17 430/306/13
f 425/301/18 424/304/19 428/308/15
f 425/301/18 428/308/15 429/305/14
f 423/303/20 432/300/11 427/307/16
f 430/306/13 429/305/14 435/301/8
f 430/306/13 435/301/8 436/302/7
f 428/308/15 427/307/16 433/303/10
f 428/308/15 433/303/10 434/304/9
f 431/295/12 430/306/13 436/302/7
f 429/305/14 428/308/15 434/304/9
f 429/305/14 434/304/9 435/301/8
f 427/307/16 432/300/11 433/303/10
f 436/302/7 435/301/8 439/299/4
f 436/302/7 439/299/4 440/297/3
f 434/304/9 433/303/10 437/293/6
f 434/304/9 437/293/6 438/294/5
f 431/295/12 436/302/7 440/297/3
f 435/301/8 434/304/9 438/294/5
f 435/301/8 438/294/5 439/299/4
f 433/303/10 432/300/11 437/293/6
f 440/297/3 439/299/4 417/298/26
f 440/297/3 417/298/26 418/296/25
f 438/294/5 437/293/6 441/292/2
f 438/294/5 441/292/2 442/291/1
f 431/295/12 440/297/3 418/296/25
f 439/299/4 438/294/5 442/291/1
f 439/299/4 442/291/1 417/298/26
f 437/293/6 432/300/11 441/292/2
