# Blender 4.5.5 LTS
# www.blender.org
o Rat
v -0.037474 0.335369 -6.487821
v -0.053495 0.328347 -6.500292
v -0.067628 0.294793 -6.428875
v -0.088598 0.286314 -6.445158
v -0.088345 0.381097 -6.485102
v -0.094780 0.378441 -6.491423
v -0.018737 0.320006 -6.426806
v -0.075461 0.293033 -6.474771
v -0.109777 0.374637 -6.470407
v -0.103452 0.377221 -6.464763
v -0.067832 0.367188 -6.494910
v -0.076750 0.363501 -6.502973
v -0.096371 0.356843 -6.478629
v -0.113901 0.349793 -6.452571
v -0.106362 0.352989 -6.446701
v -0.070708 0.367903 -6.458508
v 0.031392 0.332116 -6.483389
v 0.048114 0.323646 -6.493744
v 0.086046 0.372337 -6.473918
v 0.092970 0.368990 -6.479385
v 0.097998 0.366996 -6.451853
v 0.049695 0.288178 -6.421408
v 0.071453 0.276829 -6.435008
v 0.002988 0.319134 -6.425396
v 0.063109 0.284907 -6.465977
v 0.104727 0.363726 -6.456663
v 0.065634 0.360542 -6.486346
v 0.075103 0.355958 -6.493228
v 0.090791 0.347286 -6.466639
v 0.104082 0.338444 -6.438624
v 0.096199 0.342472 -6.433738
v 0.063732 0.361270 -6.449878
v -0.036149 0.266573 -6.563690
v -0.057857 0.275384 -6.572106
v -0.026015 0.289942 -6.566025
v -0.047688 0.298594 -6.574423
v -0.028759 0.295725 -6.552986
v -0.050434 0.304357 -6.561387
v -0.040893 0.276585 -6.541397
v -0.062571 0.285285 -6.549797
v 0.032048 0.261989 -6.559408
v 0.055563 0.267657 -6.564992
v 0.025434 0.286379 -6.562803
v 0.048985 0.291944 -6.568365
v 0.027281 0.291825 -6.549477
v 0.050830 0.297379 -6.555042
v 0.035162 0.271373 -6.536629
v 0.058709 0.276975 -6.542194
v -0.110407 0.339873 -6.241911
v -0.021897 0.382729 -6.248259
v -0.012903 0.105419 -6.237426
v -0.083606 0.157536 -6.247630
v -0.126282 0.259120 -6.244853
v -0.136380 0.209668 -6.162878
v -0.125664 0.342065 -6.158751
v -0.032297 0.408905 -6.157159
v -0.102588 0.335797 -6.340821
v -0.015807 0.370407 -6.343016
v -0.015892 0.127894 -6.324986
v -0.062838 0.163688 -6.341151
v -0.130471 0.275688 -6.330282
v -0.019571 0.145352 -6.376473
v -0.093252 0.198571 -6.382927
v -0.127933 0.281822 -6.364250
v -0.072027 0.347872 -6.427605
v -0.006302 0.376466 -6.423278
v -0.016793 0.179541 -6.427320
v -0.077899 0.215089 -6.430266
v -0.102473 0.284700 -6.428292
v -0.057556 0.336321 -6.493752
v 0.000508 0.357906 -6.497289
v -0.015929 0.189755 -6.449717
v -0.068679 0.218576 -6.459956
v -0.086756 0.278078 -6.478251
v -0.042754 0.286611 -6.597232
v 0.002940 0.302858 -6.600635
v -0.010820 0.167280 -6.559028
v -0.052484 0.190743 -6.567811
v -0.065737 0.240137 -6.583690
v -0.016832 0.240752 -6.663348
v 0.002287 0.247161 -6.664733
v -0.003442 0.191083 -6.646912
v -0.020904 0.200893 -6.650678
v -0.026441 0.221552 -6.657516
v 0.001332 0.226573 -6.676837
v -0.000963 0.204149 -6.669648
v -0.008524 0.216526 -6.673930
v -0.136500 0.212945 -6.110421
v -0.130521 0.345663 -6.057241
v -0.086962 0.067887 -6.083251
v 0.006520 0.056401 -6.084880
v -0.043180 0.414930 -6.035263
v -0.109465 0.165847 -5.859319
v -0.110489 0.262748 -5.857876
v -0.062579 0.083979 -5.859849
v -0.037883 0.323190 -5.835279
v -0.091364 0.157147 -5.839853
v -0.042909 0.090889 -5.844680
v 0.033600 0.076182 -5.855132
v -0.020913 0.106306 -5.789990
v -0.011771 0.133281 -5.782061
v -0.000597 0.075125 -5.792256
v -0.091459 0.120471 -6.290030
v -0.119116 0.121421 -6.285695
v -0.141278 0.131684 -6.333861
v -0.084316 0.126458 -6.344759
v -0.137125 0.136436 -6.369991
v -0.103692 0.133366 -6.376477
v -0.130669 0.041817 -6.385748
v -0.129167 0.044026 -6.401446
v -0.114629 0.043333 -6.404610
v -0.105974 0.040515 -6.391024
v -0.109152 0.036942 -6.367332
v -0.120909 0.038317 -6.364789
v -0.136304 -0.002271 -6.419088
v -0.111140 -0.002425 -6.419525
v -0.117586 -0.001679 -6.397703
v -0.129575 -0.001398 -6.396278
v -0.008110 0.093589 -5.680524
v -0.003113 0.064094 -5.688260
v -0.012859 0.082169 -5.575181
v -0.008710 0.050994 -5.574277
v -0.015274 0.067640 -5.428108
v -0.011458 0.040472 -5.429976
v -0.019079 0.058633 -5.272308
v -0.016533 0.039408 -5.271571
v -0.027012 0.056006 -5.091498
v -0.025609 0.045414 -5.091093
v -0.025263 0.044689 -5.048188
v -0.141980 0.230465 -5.979554
v -0.037914 0.101851 -5.971817
v 0.021145 0.071937 -5.980231
v -0.038629 0.387216 -5.937055
v -0.120081 0.319660 -5.959277
v -0.090309 0.025044 -5.975086
v -0.092332 0.070352 -5.953924
v -0.108342 0.071856 -5.951355
v -0.122121 0.032048 -5.980484
v -0.116466 0.017339 -5.988331
v -0.100432 0.015362 -5.986307
v -0.093424 0.005660 -5.952289
v -0.103672 0.015081 -5.935575
v -0.118817 0.016760 -5.936544
v -0.126527 0.006579 -5.953657
v -0.135148 0.018756 -6.400360
v -0.131919 0.019988 -6.415560
v -0.116992 0.019940 -6.416246
v -0.110295 0.017825 -6.404708
v -0.113041 0.017881 -6.382413
v -0.124945 0.018583 -6.379768
v -0.092093 0.017840 -5.955935
v -0.099853 0.031496 -5.948292
v -0.114735 0.034918 -5.950180
v -0.124430 0.022484 -5.960077
v -0.117894 0.022597 -5.970668
v -0.101406 0.022482 -5.970253
v -0.141316 0.011925 -6.441177
v -0.134369 0.013962 -6.455954
v -0.134442 -0.001973 -6.474365
v -0.140916 -0.001973 -6.459861
v -0.113799 0.013962 -6.455954
v -0.113871 -0.001973 -6.474365
v -0.106621 0.011625 -6.441726
v -0.105926 -0.001973 -6.459861
v -0.131851 0.013916 -6.001430
v -0.120279 0.017391 -6.024889
v -0.120279 0.001013 -6.037440
v -0.131325 0.002281 -6.019217
v -0.098728 0.017391 -6.024889
v -0.098728 0.001013 -6.037441
v -0.088497 0.012857 -6.000840
v -0.087803 0.002281 -6.019217
v 0.065805 0.350754 -6.244054
v 0.053535 0.191202 -6.222110
v 0.077875 0.295787 -6.245198
v 0.122949 0.269666 -6.171781
v 0.076710 0.374286 -6.160656
v 0.063717 0.336934 -6.334754
v 0.026823 0.169350 -6.310030
v 0.071084 0.288912 -6.326397
v 0.047271 0.195244 -6.360209
v 0.072046 0.283787 -6.359983
v 0.057228 0.343528 -6.419147
v 0.045082 0.207099 -6.420866
v 0.073538 0.278618 -6.419334
v 0.053901 0.328310 -6.486794
v 0.040659 0.209479 -6.452675
v 0.070077 0.266669 -6.468891
v 0.044604 0.279396 -6.591852
v 0.034874 0.183528 -6.562432
v 0.057857 0.229930 -6.576078
v 0.019788 0.237728 -6.661093
v 0.015716 0.197868 -6.648423
v 0.025347 0.217275 -6.654326
v 0.008984 0.215080 -6.672852
v 0.126271 0.261045 -6.121268
v 0.069151 0.396927 -6.057851
v 0.103088 0.108886 -6.118215
v 0.110877 0.220061 -5.839882
v 0.060186 0.311788 -5.838626
v 0.102577 0.119269 -5.866414
v 0.091068 0.208007 -5.817885
v 0.085002 0.125717 -5.833390
v 0.044107 0.125911 -5.780585
v 0.020109 0.142894 -5.777449
v 0.045379 0.088988 -5.785606
v 0.066732 0.147229 -6.245671
v 0.093884 0.154215 -6.244689
v 0.109359 0.149765 -6.296066
v 0.052448 0.137538 -6.296980
v 0.100833 0.142092 -6.331120
v 0.067378 0.135013 -6.331651
v 0.100749 0.046408 -6.314512
v 0.096826 0.042740 -6.329370
v 0.082067 0.040490 -6.329785
v 0.075764 0.042491 -6.314872
v 0.082263 0.047256 -6.292447
v 0.094081 0.049978 -6.292195
v 0.106810 -0.002471 -6.332916
v 0.081600 -0.002940 -6.332810
v 0.089066 -0.000267 -6.309938
v 0.101114 0.000621 -6.309732
v 0.012295 0.099741 -5.677573
v 0.026313 0.072967 -5.684003
v 0.008444 0.088573 -5.573650
v 0.022010 0.060229 -5.572069
v 0.003354 0.073280 -5.427150
v 0.015405 0.048606 -5.428595
v -0.005934 0.062582 -5.271439
v 0.002423 0.045103 -5.270318
v -0.016094 0.056781 -5.140252
v -0.015165 0.048551 -5.090402
v -0.019770 0.058182 -5.091020
v -0.020235 0.046199 -5.047856
v 0.133922 0.256714 -5.991023
v 0.070334 0.108607 -5.990152
v 0.070873 0.372058 -5.955551
v 0.097903 0.036452 -6.041628
v 0.110888 0.065741 -6.000518
v 0.126046 0.064813 -5.998665
v 0.131664 0.034490 -6.042285
v 0.122764 0.028617 -6.057944
v 0.106143 0.029494 -6.057165
v 0.092717 0.003587 -6.025040
v 0.103710 0.009494 -6.006432
v 0.119109 0.008845 -6.006458
v 0.126222 0.003334 -6.025699
v 0.105232 0.019565 -6.319308
v 0.101688 0.018699 -6.330940
v 0.086905 0.018614 -6.330670
v 0.080097 0.016533 -6.319882
v 0.085897 0.024497 -6.300108
v 0.097934 0.026412 -6.299802
v 0.093147 0.021328 -6.026882
v 0.104774 0.030154 -6.014030
v 0.120167 0.029213 -6.014092
v 0.126608 0.018958 -6.027944
v 0.117765 0.022938 -6.040713
v 0.101236 0.023698 -6.040626
v 0.111562 0.011232 -6.355268
v 0.104935 0.013962 -6.369946
v 0.105007 -0.001973 -6.388357
v 0.111482 -0.001973 -6.373853
v 0.084365 0.013962 -6.369946
v 0.084437 -0.001973 -6.388357
v 0.076680 0.010276 -6.355233
v 0.076492 -0.001973 -6.373853
v 0.131146 0.017763 -6.072437
v 0.120279 0.024318 -6.094692
v 0.120279 0.009807 -6.109363
v 0.131325 0.008575 -6.091137
v 0.098728 0.024318 -6.094692
v 0.098728 0.009807 -6.109363
v 0.087616 0.017703 -6.072351
v 0.087803 0.008574 -6.091137
v 0.084178 0.236337 -6.315743
v 0.081367 0.216853 -6.347345
v 0.083312 0.218675 -6.244774
v -0.128955 0.208599 -6.367874
v -0.133395 0.213408 -6.333818
v -0.120668 0.171335 -6.272745
v -0.109612 0.094831 -5.859334
v -0.118367 0.057595 -6.082348
v -0.130827 0.101630 -5.990859
v 0.137702 0.098555 -6.122716
v 0.135169 0.113999 -5.890073
v 0.152528 0.126168 -6.021918
vn 0.7052 0.6306 -0.3240
vn -0.0819 -0.0281 -0.9962
vn -0.3057 0.1665 0.9375
vn -0.9162 -0.3081 0.2561
vn 0.1615 0.9775 -0.1360
vn -0.4956 0.5209 -0.6950
vn 0.2838 0.6372 0.7166
vn -0.7234 -0.3281 -0.6075
vn -0.8840 0.4383 -0.1628
vn -0.2721 0.8445 0.4613
vn 0.5718 0.6879 -0.4470
vn -0.1182 0.2091 -0.9707
vn -0.7135 -0.3154 -0.6256
vn -0.9782 -0.0537 0.2007
vn -0.4145 0.3138 0.8542
vn 0.3626 0.7740 0.5191
vn -0.5877 0.6997 -0.4061
vn 0.1988 -0.0357 -0.9794
vn -0.0405 0.9881 -0.1487
vn 0.6301 0.4652 -0.6218
vn 0.2974 0.8136 0.4996
vn 0.2038 0.1339 0.9698
vn 0.8432 -0.3961 0.3634
vn -0.3025 0.6658 0.6821
vn 0.7583 -0.3994 -0.5152
vn 0.9372 0.3460 -0.0447
vn -0.4351 0.7403 -0.5125
vn 0.2593 0.1936 -0.9462
vn 0.7507 -0.3859 -0.5362
vn 0.9344 -0.1507 0.3229
vn 0.3335 0.2734 0.9022
vn -0.3421 0.8111 0.4745
vn 0.3834 -0.8933 -0.2344
vn -0.6080 -0.4955 -0.6203
vn 0.8920 0.1256 -0.4342
vn -0.1372 0.5355 -0.8333
vn 0.6975 0.5302 0.4821
vn -0.3305 0.9401 0.0830
vn 0.1409 -0.3852 0.9120
vn -0.8499 0.0119 0.5267
vn -0.4667 -0.8359 -0.2888
vn 0.6082 -0.5783 -0.5437
vn -0.8057 0.2400 -0.5415
vn 0.3113 0.5050 -0.8050
vn -0.6753 0.6227 0.3953
vn 0.4416 0.8874 0.1320
vn -0.3054 -0.3553 0.8834
vn 0.7708 -0.0992 0.6293
vn -0.7998 0.5816 -0.1483
vn -0.0597 0.9793 -0.1933
vn 0.1291 -0.9191 -0.3722
vn -0.5955 -0.7971 0.1003
vn -0.9998 0.0039 -0.0173
vn -0.9698 -0.1966 -0.1445
vn -0.8594 0.4974 -0.1180
vn -0.1595 0.9716 -0.1748
vn -0.7254 0.6823 -0.0905
vn -0.0075 0.9993 -0.0371
vn 0.1066 -0.9641 -0.2430
vn 0.0768 -0.9182 -0.3887
vn -0.9746 0.2209 0.0368
vn 0.0291 -0.9314 -0.3627
vn -0.4500 -0.4166 -0.7899
vn -0.9479 0.1880 -0.2572
vn -0.6402 0.7421 -0.1987
vn 0.0429 0.9946 -0.0946
vn 0.0026 -0.9218 -0.3875
vn -0.7245 -0.5746 -0.3806
vn -0.9419 0.0840 -0.3251
vn -0.6394 0.6874 -0.3444
vn 0.0876 0.9311 -0.3540
vn -0.0728 -0.9944 -0.0766
vn -0.7715 -0.6186 -0.1488
vn -0.9654 0.0564 -0.2545
vn -0.6375 0.5874 -0.4986
vn 0.1004 0.8257 -0.5551
vn -0.0802 -0.9966 -0.0179
vn -0.7419 -0.6565 -0.1363
vn -0.9462 -0.0179 -0.3231
vn -0.5433 0.4360 -0.7174
vn 0.1001 0.6519 -0.7517
vn -0.0501 -0.9115 -0.4082
vn -0.6353 -0.6204 -0.4600
vn -0.8007 -0.0800 -0.5937
vn 0.0719 0.1340 -0.9884
vn -0.0149 -0.7072 -0.7068
vn -0.4158 -0.2589 -0.8718
vn -0.9959 -0.0763 -0.0481
vn -0.8693 0.4925 0.0414
vn -0.1129 -0.8694 -0.4811
vn 0.1399 -0.9852 -0.0993
vn -0.2442 0.9639 0.1060
vn -0.8523 -0.0804 0.5169
vn -0.7770 0.2694 0.5690
vn -0.2740 -0.8462 0.4570
vn -0.2550 0.6149 0.7462
vn -0.6598 -0.2109 0.7212
vn -0.5140 -0.8125 0.2750
vn 0.2497 -0.9683 -0.0041
vn -0.8780 -0.2466 0.4103
vn -0.6022 0.3761 0.7043
vn -0.3256 -0.9432 0.0662
vn 0.5191 -0.6372 0.5696
vn -0.6059 -0.4330 0.6674
vn -0.9866 -0.0746 0.1454
vn 0.9363 -0.2701 -0.2245
vn -0.7891 0.1000 -0.6061
vn 0.3646 0.0333 -0.9305
vn -0.9856 -0.0750 0.1513
vn -0.7014 0.3129 -0.6404
vn 0.4418 0.3029 -0.8444
vn 0.9716 -0.0973 -0.2155
vn 0.6504 -0.5644 0.5084
vn -0.4716 -0.5539 0.6861
vn -0.6571 -0.7403 0.1422
vn 0.6483 -0.7540 0.1053
vn 0.4745 -0.7913 0.3856
vn -0.4715 -0.7378 0.4832
vn -0.8858 0.4441 0.1346
vn -0.4661 -0.8804 -0.0876
vn -0.8471 0.5308 0.0276
vn -0.5357 -0.8390 -0.0958
vn -0.8458 0.5329 0.0246
vn -0.5299 -0.8467 -0.0475
vn -0.8269 0.5623 -0.0041
vn -0.5342 -0.8453 -0.0111
vn -0.8230 0.5651 0.0568
vn -0.5582 -0.8297 -0.0039
vn -0.5104 -0.2749 0.8148
vn -0.9948 0.0245 0.0993
vn 0.1585 -0.9805 0.1163
vn 0.1796 -0.9782 0.1041
vn -0.2499 0.8855 0.3917
vn -0.8632 0.4401 0.2474
vn 0.7422 -0.6688 0.0444
vn 0.3402 -0.7286 0.5944
vn -0.6517 -0.4653 0.5990
vn -0.9804 -0.1964 0.0145
vn -0.4952 -0.8623 -0.1057
vn 0.3569 -0.9296 -0.0919
vn 0.6431 -0.6582 0.3913
vn 0.3260 -0.1903 0.9260
vn -0.4871 -0.0807 0.8696
vn -0.7158 -0.6100 0.3399
vn -0.9835 0.0367 0.1772
vn -0.4550 0.8306 -0.3209
vn 0.3553 0.8264 -0.4369
vn 0.9977 -0.0134 -0.0670
vn 0.6443 -0.5397 0.5418
vn -0.4885 -0.4765 0.7309
vn 0.9540 0.0246 0.2989
vn 0.5995 0.2302 0.7666
vn -0.6124 0.3931 0.6859
vn -0.9549 0.2503 0.1596
vn -0.9340 0.3496 -0.0732
vn 0.9838 0.0043 0.1791
vn -0.9048 0.4251 -0.0263
vn -0.4199 0.8102 -0.4089
vn -0.4393 -0.2937 -0.8490
vn -0.8255 -0.5125 -0.2366
vn 0.3890 0.8240 -0.4120
vn 0.4206 -0.2982 -0.8569
vn 0.8884 0.4560 -0.0525
vn 0.8329 -0.4833 -0.2696
vn -0.8488 0.5260 -0.0532
vn -0.3758 0.7981 -0.4711
vn -0.4331 -0.3939 -0.8107
vn -0.8320 -0.4898 -0.2606
vn 0.3972 0.7983 -0.4527
vn 0.4231 -0.3945 -0.8157
vn 0.8932 0.4480 -0.0388
vn 0.8376 -0.4893 -0.2428
vn 0.7075 0.6718 -0.2193
vn 0.7687 -0.6378 0.0478
vn 0.9714 0.1394 -0.1924
vn 0.9498 0.0534 -0.3083
vn 0.6654 0.7251 -0.1771
vn 0.8003 0.5980 -0.0447
vn 0.1119 -0.9646 -0.2386
vn 0.9875 0.1485 -0.0537
vn 0.5338 -0.6004 -0.5955
vn 0.9932 0.0530 -0.1041
vn 0.7655 0.6401 -0.0660
vn 0.7563 -0.6340 -0.1615
vn 0.9968 -0.0566 -0.0560
vn 0.7824 0.5746 -0.2403
vn 0.6962 -0.7177 -0.0114
vn 0.9920 -0.1008 -0.0759
vn 0.7816 0.4704 -0.4097
vn 0.6396 -0.7672 -0.0474
vn 0.9643 -0.1750 -0.1989
vn 0.6906 0.3341 -0.6415
vn 0.5766 -0.7205 -0.3853
vn 0.8432 -0.2157 -0.4925
vn 0.4710 -0.3322 -0.8172
vn 0.9782 0.1874 -0.0893
vn 0.5873 0.8087 0.0322
vn 0.1721 -0.6202 -0.7653
vn 0.8559 0.1720 0.4877
vn 0.4671 0.5788 0.6684
vn 0.5565 -0.6841 0.4716
vn 0.6117 0.1008 0.7847
vn 0.8021 -0.4527 0.3895
vn 0.7468 0.2250 0.6258
vn 0.1067 0.5857 0.8035
vn 0.7521 -0.6197 0.2244
vn -0.3816 -0.4346 0.8158
vn 0.7173 -0.0945 0.6903
vn 0.9970 0.0726 0.0249
vn -0.9117 -0.4107 0.0095
vn 0.7230 -0.0203 -0.6905
vn -0.4213 -0.3042 -0.8544
vn 0.9994 0.0268 0.0208
vn 0.5814 0.0724 -0.8104
vn -0.5403 -0.0694 -0.8386
vn -0.9764 -0.2116 -0.0421
vn -0.5311 -0.3810 0.7569
vn 0.6058 -0.2613 0.7515
vn 0.6678 -0.7264 0.1626
vn -0.6214 -0.7681 0.1546
vn -0.3985 -0.7146 0.5750
vn 0.5295 -0.6197 0.5793
vn 0.4209 0.8630 0.2794
vn 0.8709 -0.4875 0.0617
vn 0.3947 0.9120 0.1114
vn 0.9150 -0.4034 -0.0011
vn 0.4050 0.9091 0.0979
vn 0.9110 -0.4108 0.0367
vn 0.4332 0.8983 0.0734
vn 0.9085 -0.4100 0.0809
vn -0.7427 0.6685 -0.0388
vn 0.9176 -0.3864 0.0936
vn 0.3604 0.9232 0.1334
vn 0.4746 0.0210 0.8799
vn 0.9546 0.2854 0.0857
vn -0.0536 -0.9874 0.1488
vn 0.5901 0.7569 0.2809
vn -0.9698 -0.1934 -0.1485
vn -0.4226 -0.6856 0.5928
vn 0.6113 -0.6104 0.5037
vn 0.9044 -0.4248 -0.0407
vn 0.4185 -0.7596 -0.4979
vn -0.5440 -0.6576 -0.5212
vn -0.6876 -0.6699 0.2801
vn -0.3839 -0.3516 0.8538
vn 0.4398 -0.3821 0.8128
vn 0.6718 -0.7090 0.2143
vn 0.9886 0.1147 0.0975
vn 0.4521 0.7950 -0.4044
vn -0.4907 0.6817 -0.5427
vn -0.9909 -0.1040 0.0858
vn -0.5207 -0.3517 0.7779
vn 0.6105 -0.1795 0.7714
vn -0.9567 0.1765 0.2315
vn -0.6295 0.1317 0.7658
vn 0.6135 -0.0860 0.7850
vn 0.9800 -0.0615 0.1893
vn 0.8730 0.1558 -0.4622
vn -0.8107 0.4490 -0.3759
vn 0.8883 0.4585 -0.0269
vn 0.4119 0.8198 -0.3978
vn 0.4494 -0.2924 -0.8441
vn 0.8333 -0.5036 -0.2280
vn -0.3910 0.8305 -0.3967
vn -0.4205 -0.2972 -0.8572
vn -0.9079 0.4170 -0.0436
vn -0.8379 -0.4723 -0.2735
vn 0.8700 0.4931 0.0042
vn 0.3890 0.8479 -0.3601
vn 0.4206 -0.2810 -0.8626
vn 0.8302 -0.4559 -0.3209
vn -0.3777 0.8509 -0.3652
vn -0.4272 -0.2808 -0.8594
vn -0.8695 0.4939 -0.0038
vn -0.8292 -0.4574 -0.3213
vn 0.9815 0.1820 -0.0591
vn 0.7591 0.0130 -0.6509
vn 0.8421 0.1095 0.5281
vn -0.7754 0.0622 -0.6284
vn -0.9994 0.0234 0.0268
vn -0.8122 -0.2042 0.5464
vn -0.5642 -0.4541 0.6895
vn -0.5162 -0.5818 -0.6285
vn -0.9845 -0.1597 0.0726
vn 0.5502 -0.3172 -0.7725
vn 0.7205 -0.5041 0.4763
vn 0.9972 -0.0714 0.0228
vt 0.435826 0.695105
vt 0.435509 0.695055
vt 0.436135 0.695386
vt 0.436382 0.695416
vt 0.436849 0.694942
vt 0.437072 0.694979
vt 0.437161 0.693823
vt 0.437398 0.693882
vt 0.284160 0.493551
vt 0.284512 0.491656
vt 0.285612 0.492651
vt 0.437125 0.694659
vt 0.282887 0.492879
vt 0.286247 0.490375
vt 0.435622 0.693976
vt 0.435120 0.693851
vt 0.282097 0.490432
vt 0.283026 0.487034
vt 0.285020 0.485716
vt 0.436558 0.691532
vt 0.437213 0.691694
vt 0.437550 0.692700
vt 0.949795 0.242874
vt 0.949635 0.243216
vt 0.949827 0.244094
vt 0.949986 0.243753
vt 0.950364 0.244129
vt 0.950523 0.243787
vt 0.950555 0.243275
vt 0.950715 0.242933
vt 0.443856 0.691301
vt 0.443856 0.692959
vt 0.441027 0.693275
vt 0.440702 0.691743
vt 0.443029 0.687298
vt 0.264481 0.488812
vt 0.264514 0.491136
vt 0.264447 0.486298
vt 0.446216 0.687298
vt 0.446949 0.691809
vt 0.442257 0.683378
vt 0.446533 0.682721
vt 0.470175 0.897553
vt 0.470200 0.899199
vt 0.465557 0.899164
vt 0.465864 0.897197
vt 0.447174 0.693677
vt 0.473424 0.897880
vt 0.473397 0.898907
vt 0.439918 0.688043
vt 0.475251 0.896463
vt 0.475436 0.897926
vt 0.449234 0.889920
vt 0.449234 0.889920
vt 0.448435 0.890061
vt 0.448429 0.890062
vt 0.438831 0.688952
vt 0.438407 0.694667
vt 0.437998 0.693583
vt 0.477395 0.894169
vt 0.477541 0.895318
vt 0.437574 0.685620
vt 0.437010 0.690966
vt 0.436023 0.688350
vt 0.435456 0.694953
vt 0.435394 0.693955
vt 0.478481 0.893620
vt 0.478309 0.894605
vt 0.435231 0.691542
vt 0.435095 0.689137
vt 0.431091 0.694227
vt 0.431070 0.693444
vt 0.482613 0.894071
vt 0.482451 0.894838
vt 0.431019 0.691552
vt 0.430971 0.689661
vt 0.428141 0.693014
vt 0.428136 0.692701
vt 0.485737 0.893316
vt 0.485665 0.893637
vt 0.428123 0.691916
vt 0.428110 0.691122
vt 0.268174 0.492636
vt 0.268203 0.494343
vt 0.268006 0.482253
vt 0.268035 0.484042
vt 0.268105 0.488361
vt 0.448385 0.687298
vt 0.450945 0.691939
vt 0.451729 0.693551
vt 0.454686 0.690417
vt 0.452994 0.685669
vt 0.457427 0.683852
vt 0.458426 0.687692
vt 0.437477 0.892220
vt 0.436801 0.892339
vt 0.456653 0.897392
vt 0.454945 0.896640
vt 0.455132 0.897861
vt 0.461229 0.899086
vt 0.461057 0.897965
vt 0.455387 0.692135
vt 0.459044 0.689205
vt 0.458408 0.683480
vt 0.455445 0.680386
vt 0.457281 0.680719
vt 0.459751 0.680932
vt 0.460089 0.681761
vt 0.459412 0.679626
vt 0.452618 0.897207
vt 0.441408 0.683637
vt 0.440609 0.681831
vt 0.440593 0.681815
vt 0.439360 0.685578
vt 0.444272 0.884880
vt 0.441162 0.885872
vt 0.443071 0.887124
vt 0.444802 0.886184
vt 0.438088 0.685625
vt 0.445386 0.882853
vt 0.445964 0.885553
vt 0.438726 0.682441
vt 0.437471 0.682861
vt 0.435845 0.679690
vt 0.436390 0.679507
vt 0.437471 0.682861
vt 0.447610 0.888669
vt 0.448115 0.888395
vt 0.446858 0.889078
vt 0.437208 0.679242
vt 0.437201 0.679235
vt 0.263660 0.490960
vt 0.263115 0.491025
vt 0.262423 0.490426
vt 0.262968 0.490426
vt 0.306495 0.488777
vt 0.305950 0.488839
vt 0.306639 0.489376
vt 0.307184 0.489379
vt 0.304434 0.488616
vt 0.303622 0.488749
vt 0.304311 0.489372
vt 0.305122 0.489376
vt 0.265988 0.491041
vt 0.265994 0.491044
vt 0.265303 0.490420
vt 0.265296 0.490420
vt 0.265176 0.491177
vt 0.264485 0.490420
vt 0.463644 0.679736
vt 0.463210 0.678674
vt 0.448702 0.897248
vt 0.467502 0.678047
vt 0.467502 0.679214
vt 0.444383 0.896859
vt 0.472983 0.677909
vt 0.472983 0.678929
vt 0.439020 0.895717
vt 0.478898 0.677851
vt 0.478898 0.678571
vt 0.433254 0.894396
vt 0.485688 0.677835
vt 0.485688 0.678232
vt 0.426647 0.892830
vt 0.483833 0.678232
vt 0.487292 0.677727
vt 0.425062 0.892561
vt 0.450017 0.681525
vt 0.453731 0.680350
vt 0.446305 0.682629
vt 0.432959 0.889876
vt 0.428690 0.891101
vt 0.435010 0.891335
vt 0.436946 0.890771
vt 0.449261 0.679061
vt 0.447256 0.679283
vt 0.446570 0.679504
vt 0.446570 0.679504
vt 0.437064 0.887259
vt 0.437584 0.890434
vt 0.293011 0.488795
vt 0.292324 0.488903
vt 0.292457 0.489552
vt 0.293144 0.489555
vt 0.277285 0.490839
vt 0.277149 0.490190
vt 0.276599 0.490949
vt 0.276463 0.490190
vt 0.274666 0.490723
vt 0.273858 0.490797
vt 0.273345 0.490216
vt 0.274032 0.490216
vt 0.295750 0.488959
vt 0.294942 0.489030
vt 0.295575 0.489540
vt 0.296261 0.489543
vt 0.435153 0.678842
vt 0.435698 0.678751
vt 0.448422 0.889295
vt 0.448943 0.889111
vt 0.447647 0.889569
vt 0.436516 0.678618
vt 0.436509 0.678615
vt 0.436555 0.891723
vt 0.437212 0.891495
vt 0.447806 0.678412
vt 0.447120 0.678523
vt 0.446434 0.678634
vt 0.437868 0.891268
vt 0.264632 0.491268
vt 0.450727 0.889652
vt 0.451264 0.889558
vt 0.265176 0.491177
vt 0.263660 0.490960
vt 0.275912 0.491060
vt 0.439867 0.891774
vt 0.440543 0.891655
vt 0.293698 0.488688
vt 0.475251 0.896463
vt 0.437574 0.685620
vt 0.448385 0.687298
vt 0.457427 0.683852
vt 0.452993 0.685669
vt 0.441619 0.684114
vt 0.439435 0.685774
vt 0.438097 0.685663
vt 0.445386 0.882853
vt 0.453849 0.680462
vt 0.450043 0.681561
vt 0.446308 0.682637
s 1
f 11/1/11 12/2/12 6/3/6
f 11/1/11 6/3/6 5/4/5
f 5/4/5 6/3/6 9/5/9
f 5/4/5 9/5/9 10/6/10
f 10/6/10 9/5/9 14/7/14
f 10/6/10 14/7/14 15/8/15
f 6/9/6 13/10/13 9/11/9
f 10/6/10 16/12/16 5/4/5
f 12/13/12 13/10/13 6/9/6
f 5/4/5 16/12/16 11/1/11
f 9/11/9 13/10/13 14/14/14
f 15/8/15 16/12/16 10/6/10
f 1/15/1 2/16/2 12/2/12
f 1/15/1 12/2/12 11/1/11
f 2/17/2 8/18/8 13/10/13
f 2/17/2 13/10/13 12/13/12
f 14/14/14 13/10/13 8/18/8
f 14/14/14 8/18/8 4/19/4
f 15/8/15 14/7/14 4/20/4
f 15/8/15 4/20/4 3/21/3
f 3/21/3 7/22/7 16/12/16
f 3/21/3 16/12/16 15/8/15
f 11/1/11 16/12/16 7/22/7
f 11/1/11 7/22/7 1/15/1
f 27/1/27 19/4/19 20/3/20
f 27/1/27 20/3/20 28/2/28
f 19/4/19 21/6/21 26/5/26
f 19/4/19 26/5/26 20/3/20
f 21/6/21 31/8/31 30/7/30
f 21/6/21 30/7/30 26/5/26
f 20/9/20 26/11/26 29/10/29
f 21/6/21 19/4/19 32/12/32
f 28/13/28 20/9/20 29/10/29
f 19/4/19 27/1/27 32/12/32
f 26/11/26 30/14/30 29/10/29
f 31/8/31 21/6/21 32/12/32
f 17/15/17 27/1/27 28/2/28
f 17/15/17 28/2/28 18/16/18
f 18/17/18 28/13/28 29/10/29
f 18/17/18 29/10/29 25/18/25
f 30/14/30 23/19/23 25/18/25
f 30/14/30 25/18/25 29/10/29
f 31/8/31 22/21/22 23/20/23
f 31/8/31 23/20/23 30/7/30
f 22/21/22 31/8/31 32/12/32
f 22/21/22 32/12/32 24/22/24
f 27/1/27 17/15/17 24/22/24
f 27/1/27 24/22/24 32/12/32
f 33/23/33 34/24/34 36/25/36
f 33/23/33 36/25/36 35/26/35
f 35/26/35 36/25/36 38/27/38
f 35/26/35 38/27/38 37/28/37
f 37/28/37 38/27/38 40/29/40
f 37/28/37 40/29/40 39/30/39
f 39/30/39 40/29/40 34/24/34
f 39/30/39 34/24/34 33/23/33
f 34/24/34 40/29/40 38/27/38
f 34/24/34 38/27/38 36/25/36
f 39/30/39 33/23/33 35/26/35
f 39/30/39 35/26/35 37/28/37
f 41/23/41 43/26/43 44/25/44
f 41/23/41 44/25/44 42/24/42
f 43/26/43 45/28/45 46/27/46
f 43/26/43 46/27/46 44/25/44
f 45/28/45 47/30/47 48/29/48
f 45/28/45 48/29/48 46/27/46
f 47/30/47 41/23/41 42/24/42
f 47/30/47 42/24/42 48/29/48
f 42/24/42 44/25/44 46/27/46
f 42/24/42 46/27/46 48/29/48
f 47/30/47 45/28/45 43/26/43
f 47/30/47 43/26/43 41/23/41
f 49/31/49 50/32/50 58/33/58
f 49/31/49 58/33/58 57/34/57
f 53/35/53 49/31/49 57/34/57
f 87/36/87 85/37/85 86/38/86
f 49/31/49 53/35/53 54/39/54
f 49/31/49 54/39/54 55/40/55
f 53/35/53 52/41/52 90/42/90
f 53/35/53 90/42/90 54/39/54
f 52/43/52 51/44/51 91/45/91
f 52/43/52 91/45/91 90/46/90
f 50/32/50 49/31/49 55/40/55
f 50/32/50 55/40/55 56/47/56
f 51/44/51 52/43/52 60/48/60
f 51/44/51 60/48/60 59/49/59
f 53/35/53 57/34/57 61/50/61
f 59/49/59 60/48/60 63/51/63
f 59/49/59 63/51/63 62/52/62
f 115/53/115 116/54/116 117/55/117
f 115/53/115 117/55/117 118/56/118
f 61/50/61 57/34/57 64/57/64
f 57/34/57 58/33/58 66/58/66
f 57/34/57 66/58/66 65/59/65
f 62/52/62 63/51/63 68/60/68
f 62/52/62 68/60/68 67/61/67
f 63/62/63 64/57/64 69/63/69
f 63/62/63 69/63/69 68/64/68
f 64/57/64 57/34/57 65/59/65
f 64/57/64 65/59/65 69/63/69
f 65/59/65 66/58/66 71/65/71
f 65/59/65 71/65/71 70/66/70
f 67/61/67 68/60/68 73/67/73
f 67/61/67 73/67/73 72/68/72
f 68/64/68 69/63/69 74/69/74
f 68/64/68 74/69/74 73/70/73
f 69/63/69 65/59/65 70/66/70
f 69/63/69 70/66/70 74/69/74
f 70/66/70 71/65/71 76/71/76
f 70/66/70 76/71/76 75/72/75
f 72/68/72 73/67/73 78/73/78
f 72/68/72 78/73/78 77/74/77
f 73/70/73 74/69/74 79/75/79
f 73/70/73 79/75/79 78/76/78
f 74/69/74 70/66/70 75/72/75
f 74/69/74 75/72/75 79/75/79
f 75/72/75 76/71/76 81/77/81
f 75/72/75 81/77/81 80/78/80
f 77/74/77 78/73/78 83/79/83
f 77/74/77 83/79/83 82/80/82
f 78/76/78 79/75/79 84/81/84
f 78/76/78 84/81/84 83/82/83
f 79/75/79 75/72/75 80/78/80
f 79/75/79 80/78/80 84/81/84
f 80/83/80 81/84/81 85/37/85
f 82/85/82 83/86/83 87/36/87
f 82/85/82 87/36/87 86/38/86
f 83/86/83 84/87/84 87/36/87
f 84/87/84 80/83/80 85/37/85
f 84/87/84 85/37/85 87/36/87
f 55/40/55 54/39/54 88/88/88
f 55/40/55 88/88/88 89/89/89
f 54/39/54 90/42/90 88/88/88
f 56/47/56 55/40/55 89/89/89
f 56/47/56 89/89/89 92/90/92
f 134/91/134 130/92/130 93/93/93
f 134/91/134 93/93/93 94/94/94
f 141/95/141 142/96/142 143/96/143
f 141/95/141 143/96/143 144/95/144
f 201/97/201 203/98/203 99/99/99
f 201/97/201 99/99/99 132/100/132
f 201/97/201 132/100/132 236/101/236
f 133/102/133 134/91/134 94/94/94
f 133/102/133 94/94/94 96/103/96
f 94/94/94 93/93/93 97/104/97
f 93/93/93 95/105/95 98/106/98
f 93/93/93 98/106/98 97/104/97
f 94/94/94 97/104/97 100/107/100
f 94/94/94 100/107/100 101/108/101
f 97/104/97 98/106/98 102/109/102
f 97/104/97 102/109/102 100/107/100
f 99/99/99 206/110/206 102/110/102
f 96/103/96 94/94/94 101/108/101
f 52/41/52 281/111/281 104/112/104
f 52/41/52 104/112/104 103/113/103
f 53/35/53 61/50/61 280/114/280
f 53/35/53 280/114/280 281/111/281
f 60/115/60 52/116/52 103/117/103
f 60/115/60 103/117/103 106/118/106
f 61/50/61 64/57/64 279/119/279
f 61/50/61 279/119/279 280/114/280
f 64/57/64 63/62/63 279/119/279
f 63/120/63 60/115/60 106/118/106
f 63/120/63 106/118/106 108/121/108
f 105/122/105 107/123/107 110/124/110
f 105/122/105 110/124/110 109/125/109
f 107/123/107 108/126/108 111/124/111
f 107/123/107 111/124/111 110/124/110
f 108/121/108 106/118/106 112/127/112
f 108/121/108 112/127/112 111/128/111
f 106/118/106 103/117/103 113/129/113
f 106/118/106 113/129/113 112/127/112
f 103/113/103 104/112/104 114/130/114
f 103/113/103 114/130/114 113/131/113
f 104/112/104 105/122/105 109/125/109
f 104/112/104 109/125/109 114/130/114
f 157/132/157 158/133/158 159/134/159
f 157/132/157 159/134/159 160/135/160
f 158/133/158 161/133/161 162/134/162
f 158/133/158 162/134/162 159/134/159
f 161/136/161 163/137/163 164/138/164
f 161/136/161 164/138/164 162/139/162
f 148/140/148 149/141/149 117/142/117
f 148/140/148 117/142/117 116/143/116
f 149/144/149 150/145/150 118/146/118
f 149/144/149 118/146/118 117/147/117
f 150/145/150 145/148/145 115/149/115
f 150/145/150 115/149/115 118/146/118
f 101/108/101 100/107/100 119/150/119
f 100/107/100 102/109/102 120/151/120
f 100/107/100 120/151/120 119/150/119
f 102/110/102 206/110/206 224/152/224
f 102/110/102 224/152/224 120/152/120
f 205/108/205 101/108/101 119/150/119
f 205/108/205 119/150/119 223/150/223
f 119/150/119 120/151/120 122/153/122
f 119/150/119 122/153/122 121/154/121
f 120/152/120 224/152/224 226/155/226
f 120/152/120 226/155/226 122/155/122
f 223/150/223 119/150/119 121/154/121
f 223/150/223 121/154/121 225/154/225
f 121/154/121 122/153/122 124/156/124
f 121/154/121 124/156/124 123/157/123
f 122/155/122 226/155/226 228/158/228
f 122/155/122 228/158/228 124/158/124
f 225/154/225 121/154/121 123/157/123
f 225/154/225 123/157/123 227/157/227
f 123/157/123 124/156/124 126/159/126
f 123/157/123 126/159/126 125/160/125
f 124/158/124 228/158/228 230/161/230
f 124/158/124 230/161/230 126/161/126
f 227/157/227 123/157/123 125/160/125
f 227/157/227 125/160/125 229/160/229
f 125/160/125 126/159/126 128/162/128
f 125/160/125 128/162/128 127/163/127
f 126/161/126 230/161/230 232/164/232
f 126/161/126 232/164/232 128/164/128
f 229/160/229 125/160/125 127/163/127
f 229/160/229 127/163/127 231/165/231
f 127/163/127 128/162/128 129/166/129
f 128/164/128 232/164/232 234/167/234
f 128/164/128 234/167/234 129/167/129
f 231/165/231 127/163/127 233/163/233
f 90/46/90 91/45/91 132/100/132
f 90/46/90 132/100/132 131/101/131
f 92/90/92 89/89/89 134/91/134
f 92/90/92 134/91/134 133/102/133
f 89/89/89 88/88/88 130/92/130
f 89/89/89 130/92/130 134/91/134
f 93/93/93 130/92/130 284/168/284
f 93/93/93 284/168/284 282/169/282
f 88/88/88 90/42/90 283/170/283
f 130/92/130 88/88/88 283/170/283
f 130/92/130 283/170/283 284/168/284
f 131/171/131 95/172/95 136/173/136
f 131/171/131 136/173/136 135/174/135
f 95/105/95 282/169/282 137/175/137
f 95/105/95 137/175/137 136/175/136
f 282/169/282 284/168/284 138/176/138
f 282/169/282 138/176/138 137/175/137
f 284/168/284 283/170/283 139/177/139
f 284/168/284 139/177/139 138/176/138
f 283/170/283 90/42/90 140/178/140
f 283/170/283 140/178/140 139/177/139
f 90/179/90 131/171/131 135/174/135
f 90/179/90 135/174/135 140/180/140
f 151/181/151 152/182/152 142/183/142
f 151/181/151 142/183/142 141/184/141
f 152/185/152 153/185/153 143/186/143
f 152/185/152 143/186/143 142/186/142
f 153/185/153 154/187/154 144/188/144
f 153/185/153 144/188/144 143/186/143
f 165/189/165 166/190/166 167/191/167
f 165/189/165 167/191/167 168/192/168
f 166/190/166 169/190/169 170/191/170
f 166/190/166 170/191/170 167/191/167
f 169/193/169 171/194/171 172/195/172
f 169/193/169 172/195/172 170/196/170
f 233/163/233 129/166/129 234/166/234
f 233/163/233 127/163/127 129/166/129
f 109/125/109 110/124/110 146/197/146
f 109/125/109 146/197/146 145/198/145
f 110/124/110 111/124/111 147/197/147
f 110/124/110 147/197/147 146/197/146
f 111/128/111 112/127/112 148/199/148
f 111/128/111 148/199/148 147/200/147
f 112/127/112 113/129/113 149/201/149
f 112/127/112 149/201/149 148/199/148
f 113/131/113 114/130/114 150/202/150
f 113/131/113 150/202/150 149/203/149
f 114/130/114 109/125/109 145/198/145
f 114/130/114 145/198/145 150/202/150
f 135/174/135 136/173/136 152/204/152
f 135/174/135 152/204/152 151/205/151
f 136/175/136 137/175/137 153/206/153
f 136/175/136 153/206/153 152/206/152
f 137/175/137 138/176/138 154/207/154
f 137/175/137 154/207/154 153/206/153
f 138/176/138 139/177/139 155/208/155
f 138/176/138 155/208/155 154/207/154
f 139/177/139 140/178/140 156/208/156
f 139/177/139 156/208/156 155/208/155
f 140/180/140 135/174/135 151/205/151
f 140/180/140 151/205/151 156/209/156
f 145/148/145 146/210/146 158/133/158
f 145/148/145 158/133/158 157/132/157
f 115/53/115 160/211/160 159/212/159
f 115/149/115 145/148/145 157/132/157
f 115/149/115 157/132/157 160/135/160
f 146/210/146 147/210/147 161/133/161
f 146/210/146 161/133/161 158/133/158
f 116/54/116 115/53/115 159/212/159
f 116/54/116 159/212/159 162/212/162
f 147/210/147 148/213/148 163/214/163
f 147/210/147 163/214/163 161/133/161
f 148/140/148 116/143/116 164/138/164
f 148/140/148 164/138/164 163/137/163
f 116/54/116 162/212/162 164/211/164
f 154/187/154 155/215/155 166/190/166
f 154/187/154 166/190/166 165/189/165
f 144/95/144 168/216/168 167/217/167
f 144/188/144 154/187/154 165/189/165
f 144/188/144 165/189/165 168/192/168
f 155/215/155 156/215/156 169/190/169
f 155/215/155 169/190/169 166/190/166
f 141/95/141 144/95/144 167/217/167
f 141/95/141 167/217/167 170/217/170
f 156/218/156 151/181/151 171/194/171
f 156/218/156 171/194/171 169/193/169
f 151/181/151 141/184/141 172/195/172
f 151/181/151 172/195/172 171/194/171
f 141/95/141 170/217/170 172/216/172
f 173/31/173 178/34/178 58/33/58
f 173/31/173 58/33/58 50/32/50
f 175/35/175 178/34/178 173/31/173
f 195/36/195 86/38/86 85/37/85
f 173/31/173 177/40/177 176/39/176
f 173/31/173 176/39/176 175/35/175
f 175/35/175 176/39/176 198/42/198
f 175/35/175 198/42/198 174/41/174
f 174/43/174 198/46/198 91/45/91
f 174/43/174 91/45/91 51/44/51
f 50/32/50 56/47/56 177/40/177
f 50/32/50 177/40/177 173/31/173
f 51/44/51 59/49/59 179/48/179
f 51/44/51 179/48/179 174/43/174
f 175/35/175 180/50/180 178/34/178
f 59/49/59 62/52/62 181/219/181
f 59/49/59 181/219/181 179/48/179
f 219/53/219 222/56/222 221/55/221
f 219/53/219 221/55/221 220/54/220
f 180/50/180 182/57/182 178/34/178
f 178/34/178 183/59/183 66/58/66
f 178/34/178 66/58/66 58/33/58
f 62/52/62 67/61/67 184/60/184
f 62/52/62 184/60/184 181/219/181
f 181/220/181 184/64/184 185/63/185
f 181/220/181 185/63/185 182/57/182
f 182/57/182 185/63/185 183/59/183
f 182/57/182 183/59/183 178/34/178
f 183/59/183 186/66/186 71/65/71
f 183/59/183 71/65/71 66/58/66
f 67/61/67 72/68/72 187/67/187
f 67/61/67 187/67/187 184/60/184
f 184/64/184 187/70/187 188/69/188
f 184/64/184 188/69/188 185/63/185
f 185/63/185 188/69/188 186/66/186
f 185/63/185 186/66/186 183/59/183
f 186/66/186 189/72/189 76/71/76
f 186/66/186 76/71/76 71/65/71
f 72/68/72 77/74/77 190/73/190
f 72/68/72 190/73/190 187/67/187
f 187/70/187 190/76/190 191/75/191
f 187/70/187 191/75/191 188/69/188
f 188/69/188 191/75/191 189/72/189
f 188/69/188 189/72/189 186/66/186
f 189/72/189 192/78/192 81/77/81
f 189/72/189 81/77/81 76/71/76
f 77/74/77 82/80/82 193/79/193
f 77/74/77 193/79/193 190/73/190
f 190/76/190 193/82/193 194/81/194
f 190/76/190 194/81/194 191/75/191
f 191/75/191 194/81/194 192/78/192
f 191/75/191 192/78/192 189/72/189
f 192/83/192 85/37/85 81/84/81
f 82/85/82 86/38/86 195/36/195
f 82/85/82 195/36/195 193/86/193
f 193/86/193 195/36/195 194/87/194
f 194/87/194 195/36/195 85/37/85
f 194/87/194 85/37/85 192/83/192
f 177/40/177 197/89/197 196/221/196
f 177/40/177 196/221/196 176/39/176
f 176/39/176 196/221/196 198/42/198
f 56/47/56 92/90/92 197/89/197
f 56/47/56 197/89/197 177/40/177
f 237/91/237 200/94/200 199/222/199
f 237/91/237 199/222/199 235/223/235
f 244/95/244 247/95/247 246/96/246
f 244/95/244 246/96/246 245/96/245
f 133/102/133 96/103/96 200/94/200
f 133/102/133 200/94/200 237/91/237
f 200/94/200 202/104/202 199/222/199
f 199/222/199 202/104/202 203/106/203
f 199/222/199 203/106/203 201/105/201
f 200/94/200 205/108/205 204/107/204
f 200/94/200 204/107/204 202/104/202
f 202/104/202 204/107/204 206/109/206
f 202/104/202 206/109/206 203/106/203
f 203/98/203 206/110/206 99/99/99
f 96/103/96 205/108/205 200/94/200
f 174/41/174 207/113/207 208/112/208
f 174/41/174 208/112/208 278/224/278
f 175/35/175 278/224/278 276/225/276
f 175/35/175 276/225/276 180/50/180
f 179/115/179 210/118/210 207/117/207
f 179/115/179 207/117/207 174/116/174
f 180/50/180 276/225/276 277/226/277
f 180/50/180 277/226/277 182/57/182
f 182/57/182 277/226/277 181/220/181
f 181/227/181 212/121/212 210/118/210
f 181/227/181 210/118/210 179/115/179
f 209/122/209 213/125/213 214/124/214
f 209/122/209 214/124/214 211/123/211
f 211/123/211 214/124/214 215/124/215
f 211/123/211 215/124/215 212/126/212
f 212/121/212 215/128/215 216/127/216
f 212/121/212 216/127/216 210/118/210
f 210/118/210 216/127/216 217/129/217
f 210/118/210 217/129/217 207/117/207
f 207/113/207 217/131/217 218/130/218
f 207/113/207 218/130/218 208/112/208
f 208/112/208 218/130/218 213/125/213
f 208/112/208 213/125/213 209/122/209
f 260/132/260 263/135/263 262/134/262
f 260/132/260 262/134/262 261/133/261
f 261/133/261 262/134/262 265/134/265
f 261/133/261 265/134/265 264/133/264
f 264/136/264 265/139/265 267/138/267
f 264/136/264 267/138/267 266/137/266
f 251/140/251 220/143/220 221/142/221
f 251/140/251 221/142/221 252/141/252
f 252/144/252 221/147/221 222/146/222
f 252/144/252 222/146/222 253/145/253
f 253/145/253 222/146/222 219/149/219
f 253/145/253 219/149/219 248/148/248
f 205/108/205 223/150/223 204/107/204
f 204/107/204 223/150/223 224/151/224
f 204/107/204 224/151/224 206/109/206
f 223/150/223 225/154/225 226/153/226
f 223/150/223 226/153/226 224/151/224
f 225/154/225 227/157/227 228/156/228
f 225/154/225 228/156/228 226/153/226
f 227/157/227 229/160/229 230/159/230
f 227/157/227 230/159/230 228/156/228
f 229/160/229 231/165/231 233/163/233
f 229/160/229 233/163/233 232/162/232
f 229/160/229 232/162/232 230/159/230
f 233/163/233 234/166/234 232/162/232
f 198/46/198 236/101/236 132/100/132
f 198/46/198 132/100/132 91/45/91
f 92/90/92 133/102/133 237/91/237
f 92/90/92 237/91/237 197/89/197
f 197/89/197 237/91/237 235/223/235
f 197/89/197 235/223/235 196/221/196
f 199/222/199 286/228/286 287/229/287
f 199/222/199 287/229/287 235/223/235
f 196/221/196 285/230/285 198/42/198
f 235/223/235 287/229/287 285/230/285
f 235/223/235 285/230/285 196/221/196
f 236/171/236 238/174/238 239/173/239
f 236/171/236 239/173/239 201/172/201
f 201/105/201 239/175/239 240/175/240
f 201/105/201 240/175/240 286/228/286
f 286/228/286 240/175/240 241/176/241
f 286/228/286 241/176/241 287/229/287
f 287/229/287 241/176/241 242/177/242
f 287/229/287 242/177/242 285/230/285
f 285/230/285 242/177/242 243/178/243
f 285/230/285 243/178/243 198/42/198
f 198/179/198 243/180/243 238/174/238
f 198/179/198 238/174/238 236/171/236
f 254/181/254 244/184/244 245/183/245
f 254/181/254 245/183/245 255/182/255
f 255/185/255 245/186/245 246/186/246
f 255/185/255 246/186/246 256/185/256
f 256/185/256 246/186/246 247/188/247
f 256/185/256 247/188/247 257/187/257
f 268/189/268 271/192/271 270/191/270
f 268/189/268 270/191/270 269/190/269
f 269/190/269 270/191/270 273/191/273
f 269/190/269 273/191/273 272/190/272
f 272/193/272 273/196/273 275/195/275
f 272/193/272 275/195/275 274/194/274
f 98/98/98 99/99/99 102/110/102
f 213/125/213 248/198/248 249/197/249
f 213/125/213 249/197/249 214/124/214
f 214/124/214 249/197/249 250/197/250
f 214/124/214 250/197/250 215/124/215
f 215/128/215 250/200/250 251/199/251
f 215/128/215 251/199/251 216/127/216
f 216/127/216 251/199/251 252/201/252
f 216/127/216 252/201/252 217/129/217
f 217/131/217 252/203/252 253/202/253
f 217/131/217 253/202/253 218/130/218
f 218/130/218 253/202/253 248/198/248
f 218/130/218 248/198/248 213/125/213
f 238/174/238 254/205/254 255/204/255
f 238/174/238 255/204/255 239/173/239
f 239/175/239 255/206/255 256/206/256
f 239/175/239 256/206/256 240/175/240
f 240/175/240 256/206/256 257/207/257
f 240/175/240 257/207/257 241/176/241
f 241/176/241 257/207/257 258/208/258
f 241/176/241 258/208/258 242/177/242
f 242/177/242 258/208/258 259/208/259
f 242/177/242 259/208/259 243/178/243
f 243/180/243 259/209/259 254/205/254
f 243/180/243 254/205/254 238/174/238
f 248/148/248 260/132/260 261/133/261
f 248/148/248 261/133/261 249/210/249
f 219/53/219 262/212/262 263/211/263
f 219/149/219 263/135/263 260/132/260
f 219/149/219 260/132/260 248/148/248
f 249/210/249 261/133/261 264/133/264
f 249/210/249 264/133/264 250/210/250
f 220/54/220 265/212/265 262/212/262
f 220/54/220 262/212/262 219/53/219
f 250/210/250 264/133/264 266/214/266
f 250/210/250 266/214/266 251/213/251
f 251/140/251 266/137/266 267/138/267
f 251/140/251 267/138/267 220/143/220
f 220/54/220 267/211/267 265/212/265
f 257/187/257 268/189/268 269/190/269
f 257/187/257 269/190/269 258/215/258
f 247/95/247 270/217/270 271/216/271
f 247/188/247 271/192/271 268/189/268
f 247/188/247 268/189/268 257/187/257
f 258/215/258 269/190/269 272/190/272
f 258/215/258 272/190/272 259/215/259
f 244/95/244 273/217/273 270/217/270
f 244/95/244 270/217/270 247/95/247
f 259/215/259 272/190/272 274/189/274
f 259/215/259 274/189/274 254/187/254
f 254/181/254 274/194/274 275/195/275
f 254/181/254 275/195/275 244/184/244
f 244/95/244 275/216/275 273/217/273
f 277/226/277 276/225/276 209/122/209
f 277/226/277 209/122/209 211/123/211
f 181/220/181 277/226/277 211/123/211
f 181/220/181 211/123/211 212/126/212
f 276/225/276 278/224/278 208/112/208
f 276/225/276 208/112/208 209/122/209
f 278/224/278 175/35/175 174/41/174
f 279/119/279 63/62/63 108/126/108
f 279/119/279 108/126/108 107/123/107
f 280/114/280 279/119/279 107/123/107
f 280/114/280 107/123/107 105/122/105
f 281/111/281 280/114/280 105/122/105
f 281/111/281 105/122/105 104/112/104
f 281/111/281 52/41/52 53/35/53
f 132/100/132 99/99/99 98/98/98
f 132/100/132 98/98/98 95/97/95
f 132/100/132 95/97/95 131/101/131
f 282/169/282 95/105/95 93/93/93
f 286/228/286 199/222/199 201/105/201
f 205/108/205 96/103/96 101/108/101
