# Blender 4.5.5 LTS
# www.blender.org
mtllib Snake.mtl
o Snake.002
v -0.093029 0.183960 0.104807
v 0.009329 0.183960 -0.069802
v -0.159154 0.168738 0.066359
v -0.056878 0.168738 -0.108108
v -0.186544 0.107605 0.050434
v -0.084302 0.107605 -0.123975
v -0.159154 0.046472 0.066359
v -0.056878 0.046472 -0.108108
v -0.093029 0.021150 0.104807
v 0.009329 0.021150 -0.069802
v -0.026903 0.046472 0.143254
v 0.075537 0.046472 -0.031496
v 0.000487 0.107605 0.159180
v 0.102961 0.107605 -0.015629
v -0.026903 0.168738 0.143254
v 0.075537 0.168738 -0.031496
v 0.196716 0.183981 -0.438042
v 0.127543 0.168755 -0.470303
v 0.098771 0.107608 -0.483714
v 0.127147 0.046462 -0.470491
v 0.196220 0.021135 -0.438290
v 0.266081 0.046462 -0.405666
v 0.295134 0.107608 -0.392067
v 0.266398 0.168755 -0.405496
v 0.037011 0.046472 -0.273849
v 0.103115 0.021150 -0.235430
v 0.196895 0.107605 -0.181389
v 0.169450 0.168739 -0.197208
v 0.036984 0.168738 -0.273710
v 0.009571 0.107605 -0.289596
v 0.169363 0.046472 -0.197108
v 0.103168 0.183961 -0.235422
v 0.316967 0.184049 -0.885530
v 0.242318 0.168812 -0.901643
v 0.211200 0.107618 -0.908309
v 0.241665 0.046426 -0.901922
v 0.316146 0.021079 -0.885687
v 0.391835 0.046426 -0.869025
v 0.423318 0.107618 -0.862144
v 0.392364 0.168811 -0.869040
v 0.275375 0.184033 -0.665025
v 0.203322 0.168798 -0.690435
v 0.347956 0.168797 -0.639428
v 0.347619 0.046434 -0.639497
v 0.377886 0.107616 -0.628861
v 0.202928 0.046434 -0.690636
v 0.274868 0.021091 -0.665202
v 0.173357 0.107616 -0.700997
v 0.261502 0.188454 -1.297410
v 0.188886 0.172327 -1.278571
v 0.159906 0.110569 -1.270735
v 0.191641 0.049979 -1.278637
v 0.265765 0.026269 -1.297475
v 0.339570 0.053249 -1.316449
v 0.369072 0.114976 -1.324512
v 0.336835 0.175562 -1.316581
v 0.229500 0.171711 -1.097912
v 0.197609 0.110508 -1.099769
v 0.413572 0.110822 -1.110014
v 0.382177 0.171931 -1.105003
v 0.303287 0.024178 -1.109820
v 0.380866 0.049586 -1.112110
v 0.228044 0.049437 -1.104643
v 0.305425 0.187042 -1.100065
v -0.236582 0.183961 0.345665
v -0.302656 0.168738 0.307131
v -0.330025 0.107605 0.291169
v -0.302656 0.046472 0.307131
v -0.236582 0.021150 0.345665
v -0.170507 0.046472 0.384200
v -0.143138 0.107605 0.400162
v -0.170507 0.168738 0.384200
v -0.095488 0.046472 0.259470
v -0.160785 0.021150 0.219632
v -0.160785 0.183961 0.219632
v -0.095488 0.168738 0.259470
v -0.226082 0.168738 0.179794
v -0.226082 0.046472 0.179794
v -0.253129 0.107605 0.163293
v -0.068441 0.107605 0.275972
v -0.436727 0.183119 0.688190
v -0.502121 0.168143 0.648493
v -0.529206 0.107605 0.632083
v -0.502229 0.047067 0.648476
v -0.436625 0.021992 0.688212
v -0.371438 0.047067 0.727989
v -0.344700 0.107605 0.744410
v -0.371316 0.168143 0.728026
v -0.343446 0.021150 0.527263
v -0.409491 0.046472 0.488678
v -0.436847 0.107605 0.472695
v -0.409491 0.168738 0.488678
v -0.277401 0.168738 0.565849
v -0.250044 0.107605 0.581832
v -0.277401 0.046472 0.565849
v -0.343446 0.183961 0.527263
v -0.627505 0.173102 1.015906
v -0.685436 0.152665 0.981394
v -0.709961 0.099769 0.966650
v -0.686767 0.045399 0.980413
v -0.629507 0.021404 1.014720
v -0.571669 0.041841 1.049370
v -0.547066 0.094738 1.063966
v -0.570167 0.149107 1.050065
v -0.412118 0.046539 0.798681
v -0.478034 0.021311 0.759620
v -0.544638 0.046595 0.720411
v -0.572094 0.107645 0.704267
v -0.544640 0.168654 0.720418
v -0.478327 0.183795 0.759500
v -0.411952 0.168554 0.798771
v -0.384961 0.107503 0.814790
v 0.222304 0.227794 -1.427473
v 0.130391 0.198078 -1.389058
v 0.089817 0.112973 -1.372123
v 0.125313 0.053569 -1.386972
v 0.214069 0.009065 -1.424634
v 0.306681 0.046246 -1.463690
v 0.346534 0.102875 -1.480065
v 0.311991 0.191038 -1.465166
v 0.161691 0.195420 -1.558459
v 0.102640 0.172134 -1.531024
v 0.075636 0.109609 -1.518945
v 0.096394 0.044447 -1.529439
v 0.152959 0.014872 -1.556051
v 0.212066 0.038176 -1.583388
v 0.239056 0.100694 -1.595508
v 0.218194 0.165832 -1.585150
v 0.091572 0.122236 -1.675547
v 0.059361 0.108580 -1.656868
v 0.044835 0.082787 -1.648695
v 0.057692 0.036755 -1.656448
v 0.085497 0.020028 -1.672835
v 0.114999 0.032564 -1.689978
v 0.133183 0.077092 -1.700298
v 0.121781 0.104023 -1.693334
v 0.279327 0.046661 -1.517062
v 0.318536 0.101206 -1.533926
v 0.103278 0.055112 -1.439177
v 0.188589 0.011006 -1.477058
v 0.109363 0.195424 -1.441863
v 0.069431 0.112829 -1.424466
v 0.285495 0.187225 -1.519290
v 0.198666 0.223590 -1.481086
v 0.075983 0.103124 -1.699482
v 0.049004 0.095442 -1.683767
v 0.036721 0.073032 -1.676748
v 0.051143 0.055026 -1.686412
v 0.072188 0.045632 -1.698783
v 0.094135 0.051882 -1.711566
v 0.111461 0.067566 -1.720477
v 0.101853 0.091577 -1.714688
v -0.765583 0.142321 1.268959
v -0.810768 0.129777 1.244215
v -0.832722 0.091413 1.234301
v -0.818548 0.049699 1.245041
v -0.776595 0.029075 1.270154
v -0.731460 0.041628 1.294889
v -0.709539 0.079991 1.304765
v -0.723660 0.121700 1.294032
v -0.860268 0.101642 1.441240
v -0.890804 0.096496 1.423624
v -0.906235 0.072384 1.413224
v -0.897510 0.043352 1.416165
v -0.869742 0.026406 1.430724
v -0.839196 0.031567 1.448398
v -0.823787 0.056014 1.458795
v -0.832527 0.085028 1.455752
v -0.904653 0.041136 1.497958
v -0.912452 0.039840 1.493327
v -0.916396 0.033644 1.490615
v -0.914176 0.026178 1.491410
v -0.907091 0.021815 1.495246
v -0.899292 0.023111 1.499876
v -0.895347 0.029307 1.502589
v -0.897568 0.036773 1.501794
v -0.929033 0.022988 1.531381
v -0.930416 0.022758 1.530538
v -0.931117 0.021651 1.530047
v -0.930724 0.020317 1.530196
v -0.929468 0.019537 1.530897
v -0.928085 0.019768 1.531740
v -0.927384 0.020874 1.532232
v -0.927777 0.022208 1.532083
v 0.068492 0.074346 -1.708687
v 0.061759 0.071521 -1.704486
v 0.058837 0.063725 -1.702145
v 0.063014 0.058670 -1.703599
v 0.068384 0.055578 -1.706528
v 0.073861 0.057877 -1.709945
v 0.077694 0.062346 -1.713178
v 0.075093 0.070546 -1.712288
v 0.175417 0.086356 -1.664994
v 0.151739 0.123793 -1.651302
v 0.111541 0.016037 -1.629428
v 0.149530 0.034403 -1.650946
v 0.053612 0.094884 -1.596131
v 0.076009 0.039612 -1.608979
v 0.119379 0.148222 -1.632766
v 0.084272 0.128539 -1.613009
v 0.114797 0.152688 -1.539311
v 0.103923 0.142046 -1.526831
v 0.090224 0.127996 -1.528801
v 0.104615 0.160479 -1.544769
v 0.089486 0.153055 -1.534598
v 0.080017 0.135778 -1.534322
v 0.098411 0.161293 -1.557281
v 0.082892 0.154068 -1.553446
v 0.075985 0.136449 -1.548013
v 0.099862 0.154660 -1.569492
v 0.082814 0.144829 -1.569557
v 0.075292 0.129955 -1.559084
v 0.108079 0.144459 -1.574273
v 0.094451 0.130401 -1.576344
v 0.083502 0.119749 -1.563896
v 0.081733 0.118757 -1.544162
v 0.116496 0.153692 -1.558916
v 0.202140 0.146942 -1.586355
v 0.217370 0.134581 -1.587944
v 0.221825 0.119375 -1.599478
v 0.203954 0.153961 -1.598191
v 0.219965 0.144520 -1.604609
v 0.223694 0.126408 -1.611243
v 0.197121 0.154862 -1.610119
v 0.210312 0.145787 -1.621526
v 0.216894 0.127306 -1.623200
v 0.185637 0.149106 -1.615217
v 0.194085 0.137644 -1.628762
v 0.205433 0.121550 -1.628307
v 0.176230 0.140074 -1.610440
v 0.180803 0.124870 -1.622018
v 0.196040 0.112520 -1.623524
v 0.213046 0.110259 -1.614085
v 0.185044 0.149212 -1.595680
v 0.071512 0.066257 -1.702515
v 0.055160 0.066394 -1.730834
v 0.064661 0.065534 -1.698954
v 0.048095 0.065748 -1.729267
v 0.061302 0.062826 -1.698068
v 0.044871 0.063181 -1.728838
v 0.063403 0.059718 -1.700377
v 0.047378 0.060196 -1.729798
v 0.069733 0.058031 -1.704527
v 0.054147 0.058542 -1.731586
v 0.076584 0.058754 -1.708089
v 0.061212 0.059188 -1.733153
v 0.079943 0.061462 -1.708975
v 0.064436 0.061755 -1.733582
v 0.077842 0.064570 -1.706666
v 0.061929 0.064740 -1.732622
v 0.049437 0.056163 -1.757054
v 0.045021 0.054612 -1.754763
v 0.043835 0.053069 -1.752602
v 0.046574 0.052437 -1.751837
v 0.051633 0.053087 -1.752916
v 0.056049 0.054638 -1.755206
v 0.057235 0.056181 -1.757367
v 0.054496 0.056813 -1.758132
v 0.049437 0.056163 -1.757054
v 0.045021 0.054612 -1.754763
v 0.043835 0.053069 -1.752602
v 0.046574 0.052437 -1.751837
v 0.051633 0.053087 -1.752916
v 0.056049 0.054638 -1.755206
v 0.057235 0.056181 -1.757367
v 0.054496 0.056813 -1.758132
v 0.063986 0.035764 -1.776010
v 0.063527 0.035603 -1.775772
v 0.064109 0.035924 -1.776234
v 0.063825 0.035990 -1.776314
v 0.063299 0.035922 -1.776201
v 0.032969 0.026383 -1.767146
v 0.033379 0.026526 -1.767359
v 0.032859 0.026239 -1.766945
v 0.033113 0.026181 -1.766874
v 0.033583 0.026241 -1.766975
vn 0.0002 1.0000 0.0001
vn 0.0008 1.0000 0.0004
vn -0.5177 0.7996 -0.3045
vn -0.5194 0.8003 -0.2994
vn -0.8620 -0.0000 -0.5069
vn -0.8664 0.0001 -0.4994
vn -0.5592 -0.7610 -0.3289
vn -0.5614 -0.7617 -0.3236
vn 0.0002 -1.0000 0.0002
vn 0.0013 -1.0000 0.0007
vn 0.5595 -0.7607 0.3291
vn 0.5631 -0.7600 0.3245
vn 0.8620 -0.0000 0.5070
vn 0.8664 -0.0000 0.4994
vn 0.5181 0.7992 0.3047
vn 0.5217 0.7984 0.3007
vn 0.0052 1.0000 0.0021
vn -0.5495 0.8059 -0.2205
vn -0.9286 0.0022 -0.3710
vn -0.5980 -0.7649 -0.2394
vn 0.0077 -1.0000 0.0030
vn 0.6060 -0.7566 0.2456
vn 0.9262 -0.0017 0.3770
vn 0.5646 0.7929 0.2291
vn -0.5731 -0.7653 -0.2931
vn 0.0072 -1.0000 0.0035
vn 0.8888 -0.0007 0.4583
vn 0.5403 0.7942 0.2782
vn -0.5280 0.8049 -0.2707
vn -0.8904 0.0009 -0.4551
vn 0.5814 -0.7567 0.2990
vn 0.0044 1.0000 0.0022
vn 0.0132 0.9999 0.0065
vn -0.5800 0.8141 -0.0284
vn -0.9987 0.0022 -0.0507
vn -0.6338 -0.7723 -0.0427
vn 0.0225 -0.9997 -0.0078
vn 0.6598 -0.7502 0.0430
vn 0.9968 -0.0054 0.0797
vn 0.6202 0.7829 0.0496
vn 0.0081 1.0000 0.0019
vn -0.5683 0.8091 -0.1496
vn 0.5920 0.7900 0.1593
vn 0.6337 -0.7546 0.1704
vn 0.9650 -0.0025 0.2622
vn -0.6202 -0.7673 -0.1628
vn 0.0127 -0.9999 0.0028
vn -0.9678 0.0033 -0.2516
vn 0.0432 0.9922 0.1167
vn -0.5395 0.7858 0.3024
vn -0.9185 -0.0277 0.3944
vn -0.5768 -0.7817 0.2372
vn 0.0332 -0.9987 0.0375
vn 0.6427 -0.7580 -0.1110
vn 0.9847 -0.0082 -0.1742
vn 0.6267 0.7768 -0.0609
vn -0.5878 0.8039 0.0908
vn -0.9897 -0.0012 0.1434
vn 0.9926 0.0025 -0.1210
vn 0.6072 0.7919 -0.0648
vn 0.0163 -0.9998 -0.0149
vn 0.6564 -0.7487 -0.0933
vn -0.6365 -0.7670 0.0809
vn 0.0025 0.9999 0.0115
vn -0.0005 1.0000 -0.0003
vn -0.5171 0.7987 -0.3076
vn -0.8594 -0.0000 -0.5113
vn -0.5583 -0.7603 -0.3321
vn -0.0008 -1.0000 -0.0005
vn 0.5571 -0.7614 0.3315
vn 0.8594 -0.0000 0.5113
vn 0.5156 0.8000 0.3068
vn 0.5580 -0.7603 0.3324
vn 0.0007 -1.0000 0.0004
vn 0.0004 1.0000 0.0003
vn 0.5168 0.7988 0.3079
vn -0.5156 0.7999 -0.3071
vn -0.5570 -0.7613 -0.3318
vn -0.8591 -0.0000 -0.5117
vn 0.8591 -0.0000 0.5119
vn 0.0011 1.0000 -0.0015
vn -0.5162 0.8009 -0.3035
vn -0.8626 0.0003 -0.5058
vn -0.5582 -0.7623 -0.3275
vn 0.0016 -1.0000 -0.0015
vn 0.5623 -0.7610 0.3235
vn 0.8663 -0.0006 0.4996
vn 0.5209 0.7993 0.2998
vn -0.0014 -1.0000 0.0014
vn -0.5606 -0.7611 -0.3261
vn -0.8637 0.0002 -0.5040
vn -0.5192 0.7996 -0.3018
vn 0.5172 0.8001 0.3038
vn 0.8631 -0.0002 0.5051
vn 0.5589 -0.7616 0.3281
vn -0.0014 1.0000 0.0014
vn -0.0160 0.9966 0.0807
vn -0.5719 0.7854 -0.2369
vn -0.8971 0.0261 -0.4410
vn -0.5967 -0.7412 -0.3075
vn -0.0338 -0.9994 -0.0042
vn 0.5307 -0.7788 0.3343
vn 0.8340 -0.0248 0.5512
vn 0.5259 0.7527 0.3961
vn 0.5588 -0.7614 0.3287
vn -0.0017 -1.0000 -0.0053
vn -0.5659 -0.7573 -0.3260
vn -0.8727 0.0082 -0.4883
vn -0.5352 0.7951 -0.2852
vn -0.0061 0.9997 0.0220
vn 0.5178 0.7878 0.3335
vn 0.8536 0.0009 0.5210
vn 0.0566 0.9962 0.0657
vn -0.5444 0.7743 0.3227
vn -0.8892 -0.0352 0.4562
vn -0.5928 -0.7464 0.3025
vn -0.0084 -0.9992 0.0402
vn 0.5945 -0.7829 -0.1832
vn 0.9464 -0.0945 -0.3088
vn 0.6522 0.7339 -0.1899
vn -0.1360 0.9060 -0.4008
vn -0.6873 0.7134 -0.1367
vn -0.9959 0.0607 0.0665
vn -0.6884 -0.7029 0.1791
vn -0.0535 -0.9984 -0.0193
vn 0.4995 -0.7583 -0.4189
vn 0.6679 -0.0378 -0.7433
vn 0.3922 0.6446 -0.6562
vn -0.1857 0.8847 -0.4276
vn -0.6780 0.7314 -0.0736
vn -0.9772 0.1151 0.1783
vn -0.7351 -0.6736 0.0761
vn -0.2249 -0.9381 -0.2633
vn 0.3509 -0.7481 -0.5632
vn 0.6430 0.0065 -0.7659
vn 0.3484 0.6507 -0.6746
vn 0.5154 -0.7672 -0.3818
vn 0.7862 -0.1077 -0.6085
vn -0.6889 -0.7062 0.1635
vn -0.0605 -0.9981 -0.0143
vn -0.6671 0.7433 0.0499
vn -0.9819 -0.0185 0.1883
vn 0.5354 0.6837 -0.4959
vn -0.0434 0.9784 -0.2021
vn -0.3343 0.6772 -0.6554
vn -0.7429 0.5489 -0.3831
vn -0.9853 -0.0280 -0.1683
vn -0.7848 -0.5307 -0.3200
vn -0.3904 -0.7168 -0.5777
vn 0.0457 -0.5912 -0.8053
vn 0.3263 -0.1255 -0.9369
vn 0.0823 0.4884 -0.8687
vn -0.0053 0.9853 0.1705
vn -0.5733 0.8045 -0.1556
vn -0.9164 0.0887 -0.3904
vn -0.6420 -0.6995 -0.3139
vn -0.0756 -0.9965 -0.0371
vn 0.5011 -0.8071 0.3121
vn 0.8184 -0.0683 0.5706
vn 0.5369 0.7040 0.4650
vn -0.0935 0.8954 0.4352
vn -0.6201 0.7767 0.1107
vn -0.9643 0.1558 -0.2144
vn -0.7051 -0.6352 -0.3150
vn -0.1091 -0.9883 -0.1063
vn 0.4515 -0.8319 0.3225
vn 0.6978 -0.1278 0.7048
vn 0.4101 0.6032 0.6841
vn -0.1411 0.8207 0.5537
vn -0.6489 0.7290 0.2181
vn -0.9746 0.1119 -0.1941
vn -0.6726 -0.6546 -0.3450
vn -0.1191 -0.9832 -0.1382
vn 0.3969 -0.8718 0.2873
vn 0.6308 -0.2217 0.7436
vn 0.3346 0.5154 0.7890
vn -0.3183 0.5805 0.7495
vn -0.6980 0.5197 0.4927
vn -0.9724 0.0464 0.2287
vn -0.8078 -0.5390 0.2384
vn -0.4270 -0.7886 0.4424
vn -0.0176 -0.7023 0.7116
vn 0.2336 -0.2066 0.9501
vn 0.0382 0.3597 0.9323
vn -0.4850 0.1929 -0.8530
vn -0.6021 0.1297 -0.7878
vn -0.6887 -0.1262 -0.7140
vn -0.6072 -0.3539 -0.7114
vn -0.4755 -0.4489 -0.7566
vn -0.3622 -0.3718 -0.8548
vn -0.3003 -0.1546 -0.9412
vn -0.3786 0.1133 -0.9186
vn 0.6882 0.0065 -0.7255
vn 0.3753 0.6438 -0.6668
vn -0.0700 -0.9974 -0.0148
vn 0.5143 -0.7409 -0.4320
vn -0.9746 0.1173 0.1906
vn -0.6920 -0.6744 0.2577
vn -0.1727 0.8776 -0.4472
vn -0.6784 0.7290 -0.0911
vn 0.3461 0.7987 0.4922
vn -0.1058 0.4767 0.8727
vn -0.5092 -0.0602 0.8585
vn 0.1545 0.9428 0.2953
vn -0.4151 0.6544 0.6320
vn -0.7754 0.0570 0.6289
vn -0.1017 0.9727 -0.2084
vn -0.7075 0.7053 -0.0457
vn -0.9803 0.1325 0.1468
vn -0.0312 0.7057 -0.7078
vn -0.6562 0.3474 -0.6699
vn -0.9461 -0.1615 -0.2808
vn 0.0857 0.4790 -0.8736
vn -0.4425 0.0640 -0.8945
vn -0.7712 -0.3805 -0.5104
vn -0.8772 -0.4021 0.2625
vn 0.4473 0.8479 -0.2846
vn 0.3001 0.7990 0.5212
vn 0.8299 0.4128 0.3753
vn 0.9853 -0.1604 0.0594
vn 0.2539 0.9328 0.2556
vn 0.8174 0.5758 0.0193
vn 0.9716 -0.0706 -0.2260
vn -0.0308 0.9694 -0.2436
vn 0.4390 0.6231 -0.6473
vn 0.6878 -0.0362 -0.7250
vn -0.5084 0.7287 -0.4588
vn -0.1972 0.3023 -0.9326
vn 0.2113 -0.2757 -0.9377
vn -0.7278 0.5236 -0.4429
vn -0.4948 0.0564 -0.8672
vn -0.0388 -0.4355 -0.8994
vn 0.6440 -0.5526 -0.5290
vn -0.3975 0.9021 0.1678
vn 0.4315 0.6224 0.6530
vn -0.0541 0.9836 -0.1722
vn 0.0871 0.5812 0.8091
vn -0.4560 0.8896 -0.0265
vn -0.4458 -0.0096 0.8951
vn -0.9675 0.0819 0.2392
vn -0.0660 -0.7662 0.6392
vn -0.4046 -0.8680 0.2879
vn 0.2271 -0.8376 0.4969
vn 0.0103 -0.9899 0.1412
vn 0.5027 -0.8072 0.3094
vn 0.3908 -0.9190 -0.0519
vn 0.9917 -0.1166 0.0543
vn 0.8906 0.0280 -0.4540
vn 0.7277 0.5313 0.4339
vn 0.3282 0.8962 -0.2986
vn -0.1387 0.9332 -0.3315
vn -0.4740 0.8304 -0.2929
vn -0.9939 0.1103 0.0015
vn -0.2868 -0.9021 0.3223
vn 0.1290 -0.9643 0.2315
vn 0.5201 -0.8519 0.0610
vn 0.8537 0.3708 -0.3657
vn 0.2162 0.9083 -0.3582
vn -0.3370 -0.0126 -0.9414
vn -0.6972 0.5160 -0.4977
vn -0.8552 0.0757 0.5128
vn 0.0247 -0.5063 0.8620
vn 0.3015 -0.9153 0.2672
vn 0.7093 -0.3659 0.6025
vn 0.8888 0.4353 -0.1435
vn -0.0111 0.6548 -0.7557
vn 0.6214 -0.7829 0.0305
vn -0.0902 -0.9798 0.1783
vn 0.8034 -0.1859 -0.5657
vn 0.0776 -0.0154 -0.9969
vn -0.5874 -0.2786 -0.7598
vn -0.6610 -0.1715 -0.7305
vn 0.0424 -0.1283 -0.9908
vn -0.8348 -0.5496 0.0316
vn -0.1110 -0.9455 0.3062
vn 0.5453 -0.8371 -0.0426
vt 0.039070 0.597318
vt 0.035136 0.597717
vt 0.034893 0.596197
vt 0.038853 0.595826
vt 0.034759 0.594631
vt 0.038702 0.594339
vt 0.034757 0.593081
vt 0.038632 0.592832
vt 0.450916 0.248189
vt 0.453654 0.242764
vt 0.455764 0.243829
vt 0.452979 0.249344
vt 0.457875 0.244895
vt 0.455042 0.250499
vt 0.040304 0.586609
vt 0.044254 0.586277
vt 0.044278 0.587728
vt 0.040421 0.588123
vt 0.457346 0.237749
vt 0.455133 0.236916
vt 0.454752 0.230623
vt 0.457058 0.231142
vt 0.044460 0.589132
vt 0.040619 0.589616
vt 0.044754 0.590548
vt 0.040884 0.591111
vt 0.450186 0.254879
vt 0.452297 0.255944
vt 0.450823 0.261794
vt 0.448610 0.260961
vt 0.022335 0.595036
vt 0.022685 0.596454
vt 0.018590 0.595481
vt 0.018390 0.594094
vt 0.048239 0.588936
vt 0.048097 0.587576
vt 0.052076 0.587771
vt 0.052160 0.589136
vt 0.030719 0.594673
vt 0.030816 0.596253
vt 0.026603 0.595850
vt 0.026564 0.594308
vt 0.459558 0.238583
vt 0.459365 0.231661
vt 0.048594 0.590282
vt 0.052556 0.590461
vt 0.031143 0.597747
vt 0.026992 0.597303
vt 0.030925 0.593146
vt 0.026987 0.592868
vt 0.048254 0.586182
vt 0.052411 0.586420
vt 0.014900 0.592112
vt 0.014817 0.593474
vt 0.011608 0.593419
vt 0.011498 0.591920
vt 0.056719 0.591098
vt 0.056354 0.589733
vt 0.060649 0.590560
vt 0.060866 0.592018
vt 0.056332 0.588326
vt 0.056771 0.586984
vt 0.061084 0.587648
vt 0.060692 0.589063
vt 0.455001 0.224442
vt 0.452645 0.224245
vt 0.449838 0.218204
vt 0.452202 0.218162
vt 0.022363 0.593559
vt 0.018472 0.592710
vt 0.457357 0.224639
vt 0.454557 0.218102
vt 0.022892 0.592210
vt 0.018938 0.591394
vt 0.067921 0.593183
vt 0.068268 0.591729
vt 0.070642 0.592234
vt 0.070259 0.593968
vt 0.064822 0.591228
vt 0.064957 0.589678
vt 0.068656 0.590253
vt 0.452664 0.211749
vt 0.450326 0.211921
vt 0.449904 0.205779
vt 0.452263 0.205679
vt 0.015147 0.590730
vt 0.011448 0.590466
vt 0.014856 0.594883
vt 0.011719 0.594899
vt 0.064762 0.592771
vt 0.065210 0.588187
vt 0.069019 0.588795
vt 0.447987 0.212066
vt 0.447553 0.205998
vt 0.446594 0.267032
vt 0.448901 0.267551
vt 0.450999 0.274222
vt 0.448617 0.274029
vt 0.036631 0.590112
vt 0.036922 0.591635
vt 0.032903 0.591788
vt 0.032527 0.590293
vt 0.042941 0.596877
vt 0.042693 0.595462
vt 0.046450 0.595384
vt 0.046762 0.596731
vt 0.042555 0.594063
vt 0.042576 0.592622
vt 0.046550 0.592650
vt 0.046351 0.594029
vt 0.036398 0.586980
vt 0.036447 0.588540
vt 0.032381 0.588706
vt 0.032542 0.587163
vt 0.448075 0.253814
vt 0.446397 0.260129
vt 0.454271 0.280624
vt 0.456639 0.280624
vt 0.458988 0.289059
vt 0.456919 0.289019
vt 0.050322 0.595702
vt 0.050281 0.594345
vt 0.054432 0.595029
vt 0.054413 0.596410
vt 0.028192 0.588465
vt 0.028278 0.590019
vt 0.023935 0.589320
vt 0.023920 0.587815
vt 0.451207 0.268070
vt 0.453371 0.274422
vt 0.050658 0.593016
vt 0.054937 0.593732
vt 0.050678 0.597025
vt 0.054762 0.597768
vt 0.028722 0.591471
vt 0.024361 0.590749
vt 0.028580 0.587002
vt 0.024437 0.586447
vt 0.014912 0.587403
vt 0.014975 0.588620
vt 0.010114 0.587419
vt 0.010038 0.586532
vt 0.058808 0.596001
vt 0.059324 0.594645
vt 0.064690 0.595654
vt 0.064303 0.596887
vt 0.059007 0.598904
vt 0.058727 0.597467
vt 0.064222 0.598173
vt 0.064425 0.599443
vt 0.019790 0.588352
vt 0.020045 0.589718
vt 0.020232 0.585685
vt 0.019807 0.586994
vt 0.014922 0.586186
vt 0.015112 0.584986
vt 0.451887 0.280631
vt 0.454837 0.288978
vt 0.071932 0.591088
vt 0.072445 0.590064
vt 0.074166 0.590735
vt 0.073470 0.591684
vt 0.071422 0.589548
vt 0.071096 0.590671
vt 0.446677 0.201988
vt 0.449639 0.201879
vt 0.009219 0.593486
vt 0.009067 0.591874
vt 0.452588 0.201586
vt 0.008963 0.590718
vt 0.009278 0.595259
vt 0.074391 0.592437
vt 0.074565 0.591727
vt 0.075156 0.591699
vt 0.075018 0.592202
vt 0.449519 0.200113
vt 0.446570 0.200215
vt 0.447398 0.197400
vt 0.449331 0.197340
vt 0.008172 0.592124
vt 0.008278 0.593621
vt 0.006660 0.593491
vt 0.006554 0.592419
vt 0.071545 0.592542
vt 0.073163 0.592719
vt 0.452454 0.199815
vt 0.451254 0.197138
vt 0.007864 0.591027
vt 0.006052 0.591358
vt 0.008157 0.595264
vt 0.006322 0.594620
vt 0.071359 0.594182
vt 0.073283 0.593892
vt 0.004939 0.592635
vt 0.004631 0.593209
vt 0.004282 0.592891
vt 0.004604 0.592485
vt 0.450499 0.195941
vt 0.449247 0.196103
vt 0.449193 0.195312
vt 0.450119 0.195130
vt 0.005160 0.591516
vt 0.005473 0.592255
vt 0.004899 0.592115
vt 0.004604 0.591683
vt 0.005509 0.592983
vt 0.005189 0.593666
vt 0.074577 0.593168
vt 0.075213 0.592826
vt 0.075013 0.591060
vt 0.075528 0.591330
vt 0.447984 0.196112
vt 0.448250 0.195257
vt 0.449139 0.194524
vt 0.448414 0.194492
vt 0.448932 0.194187
vt 0.449118 0.194212
vt 0.075376 0.592118
vt 0.075616 0.592579
vt 0.075713 0.591784
vt 0.075407 0.591840
vt 0.004626 0.592206
vt 0.449854 0.194395
vt 0.004336 0.592094
vt 0.010003 0.584696
vt 0.009973 0.585631
vt 0.006764 0.585553
vt 0.006651 0.584973
vt 0.458050 0.297278
vt 0.456540 0.296899
vt 0.069455 0.597338
vt 0.069461 0.598339
vt 0.459558 0.297655
vt 0.069727 0.596394
vt 0.069742 0.599280
vt 0.073183 0.598537
vt 0.072884 0.597969
vt 0.075055 0.597109
vt 0.075157 0.597244
vt 0.457300 0.302784
vt 0.456391 0.302264
vt 0.072838 0.597330
vt 0.006866 0.586107
vt 0.458208 0.303302
vt 0.073025 0.596712
vt 0.006890 0.586684
vt 0.456149 0.305435
vt 0.456283 0.305668
vt 0.455103 0.306088
vt 0.455078 0.306048
vt 0.005104 0.585823
vt 0.005075 0.585684
vt 0.005021 0.585546
vt 0.004967 0.585404
vt 0.456016 0.305201
vt 0.075028 0.596924
vt 0.075078 0.596741
vt 0.075793 0.596773
vt 0.075774 0.596751
vt 0.075768 0.596727
vt 0.075783 0.596700
vt 0.075814 0.596695
vt 0.004392 0.585750
vt 0.004401 0.585723
vt 0.004394 0.585699
vt 0.004369 0.585684
vt 0.455052 0.306007
vt 0.075927 0.592278
vt 0.075846 0.592160
vt 0.075858 0.592053
vt 0.075959 0.592046
vt 0.076070 0.592087
vt 0.004135 0.592437
vt 0.004143 0.592330
vt 0.449299 0.194162
vt 0.004046 0.592304
vt 0.004034 0.592537
vt 0.003929 0.592323
vt 0.004342 0.585693
vt 0.452711 0.839261
vt 0.453436 0.843018
vt 0.455342 0.840938
vt 0.452374 0.844794
vt 0.450147 0.843549
vt 0.452053 0.841468
vt 0.455069 0.841852
vt 0.448060 0.840012
vt 0.452018 0.838470
vt 0.455307 0.837939
vt 0.455020 0.837612
vt 0.947495 0.265674
vt 0.947208 0.265346
vt 0.944444 0.262292
vt 0.945541 0.263514
vt 0.450064 0.836311
vt 0.453353 0.835780
vt 0.452257 0.834558
vt 0.448397 0.834479
vt 0.450624 0.835724
vt 0.447335 0.836255
vt 0.274503 0.328411
vt 0.275627 0.357161
vt 0.273074 0.359615
vt 0.271578 0.329315
vt 0.272028 0.360931
vt 0.270391 0.330370
vt 0.273101 0.360337
vt 0.271638 0.330956
vt 0.275664 0.358183
vt 0.274588 0.330730
vt 0.278217 0.355729
vt 0.277513 0.329826
vt 0.279263 0.354414
vt 0.278699 0.328771
vt 0.281585 0.374253
vt 0.282399 0.375218
vt 0.278191 0.355007
vt 0.277453 0.328185
vt 0.277914 0.376622
vt 0.279727 0.374835
vt 0.281692 0.377164
vt 0.278020 0.379533
vt 0.277207 0.378569
vt 0.279878 0.378952
vt 0.289153 0.385460
vt 0.288965 0.385646
vt 0.277580 0.394379
vt 0.277645 0.394198
vt 0.289227 0.385258
vt 0.289142 0.385158
vt 0.288949 0.385218
vt 0.277655 0.394468
vt 0.277828 0.394414
vt 0.277814 0.394032
s 1
usemtl Snake
f 1/1/1 2/2/2 4/3/4
f 1/1/1 4/3/4 3/4/3
f 3/4/3 4/3/4 6/5/6
f 3/4/3 6/5/6 5/6/5
f 5/6/5 6/5/6 8/7/8
f 5/6/5 8/7/8 7/8/7
f 7/9/7 8/10/8 10/11/10
f 7/9/7 10/11/10 9/12/9
f 9/12/9 10/11/10 12/13/12
f 9/12/9 12/13/12 11/14/11
f 11/15/11 12/16/12 14/17/14
f 11/15/11 14/17/14 13/18/13
f 26/19/26 25/20/25 20/21/20
f 26/19/26 20/21/20 21/22/21
f 13/18/13 14/17/14 16/23/16
f 13/18/13 16/23/16 15/24/15
f 15/24/15 16/23/16 2/25/2
f 15/24/15 2/25/2 1/26/1
f 74/27/74 73/28/73 70/29/70
f 74/27/74 70/29/70 69/30/69
f 42/31/42 41/32/41 33/33/33
f 42/31/42 33/33/33 34/34/34
f 28/35/28 27/36/27 23/37/23
f 28/35/28 23/37/23 24/38/24
f 30/39/30 29/40/29 18/41/18
f 30/39/30 18/41/18 19/42/19
f 31/43/31 26/19/26 21/22/21
f 31/43/31 21/22/21 22/44/22
f 32/45/32 28/35/28 24/38/24
f 32/45/32 24/38/24 17/46/17
f 29/40/29 32/47/32 17/48/17
f 29/40/29 17/48/17 18/41/18
f 25/49/25 30/39/30 19/42/19
f 25/49/25 19/42/19 20/50/20
f 27/36/27 31/51/31 22/52/22
f 27/36/27 22/52/22 23/37/23
f 14/17/14 12/16/12 31/51/31
f 14/17/14 31/51/31 27/36/27
f 8/7/8 6/5/6 30/39/30
f 8/7/8 30/39/30 25/49/25
f 4/3/4 2/2/2 32/47/32
f 4/3/4 32/47/32 29/40/29
f 2/25/2 16/23/16 28/35/28
f 2/25/2 28/35/28 32/45/32
f 12/13/12 10/11/10 26/19/26
f 12/13/12 26/19/26 31/43/31
f 6/5/6 4/3/4 29/40/29
f 6/5/6 29/40/29 30/39/30
f 16/23/16 14/17/14 27/36/27
f 16/23/16 27/36/27 28/35/28
f 10/11/10 8/10/8 25/20/25
f 10/11/10 25/20/25 26/19/26
f 58/53/58 57/54/57 50/55/50
f 58/53/58 50/55/50 51/56/51
f 41/57/41 43/58/43 40/59/40
f 41/57/41 40/59/40 33/60/33
f 45/61/45 44/62/44 38/63/38
f 45/61/45 38/63/38 39/64/39
f 47/65/47 46/66/46 36/67/36
f 47/65/47 36/67/36 37/68/37
f 48/69/48 42/31/42 34/34/34
f 48/69/48 34/34/34 35/70/35
f 43/58/43 45/61/45 39/64/39
f 43/58/43 39/64/39 40/59/40
f 44/71/44 47/65/47 37/68/37
f 44/71/44 37/68/37 38/72/38
f 46/73/46 48/69/48 35/70/35
f 46/73/46 35/70/35 36/74/36
f 20/50/20 19/42/19 48/69/48
f 20/50/20 48/69/48 46/73/46
f 22/44/22 21/22/21 47/65/47
f 22/44/22 47/65/47 44/71/44
f 24/38/24 23/37/23 45/61/45
f 24/38/24 45/61/45 43/58/43
f 19/42/19 18/41/18 42/31/42
f 19/42/19 42/31/42 48/69/48
f 21/22/21 20/21/20 46/66/46
f 21/22/21 46/66/46 47/65/47
f 23/37/23 22/52/22 44/62/44
f 23/37/23 44/62/44 45/61/45
f 17/46/17 24/38/24 43/58/43
f 17/46/17 43/58/43 41/57/41
f 18/41/18 17/48/17 41/32/41
f 18/41/18 41/32/41 42/31/42
f 49/75/49 56/76/56 120/77/120
f 49/75/49 120/77/120 113/78/113
f 60/79/60 59/80/59 55/81/55
f 60/79/60 55/81/55 56/76/56
f 62/82/62 61/83/61 53/84/53
f 62/82/62 53/84/53 54/85/54
f 63/86/63 58/53/58 51/56/51
f 63/86/63 51/56/51 52/87/52
f 57/54/57 64/88/64 49/89/49
f 57/54/57 49/89/49 50/55/50
f 64/90/64 60/79/60 56/76/56
f 64/90/64 56/76/56 49/75/49
f 59/80/59 62/91/62 54/92/54
f 59/80/59 54/92/54 55/81/55
f 61/83/61 63/93/63 52/94/52
f 61/83/61 52/94/52 53/84/53
f 37/68/37 36/67/36 63/93/63
f 37/68/37 63/93/63 61/83/61
f 39/64/39 38/63/38 62/91/62
f 39/64/39 62/91/62 59/80/59
f 33/60/33 40/59/40 60/79/60
f 33/60/33 60/79/60 64/90/64
f 34/34/34 33/33/33 64/88/64
f 34/34/34 64/88/64 57/54/57
f 36/74/36 35/70/35 58/53/58
f 36/74/36 58/53/58 63/86/63
f 38/72/38 37/68/37 61/83/61
f 38/72/38 61/83/61 62/82/62
f 40/59/40 39/64/39 59/80/59
f 40/59/40 59/80/59 60/79/60
f 35/70/35 34/34/34 57/54/57
f 35/70/35 57/54/57 58/53/58
f 90/95/90 89/96/89 85/97/85
f 90/95/90 85/97/85 84/98/84
f 76/99/76 75/100/75 65/101/65
f 76/99/76 65/101/65 72/102/72
f 75/103/75 77/104/77 66/105/66
f 75/103/75 66/105/66 65/106/65
f 79/107/79 78/108/78 68/109/68
f 79/107/79 68/109/68 67/110/67
f 73/111/73 80/112/80 71/113/71
f 73/111/73 71/113/71 70/114/70
f 78/115/78 74/27/74 69/30/69
f 78/115/78 69/30/69 68/116/68
f 80/112/80 76/99/76 72/102/72
f 80/112/80 72/102/72 71/113/71
f 77/104/77 79/107/79 67/110/67
f 77/104/77 67/110/67 66/105/66
f 3/4/3 5/6/5 79/107/79
f 3/4/3 79/107/79 77/104/77
f 13/18/13 15/24/15 76/99/76
f 13/18/13 76/99/76 80/112/80
f 7/9/7 9/12/9 74/27/74
f 7/9/7 74/27/74 78/115/78
f 11/15/11 13/18/13 80/112/80
f 11/15/11 80/112/80 73/111/73
f 5/6/5 7/8/7 78/108/78
f 5/6/5 78/108/78 79/107/79
f 1/1/1 3/4/3 77/104/77
f 1/1/1 77/104/77 75/103/75
f 15/24/15 1/26/1 75/100/75
f 15/24/15 75/100/75 76/99/76
f 9/12/9 11/14/11 73/28/73
f 9/12/9 73/28/73 74/27/74
f 106/117/106 105/118/105 102/119/102
f 106/117/106 102/119/102 101/120/101
f 92/121/92 91/122/91 83/123/83
f 92/121/92 83/123/83 82/124/82
f 94/125/94 93/126/93 88/127/88
f 94/125/94 88/127/88 87/128/87
f 89/96/89 95/129/95 86/130/86
f 89/96/89 86/130/86 85/97/85
f 91/122/91 90/131/90 84/132/84
f 91/122/91 84/132/84 83/123/83
f 96/133/96 92/121/92 82/124/82
f 96/133/96 82/124/82 81/134/81
f 93/126/93 96/135/96 81/136/81
f 93/126/93 81/136/81 88/127/88
f 95/137/95 94/125/94 87/128/87
f 95/137/95 87/128/87 86/138/86
f 70/114/70 71/113/71 94/125/94
f 70/114/70 94/125/94 95/137/95
f 72/102/72 65/101/65 96/135/96
f 72/102/72 96/135/96 93/126/93
f 65/106/65 66/105/66 92/121/92
f 65/106/65 92/121/92 96/133/96
f 67/110/67 68/109/68 90/131/90
f 67/110/67 90/131/90 91/122/91
f 69/30/69 70/29/70 95/129/95
f 69/30/69 95/129/95 89/96/89
f 71/113/71 72/102/72 93/126/93
f 71/113/71 93/126/93 94/125/94
f 66/105/66 67/110/67 91/122/91
f 66/105/66 91/122/91 92/121/92
f 68/116/68 69/30/69 89/96/89
f 68/116/68 89/96/89 90/95/90
f 104/139/104 97/140/97 153/141/153
f 104/139/104 153/141/153 160/142/160
f 108/143/108 107/144/107 100/145/100
f 108/143/108 100/145/100 99/146/99
f 110/147/110 109/148/109 98/149/98
f 110/147/110 98/149/98 97/150/97
f 111/151/111 110/152/110 97/140/97
f 111/151/111 97/140/97 104/139/104
f 105/153/105 112/154/112 103/155/103
f 105/153/105 103/155/103 102/156/102
f 107/157/107 106/117/106 101/120/101
f 107/157/107 101/120/101 100/158/100
f 109/148/109 108/143/108 99/146/99
f 109/148/109 99/146/99 98/149/98
f 112/154/112 111/151/111 104/139/104
f 112/154/112 104/139/104 103/155/103
f 87/128/87 88/127/88 111/151/111
f 87/128/87 111/151/111 112/154/112
f 82/124/82 83/123/83 108/143/108
f 82/124/82 108/143/108 109/148/109
f 84/98/84 85/97/85 106/117/106
f 84/98/84 106/117/106 107/157/107
f 86/138/86 87/128/87 112/154/112
f 86/138/86 112/154/112 105/153/105
f 88/127/88 81/136/81 110/152/110
f 88/127/88 110/152/110 111/151/111
f 81/134/81 82/124/82 109/148/109
f 81/134/81 109/148/109 110/147/110
f 83/123/83 84/132/84 107/144/107
f 83/123/83 107/144/107 108/143/108
f 85/97/85 86/130/86 105/118/105
f 85/97/85 105/118/105 106/117/106
f 138/159/138 137/160/137 126/161/126
f 138/159/138 126/161/126 127/162/127
f 55/81/55 54/92/54 118/163/118
f 55/81/55 118/163/118 119/164/119
f 53/84/53 52/94/52 116/165/116
f 53/84/53 116/165/116 117/166/117
f 51/56/51 50/55/50 114/167/114
f 51/56/51 114/167/114 115/168/115
f 56/76/56 55/81/55 119/164/119
f 56/76/56 119/164/119 120/77/120
f 54/85/54 53/84/53 117/166/117
f 54/85/54 117/166/117 118/169/118
f 52/87/52 51/56/51 115/168/115
f 52/87/52 115/168/115 116/170/116
f 50/55/50 49/89/49 113/171/113
f 50/55/50 113/171/113 114/167/114
f 194/172/194 193/173/193 135/174/135
f 194/172/194 135/174/135 136/175/136
f 140/176/140 139/177/139 124/178/124
f 140/176/140 124/178/124 125/179/125
f 142/180/142 141/181/141 122/182/122
f 142/180/142 122/182/122 123/183/123
f 143/184/143 138/159/138 127/162/127
f 143/184/143 127/162/127 128/185/128
f 137/186/137 140/176/140 125/179/125
f 137/186/137 125/179/125 126/187/126
f 139/188/139 142/180/142 123/183/123
f 139/188/139 123/183/123 124/189/124
f 141/181/141 144/190/144 121/191/121
f 141/181/141 121/191/121 122/182/122
f 144/192/144 143/184/143 128/185/128
f 144/192/144 128/185/128 121/193/121
f 130/194/130 129/195/129 145/196/145
f 130/194/130 145/196/145 146/197/146
f 196/198/196 195/199/195 133/200/133
f 196/198/196 133/200/133 134/201/134
f 198/202/198 197/203/197 131/204/131
f 198/202/198 131/204/131 132/205/132
f 200/206/200 199/207/199 129/195/129
f 200/206/200 129/195/129 130/194/130
f 199/208/199 194/172/194 136/175/136
f 199/208/199 136/175/136 129/209/129
f 193/173/193 196/210/196 134/211/134
f 193/173/193 134/211/134 135/174/135
f 195/199/195 198/212/198 132/213/132
f 195/199/195 132/213/132 133/200/133
f 197/203/197 200/206/200 130/194/130
f 197/203/197 130/194/130 131/204/131
f 113/78/113 120/77/120 143/184/143
f 113/78/113 143/184/143 144/192/144
f 114/167/114 113/171/113 144/190/144
f 114/167/114 144/190/144 141/181/141
f 116/170/116 115/168/115 142/180/142
f 116/170/116 142/180/142 139/188/139
f 118/169/118 117/166/117 140/176/140
f 118/169/118 140/176/140 137/186/137
f 120/77/120 119/164/119 138/159/138
f 120/77/120 138/159/138 143/184/143
f 115/168/115 114/167/114 141/181/141
f 115/168/115 141/181/141 142/180/142
f 117/166/117 116/165/116 139/177/139
f 117/166/117 139/177/139 140/176/140
f 119/164/119 118/163/118 137/160/137
f 119/164/119 137/160/137 138/159/138
f 149/214/149 148/215/148 188/216/188
f 149/214/149 188/216/188 189/217/189
f 129/209/129 136/175/136 152/218/152
f 129/209/129 152/218/152 145/219/145
f 135/174/135 134/211/134 150/220/150
f 135/174/135 150/220/150 151/221/151
f 133/200/133 132/213/132 148/215/148
f 133/200/133 148/215/148 149/214/149
f 131/204/131 130/194/130 146/197/146
f 131/204/131 146/197/146 147/222/147
f 136/175/136 135/174/135 151/221/151
f 136/175/136 151/221/151 152/218/152
f 134/201/134 133/200/133 149/214/149
f 134/201/134 149/214/149 150/223/150
f 132/205/132 131/204/131 147/222/147
f 132/205/132 147/222/147 148/224/148
f 158/225/158 159/226/159 167/227/167
f 158/225/158 167/227/167 166/228/166
f 102/156/102 103/155/103 159/226/159
f 102/156/102 159/226/159 158/225/158
f 100/158/100 101/120/101 157/229/157
f 100/158/100 157/229/157 156/230/156
f 98/149/98 99/146/99 155/231/155
f 98/149/98 155/231/155 154/232/154
f 103/155/103 104/139/104 160/142/160
f 103/155/103 160/142/160 159/226/159
f 101/120/101 102/119/102 158/233/158
f 101/120/101 158/233/158 157/229/157
f 99/146/99 100/145/100 156/234/156
f 99/146/99 156/234/156 155/231/155
f 97/150/97 98/149/98 154/232/154
f 97/150/97 154/232/154 153/235/153
f 161/236/161 162/237/162 170/238/170
f 161/236/161 170/238/170 169/239/169
f 156/230/156 157/229/157 165/240/165
f 156/230/156 165/240/165 164/241/164
f 154/232/154 155/231/155 163/242/163
f 154/232/154 163/242/163 162/237/162
f 159/226/159 160/142/160 168/243/168
f 159/226/159 168/243/168 167/227/167
f 157/229/157 158/233/158 166/244/166
f 157/229/157 166/244/166 165/240/165
f 155/231/155 156/234/156 164/245/164
f 155/231/155 164/245/164 163/242/163
f 153/235/153 154/232/154 162/237/162
f 153/235/153 162/237/162 161/236/161
f 160/142/160 153/141/153 161/246/161
f 160/142/160 161/246/161 168/243/168
f 173/247/173 174/248/174 182/249/182
f 173/247/173 182/249/182 181/250/181
f 168/243/168 161/246/161 169/251/169
f 168/243/168 169/251/169 176/252/176
f 166/228/166 167/227/167 175/253/175
f 166/228/166 175/253/175 174/254/174
f 164/241/164 165/240/165 173/247/173
f 164/241/164 173/247/173 172/255/172
f 162/237/162 163/242/163 171/256/171
f 162/237/162 171/256/171 170/238/170
f 167/227/167 168/243/168 176/252/176
f 167/227/167 176/252/176 175/253/175
f 165/240/165 166/244/166 174/248/174
f 165/240/165 174/248/174 173/247/173
f 163/242/163 164/245/164 172/257/172
f 163/242/163 172/257/172 171/256/171
f 177/258/177 178/259/178 179/260/179
f 177/258/177 179/260/179 180/261/180
f 177/258/177 180/261/180 181/262/181
f 171/256/171 172/257/172 180/261/180
f 171/256/171 180/261/180 179/260/179
f 169/239/169 170/238/170 178/259/178
f 169/239/169 178/259/178 177/258/177
f 176/252/176 169/251/169 177/263/177
f 176/252/176 177/263/177 184/264/184
f 174/254/174 175/253/175 183/265/183
f 174/254/174 183/265/183 182/266/182
f 172/255/172 173/247/173 181/250/181
f 172/255/172 181/250/181 180/267/180
f 170/238/170 171/256/171 179/260/179
f 170/238/170 179/260/179 178/259/178
f 175/253/175 176/252/176 184/264/184
f 175/253/175 184/264/184 183/265/183
f 185/268/185 192/269/192 191/270/191
f 185/268/185 191/270/191 190/271/190
f 185/268/185 190/271/190 189/272/189
f 147/222/147 146/197/146 186/273/186
f 147/222/147 186/273/186 187/274/187
f 152/218/152 151/221/151 191/270/191
f 152/218/152 191/270/191 192/269/192
f 150/223/150 149/214/149 189/217/189
f 150/223/150 189/217/189 190/275/190
f 148/224/148 147/222/147 187/274/187
f 148/224/148 187/274/187 188/276/188
f 146/197/146 145/196/145 185/277/185
f 146/197/146 185/277/185 186/273/186
f 145/219/145 152/218/152 192/269/192
f 145/219/145 192/269/192 185/268/185
f 151/221/151 150/220/150 190/271/190
f 151/221/151 190/271/190 191/270/191
f 123/183/123 122/182/122 200/206/200
f 123/183/123 200/206/200 197/203/197
f 125/179/125 124/178/124 198/212/198
f 125/179/125 198/212/198 195/199/195
f 127/162/127 126/161/126 196/210/196
f 127/162/127 196/210/196 193/173/193
f 121/193/121 128/185/128 194/172/194
f 121/193/121 194/172/194 199/208/199
f 122/182/122 121/191/121 199/207/199
f 122/182/122 199/207/199 200/206/200
f 124/189/124 123/183/123 197/203/197
f 124/189/124 197/203/197 198/202/198
f 126/187/126 125/179/125 195/199/195
f 126/187/126 195/199/195 196/198/196
f 128/185/128 127/162/127 193/173/193
f 128/185/128 193/173/193 194/172/194
f 186/273/186 185/277/185 189/278/189
f 186/273/186 189/278/189 188/276/188
f 186/273/186 188/276/188 187/274/187
f 184/264/184 177/263/177 181/279/181
f 184/264/184 181/279/181 182/266/182
f 184/264/184 182/266/182 183/265/183
f 216/280/216 203/281/203 206/282/206
f 202/283/202 201/284/201 204/285/204
f 202/283/202 204/285/204 205/286/205
f 203/281/203 202/283/202 205/286/205
f 203/281/203 205/286/205 206/282/206
f 201/284/201 217/287/217 204/285/204
f 204/285/204 217/287/217 207/288/207
f 216/280/216 206/282/206 209/289/209
f 205/286/205 204/285/204 207/288/207
f 205/286/205 207/288/207 208/290/208
f 206/282/206 205/286/205 208/290/208
f 206/282/206 208/290/208 209/289/209
f 209/291/209 208/292/208 211/293/211
f 209/291/209 211/293/211 212/294/212
f 207/288/207 217/287/217 210/295/210
f 216/280/216 209/289/209 212/296/212
f 208/290/208 207/288/207 210/295/210
f 208/290/208 210/295/210 211/297/211
f 212/296/212 211/297/211 214/298/214
f 212/296/212 214/298/214 215/299/215
f 210/295/210 217/287/217 213/300/213
f 216/280/216 212/296/212 215/299/215
f 211/297/211 210/295/210 213/300/213
f 211/297/211 213/300/213 214/298/214
f 233/280/233 223/282/223 220/281/220
f 219/283/219 222/286/222 221/285/221
f 219/283/219 221/285/221 218/284/218
f 220/281/220 223/282/223 222/286/222
f 220/281/220 222/286/222 219/283/219
f 218/284/218 221/285/221 234/287/234
f 221/285/221 224/288/224 234/287/234
f 233/280/233 226/289/226 223/282/223
f 222/286/222 225/290/225 224/288/224
f 222/286/222 224/288/224 221/285/221
f 223/282/223 226/289/226 225/290/225
f 223/282/223 225/290/225 222/286/222
f 226/291/226 229/294/229 228/293/228
f 226/291/226 228/293/228 225/292/225
f 224/288/224 227/295/227 234/287/234
f 233/280/233 229/296/229 226/289/226
f 225/290/225 228/297/228 227/295/227
f 225/290/225 227/295/227 224/288/224
f 229/296/229 232/299/232 231/298/231
f 229/296/229 231/298/231 228/297/228
f 227/295/227 230/300/230 234/287/234
f 233/280/233 232/299/232 229/296/229
f 228/297/228 231/298/231 230/300/230
f 228/297/228 230/300/230 227/295/227
f 235/301/235 236/302/236 238/303/238
f 235/301/235 238/303/238 237/304/237
f 237/304/237 238/303/238 240/305/240
f 237/304/237 240/305/240 239/306/239
f 239/306/239 240/305/240 242/307/242
f 239/306/239 242/307/242 241/308/241
f 241/308/241 242/307/242 244/309/244
f 241/308/241 244/309/244 243/310/243
f 243/310/243 244/309/244 246/311/246
f 243/310/243 246/311/246 245/312/245
f 245/312/245 246/311/246 248/313/248
f 245/312/245 248/313/248 247/314/247
f 248/313/248 246/311/246 256/315/256
f 248/313/248 256/315/256 257/316/257
f 247/314/247 248/313/248 250/317/250
f 247/314/247 250/317/250 249/318/249
f 249/318/249 250/317/250 236/302/236
f 249/318/249 236/302/236 235/301/235
f 235/301/235 237/304/237 239/306/239
f 235/301/235 239/306/239 241/308/241
f 235/301/235 241/308/241 243/310/243
f 235/301/235 243/310/243 245/312/245
f 235/301/235 245/312/245 247/314/247
f 235/301/235 247/314/247 249/318/249
f 244/309/244 242/307/242 254/319/254
f 244/309/244 254/319/254 255/320/255
f 250/317/250 248/313/248 257/316/257
f 250/317/250 257/316/257 258/321/258
f 240/305/240 238/303/238 252/322/252
f 240/305/240 252/322/252 253/323/253
f 246/311/246 244/309/244 255/320/255
f 246/311/246 255/320/255 256/315/256
f 236/302/236 250/317/250 258/321/258
f 236/302/236 258/321/258 251/324/251
f 238/303/238 236/302/236 251/324/251
f 238/303/238 251/324/251 252/322/252
f 242/307/242 240/305/240 253/323/253
f 242/307/242 253/323/253 254/319/254
f 259/324/259 266/321/266 270/325/270
f 259/324/259 270/325/270 271/326/271
f 262/319/262 261/323/261 274/327/274
f 262/319/262 274/327/274 275/328/275
f 271/326/271 270/325/270 269/329/269
f 271/326/271 269/329/269 267/330/267
f 271/326/271 267/330/267 268/331/268
f 263/320/263 259/324/259 271/326/271
f 263/320/263 271/326/271 268/331/268
f 265/316/265 264/315/264 267/330/267
f 265/316/265 267/330/267 269/329/269
f 266/321/266 265/316/265 269/329/269
f 266/321/266 269/329/269 270/325/270
f 264/315/264 263/320/263 268/331/268
f 264/315/264 268/331/268 267/330/267
f 272/332/272 273/333/273 276/334/276
f 272/332/272 276/334/276 275/328/275
f 272/332/272 275/328/275 274/327/274
f 260/322/260 259/324/259 273/333/273
f 260/322/260 273/333/273 272/332/272
f 259/324/259 263/320/263 276/334/276
f 259/324/259 276/334/276 273/333/273
f 263/320/263 262/319/262 275/328/275
f 263/320/263 275/328/275 276/334/276
f 261/323/261 260/322/260 272/332/272
f 261/323/261 272/332/272 274/327/274
