# Blender 4.5.5 LTS
# www.blender.org
mtllib Animal_Trichogramma.mtl
o Trichogramma
v -0.002609 0.010829 -0.022130
v -0.002819 0.010128 -0.021768
v -0.002896 0.009171 -0.021636
v -0.002732 0.008214 -0.021768
v -0.002225 0.007719 -0.022130
v -0.002728 0.010829 -0.022624
v -0.003025 0.010128 -0.022624
v -0.003133 0.009171 -0.022624
v -0.002938 0.008214 -0.022624
v -0.002344 0.007719 -0.022624
v -0.002609 0.010829 -0.023118
v -0.002819 0.010128 -0.023480
v -0.002896 0.009171 -0.023612
v -0.002732 0.008214 -0.023480
v -0.002225 0.007719 -0.023118
v -0.002322 0.010829 -0.023323
v -0.002322 0.010128 -0.023834
v -0.002322 0.009171 -0.024021
v -0.002235 0.008214 -0.023834
v -0.001938 0.007719 -0.023323
v -0.002322 0.011085 -0.022624
v -0.001805 0.007462 -0.022624
v -0.002322 0.010829 -0.021925
v -0.002322 0.010128 -0.021414
v -0.002322 0.009171 -0.021226
v -0.002235 0.008214 -0.021414
v -0.001938 0.007719 -0.021925
v 0.002609 0.010829 -0.022130
v 0.002819 0.010128 -0.021768
v 0.002896 0.009171 -0.021636
v 0.002732 0.008214 -0.021768
v 0.002225 0.007719 -0.022130
v 0.002728 0.010829 -0.022624
v 0.003025 0.010128 -0.022624
v 0.003133 0.009171 -0.022624
v 0.002938 0.008214 -0.022624
v 0.002344 0.007719 -0.022624
v 0.002609 0.010829 -0.023118
v 0.002819 0.010128 -0.023480
v 0.002896 0.009171 -0.023612
v 0.002732 0.008214 -0.023480
v 0.002225 0.007719 -0.023118
v 0.002322 0.010829 -0.023323
v 0.002322 0.010128 -0.023834
v 0.002322 0.009171 -0.024021
v 0.002235 0.008214 -0.023834
v 0.001938 0.007719 -0.023323
v 0.002322 0.011085 -0.022624
v 0.001805 0.007462 -0.022624
v 0.002322 0.010829 -0.021925
v 0.002322 0.010128 -0.021414
v 0.002322 0.009171 -0.021226
v 0.002235 0.008214 -0.021414
v 0.001938 0.007719 -0.021925
v -0.001160 0.012291 -0.021583
v -0.001327 0.011159 -0.021295
v -0.001545 0.009870 -0.021146
v -0.002009 0.008548 -0.021279
v -0.001160 0.007469 -0.021872
v -0.001641 0.012296 -0.022350
v -0.002328 0.011239 -0.022478
v -0.002452 0.009759 -0.022690
v -0.002328 0.008400 -0.022615
v -0.001641 0.007173 -0.022619
v -0.001160 0.012230 -0.023019
v -0.002009 0.011458 -0.023503
v -0.002320 0.009594 -0.024056
v -0.002009 0.008627 -0.024142
v -0.001160 0.007474 -0.023398
v -0.000000 0.012230 -0.023340
v -0.000000 0.011458 -0.024059
v -0.000000 0.009583 -0.024401
v -0.000000 0.008641 -0.024377
v -0.000000 0.007057 -0.023598
v -0.000000 0.012647 -0.022213
v -0.000000 0.006377 -0.022377
v -0.000000 0.012447 -0.021358
v -0.000000 0.011393 -0.020914
v -0.000000 0.009412 -0.020780
v -0.000000 0.008100 -0.020834
v -0.000000 0.006964 -0.021305
v -0.002009 0.011482 -0.021428
v -0.002320 0.009600 -0.021241
v -0.000000 0.011831 -0.020886
v -0.000000 0.008916 -0.020657
v -0.001384 0.011171 -0.021099
v -0.001581 0.009881 -0.020921
v -0.000000 0.011404 -0.020904
v -0.000000 0.009424 -0.020771
v -0.002030 0.012095 -0.020748
v -0.002362 0.009739 -0.020397
v -0.000000 0.012523 -0.020605
v -0.000000 0.008903 -0.020363
v -0.002457 0.012564 -0.019654
v -0.002932 0.009200 -0.019153
v -0.000000 0.013174 -0.019449
v -0.000000 0.008006 -0.019104
v -0.002690 0.012764 -0.018145
v -0.003240 0.008870 -0.017565
v -0.000000 0.013471 -0.017908
v -0.000000 0.007487 -0.017508
v -0.002621 0.012332 -0.016358
v -0.003111 0.008856 -0.015840
v -0.000000 0.012962 -0.016146
v -0.000000 0.007622 -0.015790
v -0.002518 0.011796 -0.014206
v -0.002907 0.009022 -0.014493
v 0.000000 0.012239 -0.013919
v -0.000000 0.008064 -0.014698
v -0.002142 0.010014 -0.012980
v -0.002317 0.008780 -0.013181
v 0.000000 0.010205 -0.012840
v 0.000000 0.008357 -0.013298
v -0.003036 0.010651 -0.011062
v -0.003283 0.007595 -0.011682
v 0.000000 0.011113 -0.010694
v 0.000000 0.006551 -0.012013
v -0.003152 0.009443 -0.006876
v -0.003413 0.006208 -0.007533
v 0.000000 0.009931 -0.006487
v 0.000000 0.005102 -0.007884
v -0.002146 0.006276 -0.004360
v -0.002201 0.005651 -0.004689
v 0.000000 0.006374 -0.004191
v 0.000000 0.005377 -0.004903
v -0.002455 0.006729 -0.004183
v -0.002551 0.005670 -0.004792
v 0.000000 0.006855 -0.003989
v 0.000000 0.005323 -0.005044
v -0.001747 0.005741 -0.003585
v -0.001770 0.005481 -0.003722
v 0.000000 0.005781 -0.003515
v 0.000000 0.005367 -0.003811
v -0.000432 0.010686 -0.025647
v -0.000432 0.010922 -0.025734
v -0.000315 0.009092 -0.024388
v -0.000315 0.009562 -0.024313
v -0.000646 0.010701 -0.025614
v -0.000646 0.010937 -0.025701
v -0.000669 0.009053 -0.024342
v -0.000669 0.009524 -0.024266
v -0.000357 0.010250 -0.025538
v -0.000357 0.010577 -0.025167
v -0.000674 0.010153 -0.025414
v -0.000674 0.010615 -0.025019
v -0.000420 0.009820 -0.026309
v -0.000420 0.010081 -0.026593
v -0.000757 0.010127 -0.026559
v -0.000757 0.009865 -0.026274
v -0.000380 0.009779 -0.026274
v -0.000380 0.010111 -0.026636
v -0.000798 0.010168 -0.026593
v -0.000798 0.009835 -0.026231
v -0.000470 0.009161 -0.026757
v -0.000470 0.009463 -0.027075
v -0.000864 0.009515 -0.027033
v -0.000864 0.009214 -0.026715
v -0.000426 0.009116 -0.026720
v -0.000426 0.009496 -0.027121
v -0.000907 0.009560 -0.027070
v -0.000907 0.009181 -0.026669
v -0.000525 0.008489 -0.027342
v -0.000525 0.008820 -0.027690
v -0.000979 0.008880 -0.027642
v -0.000979 0.008550 -0.027294
v -0.000420 0.008386 -0.027259
v -0.000420 0.008895 -0.027796
v -0.001084 0.008984 -0.027725
v -0.001084 0.008475 -0.027189
v -0.000598 0.007716 -0.028057
v -0.000598 0.008065 -0.028424
v -0.001120 0.008135 -0.028369
v -0.001120 0.007786 -0.028001
v -0.000504 0.007620 -0.027978
v -0.000504 0.008136 -0.028522
v -0.001214 0.008231 -0.028447
v -0.001214 0.007715 -0.027903
v -0.000642 0.006936 -0.028622
v -0.000642 0.007287 -0.029016
v -0.001269 0.007373 -0.028952
v -0.001269 0.007021 -0.028558
v -0.000522 0.006815 -0.028518
v -0.000522 0.007375 -0.029144
v -0.001389 0.007493 -0.029056
v -0.001389 0.006934 -0.028429
v -0.000496 0.006373 -0.028801
v -0.000496 0.006871 -0.029503
v -0.001519 0.007022 -0.029415
v -0.001519 0.006524 -0.028713
v -0.000796 0.005567 -0.029399
v -0.000796 0.005842 -0.029860
v -0.001434 0.005940 -0.029812
v -0.001434 0.005664 -0.029352
v -0.001092 0.005438 -0.029738
v -0.001092 0.005487 -0.029820
v -0.001205 0.005504 -0.029812
v -0.001205 0.005455 -0.029730
v -0.001960 0.007579 -0.015712
v -0.001960 0.008034 -0.014575
v -0.002831 0.007579 -0.015712
v -0.002831 0.008034 -0.014575
v -0.001905 0.007129 -0.014008
v -0.001863 0.007637 -0.012889
v -0.002773 0.007201 -0.014008
v -0.002731 0.007709 -0.012889
v 0.001160 0.012291 -0.021583
v 0.001327 0.011159 -0.021295
v 0.001545 0.009870 -0.021146
v 0.002009 0.008548 -0.021279
v 0.001160 0.007469 -0.021872
v 0.001641 0.012296 -0.022350
v 0.002328 0.011239 -0.022478
v 0.002452 0.009759 -0.022690
v 0.002328 0.008400 -0.022615
v 0.001641 0.007173 -0.022619
v 0.001160 0.012230 -0.023019
v 0.002009 0.011458 -0.023503
v 0.002320 0.009594 -0.024056
v 0.002009 0.008627 -0.024142
v 0.001160 0.007474 -0.023398
v 0.002009 0.011482 -0.021428
v 0.002320 0.009600 -0.021241
v 0.001384 0.011171 -0.021099
v 0.001581 0.009881 -0.020921
v 0.002030 0.012095 -0.020748
v 0.002362 0.009739 -0.020397
v 0.002457 0.012564 -0.019654
v 0.002932 0.009200 -0.019153
v 0.002690 0.012764 -0.018145
v 0.003240 0.008870 -0.017565
v 0.002621 0.012332 -0.016358
v 0.003111 0.008856 -0.015840
v 0.002518 0.011796 -0.014206
v 0.002907 0.009022 -0.014493
v 0.002142 0.010014 -0.012980
v 0.002317 0.008780 -0.013181
v 0.003036 0.010651 -0.011062
v 0.003283 0.007595 -0.011682
v 0.003152 0.009443 -0.006876
v 0.003413 0.006208 -0.007533
v 0.002146 0.006276 -0.004360
v 0.002201 0.005651 -0.004689
v 0.002455 0.006729 -0.004183
v 0.002551 0.005670 -0.004792
v 0.001747 0.005741 -0.003585
v 0.001770 0.005481 -0.003722
v 0.000432 0.010686 -0.025647
v 0.000432 0.010922 -0.025734
v 0.000315 0.009092 -0.024388
v 0.000315 0.009562 -0.024313
v 0.000646 0.010701 -0.025614
v 0.000646 0.010937 -0.025701
v 0.000669 0.009053 -0.024342
v 0.000669 0.009524 -0.024266
v 0.000357 0.010250 -0.025538
v 0.000357 0.010577 -0.025167
v 0.000674 0.010153 -0.025414
v 0.000674 0.010615 -0.025019
v 0.000420 0.009820 -0.026309
v 0.000420 0.010081 -0.026593
v 0.000757 0.010127 -0.026559
v 0.000757 0.009865 -0.026274
v 0.000380 0.009779 -0.026274
v 0.000380 0.010111 -0.026636
v 0.000798 0.010168 -0.026593
v 0.000798 0.009835 -0.026231
v 0.000470 0.009161 -0.026757
v 0.000470 0.009463 -0.027075
v 0.000864 0.009515 -0.027033
v 0.000864 0.009214 -0.026715
v 0.000426 0.009116 -0.026720
v 0.000426 0.009496 -0.027121
v 0.000907 0.009560 -0.027070
v 0.000907 0.009181 -0.026669
v 0.000525 0.008489 -0.027342
v 0.000525 0.008820 -0.027690
v 0.000979 0.008880 -0.027642
v 0.000979 0.008550 -0.027294
v 0.000420 0.008386 -0.027259
v 0.000420 0.008895 -0.027796
v 0.001084 0.008984 -0.027725
v 0.001084 0.008475 -0.027189
v 0.000598 0.007716 -0.028057
v 0.000598 0.008065 -0.028424
v 0.001120 0.008135 -0.028369
v 0.001120 0.007786 -0.028001
v 0.000504 0.007620 -0.027978
v 0.000504 0.008136 -0.028522
v 0.001214 0.008231 -0.028447
v 0.001214 0.007715 -0.027903
v 0.000642 0.006936 -0.028622
v 0.000642 0.007287 -0.029016
v 0.001269 0.007373 -0.028952
v 0.001269 0.007021 -0.028558
v 0.000522 0.006815 -0.028518
v 0.000522 0.007375 -0.029144
v 0.001389 0.007493 -0.029056
v 0.001389 0.006934 -0.028429
v 0.000496 0.006373 -0.028801
v 0.000496 0.006871 -0.029503
v 0.001519 0.007022 -0.029415
v 0.001519 0.006524 -0.028713
v 0.000796 0.005567 -0.029399
v 0.000796 0.005842 -0.029860
v 0.001434 0.005940 -0.029812
v 0.001434 0.005664 -0.029352
v 0.001092 0.005438 -0.029738
v 0.001092 0.005487 -0.029820
v 0.001205 0.005504 -0.029812
v 0.001205 0.005455 -0.029730
v 0.001960 0.007579 -0.015712
v 0.001960 0.008034 -0.014575
v 0.002831 0.007579 -0.015712
v 0.002831 0.008034 -0.014575
v 0.001905 0.007129 -0.014008
v 0.001863 0.007637 -0.012889
v 0.002773 0.007201 -0.014008
v 0.002731 0.007709 -0.012889
v -0.004363 0.011003 -0.015676
v -0.003753 0.010683 0.002107
v -0.002755 0.012014 -0.014955
v -0.000491 0.012371 -0.000599
v -0.005888 0.009368 0.000633
v -0.000349 0.012670 -0.002506
v -0.000594 0.012759 -0.004874
v -0.006596 0.009090 -0.001341
v -0.000907 0.012428 -0.007018
v -0.006697 0.009236 -0.003144
v -0.001571 0.012025 -0.010996
v -0.005176 0.010279 -0.009699
v -0.003706 0.011521 -0.016218
v -0.001901 0.012025 0.001516
v -0.003327 0.011314 -0.000897
v -0.003804 0.011220 -0.003068
v -0.004099 0.011252 -0.005025
v -0.003582 0.011447 -0.010308
v 0.004053 0.011026 -0.015719
v 0.004465 0.010721 0.002092
v 0.002531 0.012092 -0.014910
v 0.001122 0.012530 -0.000431
v 0.006457 0.009334 0.000503
v 0.000881 0.012839 -0.002329
v 0.000991 0.012923 -0.004708
v 0.007038 0.009034 -0.001509
v 0.001168 0.012556 -0.006878
v 0.007041 0.009151 -0.003327
v 0.001582 0.012138 -0.010890
v 0.005184 0.010261 -0.009792
v 0.003387 0.011568 -0.016224
v 0.002637 0.012130 0.001605
v 0.003890 0.011373 -0.000885
v 0.004236 0.011266 -0.003080
v 0.004420 0.011262 -0.005062
v 0.003605 0.011487 -0.010312
v -0.001214 0.007097 -0.018999
v -0.001214 0.008520 -0.019820
v -0.001214 0.007219 -0.017509
v -0.001214 0.008317 -0.018268
v -0.002085 0.007097 -0.018999
v -0.002085 0.008520 -0.019820
v -0.002085 0.007219 -0.017509
v -0.002085 0.008317 -0.018268
v -0.001494 0.006653 -0.017483
v -0.001494 0.006788 -0.018332
v -0.002008 0.006650 -0.017483
v -0.002013 0.006785 -0.018333
v -0.001723 0.006493 -0.017538
v -0.001723 0.006748 -0.018359
v -0.002179 0.006497 -0.017537
v -0.002185 0.006751 -0.018359
v -0.001718 0.005890 -0.018605
v -0.001718 0.006750 -0.018604
v -0.002429 0.005890 -0.018602
v -0.002439 0.006750 -0.018601
v -0.001797 0.006236 -0.019858
v -0.001797 0.006938 -0.019856
v -0.002377 0.006237 -0.019855
v -0.002385 0.006938 -0.019854
v -0.001863 0.006208 -0.020298
v -0.001863 0.006619 -0.020677
v -0.002325 0.006209 -0.020296
v -0.002332 0.006621 -0.020676
v -0.001961 0.003114 -0.021175
v -0.001961 0.003211 -0.021537
v -0.002257 0.003115 -0.021175
v -0.002261 0.003212 -0.021536
v -0.001919 0.003103 -0.021134
v -0.001919 0.003222 -0.021578
v -0.002299 0.003104 -0.021134
v -0.002304 0.003224 -0.021577
v -0.001969 0.001505 -0.022219
v -0.001969 0.001692 -0.022543
v -0.002265 0.001507 -0.022218
v -0.002269 0.001693 -0.022543
v -0.002014 0.001528 -0.022257
v -0.002014 0.001669 -0.022504
v -0.002220 0.001529 -0.022257
v -0.002223 0.001670 -0.022504
v -0.001969 0.001505 -0.022219
v -0.001969 0.001692 -0.022543
v -0.002265 0.001507 -0.022218
v -0.002269 0.001693 -0.022543
v -0.002046 0.001039 -0.022735
v -0.002046 0.001196 -0.022899
v -0.002195 0.001040 -0.022734
v -0.002197 0.001196 -0.022899
v -0.002017 0.001019 -0.022714
v -0.002017 0.001215 -0.022920
v -0.002223 0.001020 -0.022713
v -0.002226 0.001216 -0.022920
v -0.002086 0.000301 -0.023546
v -0.002086 0.000383 -0.023633
v -0.002164 0.000301 -0.023546
v -0.002166 0.000384 -0.023633
v 0.001214 0.007097 -0.018999
v 0.001214 0.008520 -0.019820
v 0.001214 0.007219 -0.017509
v 0.001214 0.008317 -0.018268
v 0.002085 0.007097 -0.018999
v 0.002085 0.008520 -0.019820
v 0.002085 0.007219 -0.017509
v 0.002085 0.008317 -0.018268
v 0.001494 0.006653 -0.017483
v 0.001494 0.006788 -0.018332
v 0.002008 0.006650 -0.017483
v 0.002013 0.006785 -0.018333
v 0.001723 0.006493 -0.017538
v 0.001723 0.006748 -0.018359
v 0.002179 0.006497 -0.017537
v 0.002185 0.006751 -0.018359
v 0.001718 0.005890 -0.018605
v 0.001718 0.006750 -0.018604
v 0.002429 0.005890 -0.018602
v 0.002439 0.006750 -0.018601
v 0.001797 0.006236 -0.019858
v 0.001797 0.006938 -0.019856
v 0.002377 0.006237 -0.019855
v 0.002385 0.006938 -0.019854
v 0.001863 0.006208 -0.020298
v 0.001863 0.006619 -0.020677
v 0.002325 0.006209 -0.020296
v 0.002332 0.006621 -0.020676
v 0.001961 0.003114 -0.021175
v 0.001961 0.003211 -0.021537
v 0.002257 0.003115 -0.021175
v 0.002261 0.003212 -0.021536
v 0.001919 0.003103 -0.021134
v 0.001919 0.003222 -0.021578
v 0.002299 0.003104 -0.021134
v 0.002304 0.003224 -0.021577
v 0.001969 0.001505 -0.022219
v 0.001969 0.001692 -0.022543
v 0.002265 0.001507 -0.022218
v 0.002269 0.001693 -0.022543
v 0.002014 0.001528 -0.022257
v 0.002014 0.001669 -0.022504
v 0.002220 0.001529 -0.022257
v 0.002223 0.001670 -0.022504
v 0.001969 0.001505 -0.022219
v 0.001969 0.001692 -0.022543
v 0.002265 0.001507 -0.022218
v 0.002269 0.001693 -0.022543
v 0.002046 0.001039 -0.022735
v 0.002046 0.001196 -0.022899
v 0.002195 0.001040 -0.022734
v 0.002197 0.001196 -0.022899
v 0.002017 0.001019 -0.022714
v 0.002017 0.001215 -0.022920
v 0.002223 0.001020 -0.022713
v 0.002226 0.001216 -0.022920
v 0.002086 0.000301 -0.023546
v 0.002086 0.000383 -0.023633
v 0.002164 0.000301 -0.023546
v 0.002166 0.000384 -0.023633
v -0.001960 0.006517 -0.015109
v -0.001960 0.007579 -0.015712
v -0.001960 0.006666 -0.014072
v -0.001960 0.008034 -0.014575
v -0.002831 0.006517 -0.015109
v -0.002831 0.007579 -0.015712
v -0.002831 0.006666 -0.014072
v -0.002831 0.008034 -0.014575
v -0.002240 0.005916 -0.014063
v -0.002240 0.006058 -0.014596
v -0.002754 0.005913 -0.014063
v -0.002759 0.006054 -0.014597
v -0.002469 0.005322 -0.014348
v -0.002469 0.006018 -0.014623
v -0.002925 0.005325 -0.014347
v -0.002931 0.006021 -0.014622
v -0.002464 0.005662 -0.015174
v -0.002464 0.006583 -0.015227
v -0.003175 0.005663 -0.015170
v -0.003185 0.006583 -0.015224
v -0.002543 0.006605 -0.015971
v -0.002543 0.007306 -0.016190
v -0.003123 0.006605 -0.015968
v -0.003131 0.007306 -0.016188
v -0.002609 0.006341 -0.016319
v -0.002609 0.006807 -0.016693
v -0.003071 0.006342 -0.016317
v -0.003077 0.006808 -0.016691
v -0.003186 0.002909 -0.013845
v -0.003596 0.002910 -0.013844
v -0.003130 0.003008 -0.013482
v -0.003641 0.003007 -0.013479
v -0.003095 0.003016 -0.013453
v -0.003160 0.002901 -0.013875
v -0.003623 0.002902 -0.013873
v -0.003675 0.003015 -0.013450
v -0.003188 0.001015 -0.012784
v -0.003230 0.000942 -0.013054
v -0.003546 0.000943 -0.013052
v -0.003579 0.001014 -0.012782
v -0.003153 0.001023 -0.012755
v -0.003204 0.000934 -0.013083
v -0.003573 0.000935 -0.013081
v -0.003613 0.001022 -0.012753
v -0.003227 0.000150 -0.012587
v -0.003258 0.000094 -0.012790
v -0.003514 0.000095 -0.012789
v -0.003539 0.000149 -0.012585
v -0.003187 0.000159 -0.012554
v -0.003228 0.000085 -0.012823
v -0.003545 0.000086 -0.012822
v -0.003578 0.000158 -0.012552
v -0.003322 -0.000711 -0.012421
v -0.003334 -0.000732 -0.012500
v -0.003434 -0.000732 -0.012500
v -0.003444 -0.000711 -0.012420
v 0.001960 0.006517 -0.015109
v 0.001960 0.007579 -0.015712
v 0.001960 0.006666 -0.014072
v 0.001960 0.008034 -0.014575
v 0.002831 0.006517 -0.015109
v 0.002831 0.007579 -0.015712
v 0.002831 0.006666 -0.014072
v 0.002831 0.008034 -0.014575
v 0.002240 0.005916 -0.014063
v 0.002240 0.006058 -0.014596
v 0.002754 0.005913 -0.014063
v 0.002759 0.006054 -0.014597
v 0.002469 0.005322 -0.014348
v 0.002469 0.006018 -0.014623
v 0.002925 0.005325 -0.014347
v 0.002931 0.006021 -0.014622
v 0.002464 0.005662 -0.015174
v 0.002464 0.006583 -0.015227
v 0.003175 0.005663 -0.015170
v 0.003185 0.006583 -0.015224
v 0.002543 0.006605 -0.015971
v 0.002543 0.007306 -0.016190
v 0.003123 0.006605 -0.015968
v 0.003131 0.007306 -0.016188
v 0.002609 0.006341 -0.016319
v 0.002609 0.006807 -0.016693
v 0.003071 0.006342 -0.016317
v 0.003077 0.006808 -0.016691
v 0.003186 0.002909 -0.013845
v 0.003596 0.002910 -0.013844
v 0.003130 0.003008 -0.013482
v 0.003641 0.003007 -0.013479
v 0.003095 0.003016 -0.013453
v 0.003160 0.002901 -0.013875
v 0.003623 0.002902 -0.013873
v 0.003675 0.003015 -0.013450
v 0.003188 0.001015 -0.012784
v 0.003230 0.000942 -0.013054
v 0.003546 0.000943 -0.013052
v 0.003579 0.001014 -0.012782
v 0.003153 0.001023 -0.012755
v 0.003204 0.000934 -0.013083
v 0.003573 0.000935 -0.013081
v 0.003613 0.001022 -0.012753
v 0.003227 0.000150 -0.012587
v 0.003258 0.000094 -0.012790
v 0.003514 0.000095 -0.012789
v 0.003539 0.000149 -0.012585
v 0.003187 0.000159 -0.012554
v 0.003228 0.000085 -0.012823
v 0.003545 0.000086 -0.012822
v 0.003578 0.000158 -0.012552
v 0.003322 -0.000711 -0.012421
v 0.003334 -0.000732 -0.012500
v 0.003434 -0.000732 -0.012500
v 0.003444 -0.000711 -0.012420
v -0.002015 0.006114 -0.013583
v -0.001905 0.007129 -0.014008
v -0.001961 0.006767 -0.012286
v -0.001863 0.007637 -0.012889
v -0.002832 0.006182 -0.013583
v -0.002773 0.007201 -0.014008
v -0.002778 0.006835 -0.012286
v -0.002731 0.007709 -0.012889
v -0.002380 0.005699 -0.011934
v -0.002380 0.005031 -0.012135
v -0.002774 0.005699 -0.011934
v -0.002774 0.005031 -0.012135
v -0.002721 0.005318 -0.012645
v -0.002676 0.005866 -0.012054
v -0.002267 0.005281 -0.012645
v -0.002221 0.005828 -0.012054
v -0.003113 0.004930 -0.011666
v -0.003112 0.006042 -0.011652
v -0.002401 0.004931 -0.011653
v -0.002392 0.006042 -0.011639
v -0.004044 0.006463 -0.008940
v -0.004129 0.007106 -0.008929
v -0.003472 0.006538 -0.008880
v -0.003550 0.007182 -0.008867
v -0.003996 0.006417 -0.008779
v -0.004072 0.006759 -0.008517
v -0.003540 0.006479 -0.008730
v -0.003610 0.006821 -0.008467
v -0.003666 0.002413 -0.005641
v -0.003734 0.002696 -0.005385
v -0.003375 0.002455 -0.005610
v -0.003439 0.002738 -0.005354
v -0.003701 0.002382 -0.005679
v -0.003783 0.002715 -0.005356
v -0.003327 0.002435 -0.005639
v -0.003404 0.002770 -0.005316
v -0.003706 0.001066 -0.003354
v -0.003772 0.001357 -0.003128
v -0.003415 0.001108 -0.003324
v -0.003477 0.001399 -0.003097
v -0.003670 0.001108 -0.003322
v -0.003720 0.001329 -0.003150
v -0.003467 0.001137 -0.003301
v -0.003514 0.001358 -0.003129
v -0.003706 0.001066 -0.003354
v -0.003772 0.001357 -0.003128
v -0.003415 0.001108 -0.003324
v -0.003477 0.001399 -0.003097
v -0.003682 0.000689 -0.002314
v -0.003721 0.000893 -0.002224
v -0.003536 0.000710 -0.002299
v -0.003572 0.000914 -0.002208
v -0.003706 0.000659 -0.002329
v -0.003754 0.000915 -0.002215
v -0.003503 0.000688 -0.002308
v -0.003548 0.000944 -0.002193
v -0.003702 0.000314 -0.001282
v -0.003723 0.000422 -0.001234
v -0.003625 0.000325 -0.001274
v -0.003644 0.000433 -0.001226
v -0.003936 0.006855 -0.010527
v -0.003282 0.006855 -0.010515
v -0.003290 0.005583 -0.010261
v -0.003936 0.005583 -0.010273
v 0.002015 0.006114 -0.013583
v 0.001905 0.007129 -0.014008
v 0.001961 0.006767 -0.012286
v 0.001863 0.007637 -0.012889
v 0.002832 0.006182 -0.013583
v 0.002773 0.007201 -0.014008
v 0.002778 0.006835 -0.012286
v 0.002731 0.007709 -0.012889
v 0.002380 0.005699 -0.011934
v 0.002380 0.005031 -0.012135
v 0.002774 0.005699 -0.011934
v 0.002774 0.005031 -0.012135
v 0.002721 0.005318 -0.012645
v 0.002676 0.005866 -0.012054
v 0.002267 0.005281 -0.012645
v 0.002221 0.005828 -0.012054
v 0.003113 0.004930 -0.011666
v 0.003112 0.006042 -0.011652
v 0.002401 0.004931 -0.011653
v 0.002392 0.006042 -0.011639
v 0.004044 0.006463 -0.008940
v 0.004129 0.007106 -0.008929
v 0.003472 0.006538 -0.008880
v 0.003550 0.007182 -0.008867
v 0.003996 0.006417 -0.008779
v 0.004072 0.006759 -0.008517
v 0.003540 0.006479 -0.008730
v 0.003610 0.006821 -0.008467
v 0.003666 0.002413 -0.005641
v 0.003734 0.002696 -0.005385
v 0.003375 0.002455 -0.005610
v 0.003439 0.002738 -0.005354
v 0.003701 0.002382 -0.005679
v 0.003783 0.002715 -0.005356
v 0.003327 0.002435 -0.005639
v 0.003404 0.002770 -0.005316
v 0.003706 0.001066 -0.003354
v 0.003772 0.001357 -0.003128
v 0.003415 0.001108 -0.003324
v 0.003477 0.001399 -0.003097
v 0.003670 0.001108 -0.003322
v 0.003720 0.001329 -0.003150
v 0.003467 0.001137 -0.003301
v 0.003514 0.001358 -0.003129
v 0.003706 0.001066 -0.003354
v 0.003772 0.001357 -0.003128
v 0.003415 0.001108 -0.003324
v 0.003477 0.001399 -0.003097
v 0.003682 0.000689 -0.002314
v 0.003721 0.000893 -0.002224
v 0.003536 0.000710 -0.002299
v 0.003572 0.000914 -0.002208
v 0.003706 0.000659 -0.002329
v 0.003754 0.000915 -0.002215
v 0.003503 0.000688 -0.002308
v 0.003548 0.000944 -0.002193
v 0.003702 0.000314 -0.001282
v 0.003723 0.000422 -0.001234
v 0.003625 0.000325 -0.001274
v 0.003644 0.000433 -0.001226
v 0.003936 0.006855 -0.010527
v 0.003282 0.006855 -0.010515
v 0.003290 0.005583 -0.010261
v 0.003936 0.005583 -0.010273
vn -0.6142 0.6844 0.3929
vn -0.7842 0.3049 0.5404
vn -0.8233 -0.0346 0.5666
vn -0.7199 -0.4976 0.4838
vn -0.4353 -0.8492 0.2989
vn -0.7798 0.6261 -0.0000
vn -0.9685 0.2491 -0.0000
vn -0.9991 -0.0432 -0.0000
vn -0.8704 -0.4923 -0.0000
vn -0.5526 -0.8334 -0.0000
vn -0.6142 0.6844 -0.3929
vn -0.7842 0.3049 -0.5404
vn -0.8233 -0.0346 -0.5666
vn -0.7199 -0.4976 -0.4838
vn -0.4353 -0.8492 -0.2989
vn 0.4378 0.7130 -0.5477
vn 0.4045 0.4370 -0.8034
vn 0.3905 0.0875 -0.9164
vn 0.3821 -0.4624 -0.8001
vn 0.6066 -0.6828 -0.4073
vn 0.4072 0.9133 -0.0000
vn 0.5789 -0.8154 -0.0000
vn 0.4378 0.7130 0.5477
vn 0.4045 0.4370 0.8034
vn 0.3905 0.0875 0.9164
vn 0.3821 -0.4624 0.8001
vn 0.6066 -0.6828 0.4073
vn 0.6142 0.6844 0.3929
vn 0.7842 0.3049 0.5404
vn 0.8233 -0.0346 0.5666
vn 0.7199 -0.4976 0.4838
vn 0.4353 -0.8492 0.2989
vn 0.7798 0.6261 -0.0000
vn 0.9685 0.2491 -0.0000
vn 0.9991 -0.0432 -0.0000
vn 0.8704 -0.4923 -0.0000
vn 0.5526 -0.8334 -0.0000
vn 0.6142 0.6844 -0.3929
vn 0.7842 0.3049 -0.5404
vn 0.8233 -0.0346 -0.5666
vn 0.7199 -0.4976 -0.4838
vn 0.4353 -0.8492 -0.2989
vn -0.4378 0.7130 -0.5477
vn -0.4045 0.4370 -0.8034
vn -0.3905 0.0875 -0.9164
vn -0.3821 -0.4624 -0.8001
vn -0.6066 -0.6828 -0.4073
vn -0.4072 0.9133 -0.0000
vn -0.5789 -0.8154 -0.0000
vn -0.4378 0.7130 0.5477
vn -0.4045 0.4370 0.8034
vn -0.3905 0.0875 0.9164
vn -0.3821 -0.4624 0.8001
vn -0.6066 -0.6828 0.4073
vn -0.3862 0.7833 0.4871
vn -0.5285 0.3584 0.7696
vn -0.5554 -0.0874 0.8270
vn -0.6618 -0.3488 0.6636
vn -0.5257 -0.6256 0.5764
vn -0.5798 0.8146 -0.0166
vn -0.9283 0.3719 -0.0068
vn -0.9999 -0.0028 -0.0125
vn -0.9086 -0.4177 0.0057
vn -0.6456 -0.7637 -0.0077
vn -0.3225 0.8310 -0.4531
vn -0.6372 0.4791 -0.6037
vn -0.7313 0.0528 -0.6800
vn -0.5938 -0.3174 -0.7393
vn -0.4183 -0.6699 -0.6134
vn 0.4129 0.7415 -0.5289
vn 0.4105 0.4219 -0.8084
vn 0.4341 0.1157 -0.8934
vn 0.4194 -0.2389 -0.8758
vn 0.4238 -0.6652 -0.6147
vn 0.4048 0.9136 -0.0373
vn 0.4535 -0.8903 0.0413
vn 0.4135 0.7350 0.5374
vn 0.7742 0.4840 0.4079
vn 0.6491 -0.3591 0.6706
vn 0.4631 -0.3400 0.8185
vn 0.4587 -0.6524 0.6033
vn -0.6744 0.3659 0.6413
vn -0.7453 -0.0003 0.6667
vn 0.4131 0.2308 0.8810
vn 0.4204 -0.0043 0.9073
vn -0.5262 0.3751 -0.7631
vn -0.5928 -0.5285 -0.6077
vn 0.5600 0.5864 -0.5853
vn 0.6145 -0.7351 -0.2865
vn -0.5107 0.4381 -0.7398
vn -0.6547 -0.3729 -0.6575
vn 0.3812 0.6275 -0.6789
vn 0.4349 -0.7125 -0.5506
vn -0.6951 0.6250 -0.3552
vn -0.7934 -0.4683 -0.3888
vn 0.4279 0.8580 -0.2842
vn 0.4479 -0.8147 -0.3683
vn -0.7323 0.6808 -0.0134
vn -0.8619 -0.4992 -0.0887
vn 0.4232 0.9048 0.0474
vn 0.4496 -0.8872 -0.1041
vn -0.7334 0.6471 0.2081
vn -0.7007 -0.5773 0.4193
vn 0.4550 0.8571 0.2416
vn 0.7298 -0.6697 0.1372
vn -0.6544 0.5778 0.4877
vn -0.8795 -0.3386 0.3345
vn 0.3987 0.7251 0.5615
vn 0.9617 0.1167 0.2479
vn -0.7935 0.5883 0.1558
vn -0.9366 -0.3420 -0.0763
vn 0.6829 0.6947 0.2260
vn 0.7328 -0.4116 -0.5419
vn -0.6849 0.7145 -0.1429
vn -0.7893 -0.4270 -0.4413
vn 0.3964 0.9177 -0.0253
vn 0.4188 -0.7544 -0.5054
vn -0.7060 0.5856 0.3983
vn -0.8251 -0.5647 -0.0196
vn 0.4041 0.7710 0.4923
vn 0.4314 -0.8874 -0.1624
vn -0.3627 -0.2121 0.9075
vn -0.3337 -0.8245 0.4570
vn 0.6481 0.1788 0.7403
vn 0.4914 -0.8645 0.1060
vn -0.5463 0.1043 0.8311
vn -0.6228 -0.6553 0.4275
vn 0.3721 0.1561 0.9150
vn 0.4272 -0.8974 0.1104
vn -0.4443 0.1178 0.8881
vn -0.4761 -0.7409 0.4737
vn 0.3426 0.1586 0.9260
vn 0.3780 -0.8361 0.3976
vn 0.9599 -0.2592 -0.1064
vn 0.6235 0.7690 -0.1410
vn 0.5973 -0.7766 0.2003
vn 0.7133 0.2016 0.6712
vn -0.9793 -0.2014 -0.0198
vn -0.4931 0.8687 -0.0469
vn -0.5095 -0.8064 0.3002
vn -0.5482 0.1736 0.8181
vn 0.5936 -0.3409 -0.7290
vn 0.7649 0.5338 0.3605
vn -0.7050 -0.4020 -0.5842
vn -0.5769 0.6152 0.5374
vn 0.2175 -0.9107 -0.3512
vn 0.1581 -0.4497 -0.8791
vn -0.4439 -0.4133 -0.7951
vn -0.5076 -0.8044 -0.3088
vn 0.5446 -0.8369 0.0547
vn 0.5376 -0.0392 -0.8423
vn -0.6547 0.0771 -0.7519
vn -0.6379 -0.7540 0.1565
vn 0.2109 -0.9132 -0.3486
vn 0.2106 -0.3980 -0.8929
vn -0.4853 -0.3590 -0.7973
vn -0.5037 -0.8070 -0.3083
vn 0.5177 -0.8525 0.0721
vn 0.5325 -0.0791 -0.8427
vn -0.6706 0.0536 -0.7399
vn -0.6549 -0.7326 0.1857
vn 0.1902 -0.9110 -0.3660
vn 0.2018 -0.4114 -0.8888
vn -0.4784 -0.3697 -0.7965
vn -0.4872 -0.8110 -0.3239
vn 0.5384 -0.8405 0.0605
vn 0.5471 -0.0064 -0.8371
vn -0.6673 0.1319 -0.7330
vn -0.6723 -0.7192 0.1754
vn 0.2473 -0.9099 -0.3329
vn 0.1806 -0.4027 -0.8973
vn -0.4607 -0.3642 -0.8094
vn -0.5346 -0.7954 -0.2856
vn 0.5292 -0.8477 0.0353
vn 0.5366 -0.0186 -0.8436
vn -0.6636 0.1191 -0.7386
vn -0.6722 -0.7252 0.1493
vn 0.3038 -0.9236 -0.2338
vn 0.2163 -0.3600 -0.9075
vn -0.4881 -0.3169 -0.8132
vn -0.5822 -0.7908 -0.1888
vn 0.5425 -0.8323 0.1142
vn 0.5558 -0.0526 -0.8296
vn -0.6827 0.0903 -0.7251
vn -0.6714 -0.7047 0.2294
vn 0.7267 -0.3539 0.5887
vn 0.7108 0.3792 -0.5925
vn -0.6880 0.5171 -0.5091
vn -0.7049 -0.2208 0.6741
vn 0.5682 -0.7675 0.2969
vn 0.5740 -0.1386 -0.8071
vn -0.6827 -0.0077 -0.7307
vn -0.6832 -0.6283 0.3721
vn 0.2049 -0.9692 -0.1367
vn 0.2121 -0.5797 -0.7867
vn -0.4587 -0.4891 -0.7419
vn -0.4660 -0.8809 -0.0835
vn 0.0067 0.6014 0.7989
vn -0.0359 0.7145 -0.6988
vn 0.6194 0.1956 0.7603
vn 0.7072 0.1383 -0.6934
vn -0.0882 0.6944 0.7142
vn -0.3623 0.8610 0.3570
vn -0.4716 0.3202 0.8216
vn -0.6809 0.2502 0.6883
vn 0.3862 0.7833 0.4871
vn 0.5285 0.3584 0.7696
vn 0.5554 -0.0874 0.8270
vn 0.6618 -0.3488 0.6636
vn 0.5257 -0.6256 0.5764
vn 0.5798 0.8146 -0.0166
vn 0.9283 0.3719 -0.0068
vn 0.9999 -0.0028 -0.0125
vn 0.9086 -0.4177 0.0057
vn 0.6456 -0.7637 -0.0077
vn 0.3225 0.8310 -0.4531
vn 0.6372 0.4791 -0.6037
vn 0.7313 0.0528 -0.6800
vn 0.5938 -0.3174 -0.7393
vn 0.4183 -0.6699 -0.6134
vn 0.6744 0.3659 0.6413
vn 0.7453 -0.0003 0.6667
vn 0.5262 0.3751 -0.7631
vn 0.5928 -0.5285 -0.6077
vn 0.5107 0.4381 -0.7398
vn 0.6547 -0.3729 -0.6575
vn 0.6951 0.6250 -0.3552
vn 0.7934 -0.4683 -0.3888
vn 0.7323 0.6808 -0.0134
vn 0.8619 -0.4992 -0.0887
vn 0.7334 0.6471 0.2081
vn 0.7007 -0.5773 0.4193
vn 0.6544 0.5778 0.4877
vn 0.8795 -0.3386 0.3345
vn 0.7935 0.5883 0.1558
vn 0.9366 -0.3420 -0.0763
vn 0.6849 0.7145 -0.1429
vn 0.7893 -0.4270 -0.4413
vn 0.7060 0.5856 0.3983
vn 0.8251 -0.5647 -0.0196
vn 0.3627 -0.2121 0.9075
vn 0.3337 -0.8245 0.4570
vn 0.5463 0.1043 0.8311
vn 0.6228 -0.6553 0.4275
vn 0.4443 0.1178 0.8881
vn 0.4761 -0.7409 0.4737
vn -0.9599 -0.2592 -0.1064
vn -0.6235 0.7690 -0.1410
vn -0.5973 -0.7766 0.2003
vn -0.7133 0.2016 0.6712
vn 0.9793 -0.2014 -0.0198
vn 0.4931 0.8687 -0.0469
vn 0.5095 -0.8064 0.3002
vn 0.5482 0.1736 0.8181
vn -0.5936 -0.3409 -0.7290
vn -0.7649 0.5338 0.3605
vn 0.7050 -0.4020 -0.5842
vn 0.5769 0.6152 0.5374
vn -0.2175 -0.9107 -0.3512
vn -0.1581 -0.4497 -0.8791
vn 0.4439 -0.4133 -0.7951
vn 0.5076 -0.8044 -0.3088
vn -0.5446 -0.8369 0.0547
vn -0.5376 -0.0392 -0.8423
vn 0.6547 0.0771 -0.7519
vn 0.6379 -0.7540 0.1565
vn -0.2109 -0.9132 -0.3486
vn -0.2106 -0.3980 -0.8929
vn 0.4853 -0.3590 -0.7973
vn 0.5037 -0.8070 -0.3083
vn -0.5177 -0.8525 0.0721
vn -0.5325 -0.0791 -0.8427
vn 0.6706 0.0536 -0.7399
vn 0.6549 -0.7326 0.1857
vn -0.1902 -0.9110 -0.3660
vn -0.2018 -0.4114 -0.8889
vn 0.4784 -0.3697 -0.7965
vn 0.4872 -0.8110 -0.3239
vn -0.5384 -0.8405 0.0605
vn -0.5471 -0.0064 -0.8371
vn 0.6673 0.1319 -0.7330
vn 0.6723 -0.7192 0.1754
vn -0.2473 -0.9099 -0.3329
vn -0.1806 -0.4027 -0.8973
vn 0.4607 -0.3642 -0.8094
vn 0.5346 -0.7954 -0.2856
vn -0.5292 -0.8477 0.0353
vn -0.5366 -0.0186 -0.8436
vn 0.6636 0.1191 -0.7386
vn 0.6722 -0.7252 0.1493
vn -0.3038 -0.9236 -0.2338
vn -0.2163 -0.3600 -0.9075
vn 0.4881 -0.3169 -0.8132
vn 0.5822 -0.7908 -0.1888
vn -0.5425 -0.8323 0.1142
vn -0.5558 -0.0526 -0.8296
vn 0.6827 0.0903 -0.7251
vn 0.6714 -0.7047 0.2294
vn -0.7267 -0.3539 0.5887
vn -0.7108 0.3792 -0.5925
vn 0.6880 0.5171 -0.5091
vn 0.7049 -0.2208 0.6741
vn -0.5682 -0.7675 0.2969
vn -0.5740 -0.1386 -0.8071
vn 0.6827 -0.0077 -0.7307
vn 0.6832 -0.6283 0.3721
vn -0.2049 -0.9692 -0.1367
vn -0.2121 -0.5797 -0.7867
vn 0.4587 -0.4891 -0.7419
vn 0.4660 -0.8809 -0.0835
vn -0.0067 0.6014 0.7989
vn 0.0359 0.7145 -0.6988
vn -0.6194 0.1956 0.7603
vn -0.7072 0.1383 -0.6934
vn 0.0882 0.6944 0.7142
vn 0.3623 0.8610 0.3570
vn 0.4716 0.3202 0.8216
vn 0.6809 0.2502 0.6883
vn -0.5930 0.8049 0.0196
vn -0.5663 0.8191 0.0920
vn -0.3483 0.9359 0.0521
vn -0.3505 0.9365 0.0150
vn -0.5676 0.8183 0.0902
vn -0.3802 0.9238 0.0460
vn -0.3950 0.9185 0.0189
vn -0.5669 0.8185 0.0928
vn -0.3536 0.9353 -0.0130
vn -0.5787 0.8129 0.0656
vn -0.3384 0.9408 0.0199
vn -0.6067 0.7949 -0.0087
vn -0.4981 0.8665 0.0331
vn -0.4654 0.8834 0.0550
vn -0.4845 0.8722 0.0675
vn -0.4856 0.8718 0.0652
vn -0.4975 0.8674 0.0052
vn -0.4688 0.8833 0.0070
vn 0.6227 0.7824 -0.0150
vn 0.6005 0.7974 0.0587
vn 0.3848 0.9224 0.0316
vn 0.3849 0.9229 -0.0055
vn 0.6017 0.7967 0.0569
vn 0.4159 0.9091 0.0237
vn 0.4320 0.9018 -0.0112
vn 0.6031 0.7957 0.0548
vn 0.3884 0.9207 -0.0381
vn 0.6147 0.7884 0.0230
vn 0.3733 0.9277 0.0002
vn 0.6343 0.7718 -0.0440
vn 0.5307 0.8476 0.0041
vn 0.5003 0.8654 0.0279
vn 0.5193 0.8537 0.0391
vn 0.5226 0.8520 0.0308
vn 0.5313 0.8467 -0.0295
vn 0.5007 0.8654 -0.0203
vn 0.6585 -0.5749 -0.4856
vn 0.5506 0.4638 -0.6941
vn 0.6981 0.0330 0.7152
vn 0.6262 0.6656 0.4061
vn -0.6486 -0.5666 -0.5082
vn -0.5506 0.4638 -0.6941
vn -0.6725 0.1851 0.7166
vn -0.6262 0.6656 0.4061
vn 0.4905 -0.5940 0.6376
vn 0.5295 -0.8143 -0.2376
vn -0.4388 0.0589 0.8966
vn -0.7790 0.2424 -0.5783
vn 0.3096 -0.7484 0.5866
vn 0.7233 0.4113 -0.5547
vn -0.5935 -0.1058 0.7978
vn -0.5633 0.8143 0.1403
vn 0.6392 -0.7649 0.0790
vn 0.7327 0.6800 0.0274
vn -0.6743 -0.7236 0.1477
vn -0.7730 0.6187 0.1404
vn 0.7439 -0.6551 -0.1322
vn 0.6554 0.7447 -0.1260
vn -0.7425 -0.6598 -0.1156
vn -0.6601 0.7423 -0.1147
vn 0.8579 -0.4363 0.2714
vn 0.6022 0.5154 -0.6097
vn -0.8561 -0.4303 0.2862
vn -0.6079 0.5174 -0.6023
vn 0.2225 -0.9748 0.0163
vn 0.3861 -0.7601 -0.5226
vn -0.2310 -0.9728 0.0199
vn -0.3930 -0.7602 -0.5173
vn 0.5722 -0.7136 0.4041
vn 0.5699 -0.4126 -0.7106
vn -0.5725 -0.7100 0.4100
vn -0.5795 -0.4091 -0.7049
vn 0.5250 0.7374 0.4250
vn 0.3370 0.8946 -0.2934
vn -0.5240 0.7351 0.4302
vn -0.3366 0.8962 -0.2892
vn 0.2456 -0.9449 -0.2166
vn 0.3572 -0.6111 -0.7064
vn -0.2542 -0.9436 -0.2122
vn -0.3643 -0.6123 -0.7017
vn -0.0039 0.9155 -0.4022
vn -0.0033 0.9155 -0.4023
vn -0.0039 0.9138 -0.4061
vn -0.0032 0.9174 -0.3979
vn 0.2770 -0.8633 -0.4219
vn 0.2895 -0.4601 -0.8393
vn -0.2860 -0.8628 -0.4169
vn -0.2965 -0.4621 -0.8358
vn 0.5729 -0.8191 0.0307
vn 0.5761 -0.0302 -0.8168
vn -0.5755 -0.8170 0.0362
vn -0.5839 -0.0284 -0.8114
vn 0.5682 -0.8228 -0.0152
vn 0.5660 -0.0377 -0.8235
vn -0.5701 -0.8215 -0.0097
vn -0.5740 -0.0364 -0.8181
vn -0.6585 -0.5749 -0.4856
vn -0.6981 0.0330 0.7152
vn 0.6486 -0.5666 -0.5082
vn 0.6725 0.1851 0.7166
vn -0.4905 -0.5940 0.6376
vn -0.5295 -0.8143 -0.2376
vn 0.4388 0.0589 0.8966
vn 0.7790 0.2424 -0.5783
vn -0.3096 -0.7484 0.5866
vn -0.7233 0.4113 -0.5547
vn 0.5935 -0.1058 0.7978
vn 0.5633 0.8143 0.1403
vn -0.6392 -0.7649 0.0790
vn -0.7327 0.6800 0.0274
vn 0.6743 -0.7236 0.1477
vn 0.7730 0.6187 0.1404
vn -0.7439 -0.6551 -0.1322
vn -0.6554 0.7447 -0.1260
vn 0.7425 -0.6598 -0.1156
vn 0.6601 0.7423 -0.1147
vn -0.8579 -0.4363 0.2714
vn -0.6022 0.5154 -0.6097
vn 0.8561 -0.4303 0.2862
vn 0.6079 0.5174 -0.6023
vn -0.2225 -0.9748 0.0163
vn -0.3861 -0.7601 -0.5226
vn 0.2310 -0.9728 0.0199
vn 0.3931 -0.7602 -0.5173
vn -0.5722 -0.7136 0.4041
vn -0.5699 -0.4126 -0.7106
vn 0.5725 -0.7100 0.4100
vn 0.5795 -0.4091 -0.7049
vn -0.5250 0.7374 0.4250
vn -0.3370 0.8946 -0.2934
vn 0.5240 0.7351 0.4302
vn 0.3366 0.8962 -0.2892
vn -0.2456 -0.9449 -0.2166
vn -0.3572 -0.6111 -0.7064
vn 0.2542 -0.9436 -0.2122
vn 0.3643 -0.6123 -0.7017
vn 0.0039 0.9155 -0.4022
vn 0.0033 0.9155 -0.4023
vn 0.0039 0.9138 -0.4061
vn 0.0032 0.9174 -0.3979
vn -0.2770 -0.8633 -0.4219
vn -0.2895 -0.4601 -0.8393
vn 0.2860 -0.8628 -0.4169
vn 0.2965 -0.4621 -0.8358
vn -0.5729 -0.8191 0.0307
vn -0.5761 -0.0302 -0.8168
vn 0.5755 -0.8170 0.0362
vn 0.5839 -0.0284 -0.8114
vn -0.5682 -0.8228 -0.0152
vn -0.5660 -0.0377 -0.8235
vn 0.5701 -0.8215 -0.0097
vn 0.5740 -0.0364 -0.8181
vn 0.6849 -0.5019 -0.5283
vn 0.5706 0.2712 -0.7752
vn 0.7052 -0.0136 0.7089
vn 0.5759 0.7469 0.3325
vn -0.6770 -0.4739 -0.5631
vn -0.5706 0.2712 -0.7752
vn -0.6845 0.0951 0.7228
vn -0.5759 0.7469 0.3325
vn 0.6211 -0.4272 0.6571
vn 0.7007 -0.5842 -0.4095
vn -0.5487 -0.1070 0.8292
vn -0.8113 0.1323 -0.5695
vn 0.4856 -0.8396 0.2434
vn 0.8109 0.4363 -0.3899
vn -0.5680 -0.7182 0.4019
vn -0.7512 0.4270 0.5033
vn 0.6596 -0.6039 -0.4476
vn 0.7237 0.5517 0.4146
vn -0.7392 -0.6096 -0.2863
vn -0.7232 0.5183 0.4566
vn 0.9882 -0.1103 -0.1066
vn 0.5965 0.7981 -0.0851
vn -0.9969 -0.0262 -0.0740
vn -0.5981 0.7978 -0.0755
vn 0.6717 -0.4739 -0.5694
vn 0.5415 0.0345 -0.8400
vn -0.6624 -0.4142 -0.6242
vn -0.5555 0.0364 -0.8307
vn 0.2738 -0.9578 -0.0880
vn -0.2759 -0.9579 -0.0799
vn 0.3172 -0.8172 0.4812
vn -0.3143 -0.8134 0.4895
vn 0.5638 -0.2989 0.7699
vn 0.4993 -0.8170 -0.2886
vn -0.5946 -0.7373 -0.3207
vn -0.6297 -0.2745 0.7268
vn 0.2972 -0.8223 0.4853
vn 0.3010 -0.9476 -0.1068
vn -0.3032 -0.9479 -0.0976
vn -0.2938 -0.8192 0.4926
vn 0.6150 -0.3836 0.6889
vn 0.5287 -0.7474 -0.4025
vn -0.5412 -0.7428 -0.3942
vn -0.6020 -0.3849 0.6996
vn 0.2701 -0.8438 0.4637
vn 0.2786 -0.9577 -0.0719
vn -0.2802 -0.9578 -0.0637
vn -0.2669 -0.8414 0.4699
vn 0.6246 -0.4094 0.6650
vn 0.5280 -0.7256 -0.4413
vn -0.5405 -0.7211 -0.4334
vn -0.6112 -0.4115 0.6762
vn 0.5933 -0.4611 0.6598
vn 0.5024 -0.7605 -0.4113
vn -0.5138 -0.7573 -0.4031
vn -0.5802 -0.4617 0.6710
vn -0.6849 -0.5019 -0.5283
vn -0.7052 -0.0136 0.7089
vn 0.6770 -0.4739 -0.5631
vn 0.6845 0.0951 0.7228
vn -0.6211 -0.4272 0.6571
vn -0.7007 -0.5842 -0.4095
vn 0.5487 -0.1070 0.8292
vn 0.8113 0.1323 -0.5695
vn -0.4856 -0.8396 0.2434
vn -0.8109 0.4363 -0.3899
vn 0.5680 -0.7182 0.4019
vn 0.7512 0.4270 0.5033
vn -0.6596 -0.6039 -0.4476
vn -0.7237 0.5517 0.4146
vn 0.7392 -0.6096 -0.2863
vn 0.7232 0.5183 0.4566
vn -0.9882 -0.1103 -0.1066
vn -0.5965 0.7981 -0.0851
vn 0.9969 -0.0262 -0.0740
vn 0.5981 0.7978 -0.0755
vn -0.6717 -0.4739 -0.5694
vn -0.5415 0.0345 -0.8400
vn 0.6624 -0.4142 -0.6242
vn 0.5555 0.0364 -0.8307
vn -0.2738 -0.9578 -0.0880
vn 0.2759 -0.9579 -0.0799
vn -0.3172 -0.8172 0.4812
vn 0.3143 -0.8134 0.4895
vn -0.5638 -0.2989 0.7699
vn -0.4993 -0.8170 -0.2886
vn 0.5946 -0.7373 -0.3207
vn 0.6297 -0.2745 0.7268
vn -0.2972 -0.8223 0.4853
vn -0.3010 -0.9476 -0.1068
vn 0.3032 -0.9479 -0.0976
vn 0.2938 -0.8192 0.4926
vn -0.6150 -0.3836 0.6889
vn -0.5287 -0.7474 -0.4025
vn 0.5412 -0.7428 -0.3942
vn 0.6020 -0.3849 0.6996
vn -0.2701 -0.8438 0.4637
vn -0.2786 -0.9577 -0.0719
vn 0.2802 -0.9578 -0.0637
vn 0.2669 -0.8414 0.4699
vn -0.6246 -0.4094 0.6650
vn -0.5280 -0.7256 -0.4413
vn 0.5405 -0.7211 -0.4334
vn 0.6112 -0.4115 0.6762
vn -0.5933 -0.4611 0.6598
vn -0.5024 -0.7605 -0.4113
vn 0.5138 -0.7573 -0.4031
vn 0.5802 -0.4617 0.6710
vn 0.6301 -0.5210 -0.5757
vn 0.6089 0.2430 -0.7552
vn 0.6986 0.1920 0.6893
vn 0.6570 0.7215 0.2184
vn -0.7075 -0.4098 -0.5757
vn -0.5604 0.3402 -0.7552
vn -0.6573 0.3047 0.6893
vn -0.5289 0.8201 0.2184
vn 0.8244 0.2691 0.4980
vn 0.5736 -0.8012 0.1705
vn -0.8372 0.4731 -0.2746
vn -0.5555 -0.8088 -0.1931
vn -0.6832 -0.5866 -0.4349
vn -0.6815 0.3376 0.6492
vn 0.6052 -0.7328 -0.3111
vn 0.7571 0.0383 0.6521
vn -0.4771 -0.6502 -0.5913
vn -0.3864 0.3700 -0.8448
vn 0.6806 -0.7020 -0.2100
vn 0.6474 0.5122 -0.5644
vn -0.7797 -0.6179 0.1016
vn -0.7191 0.6741 0.1687
vn 0.8568 -0.4457 0.2593
vn 0.5289 0.7930 0.3024
vn -0.6303 -0.6759 -0.3820
vn -0.7724 0.3804 0.5086
vn 0.8482 -0.4792 -0.2255
vn 0.5179 0.5554 0.6506
vn -0.1647 -0.9003 0.4029
vn -0.3851 -0.4945 0.7792
vn 0.3232 -0.8324 0.4502
vn 0.3389 -0.3932 0.8547
vn -0.4190 -0.8994 -0.1245
vn -0.6570 -0.1619 0.7363
vn 0.6649 -0.7468 -0.0124
vn 0.5161 0.0038 0.8565
vn -0.6072 0.6777 -0.4148
vn -0.3658 0.9204 0.1382
vn 0.6758 0.7056 -0.2134
vn 0.2352 0.9535 0.1886
vn -0.1869 -0.8201 0.5408
vn -0.4122 -0.3511 0.8408
vn 0.2934 -0.7547 0.5868
vn 0.3128 -0.2499 0.9164
vn 0.0028 0.8689 0.4949
vn 0.0024 0.8689 0.4950
vn 0.0029 0.8668 0.4987
vn 0.0024 0.8711 0.4912
vn -0.2618 -0.6762 0.6886
vn -0.3725 -0.1534 0.9153
vn 0.2932 -0.6000 0.7443
vn 0.2052 -0.0757 0.9758
vn -0.4899 -0.8393 0.2358
vn -0.6871 0.2039 0.6973
vn 0.6442 -0.6790 0.3520
vn 0.4531 0.3641 0.8137
vn -0.4903 -0.8291 0.2688
vn -0.6790 0.1909 0.7089
vn 0.6312 -0.6730 0.3856
vn 0.4441 0.3473 0.8259
vn -0.6724 0.6033 -0.4289
vn 0.6018 0.7847 -0.1486
vn 0.5411 -0.6070 0.5821
vn -0.7277 -0.6796 0.0927
vn -0.6301 -0.5210 -0.5757
vn -0.6089 0.2430 -0.7552
vn -0.6986 0.1920 0.6893
vn -0.6570 0.7215 0.2184
vn 0.7075 -0.4098 -0.5757
vn 0.5604 0.3402 -0.7552
vn 0.6573 0.3047 0.6893
vn 0.5289 0.8201 0.2184
vn -0.8244 0.2691 0.4980
vn -0.5736 -0.8012 0.1705
vn 0.8372 0.4731 -0.2746
vn 0.5555 -0.8088 -0.1931
vn 0.6832 -0.5866 -0.4349
vn 0.6815 0.3376 0.6492
vn -0.6052 -0.7328 -0.3111
vn -0.7571 0.0383 0.6521
vn 0.4771 -0.6502 -0.5913
vn 0.3864 0.3700 -0.8448
vn -0.6806 -0.7020 -0.2100
vn -0.6474 0.5122 -0.5644
vn 0.7797 -0.6179 0.1016
vn 0.7191 0.6741 0.1687
vn -0.8568 -0.4457 0.2593
vn -0.5289 0.7930 0.3024
vn 0.6303 -0.6759 -0.3820
vn 0.7724 0.3804 0.5086
vn -0.8482 -0.4792 -0.2255
vn -0.5179 0.5554 0.6506
vn 0.1647 -0.9003 0.4029
vn 0.3851 -0.4945 0.7792
vn -0.3232 -0.8324 0.4502
vn -0.3389 -0.3932 0.8547
vn 0.4190 -0.8994 -0.1245
vn 0.6570 -0.1619 0.7363
vn -0.6649 -0.7468 -0.0124
vn -0.5161 0.0038 0.8565
vn 0.6072 0.6777 -0.4148
vn 0.3658 0.9204 0.1382
vn -0.6758 0.7056 -0.2134
vn -0.2352 0.9535 0.1886
vn 0.1869 -0.8201 0.5408
vn 0.4122 -0.3511 0.8408
vn -0.2934 -0.7547 0.5868
vn -0.3128 -0.2499 0.9164
vn -0.0028 0.8689 0.4949
vn -0.0024 0.8689 0.4950
vn -0.0029 0.8668 0.4987
vn -0.0024 0.8711 0.4912
vn 0.2618 -0.6762 0.6886
vn 0.3725 -0.1534 0.9153
vn -0.2932 -0.6000 0.7443
vn -0.2052 -0.0757 0.9758
vn 0.4899 -0.8393 0.2358
vn 0.6871 0.2039 0.6973
vn -0.6442 -0.6790 0.3520
vn -0.4531 0.3641 0.8137
vn 0.4903 -0.8291 0.2688
vn 0.6790 0.1910 0.7089
vn -0.6312 -0.6730 0.3856
vn -0.4441 0.3473 0.8259
vn 0.6724 0.6033 -0.4289
vn -0.6018 0.7847 -0.1486
vn -0.5411 -0.6070 0.5821
vn 0.7277 -0.6796 0.0927
vt 0.881979 0.722613
vt 0.880997 0.727633
vt 0.879137 0.727633
vt 0.879831 0.722613
vt 0.878313 0.731308
vt 0.874647 0.732653
vt 0.877239 0.731308
vt 0.874647 0.713648
vt 0.878313 0.714993
vt 0.877239 0.714993
vt 0.880997 0.717594
vt 0.879137 0.717594
vt 0.874647 0.714993
vt 0.874647 0.722613
vt 0.874647 0.717594
vt 0.874647 0.731308
vt 0.874647 0.727633
vt 0.872055 0.714993
vt 0.869463 0.722613
vt 0.870157 0.717594
vt 0.872055 0.731308
vt 0.870157 0.727633
vt 0.867315 0.722613
vt 0.868297 0.717594
vt 0.870981 0.731308
vt 0.868297 0.727633
vt 0.870981 0.714993
vt 0.919482 0.819803
vt 0.919482 0.821770
vt 0.919936 0.820213
vt 0.933243 0.818924
vt 0.931414 0.816885
vt 0.930603 0.818381
vt 0.928695 0.816439
vt 0.926825 0.816470
vt 0.925632 0.818093
vt 0.927946 0.817638
vt 0.920584 0.818459
vt 0.921622 0.819463
vt 0.921553 0.818295
vt 0.922258 0.819009
vt 0.922133 0.818585
vt 0.921523 0.818280
vt 0.931631 0.819857
vt 0.926026 0.821335
vt 0.928952 0.820477
vt 0.920318 0.821890
vt 0.922688 0.821628
vt 0.927083 0.824231
vt 0.929236 0.823923
vt 0.920804 0.823316
vt 0.922735 0.823978
vt 0.931371 0.821711
vt 0.920968 0.824015
vt 0.923019 0.825188
vt 0.929326 0.824443
vt 0.932383 0.821934
vt 0.927283 0.824978
vt 0.924994 0.818024
vt 0.925805 0.816990
vt 0.995352 0.851367
vt 0.994502 0.850021
vt 0.992774 0.848678
vt 0.993557 0.851333
vt 0.978497 0.823760
vt 0.978797 0.828198
vt 0.978775 0.828224
vt 0.978477 0.823786
vt 0.925776 0.816978
vt 0.924855 0.817539
vt 0.978105 0.830729
vt 0.978426 0.829772
vt 0.975974 0.830821
vt 0.975515 0.832187
vt 0.979211 0.827700
vt 0.978814 0.824811
vt 0.977640 0.824493
vt 0.977563 0.822619
vt 0.974742 0.820610
vt 0.972062 0.832853
vt 0.971167 0.819447
vt 0.988015 0.846815
vt 0.989132 0.850604
vt 0.974851 0.823285
vt 0.983774 0.850820
vt 0.982481 0.846432
vt 0.977079 0.848246
vt 0.978233 0.852162
vt 0.971294 0.822545
vt 0.972594 0.831271
vt 0.968117 0.831712
vt 0.968591 0.830301
vt 0.963769 0.829102
vt 0.963125 0.830094
vt 0.967431 0.822514
vt 0.967317 0.819750
vt 0.934627 0.850752
vt 0.934549 0.848557
vt 0.931668 0.849957
vt 0.931645 0.850941
vt 0.964870 0.820739
vt 0.964412 0.822886
vt 0.969645 0.854056
vt 0.969679 0.852604
vt 0.964107 0.847845
vt 0.963884 0.851460
vt 0.961474 0.822344
vt 0.961022 0.825110
vt 0.960708 0.825537
vt 0.961735 0.821395
vt 0.955901 0.827570
vt 0.956724 0.826536
vt 0.947348 0.823829
vt 0.946476 0.824924
vt 0.958114 0.819689
vt 0.958856 0.817349
vt 0.949464 0.850346
vt 0.949700 0.846519
vt 0.940770 0.849507
vt 0.940240 0.850823
vt 0.949605 0.814105
vt 0.948819 0.816582
vt 0.941709 0.816733
vt 0.942446 0.815334
vt 0.940280 0.814953
vt 0.939973 0.815535
vt 0.942677 0.815376
vt 0.941313 0.817748
vt 0.940879 0.818030
vt 0.987221 0.820440
vt 0.986243 0.821810
vt 0.986474 0.821676
vt 0.986927 0.820818
vt 0.988479 0.823768
vt 0.989035 0.823445
vt 0.940360 0.849795
vt 0.939894 0.850847
vt 0.941332 0.816952
vt 0.942926 0.814720
vt 0.943243 0.814598
vt 0.939816 0.815626
vt 0.940479 0.814697
vt 0.936850 0.850641
vt 0.936656 0.851078
vt 0.533911 0.708182
vt 0.533080 0.708915
vt 0.531166 0.706642
vt 0.531335 0.705587
vt 0.531062 0.706556
vt 0.531230 0.705502
vt 0.533633 0.707966
vt 0.532748 0.709001
vt 0.534277 0.709722
vt 0.534081 0.709193
vt 0.534351 0.709687
vt 0.534155 0.709158
vt 0.535560 0.707127
vt 0.536372 0.707871
vt 0.535638 0.707219
vt 0.535559 0.707321
vt 0.536446 0.705786
vt 0.536560 0.705642
vt 0.535463 0.707254
vt 0.536275 0.707998
vt 0.536276 0.707804
vt 0.536197 0.707906
vt 0.537354 0.706419
vt 0.536642 0.705743
vt 0.537767 0.704006
vt 0.538969 0.705146
vt 0.537457 0.706493
vt 0.537343 0.706637
vt 0.537261 0.706537
vt 0.536548 0.705861
vt 0.538626 0.705114
vt 0.538733 0.704978
vt 0.540597 0.703447
vt 0.540428 0.703659
vt 0.538811 0.705345
vt 0.537610 0.704205
vt 0.537953 0.704238
vt 0.537845 0.704374
vt 0.539554 0.702506
vt 0.539430 0.702663
vt 0.540389 0.700753
vt 0.540587 0.700487
vt 0.539210 0.702503
vt 0.539378 0.702291
vt 0.540377 0.703287
vt 0.540253 0.703444
vt 0.540821 0.700757
vt 0.540678 0.700949
vt 0.541024 0.699834
vt 0.541221 0.699496
vt 0.541991 0.701741
vt 0.541793 0.702007
vt 0.541702 0.701544
vt 0.541559 0.701737
vt 0.542455 0.697909
vt 0.542561 0.697690
vt 0.542794 0.700613
vt 0.542597 0.700950
vt 0.543302 0.697440
vt 0.543321 0.697401
vt 0.543594 0.698308
vt 0.543487 0.698527
vt 0.543486 0.697549
vt 0.543505 0.697510
vt 0.976795 0.848170
vt 0.973515 0.850544
vt 0.973931 0.850540
vt 0.925448 0.850549
vt 0.927671 0.848940
vt 0.928646 0.851645
vt 0.925808 0.852740
vt 0.934267 0.848560
vt 0.970968 0.848096
vt 0.967787 0.850626
vt 0.974046 0.853778
vt 0.971026 0.848327
vt 0.930386 0.848616
vt 0.930425 0.848773
vt 0.922826 0.852929
vt 0.923762 0.849046
vt 0.921606 0.850761
vt 0.990124 0.821381
vt 0.925674 0.850485
vt 0.926034 0.852676
vt 0.928871 0.851581
vt 0.927896 0.848876
vt 0.923052 0.852865
vt 0.921832 0.850697
vt 0.923987 0.848982
vt 0.990128 0.486972
vt 0.993438 0.489800
vt 0.990131 0.491376
vt 0.987224 0.491408
vt 0.986965 0.485866
vt 0.983710 0.490698
vt 0.984069 0.485100
vt 0.980627 0.489568
vt 0.976163 0.484810
vt 0.974874 0.487606
vt 0.967397 0.483510
vt 0.969088 0.485341
vt 0.968368 0.482387
vt 0.977451 0.482014
vt 0.987512 0.480632
vt 0.990220 0.481034
vt 0.993032 0.482536
vt 0.994758 0.486541
vt 0.940826 0.845557
vt 0.938188 0.841537
vt 0.942755 0.841867
vt 0.945161 0.844946
vt 0.942827 0.846344
vt 0.942826 0.846354
vt 0.945331 0.846604
vt 0.942757 0.846457
vt 0.945200 0.847062
vt 0.945332 0.846596
vt 0.942755 0.846465
vt 0.942041 0.846502
vt 0.942049 0.846502
vt 0.945198 0.847072
vt 0.938350 0.846166
vt 0.938356 0.846166
vt 0.942192 0.849015
vt 0.942182 0.849016
vt 0.938473 0.848214
vt 0.936010 0.847231
vt 0.937189 0.848368
vt 0.938464 0.848215
vt 0.933951 0.857309
vt 0.935267 0.857582
vt 0.937184 0.848373
vt 0.936006 0.847235
vt 0.934072 0.857338
vt 0.935145 0.857561
vt 0.932369 0.862437
vt 0.931389 0.861948
vt 0.935266 0.857587
vt 0.933950 0.857313
vt 0.935146 0.857557
vt 0.934073 0.857334
vt 0.932371 0.862433
vt 0.931390 0.861945
vt 0.932251 0.862378
vt 0.932253 0.862375
vt 0.931006 0.863938
vt 0.931004 0.863940
vt 0.931507 0.862006
vt 0.931508 0.862004
vt 0.930433 0.863457
vt 0.930940 0.863886
vt 0.928696 0.866182
vt 0.928427 0.865955
vt 0.930370 0.863401
vt 0.930369 0.863403
vt 0.930941 0.863884
vt 0.930434 0.863456
vt 0.928696 0.866181
vt 0.928427 0.865954
vt 0.952291 0.846589
vt 0.950348 0.843590
vt 0.953593 0.842067
vt 0.955293 0.845978
vt 0.953866 0.847845
vt 0.953865 0.847855
vt 0.955448 0.848178
vt 0.953796 0.847958
vt 0.954718 0.849944
vt 0.955449 0.848169
vt 0.953794 0.847966
vt 0.951933 0.846417
vt 0.951941 0.846416
vt 0.954716 0.849954
vt 0.948997 0.844468
vt 0.949004 0.844468
vt 0.952256 0.849097
vt 0.952246 0.849098
vt 0.949766 0.846478
vt 0.947617 0.846008
vt 0.948790 0.847306
vt 0.949758 0.846479
vt 0.948785 0.847311
vt 0.947614 0.846012
vt 0.957730 0.856541
vt 0.957722 0.856539
vt 0.956515 0.856942
vt 0.956593 0.856917
vt 0.957639 0.856567
vt 0.960097 0.862241
vt 0.959156 0.862557
vt 0.956509 0.856945
vt 0.956599 0.856914
vt 0.957646 0.856569
vt 0.960014 0.862269
vt 0.960020 0.862271
vt 0.960839 0.864735
vt 0.960833 0.864732
vt 0.960104 0.862243
vt 0.959160 0.862555
vt 0.959240 0.862529
vt 0.959244 0.862527
vt 0.960739 0.864764
vt 0.960743 0.864766
vt 0.961370 0.867251
vt 0.961368 0.867250
vt 0.960063 0.864990
vt 0.960059 0.864992
vt 0.960154 0.864961
vt 0.960158 0.864958
vt 0.961142 0.867326
vt 0.961141 0.867327
vt 0.953593 0.842067
vt 0.956817 0.847507
vt 0.955403 0.844616
vt 0.958587 0.842941
vt 0.960495 0.845382
vt 0.958575 0.842731
vt 0.960483 0.845183
vt 0.955391 0.844406
vt 0.956806 0.847309
vt 0.961706 0.848443
vt 0.961231 0.850428
vt 0.959690 0.849675
vt 0.961325 0.847974
vt 0.961332 0.848085
vt 0.959697 0.849785
vt 0.962618 0.850642
vt 0.962469 0.847392
vt 0.962508 0.847389
vt 0.962655 0.850639
vt 0.965653 0.844823
vt 0.965618 0.844826
vt 0.970244 0.843823
vt 0.970412 0.843590
vt 0.970486 0.845473
vt 0.971642 0.844576
vt 0.970933 0.845620
vt 0.966577 0.848500
vt 0.966610 0.848498
vt 0.970322 0.845703
vt 0.981535 0.855878
vt 0.980649 0.856909
vt 0.970801 0.845808
vt 0.971507 0.844765
vt 0.981345 0.856104
vt 0.980647 0.856975
vt 0.987555 0.860521
vt 0.988167 0.859632
vt 0.980542 0.857073
vt 0.981426 0.856043
vt 0.980730 0.856848
vt 0.981430 0.855976
vt 0.987638 0.860394
vt 0.988251 0.859504
vt 0.987641 0.860395
vt 0.987699 0.860307
vt 0.990677 0.861451
vt 0.990620 0.861539
vt 0.988106 0.859720
vt 0.988165 0.859631
vt 0.990888 0.860836
vt 0.990658 0.861448
vt 0.993736 0.862368
vt 0.993858 0.862043
vt 0.990968 0.860682
vt 0.990909 0.860771
vt 0.990699 0.861385
vt 0.990931 0.860772
vt 0.993757 0.862334
vt 0.993880 0.862009
s 1
usemtl Material.002
f 25/1/25 24/2/24 2/3/2
f 25/1/25 2/3/2 3/4/3
f 23/5/23 21/6/21 1/7/1
f 22/8/22 27/9/27 5/10/5
f 26/11/26 25/1/25 3/4/3
f 26/11/26 3/4/3 4/12/4
f 24/2/24 23/5/23 1/7/1
f 24/2/24 1/7/1 2/3/2
f 27/9/27 26/11/26 4/12/4
f 27/9/27 4/12/4 5/10/5
f 22/8/22 5/10/5 10/13/10
f 4/12/4 3/4/3 8/14/8
f 4/12/4 8/14/8 9/15/9
f 2/3/2 1/7/1 6/16/6
f 2/3/2 6/16/6 7/17/7
f 5/10/5 4/12/4 9/15/9
f 5/10/5 9/15/9 10/13/10
f 3/4/3 2/3/2 7/17/7
f 3/4/3 7/17/7 8/14/8
f 1/7/1 21/6/21 6/16/6
f 22/8/22 10/13/10 15/18/15
f 9/15/9 8/14/8 13/19/13
f 9/15/9 13/19/13 14/20/14
f 7/17/7 6/16/6 11/21/11
f 7/17/7 11/21/11 12/22/12
f 10/13/10 9/15/9 14/20/14
f 10/13/10 14/20/14 15/18/15
f 8/14/8 7/17/7 12/22/12
f 8/14/8 12/22/12 13/19/13
f 6/16/6 21/6/21 11/21/11
f 14/20/14 13/19/13 18/23/18
f 14/20/14 18/23/18 19/24/19
f 12/22/12 11/21/11 16/25/16
f 12/22/12 16/25/16 17/26/17
f 15/18/15 14/20/14 19/24/19
f 15/18/15 19/24/19 20/27/20
f 13/19/13 12/22/12 17/26/17
f 13/19/13 17/26/17 18/23/18
f 11/21/11 21/6/21 16/25/16
f 22/8/22 15/18/15 20/27/20
f 22/8/22 20/27/20 19/24/19
f 22/8/22 19/24/19 18/23/18
f 22/8/22 18/23/18 17/26/17
f 22/8/22 17/26/17 16/25/16
f 22/8/22 16/25/16 21/6/21
f 22/8/22 21/6/21 23/5/23
f 22/8/22 23/5/23 24/2/24
f 22/8/22 24/2/24 25/1/25
f 22/8/22 25/1/25 26/11/26
f 22/8/22 26/11/26 27/9/27
f 52/1/52 30/4/30 29/3/29
f 52/1/52 29/3/29 51/2/51
f 50/5/50 28/7/28 48/6/48
f 49/8/49 32/10/32 54/9/54
f 53/11/53 31/12/31 30/4/30
f 53/11/53 30/4/30 52/1/52
f 51/2/51 29/3/29 28/7/28
f 51/2/51 28/7/28 50/5/50
f 54/9/54 32/10/32 31/12/31
f 54/9/54 31/12/31 53/11/53
f 49/8/49 37/13/37 32/10/32
f 31/12/31 36/15/36 35/14/35
f 31/12/31 35/14/35 30/4/30
f 29/3/29 34/17/34 33/16/33
f 29/3/29 33/16/33 28/7/28
f 32/10/32 37/13/37 36/15/36
f 32/10/32 36/15/36 31/12/31
f 30/4/30 35/14/35 34/17/34
f 30/4/30 34/17/34 29/3/29
f 28/7/28 33/16/33 48/6/48
f 49/8/49 42/18/42 37/13/37
f 36/15/36 41/20/41 40/19/40
f 36/15/36 40/19/40 35/14/35
f 34/17/34 39/22/39 38/21/38
f 34/17/34 38/21/38 33/16/33
f 37/13/37 42/18/42 41/20/41
f 37/13/37 41/20/41 36/15/36
f 35/14/35 40/19/40 39/22/39
f 35/14/35 39/22/39 34/17/34
f 33/16/33 38/21/38 48/6/48
f 41/20/41 46/24/46 45/23/45
f 41/20/41 45/23/45 40/19/40
f 39/22/39 44/26/44 43/25/43
f 39/22/39 43/25/43 38/21/38
f 42/18/42 47/27/47 46/24/46
f 42/18/42 46/24/46 41/20/41
f 40/19/40 45/23/45 44/26/44
f 40/19/40 44/26/44 39/22/39
f 38/21/38 43/25/43 48/6/48
f 49/8/49 47/27/47 42/18/42
f 49/8/49 54/9/54 53/11/53
f 49/8/49 53/11/53 52/1/52
f 49/8/49 52/1/52 51/2/51
f 49/8/49 51/2/51 50/5/50
f 49/8/49 50/5/50 48/6/48
f 49/8/49 48/6/48 43/25/43
f 49/8/49 43/25/43 44/26/44
f 49/8/49 44/26/44 45/23/45
f 49/8/49 45/23/45 46/24/46
f 49/8/49 46/24/46 47/27/47
f 77/28/77 75/29/75 55/30/55
f 76/31/76 81/32/81 59/33/59
f 80/34/80 85/35/85 83/36/83
f 80/34/80 83/36/83 58/37/58
f 84/38/84 77/28/77 55/30/55
f 84/38/84 55/30/55 82/39/82
f 81/32/81 80/34/80 58/37/58
f 81/32/81 58/37/58 59/33/59
f 78/40/78 56/41/56 86/42/86
f 78/40/78 86/42/86 88/43/88
f 76/31/76 59/33/59 64/44/64
f 58/37/58 83/36/83 62/45/62
f 58/37/58 62/45/62 63/46/63
f 82/39/82 55/30/55 60/47/60
f 82/39/82 60/47/60 61/48/61
f 59/33/59 58/37/58 63/46/63
f 59/33/59 63/46/63 64/44/64
f 83/36/83 82/39/82 61/48/61
f 83/36/83 61/48/61 62/45/62
f 55/30/55 75/29/75 60/47/60
f 63/46/63 62/45/62 67/49/67
f 63/46/63 67/49/67 68/50/68
f 61/48/61 60/47/60 65/51/65
f 61/48/61 65/51/65 66/52/66
f 64/44/64 63/46/63 68/50/68
f 64/44/64 68/50/68 69/53/69
f 62/45/62 61/48/61 66/52/66
f 62/45/62 66/52/66 67/49/67
f 60/47/60 75/29/75 65/51/65
f 76/31/76 64/44/64 69/53/69
f 66/52/66 65/51/65 70/54/70
f 66/52/66 70/54/70 71/55/71
f 69/53/69 68/50/68 73/56/73
f 69/53/69 73/56/73 74/57/74
f 67/49/67 66/52/66 71/55/71
f 67/49/67 71/55/71 72/58/72
f 65/51/65 75/29/75 70/54/70
f 76/31/76 69/53/69 74/57/74
f 68/50/68 67/49/67 72/58/72
f 68/50/68 72/58/72 73/56/73
f 57/59/57 56/41/56 82/39/82
f 57/59/57 82/39/82 83/36/83
f 79/60/79 57/59/57 83/36/83
f 79/60/79 83/36/83 85/35/85
f 56/41/56 78/40/78 84/38/84
f 56/41/56 84/38/84 82/39/82
f 78/40/78 79/60/79 85/35/85
f 78/40/78 85/35/85 80/34/80
f 78/40/78 80/34/80 81/32/81
f 78/40/78 81/32/81 76/31/76
f 78/40/78 76/31/76 74/57/74
f 78/40/78 74/57/74 73/56/73
f 78/40/78 73/56/73 72/58/72
f 78/40/78 72/58/72 71/55/71
f 78/40/78 71/55/71 70/54/70
f 78/40/78 70/54/70 75/29/75
f 78/40/78 75/29/75 77/28/77
f 78/40/78 77/28/77 84/38/84
f 87/61/87 89/62/89 93/63/93
f 87/61/87 93/63/93 91/64/91
f 79/65/79 78/66/78 88/67/88
f 79/65/79 88/67/88 89/68/89
f 57/59/57 79/60/79 89/69/89
f 57/59/57 89/69/89 87/70/87
f 56/41/56 57/59/57 87/70/87
f 56/41/56 87/70/87 86/42/86
f 92/71/92 90/72/90 94/73/94
f 92/71/92 94/73/94 96/74/96
f 86/75/86 87/76/87 91/77/91
f 86/75/86 91/77/91 90/72/90
f 88/67/88 86/75/86 90/72/90
f 88/67/88 90/72/90 92/71/92
f 89/68/89 88/67/88 92/71/92
f 89/68/89 92/71/92 93/78/93
f 97/79/97 96/74/96 100/80/100
f 97/79/97 100/80/100 101/81/101
f 93/78/93 92/71/92 96/74/96
f 93/78/93 96/74/96 97/79/97
f 91/64/91 93/63/93 97/82/97
f 91/64/91 97/82/97 95/83/95
f 90/72/90 91/77/91 95/84/95
f 90/72/90 95/84/95 94/73/94
f 99/85/99 101/86/101 105/87/105
f 99/85/99 105/87/105 103/88/103
f 95/83/95 97/82/97 101/86/101
f 95/83/95 101/86/101 99/85/99
f 94/73/94 95/84/95 99/89/99
f 94/73/94 99/89/99 98/90/98
f 96/74/96 94/73/94 98/90/98
f 96/74/96 98/90/98 100/80/100
f 104/91/104 102/92/102 106/93/106
f 104/91/104 106/93/106 108/94/108
f 98/90/98 99/89/99 103/95/103
f 98/90/98 103/95/103 102/92/102
f 100/80/100 98/90/98 102/92/102
f 100/80/100 102/92/102 104/91/104
f 101/81/101 100/80/100 104/91/104
f 101/81/101 104/91/104 105/96/105
f 107/97/107 109/98/109 113/99/113
f 107/97/107 113/99/113 111/100/111
f 105/96/105 104/91/104 108/94/108
f 105/96/105 108/94/108 109/101/109
f 103/95/103 105/96/105 109/101/109
f 103/95/103 109/101/109 107/102/107
f 102/92/102 103/95/103 107/102/107
f 102/92/102 107/102/107 106/93/106
f 111/103/111 113/104/113 117/105/117
f 111/103/111 117/105/117 115/106/115
f 106/93/106 107/102/107 111/107/111
f 106/93/106 111/107/111 110/108/110
f 108/94/108 106/93/106 110/108/110
f 108/94/108 110/108/110 112/109/112
f 109/101/109 108/94/108 112/109/112
f 109/101/109 112/109/112 113/110/113
f 116/111/116 114/112/114 118/113/118
f 116/111/116 118/113/118 120/114/120
f 110/108/110 111/107/111 115/115/115
f 110/108/110 115/115/115 114/112/114
f 112/109/112 110/108/110 114/112/114
f 112/109/112 114/112/114 116/111/116
f 113/110/113 112/109/112 116/111/116
f 113/110/113 116/111/116 117/116/117
f 119/117/119 121/118/121 129/119/129
f 119/117/119 129/119/129 127/120/127
f 117/116/117 116/111/116 120/114/120
f 117/116/117 120/114/120 121/121/121
f 115/106/115 117/105/117 121/118/121
f 115/106/115 121/118/121 119/117/119
f 114/112/114 115/115/115 119/122/119
f 114/112/114 119/122/119 118/113/118
f 122/123/122 123/124/123 131/125/131
f 122/123/122 131/125/131 130/126/130
f 118/113/118 119/122/119 127/127/127
f 118/113/118 127/127/127 126/128/126
f 120/114/120 118/113/118 126/128/126
f 120/114/120 126/128/126 128/129/128
f 133/130/133 132/131/132 130/132/130
f 133/130/133 130/132/130 131/133/131
f 123/124/123 122/123/122 126/128/126
f 123/124/123 126/128/126 127/127/127
f 124/134/124 122/135/122 130/132/130
f 124/134/124 130/132/130 132/131/132
f 125/136/125 123/137/123 127/120/127
f 125/136/125 127/120/127 129/119/129
f 122/123/122 124/138/124 128/129/128
f 122/123/122 128/129/128 126/128/126
f 124/138/124 125/139/125 129/140/129
f 124/138/124 129/140/129 121/121/121
f 124/138/124 121/121/121 120/114/120
f 124/138/124 120/114/120 128/129/128
f 125/139/125 124/138/124 132/141/132
f 125/139/125 132/141/132 133/142/133
f 123/137/123 125/136/125 133/143/133
f 123/137/123 133/143/133 131/144/131
f 142/145/142 143/146/143 137/147/137
f 142/145/142 137/147/137 136/148/136
f 136/148/136 137/147/137 141/149/141
f 136/148/136 141/149/141 140/150/140
f 144/151/144 145/152/145 139/153/139
f 144/151/144 139/153/139 138/154/138
f 135/155/135 134/156/134 150/157/150
f 135/155/135 150/157/150 151/158/151
f 142/145/142 144/151/144 138/154/138
f 142/145/142 138/154/138 134/156/134
f 145/152/145 143/146/143 135/155/135
f 145/152/145 135/155/135 139/153/139
f 141/149/141 137/147/137 143/146/143
f 141/149/141 143/146/143 145/152/145
f 136/148/136 140/150/140 144/151/144
f 136/148/136 144/151/144 142/145/142
f 140/150/140 141/149/141 145/152/145
f 140/150/140 145/152/145 144/151/144
f 134/156/134 135/155/135 143/146/143
f 134/156/134 143/146/143 142/145/142
f 146/159/146 149/160/149 161/161/161
f 146/159/146 161/161/161 158/162/158
f 134/156/134 138/154/138 153/163/153
f 134/156/134 153/163/153 150/157/150
f 139/153/139 135/155/135 151/158/151
f 139/153/139 151/158/151 152/164/152
f 138/154/138 139/153/139 152/164/152
f 138/154/138 152/164/152 153/163/153
f 146/159/146 147/165/147 151/158/151
f 146/159/146 151/158/151 150/157/150
f 148/166/148 149/160/149 153/163/153
f 148/166/148 153/163/153 152/164/152
f 149/160/149 146/159/146 150/157/150
f 149/160/149 150/157/150 153/163/153
f 147/165/147 148/166/148 152/164/152
f 147/165/147 152/164/152 151/158/151
f 155/167/155 154/168/154 166/169/166
f 155/167/155 166/169/166 167/170/167
f 147/165/147 146/159/146 158/162/158
f 147/165/147 158/162/158 159/171/159
f 148/166/148 147/165/147 159/171/159
f 148/166/148 159/171/159 160/172/160
f 149/160/149 148/166/148 160/172/160
f 149/160/149 160/172/160 161/161/161
f 154/168/154 155/167/155 159/171/159
f 154/168/154 159/171/159 158/162/158
f 156/173/156 157/174/157 161/161/161
f 156/173/156 161/161/161 160/172/160
f 157/174/157 154/168/154 158/162/158
f 157/174/157 158/162/158 161/161/161
f 155/167/155 156/173/156 160/172/160
f 155/167/155 160/172/160 159/171/159
f 164/175/164 163/176/163 175/177/175
f 164/175/164 175/177/175 176/178/176
f 156/173/156 155/167/155 167/170/167
f 156/173/156 167/170/167 168/179/168
f 157/174/157 156/173/156 168/179/168
f 157/174/157 168/179/168 169/180/169
f 154/168/154 157/174/157 169/180/169
f 154/168/154 169/180/169 166/169/166
f 162/181/162 163/176/163 167/170/167
f 162/181/162 167/170/167 166/169/166
f 164/175/164 165/182/165 169/180/169
f 164/175/164 169/180/169 168/179/168
f 165/182/165 162/181/162 166/169/166
f 165/182/165 166/169/166 169/180/169
f 163/176/163 164/175/164 168/179/168
f 163/176/163 168/179/168 167/170/167
f 170/183/170 173/184/173 185/185/185
f 170/183/170 185/185/185 182/186/182
f 165/182/165 164/175/164 176/178/176
f 165/182/165 176/178/176 177/187/177
f 162/181/162 165/182/165 177/187/177
f 162/181/162 177/187/177 174/188/174
f 163/176/163 162/181/162 174/188/174
f 163/176/163 174/188/174 175/177/175
f 170/183/170 171/189/171 175/177/175
f 170/183/170 175/177/175 174/188/174
f 172/190/172 173/184/173 177/187/177
f 172/190/172 177/187/177 176/178/176
f 173/184/173 170/183/170 174/188/174
f 173/184/173 174/188/174 177/187/177
f 171/189/171 172/190/172 176/178/176
f 171/189/171 176/178/176 175/177/175
f 178/191/178 181/192/181 189/193/189
f 178/191/178 189/193/189 186/194/186
f 171/189/171 170/183/170 182/186/182
f 171/189/171 182/186/182 183/195/183
f 172/190/172 171/189/171 183/195/183
f 172/190/172 183/195/183 184/196/184
f 173/184/173 172/190/172 184/196/184
f 173/184/173 184/196/184 185/185/185
f 178/191/178 179/197/179 183/195/183
f 178/191/178 183/195/183 182/186/182
f 180/198/180 181/192/181 185/185/185
f 180/198/180 185/185/185 184/196/184
f 181/192/181 178/191/178 182/186/182
f 181/192/181 182/186/182 185/185/185
f 179/197/179 180/198/180 184/196/184
f 179/197/179 184/196/184 183/195/183
f 186/194/186 189/193/189 193/199/193
f 186/194/186 193/199/193 190/200/190
f 179/197/179 178/191/178 186/194/186
f 179/197/179 186/194/186 187/201/187
f 180/198/180 179/197/179 187/201/187
f 180/198/180 187/201/187 188/202/188
f 181/192/181 180/198/180 188/202/188
f 181/192/181 188/202/188 189/193/189
f 190/200/190 193/199/193 197/203/197
f 190/200/190 197/203/197 194/204/194
f 187/201/187 186/194/186 190/200/190
f 187/201/187 190/200/190 191/205/191
f 188/202/188 187/201/187 191/205/191
f 188/202/188 191/205/191 192/206/192
f 189/193/189 188/202/188 192/206/192
f 189/193/189 192/206/192 193/199/193
f 197/203/197 196/207/196 195/208/195
f 197/203/197 195/208/195 194/204/194
f 191/205/191 190/200/190 194/204/194
f 191/205/191 194/204/194 195/208/195
f 192/206/192 191/205/191 195/208/195
f 192/206/192 195/208/195 196/207/196
f 193/199/193 192/206/192 196/207/196
f 193/199/193 196/207/196 197/203/197
f 105/87/105 103/88/103 200/209/200
f 105/87/105 200/209/200 198/209/198
f 198/209/198 199/210/199 109/211/109
f 198/209/198 109/211/109 105/87/105
f 201/212/201 200/213/200 103/214/103
f 201/212/201 103/214/103 107/215/107
f 199/216/199 201/216/201 107/97/107
f 199/216/199 107/97/107 109/98/109
f 113/104/113 109/211/109 202/217/202
f 113/104/113 202/217/202 203/218/203
f 202/217/202 109/211/109 199/210/199
f 109/211/109 107/219/107 204/220/204
f 109/211/109 204/220/204 202/217/202
f 203/221/203 111/100/111 205/222/205
f 111/223/111 107/215/107 204/224/204
f 111/223/111 204/224/204 205/225/205
f 77/28/77 206/30/206 75/29/75
f 76/31/76 210/33/210 81/32/81
f 80/34/80 209/37/209 222/36/222
f 80/34/80 222/36/222 85/35/85
f 84/38/84 221/39/221 206/30/206
f 84/38/84 206/30/206 77/28/77
f 81/32/81 210/33/210 209/37/209
f 81/32/81 209/37/209 80/34/80
f 78/40/78 88/43/88 223/42/223
f 78/40/78 223/42/223 207/41/207
f 76/31/76 215/44/215 210/33/210
f 209/37/209 214/46/214 213/45/213
f 209/37/209 213/45/213 222/36/222
f 221/39/221 212/48/212 211/47/211
f 221/39/221 211/47/211 206/30/206
f 210/33/210 215/44/215 214/46/214
f 210/33/210 214/46/214 209/37/209
f 222/36/222 213/45/213 212/48/212
f 222/36/222 212/48/212 221/39/221
f 206/30/206 211/47/211 75/29/75
f 214/46/214 219/50/219 218/49/218
f 214/46/214 218/49/218 213/45/213
f 212/48/212 217/52/217 216/51/216
f 212/48/212 216/51/216 211/47/211
f 215/44/215 220/53/220 219/50/219
f 215/44/215 219/50/219 214/46/214
f 213/45/213 218/49/218 217/52/217
f 213/45/213 217/52/217 212/48/212
f 211/47/211 216/51/216 75/29/75
f 76/31/76 220/53/220 215/44/215
f 217/52/217 71/55/71 70/54/70
f 217/52/217 70/54/70 216/51/216
f 220/53/220 74/57/74 73/56/73
f 220/53/220 73/56/73 219/50/219
f 218/49/218 72/58/72 71/55/71
f 218/49/218 71/55/71 217/52/217
f 216/51/216 70/54/70 75/29/75
f 76/31/76 74/57/74 220/53/220
f 219/50/219 73/56/73 72/58/72
f 219/50/219 72/58/72 218/49/218
f 208/59/208 222/36/222 221/39/221
f 208/59/208 221/39/221 207/41/207
f 79/60/79 85/35/85 222/36/222
f 79/60/79 222/36/222 208/59/208
f 207/41/207 221/39/221 84/38/84
f 207/41/207 84/38/84 78/40/78
f 224/61/224 226/64/226 93/63/93
f 224/61/224 93/63/93 89/62/89
f 208/59/208 224/70/224 89/69/89
f 208/59/208 89/69/89 79/60/79
f 207/41/207 223/42/223 224/70/224
f 207/41/207 224/70/224 208/59/208
f 92/71/92 96/74/96 227/73/227
f 92/71/92 227/73/227 225/72/225
f 223/75/223 225/72/225 226/77/226
f 223/75/223 226/77/226 224/76/224
f 88/67/88 92/71/92 225/72/225
f 88/67/88 225/72/225 223/75/223
f 226/64/226 228/83/228 97/82/97
f 226/64/226 97/82/97 93/63/93
f 225/72/225 227/73/227 228/84/228
f 225/72/225 228/84/228 226/77/226
f 230/85/230 232/88/232 105/87/105
f 230/85/230 105/87/105 101/86/101
f 228/83/228 230/85/230 101/86/101
f 228/83/228 101/86/101 97/82/97
f 227/73/227 229/90/229 230/89/230
f 227/73/227 230/89/230 228/84/228
f 96/74/96 100/80/100 229/90/229
f 96/74/96 229/90/229 227/73/227
f 104/91/104 108/94/108 233/93/233
f 104/91/104 233/93/233 231/92/231
f 229/90/229 231/92/231 232/95/232
f 229/90/229 232/95/232 230/89/230
f 100/80/100 104/91/104 231/92/231
f 100/80/100 231/92/231 229/90/229
f 234/97/234 236/100/236 113/99/113
f 234/97/234 113/99/113 109/98/109
f 232/95/232 234/102/234 109/101/109
f 232/95/232 109/101/109 105/96/105
f 231/92/231 233/93/233 234/102/234
f 231/92/231 234/102/234 232/95/232
f 236/103/236 238/106/238 117/105/117
f 236/103/236 117/105/117 113/104/113
f 233/93/233 235/108/235 236/107/236
f 233/93/233 236/107/236 234/102/234
f 108/94/108 112/109/112 235/108/235
f 108/94/108 235/108/235 233/93/233
f 116/111/116 120/114/120 239/113/239
f 116/111/116 239/113/239 237/112/237
f 235/108/235 237/112/237 238/115/238
f 235/108/235 238/115/238 236/107/236
f 112/109/112 116/111/116 237/112/237
f 112/109/112 237/112/237 235/108/235
f 240/117/240 244/120/244 129/119/129
f 240/117/240 129/119/129 121/118/121
f 238/106/238 240/117/240 121/118/121
f 238/106/238 121/118/121 117/105/117
f 237/112/237 239/113/239 240/122/240
f 237/112/237 240/122/240 238/115/238
f 241/135/241 245/132/245 246/133/246
f 241/135/241 246/133/246 242/226/242
f 239/113/239 243/128/243 244/127/244
f 239/113/239 244/127/244 240/122/240
f 120/114/120 128/129/128 243/128/243
f 120/114/120 243/128/243 239/113/239
f 133/130/133 246/133/246 245/132/245
f 133/130/133 245/132/245 132/131/132
f 242/124/242 244/127/244 243/128/243
f 242/124/242 243/128/243 241/123/241
f 124/134/124 132/131/132 245/132/245
f 124/134/124 245/132/245 241/135/241
f 125/136/125 129/119/129 244/120/244
f 125/136/125 244/120/244 242/137/242
f 241/123/241 243/128/243 128/129/128
f 241/123/241 128/129/128 124/138/124
f 242/137/242 246/144/246 133/143/133
f 242/137/242 133/143/133 125/136/125
f 255/145/255 249/148/249 250/147/250
f 255/145/255 250/147/250 256/146/256
f 249/148/249 253/150/253 254/149/254
f 249/148/249 254/149/254 250/147/250
f 257/151/257 251/154/251 252/153/252
f 257/151/257 252/153/252 258/152/258
f 248/155/248 264/158/264 263/157/263
f 248/155/248 263/157/263 247/156/247
f 255/145/255 247/156/247 251/154/251
f 255/145/255 251/154/251 257/151/257
f 258/152/258 252/153/252 248/155/248
f 258/152/258 248/155/248 256/146/256
f 254/149/254 258/152/258 256/146/256
f 254/149/254 256/146/256 250/147/250
f 249/148/249 255/145/255 257/151/257
f 249/148/249 257/151/257 253/150/253
f 253/150/253 257/151/257 258/152/258
f 253/150/253 258/152/258 254/149/254
f 247/156/247 255/145/255 256/146/256
f 247/156/247 256/146/256 248/155/248
f 259/159/259 271/162/271 274/161/274
f 259/159/259 274/161/274 262/160/262
f 247/156/247 263/157/263 266/163/266
f 247/156/247 266/163/266 251/154/251
f 252/153/252 265/164/265 264/158/264
f 252/153/252 264/158/264 248/155/248
f 251/154/251 266/163/266 265/164/265
f 251/154/251 265/164/265 252/153/252
f 259/159/259 263/157/263 264/158/264
f 259/159/259 264/158/264 260/165/260
f 261/166/261 265/164/265 266/163/266
f 261/166/261 266/163/266 262/160/262
f 262/160/262 266/163/266 263/157/263
f 262/160/262 263/157/263 259/159/259
f 260/165/260 264/158/264 265/164/265
f 260/165/260 265/164/265 261/166/261
f 268/167/268 280/170/280 279/169/279
f 268/167/268 279/169/279 267/168/267
f 260/165/260 272/171/272 271/162/271
f 260/165/260 271/162/271 259/159/259
f 261/166/261 273/172/273 272/171/272
f 261/166/261 272/171/272 260/165/260
f 262/160/262 274/161/274 273/172/273
f 262/160/262 273/172/273 261/166/261
f 267/168/267 271/162/271 272/171/272
f 267/168/267 272/171/272 268/167/268
f 269/173/269 273/172/273 274/161/274
f 269/173/269 274/161/274 270/174/270
f 270/174/270 274/161/274 271/162/271
f 270/174/270 271/162/271 267/168/267
f 268/167/268 272/171/272 273/172/273
f 268/167/268 273/172/273 269/173/269
f 277/175/277 289/178/289 288/177/288
f 277/175/277 288/177/288 276/176/276
f 269/173/269 281/179/281 280/170/280
f 269/173/269 280/170/280 268/167/268
f 270/174/270 282/180/282 281/179/281
f 270/174/270 281/179/281 269/173/269
f 267/168/267 279/169/279 282/180/282
f 267/168/267 282/180/282 270/174/270
f 275/181/275 279/169/279 280/170/280
f 275/181/275 280/170/280 276/176/276
f 277/175/277 281/179/281 282/180/282
f 277/175/277 282/180/282 278/182/278
f 278/182/278 282/180/282 279/169/279
f 278/182/278 279/169/279 275/181/275
f 276/176/276 280/170/280 281/179/281
f 276/176/276 281/179/281 277/175/277
f 283/183/283 295/186/295 298/185/298
f 283/183/283 298/185/298 286/184/286
f 278/182/278 290/187/290 289/178/289
f 278/182/278 289/178/289 277/175/277
f 275/181/275 287/188/287 290/187/290
f 275/181/275 290/187/290 278/182/278
f 276/176/276 288/177/288 287/188/287
f 276/176/276 287/188/287 275/181/275
f 283/183/283 287/188/287 288/177/288
f 283/183/283 288/177/288 284/189/284
f 285/190/285 289/178/289 290/187/290
f 285/190/285 290/187/290 286/184/286
f 286/184/286 290/187/290 287/188/287
f 286/184/286 287/188/287 283/183/283
f 284/189/284 288/177/288 289/178/289
f 284/189/284 289/178/289 285/190/285
f 291/191/291 299/194/299 302/193/302
f 291/191/291 302/193/302 294/192/294
f 284/189/284 296/195/296 295/186/295
f 284/189/284 295/186/295 283/183/283
f 285/190/285 297/196/297 296/195/296
f 285/190/285 296/195/296 284/189/284
f 286/184/286 298/185/298 297/196/297
f 286/184/286 297/196/297 285/190/285
f 291/191/291 295/186/295 296/195/296
f 291/191/291 296/195/296 292/197/292
f 293/198/293 297/196/297 298/185/298
f 293/198/293 298/185/298 294/192/294
f 294/192/294 298/185/298 295/186/295
f 294/192/294 295/186/295 291/191/291
f 292/197/292 296/195/296 297/196/297
f 292/197/292 297/196/297 293/198/293
f 299/194/299 303/200/303 306/199/306
f 299/194/299 306/199/306 302/193/302
f 292/197/292 300/201/300 299/194/299
f 292/197/292 299/194/299 291/191/291
f 293/198/293 301/202/301 300/201/300
f 293/198/293 300/201/300 292/197/292
f 294/192/294 302/193/302 301/202/301
f 294/192/294 301/202/301 293/198/293
f 303/200/303 307/204/307 310/203/310
f 303/200/303 310/203/310 306/199/306
f 300/201/300 304/205/304 303/200/303
f 300/201/300 303/200/303 299/194/299
f 301/202/301 305/206/305 304/205/304
f 301/202/301 304/205/304 300/201/300
f 302/193/302 306/199/306 305/206/305
f 302/193/302 305/206/305 301/202/301
f 310/203/310 307/204/307 308/208/308
f 310/203/310 308/208/308 309/207/309
f 304/205/304 308/208/308 307/204/307
f 304/205/304 307/204/307 303/200/303
f 305/206/305 309/207/309 308/208/308
f 305/206/305 308/208/308 304/205/304
f 306/199/306 310/203/310 309/207/309
f 306/199/306 309/207/309 305/206/305
f 105/87/105 311/209/311 313/209/313
f 105/87/105 313/209/313 232/88/232
f 311/209/311 105/87/105 109/211/109
f 311/209/311 109/211/109 312/210/312
f 314/227/314 234/228/234 232/229/232
f 314/227/314 232/229/232 313/230/313
f 312/216/312 109/98/109 234/97/234
f 312/216/312 234/97/234 314/216/314
f 113/104/113 316/218/316 315/217/315
f 113/104/113 315/217/315 109/211/109
f 315/217/315 312/210/312 109/211/109
f 109/211/109 315/217/315 317/220/317
f 109/211/109 317/220/317 234/219/234
f 316/221/316 318/222/318 236/100/236
f 236/231/236 318/232/318 317/233/317
f 236/231/236 317/233/317 234/228/234
f 355/252/355 356/253/356 358/254/358
f 355/252/355 358/254/358 357/255/357
f 357/255/357 358/254/358 362/254/362
f 357/255/357 362/254/362 361/255/361
f 361/255/361 362/254/362 360/253/360
f 361/255/361 360/253/360 359/252/359
f 359/252/359 360/253/360 356/253/356
f 359/252/359 356/253/356 355/252/355
f 359/252/359 355/252/355 364/256/364
f 359/252/359 364/256/364 366/257/366
f 362/254/362 358/254/358 356/253/356
f 362/254/362 356/253/356 360/253/360
f 365/258/365 366/257/366 370/259/370
f 365/258/365 370/259/370 369/260/369
f 357/255/357 361/255/361 365/258/365
f 357/255/357 365/258/365 363/261/363
f 355/252/355 357/255/357 363/261/363
f 355/252/355 363/261/363 364/256/364
f 361/255/361 359/252/359 366/257/366
f 361/255/361 366/257/366 365/258/365
f 370/259/370 368/262/368 372/263/372
f 370/259/370 372/263/372 374/264/374
f 364/256/364 363/261/363 367/265/367
f 364/256/364 367/265/367 368/262/368
f 366/257/366 364/256/364 368/262/368
f 366/257/366 368/262/368 370/259/370
f 363/261/363 365/258/365 369/260/369
f 363/261/363 369/260/369 367/265/367
f 374/264/374 372/263/372 376/266/376
f 374/264/374 376/266/376 378/267/378
f 367/265/367 369/260/369 373/268/373
f 367/265/367 373/268/373 371/269/371
f 369/260/369 370/259/370 374/264/374
f 369/260/369 374/264/374 373/268/373
f 368/262/368 367/265/367 371/269/371
f 368/262/368 371/269/371 372/263/372
f 377/270/377 378/267/378 382/271/382
f 377/270/377 382/271/382 381/272/381
f 371/269/371 373/268/373 377/270/377
f 371/269/371 377/270/377 375/273/375
f 373/268/373 374/264/374 378/267/378
f 373/268/373 378/267/378 377/270/377
f 372/263/372 371/269/371 375/273/375
f 372/263/372 375/273/375 376/266/376
f 381/272/381 382/271/382 390/274/390
f 381/272/381 390/274/390 389/275/389
f 376/266/376 375/273/375 379/276/379
f 376/266/376 379/276/379 380/277/380
f 378/267/378 376/266/376 380/277/380
f 378/267/378 380/277/380 382/271/382
f 375/273/375 377/270/377 381/272/381
f 375/273/375 381/272/381 379/276/379
f 384/278/384 383/279/383 391/280/391
f 384/278/384 391/280/391 392/281/392
f 380/277/380 379/276/379 387/282/387
f 380/277/380 387/282/387 388/283/388
f 382/271/382 380/277/380 388/283/388
f 382/271/382 388/283/388 390/274/390
f 379/276/379 381/272/381 389/275/389
f 379/276/379 389/275/389 387/282/387
f 383/279/383 384/278/384 388/283/388
f 383/279/383 388/283/388 387/282/387
f 385/284/385 383/279/383 387/282/387
f 385/284/385 387/282/387 389/275/389
f 386/285/386 385/284/385 389/275/389
f 386/285/386 389/275/389 390/274/390
f 384/278/384 386/285/386 390/274/390
f 384/278/384 390/274/390 388/283/388
f 393/286/393 394/287/394 402/287/402
f 393/286/393 402/287/402 401/286/401
f 386/285/386 384/278/384 392/281/392
f 386/285/386 392/281/392 394/287/394
f 383/279/383 385/284/385 393/286/393
f 383/279/383 393/286/393 391/280/391
f 385/284/385 386/285/386 394/287/394
f 385/284/385 394/287/394 393/286/393
f 395/288/395 397/289/397 409/290/409
f 395/288/395 409/290/409 407/291/407
f 392/281/392 391/280/391 399/280/399
f 392/281/392 399/280/399 400/281/400
f 394/287/394 392/281/392 400/281/400
f 394/287/394 400/281/400 402/287/402
f 391/280/391 393/286/393 401/286/401
f 391/280/391 401/286/401 399/280/399
f 395/288/395 396/292/396 400/281/400
f 395/288/395 400/281/400 399/280/399
f 397/289/397 395/288/395 399/280/399
f 397/289/397 399/280/399 401/286/401
f 398/293/398 397/289/397 401/286/401
f 398/293/398 401/286/401 402/287/402
f 396/292/396 398/293/398 402/287/402
f 396/292/396 402/287/402 400/281/400
f 404/294/404 403/295/403 411/296/411
f 404/294/404 411/296/411 412/297/412
f 397/289/397 398/293/398 410/298/410
f 397/289/397 410/298/410 409/290/409
f 396/292/396 395/288/395 407/291/407
f 396/292/396 407/291/407 408/299/408
f 398/293/398 396/292/396 408/299/408
f 398/293/398 408/299/408 410/298/410
f 403/295/403 404/294/404 408/299/408
f 403/295/403 408/299/408 407/291/407
f 405/300/405 403/295/403 407/291/407
f 405/300/405 407/291/407 409/290/409
f 406/301/406 405/300/405 409/290/409
f 406/301/406 409/290/409 410/298/410
f 404/294/404 406/301/406 410/298/410
f 404/294/404 410/298/410 408/299/408
f 411/296/411 413/302/413 414/303/414
f 411/296/411 414/303/414 412/297/412
f 406/301/406 404/294/404 412/297/412
f 406/301/406 412/297/412 414/303/414
f 403/295/403 405/300/405 413/302/413
f 403/295/403 413/302/413 411/296/411
f 405/300/405 406/301/406 414/303/414
f 405/300/405 414/303/414 413/302/413
f 415/252/415 417/255/416 418/254/362
f 415/252/415 418/254/362 416/253/360
f 417/255/416 421/255/418 422/254/358
f 417/255/416 422/254/358 418/254/362
f 421/255/418 419/252/417 420/253/356
f 421/255/418 420/253/356 422/254/358
f 419/252/417 415/252/415 416/253/360
f 419/252/417 416/253/360 420/253/356
f 419/252/417 426/257/422 424/256/420
f 419/252/417 424/256/420 415/252/415
f 422/254/358 420/253/356 416/253/360
f 422/254/358 416/253/360 418/254/362
f 425/258/421 429/260/425 430/259/426
f 425/258/421 430/259/426 426/257/422
f 417/255/416 423/261/419 425/258/421
f 417/255/416 425/258/421 421/255/418
f 415/252/415 424/256/420 423/261/419
f 415/252/415 423/261/419 417/255/416
f 421/255/418 425/258/421 426/257/422
f 421/255/418 426/257/422 419/252/417
f 430/259/426 434/264/430 432/263/428
f 430/259/426 432/263/428 428/262/424
f 424/256/420 428/262/424 427/265/423
f 424/256/420 427/265/423 423/261/419
f 426/257/422 430/259/426 428/262/424
f 426/257/422 428/262/424 424/256/420
f 423/261/419 427/265/423 429/260/425
f 423/261/419 429/260/425 425/258/421
f 434/264/430 438/267/434 436/266/432
f 434/264/430 436/266/432 432/263/428
f 427/265/423 431/269/427 433/268/429
f 427/265/423 433/268/429 429/260/425
f 429/260/425 433/268/429 434/264/430
f 429/260/425 434/264/430 430/259/426
f 428/262/424 432/263/428 431/269/427
f 428/262/424 431/269/427 427/265/423
f 437/270/433 441/272/437 442/271/438
f 437/270/433 442/271/438 438/267/434
f 431/269/427 435/273/431 437/270/433
f 431/269/427 437/270/433 433/268/429
f 433/268/429 437/270/433 438/267/434
f 433/268/429 438/267/434 434/264/430
f 432/263/428 436/266/432 435/273/431
f 432/263/428 435/273/431 431/269/427
f 441/272/437 449/275/445 450/274/446
f 441/272/437 450/274/446 442/271/438
f 436/266/432 440/277/436 439/276/435
f 436/266/432 439/276/435 435/273/431
f 438/267/434 442/271/438 440/277/436
f 438/267/434 440/277/436 436/266/432
f 435/273/431 439/276/435 441/272/437
f 435/273/431 441/272/437 437/270/433
f 444/278/440 452/281/448 451/280/447
f 444/278/440 451/280/447 443/279/439
f 440/277/436 448/283/444 447/282/443
f 440/277/436 447/282/443 439/276/435
f 442/271/438 450/274/446 448/283/444
f 442/271/438 448/283/444 440/277/436
f 439/276/435 447/282/443 449/275/445
f 439/276/435 449/275/445 441/272/437
f 443/279/439 447/282/443 448/283/444
f 443/279/439 448/283/444 444/278/440
f 445/284/441 449/275/445 447/282/443
f 445/284/441 447/282/443 443/279/439
f 446/285/442 450/274/446 449/275/445
f 446/285/442 449/275/445 445/284/441
f 444/278/440 448/283/444 450/274/446
f 444/278/440 450/274/446 446/285/442
f 453/286/449 461/286/457 462/287/458
f 453/286/449 462/287/458 454/287/450
f 446/285/442 454/287/450 452/281/448
f 446/285/442 452/281/448 444/278/440
f 443/279/439 451/280/447 453/286/449
f 443/279/439 453/286/449 445/284/441
f 445/284/441 453/286/449 454/287/450
f 445/284/441 454/287/450 446/285/442
f 455/288/451 467/291/463 469/290/465
f 455/288/451 469/290/465 457/289/453
f 452/281/448 460/281/456 459/280/455
f 452/281/448 459/280/455 451/280/447
f 454/287/450 462/287/458 460/281/456
f 454/287/450 460/281/456 452/281/448
f 451/280/447 459/280/455 461/286/457
f 451/280/447 461/286/457 453/286/449
f 455/288/451 459/280/455 460/281/456
f 455/288/451 460/281/456 456/292/452
f 457/289/453 461/286/457 459/280/455
f 457/289/453 459/280/455 455/288/451
f 458/293/454 462/287/458 461/286/457
f 458/293/454 461/286/457 457/289/453
f 456/292/452 460/281/456 462/287/458
f 456/292/452 462/287/458 458/293/454
f 464/294/460 472/297/468 471/296/467
f 464/294/460 471/296/467 463/295/459
f 457/289/453 469/290/465 470/298/466
f 457/289/453 470/298/466 458/293/454
f 456/292/452 468/299/464 467/291/463
f 456/292/452 467/291/463 455/288/451
f 458/293/454 470/298/466 468/299/464
f 458/293/454 468/299/464 456/292/452
f 463/295/459 467/291/463 468/299/464
f 463/295/459 468/299/464 464/294/460
f 465/300/461 469/290/465 467/291/463
f 465/300/461 467/291/463 463/295/459
f 466/301/462 470/298/466 469/290/465
f 466/301/462 469/290/465 465/300/461
f 464/294/460 468/299/464 470/298/466
f 464/294/460 470/298/466 466/301/462
f 471/296/467 472/297/468 474/303/470
f 471/296/467 474/303/470 473/302/469
f 466/301/462 474/303/470 472/297/468
f 466/301/462 472/297/468 464/294/460
f 463/295/459 471/296/467 473/302/469
f 463/295/459 473/302/469 465/300/461
f 465/300/461 473/302/469 474/303/470
f 465/300/461 474/303/470 466/301/462
f 475/304/471 476/305/472 478/306/474
f 475/304/471 478/306/474 477/307/473
f 477/307/473 478/306/474 482/306/478
f 477/307/473 482/306/478 481/307/477
f 481/307/477 482/306/478 480/305/476
f 481/307/477 480/305/476 479/304/475
f 479/304/475 480/305/476 476/305/472
f 479/304/475 476/305/472 475/304/471
f 479/304/475 475/304/471 484/308/480
f 479/304/475 484/308/480 486/309/482
f 482/306/478 478/306/474 476/305/472
f 482/306/478 476/305/472 480/305/476
f 485/310/481 486/309/482 490/311/486
f 485/310/481 490/311/486 489/312/485
f 477/307/473 481/307/477 485/310/481
f 477/307/473 485/310/481 483/313/479
f 475/304/471 477/307/473 483/313/479
f 475/304/471 483/313/479 484/308/480
f 481/307/477 479/304/475 486/309/482
f 481/307/477 486/309/482 485/310/481
f 490/311/486 488/314/484 492/315/488
f 490/311/486 492/315/488 494/316/490
f 484/308/480 483/313/479 487/317/483
f 484/308/480 487/317/483 488/314/484
f 486/309/482 484/308/480 488/314/484
f 486/309/482 488/314/484 490/311/486
f 483/313/479 485/310/481 489/312/485
f 483/313/479 489/312/485 487/317/483
f 494/316/490 492/315/488 496/318/492
f 494/316/490 496/318/492 498/319/494
f 487/317/483 489/312/485 493/320/489
f 487/317/483 493/320/489 491/321/487
f 489/312/485 490/311/486 494/316/490
f 489/312/485 494/316/490 493/320/489
f 488/314/484 487/317/483 491/321/487
f 488/314/484 491/321/487 492/315/488
f 497/322/493 498/319/494 502/323/498
f 497/322/493 502/323/498 501/324/497
f 491/321/487 493/320/489 497/322/493
f 491/321/487 497/322/493 495/325/491
f 493/320/489 494/316/490 498/319/494
f 493/320/489 498/319/494 497/322/493
f 492/315/488 491/321/487 495/325/491
f 492/315/488 495/325/491 496/318/492
f 496/318/492 495/325/491 499/326/495
f 496/318/492 499/326/495 500/327/496
f 498/319/494 496/318/492 500/327/496
f 498/319/494 500/327/496 502/323/498
f 495/325/491 497/322/493 510/328/506
f 495/325/491 510/328/506 507/329/503
f 497/322/493 501/324/497 509/330/505
f 497/322/493 509/330/505 510/328/506
f 503/331/499 505/332/501 515/333/511
f 503/331/499 515/333/511 516/334/512
f 499/326/495 495/325/491 507/329/503
f 499/326/495 507/329/503 508/335/504
f 501/324/497 499/326/495 508/335/504
f 501/324/497 508/335/504 509/330/505
f 502/323/498 500/327/496 499/326/495
f 502/323/498 499/326/495 501/324/497
f 505/332/501 503/331/499 508/335/504
f 505/332/501 508/335/504 507/329/503
f 504/336/500 506/337/502 510/328/506
f 504/336/500 510/328/506 509/330/505
f 503/331/499 504/336/500 509/330/505
f 503/331/499 509/330/505 508/335/504
f 506/337/502 505/332/501 507/329/503
f 506/337/502 507/329/503 510/328/506
f 511/338/507 514/339/510 526/340/522
f 511/338/507 526/340/522 523/341/519
f 505/332/501 506/337/502 518/342/514
f 505/332/501 518/342/514 515/333/511
f 506/337/502 504/336/500 517/343/513
f 506/337/502 517/343/513 518/342/514
f 504/336/500 503/331/499 516/334/512
f 504/336/500 516/334/512 517/343/513
f 511/338/507 512/344/508 516/334/512
f 511/338/507 516/334/512 515/333/511
f 513/345/509 514/339/510 518/342/514
f 513/345/509 518/342/514 517/343/513
f 512/344/508 513/345/509 517/343/513
f 512/344/508 517/343/513 516/334/512
f 514/339/510 511/338/507 515/333/511
f 514/339/510 515/333/511 518/342/514
f 519/346/515 522/347/518 530/348/526
f 519/346/515 530/348/526 527/349/523
f 514/339/510 513/345/509 525/350/521
f 514/339/510 525/350/521 526/340/522
f 513/345/509 512/344/508 524/351/520
f 513/345/509 524/351/520 525/350/521
f 512/344/508 511/338/507 523/341/519
f 512/344/508 523/341/519 524/351/520
f 519/346/515 520/352/516 524/351/520
f 519/346/515 524/351/520 523/341/519
f 521/353/517 522/347/518 526/340/522
f 521/353/517 526/340/522 525/350/521
f 520/352/516 521/353/517 525/350/521
f 520/352/516 525/350/521 524/351/520
f 522/347/518 519/346/515 523/341/519
f 522/347/518 523/341/519 526/340/522
f 527/349/523 530/348/526 529/354/525
f 527/349/523 529/354/525 528/355/524
f 522/347/518 521/353/517 529/354/525
f 522/347/518 529/354/525 530/348/526
f 521/353/517 520/352/516 528/355/524
f 521/353/517 528/355/524 529/354/525
f 520/352/516 519/346/515 527/349/523
f 520/352/516 527/349/523 528/355/524
f 531/304/527 533/307/528 534/306/478
f 531/304/527 534/306/478 532/305/476
f 533/307/528 537/307/530 538/356/474
f 533/307/528 538/356/474 534/306/478
f 537/307/530 535/304/529 536/305/472
f 537/307/530 536/305/472 538/356/474
f 535/304/529 531/304/527 532/305/476
f 535/304/529 532/305/476 536/305/472
f 535/304/529 542/309/534 540/308/532
f 535/304/529 540/308/532 531/304/527
f 538/356/474 536/305/472 532/305/476
f 538/356/474 532/305/476 534/306/478
f 541/310/533 545/312/537 546/311/538
f 541/310/533 546/311/538 542/309/534
f 533/307/528 539/313/531 541/310/533
f 533/307/528 541/310/533 537/307/530
f 531/304/527 540/308/532 539/313/531
f 531/304/527 539/313/531 533/307/528
f 537/307/530 541/310/533 542/309/534
f 537/307/530 542/309/534 535/304/529
f 546/311/538 550/316/542 548/315/540
f 546/311/538 548/315/540 544/314/536
f 540/308/532 544/314/536 543/317/535
f 540/308/532 543/317/535 539/313/531
f 542/309/534 546/311/538 544/314/536
f 542/309/534 544/314/536 540/308/532
f 539/313/531 543/317/535 545/312/537
f 539/313/531 545/312/537 541/310/533
f 550/316/542 554/319/546 552/318/544
f 550/316/542 552/318/544 548/315/540
f 543/317/535 547/321/539 549/320/541
f 543/317/535 549/320/541 545/312/537
f 545/312/537 549/320/541 550/316/542
f 545/312/537 550/316/542 546/311/538
f 544/314/536 548/315/540 547/321/539
f 544/314/536 547/321/539 543/317/535
f 553/322/545 557/324/549 558/323/550
f 553/322/545 558/323/550 554/319/546
f 547/321/539 551/325/543 553/322/545
f 547/321/539 553/322/545 549/320/541
f 549/320/541 553/322/545 554/319/546
f 549/320/541 554/319/546 550/316/542
f 548/315/540 552/318/544 551/325/543
f 548/315/540 551/325/543 547/321/539
f 552/318/544 556/327/548 555/326/547
f 552/318/544 555/326/547 551/325/543
f 554/319/546 558/323/550 556/327/548
f 554/319/546 556/327/548 552/318/544
f 551/325/543 563/329/555 566/328/558
f 551/325/543 566/328/558 553/322/545
f 553/322/545 566/328/558 565/330/557
f 553/322/545 565/330/557 557/324/549
f 559/331/551 572/334/564 571/333/563
f 559/331/551 571/333/563 561/332/553
f 555/326/547 564/335/556 563/329/555
f 555/326/547 563/329/555 551/325/543
f 557/324/549 565/330/557 564/335/556
f 557/324/549 564/335/556 555/326/547
f 558/323/550 557/324/549 555/326/547
f 558/323/550 555/326/547 556/327/548
f 561/332/553 563/329/555 564/335/556
f 561/332/553 564/335/556 559/331/551
f 560/336/552 565/330/557 566/328/558
f 560/336/552 566/328/558 562/337/554
f 559/331/551 564/335/556 565/330/557
f 559/331/551 565/330/557 560/336/552
f 562/337/554 566/328/558 563/329/555
f 562/337/554 563/329/555 561/332/553
f 567/338/559 579/341/571 582/340/574
f 567/338/559 582/340/574 570/339/562
f 561/332/553 571/333/563 574/342/566
f 561/332/553 574/342/566 562/337/554
f 562/337/554 574/342/566 573/343/565
f 562/337/554 573/343/565 560/336/552
f 560/336/552 573/343/565 572/334/564
f 560/336/552 572/334/564 559/331/551
f 567/338/559 571/333/563 572/334/564
f 567/338/559 572/334/564 568/344/560
f 569/345/561 573/343/565 574/342/566
f 569/345/561 574/342/566 570/339/562
f 568/344/560 572/334/564 573/343/565
f 568/344/560 573/343/565 569/345/561
f 570/339/562 574/342/566 571/333/563
f 570/339/562 571/333/563 567/338/559
f 575/346/567 583/349/575 586/348/578
f 575/346/567 586/348/578 578/347/570
f 570/339/562 582/340/574 581/350/573
f 570/339/562 581/350/573 569/345/561
f 569/345/561 581/350/573 580/351/572
f 569/345/561 580/351/572 568/344/560
f 568/344/560 580/351/572 579/341/571
f 568/344/560 579/341/571 567/338/559
f 575/346/567 579/341/571 580/351/572
f 575/346/567 580/351/572 576/352/568
f 577/353/569 581/350/573 582/340/574
f 577/353/569 582/340/574 578/347/570
f 576/352/568 580/351/572 581/350/573
f 576/352/568 581/350/573 577/353/569
f 578/347/570 582/340/574 579/341/571
f 578/347/570 579/341/571 575/346/567
f 583/349/575 584/355/576 585/354/577
f 583/349/575 585/354/577 586/348/578
f 578/347/570 586/348/578 585/354/577
f 578/347/570 585/354/577 577/353/569
f 577/353/569 585/354/577 584/355/576
f 577/353/569 584/355/576 576/352/568
f 576/352/568 584/355/576 583/349/575
f 576/352/568 583/349/575 575/346/567
f 587/357/579 588/358/580 590/359/582
f 587/357/579 590/359/582 589/360/581
f 589/360/581 590/359/582 594/361/586
f 589/360/581 594/361/586 593/362/585
f 593/362/585 594/361/586 592/363/584
f 593/362/585 592/363/584 591/364/583
f 591/364/583 592/363/584 588/358/580
f 591/364/583 588/358/580 587/357/579
f 595/365/587 597/365/589 598/366/590
f 595/365/587 598/366/590 596/366/588
f 594/361/586 590/359/582 588/358/580
f 594/361/586 588/358/580 592/363/584
f 593/362/585 591/364/583 599/367/591
f 593/362/585 599/367/591 600/368/592
f 602/369/594 600/368/592 597/365/589
f 602/369/594 597/365/589 595/365/587
f 591/364/583 587/357/579 601/370/593
f 591/364/583 601/370/593 599/367/591
f 603/371/595 604/372/596 606/373/598
f 603/371/595 606/373/598 605/374/597
f 601/370/593 602/369/594 595/365/587
f 601/370/593 595/365/587 596/366/588
f 599/367/591 601/370/593 596/366/588
f 599/367/591 596/366/588 598/366/590
f 648/375/640 647/376/639 608/377/600
f 648/375/640 608/377/600 610/378/602
f 600/368/592 599/367/591 598/366/590
f 600/368/592 598/366/590 597/365/589
f 589/360/581 593/362/585 600/368/592
f 589/360/581 600/368/592 602/369/594
f 587/357/579 589/360/581 602/369/594
f 587/357/579 602/369/594 601/370/593
f 609/379/601 610/378/602 614/380/606
f 609/379/601 614/380/606 613/381/605
f 650/382/642 649/383/641 609/379/601
f 650/382/642 609/379/601 607/384/599
f 649/383/641 648/375/640 610/378/602
f 649/383/641 610/378/602 609/379/601
f 647/376/639 650/382/642 607/384/599
f 647/376/639 607/384/599 608/377/600
f 613/381/605 614/380/606 622/385/614
f 613/381/605 622/385/614 621/386/613
f 608/377/600 607/384/599 611/387/603
f 608/377/600 611/387/603 612/388/604
f 610/378/602 608/377/600 612/388/604
f 610/378/602 612/388/604 614/380/606
f 607/384/599 609/379/601 613/381/605
f 607/384/599 613/381/605 611/387/603
f 616/389/608 615/390/607 623/391/615
f 616/389/608 623/391/615 624/392/616
f 612/388/604 611/387/603 619/393/611
f 612/388/604 619/393/611 620/394/612
f 614/380/606 612/388/604 620/394/612
f 614/380/606 620/394/612 622/385/614
f 611/387/603 613/381/605 621/386/613
f 611/387/603 621/386/613 619/393/611
f 615/390/607 616/389/608 620/394/612
f 615/390/607 620/394/612 619/393/611
f 617/395/609 615/390/607 619/393/611
f 617/395/609 619/393/611 621/386/613
f 618/396/610 617/395/609 621/386/613
f 618/396/610 621/386/613 622/385/614
f 616/389/608 618/396/610 622/385/614
f 616/389/608 622/385/614 620/394/612
f 625/397/617 626/398/618 634/398/626
f 625/397/617 634/398/626 633/397/625
f 618/396/610 616/389/608 624/392/616
f 618/396/610 624/392/616 626/398/618
f 615/390/607 617/395/609 625/397/617
f 615/390/607 625/397/617 623/391/615
f 617/395/609 618/396/610 626/398/618
f 617/395/609 626/398/618 625/397/617
f 627/399/619 629/400/621 641/401/633
f 627/399/619 641/401/633 639/402/631
f 624/392/616 623/391/615 631/391/623
f 624/392/616 631/391/623 632/392/624
f 626/398/618 624/392/616 632/392/624
f 626/398/618 632/392/624 634/398/626
f 623/391/615 625/397/617 633/397/625
f 623/391/615 633/397/625 631/391/623
f 627/399/619 628/403/620 632/392/624
f 627/399/619 632/392/624 631/391/623
f 629/400/621 627/399/619 631/391/623
f 629/400/621 631/391/623 633/397/625
f 630/404/622 629/400/621 633/397/625
f 630/404/622 633/397/625 634/398/626
f 628/403/620 630/404/622 634/398/626
f 628/403/620 634/398/626 632/392/624
f 636/405/628 635/406/627 643/407/635
f 636/405/628 643/407/635 644/408/636
f 629/400/621 630/404/622 642/409/634
f 629/400/621 642/409/634 641/401/633
f 628/403/620 627/399/619 639/402/631
f 628/403/620 639/402/631 640/410/632
f 630/404/622 628/403/620 640/410/632
f 630/404/622 640/410/632 642/409/634
f 635/406/627 636/405/628 640/410/632
f 635/406/627 640/410/632 639/402/631
f 637/411/629 635/406/627 639/402/631
f 637/411/629 639/402/631 641/401/633
f 638/412/630 637/411/629 641/401/633
f 638/412/630 641/401/633 642/409/634
f 636/405/628 638/412/630 642/409/634
f 636/405/628 642/409/634 640/410/632
f 643/407/635 645/413/637 646/414/638
f 643/407/635 646/414/638 644/408/636
f 638/412/630 636/405/628 644/408/636
f 638/412/630 644/408/636 646/414/638
f 635/406/627 637/411/629 645/413/637
f 635/406/627 645/413/637 643/407/635
f 637/411/629 638/412/630 646/414/638
f 637/411/629 646/414/638 645/413/637
f 603/371/595 604/372/596 597/365/589
f 603/371/595 597/365/589 598/366/590
f 604/372/596 606/373/598 595/365/587
f 604/372/596 595/365/587 597/365/589
f 605/374/597 603/371/595 598/366/590
f 605/374/597 598/366/590 596/366/588
f 606/373/598 605/374/597 596/366/588
f 606/373/598 596/366/588 595/365/587
f 604/372/596 603/371/595 650/382/642
f 604/372/596 650/382/642 647/376/639
f 605/374/597 606/373/598 648/375/640
f 605/374/597 648/375/640 649/383/641
f 603/371/595 605/374/597 649/383/641
f 603/371/595 649/383/641 650/382/642
f 606/373/598 604/372/596 647/376/639
f 606/373/598 647/376/639 648/375/640
f 651/357/643 653/360/645 654/359/646
f 651/357/643 654/359/646 652/358/644
f 653/360/645 657/362/649 658/361/650
f 653/360/645 658/361/650 654/359/646
f 657/362/649 655/364/647 656/363/648
f 657/362/649 656/363/648 658/361/650
f 655/364/647 651/357/643 652/358/644
f 655/364/647 652/358/644 656/363/648
f 659/365/651 660/366/652 662/366/654
f 659/365/651 662/366/654 661/365/653
f 658/361/650 656/363/648 652/358/644
f 658/361/650 652/358/644 654/359/646
f 657/362/649 664/368/656 663/367/655
f 657/362/649 663/367/655 655/364/647
f 666/369/658 659/365/651 661/365/653
f 666/369/658 661/365/653 664/368/656
f 655/364/647 663/367/655 665/370/657
f 655/364/647 665/370/657 651/357/643
f 667/371/659 669/374/661 670/373/662
f 667/371/659 670/373/662 668/372/660
f 665/370/657 660/366/652 659/365/651
f 665/370/657 659/365/651 666/369/658
f 663/367/655 662/366/654 660/366/652
f 663/367/655 660/366/652 665/370/657
f 712/375/704 674/378/666 672/377/664
f 712/375/704 672/377/664 711/376/703
f 664/368/656 661/365/653 662/366/654
f 664/368/656 662/366/654 663/367/655
f 653/360/645 666/369/658 664/368/656
f 653/360/645 664/368/656 657/362/649
f 651/357/643 665/370/657 666/369/658
f 651/357/643 666/369/658 653/360/645
f 673/379/665 677/381/669 678/380/670
f 673/379/665 678/380/670 674/378/666
f 714/382/706 671/384/663 673/379/665
f 714/382/706 673/379/665 713/383/705
f 713/383/705 673/379/665 674/378/666
f 713/383/705 674/378/666 712/375/704
f 711/376/703 672/377/664 671/384/663
f 711/376/703 671/384/663 714/382/706
f 677/381/669 685/386/677 686/385/678
f 677/381/669 686/385/678 678/380/670
f 672/377/664 676/388/668 675/387/667
f 672/377/664 675/387/667 671/384/663
f 674/378/666 678/380/670 676/388/668
f 674/378/666 676/388/668 672/377/664
f 671/384/663 675/387/667 677/381/669
f 671/384/663 677/381/669 673/379/665
f 680/389/672 688/392/680 687/391/679
f 680/389/672 687/391/679 679/390/671
f 676/388/668 684/394/676 683/393/675
f 676/388/668 683/393/675 675/387/667
f 678/380/670 686/385/678 684/394/676
f 678/380/670 684/394/676 676/388/668
f 675/387/667 683/393/675 685/386/677
f 675/387/667 685/386/677 677/381/669
f 679/390/671 683/393/675 684/394/676
f 679/390/671 684/394/676 680/389/672
f 681/395/673 685/386/677 683/393/675
f 681/395/673 683/393/675 679/390/671
f 682/396/674 686/385/678 685/386/677
f 682/396/674 685/386/677 681/395/673
f 680/389/672 684/394/676 686/385/678
f 680/389/672 686/385/678 682/396/674
f 689/397/681 697/397/689 698/398/690
f 689/397/681 698/398/690 690/398/682
f 682/396/674 690/398/682 688/392/680
f 682/396/674 688/392/680 680/389/672
f 679/390/671 687/391/679 689/397/681
f 679/390/671 689/397/681 681/395/673
f 681/395/673 689/397/681 690/398/682
f 681/395/673 690/398/682 682/396/674
f 691/399/683 703/402/695 705/401/697
f 691/399/683 705/401/697 693/400/685
f 688/392/680 696/392/688 695/391/687
f 688/392/680 695/391/687 687/391/679
f 690/398/682 698/398/690 696/392/688
f 690/398/682 696/392/688 688/392/680
f 687/391/679 695/391/687 697/397/689
f 687/391/679 697/397/689 689/397/681
f 691/399/683 695/391/687 696/392/688
f 691/399/683 696/392/688 692/403/684
f 693/400/685 697/397/689 695/391/687
f 693/400/685 695/391/687 691/399/683
f 694/404/686 698/398/690 697/397/689
f 694/404/686 697/397/689 693/400/685
f 692/403/684 696/392/688 698/398/690
f 692/403/684 698/398/690 694/404/686
f 700/405/692 708/408/700 707/407/699
f 700/405/692 707/407/699 699/406/691
f 693/400/685 705/401/697 706/409/698
f 693/400/685 706/409/698 694/404/686
f 692/403/684 704/410/696 703/402/695
f 692/403/684 703/402/695 691/399/683
f 694/404/686 706/409/698 704/410/696
f 694/404/686 704/410/696 692/403/684
f 699/406/691 703/402/695 704/410/696
f 699/406/691 704/410/696 700/405/692
f 701/411/693 705/401/697 703/402/695
f 701/411/693 703/402/695 699/406/691
f 702/412/694 706/409/698 705/401/697
f 702/412/694 705/401/697 701/411/693
f 700/405/692 704/410/696 706/409/698
f 700/405/692 706/409/698 702/412/694
f 707/407/699 708/408/700 710/414/702
f 707/407/699 710/414/702 709/413/701
f 702/412/694 710/414/702 708/408/700
f 702/412/694 708/408/700 700/405/692
f 699/406/691 707/407/699 709/413/701
f 699/406/691 709/413/701 701/411/693
f 701/411/693 709/413/701 710/414/702
f 701/411/693 710/414/702 702/412/694
f 667/371/659 662/366/654 661/365/653
f 667/371/659 661/365/653 668/372/660
f 668/372/660 661/365/653 659/365/651
f 668/372/660 659/365/651 670/373/662
f 669/374/661 660/366/652 662/366/654
f 669/374/661 662/366/654 667/371/659
f 670/373/662 659/365/651 660/366/652
f 670/373/662 660/366/652 669/374/661
f 668/372/660 711/376/703 714/382/706
f 668/372/660 714/382/706 667/371/659
f 669/374/661 713/383/705 712/375/704
f 669/374/661 712/375/704 670/373/662
f 667/371/659 714/382/706 713/383/705
f 667/371/659 713/383/705 669/374/661
f 670/373/662 712/375/704 711/376/703
f 670/373/662 711/376/703 668/372/660
usemtl Material.001
f 333/234/333 332/235/332 322/236/322
f 333/234/333 322/236/322 324/237/324
f 334/238/334 333/234/333 324/237/324
f 334/238/334 324/237/324 325/239/325
f 335/240/335 334/238/334 325/239/325
f 335/240/335 325/239/325 327/241/327
f 336/242/336 335/240/335 327/241/327
f 336/242/336 327/241/327 329/243/329
f 331/244/331 336/242/336 329/243/329
f 331/244/331 329/243/329 321/245/321
f 319/246/319 330/247/330 336/242/336
f 319/246/319 336/242/336 331/244/331
f 330/247/330 328/248/328 335/240/335
f 330/247/330 335/240/335 336/242/336
f 328/248/328 326/249/326 334/238/334
f 328/248/328 334/238/334 335/240/335
f 326/249/326 323/250/323 333/234/333
f 326/249/326 333/234/333 334/238/334
f 323/250/323 320/251/320 332/235/332
f 323/250/323 332/235/332 333/234/333
f 351/234/351 342/237/342 340/236/340
f 351/234/351 340/236/340 350/235/350
f 352/238/352 343/239/343 342/237/342
f 352/238/352 342/237/342 351/234/351
f 353/240/353 345/241/345 343/239/343
f 353/240/353 343/239/343 352/238/352
f 354/242/354 347/243/347 345/241/345
f 354/242/354 345/241/345 353/240/353
f 349/244/349 339/245/339 347/243/347
f 349/244/349 347/243/347 354/242/354
f 337/246/337 349/244/349 354/242/354
f 337/246/337 354/242/354 348/247/348
f 348/247/348 354/242/354 353/240/353
f 348/247/348 353/240/353 346/248/346
f 346/248/346 353/240/353 352/238/352
f 346/248/346 352/238/352 344/249/344
f 344/249/344 352/238/352 351/234/351
f 344/249/344 351/234/351 341/250/341
f 341/250/341 351/234/351 350/235/350
f 341/250/341 350/235/350 338/251/338
