# Blender 4.5.5 LTS
# www.blender.org
o Wasp
v -0.004650 0.007365 -0.017988
v -0.004454 0.008151 -0.016662
v -0.004609 0.007132 -0.017816
v -0.004420 0.007955 -0.016516
v -0.004833 0.007372 -0.017935
v -0.004609 0.008157 -0.016617
v -0.004792 0.007140 -0.017763
v -0.004575 0.007961 -0.016472
v -0.003962 0.011168 -0.012676
v -0.003928 0.010943 -0.012579
v -0.004117 0.011164 -0.012631
v -0.004083 0.010939 -0.012534
v -0.003325 0.014226 -0.006407
v -0.003302 0.014074 -0.006341
v -0.003430 0.014223 -0.006376
v -0.003407 0.014071 -0.006310
v -0.005327 0.007365 -0.017986
v -0.005516 0.008151 -0.016659
v -0.005367 0.007132 -0.017814
v -0.005550 0.007955 -0.016514
v -0.005144 0.007372 -0.017934
v -0.005361 0.008157 -0.016615
v -0.005184 0.007140 -0.017762
v -0.005395 0.007961 -0.016469
v -0.005988 0.011168 -0.012671
v -0.006022 0.010943 -0.012574
v -0.005833 0.011164 -0.012626
v -0.005867 0.010939 -0.012529
v -0.006594 0.014226 -0.006398
v -0.006617 0.014074 -0.006333
v -0.006489 0.014223 -0.006368
v -0.006512 0.014071 -0.006303
v -0.004991 0.007627 -0.018998
v -0.004992 0.007336 -0.019169
v -0.004992 0.006715 -0.019226
v -0.004992 0.006235 -0.019260
v -0.004991 0.005839 -0.019146
v -0.004989 0.007803 -0.018310
v -0.004507 0.007626 -0.018801
v -0.004154 0.007355 -0.018962
v -0.004025 0.006712 -0.019058
v -0.004154 0.006178 -0.019052
v -0.004508 0.005814 -0.018982
v -0.004990 0.005362 -0.018604
v -0.004306 0.007620 -0.018326
v -0.004165 0.007310 -0.018371
v -0.003982 0.006631 -0.018444
v -0.003807 0.006042 -0.018571
v -0.004307 0.005740 -0.018610
v -0.004505 0.007591 -0.018081
v -0.004152 0.007274 -0.018029
v -0.004022 0.006583 -0.017951
v -0.004152 0.006033 -0.018183
v -0.004506 0.005709 -0.018328
v -0.004988 0.007570 -0.017882
v -0.004988 0.007228 -0.017745
v -0.004988 0.006525 -0.017664
v -0.004988 0.005986 -0.017911
v -0.004989 0.005693 -0.018094
v -0.004991 0.007263 -0.019150
v -0.004992 0.008236 -0.019259
v -0.004992 0.006228 -0.019217
v -0.004336 0.007250 -0.018949
v -0.004267 0.006645 -0.019044
v -0.004335 0.006174 -0.019053
v -0.004992 0.007332 -0.019159
v -0.004992 0.006715 -0.019226
v -0.004992 0.006166 -0.019232
v -0.004154 0.007317 -0.018923
v -0.004025 0.006645 -0.019028
v -0.004154 0.006102 -0.019041
v -0.004279 0.006644 -0.019148
v -0.004995 0.008817 -0.020539
v -0.004991 0.007228 -0.019153
v -0.004992 0.006272 -0.019214
v -0.004331 0.007200 -0.019047
v -0.004344 0.006212 -0.019144
v -0.004999 0.008341 -0.022177
v -0.003935 0.006928 -0.019591
v -0.004993 0.006082 -0.019618
v -0.004025 0.008153 -0.019225
v -0.004089 0.005931 -0.019613
v -0.004229 0.006699 -0.024013
v -0.003693 0.006795 -0.020797
v -0.004995 0.005520 -0.020658
v -0.003829 0.008697 -0.020483
v -0.003925 0.005296 -0.020623
v -0.003749 0.006511 -0.022276
v -0.004999 0.005390 -0.022055
v -0.003869 0.008237 -0.022119
v -0.003955 0.005203 -0.022000
v -0.005004 0.006762 -0.024011
v -0.005004 0.007138 -0.023960
v -0.005004 0.006428 -0.023974
v -0.004381 0.007008 -0.023963
v -0.004393 0.006487 -0.023982
v -0.005004 0.007032 -0.023974
v -0.005004 0.006762 -0.024010
v -0.004258 0.007111 -0.023948
v -0.005004 0.006526 -0.023986
v -0.004359 0.006706 -0.024016
v -0.004278 0.006379 -0.023969
v -0.005004 0.007130 -0.024139
v -0.005004 0.006870 -0.024219
v -0.004359 0.006816 -0.024235
v -0.005004 0.006633 -0.024235
v -0.004381 0.007104 -0.024128
v -0.004393 0.006595 -0.024239
v -0.005006 0.008192 -0.024950
v -0.005006 0.007421 -0.025108
v -0.004002 0.007269 -0.025127
v -0.005006 0.006742 -0.025086
v -0.004064 0.008133 -0.024924
v -0.004100 0.006629 -0.025072
v -0.005008 0.008497 -0.025562
v -0.005008 0.007279 -0.025813
v -0.003760 0.007034 -0.025847
v -0.005008 0.006193 -0.025783
v -0.003858 0.008403 -0.025521
v -0.003916 0.006021 -0.025762
v -0.005011 0.008685 -0.027095
v -0.005012 0.007342 -0.027303
v -0.003704 0.007073 -0.027326
v -0.005012 0.006159 -0.027211
v -0.003811 0.008584 -0.027046
v -0.003874 0.005972 -0.027178
v -0.005016 0.008373 -0.029137
v -0.005017 0.007124 -0.029331
v -0.003739 0.006873 -0.029352
v -0.005017 0.006024 -0.029245
v -0.003839 0.008280 -0.029091
v -0.003897 0.005850 -0.029215
v -0.005021 0.007457 -0.031009
v -0.005021 0.006623 -0.031020
v -0.003930 0.006458 -0.031012
v -0.005021 0.005913 -0.030863
v -0.003996 0.007401 -0.030971
v -0.004034 0.005802 -0.030828
v -0.005024 0.006859 -0.032218
v -0.005024 0.006393 -0.032192
v -0.004575 0.006342 -0.032189
v -0.005024 0.006198 -0.032150
v -0.004207 0.006835 -0.032198
v -0.004584 0.006164 -0.032144
v -0.004177 0.006405 -0.032212
v -0.005024 0.006461 -0.032226
v -0.005024 0.006143 -0.032121
v -0.004225 0.006107 -0.032123
v -0.004902 0.006391 -0.034727
v -0.005030 0.006402 -0.034727
v -0.005030 0.006369 -0.034720
v -0.004902 0.006362 -0.034718
v -0.005474 0.007626 -0.018798
v -0.005828 0.007355 -0.018957
v -0.005957 0.006712 -0.019054
v -0.005828 0.006178 -0.019048
v -0.005474 0.005814 -0.018979
v -0.005673 0.007620 -0.018322
v -0.005814 0.007310 -0.018367
v -0.005997 0.006631 -0.018439
v -0.006173 0.006042 -0.018565
v -0.005673 0.005740 -0.018607
v -0.005472 0.007591 -0.018079
v -0.005826 0.007274 -0.018025
v -0.005955 0.006583 -0.017947
v -0.005826 0.006033 -0.018179
v -0.005473 0.005709 -0.018325
v -0.005646 0.007250 -0.018946
v -0.005715 0.006645 -0.019040
v -0.005648 0.006174 -0.019049
v -0.005828 0.007317 -0.018919
v -0.005957 0.006645 -0.019023
v -0.005828 0.006102 -0.019037
v -0.005704 0.006644 -0.019144
v -0.005651 0.007200 -0.019044
v -0.005639 0.006212 -0.019141
v -0.006050 0.006928 -0.019586
v -0.005959 0.008153 -0.019220
v -0.005896 0.005931 -0.019609
v -0.005779 0.006699 -0.024009
v -0.006298 0.006795 -0.020791
v -0.006161 0.008697 -0.020477
v -0.006065 0.005296 -0.020617
v -0.006250 0.006511 -0.022270
v -0.006128 0.008237 -0.022113
v -0.006042 0.005203 -0.021994
v -0.005626 0.007008 -0.023960
v -0.005614 0.006487 -0.023979
v -0.005749 0.007111 -0.023944
v -0.005648 0.006706 -0.024013
v -0.005729 0.006379 -0.023965
v -0.005649 0.006816 -0.024231
v -0.005627 0.007104 -0.024125
v -0.005615 0.006595 -0.024236
v -0.006011 0.007269 -0.025122
v -0.005948 0.008133 -0.024920
v -0.005912 0.006629 -0.025067
v -0.006256 0.007034 -0.025840
v -0.006157 0.008403 -0.025516
v -0.006100 0.006021 -0.025757
v -0.006319 0.007073 -0.027319
v -0.006211 0.008584 -0.027040
v -0.006149 0.005972 -0.027172
v -0.006295 0.006873 -0.029346
v -0.006194 0.008280 -0.029086
v -0.006136 0.005850 -0.029209
v -0.006112 0.006458 -0.031006
v -0.006046 0.007401 -0.030966
v -0.006007 0.005802 -0.030823
v -0.005473 0.006342 -0.032187
v -0.005841 0.006835 -0.032194
v -0.005464 0.006164 -0.032142
v -0.005871 0.006405 -0.032208
v -0.005823 0.006107 -0.032119
v -0.005159 0.006391 -0.034726
v -0.005159 0.006362 -0.034717
v -0.004203 0.007260 -0.018143
v -0.004116 0.006873 -0.017999
v -0.004042 0.006491 -0.018189
v -0.004233 0.007323 -0.018793
v -0.004159 0.006941 -0.018989
v -0.004072 0.006544 -0.018838
v -0.004024 0.006357 -0.018514
v -0.004251 0.007457 -0.018450
v -0.004015 0.007378 -0.018593
v -0.003851 0.007018 -0.018707
v -0.003855 0.006599 -0.018639
v -0.004000 0.007337 -0.018362
v -0.003830 0.006972 -0.018304
v -0.003840 0.006561 -0.018407
v -0.005780 0.007250 -0.018135
v -0.005859 0.006863 -0.017994
v -0.005928 0.006483 -0.018189
v -0.005755 0.007322 -0.018785
v -0.005824 0.006941 -0.018984
v -0.005903 0.006542 -0.018836
v -0.005946 0.006352 -0.018514
v -0.005737 0.007452 -0.018441
v -0.005972 0.007370 -0.018584
v -0.006131 0.007010 -0.018699
v -0.006120 0.006592 -0.018635
v -0.005985 0.007327 -0.018352
v -0.006149 0.006960 -0.018296
v -0.006133 0.006551 -0.018404
v -0.004231 0.005191 -0.020592
v -0.004216 0.005944 -0.020529
v -0.004232 0.005223 -0.020036
v -0.004216 0.005979 -0.019838
v -0.004641 0.005161 -0.020591
v -0.004727 0.005908 -0.020528
v -0.004642 0.005193 -0.020035
v -0.004727 0.005945 -0.019836
v -0.004117 0.004563 -0.020661
v -0.004118 0.004577 -0.020144
v -0.004497 0.004535 -0.020661
v -0.004498 0.004549 -0.020145
v -0.003858 0.004133 -0.020774
v -0.003859 0.004175 -0.019968
v -0.004452 0.004090 -0.020773
v -0.004452 0.004131 -0.019968
v -0.003896 0.003579 -0.020584
v -0.003896 0.003578 -0.020096
v -0.004207 0.003556 -0.020585
v -0.004208 0.003556 -0.020097
v -0.003805 0.003585 -0.020004
v -0.003804 0.003585 -0.020676
v -0.004299 0.003549 -0.020005
v -0.004299 0.003549 -0.020677
v -0.003827 0.002375 -0.020494
v -0.003827 0.002361 -0.020268
v -0.003891 0.002370 -0.020495
v -0.003891 0.002357 -0.020268
v -0.003715 0.002362 -0.020155
v -0.003715 0.002390 -0.020606
v -0.004003 0.002342 -0.020157
v -0.004003 0.002369 -0.020608
v -0.003566 0.000118 -0.021026
v -0.003566 0.000110 -0.020894
v -0.003603 0.000115 -0.021026
v -0.003603 0.000107 -0.020895
v -0.005759 0.005191 -0.020588
v -0.005774 0.005944 -0.020525
v -0.005756 0.005223 -0.020032
v -0.005770 0.005979 -0.019834
v -0.005349 0.005161 -0.020589
v -0.005263 0.005908 -0.020526
v -0.005346 0.005193 -0.020034
v -0.005260 0.005945 -0.019834
v -0.005873 0.004563 -0.020656
v -0.005870 0.004577 -0.020140
v -0.005493 0.004535 -0.020658
v -0.005490 0.004549 -0.020142
v -0.006133 0.004133 -0.020768
v -0.006128 0.004175 -0.019963
v -0.005540 0.004090 -0.020770
v -0.005535 0.004131 -0.019965
v -0.006094 0.003579 -0.020579
v -0.006092 0.003578 -0.020090
v -0.005783 0.003556 -0.020581
v -0.005780 0.003556 -0.020093
v -0.006182 0.003585 -0.019998
v -0.006186 0.003585 -0.020670
v -0.005688 0.003549 -0.020002
v -0.005692 0.003549 -0.020673
v -0.006163 0.002375 -0.020488
v -0.006162 0.002361 -0.020262
v -0.006099 0.002370 -0.020489
v -0.006098 0.002357 -0.020263
v -0.006273 0.002362 -0.020149
v -0.006276 0.002390 -0.020600
v -0.005985 0.002342 -0.020152
v -0.005987 0.002369 -0.020603
v -0.006426 0.000118 -0.021019
v -0.006426 0.000110 -0.020887
v -0.006389 0.000115 -0.021019
v -0.006389 0.000107 -0.020888
v -0.004086 0.005485 -0.023065
v -0.004313 0.005844 -0.022626
v -0.004084 0.005045 -0.022271
v -0.004312 0.005593 -0.022173
v -0.004659 0.005485 -0.023064
v -0.004641 0.005844 -0.022626
v -0.004657 0.005045 -0.022270
v -0.004639 0.005593 -0.022172
v -0.004070 0.004769 -0.023330
v -0.004068 0.004578 -0.022776
v -0.004440 0.004769 -0.023329
v -0.004438 0.004578 -0.022775
v -0.003930 0.003813 -0.023551
v -0.003929 0.003751 -0.023172
v -0.004099 0.003813 -0.023550
v -0.004098 0.003751 -0.023171
v -0.003828 0.003735 -0.023072
v -0.003830 0.003829 -0.023651
v -0.004198 0.003735 -0.023071
v -0.004200 0.003829 -0.023650
v -0.003616 0.001788 -0.023782
v -0.003616 0.001794 -0.023587
v -0.003625 0.001788 -0.023782
v -0.003624 0.001794 -0.023587
v -0.003547 0.001797 -0.023518
v -0.003548 0.001786 -0.023851
v -0.003693 0.001797 -0.023518
v -0.003693 0.001786 -0.023850
v -0.003370 0.000110 -0.023364
v -0.003370 0.000114 -0.023248
v -0.003376 0.000110 -0.023364
v -0.003375 0.000114 -0.023248
v -0.005916 0.005485 -0.023060
v -0.005687 0.005844 -0.022623
v -0.005914 0.005045 -0.022267
v -0.005686 0.005593 -0.022170
v -0.005343 0.005485 -0.023062
v -0.005360 0.005844 -0.022624
v -0.005341 0.005045 -0.022268
v -0.005359 0.005593 -0.022171
v -0.005934 0.004769 -0.023326
v -0.005933 0.004578 -0.022772
v -0.005564 0.004769 -0.023326
v -0.005563 0.004578 -0.022772
v -0.006075 0.003813 -0.023545
v -0.006074 0.003751 -0.023166
v -0.005906 0.003813 -0.023546
v -0.005905 0.003751 -0.023167
v -0.006174 0.003735 -0.023066
v -0.006176 0.003829 -0.023645
v -0.005804 0.003735 -0.023067
v -0.005806 0.003829 -0.023646
v -0.006390 0.001788 -0.023775
v -0.006389 0.001794 -0.023580
v -0.006381 0.001788 -0.023775
v -0.006381 0.001794 -0.023580
v -0.006458 0.001797 -0.023511
v -0.006458 0.001786 -0.023843
v -0.006312 0.001797 -0.023511
v -0.006313 0.001786 -0.023844
v -0.006634 0.000110 -0.023356
v -0.006633 0.000114 -0.023240
v -0.006628 0.000110 -0.023356
v -0.006628 0.000114 -0.023240
v -0.004054 0.006177 -0.024509
v -0.004306 0.006528 -0.023796
v -0.003905 0.005319 -0.023472
v -0.004305 0.006019 -0.023184
v -0.004657 0.006177 -0.024507
v -0.004663 0.006528 -0.023795
v -0.004508 0.005318 -0.023472
v -0.004661 0.006016 -0.023185
v -0.003808 0.005506 -0.024983
v -0.003808 0.005091 -0.024745
v -0.004023 0.005506 -0.024982
v -0.004022 0.005091 -0.024744
v -0.003761 0.005000 -0.024693
v -0.003762 0.005597 -0.025035
v -0.004069 0.005000 -0.024692
v -0.004070 0.005597 -0.025034
v -0.003681 0.005527 -0.025423
v -0.003682 0.004986 -0.025682
v -0.003949 0.005527 -0.025422
v -0.003950 0.004986 -0.025681
v -0.003326 0.005787 -0.027600
v -0.003326 0.005560 -0.027588
v -0.003428 0.005787 -0.027600
v -0.003428 0.005560 -0.027588
v -0.003237 0.003038 -0.029277
v -0.003237 0.002825 -0.029174
v -0.003343 0.003038 -0.029277
v -0.003342 0.002825 -0.029174
v -0.003207 0.002766 -0.029145
v -0.003207 0.003098 -0.029306
v -0.003372 0.002766 -0.029145
v -0.003372 0.003098 -0.029306
v -0.003250 0.000283 -0.030673
v -0.003250 0.000194 -0.030629
v -0.003294 0.000283 -0.030673
v -0.003294 0.000194 -0.030629
v -0.005955 0.006177 -0.024504
v -0.005700 0.006528 -0.023793
v -0.006100 0.005319 -0.023467
v -0.005698 0.006019 -0.023180
v -0.005352 0.006177 -0.024505
v -0.005343 0.006528 -0.023793
v -0.005496 0.005318 -0.023469
v -0.005342 0.006016 -0.023183
v -0.006204 0.005506 -0.024977
v -0.006203 0.005091 -0.024739
v -0.005990 0.005506 -0.024977
v -0.005989 0.005091 -0.024739
v -0.006250 0.005000 -0.024687
v -0.006251 0.005597 -0.025029
v -0.005942 0.005000 -0.024687
v -0.005943 0.005597 -0.025029
v -0.006333 0.005527 -0.025416
v -0.006334 0.004986 -0.025675
v -0.006065 0.005527 -0.025417
v -0.006066 0.004986 -0.025676
v -0.006699 0.005787 -0.027592
v -0.006699 0.005560 -0.027580
v -0.006597 0.005787 -0.027592
v -0.006597 0.005560 -0.027580
v -0.006796 0.003038 -0.029268
v -0.006796 0.002825 -0.029165
v -0.006691 0.003038 -0.029268
v -0.006691 0.002825 -0.029165
v -0.006826 0.002766 -0.029136
v -0.006826 0.003098 -0.029297
v -0.006661 0.002766 -0.029136
v -0.006661 0.003098 -0.029298
v -0.006790 0.000283 -0.030664
v -0.006790 0.000194 -0.030621
v -0.006746 0.000283 -0.030664
v -0.006746 0.000194 -0.030621
v 0.002713 0.012972 -0.029955
v -0.004170 0.007835 -0.022492
v 0.003632 0.014907 -0.027516
v -0.004016 0.008602 -0.020758
v -0.002003 0.008992 -0.025279
v -0.000608 0.011342 -0.023341
v 0.004057 0.014793 -0.029413
v -0.004093 0.008219 -0.021625
v -0.001192 0.010233 -0.024525
v 0.002333 0.013964 -0.025785
v 0.001531 0.011797 -0.029345
v 0.002497 0.013413 -0.028036
v -0.012842 0.012855 -0.029849
v -0.005832 0.007842 -0.022470
v -0.013742 0.014874 -0.027418
v -0.005969 0.008661 -0.020744
v -0.008042 0.008944 -0.025222
v -0.009428 0.011370 -0.023288
v -0.014190 0.014711 -0.029304
v -0.005901 0.008252 -0.021607
v -0.008851 0.010218 -0.024468
v -0.012416 0.013963 -0.025703
v -0.011645 0.011682 -0.029249
v -0.012604 0.013349 -0.027942
vn 0.9841 0.0452 -0.1718
vn 0.1170 -0.8468 0.5189
vn -0.9818 -0.0338 0.1868
vn -0.1093 0.8620 -0.4950
vn -0.2450 -0.6039 -0.7585
vn -0.9835 -0.0629 0.1697
vn -0.1473 0.8948 -0.4215
vn 0.9835 0.0629 -0.1698
vn -0.1643 0.7967 -0.5816
vn 0.1646 -0.7960 0.5825
vn 0.2447 0.4145 0.8765
vn 0.1500 -0.8896 0.4313
vn -0.9849 -0.0858 0.1501
vn 0.9857 0.0887 -0.1435
vn -0.9849 0.0452 -0.1668
vn -0.1144 -0.8468 0.5194
vn 0.9827 -0.0338 0.1818
vn 0.1068 0.8620 -0.4955
vn 0.2412 -0.6039 -0.7597
vn 0.9843 -0.0629 0.1647
vn 0.1452 0.8948 -0.4222
vn -0.9843 0.0629 -0.1649
vn 0.1614 0.7967 -0.5824
vn -0.1617 -0.7960 0.5833
vn -0.2404 0.4144 0.8778
vn -0.1479 -0.8896 0.4321
vn 0.9857 -0.0858 0.1452
vn -0.9864 0.0888 -0.1386
vn 0.7804 -0.1003 0.6172
vn 0.2365 -0.3308 -0.9136
vn -0.1413 -0.8877 0.4382
vn 0.1029 0.9635 -0.2472
vn 0.1812 -0.7378 -0.6503
vn 0.1722 -0.7449 -0.6446
vn 0.2279 0.5972 -0.7691
vn 0.5198 -0.6895 -0.5045
vn 0.9732 0.2299 -0.0020
vn 0.2551 0.9620 -0.0970
vn 0.4410 -0.8044 -0.3981
vn 0.9439 0.0733 -0.3220
vn 0.7396 0.6654 -0.1011
vn 0.4997 -0.7879 0.3599
vn 0.9735 0.2221 0.0539
vn 0.2518 0.9151 0.3149
vn 0.4710 -0.8486 0.2411
vn 0.9145 -0.0879 0.3948
vn 0.7463 0.5926 0.3031
vn 0.2924 0.1355 0.9466
vn 0.1574 0.8680 0.4709
vn 0.2801 -0.8059 0.5216
vn 0.2923 -0.4139 0.8621
vn 0.2962 0.4062 0.8644
vn 0.3159 -0.5806 0.7504
vn 0.9806 -0.1433 -0.1336
vn 0.1699 0.7606 -0.6266
vn -0.2077 0.2482 0.9462
vn -0.7625 0.1793 0.6216
vn 0.0593 -0.7269 -0.6842
vn -0.9611 -0.1536 -0.2297
vn 0.9832 0.0313 0.1799
vn -0.1724 -0.8563 0.4869
vn 0.0727 0.1649 -0.9836
vn 0.0667 0.0088 -0.9977
vn 0.2434 0.3479 -0.9054
vn 0.2684 -0.2382 -0.9334
vn 0.9915 0.1143 -0.0628
vn -0.0744 0.1542 0.9852
vn 0.8289 -0.1340 0.5431
vn 0.9959 0.0767 -0.0489
vn -0.1936 -0.9778 0.0806
vn 0.0698 0.9101 0.4085
vn 0.9652 -0.1355 0.2238
vn 0.9613 0.0944 -0.2590
vn -0.0997 -0.8683 -0.4859
vn 0.1071 0.9555 -0.2748
vn 0.9878 -0.1557 -0.0087
vn -1.0000 -0.0000 0.0025
vn 0.0249 0.8615 0.5071
vn 0.0790 0.8339 -0.5462
vn 0.9390 -0.2024 -0.2781
vn -0.0977 -0.9901 -0.1010
vn 0.0128 0.1638 -0.9864
vn 0.0010 -0.1425 -0.9898
vn -0.0013 -0.1228 -0.9924
vn 0.0216 0.1268 -0.9917
vn 1.0000 -0.0001 0.0005
vn 0.9850 -0.1572 -0.0716
vn -0.0581 -0.9188 -0.3904
vn 0.9974 0.0625 0.0350
vn 0.9302 -0.1132 0.3493
vn 0.0518 0.8988 0.4354
vn 0.9363 -0.0268 0.3501
vn 0.0138 0.6080 0.7938
vn 0.9396 -0.1251 0.3186
vn 0.9973 0.0627 0.0385
vn -0.1598 -0.9868 0.0265
vn -0.1207 -0.7702 0.6263
vn 0.9467 -0.0087 0.3220
vn 0.9883 -0.1527 -0.0019
vn 0.0861 0.9850 -0.1493
vn 0.0771 0.9897 0.1208
vn 0.9884 -0.1484 0.0337
vn 0.9879 0.0860 -0.1289
vn -0.1354 -0.9893 0.0545
vn -0.1594 -0.9852 0.0635
vn 0.9969 0.0750 -0.0245
vn -0.0069 -0.2532 -0.9674
vn 0.9601 -0.2063 -0.1889
vn 0.0774 0.8981 -0.4329
vn 0.9830 -0.1676 -0.0750
vn 0.9889 -0.0752 -0.1284
vn 0.0216 0.0266 -0.9994
vn -0.0764 -0.9771 -0.1988
vn 0.9761 0.0763 -0.2035
vn 0.0528 0.8992 -0.4343
vn -0.0174 -0.3538 -0.9352
vn 0.1063 0.9943 0.0042
vn -0.0000 -0.2706 -0.9627
vn -0.0238 -0.4710 -0.8818
vn -0.0724 -0.9951 -0.0668
vn -0.7773 -0.1003 0.6211
vn -0.2411 -0.3308 -0.9124
vn 0.1435 -0.8877 0.4375
vn -0.1042 0.9635 -0.2466
vn -0.1844 -0.7378 -0.6494
vn -0.1754 -0.7449 -0.6437
vn -0.2317 0.5972 -0.7679
vn -0.5223 -0.6895 -0.5019
vn -0.9732 0.2299 0.0029
vn -0.2556 0.9620 -0.0957
vn -0.4430 -0.8044 -0.3959
vn -0.9455 0.0733 -0.3173
vn -0.7401 0.6654 -0.0974
vn -0.4979 -0.7879 0.3624
vn -0.9732 0.2221 0.0588
vn -0.2503 0.9151 0.3162
vn -0.4698 -0.8486 0.2434
vn -0.9126 -0.0879 0.3994
vn -0.7448 0.5926 0.3068
vn -0.2877 0.1355 0.9481
vn -0.1550 0.8680 0.4717
vn -0.2775 -0.8059 0.5230
vn -0.2880 -0.4139 0.8636
vn -0.2919 0.4062 0.8659
vn -0.3122 -0.5806 0.7520
vn -0.9813 -0.1433 -0.1287
vn -0.1730 0.7606 -0.6258
vn 0.2124 0.2482 0.9451
vn 0.7656 0.1793 0.6178
vn -0.0627 -0.7269 -0.6839
vn 0.9599 -0.1536 -0.2345
vn -0.9823 0.0313 0.1848
vn 0.1748 -0.8563 0.4860
vn -0.0776 0.1649 -0.9832
vn -0.0717 0.0088 -0.9974
vn -0.2479 0.3479 -0.9042
vn -0.2731 -0.2382 -0.9320
vn -0.9918 0.1143 -0.0578
vn 0.0793 0.1542 0.9849
vn -0.8262 -0.1340 0.5472
vn -0.9961 0.0767 -0.0439
vn 0.1940 -0.9778 0.0796
vn -0.0677 0.9101 0.4089
vn -0.9640 -0.1355 0.2286
vn -0.9626 0.0944 -0.2541
vn 0.0973 -0.8683 -0.4864
vn -0.1085 0.9555 -0.2743
vn -0.9878 -0.1557 -0.0038
vn -0.0224 0.8615 0.5072
vn -0.0817 0.8339 -0.5458
vn -0.9404 -0.2024 -0.2734
vn 0.0972 -0.9901 -0.1015
vn -0.0177 0.1638 -0.9863
vn -0.0060 -0.1425 -0.9898
vn -0.0036 -0.1228 -0.9924
vn -0.0266 0.1268 -0.9916
vn -0.9853 -0.1572 -0.0667
vn 0.0562 -0.9188 -0.3907
vn -0.9972 0.0625 0.0400
vn -0.9284 -0.1132 0.3539
vn -0.0496 0.8988 0.4356
vn -0.9346 -0.0268 0.3548
vn -0.0098 0.6080 0.7939
vn -0.9380 -0.1251 0.3233
vn -0.9971 0.0627 0.0435
vn 0.1599 -0.9868 0.0257
vn 0.1238 -0.7702 0.6257
vn -0.9451 -0.0087 0.3267
vn -0.9883 -0.1527 0.0030
vn -0.0868 0.9850 -0.1488
vn -0.0765 0.9897 0.1211
vn -0.9882 -0.1484 0.0386
vn -0.9886 0.0860 -0.1240
vn 0.1357 -0.9893 0.0538
vn 0.1597 -0.9852 0.0627
vn -0.9970 0.0750 -0.0195
vn 0.0021 -0.2533 -0.9674
vn -0.9610 -0.2063 -0.1841
vn -0.0796 0.8981 -0.4325
vn -0.9834 -0.1676 -0.0701
vn -0.9895 -0.0752 -0.1234
vn -0.0266 0.0266 -0.9993
vn 0.0754 -0.9771 -0.1992
vn -0.9771 0.0763 -0.1986
vn -0.0549 0.8992 -0.4340
vn 0.0128 -0.3538 -0.9352
vn -0.1062 0.9943 0.0048
vn -0.0048 -0.2706 -0.9627
vn 0.0194 -0.4710 -0.8819
vn 0.0720 -0.9951 -0.0672
vn -0.9786 -0.2038 0.0276
vn 0.6869 -0.1220 -0.7164
vn 0.0950 0.9296 -0.3561
vn 0.5935 -0.6557 -0.4668
vn 0.5322 0.4653 -0.7073
vn 0.9082 0.4185 0.0059
vn 0.9982 -0.0137 -0.0583
vn 0.3883 0.9115 0.1358
vn 0.7716 -0.6177 -0.1520
vn 0.6061 -0.7225 0.3327
vn 0.6026 0.3931 0.6945
vn 0.7474 -0.1777 0.6402
vn 0.2231 0.8360 0.5013
vn 0.9819 -0.1886 0.0189
vn -0.6898 -0.1275 -0.7126
vn -0.1117 0.9316 -0.3459
vn -0.5851 -0.6621 -0.4682
vn -0.5443 0.4639 -0.6990
vn -0.9144 0.4045 0.0163
vn -0.9982 -0.0295 -0.0515
vn -0.4016 0.9038 0.1477
vn -0.7618 -0.6297 -0.1521
vn -0.5913 -0.7356 0.3306
vn -0.6040 0.3775 0.7019
vn -0.7395 -0.1965 0.6438
vn -0.2314 0.8267 0.5129
vn 0.9998 -0.0212 0.0015
vn 0.0203 -0.2544 0.9669
vn -0.9935 -0.1139 0.0060
vn -0.0083 0.0830 -0.9965
vn 0.0127 -0.1637 0.9864
vn -0.0680 0.9963 -0.0523
vn -0.0184 0.2433 -0.9698
vn 0.9841 0.1774 -0.0073
vn -0.9749 -0.2225 0.0093
vn -0.0087 0.1083 -0.9941
vn -0.9650 -0.2623 0.0068
vn -0.0280 0.3859 0.9221
vn -0.9944 -0.1052 0.0040
vn 0.8495 0.5272 -0.0220
vn 0.0030 0.0194 -0.9998
vn 0.9956 0.0940 -0.0022
vn 0.0130 -0.1731 -0.9848
vn 0.0041 -0.0616 0.9981
vn 0.0708 -0.9975 -0.0009
vn 0.0727 -0.9974 -0.0025
vn 0.0739 -0.9973 -0.0010
vn 0.0727 -0.9974 0.0006
vn 0.9936 0.1131 0.0073
vn -0.0008 -0.0494 0.9988
vn -0.9858 -0.1678 -0.0054
vn 0.9888 0.1489 0.0048
vn 0.0706 -0.9957 -0.0608
vn 0.0721 -0.9955 -0.0620
vn 0.0737 -0.9954 -0.0607
vn 0.0724 -0.9956 -0.0588
vn 0.0725 -0.9955 -0.0602
vn -0.0100 0.2281 -0.9736
vn 0.0128 -0.2666 0.9637
vn -0.9922 -0.1247 -0.0080
vn -0.9998 -0.0212 0.0065
vn -0.0155 -0.2544 0.9670
vn 0.9935 -0.1139 0.0010
vn 0.0033 0.0830 -0.9965
vn -0.0078 -0.1637 0.9865
vn 0.0678 0.9963 -0.0526
vn 0.0135 0.2433 -0.9699
vn -0.9841 0.1774 -0.0024
vn 0.9749 -0.2225 0.0044
vn 0.0038 0.1083 -0.9941
vn 0.9650 -0.2623 0.0020
vn 0.0326 0.3859 0.9220
vn 0.9944 -0.1052 -0.0009
vn -0.8496 0.5272 -0.0178
vn -0.0080 0.0194 -0.9998
vn -0.9956 0.0940 0.0028
vn -0.0180 -0.1731 -0.9847
vn 0.0009 -0.0616 0.9981
vn -0.0708 -0.9975 -0.0006
vn -0.0727 -0.9974 -0.0021
vn -0.0739 -0.9973 -0.0006
vn -0.0727 -0.9974 0.0009
vn -0.9935 0.1131 0.0123
vn 0.0057 -0.0494 0.9988
vn 0.9858 -0.1678 -0.0103
vn -0.9888 0.1489 0.0098
vn -0.0709 -0.9957 -0.0604
vn -0.0725 -0.9955 -0.0616
vn -0.0740 -0.9954 -0.0603
vn -0.0727 -0.9956 -0.0585
vn -0.0728 -0.9955 -0.0599
vn 0.0051 0.2281 -0.9736
vn -0.0080 -0.2666 0.9638
vn 0.9921 -0.1247 -0.0130
vn 0.9179 0.3481 0.1904
vn 0.0025 -0.1755 0.9845
vn -0.9994 0.0292 0.0187
vn -0.0016 0.7735 -0.6338
vn 0.0017 -0.7341 0.6791
vn 0.0012 0.8749 0.4843
vn -0.0024 0.3220 -0.9467
vn 0.9997 0.0227 0.0081
vn -0.9540 -0.2724 -0.1251
vn -0.0023 0.3476 -0.9377
vn -0.0025 0.1459 -0.9893
vn 0.0024 -0.3307 0.9437
vn -0.9689 -0.2405 -0.0581
vn 0.9689 0.2405 0.0581
vn -0.0004 -0.9871 -0.1598
vn -0.0024 -0.2421 -0.9703
vn 0.0025 -0.1742 0.9847
vn -0.9802 -0.1975 -0.0115
vn 0.9823 0.1869 0.0108
vn 0.0001 -0.9994 0.0335
vn 0.0024 0.1980 0.9802
vn -0.9894 -0.1452 0.0073
vn 0.9897 0.1432 -0.0073
vn -0.9170 0.3481 0.1950
vn 0.9995 0.0292 0.0137
vn -0.9997 0.0227 0.0131
vn 0.9534 -0.2724 -0.1298
vn 0.9686 -0.2405 -0.0629
vn -0.9686 0.2405 0.0629
vn 0.9802 -0.1975 -0.0164
vn -0.9822 0.1869 0.0157
vn 0.9894 -0.1452 0.0024
vn -0.9897 0.1432 -0.0023
vn 0.9085 0.3587 0.2144
vn 0.0004 -0.3806 0.9247
vn -0.9911 -0.1318 -0.0189
vn -0.0016 0.8966 -0.4429
vn -0.8683 -0.3852 -0.3124
vn -0.0032 0.7673 0.6413
vn -0.0002 0.9989 0.0476
vn -0.0029 0.6709 -0.7415
vn 0.0009 -0.9676 0.2526
vn 0.9668 0.2213 0.1282
vn -0.0038 -0.4974 -0.8675
vn -0.0020 -0.4965 -0.8681
vn -0.0001 -0.4971 -0.8677
vn -0.0027 -0.4979 -0.8672
vn -0.9698 0.0754 -0.2321
vn 0.0003 -0.9938 0.1110
vn -0.9944 0.0024 -0.1053
vn 0.9834 -0.0041 0.1814
vn 0.9988 0.0154 0.0471
vn 0.9856 -0.0524 0.1606
vn 0.0002 0.9929 0.1188
vn -0.0007 -0.9575 -0.2884
vn 1.0000 -0.0017 -0.0059
vn -0.0021 0.5355 -0.8445
vn 0.0022 -0.4867 0.8736
vn -0.9997 -0.0075 -0.0217
vn -0.0025 -0.4369 -0.8995
vn -0.0022 -0.4366 -0.8997
vn -0.0019 -0.4369 -0.8995
vn -0.0022 -0.4368 -0.8995
vn -0.0022 -0.4385 -0.8987
vn -0.0022 0.4520 -0.8920
vn 0.0022 -0.4840 0.8751
vn -0.9998 -0.0092 -0.0164
vn -0.9074 0.3587 0.2190
vn 0.0043 -0.3806 0.9247
vn 0.9910 -0.1318 -0.0239
vn -0.0006 0.8966 -0.4429
vn 0.8668 -0.3852 -0.3168
vn 0.0064 0.7673 0.6413
vn 0.0004 0.9989 0.0476
vn -0.0008 0.6709 -0.7415
vn 0.0004 -0.9676 0.2526
vn -0.9661 0.2213 0.1330
vn -0.0005 -0.4974 -0.8675
vn -0.0024 -0.4965 -0.8681
vn -0.0043 -0.4971 -0.8677
vn -0.0016 -0.4979 -0.8672
vn 0.9686 0.0754 -0.2370
vn 0.9939 0.0024 -0.1102
vn -0.9825 -0.0041 0.1863
vn -0.9985 0.0154 0.0520
vn -0.9848 -0.0524 0.1655
vn 0.0004 0.9929 0.1188
vn -1.0000 -0.0017 -0.0009
vn -0.0022 0.5355 -0.8445
vn 0.9996 -0.0075 -0.0266
vn -0.0020 -0.4369 -0.8995
vn -0.0023 -0.4366 -0.8997
vn -0.0026 -0.4369 -0.8995
vn -0.0023 -0.4368 -0.8995
vn -0.0023 -0.4385 -0.8987
vn -0.0023 0.4520 -0.8920
vn 0.9997 -0.0092 -0.0214
vn -0.7114 0.6573 -0.2487
vn -0.7451 0.6317 -0.2141
vn -0.7489 0.6249 -0.2204
vn -0.7084 0.6534 -0.2669
vn -0.7469 0.6247 -0.2278
vn -0.7428 0.6365 -0.2077
vn 0.7070 0.6518 -0.2745
vn 0.7414 0.6269 -0.2394
vn 0.7451 0.6200 -0.2456
vn 0.7035 0.6477 -0.2927
vn 0.7429 0.6197 -0.2530
vn 0.7393 0.6317 -0.2330
vt 0.450060 0.057820
vt 0.449918 0.066590
vt 0.449451 0.066665
vt 0.449507 0.057909
vt 0.449414 0.066896
vt 0.449463 0.058183
vt 0.449881 0.066821
vt 0.450016 0.058093
vt 0.450022 0.094950
vt 0.450483 0.095195
vt 0.450537 0.094995
vt 0.448779 0.134518
vt 0.448816 0.134383
vt 0.450076 0.094751
vt 0.448466 0.134352
vt 0.448503 0.134217
vt 0.448779 0.134518
vt 0.455533 0.225575
vt 0.455852 0.224560
vt 0.456699 0.225147
vt 0.455921 0.227487
vt 0.455984 0.222866
vt 0.456096 0.223646
vt 0.455719 0.223486
vt 0.455677 0.222774
vt 0.455908 0.223728
vt 0.456047 0.223854
vt 0.456768 0.223519
vt 0.456766 0.223228
vt 0.455232 0.226309
vt 0.453879 0.226367
vt 0.454861 0.226217
vt 0.455081 0.221819
vt 0.455669 0.225842
vt 0.455258 0.225752
vt 0.454838 0.223099
vt 0.454991 0.222536
vt 0.455612 0.224522
vt 0.454138 0.225454
vt 0.454452 0.224185
vt 0.453964 0.226027
vt 0.454104 0.222980
vt 0.454464 0.222405
vt 0.453494 0.225290
vt 0.453525 0.223962
vt 0.453509 0.225902
vt 0.452968 0.225130
vt 0.452994 0.223778
vt 0.453137 0.225810
vt 0.454028 0.222313
vt 0.453603 0.222821
vt 0.455647 0.224531
vt 0.455735 0.223630
vt 0.455678 0.225708
vt 0.455326 0.225632
vt 0.455699 0.225646
vt 0.456059 0.223766
vt 0.459009 0.224839
vt 0.458421 0.228520
vt 0.458714 0.222395
vt 0.458639 0.221961
vt 0.455971 0.227650
vt 0.461833 0.224248
vt 0.461581 0.227560
vt 0.461392 0.222098
vt 0.461293 0.221719
vt 0.458537 0.228751
vt 0.465160 0.224566
vt 0.465053 0.225356
vt 0.465085 0.224045
vt 0.465067 0.223953
vt 0.461700 0.227756
vt 0.465111 0.224232
vt 0.465163 0.224683
vt 0.465567 0.224884
vt 0.465589 0.224430
vt 0.465102 0.225200
vt 0.465080 0.225162
vt 0.465407 0.225343
vt 0.465422 0.225383
vt 0.465079 0.225404
vt 0.465585 0.224357
vt 0.467205 0.224542
vt 0.467163 0.224336
vt 0.467109 0.227334
vt 0.467322 0.225848
vt 0.465166 0.224580
vt 0.465095 0.224161
vt 0.465164 0.224683
vt 0.465587 0.224782
vt 0.467340 0.225550
vt 0.468407 0.223085
vt 0.468687 0.225011
vt 0.467049 0.227224
vt 0.468226 0.227665
vt 0.468320 0.227839
vt 0.471516 0.224911
vt 0.471160 0.227832
vt 0.468473 0.223412
vt 0.471195 0.223179
vt 0.471106 0.222826
vt 0.468658 0.225482
vt 0.474982 0.222353
vt 0.475364 0.224292
vt 0.471272 0.228017
vt 0.475032 0.227009
vt 0.475136 0.227181
vt 0.471511 0.225427
vt 0.478486 0.223304
vt 0.478519 0.225110
vt 0.475065 0.222681
vt 0.478142 0.222279
vt 0.478058 0.222072
vt 0.475359 0.224772
vt 0.460754 0.253918
vt 0.460789 0.254135
vt 0.460788 0.254064
vt 0.460738 0.253869
vt 0.480578 0.222506
vt 0.480773 0.223067
vt 0.478604 0.225212
vt 0.478527 0.223618
vt 0.443991 0.252781
vt 0.443689 0.251607
vt 0.480792 0.223210
vt 0.480827 0.223937
vt 0.480788 0.223890
vt 0.480617 0.222600
vt 0.480726 0.222963
vt 0.480728 0.223087
vt 0.443998 0.253210
vt 0.480639 0.222625
vt 0.480667 0.222710
vt 0.443786 0.251902
vt 0.953477 0.244413
vt 0.953538 0.244790
vt 0.958382 0.245057
vt 0.958372 0.244994
vt 0.465053 0.225356
vt 0.467340 0.225550
vt 0.480788 0.223890
vt 0.529644 0.541575
vt 0.529253 0.541687
vt 0.528972 0.542124
vt 0.529084 0.542631
vt 0.529406 0.542910
vt 0.529818 0.542798
vt 0.530098 0.542361
vt 0.529986 0.541855
vt 0.529763 0.542357
vt 0.529749 0.541852
vt 0.529581 0.542796
vt 0.529321 0.542712
vt 0.529307 0.542239
vt 0.529490 0.541768
vt 0.467828 0.074706
vt 0.467690 0.076418
vt 0.466126 0.076516
vt 0.466573 0.074785
vt 0.466126 0.076432
vt 0.466573 0.074718
vt 0.467690 0.076334
vt 0.467828 0.074639
vt 0.466819 0.073251
vt 0.466817 0.073314
vt 0.467985 0.073217
vt 0.467983 0.073279
vt 0.468237 0.072305
vt 0.468238 0.072207
vt 0.466419 0.072304
vt 0.468019 0.070984
vt 0.466502 0.070985
vt 0.466418 0.072401
vt 0.467811 0.070999
vt 0.467808 0.071050
vt 0.467856 0.068359
vt 0.467862 0.068312
vt 0.466497 0.071066
vt 0.468014 0.071065
vt 0.466705 0.071051
vt 0.466708 0.071000
vt 0.467604 0.068326
vt 0.467093 0.068295
vt 0.468511 0.063200
vt 0.468808 0.063217
vt 0.466843 0.068252
vt 0.466837 0.068299
vt 0.467094 0.068285
vt 0.467606 0.068316
vt 0.468512 0.063194
vt 0.468809 0.063211
vt 0.473431 0.075341
vt 0.472441 0.076152
vt 0.471416 0.075585
vt 0.471637 0.074348
vt 0.472778 0.073292
vt 0.474030 0.073724
vt 0.474753 0.071598
vt 0.474527 0.071562
vt 0.475203 0.066981
vt 0.473446 0.071387
vt 0.473671 0.071423
vt 0.475048 0.066987
vt 0.474102 0.063195
vt 0.474452 0.067006
vt 0.474607 0.067001
vt 0.473840 0.063204
vt 0.476664 0.076896
vt 0.475068 0.077720
vt 0.473657 0.076600
vt 0.474279 0.075002
vt 0.477828 0.075563
vt 0.477029 0.074228
vt 0.477706 0.075360
vt 0.478702 0.075390
vt 0.477150 0.074431
vt 0.479266 0.074158
vt 0.483632 0.075894
vt 0.483595 0.075381
vt 0.487011 0.069013
vt 0.487388 0.069756
vt 0.487320 0.069622
vt 0.487079 0.069147
vt 0.490290 0.063163
vt 0.490391 0.063363
vt 0.367834 0.884128
vt 0.358185 0.875165
vt 0.355925 0.876558
vt 0.365097 0.888296
vt 0.379854 0.897047
vt 0.373717 0.898942
vt 0.382649 0.890929
vt 0.369259 0.879399
vt 0.360446 0.873772
vt 0.385115 0.895640
vt 0.384648 0.902636
vt 0.379267 0.902878
s 0
f 1/1/1 2/2/1 4/3/1
f 1/1/1 4/3/1 3/4/1
f 3/4/2 4/3/2 8/5/2
f 3/4/2 8/5/2 7/6/2
f 7/6/3 8/5/3 6/7/3
f 7/6/3 6/7/3 5/8/3
f 5/8/4 6/7/4 2/2/4
f 5/8/4 2/2/4 1/1/4
f 3/4/5 7/6/5 5/8/5
f 3/4/5 5/8/5 1/1/5
f 6/7/6 8/5/6 12/9/6
f 6/7/6 12/9/6 11/10/6
f 9/11/7 11/10/7 15/12/7
f 9/11/7 15/12/7 13/13/7
f 4/3/8 2/2/8 9/11/8
f 4/3/8 9/11/8 10/14/8
f 2/2/9 6/7/9 11/10/9
f 2/2/9 11/10/9 9/11/9
f 8/5/10 4/3/10 10/14/10
f 8/5/10 10/14/10 12/9/10
f 16/15/11 14/16/11 13/13/11
f 16/15/11 13/13/11 15/12/11
f 12/9/12 10/14/12 14/16/12
f 12/9/12 14/16/12 16/15/12
f 11/10/13 12/9/13 16/15/13
f 11/10/13 16/15/13 15/12/13
f 10/14/14 9/11/14 13/13/14
f 10/14/14 13/13/14 14/16/14
f 17/1/15 19/4/15 20/3/15
f 17/1/15 20/3/15 18/2/15
f 19/4/16 23/6/16 24/5/16
f 19/4/16 24/5/16 20/3/16
f 23/6/17 21/8/17 22/7/17
f 23/6/17 22/7/17 24/5/17
f 21/8/18 17/1/18 18/2/18
f 21/8/18 18/2/18 22/7/18
f 19/4/19 17/1/19 21/8/19
f 19/4/19 21/8/19 23/6/19
f 22/7/20 27/10/20 28/9/20
f 22/7/20 28/9/20 24/5/20
f 25/11/21 29/13/21 31/17/21
f 25/11/21 31/17/21 27/10/21
f 20/3/22 26/14/22 25/11/22
f 20/3/22 25/11/22 18/2/22
f 18/2/23 25/11/23 27/10/23
f 18/2/23 27/10/23 22/7/23
f 24/5/24 28/9/24 26/14/24
f 24/5/24 26/14/24 20/3/24
f 32/15/25 31/17/25 29/13/25
f 32/15/25 29/13/25 30/16/25
f 28/9/26 32/15/26 30/16/26
f 28/9/26 30/16/26 26/14/26
f 27/10/27 31/17/27 32/15/27
f 27/10/27 32/15/27 28/9/27
f 26/14/28 30/16/28 29/13/28
f 26/14/28 29/13/28 25/11/28
f 76/18/29 72/19/29 79/20/29
f 76/18/29 79/20/29 81/21/29
f 37/22/30 36/23/30 42/24/30
f 37/22/30 42/24/30 43/25/30
f 77/26/31 75/27/31 80/28/31
f 77/26/31 80/28/31 82/29/31
f 33/30/32 38/31/32 39/32/32
f 44/33/33 37/22/33 43/25/33
f 34/34/34 40/35/34 69/35/34
f 34/34/34 69/35/34 66/34/34
f 34/34/35 33/30/35 39/32/35
f 34/34/35 39/32/35 40/35/35
f 43/25/36 42/24/36 48/36/36
f 43/25/36 48/36/36 49/37/36
f 41/38/37 40/35/37 46/39/37
f 41/38/37 46/39/37 47/40/37
f 39/32/38 38/31/38 45/41/38
f 44/33/39 43/25/39 49/37/39
f 42/24/40 41/38/40 47/40/40
f 42/24/40 47/40/40 48/36/40
f 40/35/41 39/32/41 45/41/41
f 40/35/41 45/41/41 46/39/41
f 49/37/42 48/36/42 53/42/42
f 49/37/42 53/42/42 54/43/42
f 47/40/43 46/39/43 51/44/43
f 47/40/43 51/44/43 52/45/43
f 45/41/44 38/31/44 50/46/44
f 44/33/45 49/37/45 54/43/45
f 48/36/46 47/40/46 52/45/46
f 48/36/46 52/45/46 53/42/46
f 46/39/47 45/41/47 50/46/47
f 46/39/47 50/46/47 51/44/47
f 52/45/48 51/44/48 56/47/48
f 52/45/48 56/47/48 57/48/48
f 50/46/49 38/31/49 55/49/49
f 44/33/50 54/43/50 59/50/50
f 53/42/51 52/45/51 57/48/51
f 53/42/51 57/48/51 58/51/51
f 51/44/52 50/46/52 55/49/52
f 51/44/52 55/49/52 56/47/52
f 54/43/53 53/42/53 58/51/53
f 54/43/53 58/51/53 59/50/53
f 64/52/54 65/53/54 77/26/54
f 64/52/54 77/26/54 72/19/54
f 60/54/55 63/55/55 76/18/55
f 60/54/55 76/18/55 74/56/55
f 42/24/56 36/23/56 68/23/56
f 42/24/56 68/23/56 71/24/56
f 41/38/57 42/24/57 71/24/57
f 41/38/57 71/24/57 70/38/57
f 65/53/58 62/57/58 75/27/58
f 65/53/58 75/27/58 77/26/58
f 40/35/59 41/38/59 70/38/59
f 40/35/59 70/38/59 69/35/59
f 81/21/60 79/20/60 84/58/60
f 81/21/60 84/58/60 86/59/60
f 82/29/61 80/28/61 85/60/61
f 82/29/61 85/60/61 87/61/61
f 64/52/62 63/55/62 69/35/62
f 64/52/62 69/35/62 70/38/62
f 65/53/63 64/52/63 70/38/63
f 65/53/63 70/38/63 71/24/63
f 62/57/64 65/53/64 71/24/64
f 62/57/64 71/24/64 68/23/64
f 63/55/65 60/54/65 66/34/65
f 63/55/65 66/34/65 69/35/65
f 63/55/66 64/52/66 72/19/66
f 63/55/66 72/19/66 76/18/66
f 74/56/67 76/18/67 81/21/67
f 74/56/67 81/21/67 61/62/67
f 72/19/68 77/26/68 82/29/68
f 72/19/68 82/29/68 79/20/68
f 86/59/69 84/58/69 88/63/69
f 86/59/69 88/63/69 90/64/69
f 87/61/70 85/60/70 89/65/70
f 87/61/70 89/65/70 91/66/70
f 61/62/71 81/21/71 86/59/71
f 61/62/71 86/59/71 73/67/71
f 79/20/72 82/29/72 87/61/72
f 79/20/72 87/61/72 84/58/72
f 90/64/73 88/63/73 83/68/73
f 90/64/73 83/68/73 99/69/73
f 91/66/74 89/65/74 94/70/74
f 91/66/74 94/70/74 102/71/74
f 73/67/75 86/59/75 90/64/75
f 73/67/75 90/64/75 78/72/75
f 84/58/76 87/61/76 91/66/76
f 84/58/76 91/66/76 88/63/76
f 100/73/77 98/74/77 104/75/77
f 100/73/77 104/75/77 106/76/77
f 97/77/78 95/78/78 107/79/78
f 97/77/78 107/79/78 103/80/78
f 78/72/79 90/64/79 99/69/79
f 78/72/79 99/69/79 93/81/79
f 88/63/80 91/66/80 102/71/80
f 88/63/80 102/71/80 83/68/80
f 108/82/81 106/76/81 112/83/81
f 108/82/81 112/83/81 114/84/81
f 104/75/77 103/80/77 109/85/77
f 104/75/77 109/85/77 110/86/77
f 101/87/82 95/78/82 99/69/82
f 101/87/82 99/69/82 83/68/82
f 96/88/83 101/87/83 83/68/83
f 96/88/83 83/68/83 102/71/83
f 100/73/84 96/88/84 102/71/84
f 100/73/84 102/71/84 94/70/84
f 95/78/85 97/77/85 93/81/85
f 95/78/85 93/81/85 99/69/85
f 97/77/86 98/74/86 100/73/86
f 97/77/86 100/73/86 94/70/86
f 97/77/86 94/70/86 92/89/86
f 97/77/86 92/89/86 93/81/86
f 101/87/87 96/88/87 108/82/87
f 101/87/87 108/82/87 105/90/87
f 98/74/77 97/77/77 103/80/77
f 98/74/77 103/80/77 104/75/77
f 96/88/88 100/73/88 106/76/88
f 96/88/88 106/76/88 108/82/88
f 95/78/89 101/87/89 105/90/89
f 95/78/89 105/90/89 107/79/89
f 111/91/90 114/84/90 120/92/90
f 111/91/90 120/92/90 117/93/90
f 109/85/91 113/94/91 119/95/91
f 109/85/91 119/95/91 115/96/91
f 107/79/92 105/90/92 111/91/92
f 107/79/92 111/91/92 113/94/92
f 103/80/93 107/79/93 113/94/93
f 103/80/93 113/94/93 109/85/93
f 105/90/94 108/82/94 114/84/94
f 105/90/94 114/84/94 111/91/94
f 106/76/77 104/75/77 110/86/77
f 106/76/77 110/86/77 112/83/77
f 119/95/95 117/93/95 123/97/95
f 119/95/95 123/97/95 125/98/95
f 120/92/96 118/99/96 124/100/96
f 120/92/96 124/100/96 126/101/96
f 112/83/77 110/86/77 116/102/77
f 112/83/77 116/102/77 118/99/77
f 110/86/77 109/85/77 115/96/77
f 110/86/77 115/96/77 116/102/77
f 114/84/97 112/83/97 118/99/97
f 114/84/97 118/99/97 120/92/97
f 113/94/98 111/91/98 117/93/98
f 113/94/98 117/93/98 119/95/98
f 123/97/99 126/101/99 132/103/99
f 123/97/99 132/103/99 129/104/99
f 121/105/100 125/98/100 131/106/100
f 121/105/100 131/106/100 127/107/100
f 115/96/101 119/95/101 125/98/101
f 115/96/101 125/98/101 121/105/101
f 117/93/102 120/92/102 126/101/102
f 117/93/102 126/101/102 123/97/102
f 118/99/77 116/102/77 122/108/77
f 118/99/77 122/108/77 124/100/77
f 116/102/77 115/96/77 121/105/77
f 116/102/77 121/105/77 122/108/77
f 131/106/103 129/104/103 135/109/103
f 131/106/103 135/109/103 137/110/103
f 132/103/104 130/111/104 136/112/104
f 132/103/104 136/112/104 138/113/104
f 124/100/77 122/108/77 128/114/77
f 124/100/77 128/114/77 130/111/77
f 122/108/77 121/105/77 127/107/77
f 122/108/77 127/107/77 128/114/77
f 126/101/105 124/100/105 130/111/105
f 126/101/105 130/111/105 132/103/105
f 125/98/106 123/97/106 129/104/106
f 125/98/106 129/104/106 131/106/106
f 151/115/107 150/116/107 149/117/107
f 151/115/107 149/117/107 152/118/107
f 135/109/108 138/113/108 148/119/108
f 135/109/108 148/119/108 145/120/108
f 127/107/109 131/106/109 137/110/109
f 127/107/109 137/110/109 133/121/109
f 129/104/110 132/103/110 138/113/110
f 129/104/110 138/113/110 135/109/110
f 130/111/77 128/114/77 134/122/77
f 130/111/77 134/122/77 136/112/77
f 128/114/77 127/107/77 133/121/77
f 128/114/77 133/121/77 134/122/77
f 141/123/111 144/124/111 152/118/111
f 141/123/111 152/118/111 149/117/111
f 146/125/112 139/126/112 143/127/112
f 146/125/112 143/127/112 145/120/112
f 134/122/77 133/121/77 139/126/77
f 134/122/77 139/126/77 146/125/77
f 138/113/113 136/112/113 147/128/113
f 138/113/113 147/128/113 148/119/113
f 137/110/114 135/109/114 145/120/114
f 137/110/114 145/120/114 143/127/114
f 133/121/115 137/110/115 143/127/115
f 133/121/115 143/127/115 139/126/115
f 141/129/116 140/130/116 146/125/116
f 141/129/116 146/125/116 145/120/116
f 140/131/117 141/123/117 149/117/117
f 140/131/117 149/117/117 150/116/117
f 144/132/118 141/129/118 145/120/118
f 144/132/118 145/120/118 148/119/118
f 142/133/119 144/132/119 148/119/119
f 142/133/119 148/119/119 147/128/119
f 136/112/77 134/122/77 146/125/77
f 136/112/77 146/125/77 140/130/77
f 136/112/77 140/130/77 142/133/77
f 136/112/77 142/133/77 147/128/77
f 144/124/120 142/134/120 151/115/120
f 144/124/120 151/115/120 152/118/120
f 142/135/77 140/136/77 150/137/77
f 142/135/77 150/137/77 151/138/77
f 175/18/121 178/21/121 177/20/121
f 175/18/121 177/20/121 174/19/121
f 37/22/122 157/25/122 156/24/122
f 37/22/122 156/24/122 36/23/122
f 176/26/123 179/29/123 80/28/123
f 176/26/123 80/28/123 75/27/123
f 33/30/124 153/32/124 38/31/124
f 44/33/125 157/25/125 37/22/125
f 34/34/126 66/34/126 171/35/126
f 34/34/126 171/35/126 154/35/126
f 34/34/127 154/35/127 153/32/127
f 34/34/127 153/32/127 33/30/127
f 157/25/128 162/37/128 161/36/128
f 157/25/128 161/36/128 156/24/128
f 155/38/129 160/40/129 159/39/129
f 155/38/129 159/39/129 154/35/129
f 153/32/130 158/41/130 38/31/130
f 44/33/131 162/37/131 157/25/131
f 156/24/132 161/36/132 160/40/132
f 156/24/132 160/40/132 155/38/132
f 154/35/133 159/39/133 158/41/133
f 154/35/133 158/41/133 153/32/133
f 162/37/134 167/43/134 166/42/134
f 162/37/134 166/42/134 161/36/134
f 160/40/135 165/45/135 164/44/135
f 160/40/135 164/44/135 159/39/135
f 158/41/136 163/46/136 38/31/136
f 44/33/137 167/43/137 162/37/137
f 161/36/138 166/42/138 165/45/138
f 161/36/138 165/45/138 160/40/138
f 159/39/139 164/44/139 163/46/139
f 159/39/139 163/46/139 158/41/139
f 165/45/140 57/48/140 56/47/140
f 165/45/140 56/47/140 164/44/140
f 163/46/141 55/49/141 38/31/141
f 44/33/142 59/50/142 167/43/142
f 166/42/143 58/51/143 57/48/143
f 166/42/143 57/48/143 165/45/143
f 164/44/144 56/47/144 55/49/144
f 164/44/144 55/49/144 163/46/144
f 167/43/145 59/50/145 58/51/145
f 167/43/145 58/51/145 166/42/145
f 169/52/146 174/19/146 176/26/146
f 169/52/146 176/26/146 170/53/146
f 60/54/147 74/56/147 175/18/147
f 60/54/147 175/18/147 168/55/147
f 156/24/148 173/24/148 68/23/148
f 156/24/148 68/23/148 36/23/148
f 155/38/149 172/38/149 173/24/149
f 155/38/149 173/24/149 156/24/149
f 170/53/150 176/26/150 75/27/150
f 170/53/150 75/27/150 62/57/150
f 154/35/151 171/35/151 172/38/151
f 154/35/151 172/38/151 155/38/151
f 178/21/152 182/59/152 181/58/152
f 178/21/152 181/58/152 177/20/152
f 179/29/153 183/61/153 85/60/153
f 179/29/153 85/60/153 80/28/153
f 169/52/154 172/38/154 171/35/154
f 169/52/154 171/35/154 168/55/154
f 170/53/155 173/24/155 172/38/155
f 170/53/155 172/38/155 169/52/155
f 62/57/156 68/23/156 173/24/156
f 62/57/156 173/24/156 170/53/156
f 168/55/157 171/35/157 66/34/157
f 168/55/157 66/34/157 60/54/157
f 168/55/158 175/18/158 174/19/158
f 168/55/158 174/19/158 169/52/158
f 74/56/159 61/62/159 178/21/159
f 74/56/159 178/21/159 175/18/159
f 174/19/160 177/20/160 179/29/160
f 174/19/160 179/29/160 176/26/160
f 182/59/161 185/64/161 184/63/161
f 182/59/161 184/63/161 181/58/161
f 183/61/162 186/66/162 89/65/162
f 183/61/162 89/65/162 85/60/162
f 61/62/163 73/67/163 182/59/163
f 61/62/163 182/59/163 178/21/163
f 177/20/164 181/58/164 183/61/164
f 177/20/164 183/61/164 179/29/164
f 185/64/165 189/139/165 180/68/165
f 185/64/165 180/68/165 184/63/165
f 186/66/166 191/71/166 94/70/166
f 186/66/166 94/70/166 89/65/166
f 73/67/167 78/72/167 185/64/167
f 73/67/167 185/64/167 182/59/167
f 181/58/168 184/63/168 186/66/168
f 181/58/168 186/66/168 183/61/168
f 97/77/169 103/80/169 193/79/169
f 97/77/169 193/79/169 187/78/169
f 78/72/170 93/81/170 189/139/170
f 78/72/170 189/139/170 185/64/170
f 184/63/171 180/68/171 191/71/171
f 184/63/171 191/71/171 186/66/171
f 194/82/172 197/84/172 112/83/172
f 194/82/172 112/83/172 106/76/172
f 190/87/173 180/68/173 189/139/173
f 190/87/173 189/139/173 187/78/173
f 188/88/174 191/71/174 180/68/174
f 188/88/174 180/68/174 190/87/174
f 100/73/175 94/70/175 191/71/175
f 100/73/175 191/71/175 188/88/175
f 187/78/176 189/139/176 93/81/176
f 187/78/176 93/81/176 97/77/176
f 190/87/177 192/90/177 194/82/177
f 190/87/177 194/82/177 188/88/177
f 188/88/178 194/82/178 106/76/178
f 188/88/178 106/76/178 100/73/178
f 187/78/179 193/79/179 192/90/179
f 187/78/179 192/90/179 190/87/179
f 195/140/180 198/93/180 200/92/180
f 195/140/180 200/92/180 197/84/180
f 109/85/181 115/96/181 199/95/181
f 109/85/181 199/95/181 196/94/181
f 193/79/182 196/94/182 195/140/182
f 193/79/182 195/140/182 192/90/182
f 103/80/183 109/85/183 196/94/183
f 103/80/183 196/94/183 193/79/183
f 192/90/184 195/140/184 197/84/184
f 192/90/184 197/84/184 194/82/184
f 199/95/185 202/98/185 201/97/185
f 199/95/185 201/97/185 198/93/185
f 200/92/186 203/101/186 124/100/186
f 200/92/186 124/100/186 118/99/186
f 197/84/187 200/92/187 118/99/187
f 197/84/187 118/99/187 112/83/187
f 196/94/188 199/95/188 198/93/188
f 196/94/188 198/93/188 195/140/188
f 201/97/189 204/104/189 206/103/189
f 201/97/189 206/103/189 203/101/189
f 121/105/190 127/107/190 205/106/190
f 121/105/190 205/106/190 202/98/190
f 115/96/191 121/105/191 202/98/191
f 115/96/191 202/98/191 199/95/191
f 198/93/192 201/97/192 203/101/192
f 198/93/192 203/101/192 200/92/192
f 205/106/193 208/110/193 207/109/193
f 205/106/193 207/109/193 204/104/193
f 206/103/194 209/113/194 136/112/194
f 206/103/194 136/112/194 130/111/194
f 203/101/195 206/103/195 130/111/195
f 203/101/195 130/111/195 124/100/195
f 202/98/196 205/106/196 204/104/196
f 202/98/196 204/104/196 201/97/196
f 151/115/197 216/118/197 215/117/197
f 151/115/197 215/117/197 150/116/197
f 207/109/198 213/120/198 214/119/198
f 207/109/198 214/119/198 209/113/198
f 127/107/199 133/121/199 208/110/199
f 127/107/199 208/110/199 205/106/199
f 204/104/200 207/109/200 209/113/200
f 204/104/200 209/113/200 206/103/200
f 210/123/201 215/117/201 216/118/201
f 210/123/201 216/118/201 212/124/201
f 146/125/202 213/120/202 211/141/202
f 146/125/202 211/141/202 139/126/202
f 209/113/203 214/119/203 147/128/203
f 209/113/203 147/128/203 136/112/203
f 208/110/204 211/141/204 213/120/204
f 208/110/204 213/120/204 207/109/204
f 133/121/205 139/126/205 211/141/205
f 133/121/205 211/141/205 208/110/205
f 210/129/206 213/120/206 146/125/206
f 210/129/206 146/125/206 140/130/206
f 140/131/207 150/116/207 215/117/207
f 140/131/207 215/117/207 210/123/207
f 212/132/208 214/119/208 213/120/208
f 212/132/208 213/120/208 210/129/208
f 142/133/209 147/128/209 214/119/209
f 142/133/209 214/119/209 212/132/209
f 212/124/210 216/118/210 151/115/210
f 212/124/210 151/115/210 142/134/210
f 223/142/211 219/143/211 218/144/211
f 223/142/211 218/144/211 217/145/211
f 223/142/211 217/145/211 224/146/211
f 223/142/211 224/146/211 220/147/211
f 223/142/211 220/147/211 221/148/211
f 223/142/211 221/148/211 222/149/211
f 222/149/212 221/148/212 226/150/212
f 222/149/212 226/150/212 227/151/212
f 220/147/213 224/146/213 225/152/213
f 223/142/214 222/149/214 227/151/214
f 221/148/215 220/147/215 225/152/215
f 221/148/215 225/152/215 226/150/215
f 226/150/216 225/152/216 228/153/216
f 226/150/216 228/153/216 229/154/216
f 227/151/217 226/150/217 229/154/217
f 227/151/217 229/154/217 230/155/217
f 225/152/218 224/146/218 228/153/218
f 223/142/219 227/151/219 230/155/219
f 223/142/220 230/155/220 219/143/220
f 229/154/221 228/153/221 217/145/221
f 229/154/221 217/145/221 218/144/221
f 230/155/222 229/154/222 218/144/222
f 230/155/222 218/144/222 219/143/222
f 228/153/223 224/146/223 217/145/223
f 237/142/224 236/149/224 235/148/224
f 237/142/224 235/148/224 234/147/224
f 237/142/224 234/147/224 238/146/224
f 237/142/224 238/146/224 231/145/224
f 237/142/224 231/145/224 232/144/224
f 237/142/224 232/144/224 233/143/224
f 236/149/225 241/151/225 240/150/225
f 236/149/225 240/150/225 235/148/225
f 234/147/226 239/152/226 238/146/226
f 237/142/227 241/151/227 236/149/227
f 235/148/228 240/150/228 239/152/228
f 235/148/228 239/152/228 234/147/228
f 240/150/229 243/154/229 242/153/229
f 240/150/229 242/153/229 239/152/229
f 241/151/230 244/155/230 243/154/230
f 241/151/230 243/154/230 240/150/230
f 239/152/231 242/153/231 238/146/231
f 237/142/232 244/155/232 241/151/232
f 237/142/233 233/143/233 244/155/233
f 243/154/234 232/144/234 231/145/234
f 243/154/234 231/145/234 242/153/234
f 244/155/235 233/143/235 232/144/235
f 244/155/235 232/144/235 243/154/235
f 242/153/236 231/145/236 238/146/236
f 245/156/237 246/157/237 248/158/237
f 245/156/237 248/158/237 247/159/237
f 247/159/238 248/158/238 252/160/238
f 247/159/238 252/160/238 251/161/238
f 251/161/239 252/160/239 250/162/239
f 251/161/239 250/162/239 249/163/239
f 249/163/240 250/162/240 246/157/240
f 249/163/240 246/157/240 245/156/240
f 247/159/241 251/161/241 256/164/241
f 247/159/241 256/164/241 254/165/241
f 252/160/242 248/158/242 246/157/242
f 252/160/242 246/157/242 250/162/242
f 255/166/243 253/167/243 257/168/243
f 255/166/243 257/168/243 259/169/243
f 245/156/244 247/159/244 254/165/244
f 245/156/244 254/165/244 253/167/244
f 251/161/245 249/163/245 255/166/245
f 251/161/245 255/166/245 256/164/245
f 249/163/246 245/156/246 253/167/246
f 249/163/246 253/167/246 255/166/246
f 260/170/247 259/169/247 268/171/247
f 260/170/247 268/171/247 267/172/247
f 254/165/248 256/164/248 260/170/248
f 254/165/248 260/170/248 258/173/248
f 256/164/249 255/166/249 259/169/249
f 256/164/249 259/169/249 260/170/249
f 253/167/250 254/165/250 258/173/250
f 253/167/250 258/173/250 257/168/250
f 263/174/251 261/175/251 274/176/251
f 263/174/251 274/176/251 276/177/251
f 257/168/252 258/173/252 265/178/252
f 257/168/252 265/178/252 266/179/252
f 259/169/253 257/168/253 266/179/253
f 259/169/253 266/179/253 268/171/253
f 258/173/254 260/170/254 267/172/254
f 258/173/254 267/172/254 265/178/254
f 262/180/255 261/175/255 266/179/255
f 262/180/255 266/179/255 265/178/255
f 264/181/256 262/180/256 265/178/256
f 264/181/256 265/178/256 267/172/256
f 263/174/257 264/181/257 267/172/257
f 263/174/257 267/172/257 268/171/257
f 261/175/258 263/174/258 268/171/258
f 261/175/258 268/171/258 266/179/258
f 269/182/259 270/183/259 278/184/259
f 269/182/259 278/184/259 277/185/259
f 262/180/260 264/181/260 275/186/260
f 262/180/260 275/186/260 273/187/260
f 264/181/261 263/174/261 276/177/261
f 264/181/261 276/177/261 275/186/261
f 261/175/262 262/180/262 273/187/262
f 261/175/262 273/187/262 274/176/262
f 270/183/263 269/182/263 274/176/263
f 270/183/263 274/176/263 273/187/263
f 272/188/264 270/183/264 273/187/264
f 272/188/264 273/187/264 275/186/264
f 271/189/265 272/188/265 275/186/265
f 271/189/265 275/186/265 276/177/265
f 269/182/266 271/189/266 276/177/266
f 269/182/266 276/177/266 274/176/266
f 278/184/267 280/190/267 279/191/267
f 278/184/267 279/191/267 277/185/267
f 271/189/268 269/182/268 277/185/268
f 271/189/268 277/185/268 279/191/268
f 270/183/269 272/188/269 280/190/269
f 270/183/269 280/190/269 278/184/269
f 272/188/270 271/189/270 279/191/270
f 272/188/270 279/191/270 280/190/270
f 281/156/271 283/159/271 284/158/271
f 281/156/271 284/158/271 282/157/271
f 283/159/272 287/161/272 288/160/272
f 283/159/272 288/160/272 284/158/272
f 287/161/273 285/163/273 286/162/273
f 287/161/273 286/162/273 288/160/273
f 285/163/274 281/156/274 282/157/274
f 285/163/274 282/157/274 286/162/274
f 283/159/275 290/165/275 292/164/275
f 283/159/275 292/164/275 287/161/275
f 288/160/276 286/162/276 282/157/276
f 288/160/276 282/157/276 284/158/276
f 291/166/277 295/169/277 293/168/277
f 291/166/277 293/168/277 289/167/277
f 281/156/278 289/167/278 290/165/278
f 281/156/278 290/165/278 283/159/278
f 287/161/279 292/164/279 291/166/279
f 287/161/279 291/166/279 285/163/279
f 285/163/280 291/166/280 289/167/280
f 285/163/280 289/167/280 281/156/280
f 296/170/281 303/172/281 304/171/281
f 296/170/281 304/171/281 295/169/281
f 290/165/282 294/173/282 296/170/282
f 290/165/282 296/170/282 292/164/282
f 292/164/283 296/170/283 295/169/283
f 292/164/283 295/169/283 291/166/283
f 289/167/284 293/168/284 294/173/284
f 289/167/284 294/173/284 290/165/284
f 299/174/285 312/177/285 310/176/285
f 299/174/285 310/176/285 297/175/285
f 293/168/286 302/179/286 301/178/286
f 293/168/286 301/178/286 294/173/286
f 295/169/287 304/171/287 302/179/287
f 295/169/287 302/179/287 293/168/287
f 294/173/288 301/178/288 303/172/288
f 294/173/288 303/172/288 296/170/288
f 298/180/289 301/178/289 302/179/289
f 298/180/289 302/179/289 297/175/289
f 300/181/290 303/172/290 301/178/290
f 300/181/290 301/178/290 298/180/290
f 299/174/291 304/171/291 303/172/291
f 299/174/291 303/172/291 300/181/291
f 297/175/292 302/179/292 304/171/292
f 297/175/292 304/171/292 299/174/292
f 305/182/293 313/185/293 314/184/293
f 305/182/293 314/184/293 306/183/293
f 298/180/294 309/187/294 311/186/294
f 298/180/294 311/186/294 300/181/294
f 300/181/295 311/186/295 312/177/295
f 300/181/295 312/177/295 299/174/295
f 297/175/296 310/176/296 309/187/296
f 297/175/296 309/187/296 298/180/296
f 306/183/297 309/187/297 310/176/297
f 306/183/297 310/176/297 305/182/297
f 308/188/298 311/186/298 309/187/298
f 308/188/298 309/187/298 306/183/298
f 307/189/299 312/177/299 311/186/299
f 307/189/299 311/186/299 308/188/299
f 305/182/300 310/176/300 312/177/300
f 305/182/300 312/177/300 307/189/300
f 314/184/301 313/185/301 315/191/301
f 314/184/301 315/191/301 316/190/301
f 307/189/302 315/191/302 313/185/302
f 307/189/302 313/185/302 305/182/302
f 306/183/303 314/184/303 316/190/303
f 306/183/303 316/190/303 308/188/303
f 308/188/304 316/190/304 315/191/304
f 308/188/304 315/191/304 307/189/304
f 317/192/305 318/193/305 320/194/305
f 317/192/305 320/194/305 319/195/305
f 319/195/306 320/194/306 324/194/306
f 319/195/306 324/194/306 323/195/306
f 323/195/307 324/194/307 322/193/307
f 323/195/307 322/193/307 321/192/307
f 321/192/308 322/193/308 318/193/308
f 321/192/308 318/193/308 317/192/308
f 319/195/309 323/195/309 328/196/309
f 319/195/309 328/196/309 326/196/309
f 324/194/310 320/194/310 318/193/310
f 324/194/310 318/193/310 322/193/310
f 327/197/311 325/197/311 334/198/311
f 327/197/311 334/198/311 336/198/311
f 317/192/312 319/195/312 326/196/312
f 317/192/312 326/196/312 325/197/312
f 323/195/313 321/192/313 327/197/313
f 323/195/313 327/197/313 328/196/313
f 321/192/314 317/192/314 325/197/314
f 321/192/314 325/197/314 327/197/314
f 331/199/315 329/199/315 342/200/315
f 331/199/315 342/200/315 344/200/315
f 326/196/316 328/196/316 335/201/316
f 326/196/316 335/201/316 333/201/316
f 328/196/317 327/197/317 336/198/317
f 328/196/317 336/198/317 335/201/317
f 325/197/318 326/196/318 333/201/318
f 325/197/318 333/201/318 334/198/318
f 330/202/319 329/199/319 334/198/319
f 330/202/319 334/198/319 333/201/319
f 332/202/319 330/202/319 333/201/319
f 332/202/319 333/201/319 335/201/319
f 331/199/319 332/202/319 335/201/319
f 331/199/319 335/201/319 336/198/319
f 329/199/319 331/199/319 336/198/319
f 329/199/319 336/198/319 334/198/319
f 339/203/320 337/203/320 345/204/320
f 339/203/320 345/204/320 347/204/320
f 330/202/321 332/202/321 343/205/321
f 330/202/321 343/205/321 341/205/321
f 332/202/322 331/199/322 344/200/322
f 332/202/322 344/200/322 343/205/322
f 329/199/323 330/202/323 341/205/323
f 329/199/323 341/205/323 342/200/323
f 338/206/324 337/203/324 342/200/324
f 338/206/324 342/200/324 341/205/324
f 340/206/324 338/206/324 341/205/324
f 340/206/324 341/205/324 343/205/324
f 339/203/324 340/206/324 343/205/324
f 339/203/324 343/205/324 344/200/324
f 337/203/324 339/203/324 344/200/324
f 337/203/324 344/200/324 342/200/324
f 346/207/324 348/207/324 347/204/324
f 346/207/324 347/204/324 345/204/324
f 338/206/325 340/206/325 348/207/325
f 338/206/325 348/207/325 346/207/325
f 340/206/326 339/203/326 347/204/326
f 340/206/326 347/204/326 348/207/326
f 337/203/327 338/206/327 346/207/327
f 337/203/327 346/207/327 345/204/327
f 349/192/328 351/195/328 352/194/328
f 349/192/328 352/194/328 350/193/328
f 351/195/306 355/195/306 356/194/306
f 351/195/306 356/194/306 352/194/306
f 355/195/329 353/192/329 354/193/329
f 355/195/329 354/193/329 356/194/329
f 353/192/308 349/192/308 350/193/308
f 353/192/308 350/193/308 354/193/308
f 351/195/309 358/196/309 360/196/309
f 351/195/309 360/196/309 355/195/309
f 356/194/310 354/193/310 350/193/310
f 356/194/310 350/193/310 352/194/310
f 359/197/311 368/198/311 366/198/311
f 359/197/311 366/198/311 357/197/311
f 349/192/330 357/197/330 358/196/330
f 349/192/330 358/196/330 351/195/330
f 355/195/331 360/196/331 359/197/331
f 355/195/331 359/197/331 353/192/331
f 353/192/314 359/197/314 357/197/314
f 353/192/314 357/197/314 349/192/314
f 363/199/315 376/200/315 374/200/315
f 363/199/315 374/200/315 361/199/315
f 358/196/316 365/201/316 367/201/316
f 358/196/316 367/201/316 360/196/316
f 360/196/332 367/201/332 368/198/332
f 360/196/332 368/198/332 359/197/332
f 357/197/333 366/198/333 365/201/333
f 357/197/333 365/201/333 358/196/333
f 362/202/319 365/201/319 366/198/319
f 362/202/319 366/198/319 361/199/319
f 364/202/319 367/201/319 365/201/319
f 364/202/319 365/201/319 362/202/319
f 363/199/319 368/198/319 367/201/319
f 363/199/319 367/201/319 364/202/319
f 361/199/319 366/198/319 368/198/319
f 361/199/319 368/198/319 363/199/319
f 371/203/320 379/204/320 377/204/320
f 371/203/320 377/204/320 369/203/320
f 362/202/321 373/205/321 375/205/321
f 362/202/321 375/205/321 364/202/321
f 364/202/334 375/205/334 376/200/334
f 364/202/334 376/200/334 363/199/334
f 361/199/335 374/200/335 373/205/335
f 361/199/335 373/205/335 362/202/335
f 370/206/324 373/205/324 374/200/324
f 370/206/324 374/200/324 369/203/324
f 372/206/324 375/205/324 373/205/324
f 372/206/324 373/205/324 370/206/324
f 371/203/324 376/200/324 375/205/324
f 371/203/324 375/205/324 372/206/324
f 369/203/324 374/200/324 376/200/324
f 369/203/324 376/200/324 371/203/324
f 378/207/324 377/204/324 379/204/324
f 378/207/324 379/204/324 380/207/324
f 370/206/325 378/207/325 380/207/325
f 370/206/325 380/207/325 372/206/325
f 372/206/336 380/207/336 379/204/336
f 372/206/336 379/204/336 371/203/336
f 369/203/337 377/204/337 378/207/337
f 369/203/337 378/207/337 370/206/337
f 381/208/338 382/209/338 384/210/338
f 381/208/338 384/210/338 383/211/338
f 383/211/339 384/210/339 388/210/339
f 383/211/339 388/210/339 387/211/339
f 387/211/340 388/210/340 386/209/340
f 387/211/340 386/209/340 385/208/340
f 385/208/341 386/209/341 382/209/341
f 385/208/341 382/209/341 381/208/341
f 387/211/342 385/208/342 396/212/342
f 387/211/342 396/212/342 395/213/342
f 388/210/343 384/210/343 382/209/343
f 388/210/343 382/209/343 386/209/343
f 391/214/344 389/214/344 397/215/344
f 391/214/344 397/215/344 399/215/344
f 385/208/345 381/208/345 394/212/345
f 385/208/345 394/212/345 396/212/345
f 383/211/346 387/211/346 395/213/346
f 383/211/346 395/213/346 393/213/346
f 381/208/347 383/211/347 393/213/347
f 381/208/347 393/213/347 394/212/347
f 390/216/348 389/214/348 394/212/348
f 390/216/348 394/212/348 393/213/348
f 392/216/349 390/216/349 393/213/349
f 392/216/349 393/213/349 395/213/349
f 391/214/350 392/216/350 395/213/350
f 391/214/350 395/213/350 396/212/350
f 389/214/351 391/214/351 396/212/351
f 389/214/351 396/212/351 394/212/351
f 400/217/352 399/215/352 403/218/352
f 400/217/352 403/218/352 404/219/352
f 390/216/353 392/216/353 400/217/353
f 390/216/353 400/217/353 398/217/353
f 392/216/354 391/214/354 399/215/354
f 392/216/354 399/215/354 400/217/354
f 389/214/355 390/216/355 398/217/355
f 389/214/355 398/217/355 397/215/355
f 401/218/356 402/219/356 409/220/356
f 401/218/356 409/220/356 410/221/356
f 397/215/357 398/217/357 402/219/357
f 397/215/357 402/219/357 401/218/357
f 399/215/358 397/215/358 401/218/358
f 399/215/358 401/218/358 403/218/358
f 398/217/359 400/217/359 404/219/359
f 398/217/359 404/219/359 402/219/359
f 405/222/360 406/223/360 414/224/360
f 405/222/360 414/224/360 413/225/360
f 403/218/361 401/218/361 410/221/361
f 403/218/361 410/221/361 412/221/361
f 402/219/362 404/219/362 411/220/362
f 402/219/362 411/220/362 409/220/362
f 404/219/363 403/218/363 412/221/363
f 404/219/363 412/221/363 411/220/363
f 406/223/364 405/222/364 410/221/364
f 406/223/364 410/221/364 409/220/364
f 408/223/365 406/223/365 409/220/365
f 408/223/365 409/220/365 411/220/365
f 407/222/366 408/223/366 411/220/366
f 407/222/366 411/220/366 412/221/366
f 405/222/367 407/222/367 412/221/367
f 405/222/367 412/221/367 410/221/367
f 414/224/368 416/224/368 415/225/368
f 414/224/368 415/225/368 413/225/368
f 407/222/369 405/222/369 413/225/369
f 407/222/369 413/225/369 415/225/369
f 406/223/370 408/223/370 416/224/370
f 406/223/370 416/224/370 414/224/370
f 408/223/371 407/222/371 415/225/371
f 408/223/371 415/225/371 416/224/371
f 417/208/372 419/211/372 420/210/372
f 417/208/372 420/210/372 418/209/372
f 419/211/373 423/211/373 424/210/373
f 419/211/373 424/210/373 420/210/373
f 423/211/374 421/208/374 422/209/374
f 423/211/374 422/209/374 424/210/374
f 421/208/375 417/208/375 418/209/375
f 421/208/375 418/209/375 422/209/375
f 423/211/376 431/213/376 432/212/376
f 423/211/376 432/212/376 421/208/376
f 424/210/377 422/209/377 418/209/377
f 424/210/377 418/209/377 420/210/377
f 427/214/378 435/215/378 433/215/378
f 427/214/378 433/215/378 425/214/378
f 421/208/379 432/212/379 430/212/379
f 421/208/379 430/212/379 417/208/379
f 419/211/380 429/213/380 431/213/380
f 419/211/380 431/213/380 423/211/380
f 417/208/381 430/212/381 429/213/381
f 417/208/381 429/213/381 419/211/381
f 426/216/382 429/213/382 430/212/382
f 426/216/382 430/212/382 425/214/382
f 428/216/383 431/213/383 429/213/383
f 428/216/383 429/213/383 426/216/383
f 427/214/384 432/212/384 431/213/384
f 427/214/384 431/213/384 428/216/384
f 425/214/385 430/212/385 432/212/385
f 425/214/385 432/212/385 427/214/385
f 436/217/386 440/219/386 439/218/386
f 436/217/386 439/218/386 435/215/386
f 426/216/353 434/217/353 436/217/353
f 426/216/353 436/217/353 428/216/353
f 428/216/387 436/217/387 435/215/387
f 428/216/387 435/215/387 427/214/387
f 425/214/388 433/215/388 434/217/388
f 425/214/388 434/217/388 426/216/388
f 437/218/389 446/221/389 445/220/389
f 437/218/389 445/220/389 438/219/389
f 433/215/390 437/218/390 438/219/390
f 433/215/390 438/219/390 434/217/390
f 435/215/391 439/218/391 437/218/391
f 435/215/391 437/218/391 433/215/391
f 434/217/359 438/219/359 440/219/359
f 434/217/359 440/219/359 436/217/359
f 441/222/392 449/225/392 450/224/392
f 441/222/392 450/224/392 442/223/392
f 439/218/393 448/221/393 446/221/393
f 439/218/393 446/221/393 437/218/393
f 438/219/362 445/220/362 447/220/362
f 438/219/362 447/220/362 440/219/362
f 440/219/394 447/220/394 448/221/394
f 440/219/394 448/221/394 439/218/394
f 442/223/395 445/220/395 446/221/395
f 442/223/395 446/221/395 441/222/395
f 444/223/396 447/220/396 445/220/396
f 444/223/396 445/220/396 442/223/396
f 443/222/397 448/221/397 447/220/397
f 443/222/397 447/220/397 444/223/397
f 441/222/398 446/221/398 448/221/398
f 441/222/398 448/221/398 443/222/398
f 450/224/399 449/225/399 451/225/399
f 450/224/399 451/225/399 452/224/399
f 443/222/400 451/225/400 449/225/400
f 443/222/400 449/225/400 441/222/400
f 442/223/370 450/224/370 452/224/370
f 442/223/370 452/224/370 444/223/370
f 444/223/401 452/224/401 451/225/401
f 444/223/401 451/225/401 443/222/401
f 461/226/402 460/227/402 456/228/402
f 461/226/402 456/228/402 458/229/402
f 464/230/403 461/226/403 458/229/403
f 464/230/403 458/229/403 462/231/403
f 463/232/404 457/233/404 461/226/404
f 463/232/404 461/226/404 464/230/404
f 457/233/405 454/234/405 460/227/405
f 457/233/405 460/227/405 461/226/405
f 453/235/406 463/232/406 464/230/406
f 453/235/406 464/230/406 459/236/406
f 459/236/407 464/230/407 462/231/407
f 459/236/407 462/231/407 455/237/407
f 473/226/408 470/229/408 468/228/408
f 473/226/408 468/228/408 472/227/408
f 476/230/409 474/231/409 470/229/409
f 476/230/409 470/229/409 473/226/409
f 475/232/410 476/230/410 473/226/410
f 475/232/410 473/226/410 469/233/410
f 469/233/411 473/226/411 472/227/411
f 469/233/411 472/227/411 466/234/411
f 465/235/412 471/236/412 476/230/412
f 465/235/412 476/230/412 475/232/412
f 471/236/413 467/237/413 474/231/413
f 471/236/413 474/231/413 476/230/413
l 66 67
l 67 68
l 35 67
