# Blender 4.5.5 LTS
# www.blender.org
mtllib Animal_Worm.mtl
o Worm.001
v 0.009087 0.029874 -0.552979
v 0.009005 0.035678 -0.545413
v 0.008893 0.039163 -0.535147
v 0.000000 0.038079 0.264557
v 0.000000 0.024731 0.320955
v 0.009117 0.019798 -0.555754
v -0.008926 0.027110 -0.552935
v -0.014101 0.031282 -0.545287
v -0.016202 0.033988 -0.534983
v -0.023581 0.032403 0.264524
v -0.017657 0.021200 0.320830
v -0.000000 -0.000110 0.349496
v -0.012337 0.020329 -0.552390
v -0.019437 0.020581 -0.544433
v -0.022364 0.021427 -0.533993
v -0.029289 0.018511 0.264453
v -0.021191 0.012675 0.320529
v -0.008938 0.013551 -0.551772
v -0.014121 0.009882 -0.543464
v -0.016225 0.008853 -0.532869
v -0.023578 0.004589 0.264391
v -0.017657 0.004150 0.320227
v 0.009070 0.010816 -0.551336
v 0.008977 0.005510 -0.542836
v 0.008861 0.003691 -0.532160
v 0.000013 0.000734 0.264358
v 0.000000 0.000438 0.320345
v 0.008610 0.045412 -0.509022
v -0.016727 0.038964 -0.509258
v -0.023703 0.023197 -0.509235
v -0.016728 0.007439 -0.509061
v 0.008607 0.000949 -0.508746
v 0.008415 0.045942 -0.491058
v -0.016651 0.039349 -0.491299
v -0.023604 0.023320 -0.491299
v -0.016652 0.007284 -0.491147
v 0.008413 0.000659 -0.490844
v 0.008174 0.047834 -0.468875
v -0.017116 0.040952 -0.469162
v -0.024578 0.024380 -0.469239
v -0.017116 0.007809 -0.469146
v 0.008174 0.000952 -0.468866
v 0.007831 0.051472 -0.437113
v -0.017730 0.044257 -0.437454
v -0.025702 0.026754 -0.437656
v -0.017729 0.009248 -0.437674
v 0.007832 0.002000 -0.437438
v 0.007543 0.051936 -0.410203
v -0.018297 0.044066 -0.410604
v -0.026792 0.028399 -0.411054
v -0.018296 0.009388 -0.411423
v 0.007545 0.001509 -0.411338
v 0.006935 0.053887 -0.354534
v -0.019318 0.045151 -0.354904
v -0.028444 0.030959 -0.355102
v -0.019318 0.010084 -0.355120
v 0.006936 0.001440 -0.354880
v 0.006498 0.054759 -0.314203
v -0.020005 0.045678 -0.314591
v -0.029490 0.030665 -0.314805
v -0.020005 0.010980 -0.314816
v 0.006498 0.002014 -0.314577
v 0.005863 0.056344 -0.254965
v -0.021247 0.046332 -0.255880
v -0.031538 0.034055 -0.257189
v -0.021230 0.011756 -0.258645
v 0.005887 0.001660 -0.259030
v 0.004935 0.058881 -0.169444
v -0.022579 0.048200 -0.170212
v -0.033408 0.033916 -0.171125
v -0.022571 0.010191 -0.172243
v 0.004947 -0.000499 -0.172495
v 0.004230 0.056592 -0.104820
v -0.023139 0.046169 -0.105286
v -0.033795 0.032394 -0.105625
v -0.023141 0.009169 -0.105987
v 0.004228 -0.001343 -0.105912
v 0.003800 0.057032 -0.065598
v -0.023782 0.046251 -0.065896
v -0.034708 0.032166 -0.066076
v -0.023784 0.008645 -0.066195
v 0.003797 -0.001966 -0.065990
v 0.003523 0.057497 -0.040698
v -0.023920 0.046702 -0.040835
v -0.034665 0.032631 -0.040520
v -0.023925 0.009138 -0.039774
v 0.003514 -0.001448 -0.039215
v 0.002492 0.064325 0.054531
v -0.025455 0.051440 0.054344
v -0.036859 0.039598 0.054488
v -0.025460 0.010664 0.054876
v 0.002485 -0.002315 0.055290
v 0.001412 0.063800 0.154374
v -0.025092 0.051473 0.153993
v -0.040160 0.032740 0.153723
v -0.025093 0.010598 0.153760
v 0.001410 -0.001838 0.153789
v 0.000857 0.057197 0.199430
v -0.024909 0.047570 0.199032
v -0.033484 0.031154 0.198719
v -0.024913 0.007729 0.198458
v 0.000857 -0.001966 0.198557
v 0.027095 0.027116 -0.552544
v 0.032103 0.031289 -0.544785
v 0.033980 0.033996 -0.534438
v 0.023596 0.032403 0.264541
v 0.017657 0.021200 0.320830
v 0.030494 0.020336 -0.551926
v 0.037419 0.020591 -0.543816
v 0.040119 0.021438 -0.533315
v 0.029310 0.018510 0.264484
v 0.021191 0.012675 0.320529
v 0.027083 0.013557 -0.551381
v 0.032083 0.009890 -0.542962
v 0.033957 0.008861 -0.532324
v 0.023600 0.004588 0.264418
v 0.017657 0.004150 0.320227
v 0.033946 0.038973 -0.508708
v 0.040920 0.023207 -0.508533
v 0.033944 0.007447 -0.508511
v 0.033480 0.039357 -0.490755
v 0.040432 0.023331 -0.490604
v 0.033479 0.007293 -0.490603
v 0.033465 0.040960 -0.468613
v 0.040926 0.024391 -0.468528
v 0.033465 0.007817 -0.468597
v 0.033393 0.044262 -0.436900
v 0.041365 0.026762 -0.436928
v 0.033394 0.009254 -0.437119
v 0.033384 0.044063 -0.410043
v 0.041880 0.028395 -0.410309
v 0.033385 0.009385 -0.410862
v 0.033188 0.045157 -0.354334
v 0.042314 0.030967 -0.354334
v 0.033189 0.010090 -0.354550
v 0.033001 0.045683 -0.314016
v 0.042485 0.030672 -0.314024
v 0.033001 0.010986 -0.314241
v 0.032981 0.046320 -0.255292
v 0.043288 0.034039 -0.256378
v 0.032998 0.011743 -0.258057
v 0.032453 0.048189 -0.169615
v 0.043291 0.033898 -0.170293
v 0.032462 0.010178 -0.171646
v 0.031599 0.046164 -0.104692
v 0.042252 0.032386 -0.104800
v 0.031597 0.009164 -0.105393
v 0.031381 0.046253 -0.065297
v 0.042305 0.032167 -0.065240
v 0.031379 0.008645 -0.065596
v 0.030963 0.046718 -0.040240
v 0.041702 0.032655 -0.039692
v 0.030957 0.009155 -0.039179
v 0.030436 0.051445 0.054951
v 0.041836 0.039605 0.055342
v 0.030431 0.010668 0.055483
v 0.027916 0.051471 0.154568
v 0.042983 0.032741 0.154626
v 0.027914 0.010595 0.154335
v 0.026651 0.047562 0.199559
v 0.035224 0.031143 0.199421
v 0.026647 0.007721 0.198983
vn 0.0086 0.5921 -0.8059
vn 0.0047 0.8967 -0.4426
vn 0.0026 0.9661 -0.2581
vn -0.0020 0.9703 0.2419
vn -0.0000 0.8965 0.4431
vn 0.0108 -0.0944 -0.9955
vn -0.3308 0.4334 -0.8383
vn -0.5529 0.6793 -0.4826
vn -0.6196 0.7472 -0.2403
vn -0.6477 0.7330 0.2078
vn -0.5851 0.6787 0.4439
vn -0.0000 -0.3630 0.9318
vn -0.5468 -0.0630 -0.8349
vn -0.8890 -0.0403 -0.4561
vn -0.9861 -0.0105 -0.1656
vn -0.9948 0.0047 0.1015
vn -0.9321 0.0030 0.3621
vn -0.3255 -0.5432 -0.7740
vn -0.5439 -0.7461 -0.3841
vn -0.6226 -0.7716 -0.1302
vn -0.6554 -0.7548 0.0268
vn -0.6541 -0.7345 0.1805
vn 0.0079 -0.6975 -0.7165
vn 0.0037 -0.9461 -0.3238
vn 0.0014 -0.9929 -0.1188
vn -0.0011 -1.0000 0.0022
vn -0.0000 -1.0000 -0.0079
vn 0.0011 0.9931 -0.1170
vn -0.6291 0.7719 -0.0913
vn -0.9994 0.0074 -0.0327
vn -0.6377 -0.7694 -0.0359
vn 0.0007 -0.9988 -0.0494
vn 0.0004 0.9986 -0.0520
vn -0.6501 0.7585 -0.0448
vn -0.9998 -0.0054 -0.0179
vn -0.6454 -0.7638 -0.0028
vn 0.0001 -1.0000 0.0034
vn 0.0009 0.9955 -0.0951
vn -0.6501 0.7552 -0.0842
vn -0.9994 -0.0039 -0.0356
vn -0.6492 -0.7606 0.0090
vn -0.0002 -0.9996 0.0277
vn 0.0005 0.9983 -0.0577
vn -0.6374 0.7682 -0.0604
vn -0.9994 0.0107 -0.0327
vn -0.6563 -0.7545 0.0021
vn -0.0001 -0.9999 0.0151
vn 0.0002 0.9998 -0.0175
vn -0.6337 0.7729 -0.0316
vn -0.9988 0.0403 -0.0284
vn -0.6621 -0.7494 -0.0096
vn -0.0000 -1.0000 -0.0020
vn 0.0002 0.9997 -0.0234
vn -0.6192 0.7847 -0.0288
vn -0.9972 0.0713 -0.0238
vn -0.6673 -0.7448 -0.0034
vn -0.0001 -0.9999 0.0108
vn 0.0002 0.9998 -0.0196
vn -0.6068 0.7944 -0.0282
vn -0.9972 0.0707 -0.0255
vn -0.6699 -0.7424 -0.0044
vn -0.0001 -1.0000 0.0095
vn 0.0004 0.9997 -0.0237
vn -0.5936 0.8042 -0.0299
vn -0.9928 0.1166 -0.0286
vn -0.6797 -0.7333 -0.0158
vn -0.0001 -0.9999 -0.0102
vn 0.0001 1.0000 0.0038
vn -0.5923 0.8057 -0.0028
vn -0.9927 0.1200 -0.0135
vn -0.6846 -0.7286 -0.0208
vn -0.0000 -0.9998 -0.0180
vn -0.0000 0.9999 0.0130
vn -0.5991 0.8006 0.0033
vn -0.9939 0.1101 -0.0118
vn -0.6838 -0.7294 -0.0192
vn -0.0000 -0.9999 -0.0145
vn 0.0001 0.9999 -0.0126
vn -0.6000 0.7999 -0.0151
vn -0.9941 0.1082 -0.0124
vn -0.6827 -0.7307 -0.0052
vn -0.0000 -1.0000 0.0023
vn 0.0002 0.9992 -0.0396
vn -0.5967 0.8016 -0.0383
vn -0.9922 0.1235 -0.0178
vn -0.6957 -0.7183 0.0049
vn 0.0001 -0.9999 0.0113
vn 0.0002 0.9996 -0.0280
vn -0.5960 0.8025 -0.0267
vn -0.9870 0.1595 -0.0217
vn -0.7020 -0.7121 -0.0085
vn -0.0000 -1.0000 0.0039
vn -0.0005 0.9981 0.0620
vn -0.6143 0.7872 0.0551
vn -0.9963 0.0789 0.0352
vn -0.6888 -0.7249 -0.0037
vn 0.0002 -0.9999 -0.0123
vn -0.0015 0.9822 0.1877
vn -0.6314 0.7600 0.1538
vn -0.9948 0.0646 0.0782
vn -0.6766 -0.7364 0.0012
vn -0.0001 -0.9999 -0.0142
vn 0.3488 0.4335 -0.8309
vn 0.5631 0.6793 -0.4705
vn 0.6245 0.7473 -0.2268
vn 0.6436 0.7337 0.2180
vn 0.5849 0.6788 0.4440
vn 0.5648 -0.0630 -0.8228
vn 0.8987 -0.0402 -0.4367
vn 0.9895 -0.0104 -0.1442
vn 0.9933 0.0043 0.1152
vn 0.9320 0.0031 0.3623
vn 0.3424 -0.5431 -0.7667
vn 0.5522 -0.7460 -0.3722
vn 0.6255 -0.7715 -0.1166
vn 0.6529 -0.7566 0.0356
vn 0.6540 -0.7346 0.1807
vn 0.6308 0.7721 -0.0777
vn 0.9999 0.0075 -0.0110
vn 0.6385 -0.7693 -0.0221
vn 0.6508 0.7586 -0.0307
vn 1.0000 -0.0053 0.0038
vn 0.6455 -0.7637 0.0112
vn 0.6517 0.7553 -0.0701
vn 0.9999 -0.0038 -0.0139
vn 0.6490 -0.7605 0.0231
vn 0.6385 0.7682 -0.0465
vn 0.9999 0.0107 -0.0110
vn 0.6561 -0.7545 0.0163
vn 0.6344 0.7728 -0.0178
vn 0.9992 0.0400 -0.0067
vn 0.6620 -0.7495 0.0048
vn 0.6196 0.7848 -0.0153
vn 0.9975 0.0712 -0.0021
vn 0.6672 -0.7448 0.0111
vn 0.6073 0.7943 -0.0150
vn 0.9975 0.0705 -0.0039
vn 0.6698 -0.7425 0.0101
vn 0.5944 0.8040 -0.0170
vn 0.9932 0.1160 -0.0071
vn 0.6795 -0.7336 -0.0011
vn 0.5926 0.8054 0.0100
vn 0.9928 0.1194 0.0081
vn 0.6845 -0.7290 -0.0060
vn 0.5992 0.8004 0.0163
vn 0.9939 0.1096 0.0098
vn 0.6838 -0.7296 -0.0043
vn 0.6002 0.7999 -0.0021
vn 0.9941 0.1080 0.0092
vn 0.6826 -0.7308 0.0097
vn 0.5971 0.8018 -0.0254
vn 0.9923 0.1239 0.0038
vn 0.6957 -0.7181 0.0201
vn 0.5963 0.8026 -0.0137
vn 0.9872 0.1596 -0.0003
vn 0.7022 -0.7120 0.0067
vn 0.6131 0.7870 0.0692
vn 0.9952 0.0788 0.0580
vn 0.6888 -0.7249 0.0121
vn 0.6285 0.7590 0.1699
vn 0.9925 0.0642 0.1036
vn 0.6763 -0.7364 0.0183
vt 0.854091 0.819863
vt 0.853563 0.818842
vt 0.853795 0.818706
vt 0.854342 0.819692
vt 0.853437 0.818385
vt 0.853490 0.817949
vt 0.853618 0.817874
vt 0.853638 0.818268
vt 0.884534 0.833364
vt 0.884457 0.830852
vt 0.884706 0.830857
vt 0.884688 0.833350
vt 0.853858 0.817549
vt 0.885265 0.834577
vt 0.853927 0.817693
vt 0.854121 0.817984
vt 0.885307 0.830869
vt 0.885058 0.833316
vt 0.854353 0.818378
vt 0.854947 0.819280
vt 0.885907 0.830881
vt 0.885428 0.833283
vt 0.854604 0.817700
vt 0.854911 0.818051
vt 0.854236 0.817511
vt 0.855552 0.818868
vt 0.854805 0.817583
vt 0.855142 0.817915
vt 0.854364 0.817436
vt 0.855803 0.818697
vt 0.855997 0.819370
vt 0.856210 0.819156
vt 0.855484 0.819889
vt 0.854971 0.820408
vt 0.854758 0.820623
vt 0.855715 0.821415
vt 0.855887 0.821158
vt 0.856300 0.820537
vt 0.856713 0.819915
vt 0.856885 0.819658
vt 0.857987 0.820464
vt 0.858098 0.820157
vt 0.857722 0.821207
vt 0.857456 0.821950
vt 0.857346 0.822257
vt 0.859043 0.822787
vt 0.859080 0.822434
vt 0.859170 0.821581
vt 0.859259 0.820729
vt 0.859297 0.820376
vt 0.861856 0.820782
vt 0.861843 0.820393
vt 0.861887 0.821722
vt 0.861917 0.822663
vt 0.861930 0.823052
vt 0.864592 0.822549
vt 0.864486 0.822160
vt 0.864232 0.821220
vt 0.863977 0.820281
vt 0.863872 0.819892
vt 0.866605 0.818764
vt 0.866394 0.818376
vt 0.867115 0.819701
vt 0.867625 0.820637
vt 0.867836 0.821025
vt 0.870911 0.818848
vt 0.870696 0.818434
vt 0.870174 0.817437
vt 0.869653 0.816439
vt 0.869437 0.816025
vt 0.872700 0.815142
vt 0.872635 0.814683
vt 0.872855 0.816251
vt 0.873011 0.817359
vt 0.873075 0.817818
vt 0.875572 0.818020
vt 0.875644 0.817563
vt 0.875816 0.816459
vt 0.875988 0.815356
vt 0.876060 0.814899
vt 0.878488 0.816832
vt 0.878730 0.816442
vt 0.877904 0.817773
vt 0.877320 0.818715
vt 0.877078 0.819105
vt 0.879749 0.823199
vt 0.880079 0.822841
vt 0.880876 0.821976
vt 0.881672 0.821111
vt 0.882002 0.820753
vt 0.884882 0.824779
vt 0.885306 0.824437
vt 0.883858 0.825604
vt 0.882835 0.826429
vt 0.882411 0.826771
vt 0.883847 0.828216
vt 0.884188 0.828093
vt 0.885011 0.827796
vt 0.885834 0.827499
vt 0.886175 0.827376
vt 0.886072 0.830883
vt 0.885590 0.833279
s 1
usemtl Material.001
f 28/1/28 3/2/3 9/3/9
f 28/1/28 9/3/9 29/4/29
f 2/5/2 1/6/1 7/7/7
f 2/5/2 7/7/7 8/8/8
f 5/9/5 4/10/4 10/11/10
f 5/9/5 10/11/10 11/12/11
f 3/2/3 2/5/2 8/8/8
f 3/2/3 8/8/8 9/3/9
f 1/6/1 6/13/6 7/7/7
f 12/14/12 5/9/5 11/12/11
f 8/8/8 7/7/7 13/15/13
f 8/8/8 13/15/13 14/16/14
f 11/12/11 10/11/10 16/17/16
f 11/12/11 16/17/16 17/18/17
f 9/3/9 8/8/8 14/16/14
f 9/3/9 14/16/14 15/19/15
f 7/7/7 6/13/6 13/15/13
f 12/14/12 11/12/11 17/18/17
f 29/4/29 9/3/9 15/19/15
f 29/4/29 15/19/15 30/20/30
f 17/18/17 16/17/16 21/21/21
f 17/18/17 21/21/21 22/22/22
f 15/19/15 14/16/14 19/23/19
f 15/19/15 19/23/19 20/24/20
f 13/15/13 6/13/6 18/25/18
f 12/14/12 17/18/17 22/22/22
f 30/20/30 15/19/15 20/24/20
f 30/20/30 20/24/20 31/26/31
f 14/16/14 13/15/13 18/25/18
f 14/16/14 18/25/18 19/23/19
f 20/24/20 19/23/19 24/27/24
f 20/24/20 24/27/24 25/28/25
f 18/25/18 6/13/6 23/29/23
f 31/26/31 20/24/20 25/28/25
f 31/26/31 25/28/25 32/30/32
f 19/23/19 18/25/18 23/29/23
f 19/23/19 23/29/23 24/27/24
f 36/31/36 31/26/31 32/30/32
f 36/31/36 32/30/32 37/32/37
f 35/33/35 30/20/30 31/26/31
f 35/33/35 31/26/31 36/31/36
f 34/34/34 29/4/29 30/20/30
f 34/34/34 30/20/30 35/33/35
f 33/35/33 28/1/28 29/4/29
f 33/35/33 29/4/29 34/34/34
f 38/36/38 33/35/33 34/34/34
f 38/36/38 34/34/34 39/37/39
f 39/37/39 34/34/34 35/33/35
f 39/37/39 35/33/35 40/38/40
f 40/38/40 35/33/35 36/31/36
f 40/38/40 36/31/36 41/39/41
f 41/39/41 36/31/36 37/32/37
f 41/39/41 37/32/37 42/40/42
f 46/41/46 41/39/41 42/40/42
f 46/41/46 42/40/42 47/42/47
f 45/43/45 40/38/40 41/39/41
f 45/43/45 41/39/41 46/41/46
f 44/44/44 39/37/39 40/38/40
f 44/44/44 40/38/40 45/43/45
f 43/45/43 38/36/38 39/37/39
f 43/45/43 39/37/39 44/44/44
f 48/46/48 43/45/43 44/44/44
f 48/46/48 44/44/44 49/47/49
f 49/47/49 44/44/44 45/43/45
f 49/47/49 45/43/45 50/48/50
f 50/48/50 45/43/45 46/41/46
f 50/48/50 46/41/46 51/49/51
f 51/49/51 46/41/46 47/42/47
f 51/49/51 47/42/47 52/50/52
f 56/51/56 51/49/51 52/50/52
f 56/51/56 52/50/52 57/52/57
f 55/53/55 50/48/50 51/49/51
f 55/53/55 51/49/51 56/51/56
f 54/54/54 49/47/49 50/48/50
f 54/54/54 50/48/50 55/53/55
f 53/55/53 48/46/48 49/47/49
f 53/55/53 49/47/49 54/54/54
f 58/56/58 53/55/53 54/54/54
f 58/56/58 54/54/54 59/57/59
f 59/57/59 54/54/54 55/53/55
f 59/57/59 55/53/55 60/58/60
f 60/58/60 55/53/55 56/51/56
f 60/58/60 56/51/56 61/59/61
f 61/59/61 56/51/56 57/52/57
f 61/59/61 57/52/57 62/60/62
f 66/61/66 61/59/61 62/60/62
f 66/61/66 62/60/62 67/62/67
f 65/63/65 60/58/60 61/59/61
f 65/63/65 61/59/61 66/61/66
f 64/64/64 59/57/59 60/58/60
f 64/64/64 60/58/60 65/63/65
f 63/65/63 58/56/58 59/57/59
f 63/65/63 59/57/59 64/64/64
f 68/66/68 63/65/63 64/64/64
f 68/66/68 64/64/64 69/67/69
f 69/67/69 64/64/64 65/63/65
f 69/67/69 65/63/65 70/68/70
f 70/68/70 65/63/65 66/61/66
f 70/68/70 66/61/66 71/69/71
f 71/69/71 66/61/66 67/62/67
f 71/69/71 67/62/67 72/70/72
f 76/71/76 71/69/71 72/70/72
f 76/71/76 72/70/72 77/72/77
f 75/73/75 70/68/70 71/69/71
f 75/73/75 71/69/71 76/71/76
f 74/74/74 69/67/69 70/68/70
f 74/74/74 70/68/70 75/73/75
f 73/75/73 68/66/68 69/67/69
f 73/75/73 69/67/69 74/74/74
f 78/76/78 73/75/73 74/74/74
f 78/76/78 74/74/74 79/77/79
f 79/77/79 74/74/74 75/73/75
f 79/77/79 75/73/75 80/78/80
f 80/78/80 75/73/75 76/71/76
f 80/78/80 76/71/76 81/79/81
f 81/79/81 76/71/76 77/72/77
f 81/79/81 77/72/77 82/80/82
f 86/81/86 81/79/81 82/80/82
f 86/81/86 82/80/82 87/82/87
f 85/83/85 80/78/80 81/79/81
f 85/83/85 81/79/81 86/81/86
f 84/84/84 79/77/79 80/78/80
f 84/84/84 80/78/80 85/83/85
f 83/85/83 78/76/78 79/77/79
f 83/85/83 79/77/79 84/84/84
f 88/86/88 83/85/83 84/84/84
f 88/86/88 84/84/84 89/87/89
f 89/87/89 84/84/84 85/83/85
f 89/87/89 85/83/85 90/88/90
f 90/88/90 85/83/85 86/81/86
f 90/88/90 86/81/86 91/89/91
f 91/89/91 86/81/86 87/82/87
f 91/89/91 87/82/87 92/90/92
f 96/91/96 91/89/91 92/90/92
f 96/91/96 92/90/92 97/92/97
f 95/93/95 90/88/90 91/89/91
f 95/93/95 91/89/91 96/91/96
f 94/94/94 89/87/89 90/88/90
f 94/94/94 90/88/90 95/93/95
f 93/95/93 88/86/88 89/87/89
f 93/95/93 89/87/89 94/94/94
f 98/96/98 93/95/93 94/94/94
f 98/96/98 94/94/94 99/97/99
f 99/97/99 94/94/94 95/93/95
f 99/97/99 95/93/95 100/98/100
f 100/98/100 95/93/95 96/91/96
f 100/98/100 96/91/96 101/99/101
f 101/99/101 96/91/96 97/92/97
f 101/99/101 97/92/97 102/100/102
f 16/17/16 100/98/100 101/99/101
f 16/17/16 101/99/101 21/21/21
f 10/11/10 99/97/99 100/98/100
f 10/11/10 100/98/100 16/17/16
f 4/10/4 98/96/98 99/97/99
f 4/10/4 99/97/99 10/11/10
f 101/99/101 102/100/102 26/101/26
f 101/99/101 26/101/26 21/21/21
f 22/22/22 27/102/27 12/14/12
f 21/21/21 26/101/26 27/102/27
f 21/21/21 27/102/27 22/22/22
f 28/1/28 118/4/118 105/3/105
f 28/1/28 105/3/105 3/2/3
f 2/5/2 104/8/104 103/7/103
f 2/5/2 103/7/103 1/6/1
f 5/9/5 107/12/107 106/11/106
f 5/9/5 106/11/106 4/10/4
f 3/2/3 105/3/105 104/8/104
f 3/2/3 104/8/104 2/5/2
f 1/6/1 103/7/103 6/13/6
f 12/14/12 107/12/107 5/9/5
f 104/8/104 109/16/109 108/15/108
f 104/8/104 108/15/108 103/7/103
f 107/12/107 112/18/112 111/17/111
f 107/12/107 111/17/111 106/11/106
f 105/3/105 110/19/110 109/16/109
f 105/3/105 109/16/109 104/8/104
f 103/7/103 108/15/108 6/13/6
f 12/14/12 112/18/112 107/12/107
f 118/4/118 119/20/119 110/19/110
f 118/4/118 110/19/110 105/3/105
f 112/18/112 117/22/117 116/21/116
f 112/18/112 116/21/116 111/17/111
f 110/19/110 115/24/115 114/23/114
f 110/19/110 114/23/114 109/16/109
f 108/15/108 113/25/113 6/13/6
f 12/14/12 117/22/117 112/18/112
f 119/20/119 120/26/120 115/24/115
f 119/20/119 115/24/115 110/19/110
f 109/16/109 114/23/114 113/25/113
f 109/16/109 113/25/113 108/15/108
f 115/24/115 25/28/25 24/27/24
f 115/24/115 24/27/24 114/23/114
f 113/25/113 23/29/23 6/13/6
f 120/26/120 32/30/32 25/28/25
f 120/26/120 25/28/25 115/24/115
f 114/23/114 24/27/24 23/29/23
f 114/23/114 23/29/23 113/25/113
f 123/31/123 37/32/37 32/30/32
f 123/31/123 32/30/32 120/26/120
f 122/33/122 123/31/123 120/26/120
f 122/33/122 120/26/120 119/20/119
f 121/34/121 122/33/122 119/20/119
f 121/34/121 119/20/119 118/4/118
f 33/35/33 121/34/121 118/4/118
f 33/35/33 118/4/118 28/1/28
f 38/36/38 124/37/124 121/34/121
f 38/36/38 121/34/121 33/35/33
f 124/37/124 125/38/125 122/33/122
f 124/37/124 122/33/122 121/34/121
f 125/38/125 126/39/126 123/31/123
f 125/38/125 123/31/123 122/33/122
f 126/39/126 42/40/42 37/32/37
f 126/39/126 37/32/37 123/31/123
f 129/41/129 47/42/47 42/40/42
f 129/41/129 42/40/42 126/39/126
f 128/43/128 129/41/129 126/39/126
f 128/43/128 126/39/126 125/38/125
f 127/44/127 128/43/128 125/38/125
f 127/44/127 125/38/125 124/37/124
f 43/45/43 127/44/127 124/37/124
f 43/45/43 124/37/124 38/36/38
f 48/46/48 130/47/130 127/44/127
f 48/46/48 127/44/127 43/45/43
f 130/47/130 131/48/131 128/43/128
f 130/47/130 128/43/128 127/44/127
f 131/48/131 132/49/132 129/41/129
f 131/48/131 129/41/129 128/43/128
f 132/49/132 52/50/52 47/42/47
f 132/49/132 47/42/47 129/41/129
f 135/51/135 57/52/57 52/50/52
f 135/51/135 52/50/52 132/49/132
f 134/53/134 135/51/135 132/49/132
f 134/53/134 132/49/132 131/48/131
f 133/54/133 134/53/134 131/48/131
f 133/54/133 131/48/131 130/47/130
f 53/55/53 133/54/133 130/47/130
f 53/55/53 130/47/130 48/46/48
f 58/56/58 136/57/136 133/54/133
f 58/56/58 133/54/133 53/55/53
f 136/57/136 137/58/137 134/53/134
f 136/57/136 134/53/134 133/54/133
f 137/58/137 138/59/138 135/51/135
f 137/58/137 135/51/135 134/53/134
f 138/59/138 62/60/62 57/52/57
f 138/59/138 57/52/57 135/51/135
f 141/61/141 67/62/67 62/60/62
f 141/61/141 62/60/62 138/59/138
f 140/63/140 141/61/141 138/59/138
f 140/63/140 138/59/138 137/58/137
f 139/64/139 140/63/140 137/58/137
f 139/64/139 137/58/137 136/57/136
f 63/65/63 139/64/139 136/57/136
f 63/65/63 136/57/136 58/56/58
f 68/66/68 142/67/142 139/64/139
f 68/66/68 139/64/139 63/65/63
f 142/67/142 143/68/143 140/63/140
f 142/67/142 140/63/140 139/64/139
f 143/68/143 144/69/144 141/61/141
f 143/68/143 141/61/141 140/63/140
f 144/69/144 72/70/72 67/62/67
f 144/69/144 67/62/67 141/61/141
f 147/71/147 77/72/77 72/70/72
f 147/71/147 72/70/72 144/69/144
f 146/73/146 147/71/147 144/69/144
f 146/73/146 144/69/144 143/68/143
f 145/74/145 146/73/146 143/68/143
f 145/74/145 143/68/143 142/67/142
f 73/75/73 145/74/145 142/67/142
f 73/75/73 142/67/142 68/66/68
f 78/76/78 148/77/148 145/74/145
f 78/76/78 145/74/145 73/75/73
f 148/77/148 149/78/149 146/73/146
f 148/77/148 146/73/146 145/74/145
f 149/78/149 150/79/150 147/71/147
f 149/78/149 147/71/147 146/73/146
f 150/79/150 82/80/82 77/72/77
f 150/79/150 77/72/77 147/71/147
f 153/81/153 87/82/87 82/80/82
f 153/81/153 82/80/82 150/79/150
f 152/83/152 153/81/153 150/79/150
f 152/83/152 150/79/150 149/78/149
f 151/84/151 152/83/152 149/78/149
f 151/84/151 149/78/149 148/77/148
f 83/85/83 151/84/151 148/77/148
f 83/85/83 148/77/148 78/76/78
f 88/86/88 154/87/154 151/84/151
f 88/86/88 151/84/151 83/85/83
f 154/87/154 155/88/155 152/83/152
f 154/87/154 152/83/152 151/84/151
f 155/88/155 156/89/156 153/81/153
f 155/88/155 153/81/153 152/83/152
f 156/89/156 92/90/92 87/82/87
f 156/89/156 87/82/87 153/81/153
f 159/91/159 97/92/97 92/90/92
f 159/91/159 92/90/92 156/89/156
f 158/93/158 159/91/159 156/89/156
f 158/93/158 156/89/156 155/88/155
f 157/94/157 158/93/158 155/88/155
f 157/94/157 155/88/155 154/87/154
f 93/95/93 157/94/157 154/87/154
f 93/95/93 154/87/154 88/86/88
f 98/96/98 160/97/160 157/94/157
f 98/96/98 157/94/157 93/95/93
f 160/97/160 161/98/161 158/93/158
f 160/97/160 158/93/158 157/94/157
f 161/98/161 162/99/162 159/91/159
f 161/98/161 159/91/159 158/93/158
f 162/99/162 102/100/102 97/92/97
f 162/99/162 97/92/97 159/91/159
f 111/17/111 116/21/116 162/99/162
f 111/17/111 162/99/162 161/98/161
f 106/11/106 111/17/111 161/98/161
f 106/11/106 161/98/161 160/97/160
f 4/10/4 106/11/106 160/97/160
f 4/10/4 160/97/160 98/96/98
f 162/99/162 116/21/116 26/101/26
f 162/99/162 26/101/26 102/100/102
f 117/22/117 12/14/12 27/102/27
f 116/21/116 117/22/117 27/102/27
f 116/21/116 27/102/27 26/101/26
