# Blender 4.5.5 LTS
# www.blender.org
o Eggs.006
v 0.024830 0.051901 0.002652
v 0.027395 0.048370 0.002652
v 0.029470 0.059795 -0.000943
v 0.028187 0.056265 -0.003164
v 0.028187 0.051901 -0.003164
v 0.029470 0.048370 -0.000943
v 0.033620 0.059795 -0.000943
v 0.034902 0.056265 -0.003164
v 0.034902 0.051901 -0.003164
v 0.033620 0.048370 -0.000943
v 0.035695 0.059795 0.002652
v 0.038260 0.056265 0.002652
v 0.038260 0.051901 0.002652
v 0.035695 0.048370 0.002652
v 0.031545 0.047022 0.002652
v 0.031545 0.061144 0.002652
v 0.033620 0.059795 0.006246
v 0.034902 0.056265 0.008467
v 0.034902 0.051901 0.008467
v 0.033620 0.048370 0.006246
v 0.029470 0.059795 0.006246
v 0.028187 0.056265 0.008467
v 0.028187 0.051901 0.008467
v 0.029470 0.048370 0.006246
v 0.027395 0.059795 0.002652
v 0.024830 0.056265 0.002652
v -0.016824 0.045987 -0.001205
v -0.014259 0.042457 -0.001205
v -0.012184 0.053881 -0.004799
v -0.013466 0.050351 -0.007021
v -0.013466 0.045987 -0.007021
v -0.012184 0.042457 -0.004799
v -0.008034 0.053881 -0.004799
v -0.006751 0.050351 -0.007021
v -0.006751 0.045987 -0.007021
v -0.008034 0.042457 -0.004799
v -0.005958 0.053881 -0.001205
v -0.003393 0.050351 -0.001205
v -0.003393 0.045987 -0.001205
v -0.005958 0.042457 -0.001205
v -0.010109 0.041108 -0.001205
v -0.010109 0.055230 -0.001205
v -0.008034 0.053881 0.002389
v -0.006751 0.050351 0.004611
v -0.006751 0.045987 0.004611
v -0.008034 0.042457 0.002389
v -0.012184 0.053881 0.002389
v -0.013466 0.050351 0.004611
v -0.013466 0.045987 0.004611
v -0.012184 0.042457 0.002389
v -0.014259 0.053881 -0.001205
v -0.016824 0.050351 -0.001205
v -0.000625 0.047787 -0.001205
v 0.001940 0.044257 -0.001205
v 0.004015 0.055681 -0.004799
v 0.002732 0.052151 -0.007021
v 0.002732 0.047787 -0.007021
v 0.004015 0.044257 -0.004799
v 0.008165 0.055681 -0.004799
v 0.009448 0.052151 -0.007021
v 0.009448 0.047787 -0.007021
v 0.008165 0.044257 -0.004799
v 0.010240 0.055681 -0.001205
v 0.012805 0.052151 -0.001205
v 0.012805 0.047787 -0.001205
v 0.010240 0.044257 -0.001205
v 0.006090 0.042908 -0.001205
v 0.006090 0.057030 -0.001205
v 0.008165 0.055681 0.002389
v 0.009448 0.052151 0.004611
v 0.009448 0.047787 0.004611
v 0.008165 0.044257 0.002389
v 0.004015 0.055681 0.002389
v 0.002732 0.052151 0.004611
v 0.002732 0.047787 0.004611
v 0.004015 0.044257 0.002389
v 0.001940 0.055681 -0.001205
v -0.000625 0.052151 -0.001205
v 0.015573 0.041616 -0.001205
v 0.018138 0.038086 -0.001205
v 0.020213 0.049510 -0.004799
v 0.018931 0.045980 -0.007021
v 0.018931 0.041616 -0.007021
v 0.020213 0.038086 -0.004799
v 0.024364 0.049510 -0.004799
v 0.025646 0.045980 -0.007021
v 0.025646 0.041616 -0.007021
v 0.024364 0.038086 -0.004799
v 0.026439 0.049510 -0.001205
v 0.029004 0.045980 -0.001205
v 0.029004 0.041616 -0.001205
v 0.026439 0.038086 -0.001205
v 0.022288 0.036737 -0.001205
v 0.022288 0.050859 -0.001205
v 0.024364 0.049510 0.002389
v 0.025646 0.045980 0.004611
v 0.025646 0.041616 0.004611
v 0.024364 0.038086 0.002389
v 0.020213 0.049510 0.002389
v 0.018931 0.045980 0.004611
v 0.018931 0.041616 0.004611
v 0.020213 0.038086 0.002389
v 0.018138 0.049510 -0.001205
v 0.015573 0.045980 -0.001205
v 0.003489 0.032360 0.002652
v 0.006054 0.028829 0.002652
v 0.008129 0.040254 -0.000943
v 0.006846 0.036724 -0.003164
v 0.006846 0.032360 -0.003164
v 0.008129 0.028829 -0.000943
v 0.012279 0.040254 -0.000943
v 0.013561 0.036724 -0.003164
v 0.013561 0.032360 -0.003164
v 0.012279 0.028829 -0.000943
v 0.014354 0.040254 0.002652
v 0.016919 0.036724 0.002652
v 0.016919 0.032360 0.002652
v 0.014354 0.028829 0.002652
v 0.010204 0.027481 0.002652
v 0.010204 0.041603 0.002652
v 0.012279 0.040254 0.006246
v 0.013561 0.036724 0.008467
v 0.013561 0.032360 0.008467
v 0.012279 0.028829 0.006246
v 0.008129 0.040254 0.006246
v 0.006846 0.036724 0.008467
v 0.006846 0.032360 0.008467
v 0.008129 0.028829 0.006246
v 0.006054 0.040254 0.002652
v 0.003489 0.036724 0.002652
v 0.011202 0.054472 -0.001205
v 0.013767 0.050942 -0.001205
v 0.015842 0.062366 -0.004799
v 0.014560 0.058836 -0.007021
v 0.014560 0.054472 -0.007021
v 0.015842 0.050942 -0.004799
v 0.019993 0.062366 -0.004799
v 0.021275 0.058836 -0.007021
v 0.021275 0.054472 -0.007021
v 0.019993 0.050942 -0.004799
v 0.022068 0.062366 -0.001205
v 0.024633 0.058836 -0.001205
v 0.024633 0.054472 -0.001205
v 0.022068 0.050942 -0.001205
v 0.017917 0.049593 -0.001205
v 0.017917 0.063715 -0.001205
v 0.019993 0.062366 0.002389
v 0.021275 0.058836 0.004611
v 0.021275 0.054472 0.004611
v 0.019993 0.050942 0.002389
v 0.015842 0.062366 0.002389
v 0.014560 0.058836 0.004611
v 0.014560 0.054472 0.004611
v 0.015842 0.050942 0.002389
v 0.013767 0.062366 -0.001205
v 0.011202 0.058836 -0.001205
v 0.020458 0.065271 -0.001205
v 0.023023 0.061741 -0.001205
v 0.025099 0.073165 -0.004799
v 0.023816 0.069635 -0.007021
v 0.023816 0.065271 -0.007021
v 0.025099 0.061741 -0.004799
v 0.029249 0.073165 -0.004799
v 0.030531 0.069635 -0.007021
v 0.030531 0.065271 -0.007021
v 0.029249 0.061741 -0.004799
v 0.031324 0.073165 -0.001205
v 0.033889 0.069635 -0.001205
v 0.033889 0.065271 -0.001205
v 0.031324 0.061741 -0.001205
v 0.027174 0.060392 -0.001205
v 0.027174 0.074514 -0.001205
v 0.029249 0.073165 0.002389
v 0.030531 0.069635 0.004611
v 0.030531 0.065271 0.004611
v 0.029249 0.061741 0.002389
v 0.025099 0.073165 0.002389
v 0.023816 0.069635 0.004611
v 0.023816 0.065271 0.004611
v 0.025099 0.061741 0.002389
v 0.023023 0.073165 -0.001205
v 0.020458 0.069635 -0.001205
v 0.001174 0.061929 -0.004848
v 0.003739 0.058398 -0.004848
v 0.005815 0.069823 -0.008442
v 0.004532 0.066292 -0.010663
v 0.004532 0.061929 -0.010663
v 0.005815 0.058398 -0.008442
v 0.009965 0.069823 -0.008442
v 0.011247 0.066292 -0.010663
v 0.011247 0.061929 -0.010663
v 0.009965 0.058398 -0.008442
v 0.012040 0.069823 -0.004848
v 0.014605 0.066292 -0.004848
v 0.014605 0.061929 -0.004848
v 0.012040 0.058398 -0.004848
v 0.007890 0.057050 -0.004848
v 0.007890 0.071171 -0.004848
v 0.009965 0.069823 -0.001253
v 0.011247 0.066292 0.000968
v 0.011247 0.061929 0.000968
v 0.009965 0.058398 -0.001253
v 0.005815 0.069823 -0.001253
v 0.004532 0.066292 0.000968
v 0.004532 0.061929 0.000968
v 0.005815 0.058398 -0.001253
v 0.003739 0.069823 -0.004848
v 0.001174 0.066292 -0.004848
v 0.010174 0.071185 0.002652
v 0.012739 0.067654 0.002652
v 0.014814 0.079079 -0.000943
v 0.013531 0.075549 -0.003164
v 0.013531 0.071185 -0.003164
v 0.014814 0.067654 -0.000943
v 0.018964 0.079079 -0.000943
v 0.020247 0.075549 -0.003164
v 0.020247 0.071185 -0.003164
v 0.018964 0.067654 -0.000943
v 0.021039 0.079079 0.002652
v 0.023604 0.075549 0.002652
v 0.023604 0.071185 0.002652
v 0.021039 0.067654 0.002652
v 0.016889 0.066306 0.002652
v 0.016889 0.080428 0.002652
v 0.018964 0.079079 0.006246
v 0.020247 0.075549 0.008467
v 0.020247 0.071185 0.008467
v 0.018964 0.067654 0.006246
v 0.014814 0.079079 0.006246
v 0.013531 0.075549 0.008467
v 0.013531 0.071185 0.008467
v 0.014814 0.067654 0.006246
v 0.012739 0.079079 0.002652
v 0.010174 0.075549 0.002652
v 0.031772 0.041616 -0.004848
v 0.034337 0.038086 -0.004848
v 0.036412 0.049510 -0.008442
v 0.035129 0.045980 -0.010663
v 0.035129 0.041616 -0.010663
v 0.036412 0.038086 -0.008442
v 0.040562 0.049510 -0.008442
v 0.041845 0.045980 -0.010663
v 0.041845 0.041616 -0.010663
v 0.040562 0.038086 -0.008442
v 0.042637 0.049510 -0.004848
v 0.045202 0.045980 -0.004848
v 0.045202 0.041616 -0.004848
v 0.042637 0.038086 -0.004848
v 0.038487 0.036737 -0.004848
v 0.038487 0.050859 -0.004848
v 0.040562 0.049510 -0.001253
v 0.041845 0.045980 0.000968
v 0.041845 0.041616 0.000968
v 0.040562 0.038086 -0.001253
v 0.036412 0.049510 -0.001253
v 0.035129 0.045980 0.000968
v 0.035129 0.041616 0.000968
v 0.036412 0.038086 -0.001253
v 0.034337 0.049510 -0.004848
v 0.031772 0.045980 -0.004848
v 0.025601 0.029531 -0.001205
v 0.028166 0.026001 -0.001205
v 0.030241 0.037426 -0.004799
v 0.028959 0.033895 -0.007021
v 0.028959 0.029531 -0.007021
v 0.030241 0.026001 -0.004799
v 0.034391 0.037426 -0.004799
v 0.035674 0.033895 -0.007021
v 0.035674 0.029531 -0.007021
v 0.034391 0.026001 -0.004799
v 0.036466 0.037426 -0.001205
v 0.039031 0.033895 -0.001205
v 0.039031 0.029531 -0.001205
v 0.036466 0.026001 -0.001205
v 0.032316 0.024653 -0.001205
v 0.032316 0.038774 -0.001205
v 0.034391 0.037426 0.002389
v 0.035674 0.033895 0.004611
v 0.035674 0.029531 0.004611
v 0.034391 0.026001 0.002389
v 0.030241 0.037426 0.002389
v 0.028959 0.033895 0.004611
v 0.028959 0.029531 0.004611
v 0.030241 0.026001 0.002389
v 0.028166 0.037426 -0.001205
v 0.025601 0.033895 -0.001205
v 0.040257 0.030817 0.002652
v 0.042822 0.027287 0.002652
v 0.044897 0.038711 -0.000943
v 0.043614 0.035181 -0.003164
v 0.043614 0.030817 -0.003164
v 0.044897 0.027287 -0.000943
v 0.049047 0.038711 -0.000943
v 0.050330 0.035181 -0.003164
v 0.050330 0.030817 -0.003164
v 0.049047 0.027287 -0.000943
v 0.051122 0.038711 0.002652
v 0.053687 0.035181 0.002652
v 0.053687 0.030817 0.002652
v 0.051122 0.027287 0.002652
v 0.046972 0.025938 0.002652
v 0.046972 0.040060 0.002652
v 0.049047 0.038711 0.006246
v 0.050330 0.035181 0.008467
v 0.050330 0.030817 0.008467
v 0.049047 0.027287 0.006246
v 0.044897 0.038711 0.006246
v 0.043614 0.035181 0.008467
v 0.043614 0.030817 0.008467
v 0.044897 0.027287 0.006246
v 0.042822 0.038711 0.002652
v 0.040257 0.035181 0.002652
v 0.014802 0.021561 0.002652
v 0.017367 0.018030 0.002652
v 0.019442 0.029455 -0.000943
v 0.018159 0.025925 -0.003164
v 0.018159 0.021561 -0.003164
v 0.019442 0.018030 -0.000943
v 0.023592 0.029455 -0.000943
v 0.024875 0.025925 -0.003164
v 0.024875 0.021561 -0.003164
v 0.023592 0.018030 -0.000943
v 0.025667 0.029455 0.002652
v 0.028232 0.025925 0.002652
v 0.028232 0.021561 0.002652
v 0.025667 0.018030 0.002652
v 0.021517 0.016682 0.002652
v 0.021517 0.030804 0.002652
v 0.023592 0.029455 0.006246
v 0.024875 0.025925 0.008467
v 0.024875 0.021561 0.008467
v 0.023592 0.018030 0.006246
v 0.019442 0.029455 0.006246
v 0.018159 0.025925 0.008467
v 0.018159 0.021561 0.008467
v 0.019442 0.018030 0.006246
v 0.017367 0.029455 0.002652
v 0.014802 0.025925 0.002652
v 0.000403 0.018475 0.002652
v 0.002968 0.014945 0.002652
v 0.005043 0.026370 -0.000943
v 0.003761 0.022839 -0.003164
v 0.003761 0.018475 -0.003164
v 0.005043 0.014945 -0.000943
v 0.009194 0.026370 -0.000943
v 0.010476 0.022839 -0.003164
v 0.010476 0.018475 -0.003164
v 0.009194 0.014945 -0.000943
v 0.011269 0.026370 0.002652
v 0.013834 0.022839 0.002652
v 0.013834 0.018475 0.002652
v 0.011269 0.014945 0.002652
v 0.007118 0.013596 0.002652
v 0.007118 0.027718 0.002652
v 0.009194 0.026370 0.006246
v 0.010476 0.022839 0.008467
v 0.010476 0.018475 0.008467
v 0.009194 0.014945 0.006246
v 0.005043 0.026370 0.006246
v 0.003761 0.022839 0.008467
v 0.003761 0.018475 0.008467
v 0.005043 0.014945 0.006246
v 0.002968 0.026370 0.002652
v 0.000403 0.022839 0.002652
v -0.020938 0.057043 -0.004848
v -0.018373 0.053513 -0.004848
v -0.016298 0.064938 -0.008442
v -0.017580 0.061407 -0.010663
v -0.017580 0.057043 -0.010663
v -0.016298 0.053513 -0.008442
v -0.012147 0.064938 -0.008442
v -0.010865 0.061407 -0.010663
v -0.010865 0.057043 -0.010663
v -0.012147 0.053513 -0.008442
v -0.010072 0.064938 -0.004848
v -0.007507 0.061407 -0.004848
v -0.007507 0.057043 -0.004848
v -0.010072 0.053513 -0.004848
v -0.014223 0.052164 -0.004848
v -0.014223 0.066286 -0.004848
v -0.012147 0.064938 -0.001253
v -0.010865 0.061407 0.000968
v -0.010865 0.057043 0.000968
v -0.012147 0.053513 -0.001253
v -0.016298 0.064938 -0.001253
v -0.017580 0.061407 0.000968
v -0.017580 0.057043 0.000968
v -0.016298 0.053513 -0.001253
v -0.018373 0.064938 -0.004848
v -0.020938 0.061407 -0.004848
v -0.026594 0.047016 0.002652
v -0.024029 0.043485 0.002652
v -0.021954 0.054910 -0.000943
v -0.023237 0.051379 -0.003164
v -0.023237 0.047016 -0.003164
v -0.021954 0.043485 -0.000943
v -0.017804 0.054910 -0.000943
v -0.016522 0.051379 -0.003164
v -0.016522 0.047016 -0.003164
v -0.017804 0.043485 -0.000943
v -0.015729 0.054910 0.002652
v -0.013164 0.051379 0.002652
v -0.013164 0.047016 0.002652
v -0.015729 0.043485 0.002652
v -0.019879 0.042137 0.002652
v -0.019879 0.056258 0.002652
v -0.017804 0.054910 0.006246
v -0.016522 0.051379 0.008467
v -0.016522 0.047016 0.008467
v -0.017804 0.043485 0.006246
v -0.021954 0.054910 0.006246
v -0.023237 0.051379 0.008467
v -0.023237 0.047016 0.008467
v -0.021954 0.043485 0.006246
v -0.024029 0.054910 0.002652
v -0.026594 0.051379 0.002652
v -0.037136 0.058843 0.002652
v -0.034571 0.055313 0.002652
v -0.032496 0.066737 -0.000943
v -0.033779 0.063207 -0.003164
v -0.033779 0.058843 -0.003164
v -0.032496 0.055313 -0.000943
v -0.028346 0.066737 -0.000943
v -0.027063 0.063207 -0.003164
v -0.027063 0.058843 -0.003164
v -0.028346 0.055313 -0.000943
v -0.026271 0.066737 0.002652
v -0.023706 0.063207 0.002652
v -0.023706 0.058843 0.002652
v -0.026271 0.055313 0.002652
v -0.030421 0.053964 0.002652
v -0.030421 0.068086 0.002652
v -0.028346 0.066737 0.006246
v -0.027063 0.063207 0.008467
v -0.027063 0.058843 0.008467
v -0.028346 0.055313 0.006246
v -0.032496 0.066737 0.006246
v -0.033779 0.063207 0.008467
v -0.033779 0.058843 0.008467
v -0.032496 0.055313 0.006246
v -0.034571 0.066737 0.002652
v -0.037136 0.063207 0.002652
v -0.042022 0.047273 0.002652
v -0.039457 0.043742 0.002652
v -0.037382 0.055167 -0.000943
v -0.038664 0.051637 -0.003164
v -0.038664 0.047273 -0.003164
v -0.037382 0.043742 -0.000943
v -0.033231 0.055167 -0.000943
v -0.031949 0.051637 -0.003164
v -0.031949 0.047273 -0.003164
v -0.033231 0.043742 -0.000943
v -0.031156 0.055167 0.002652
v -0.028591 0.051637 0.002652
v -0.028591 0.047273 0.002652
v -0.031156 0.043742 0.002652
v -0.035306 0.042394 0.002652
v -0.035306 0.056516 0.002652
v -0.033231 0.055167 0.006246
v -0.031949 0.051637 0.008467
v -0.031949 0.047273 0.008467
v -0.033231 0.043742 0.006246
v -0.037382 0.055167 0.006246
v -0.038664 0.051637 0.008467
v -0.038664 0.047273 0.008467
v -0.037382 0.043742 0.006246
v -0.039457 0.055167 0.002652
v -0.042022 0.051637 0.002652
v -0.034308 0.036474 0.002652
v -0.031743 0.032943 0.002652
v -0.029668 0.044368 -0.000943
v -0.030950 0.040838 -0.003164
v -0.030950 0.036474 -0.003164
v -0.029668 0.032943 -0.000943
v -0.025518 0.044368 -0.000943
v -0.024235 0.040838 -0.003164
v -0.024235 0.036474 -0.003164
v -0.025518 0.032943 -0.000943
v -0.023443 0.044368 0.002652
v -0.020878 0.040838 0.002652
v -0.020878 0.036474 0.002652
v -0.023443 0.032943 0.002652
v -0.027593 0.031595 0.002652
v -0.027593 0.045716 0.002652
v -0.025518 0.044368 0.006246
v -0.024235 0.040838 0.008467
v -0.024235 0.036474 0.008467
v -0.025518 0.032943 0.006246
v -0.029668 0.044368 0.006246
v -0.030950 0.040838 0.008467
v -0.030950 0.036474 0.008467
v -0.029668 0.032943 0.006246
v -0.031743 0.044368 0.002652
v -0.034308 0.040838 0.002652
v -0.022223 0.027989 0.002652
v -0.019658 0.024458 0.002652
v -0.017583 0.035883 -0.000943
v -0.018866 0.032353 -0.003164
v -0.018866 0.027989 -0.003164
v -0.017583 0.024458 -0.000943
v -0.013433 0.035883 -0.000943
v -0.012151 0.032353 -0.003164
v -0.012151 0.027989 -0.003164
v -0.013433 0.024458 -0.000943
v -0.011358 0.035883 0.002652
v -0.008793 0.032353 0.002652
v -0.008793 0.027989 0.002652
v -0.011358 0.024458 0.002652
v -0.015508 0.023110 0.002652
v -0.015508 0.037232 0.002652
v -0.013433 0.035883 0.006246
v -0.012151 0.032353 0.008467
v -0.012151 0.027989 0.008467
v -0.013433 0.024458 0.006246
v -0.017583 0.035883 0.006246
v -0.018866 0.032353 0.008467
v -0.018866 0.027989 0.008467
v -0.017583 0.024458 0.006246
v -0.019658 0.035883 0.002652
v -0.022223 0.032353 0.002652
v -0.013224 0.016933 0.002652
v -0.010659 0.013402 0.002652
v -0.008584 0.024827 -0.000943
v -0.009867 0.021296 -0.003164
v -0.009867 0.016933 -0.003164
v -0.008584 0.013402 -0.000943
v -0.004434 0.024827 -0.000943
v -0.003151 0.021296 -0.003164
v -0.003151 0.016933 -0.003164
v -0.004434 0.013402 -0.000943
v -0.002359 0.024827 0.002652
v 0.000206 0.021296 0.002652
v 0.000206 0.016933 0.002652
v -0.002359 0.013402 0.002652
v -0.006509 0.012054 0.002652
v -0.006509 0.026175 0.002652
v -0.004434 0.024827 0.006246
v -0.003151 0.021296 0.008467
v -0.003151 0.016933 0.008467
v -0.004434 0.013402 0.006246
v -0.008584 0.024827 0.006246
v -0.009867 0.021296 0.008467
v -0.009867 0.016933 0.008467
v -0.008584 0.013402 0.006246
v -0.010659 0.024827 0.002652
v -0.013224 0.021296 0.002652
v 0.026115 0.017447 -0.001205
v 0.028680 0.013916 -0.001205
v 0.030755 0.025341 -0.004799
v 0.029473 0.021811 -0.007021
v 0.029473 0.017447 -0.007021
v 0.030755 0.013916 -0.004799
v 0.034906 0.025341 -0.004799
v 0.036188 0.021811 -0.007021
v 0.036188 0.017447 -0.007021
v 0.034906 0.013916 -0.004799
v 0.036981 0.025341 -0.001205
v 0.039546 0.021811 -0.001205
v 0.039546 0.017447 -0.001205
v 0.036981 0.013916 -0.001205
v 0.032830 0.012568 -0.001205
v 0.032830 0.026690 -0.001205
v 0.034906 0.025341 0.002389
v 0.036188 0.021811 0.004611
v 0.036188 0.017447 0.004611
v 0.034906 0.013916 0.002389
v 0.030755 0.025341 0.002389
v 0.029473 0.021811 0.004611
v 0.029473 0.017447 0.004611
v 0.030755 0.013916 0.002389
v 0.028680 0.025341 -0.001205
v 0.026115 0.021811 -0.001205
v 0.002974 0.005362 -0.001205
v 0.005539 0.001832 -0.001205
v 0.007614 0.013256 -0.004799
v 0.006332 0.009726 -0.007021
v 0.006332 0.005362 -0.007021
v 0.007614 0.001832 -0.004799
v 0.011765 0.013256 -0.004799
v 0.013047 0.009726 -0.007021
v 0.013047 0.005362 -0.007021
v 0.011765 0.001832 -0.004799
v 0.013840 0.013256 -0.001205
v 0.016405 0.009726 -0.001205
v 0.016405 0.005362 -0.001205
v 0.013840 0.001832 -0.001205
v 0.009690 0.000483 -0.001205
v 0.009690 0.014605 -0.001205
v 0.011765 0.013256 0.002389
v 0.013047 0.009726 0.004611
v 0.013047 0.005362 0.004611
v 0.011765 0.001832 0.002389
v 0.007614 0.013256 0.002389
v 0.006332 0.009726 0.004611
v 0.006332 0.005362 0.004611
v 0.007614 0.001832 0.002389
v 0.005539 0.013256 -0.001205
v 0.002974 0.009726 -0.001205
v -0.009882 0.033388 0.002652
v -0.007317 0.029858 0.002652
v -0.005242 0.041283 -0.000943
v -0.006524 0.037752 -0.003164
v -0.006524 0.033388 -0.003164
v -0.005242 0.029858 -0.000943
v -0.001091 0.041283 -0.000943
v 0.000191 0.037752 -0.003164
v 0.000191 0.033388 -0.003164
v -0.001091 0.029858 -0.000943
v 0.000984 0.041283 0.002652
v 0.003549 0.037752 0.002652
v 0.003549 0.033388 0.002652
v 0.000984 0.029858 0.002652
v -0.003166 0.028509 0.002652
v -0.003166 0.042631 0.002652
v -0.001091 0.041283 0.006246
v 0.000191 0.037752 0.008467
v 0.000191 0.033388 0.008467
v -0.001091 0.029858 0.006246
v -0.005242 0.041283 0.006246
v -0.006524 0.037752 0.008467
v -0.006524 0.033388 0.008467
v -0.005242 0.029858 0.006246
v -0.007317 0.041283 0.002652
v -0.009882 0.037752 0.002652
v -0.008853 0.054729 0.002652
v -0.006288 0.051199 0.002652
v -0.004213 0.062623 -0.000943
v -0.005496 0.059093 -0.003164
v -0.005496 0.054729 -0.003164
v -0.004213 0.051199 -0.000943
v -0.000063 0.062623 -0.000943
v 0.001220 0.059093 -0.003164
v 0.001220 0.054729 -0.003164
v -0.000063 0.051199 -0.000943
v 0.002012 0.062623 0.002652
v 0.004577 0.059093 0.002652
v 0.004577 0.054729 0.002652
v 0.002012 0.051199 0.002652
v -0.002138 0.049850 0.002652
v -0.002138 0.063972 0.002652
v -0.000063 0.062623 0.006246
v 0.001220 0.059093 0.008467
v 0.001220 0.054729 0.008467
v -0.000063 0.051199 0.006246
v -0.004213 0.062623 0.006246
v -0.005496 0.059093 0.008467
v -0.005496 0.054729 0.008467
v -0.004213 0.051199 0.006246
v -0.006288 0.062623 0.002652
v -0.008853 0.059093 0.002652
v -0.003197 0.038531 -0.004848
v -0.000632 0.035000 -0.004848
v 0.001444 0.046425 -0.008442
v 0.000161 0.042894 -0.010663
v 0.000161 0.038531 -0.010663
v 0.001444 0.035000 -0.008442
v 0.005594 0.046425 -0.008442
v 0.006876 0.042894 -0.010663
v 0.006876 0.038531 -0.010663
v 0.005594 0.035000 -0.008442
v 0.007669 0.046425 -0.004848
v 0.010234 0.042894 -0.004848
v 0.010234 0.038531 -0.004848
v 0.007669 0.035000 -0.004848
v 0.003519 0.033652 -0.004848
v 0.003519 0.047773 -0.004848
v 0.005594 0.046425 -0.001253
v 0.006876 0.042894 0.000968
v 0.006876 0.038531 0.000968
v 0.005594 0.035000 -0.001253
v 0.001444 0.046425 -0.001253
v 0.000161 0.042894 0.000968
v 0.000161 0.038531 0.000968
v 0.001444 0.035000 -0.001253
v -0.000632 0.046425 -0.004848
v -0.003197 0.042894 -0.004848
v -0.005768 0.023361 -0.004848
v -0.003203 0.019830 -0.004848
v -0.001128 0.031255 -0.008442
v -0.002410 0.027724 -0.010663
v -0.002410 0.023361 -0.010663
v -0.001128 0.019830 -0.008442
v 0.003023 0.031255 -0.008442
v 0.004305 0.027724 -0.010663
v 0.004305 0.023361 -0.010663
v 0.003023 0.019830 -0.008442
v 0.005098 0.031255 -0.004848
v 0.007663 0.027724 -0.004848
v 0.007663 0.023361 -0.004848
v 0.005098 0.019830 -0.004848
v 0.000948 0.018482 -0.004848
v 0.000948 0.032603 -0.004848
v 0.003023 0.031255 -0.001253
v 0.004305 0.027724 0.000968
v 0.004305 0.023361 0.000968
v 0.003023 0.019830 -0.001253
v -0.001128 0.031255 -0.001253
v -0.002410 0.027724 0.000968
v -0.002410 0.023361 0.000968
v -0.001128 0.019830 -0.001253
v -0.003203 0.031255 -0.004848
v -0.005768 0.027724 -0.004848
v 0.014030 0.030817 -0.004848
v 0.016595 0.027287 -0.004848
v 0.018671 0.038711 -0.008442
v 0.017388 0.035181 -0.010663
v 0.017388 0.030817 -0.010663
v 0.018671 0.027287 -0.008442
v 0.022821 0.038711 -0.008442
v 0.024103 0.035181 -0.010663
v 0.024103 0.030817 -0.010663
v 0.022821 0.027287 -0.008442
v 0.024896 0.038711 -0.004848
v 0.027461 0.035181 -0.004848
v 0.027461 0.030817 -0.004848
v 0.024896 0.027287 -0.004848
v 0.020746 0.025938 -0.004848
v 0.020746 0.040060 -0.004848
v 0.022821 0.038711 -0.001253
v 0.024103 0.035181 0.000968
v 0.024103 0.030817 0.000968
v 0.022821 0.027287 -0.001253
v 0.018671 0.038711 -0.001253
v 0.017388 0.035181 0.000968
v 0.017388 0.030817 0.000968
v 0.018671 0.027287 -0.001253
v 0.016595 0.038711 -0.004848
v 0.014030 0.035181 -0.004848
v -0.020424 0.035959 -0.004848
v -0.017859 0.032429 -0.004848
v -0.015783 0.043854 -0.008442
v -0.017066 0.040323 -0.010663
v -0.017066 0.035959 -0.010663
v -0.015783 0.032429 -0.008442
v -0.011633 0.043854 -0.008442
v -0.010351 0.040323 -0.010663
v -0.010351 0.035959 -0.010663
v -0.011633 0.032429 -0.008442
v -0.009558 0.043854 -0.004848
v -0.006993 0.040323 -0.004848
v -0.006993 0.035959 -0.004848
v -0.009558 0.032429 -0.004848
v -0.013708 0.031081 -0.004848
v -0.013708 0.045202 -0.004848
v -0.011633 0.043854 -0.001253
v -0.010351 0.040323 0.000968
v -0.010351 0.035959 0.000968
v -0.011633 0.032429 -0.001253
v -0.015783 0.043854 -0.001253
v -0.017066 0.040323 0.000968
v -0.017066 0.035959 0.000968
v -0.015783 0.032429 -0.001253
v -0.017859 0.043854 -0.004848
v -0.020424 0.040323 -0.004848
v 0.014802 0.009990 -0.000991
v 0.017367 0.006460 -0.000991
v 0.019442 0.017885 -0.004585
v 0.018159 0.014354 -0.006806
v 0.018159 0.009990 -0.006806
v 0.019442 0.006460 -0.004585
v 0.023592 0.017885 -0.004585
v 0.024875 0.014354 -0.006806
v 0.024875 0.009990 -0.006806
v 0.023592 0.006460 -0.004585
v 0.025667 0.017885 -0.000991
v 0.028232 0.014354 -0.000991
v 0.028232 0.009990 -0.000991
v 0.025667 0.006460 -0.000991
v 0.021517 0.005111 -0.000991
v 0.021517 0.019233 -0.000991
v 0.023592 0.017885 0.002603
v 0.024875 0.014354 0.004825
v 0.024875 0.009990 0.004825
v 0.023592 0.006460 0.002603
v 0.019442 0.017885 0.002603
v 0.018159 0.014354 0.004825
v 0.018159 0.009990 0.004825
v 0.019442 0.006460 0.002603
v 0.017367 0.017885 -0.000991
v 0.014802 0.014354 -0.000991
v -0.027880 0.016418 -0.000991
v -0.025315 0.012888 -0.000991
v -0.023240 0.024313 -0.004585
v -0.024522 0.020782 -0.006806
v -0.024522 0.016418 -0.006806
v -0.023240 0.012888 -0.004585
v -0.019090 0.024313 -0.004585
v -0.017807 0.020782 -0.006806
v -0.017807 0.016418 -0.006806
v -0.019090 0.012888 -0.004585
v -0.017015 0.024313 -0.000991
v -0.014450 0.020782 -0.000991
v -0.014450 0.016418 -0.000991
v -0.017015 0.012888 -0.000991
v -0.021165 0.011539 -0.000991
v -0.021165 0.025661 -0.000991
v -0.019090 0.024313 0.002603
v -0.017807 0.020782 0.004825
v -0.017807 0.016418 0.004825
v -0.019090 0.012888 0.002603
v -0.023240 0.024313 0.002603
v -0.024522 0.020782 0.004825
v -0.024522 0.016418 0.004825
v -0.023240 0.012888 0.002603
v -0.025315 0.024313 -0.000991
v -0.027880 0.020782 -0.000991
v -0.038679 0.024132 0.002652
v -0.036114 0.020601 0.002652
v -0.034039 0.032026 -0.000943
v -0.035321 0.028496 -0.003164
v -0.035321 0.024132 -0.003164
v -0.034039 0.020601 -0.000943
v -0.029889 0.032026 -0.000943
v -0.028606 0.028496 -0.003164
v -0.028606 0.024132 -0.003164
v -0.029889 0.020601 -0.000943
v -0.027814 0.032026 0.002652
v -0.025249 0.028496 0.002652
v -0.025249 0.024132 0.002652
v -0.027814 0.020601 0.002652
v -0.031964 0.019253 0.002652
v -0.031964 0.033375 0.002652
v -0.029889 0.032026 0.006246
v -0.028606 0.028496 0.008467
v -0.028606 0.024132 0.008467
v -0.029889 0.020601 0.006246
v -0.034039 0.032026 0.006246
v -0.035321 0.028496 0.008467
v -0.035321 0.024132 0.008467
v -0.034039 0.020601 0.006246
v -0.036114 0.032026 0.002652
v -0.038679 0.028496 0.002652
vn -0.9590 -0.2834 -0.0000
vn -0.6466 -0.7628 -0.0000
vn -0.3233 0.7628 -0.5600
vn -0.4795 0.2834 -0.8305
vn -0.4795 -0.2834 -0.8305
vn -0.3233 -0.7628 -0.5600
vn 0.3233 0.7628 -0.5600
vn 0.4795 0.2834 -0.8305
vn 0.4795 -0.2834 -0.8305
vn 0.3233 -0.7628 -0.5600
vn 0.6466 0.7628 -0.0000
vn 0.9590 0.2834 -0.0000
vn 0.9590 -0.2834 -0.0000
vn 0.6466 -0.7628 -0.0000
vn -0.0000 -1.0000 -0.0000
vn -0.0000 1.0000 -0.0000
vn 0.3233 0.7628 0.5600
vn 0.4795 0.2834 0.8305
vn 0.4795 -0.2834 0.8305
vn 0.3233 -0.7628 0.5600
vn -0.3233 0.7628 0.5600
vn -0.4795 0.2834 0.8305
vn -0.4795 -0.2834 0.8305
vn -0.3233 -0.7628 0.5600
vn -0.6466 0.7628 -0.0000
vn -0.9590 0.2834 -0.0000
vt 0.454088 0.289123
vt 0.455079 0.290487
vt 0.453782 0.290487
vt 0.453286 0.289123
vt 0.455079 0.292174
vt 0.454088 0.293538
vt 0.453286 0.293538
vt 0.453782 0.292174
vt 0.452484 0.288602
vt 0.452484 0.294059
vt 0.451187 0.290487
vt 0.451682 0.289123
vt 0.451682 0.293538
vt 0.451187 0.292174
vt 0.449889 0.290487
vt 0.450881 0.289123
vt 0.450881 0.293538
vt 0.449889 0.292174
vt 0.470185 0.286838
vt 0.471176 0.288202
vt 0.469879 0.288202
vt 0.469383 0.286838
vt 0.471176 0.289888
vt 0.470185 0.291253
vt 0.469383 0.291253
vt 0.469879 0.289888
vt 0.468581 0.286316
vt 0.468581 0.291774
vt 0.467284 0.288202
vt 0.467779 0.286838
vt 0.467779 0.291253
vt 0.467284 0.289888
vt 0.465986 0.288202
vt 0.466977 0.286838
vt 0.466977 0.291253
vt 0.465986 0.289888
vt 0.463925 0.287533
vt 0.464916 0.288897
vt 0.463619 0.288897
vt 0.463123 0.287533
vt 0.464916 0.290584
vt 0.463925 0.291948
vt 0.463123 0.291948
vt 0.463619 0.290584
vt 0.462321 0.287012
vt 0.462321 0.292469
vt 0.461024 0.288897
vt 0.461519 0.287533
vt 0.461519 0.291948
vt 0.461024 0.290584
vt 0.459726 0.288897
vt 0.460717 0.287533
vt 0.460717 0.291948
vt 0.459726 0.290584
vt 0.457665 0.285148
vt 0.458657 0.286513
vt 0.457359 0.286513
vt 0.456863 0.285148
vt 0.458657 0.288199
vt 0.457665 0.289563
vt 0.456863 0.289563
vt 0.457359 0.288199
vt 0.456061 0.284627
vt 0.456061 0.290085
vt 0.454764 0.286513
vt 0.455260 0.285148
vt 0.455260 0.289563
vt 0.454764 0.288199
vt 0.453466 0.286513
vt 0.454458 0.285148
vt 0.454458 0.289563
vt 0.453466 0.288199
vt 0.454764 0.288199
vt 0.457359 0.288199
vt 0.462335 0.281571
vt 0.463326 0.282936
vt 0.462029 0.282936
vt 0.461533 0.281571
vt 0.463326 0.284622
vt 0.462335 0.285986
vt 0.461533 0.285986
vt 0.462029 0.284622
vt 0.460731 0.281050
vt 0.460731 0.286507
vt 0.459434 0.282936
vt 0.459930 0.281571
vt 0.459930 0.285986
vt 0.459434 0.284622
vt 0.458136 0.282936
vt 0.459128 0.281571
vt 0.459128 0.285986
vt 0.458136 0.284622
vt 0.459354 0.290116
vt 0.460346 0.291481
vt 0.459048 0.291481
vt 0.458553 0.290116
vt 0.460346 0.293167
vt 0.459354 0.294532
vt 0.458553 0.294532
vt 0.459048 0.293167
vt 0.457751 0.289595
vt 0.457751 0.295053
vt 0.456453 0.291481
vt 0.456949 0.290116
vt 0.456949 0.294532
vt 0.456453 0.293167
vt 0.455156 0.291481
vt 0.456147 0.290116
vt 0.456147 0.294532
vt 0.455156 0.293167
vt 0.455777 0.294290
vt 0.456769 0.295654
vt 0.455471 0.295654
vt 0.454976 0.294290
vt 0.456769 0.297340
vt 0.455777 0.298705
vt 0.454976 0.298705
vt 0.455471 0.297340
vt 0.454174 0.293769
vt 0.454174 0.299226
vt 0.452876 0.295654
vt 0.453372 0.294290
vt 0.453372 0.298705
vt 0.452876 0.297340
vt 0.451579 0.295654
vt 0.452570 0.294290
vt 0.452570 0.298705
vt 0.451579 0.297340
vt 0.463230 0.292998
vt 0.464221 0.294362
vt 0.462923 0.294362
vt 0.462428 0.292998
vt 0.464221 0.296049
vt 0.463230 0.297413
vt 0.462428 0.297413
vt 0.462923 0.296049
vt 0.461626 0.292477
vt 0.461626 0.297934
vt 0.460328 0.294362
vt 0.460824 0.292998
vt 0.460824 0.297413
vt 0.460328 0.296049
vt 0.459031 0.294362
vt 0.460022 0.292998
vt 0.460022 0.297413
vt 0.459031 0.296049
vt 0.459752 0.296575
vt 0.460743 0.297939
vt 0.459446 0.297939
vt 0.458950 0.296575
vt 0.460743 0.299626
vt 0.459752 0.300990
vt 0.458950 0.300990
vt 0.459446 0.299626
vt 0.458148 0.296054
vt 0.458148 0.301511
vt 0.456851 0.297939
vt 0.457346 0.296575
vt 0.457346 0.300990
vt 0.456851 0.299626
vt 0.455553 0.297939
vt 0.456544 0.296575
vt 0.456544 0.300990
vt 0.455553 0.299626
vt 0.451405 0.285148
vt 0.452397 0.286513
vt 0.451099 0.286513
vt 0.450604 0.285148
vt 0.452397 0.288199
vt 0.451405 0.289563
vt 0.450604 0.289563
vt 0.451099 0.288199
vt 0.449802 0.284627
vt 0.449802 0.290085
vt 0.448504 0.286513
vt 0.449000 0.285148
vt 0.449000 0.289563
vt 0.448504 0.288199
vt 0.447207 0.286513
vt 0.448198 0.285148
vt 0.448198 0.289563
vt 0.447207 0.288199
vt 0.448504 0.288199
vt 0.451099 0.288199
vt 0.453790 0.280478
vt 0.454781 0.281843
vt 0.453484 0.281843
vt 0.452988 0.280478
vt 0.454781 0.283529
vt 0.453790 0.284893
vt 0.452988 0.284893
vt 0.453484 0.283529
vt 0.452186 0.279957
vt 0.452186 0.285415
vt 0.450889 0.281843
vt 0.451384 0.280478
vt 0.451384 0.284893
vt 0.450889 0.283529
vt 0.449591 0.281843
vt 0.450583 0.280478
vt 0.450583 0.284893
vt 0.449591 0.283529
vt 0.448127 0.280975
vt 0.449118 0.282340
vt 0.447820 0.282340
vt 0.447325 0.280975
vt 0.449118 0.284026
vt 0.448127 0.285390
vt 0.447325 0.285390
vt 0.447820 0.284026
vt 0.446523 0.280454
vt 0.446523 0.285911
vt 0.445225 0.282340
vt 0.445721 0.280975
vt 0.445721 0.285390
vt 0.445225 0.284026
vt 0.443928 0.282340
vt 0.444919 0.280975
vt 0.444919 0.285390
vt 0.443928 0.284026
vt 0.457963 0.277398
vt 0.458955 0.278762
vt 0.457657 0.278762
vt 0.457161 0.277398
vt 0.458955 0.280449
vt 0.457963 0.281813
vt 0.457161 0.281813
vt 0.457657 0.280449
vt 0.456360 0.276877
vt 0.456360 0.282334
vt 0.455062 0.278762
vt 0.455558 0.277398
vt 0.455558 0.281813
vt 0.455062 0.280449
vt 0.453764 0.278762
vt 0.454756 0.277398
vt 0.454756 0.281813
vt 0.453764 0.280449
vt 0.455062 0.278763
vt 0.457657 0.278763
vt 0.463528 0.276206
vt 0.464519 0.277570
vt 0.463221 0.277570
vt 0.462726 0.276206
vt 0.464519 0.279257
vt 0.463528 0.280621
vt 0.462726 0.280621
vt 0.463221 0.279257
vt 0.461924 0.275685
vt 0.461924 0.281142
vt 0.460626 0.277570
vt 0.461122 0.276206
vt 0.461122 0.280621
vt 0.460626 0.279257
vt 0.459329 0.277570
vt 0.460320 0.276206
vt 0.460320 0.280621
vt 0.459329 0.279257
vt 0.471775 0.291110
vt 0.472766 0.292474
vt 0.471468 0.292474
vt 0.470973 0.291110
vt 0.472766 0.294161
vt 0.471775 0.295525
vt 0.470973 0.295525
vt 0.471468 0.294161
vt 0.470171 0.290589
vt 0.470171 0.296046
vt 0.468873 0.292474
vt 0.469369 0.291110
vt 0.469369 0.295525
vt 0.468873 0.294161
vt 0.467576 0.292474
vt 0.468567 0.291110
vt 0.468567 0.295525
vt 0.467576 0.294161
vt 0.473961 0.287235
vt 0.474952 0.288599
vt 0.473654 0.288599
vt 0.473159 0.287235
vt 0.474952 0.290286
vt 0.473961 0.291650
vt 0.473159 0.291650
vt 0.473654 0.290286
vt 0.472357 0.286714
vt 0.472357 0.292171
vt 0.471059 0.288599
vt 0.471555 0.287235
vt 0.471555 0.291650
vt 0.471059 0.290286
vt 0.469762 0.288599
vt 0.470753 0.287235
vt 0.470753 0.291650
vt 0.469762 0.290286
vt 0.473654 0.288599
vt 0.473654 0.290286
vt 0.478035 0.291806
vt 0.479026 0.293170
vt 0.477728 0.293170
vt 0.477233 0.291806
vt 0.479026 0.294856
vt 0.478035 0.296221
vt 0.477233 0.296221
vt 0.477728 0.294856
vt 0.476431 0.291285
vt 0.476431 0.296742
vt 0.475133 0.293170
vt 0.475629 0.291806
vt 0.475629 0.296221
vt 0.475133 0.294856
vt 0.473836 0.293170
vt 0.474827 0.291806
vt 0.474827 0.296221
vt 0.473836 0.294856
vt 0.479922 0.287334
vt 0.480914 0.288699
vt 0.479616 0.288699
vt 0.479120 0.287334
vt 0.480914 0.290385
vt 0.479922 0.291749
vt 0.479120 0.291749
vt 0.479616 0.290385
vt 0.478318 0.286813
vt 0.478318 0.292270
vt 0.477021 0.288699
vt 0.477517 0.287334
vt 0.477517 0.291749
vt 0.477021 0.290385
vt 0.475723 0.288699
vt 0.476715 0.287334
vt 0.476715 0.291749
vt 0.475723 0.290385
vt 0.476941 0.283161
vt 0.477933 0.284526
vt 0.476635 0.284526
vt 0.476140 0.283161
vt 0.477933 0.286212
vt 0.476941 0.287576
vt 0.476140 0.287576
vt 0.476635 0.286212
vt 0.475338 0.282640
vt 0.475338 0.288097
vt 0.474040 0.284526
vt 0.474536 0.283161
vt 0.474536 0.287576
vt 0.474040 0.286212
vt 0.472743 0.284526
vt 0.473734 0.283161
vt 0.473734 0.287576
vt 0.472743 0.286212
vt 0.472271 0.279882
vt 0.473263 0.281247
vt 0.471965 0.281247
vt 0.471470 0.279882
vt 0.473263 0.282933
vt 0.472271 0.284297
vt 0.471470 0.284297
vt 0.471965 0.282933
vt 0.470668 0.279361
vt 0.470668 0.284818
vt 0.469370 0.281247
vt 0.469866 0.279882
vt 0.469866 0.284297
vt 0.469370 0.282933
vt 0.468073 0.281247
vt 0.469064 0.279882
vt 0.469064 0.284297
vt 0.468073 0.282933
vt 0.468794 0.275610
vt 0.469785 0.276974
vt 0.468488 0.276974
vt 0.467992 0.275610
vt 0.469785 0.278660
vt 0.468794 0.280025
vt 0.467992 0.280025
vt 0.468488 0.278660
vt 0.467190 0.275089
vt 0.467190 0.280546
vt 0.465892 0.276974
vt 0.466388 0.275610
vt 0.466388 0.280025
vt 0.465892 0.278660
vt 0.464595 0.276974
vt 0.465586 0.275610
vt 0.465586 0.280025
vt 0.464595 0.278660
vt 0.453591 0.275808
vt 0.454583 0.277173
vt 0.453285 0.277173
vt 0.452790 0.275808
vt 0.454583 0.278859
vt 0.453591 0.280223
vt 0.452790 0.280223
vt 0.453285 0.278859
vt 0.451988 0.275287
vt 0.451988 0.280744
vt 0.450690 0.277173
vt 0.451186 0.275808
vt 0.451186 0.280223
vt 0.450690 0.278859
vt 0.449393 0.277173
vt 0.450384 0.275808
vt 0.450384 0.280223
vt 0.449393 0.278859
vt 0.462534 0.271138
vt 0.463525 0.272503
vt 0.462228 0.272503
vt 0.461732 0.271138
vt 0.463525 0.274189
vt 0.462534 0.275553
vt 0.461732 0.275553
vt 0.462228 0.274189
vt 0.460930 0.270617
vt 0.460930 0.276074
vt 0.459633 0.272503
vt 0.460128 0.271138
vt 0.460128 0.275553
vt 0.459633 0.274189
vt 0.458335 0.272503
vt 0.459326 0.271138
vt 0.459326 0.275553
vt 0.458335 0.274189
vt 0.467502 0.281969
vt 0.468493 0.283333
vt 0.467196 0.283333
vt 0.466700 0.281969
vt 0.468493 0.285020
vt 0.467502 0.286384
vt 0.466700 0.286384
vt 0.467196 0.285020
vt 0.465898 0.281448
vt 0.465898 0.286905
vt 0.464601 0.283333
vt 0.465096 0.281969
vt 0.465096 0.286384
vt 0.464601 0.285020
vt 0.463303 0.283333
vt 0.464294 0.281969
vt 0.464294 0.286384
vt 0.463303 0.285020
vt 0.467105 0.290216
vt 0.468096 0.291580
vt 0.466798 0.291580
vt 0.466303 0.290216
vt 0.468096 0.293267
vt 0.467105 0.294631
vt 0.466303 0.294631
vt 0.466798 0.293267
vt 0.465501 0.289695
vt 0.465501 0.295152
vt 0.464203 0.291580
vt 0.464699 0.290216
vt 0.464699 0.294631
vt 0.464203 0.293267
vt 0.462906 0.291580
vt 0.463897 0.290216
vt 0.463897 0.294631
vt 0.462906 0.293267
vt 0.464919 0.283956
vt 0.465910 0.285320
vt 0.464612 0.285320
vt 0.464117 0.283956
vt 0.465910 0.287007
vt 0.464919 0.288371
vt 0.464117 0.288371
vt 0.464612 0.287007
vt 0.463315 0.283435
vt 0.463315 0.288892
vt 0.462017 0.285320
vt 0.462513 0.283956
vt 0.462513 0.288371
vt 0.462017 0.287007
vt 0.460720 0.285320
vt 0.461711 0.283956
vt 0.461711 0.288371
vt 0.460720 0.287007
vt 0.465912 0.278094
vt 0.466904 0.279458
vt 0.465606 0.279458
vt 0.465110 0.278094
vt 0.466904 0.281144
vt 0.465912 0.282509
vt 0.465110 0.282509
vt 0.465606 0.281144
vt 0.464309 0.277573
vt 0.464309 0.283030
vt 0.463011 0.279458
vt 0.463507 0.278094
vt 0.463507 0.282509
vt 0.463011 0.281144
vt 0.461713 0.279458
vt 0.462705 0.278094
vt 0.462705 0.282509
vt 0.461713 0.281144
vt 0.458261 0.280975
vt 0.459253 0.282340
vt 0.457955 0.282340
vt 0.457460 0.280975
vt 0.459253 0.284026
vt 0.458261 0.285390
vt 0.457460 0.285390
vt 0.457955 0.284026
vt 0.456658 0.280454
vt 0.456658 0.285911
vt 0.455360 0.282340
vt 0.455856 0.280975
vt 0.455856 0.285390
vt 0.455360 0.284026
vt 0.454063 0.282340
vt 0.455054 0.280975
vt 0.455054 0.285390
vt 0.454063 0.284026
vt 0.471576 0.282962
vt 0.472567 0.284327
vt 0.471270 0.284327
vt 0.470774 0.282962
vt 0.472567 0.286013
vt 0.471576 0.287377
vt 0.470774 0.287377
vt 0.471270 0.286013
vt 0.469972 0.282441
vt 0.469972 0.287899
vt 0.468675 0.284327
vt 0.469170 0.282962
vt 0.469170 0.287377
vt 0.468675 0.286013
vt 0.467377 0.284327
vt 0.468368 0.282962
vt 0.468368 0.287377
vt 0.467377 0.286013
vt 0.457963 0.272927
vt 0.458955 0.274291
vt 0.457657 0.274291
vt 0.457161 0.272927
vt 0.458955 0.275978
vt 0.457963 0.277342
vt 0.457161 0.277342
vt 0.457657 0.275978
vt 0.456360 0.272406
vt 0.456360 0.277863
vt 0.455062 0.274291
vt 0.455558 0.272927
vt 0.455558 0.277342
vt 0.455062 0.275978
vt 0.453764 0.274291
vt 0.454756 0.272927
vt 0.454756 0.277342
vt 0.453764 0.275978
vt 0.474457 0.275411
vt 0.475449 0.276775
vt 0.474151 0.276775
vt 0.473655 0.275411
vt 0.475449 0.278462
vt 0.474457 0.279826
vt 0.473655 0.279826
vt 0.474151 0.278462
vt 0.472854 0.274890
vt 0.472854 0.280347
vt 0.471556 0.276775
vt 0.472052 0.275411
vt 0.472052 0.279826
vt 0.471556 0.278462
vt 0.470259 0.276775
vt 0.471250 0.275411
vt 0.471250 0.279826
vt 0.470259 0.278462
vt 0.478631 0.278392
vt 0.479622 0.279756
vt 0.478324 0.279756
vt 0.477829 0.278392
vt 0.479622 0.281442
vt 0.478631 0.282807
vt 0.477829 0.282807
vt 0.478324 0.281442
vt 0.477027 0.277871
vt 0.477027 0.283328
vt 0.475729 0.279756
vt 0.476225 0.278392
vt 0.476225 0.282807
vt 0.475729 0.281442
vt 0.474432 0.279756
vt 0.475423 0.278392
vt 0.475423 0.282807
vt 0.474432 0.281442
s 1
f 2/1/2 1/2/1 5/3/5
f 2/1/2 5/3/5 6/4/6
f 26/5/26 25/6/25 3/7/3
f 26/5/26 3/7/3 4/8/4
f 15/9/15 2/1/2 6/4/6
f 1/2/1 26/5/26 4/8/4
f 1/2/1 4/8/4 5/3/5
f 25/6/25 16/10/16 3/7/3
f 6/4/6 5/3/5 9/11/9
f 6/4/6 9/11/9 10/12/10
f 4/8/4 3/7/3 7/13/7
f 4/8/4 7/13/7 8/14/8
f 15/9/15 6/4/6 10/12/10
f 5/3/5 4/8/4 8/14/8
f 5/3/5 8/14/8 9/11/9
f 3/7/3 16/10/16 7/13/7
f 10/12/10 9/11/9 13/15/13
f 10/12/10 13/15/13 14/16/14
f 8/14/8 7/13/7 11/17/11
f 8/14/8 11/17/11 12/18/12
f 15/9/15 10/12/10 14/16/14
f 9/11/9 8/14/8 12/18/12
f 9/11/9 12/18/12 13/15/13
f 7/13/7 16/10/16 11/17/11
f 14/16/14 13/15/13 19/11/19
f 14/16/14 19/11/19 20/12/20
f 12/18/12 11/17/11 17/13/17
f 12/18/12 17/13/17 18/14/18
f 15/9/15 14/16/14 20/12/20
f 13/15/13 12/18/12 18/14/18
f 13/15/13 18/14/18 19/11/19
f 11/17/11 16/10/16 17/13/17
f 20/12/20 19/11/19 23/3/23
f 20/12/20 23/3/23 24/4/24
f 18/14/18 17/13/17 21/7/21
f 18/14/18 21/7/21 22/8/22
f 15/9/15 20/12/20 24/4/24
f 19/11/19 18/14/18 22/8/22
f 19/11/19 22/8/22 23/3/23
f 17/13/17 16/10/16 21/7/21
f 24/4/24 23/3/23 1/2/1
f 24/4/24 1/2/1 2/1/2
f 22/8/22 21/7/21 25/6/25
f 22/8/22 25/6/25 26/5/26
f 15/9/15 24/4/24 2/1/2
f 23/3/23 22/8/22 26/5/26
f 23/3/23 26/5/26 1/2/1
f 21/7/21 16/10/16 25/6/25
f 28/19/2 27/20/1 31/21/5
f 28/19/2 31/21/5 32/22/6
f 52/23/26 51/24/25 29/25/3
f 52/23/26 29/25/3 30/26/4
f 41/27/15 28/19/2 32/22/6
f 27/20/1 52/23/26 30/26/4
f 27/20/1 30/26/4 31/21/5
f 51/24/25 42/28/16 29/25/3
f 32/22/6 31/21/5 35/29/9
f 32/22/6 35/29/9 36/30/10
f 30/26/4 29/25/3 33/31/7
f 30/26/4 33/31/7 34/32/8
f 41/27/15 32/22/6 36/30/10
f 31/21/5 30/26/4 34/32/8
f 31/21/5 34/32/8 35/29/9
f 29/25/3 42/28/16 33/31/7
f 36/30/10 35/29/9 39/33/13
f 36/30/10 39/33/13 40/34/14
f 34/32/8 33/31/7 37/35/11
f 34/32/8 37/35/11 38/36/12
f 41/27/15 36/30/10 40/34/14
f 35/29/9 34/32/8 38/36/12
f 35/29/9 38/36/12 39/33/13
f 33/31/7 42/28/16 37/35/11
f 40/34/14 39/33/13 45/29/19
f 40/34/14 45/29/19 46/30/20
f 38/36/12 37/35/11 43/31/17
f 38/36/12 43/31/17 44/32/18
f 41/27/15 40/34/14 46/30/20
f 39/33/13 38/36/12 44/32/18
f 39/33/13 44/32/18 45/29/19
f 37/35/11 42/28/16 43/31/17
f 46/30/20 45/29/19 49/21/23
f 46/30/20 49/21/23 50/22/24
f 44/32/18 43/31/17 47/25/21
f 44/32/18 47/25/21 48/26/22
f 41/27/15 46/30/20 50/22/24
f 45/29/19 44/32/18 48/26/22
f 45/29/19 48/26/22 49/21/23
f 43/31/17 42/28/16 47/25/21
f 50/22/24 49/21/23 27/20/1
f 50/22/24 27/20/1 28/19/2
f 48/26/22 47/25/21 51/24/25
f 48/26/22 51/24/25 52/23/26
f 41/27/15 50/22/24 28/19/2
f 49/21/23 48/26/22 52/23/26
f 49/21/23 52/23/26 27/20/1
f 47/25/21 42/28/16 51/24/25
f 54/37/2 53/38/1 57/39/5
f 54/37/2 57/39/5 58/40/6
f 78/41/26 77/42/25 55/43/3
f 78/41/26 55/43/3 56/44/4
f 67/45/15 54/37/2 58/40/6
f 53/38/1 78/41/26 56/44/4
f 53/38/1 56/44/4 57/39/5
f 77/42/25 68/46/16 55/43/3
f 58/40/6 57/39/5 61/47/9
f 58/40/6 61/47/9 62/48/10
f 56/44/4 55/43/3 59/49/7
f 56/44/4 59/49/7 60/50/8
f 67/45/15 58/40/6 62/48/10
f 57/39/5 56/44/4 60/50/8
f 57/39/5 60/50/8 61/47/9
f 55/43/3 68/46/16 59/49/7
f 62/48/10 61/47/9 65/51/13
f 62/48/10 65/51/13 66/52/14
f 60/50/8 59/49/7 63/53/11
f 60/50/8 63/53/11 64/54/12
f 67/45/15 62/48/10 66/52/14
f 61/47/9 60/50/8 64/54/12
f 61/47/9 64/54/12 65/51/13
f 59/49/7 68/46/16 63/53/11
f 66/52/14 65/51/13 71/47/19
f 66/52/14 71/47/19 72/48/20
f 64/54/12 63/53/11 69/49/17
f 64/54/12 69/49/17 70/50/18
f 67/45/15 66/52/14 72/48/20
f 65/51/13 64/54/12 70/50/18
f 65/51/13 70/50/18 71/47/19
f 63/53/11 68/46/16 69/49/17
f 72/48/20 71/47/19 75/39/23
f 72/48/20 75/39/23 76/40/24
f 70/50/18 69/49/17 73/43/21
f 70/50/18 73/43/21 74/44/22
f 67/45/15 72/48/20 76/40/24
f 71/47/19 70/50/18 74/44/22
f 71/47/19 74/44/22 75/39/23
f 69/49/17 68/46/16 73/43/21
f 76/40/24 75/39/23 53/38/1
f 76/40/24 53/38/1 54/37/2
f 74/44/22 73/43/21 77/42/25
f 74/44/22 77/42/25 78/41/26
f 67/45/15 76/40/24 54/37/2
f 75/39/23 74/44/22 78/41/26
f 75/39/23 78/41/26 53/38/1
f 73/43/21 68/46/16 77/42/25
f 80/55/2 79/56/1 83/57/5
f 80/55/2 83/57/5 84/58/6
f 104/59/26 103/60/25 81/61/3
f 104/59/26 81/61/3 82/62/4
f 93/63/15 80/55/2 84/58/6
f 79/56/1 104/59/26 82/62/4
f 79/56/1 82/62/4 83/57/5
f 103/60/25 94/64/16 81/61/3
f 84/58/6 83/57/5 87/65/9
f 84/58/6 87/65/9 88/66/10
f 82/62/4 81/61/3 85/67/7
f 82/62/4 85/67/7 86/68/8
f 93/63/15 84/58/6 88/66/10
f 83/57/5 82/62/4 86/68/8
f 83/57/5 86/68/8 87/65/9
f 81/61/3 94/64/16 85/67/7
f 88/66/10 87/65/9 91/69/13
f 88/66/10 91/69/13 92/70/14
f 86/68/8 85/67/7 89/71/11
f 86/68/8 89/71/11 90/72/12
f 93/63/15 88/66/10 92/70/14
f 87/65/9 86/68/8 90/72/12
f 87/65/9 90/72/12 91/69/13
f 85/67/7 94/64/16 89/71/11
f 92/70/14 91/69/13 97/65/19
f 92/70/14 97/65/19 98/66/20
f 90/72/12 89/71/11 95/67/17
f 90/72/12 95/67/17 96/73/18
f 93/63/15 92/70/14 98/66/20
f 91/69/13 90/72/12 96/73/18
f 91/69/13 96/73/18 97/65/19
f 89/71/11 94/64/16 95/67/17
f 98/66/20 97/65/19 101/57/23
f 98/66/20 101/57/23 102/58/24
f 96/73/18 95/67/17 99/61/21
f 96/73/18 99/61/21 100/74/22
f 93/63/15 98/66/20 102/58/24
f 97/65/19 96/73/18 100/74/22
f 97/65/19 100/74/22 101/57/23
f 95/67/17 94/64/16 99/61/21
f 102/58/24 101/57/23 79/56/1
f 102/58/24 79/56/1 80/55/2
f 100/74/22 99/61/21 103/60/25
f 100/74/22 103/60/25 104/59/26
f 93/63/15 102/58/24 80/55/2
f 101/57/23 100/74/22 104/59/26
f 101/57/23 104/59/26 79/56/1
f 99/61/21 94/64/16 103/60/25
f 106/75/2 105/76/1 109/77/5
f 106/75/2 109/77/5 110/78/6
f 130/79/26 129/80/25 107/81/3
f 130/79/26 107/81/3 108/82/4
f 119/83/15 106/75/2 110/78/6
f 105/76/1 130/79/26 108/82/4
f 105/76/1 108/82/4 109/77/5
f 129/80/25 120/84/16 107/81/3
f 110/78/6 109/77/5 113/85/9
f 110/78/6 113/85/9 114/86/10
f 108/82/4 107/81/3 111/87/7
f 108/82/4 111/87/7 112/88/8
f 119/83/15 110/78/6 114/86/10
f 109/77/5 108/82/4 112/88/8
f 109/77/5 112/88/8 113/85/9
f 107/81/3 120/84/16 111/87/7
f 114/86/10 113/85/9 117/89/13
f 114/86/10 117/89/13 118/90/14
f 112/88/8 111/87/7 115/91/11
f 112/88/8 115/91/11 116/92/12
f 119/83/15 114/86/10 118/90/14
f 113/85/9 112/88/8 116/92/12
f 113/85/9 116/92/12 117/89/13
f 111/87/7 120/84/16 115/91/11
f 118/90/14 117/89/13 123/85/19
f 118/90/14 123/85/19 124/86/20
f 116/92/12 115/91/11 121/87/17
f 116/92/12 121/87/17 122/88/18
f 119/83/15 118/90/14 124/86/20
f 117/89/13 116/92/12 122/88/18
f 117/89/13 122/88/18 123/85/19
f 115/91/11 120/84/16 121/87/17
f 124/86/20 123/85/19 127/77/23
f 124/86/20 127/77/23 128/78/24
f 122/88/18 121/87/17 125/81/21
f 122/88/18 125/81/21 126/82/22
f 119/83/15 124/86/20 128/78/24
f 123/85/19 122/88/18 126/82/22
f 123/85/19 126/82/22 127/77/23
f 121/87/17 120/84/16 125/81/21
f 128/78/24 127/77/23 105/76/1
f 128/78/24 105/76/1 106/75/2
f 126/82/22 125/81/21 129/80/25
f 126/82/22 129/80/25 130/79/26
f 119/83/15 128/78/24 106/75/2
f 127/77/23 126/82/22 130/79/26
f 127/77/23 130/79/26 105/76/1
f 125/81/21 120/84/16 129/80/25
f 132/93/2 131/94/1 135/95/5
f 132/93/2 135/95/5 136/96/6
f 156/97/26 155/98/25 133/99/3
f 156/97/26 133/99/3 134/100/4
f 145/101/15 132/93/2 136/96/6
f 131/94/1 156/97/26 134/100/4
f 131/94/1 134/100/4 135/95/5
f 155/98/25 146/102/16 133/99/3
f 136/96/6 135/95/5 139/103/9
f 136/96/6 139/103/9 140/104/10
f 134/100/4 133/99/3 137/105/7
f 134/100/4 137/105/7 138/106/8
f 145/101/15 136/96/6 140/104/10
f 135/95/5 134/100/4 138/106/8
f 135/95/5 138/106/8 139/103/9
f 133/99/3 146/102/16 137/105/7
f 140/104/10 139/103/9 143/107/13
f 140/104/10 143/107/13 144/108/14
f 138/106/8 137/105/7 141/109/11
f 138/106/8 141/109/11 142/110/12
f 145/101/15 140/104/10 144/108/14
f 139/103/9 138/106/8 142/110/12
f 139/103/9 142/110/12 143/107/13
f 137/105/7 146/102/16 141/109/11
f 144/108/14 143/107/13 149/103/19
f 144/108/14 149/103/19 150/104/20
f 142/110/12 141/109/11 147/105/17
f 142/110/12 147/105/17 148/106/18
f 145/101/15 144/108/14 150/104/20
f 143/107/13 142/110/12 148/106/18
f 143/107/13 148/106/18 149/103/19
f 141/109/11 146/102/16 147/105/17
f 150/104/20 149/103/19 153/95/23
f 150/104/20 153/95/23 154/96/24
f 148/106/18 147/105/17 151/99/21
f 148/106/18 151/99/21 152/100/22
f 145/101/15 150/104/20 154/96/24
f 149/103/19 148/106/18 152/100/22
f 149/103/19 152/100/22 153/95/23
f 147/105/17 146/102/16 151/99/21
f 154/96/24 153/95/23 131/94/1
f 154/96/24 131/94/1 132/93/2
f 152/100/22 151/99/21 155/98/25
f 152/100/22 155/98/25 156/97/26
f 145/101/15 154/96/24 132/93/2
f 153/95/23 152/100/22 156/97/26
f 153/95/23 156/97/26 131/94/1
f 151/99/21 146/102/16 155/98/25
f 158/111/2 157/112/1 161/113/5
f 158/111/2 161/113/5 162/114/6
f 182/115/26 181/116/25 159/117/3
f 182/115/26 159/117/3 160/118/4
f 171/119/15 158/111/2 162/114/6
f 157/112/1 182/115/26 160/118/4
f 157/112/1 160/118/4 161/113/5
f 181/116/25 172/120/16 159/117/3
f 162/114/6 161/113/5 165/121/9
f 162/114/6 165/121/9 166/122/10
f 160/118/4 159/117/3 163/123/7
f 160/118/4 163/123/7 164/124/8
f 171/119/15 162/114/6 166/122/10
f 161/113/5 160/118/4 164/124/8
f 161/113/5 164/124/8 165/121/9
f 159/117/3 172/120/16 163/123/7
f 166/122/10 165/121/9 169/125/13
f 166/122/10 169/125/13 170/126/14
f 164/124/8 163/123/7 167/127/11
f 164/124/8 167/127/11 168/128/12
f 171/119/15 166/122/10 170/126/14
f 165/121/9 164/124/8 168/128/12
f 165/121/9 168/128/12 169/125/13
f 163/123/7 172/120/16 167/127/11
f 170/126/14 169/125/13 175/121/19
f 170/126/14 175/121/19 176/122/20
f 168/128/12 167/127/11 173/123/17
f 168/128/12 173/123/17 174/124/18
f 171/119/15 170/126/14 176/122/20
f 169/125/13 168/128/12 174/124/18
f 169/125/13 174/124/18 175/121/19
f 167/127/11 172/120/16 173/123/17
f 176/122/20 175/121/19 179/113/23
f 176/122/20 179/113/23 180/114/24
f 174/124/18 173/123/17 177/117/21
f 174/124/18 177/117/21 178/118/22
f 171/119/15 176/122/20 180/114/24
f 175/121/19 174/124/18 178/118/22
f 175/121/19 178/118/22 179/113/23
f 173/123/17 172/120/16 177/117/21
f 180/114/24 179/113/23 157/112/1
f 180/114/24 157/112/1 158/111/2
f 178/118/22 177/117/21 181/116/25
f 178/118/22 181/116/25 182/115/26
f 171/119/15 180/114/24 158/111/2
f 179/113/23 178/118/22 182/115/26
f 179/113/23 182/115/26 157/112/1
f 177/117/21 172/120/16 181/116/25
f 184/129/2 183/130/1 187/131/5
f 184/129/2 187/131/5 188/132/6
f 208/133/26 207/134/25 185/135/3
f 208/133/26 185/135/3 186/136/4
f 197/137/15 184/129/2 188/132/6
f 183/130/1 208/133/26 186/136/4
f 183/130/1 186/136/4 187/131/5
f 207/134/25 198/138/16 185/135/3
f 188/132/6 187/131/5 191/139/9
f 188/132/6 191/139/9 192/140/10
f 186/136/4 185/135/3 189/141/7
f 186/136/4 189/141/7 190/142/8
f 197/137/15 188/132/6 192/140/10
f 187/131/5 186/136/4 190/142/8
f 187/131/5 190/142/8 191/139/9
f 185/135/3 198/138/16 189/141/7
f 192/140/10 191/139/9 195/143/13
f 192/140/10 195/143/13 196/144/14
f 190/142/8 189/141/7 193/145/11
f 190/142/8 193/145/11 194/146/12
f 197/137/15 192/140/10 196/144/14
f 191/139/9 190/142/8 194/146/12
f 191/139/9 194/146/12 195/143/13
f 189/141/7 198/138/16 193/145/11
f 196/144/14 195/143/13 201/139/19
f 196/144/14 201/139/19 202/140/20
f 194/146/12 193/145/11 199/141/17
f 194/146/12 199/141/17 200/142/18
f 197/137/15 196/144/14 202/140/20
f 195/143/13 194/146/12 200/142/18
f 195/143/13 200/142/18 201/139/19
f 193/145/11 198/138/16 199/141/17
f 202/140/20 201/139/19 205/131/23
f 202/140/20 205/131/23 206/132/24
f 200/142/18 199/141/17 203/135/21
f 200/142/18 203/135/21 204/136/22
f 197/137/15 202/140/20 206/132/24
f 201/139/19 200/142/18 204/136/22
f 201/139/19 204/136/22 205/131/23
f 199/141/17 198/138/16 203/135/21
f 206/132/24 205/131/23 183/130/1
f 206/132/24 183/130/1 184/129/2
f 204/136/22 203/135/21 207/134/25
f 204/136/22 207/134/25 208/133/26
f 197/137/15 206/132/24 184/129/2
f 205/131/23 204/136/22 208/133/26
f 205/131/23 208/133/26 183/130/1
f 203/135/21 198/138/16 207/134/25
f 210/147/2 209/148/1 213/149/5
f 210/147/2 213/149/5 214/150/6
f 234/151/26 233/152/25 211/153/3
f 234/151/26 211/153/3 212/154/4
f 223/155/15 210/147/2 214/150/6
f 209/148/1 234/151/26 212/154/4
f 209/148/1 212/154/4 213/149/5
f 233/152/25 224/156/16 211/153/3
f 214/150/6 213/149/5 217/157/9
f 214/150/6 217/157/9 218/158/10
f 212/154/4 211/153/3 215/159/7
f 212/154/4 215/159/7 216/160/8
f 223/155/15 214/150/6 218/158/10
f 213/149/5 212/154/4 216/160/8
f 213/149/5 216/160/8 217/157/9
f 211/153/3 224/156/16 215/159/7
f 218/158/10 217/157/9 221/161/13
f 218/158/10 221/161/13 222/162/14
f 216/160/8 215/159/7 219/163/11
f 216/160/8 219/163/11 220/164/12
f 223/155/15 218/158/10 222/162/14
f 217/157/9 216/160/8 220/164/12
f 217/157/9 220/164/12 221/161/13
f 215/159/7 224/156/16 219/163/11
f 222/162/14 221/161/13 227/157/19
f 222/162/14 227/157/19 228/158/20
f 220/164/12 219/163/11 225/159/17
f 220/164/12 225/159/17 226/160/18
f 223/155/15 222/162/14 228/158/20
f 221/161/13 220/164/12 226/160/18
f 221/161/13 226/160/18 227/157/19
f 219/163/11 224/156/16 225/159/17
f 228/158/20 227/157/19 231/149/23
f 228/158/20 231/149/23 232/150/24
f 226/160/18 225/159/17 229/153/21
f 226/160/18 229/153/21 230/154/22
f 223/155/15 228/158/20 232/150/24
f 227/157/19 226/160/18 230/154/22
f 227/157/19 230/154/22 231/149/23
f 225/159/17 224/156/16 229/153/21
f 232/150/24 231/149/23 209/148/1
f 232/150/24 209/148/1 210/147/2
f 230/154/22 229/153/21 233/152/25
f 230/154/22 233/152/25 234/151/26
f 223/155/15 232/150/24 210/147/2
f 231/149/23 230/154/22 234/151/26
f 231/149/23 234/151/26 209/148/1
f 229/153/21 224/156/16 233/152/25
f 236/165/2 235/166/1 239/167/5
f 236/165/2 239/167/5 240/168/6
f 260/169/26 259/170/25 237/171/3
f 260/169/26 237/171/3 238/172/4
f 249/173/15 236/165/2 240/168/6
f 235/166/1 260/169/26 238/172/4
f 235/166/1 238/172/4 239/167/5
f 259/170/25 250/174/16 237/171/3
f 240/168/6 239/167/5 243/175/9
f 240/168/6 243/175/9 244/176/10
f 238/172/4 237/171/3 241/177/7
f 238/172/4 241/177/7 242/178/8
f 249/173/15 240/168/6 244/176/10
f 239/167/5 238/172/4 242/178/8
f 239/167/5 242/178/8 243/175/9
f 237/171/3 250/174/16 241/177/7
f 244/176/10 243/175/9 247/179/13
f 244/176/10 247/179/13 248/180/14
f 242/178/8 241/177/7 245/181/11
f 242/178/8 245/181/11 246/182/12
f 249/173/15 244/176/10 248/180/14
f 243/175/9 242/178/8 246/182/12
f 243/175/9 246/182/12 247/179/13
f 241/177/7 250/174/16 245/181/11
f 248/180/14 247/179/13 253/175/19
f 248/180/14 253/175/19 254/176/20
f 246/182/12 245/181/11 251/177/17
f 246/182/12 251/177/17 252/183/18
f 249/173/15 248/180/14 254/176/20
f 247/179/13 246/182/12 252/183/18
f 247/179/13 252/183/18 253/175/19
f 245/181/11 250/174/16 251/177/17
f 254/176/20 253/175/19 257/167/23
f 254/176/20 257/167/23 258/168/24
f 252/183/18 251/177/17 255/171/21
f 252/183/18 255/171/21 256/184/22
f 249/173/15 254/176/20 258/168/24
f 253/175/19 252/183/18 256/184/22
f 253/175/19 256/184/22 257/167/23
f 251/177/17 250/174/16 255/171/21
f 258/168/24 257/167/23 235/166/1
f 258/168/24 235/166/1 236/165/2
f 256/184/22 255/171/21 259/170/25
f 256/184/22 259/170/25 260/169/26
f 249/173/15 258/168/24 236/165/2
f 257/167/23 256/184/22 260/169/26
f 257/167/23 260/169/26 235/166/1
f 255/171/21 250/174/16 259/170/25
f 262/185/2 261/186/1 265/187/5
f 262/185/2 265/187/5 266/188/6
f 286/189/26 285/190/25 263/191/3
f 286/189/26 263/191/3 264/192/4
f 275/193/15 262/185/2 266/188/6
f 261/186/1 286/189/26 264/192/4
f 261/186/1 264/192/4 265/187/5
f 285/190/25 276/194/16 263/191/3
f 266/188/6 265/187/5 269/195/9
f 266/188/6 269/195/9 270/196/10
f 264/192/4 263/191/3 267/197/7
f 264/192/4 267/197/7 268/198/8
f 275/193/15 266/188/6 270/196/10
f 265/187/5 264/192/4 268/198/8
f 265/187/5 268/198/8 269/195/9
f 263/191/3 276/194/16 267/197/7
f 270/196/10 269/195/9 273/199/13
f 270/196/10 273/199/13 274/200/14
f 268/198/8 267/197/7 271/201/11
f 268/198/8 271/201/11 272/202/12
f 275/193/15 270/196/10 274/200/14
f 269/195/9 268/198/8 272/202/12
f 269/195/9 272/202/12 273/199/13
f 267/197/7 276/194/16 271/201/11
f 274/200/14 273/199/13 279/195/19
f 274/200/14 279/195/19 280/196/20
f 272/202/12 271/201/11 277/197/17
f 272/202/12 277/197/17 278/198/18
f 275/193/15 274/200/14 280/196/20
f 273/199/13 272/202/12 278/198/18
f 273/199/13 278/198/18 279/195/19
f 271/201/11 276/194/16 277/197/17
f 280/196/20 279/195/19 283/187/23
f 280/196/20 283/187/23 284/188/24
f 278/198/18 277/197/17 281/191/21
f 278/198/18 281/191/21 282/192/22
f 275/193/15 280/196/20 284/188/24
f 279/195/19 278/198/18 282/192/22
f 279/195/19 282/192/22 283/187/23
f 277/197/17 276/194/16 281/191/21
f 284/188/24 283/187/23 261/186/1
f 284/188/24 261/186/1 262/185/2
f 282/192/22 281/191/21 285/190/25
f 282/192/22 285/190/25 286/189/26
f 275/193/15 284/188/24 262/185/2
f 283/187/23 282/192/22 286/189/26
f 283/187/23 286/189/26 261/186/1
f 281/191/21 276/194/16 285/190/25
f 288/203/2 287/204/1 291/205/5
f 288/203/2 291/205/5 292/206/6
f 312/207/26 311/208/25 289/209/3
f 312/207/26 289/209/3 290/210/4
f 301/211/15 288/203/2 292/206/6
f 287/204/1 312/207/26 290/210/4
f 287/204/1 290/210/4 291/205/5
f 311/208/25 302/212/16 289/209/3
f 292/206/6 291/205/5 295/213/9
f 292/206/6 295/213/9 296/214/10
f 290/210/4 289/209/3 293/215/7
f 290/210/4 293/215/7 294/216/8
f 301/211/15 292/206/6 296/214/10
f 291/205/5 290/210/4 294/216/8
f 291/205/5 294/216/8 295/213/9
f 289/209/3 302/212/16 293/215/7
f 296/214/10 295/213/9 299/217/13
f 296/214/10 299/217/13 300/218/14
f 294/216/8 293/215/7 297/219/11
f 294/216/8 297/219/11 298/220/12
f 301/211/15 296/214/10 300/218/14
f 295/213/9 294/216/8 298/220/12
f 295/213/9 298/220/12 299/217/13
f 293/215/7 302/212/16 297/219/11
f 300/218/14 299/217/13 305/213/19
f 300/218/14 305/213/19 306/214/20
f 298/220/12 297/219/11 303/215/17
f 298/220/12 303/215/17 304/216/18
f 301/211/15 300/218/14 306/214/20
f 299/217/13 298/220/12 304/216/18
f 299/217/13 304/216/18 305/213/19
f 297/219/11 302/212/16 303/215/17
f 306/214/20 305/213/19 309/205/23
f 306/214/20 309/205/23 310/206/24
f 304/216/18 303/215/17 307/209/21
f 304/216/18 307/209/21 308/210/22
f 301/211/15 306/214/20 310/206/24
f 305/213/19 304/216/18 308/210/22
f 305/213/19 308/210/22 309/205/23
f 303/215/17 302/212/16 307/209/21
f 310/206/24 309/205/23 287/204/1
f 310/206/24 287/204/1 288/203/2
f 308/210/22 307/209/21 311/208/25
f 308/210/22 311/208/25 312/207/26
f 301/211/15 310/206/24 288/203/2
f 309/205/23 308/210/22 312/207/26
f 309/205/23 312/207/26 287/204/1
f 307/209/21 302/212/16 311/208/25
f 314/221/2 313/222/1 317/223/5
f 314/221/2 317/223/5 318/224/6
f 338/225/26 337/226/25 315/227/3
f 338/225/26 315/227/3 316/228/4
f 327/229/15 314/221/2 318/224/6
f 313/222/1 338/225/26 316/228/4
f 313/222/1 316/228/4 317/223/5
f 337/226/25 328/230/16 315/227/3
f 318/224/6 317/223/5 321/231/9
f 318/224/6 321/231/9 322/232/10
f 316/228/4 315/227/3 319/233/7
f 316/228/4 319/233/7 320/234/8
f 327/229/15 318/224/6 322/232/10
f 317/223/5 316/228/4 320/234/8
f 317/223/5 320/234/8 321/231/9
f 315/227/3 328/230/16 319/233/7
f 322/232/10 321/231/9 325/235/13
f 322/232/10 325/235/13 326/236/14
f 320/234/8 319/233/7 323/237/11
f 320/234/8 323/237/11 324/238/12
f 327/229/15 322/232/10 326/236/14
f 321/231/9 320/234/8 324/238/12
f 321/231/9 324/238/12 325/235/13
f 319/233/7 328/230/16 323/237/11
f 326/236/14 325/235/13 331/239/19
f 326/236/14 331/239/19 332/232/20
f 324/238/12 323/237/11 329/233/17
f 324/238/12 329/233/17 330/234/18
f 327/229/15 326/236/14 332/232/20
f 325/235/13 324/238/12 330/234/18
f 325/235/13 330/234/18 331/239/19
f 323/237/11 328/230/16 329/233/17
f 332/232/20 331/239/19 335/240/23
f 332/232/20 335/240/23 336/224/24
f 330/234/18 329/233/17 333/227/21
f 330/234/18 333/227/21 334/228/22
f 327/229/15 332/232/20 336/224/24
f 331/239/19 330/234/18 334/228/22
f 331/239/19 334/228/22 335/240/23
f 329/233/17 328/230/16 333/227/21
f 336/224/24 335/240/23 313/222/1
f 336/224/24 313/222/1 314/221/2
f 334/228/22 333/227/21 337/226/25
f 334/228/22 337/226/25 338/225/26
f 327/229/15 336/224/24 314/221/2
f 335/240/23 334/228/22 338/225/26
f 335/240/23 338/225/26 313/222/1
f 333/227/21 328/230/16 337/226/25
f 340/241/2 339/242/1 343/243/5
f 340/241/2 343/243/5 344/244/6
f 364/245/26 363/246/25 341/247/3
f 364/245/26 341/247/3 342/248/4
f 353/249/15 340/241/2 344/244/6
f 339/242/1 364/245/26 342/248/4
f 339/242/1 342/248/4 343/243/5
f 363/246/25 354/250/16 341/247/3
f 344/244/6 343/243/5 347/251/9
f 344/244/6 347/251/9 348/252/10
f 342/248/4 341/247/3 345/253/7
f 342/248/4 345/253/7 346/254/8
f 353/249/15 344/244/6 348/252/10
f 343/243/5 342/248/4 346/254/8
f 343/243/5 346/254/8 347/251/9
f 341/247/3 354/250/16 345/253/7
f 348/252/10 347/251/9 351/255/13
f 348/252/10 351/255/13 352/256/14
f 346/254/8 345/253/7 349/257/11
f 346/254/8 349/257/11 350/258/12
f 353/249/15 348/252/10 352/256/14
f 347/251/9 346/254/8 350/258/12
f 347/251/9 350/258/12 351/255/13
f 345/253/7 354/250/16 349/257/11
f 352/256/14 351/255/13 357/251/19
f 352/256/14 357/251/19 358/252/20
f 350/258/12 349/257/11 355/253/17
f 350/258/12 355/253/17 356/254/18
f 353/249/15 352/256/14 358/252/20
f 351/255/13 350/258/12 356/254/18
f 351/255/13 356/254/18 357/251/19
f 349/257/11 354/250/16 355/253/17
f 358/252/20 357/251/19 361/243/23
f 358/252/20 361/243/23 362/244/24
f 356/254/18 355/253/17 359/247/21
f 356/254/18 359/247/21 360/248/22
f 353/249/15 358/252/20 362/244/24
f 357/251/19 356/254/18 360/248/22
f 357/251/19 360/248/22 361/243/23
f 355/253/17 354/250/16 359/247/21
f 362/244/24 361/243/23 339/242/1
f 362/244/24 339/242/1 340/241/2
f 360/248/22 359/247/21 363/246/25
f 360/248/22 363/246/25 364/245/26
f 353/249/15 362/244/24 340/241/2
f 361/243/23 360/248/22 364/245/26
f 361/243/23 364/245/26 339/242/1
f 359/247/21 354/250/16 363/246/25
f 366/259/2 365/260/1 369/261/5
f 366/259/2 369/261/5 370/262/6
f 390/263/26 389/264/25 367/265/3
f 390/263/26 367/265/3 368/266/4
f 379/267/15 366/259/2 370/262/6
f 365/260/1 390/263/26 368/266/4
f 365/260/1 368/266/4 369/261/5
f 389/264/25 380/268/16 367/265/3
f 370/262/6 369/261/5 373/269/9
f 370/262/6 373/269/9 374/270/10
f 368/266/4 367/265/3 371/271/7
f 368/266/4 371/271/7 372/272/8
f 379/267/15 370/262/6 374/270/10
f 369/261/5 368/266/4 372/272/8
f 369/261/5 372/272/8 373/269/9
f 367/265/3 380/268/16 371/271/7
f 374/270/10 373/269/9 377/273/13
f 374/270/10 377/273/13 378/274/14
f 372/272/8 371/271/7 375/275/11
f 372/272/8 375/275/11 376/276/12
f 379/267/15 374/270/10 378/274/14
f 373/269/9 372/272/8 376/276/12
f 373/269/9 376/276/12 377/273/13
f 371/271/7 380/268/16 375/275/11
f 378/274/14 377/273/13 383/269/19
f 378/274/14 383/269/19 384/270/20
f 376/276/12 375/275/11 381/271/17
f 376/276/12 381/271/17 382/272/18
f 379/267/15 378/274/14 384/270/20
f 377/273/13 376/276/12 382/272/18
f 377/273/13 382/272/18 383/269/19
f 375/275/11 380/268/16 381/271/17
f 384/270/20 383/269/19 387/261/23
f 384/270/20 387/261/23 388/262/24
f 382/272/18 381/271/17 385/265/21
f 382/272/18 385/265/21 386/266/22
f 379/267/15 384/270/20 388/262/24
f 383/269/19 382/272/18 386/266/22
f 383/269/19 386/266/22 387/261/23
f 381/271/17 380/268/16 385/265/21
f 388/262/24 387/261/23 365/260/1
f 388/262/24 365/260/1 366/259/2
f 386/266/22 385/265/21 389/264/25
f 386/266/22 389/264/25 390/263/26
f 379/267/15 388/262/24 366/259/2
f 387/261/23 386/266/22 390/263/26
f 387/261/23 390/263/26 365/260/1
f 385/265/21 380/268/16 389/264/25
f 392/277/2 391/278/1 395/279/5
f 392/277/2 395/279/5 396/280/6
f 416/281/26 415/282/25 393/283/3
f 416/281/26 393/283/3 394/284/4
f 405/285/15 392/277/2 396/280/6
f 391/278/1 416/281/26 394/284/4
f 391/278/1 394/284/4 395/279/5
f 415/282/25 406/286/16 393/283/3
f 396/280/6 395/279/5 399/287/9
f 396/280/6 399/287/9 400/288/10
f 394/284/4 393/283/3 397/289/7
f 394/284/4 397/289/7 398/290/8
f 405/285/15 396/280/6 400/288/10
f 395/279/5 394/284/4 398/290/8
f 395/279/5 398/290/8 399/287/9
f 393/283/3 406/286/16 397/289/7
f 400/288/10 399/287/9 403/291/13
f 400/288/10 403/291/13 404/292/14
f 398/290/8 397/289/7 401/293/11
f 398/290/8 401/293/11 402/294/12
f 405/285/15 400/288/10 404/292/14
f 399/287/9 398/290/8 402/294/12
f 399/287/9 402/294/12 403/291/13
f 397/289/7 406/286/16 401/293/11
f 404/292/14 403/291/13 409/287/19
f 404/292/14 409/287/19 410/288/20
f 402/294/12 401/293/11 407/289/17
f 402/294/12 407/289/17 408/290/18
f 405/285/15 404/292/14 410/288/20
f 403/291/13 402/294/12 408/290/18
f 403/291/13 408/290/18 409/287/19
f 401/293/11 406/286/16 407/289/17
f 410/288/20 409/287/19 413/295/23
f 410/288/20 413/295/23 414/280/24
f 408/290/18 407/289/17 411/283/21
f 408/290/18 411/283/21 412/296/22
f 405/285/15 410/288/20 414/280/24
f 409/287/19 408/290/18 412/296/22
f 409/287/19 412/296/22 413/295/23
f 407/289/17 406/286/16 411/283/21
f 414/280/24 413/295/23 391/278/1
f 414/280/24 391/278/1 392/277/2
f 412/296/22 411/283/21 415/282/25
f 412/296/22 415/282/25 416/281/26
f 405/285/15 414/280/24 392/277/2
f 413/295/23 412/296/22 416/281/26
f 413/295/23 416/281/26 391/278/1
f 411/283/21 406/286/16 415/282/25
f 418/297/2 417/298/1 421/299/5
f 418/297/2 421/299/5 422/300/6
f 442/301/26 441/302/25 419/303/3
f 442/301/26 419/303/3 420/304/4
f 431/305/15 418/297/2 422/300/6
f 417/298/1 442/301/26 420/304/4
f 417/298/1 420/304/4 421/299/5
f 441/302/25 432/306/16 419/303/3
f 422/300/6 421/299/5 425/307/9
f 422/300/6 425/307/9 426/308/10
f 420/304/4 419/303/3 423/309/7
f 420/304/4 423/309/7 424/310/8
f 431/305/15 422/300/6 426/308/10
f 421/299/5 420/304/4 424/310/8
f 421/299/5 424/310/8 425/307/9
f 419/303/3 432/306/16 423/309/7
f 426/308/10 425/307/9 429/311/13
f 426/308/10 429/311/13 430/312/14
f 424/310/8 423/309/7 427/313/11
f 424/310/8 427/313/11 428/314/12
f 431/305/15 426/308/10 430/312/14
f 425/307/9 424/310/8 428/314/12
f 425/307/9 428/314/12 429/311/13
f 423/309/7 432/306/16 427/313/11
f 430/312/14 429/311/13 435/307/19
f 430/312/14 435/307/19 436/308/20
f 428/314/12 427/313/11 433/309/17
f 428/314/12 433/309/17 434/310/18
f 431/305/15 430/312/14 436/308/20
f 429/311/13 428/314/12 434/310/18
f 429/311/13 434/310/18 435/307/19
f 427/313/11 432/306/16 433/309/17
f 436/308/20 435/307/19 439/299/23
f 436/308/20 439/299/23 440/300/24
f 434/310/18 433/309/17 437/303/21
f 434/310/18 437/303/21 438/304/22
f 431/305/15 436/308/20 440/300/24
f 435/307/19 434/310/18 438/304/22
f 435/307/19 438/304/22 439/299/23
f 433/309/17 432/306/16 437/303/21
f 440/300/24 439/299/23 417/298/1
f 440/300/24 417/298/1 418/297/2
f 438/304/22 437/303/21 441/302/25
f 438/304/22 441/302/25 442/301/26
f 431/305/15 440/300/24 418/297/2
f 439/299/23 438/304/22 442/301/26
f 439/299/23 442/301/26 417/298/1
f 437/303/21 432/306/16 441/302/25
f 444/315/2 443/316/1 447/317/5
f 444/315/2 447/317/5 448/318/6
f 468/319/26 467/320/25 445/321/3
f 468/319/26 445/321/3 446/322/4
f 457/323/15 444/315/2 448/318/6
f 443/316/1 468/319/26 446/322/4
f 443/316/1 446/322/4 447/317/5
f 467/320/25 458/324/16 445/321/3
f 448/318/6 447/317/5 451/325/9
f 448/318/6 451/325/9 452/326/10
f 446/322/4 445/321/3 449/327/7
f 446/322/4 449/327/7 450/328/8
f 457/323/15 448/318/6 452/326/10
f 447/317/5 446/322/4 450/328/8
f 447/317/5 450/328/8 451/325/9
f 445/321/3 458/324/16 449/327/7
f 452/326/10 451/325/9 455/329/13
f 452/326/10 455/329/13 456/330/14
f 450/328/8 449/327/7 453/331/11
f 450/328/8 453/331/11 454/332/12
f 457/323/15 452/326/10 456/330/14
f 451/325/9 450/328/8 454/332/12
f 451/325/9 454/332/12 455/329/13
f 449/327/7 458/324/16 453/331/11
f 456/330/14 455/329/13 461/325/19
f 456/330/14 461/325/19 462/326/20
f 454/332/12 453/331/11 459/327/17
f 454/332/12 459/327/17 460/328/18
f 457/323/15 456/330/14 462/326/20
f 455/329/13 454/332/12 460/328/18
f 455/329/13 460/328/18 461/325/19
f 453/331/11 458/324/16 459/327/17
f 462/326/20 461/325/19 465/317/23
f 462/326/20 465/317/23 466/318/24
f 460/328/18 459/327/17 463/321/21
f 460/328/18 463/321/21 464/322/22
f 457/323/15 462/326/20 466/318/24
f 461/325/19 460/328/18 464/322/22
f 461/325/19 464/322/22 465/317/23
f 459/327/17 458/324/16 463/321/21
f 466/318/24 465/317/23 443/316/1
f 466/318/24 443/316/1 444/315/2
f 464/322/22 463/321/21 467/320/25
f 464/322/22 467/320/25 468/319/26
f 457/323/15 466/318/24 444/315/2
f 465/317/23 464/322/22 468/319/26
f 465/317/23 468/319/26 443/316/1
f 463/321/21 458/324/16 467/320/25
f 470/333/2 469/334/1 473/335/5
f 470/333/2 473/335/5 474/336/6
f 494/337/26 493/338/25 471/339/3
f 494/337/26 471/339/3 472/340/4
f 483/341/15 470/333/2 474/336/6
f 469/334/1 494/337/26 472/340/4
f 469/334/1 472/340/4 473/335/5
f 493/338/25 484/342/16 471/339/3
f 474/336/6 473/335/5 477/343/9
f 474/336/6 477/343/9 478/344/10
f 472/340/4 471/339/3 475/345/7
f 472/340/4 475/345/7 476/346/8
f 483/341/15 474/336/6 478/344/10
f 473/335/5 472/340/4 476/346/8
f 473/335/5 476/346/8 477/343/9
f 471/339/3 484/342/16 475/345/7
f 478/344/10 477/343/9 481/347/13
f 478/344/10 481/347/13 482/348/14
f 476/346/8 475/345/7 479/349/11
f 476/346/8 479/349/11 480/350/12
f 483/341/15 478/344/10 482/348/14
f 477/343/9 476/346/8 480/350/12
f 477/343/9 480/350/12 481/347/13
f 475/345/7 484/342/16 479/349/11
f 482/348/14 481/347/13 487/343/19
f 482/348/14 487/343/19 488/344/20
f 480/350/12 479/349/11 485/345/17
f 480/350/12 485/345/17 486/346/18
f 483/341/15 482/348/14 488/344/20
f 481/347/13 480/350/12 486/346/18
f 481/347/13 486/346/18 487/343/19
f 479/349/11 484/342/16 485/345/17
f 488/344/20 487/343/19 491/335/23
f 488/344/20 491/335/23 492/336/24
f 486/346/18 485/345/17 489/339/21
f 486/346/18 489/339/21 490/340/22
f 483/341/15 488/344/20 492/336/24
f 487/343/19 486/346/18 490/340/22
f 487/343/19 490/340/22 491/335/23
f 485/345/17 484/342/16 489/339/21
f 492/336/24 491/335/23 469/334/1
f 492/336/24 469/334/1 470/333/2
f 490/340/22 489/339/21 493/338/25
f 490/340/22 493/338/25 494/337/26
f 483/341/15 492/336/24 470/333/2
f 491/335/23 490/340/22 494/337/26
f 491/335/23 494/337/26 469/334/1
f 489/339/21 484/342/16 493/338/25
f 496/351/2 495/352/1 499/353/5
f 496/351/2 499/353/5 500/354/6
f 520/355/26 519/356/25 497/357/3
f 520/355/26 497/357/3 498/358/4
f 509/359/15 496/351/2 500/354/6
f 495/352/1 520/355/26 498/358/4
f 495/352/1 498/358/4 499/353/5
f 519/356/25 510/360/16 497/357/3
f 500/354/6 499/353/5 503/361/9
f 500/354/6 503/361/9 504/362/10
f 498/358/4 497/357/3 501/363/7
f 498/358/4 501/363/7 502/364/8
f 509/359/15 500/354/6 504/362/10
f 499/353/5 498/358/4 502/364/8
f 499/353/5 502/364/8 503/361/9
f 497/357/3 510/360/16 501/363/7
f 504/362/10 503/361/9 507/365/13
f 504/362/10 507/365/13 508/366/14
f 502/364/8 501/363/7 505/367/11
f 502/364/8 505/367/11 506/368/12
f 509/359/15 504/362/10 508/366/14
f 503/361/9 502/364/8 506/368/12
f 503/361/9 506/368/12 507/365/13
f 501/363/7 510/360/16 505/367/11
f 508/366/14 507/365/13 513/361/19
f 508/366/14 513/361/19 514/362/20
f 506/368/12 505/367/11 511/363/17
f 506/368/12 511/363/17 512/364/18
f 509/359/15 508/366/14 514/362/20
f 507/365/13 506/368/12 512/364/18
f 507/365/13 512/364/18 513/361/19
f 505/367/11 510/360/16 511/363/17
f 514/362/20 513/361/19 517/353/23
f 514/362/20 517/353/23 518/354/24
f 512/364/18 511/363/17 515/357/21
f 512/364/18 515/357/21 516/358/22
f 509/359/15 514/362/20 518/354/24
f 513/361/19 512/364/18 516/358/22
f 513/361/19 516/358/22 517/353/23
f 511/363/17 510/360/16 515/357/21
f 518/354/24 517/353/23 495/352/1
f 518/354/24 495/352/1 496/351/2
f 516/358/22 515/357/21 519/356/25
f 516/358/22 519/356/25 520/355/26
f 509/359/15 518/354/24 496/351/2
f 517/353/23 516/358/22 520/355/26
f 517/353/23 520/355/26 495/352/1
f 515/357/21 510/360/16 519/356/25
f 522/369/2 521/370/1 525/371/5
f 522/369/2 525/371/5 526/372/6
f 546/373/26 545/374/25 523/375/3
f 546/373/26 523/375/3 524/376/4
f 535/377/15 522/369/2 526/372/6
f 521/370/1 546/373/26 524/376/4
f 521/370/1 524/376/4 525/371/5
f 545/374/25 536/378/16 523/375/3
f 526/372/6 525/371/5 529/379/9
f 526/372/6 529/379/9 530/380/10
f 524/376/4 523/375/3 527/381/7
f 524/376/4 527/381/7 528/382/8
f 535/377/15 526/372/6 530/380/10
f 525/371/5 524/376/4 528/382/8
f 525/371/5 528/382/8 529/379/9
f 523/375/3 536/378/16 527/381/7
f 530/380/10 529/379/9 533/383/13
f 530/380/10 533/383/13 534/384/14
f 528/382/8 527/381/7 531/385/11
f 528/382/8 531/385/11 532/386/12
f 535/377/15 530/380/10 534/384/14
f 529/379/9 528/382/8 532/386/12
f 529/379/9 532/386/12 533/383/13
f 527/381/7 536/378/16 531/385/11
f 534/384/14 533/383/13 539/379/19
f 534/384/14 539/379/19 540/380/20
f 532/386/12 531/385/11 537/381/17
f 532/386/12 537/381/17 538/382/18
f 535/377/15 534/384/14 540/380/20
f 533/383/13 532/386/12 538/382/18
f 533/383/13 538/382/18 539/379/19
f 531/385/11 536/378/16 537/381/17
f 540/380/20 539/379/19 543/371/23
f 540/380/20 543/371/23 544/372/24
f 538/382/18 537/381/17 541/375/21
f 538/382/18 541/375/21 542/376/22
f 535/377/15 540/380/20 544/372/24
f 539/379/19 538/382/18 542/376/22
f 539/379/19 542/376/22 543/371/23
f 537/381/17 536/378/16 541/375/21
f 544/372/24 543/371/23 521/370/1
f 544/372/24 521/370/1 522/369/2
f 542/376/22 541/375/21 545/374/25
f 542/376/22 545/374/25 546/373/26
f 535/377/15 544/372/24 522/369/2
f 543/371/23 542/376/22 546/373/26
f 543/371/23 546/373/26 521/370/1
f 541/375/21 536/378/16 545/374/25
f 548/387/2 547/388/1 551/389/5
f 548/387/2 551/389/5 552/390/6
f 572/391/26 571/392/25 549/393/3
f 572/391/26 549/393/3 550/394/4
f 561/395/15 548/387/2 552/390/6
f 547/388/1 572/391/26 550/394/4
f 547/388/1 550/394/4 551/389/5
f 571/392/25 562/396/16 549/393/3
f 552/390/6 551/389/5 555/397/9
f 552/390/6 555/397/9 556/398/10
f 550/394/4 549/393/3 553/399/7
f 550/394/4 553/399/7 554/400/8
f 561/395/15 552/390/6 556/398/10
f 551/389/5 550/394/4 554/400/8
f 551/389/5 554/400/8 555/397/9
f 549/393/3 562/396/16 553/399/7
f 556/398/10 555/397/9 559/401/13
f 556/398/10 559/401/13 560/402/14
f 554/400/8 553/399/7 557/403/11
f 554/400/8 557/403/11 558/404/12
f 561/395/15 556/398/10 560/402/14
f 555/397/9 554/400/8 558/404/12
f 555/397/9 558/404/12 559/401/13
f 553/399/7 562/396/16 557/403/11
f 560/402/14 559/401/13 565/397/19
f 560/402/14 565/397/19 566/398/20
f 558/404/12 557/403/11 563/399/17
f 558/404/12 563/399/17 564/400/18
f 561/395/15 560/402/14 566/398/20
f 559/401/13 558/404/12 564/400/18
f 559/401/13 564/400/18 565/397/19
f 557/403/11 562/396/16 563/399/17
f 566/398/20 565/397/19 569/389/23
f 566/398/20 569/389/23 570/390/24
f 564/400/18 563/399/17 567/393/21
f 564/400/18 567/393/21 568/394/22
f 561/395/15 566/398/20 570/390/24
f 565/397/19 564/400/18 568/394/22
f 565/397/19 568/394/22 569/389/23
f 563/399/17 562/396/16 567/393/21
f 570/390/24 569/389/23 547/388/1
f 570/390/24 547/388/1 548/387/2
f 568/394/22 567/393/21 571/392/25
f 568/394/22 571/392/25 572/391/26
f 561/395/15 570/390/24 548/387/2
f 569/389/23 568/394/22 572/391/26
f 569/389/23 572/391/26 547/388/1
f 567/393/21 562/396/16 571/392/25
f 574/405/2 573/406/1 577/407/5
f 574/405/2 577/407/5 578/408/6
f 598/409/26 597/410/25 575/411/3
f 598/409/26 575/411/3 576/412/4
f 587/413/15 574/405/2 578/408/6
f 573/406/1 598/409/26 576/412/4
f 573/406/1 576/412/4 577/407/5
f 597/410/25 588/414/16 575/411/3
f 578/408/6 577/407/5 581/415/9
f 578/408/6 581/415/9 582/416/10
f 576/412/4 575/411/3 579/417/7
f 576/412/4 579/417/7 580/418/8
f 587/413/15 578/408/6 582/416/10
f 577/407/5 576/412/4 580/418/8
f 577/407/5 580/418/8 581/415/9
f 575/411/3 588/414/16 579/417/7
f 582/416/10 581/415/9 585/419/13
f 582/416/10 585/419/13 586/420/14
f 580/418/8 579/417/7 583/421/11
f 580/418/8 583/421/11 584/422/12
f 587/413/15 582/416/10 586/420/14
f 581/415/9 580/418/8 584/422/12
f 581/415/9 584/422/12 585/419/13
f 579/417/7 588/414/16 583/421/11
f 586/420/14 585/419/13 591/415/19
f 586/420/14 591/415/19 592/416/20
f 584/422/12 583/421/11 589/417/17
f 584/422/12 589/417/17 590/418/18
f 587/413/15 586/420/14 592/416/20
f 585/419/13 584/422/12 590/418/18
f 585/419/13 590/418/18 591/415/19
f 583/421/11 588/414/16 589/417/17
f 592/416/20 591/415/19 595/407/23
f 592/416/20 595/407/23 596/408/24
f 590/418/18 589/417/17 593/411/21
f 590/418/18 593/411/21 594/412/22
f 587/413/15 592/416/20 596/408/24
f 591/415/19 590/418/18 594/412/22
f 591/415/19 594/412/22 595/407/23
f 589/417/17 588/414/16 593/411/21
f 596/408/24 595/407/23 573/406/1
f 596/408/24 573/406/1 574/405/2
f 594/412/22 593/411/21 597/410/25
f 594/412/22 597/410/25 598/409/26
f 587/413/15 596/408/24 574/405/2
f 595/407/23 594/412/22 598/409/26
f 595/407/23 598/409/26 573/406/1
f 593/411/21 588/414/16 597/410/25
f 600/423/2 599/424/1 603/425/5
f 600/423/2 603/425/5 604/426/6
f 624/427/26 623/428/25 601/429/3
f 624/427/26 601/429/3 602/430/4
f 613/431/15 600/423/2 604/426/6
f 599/424/1 624/427/26 602/430/4
f 599/424/1 602/430/4 603/425/5
f 623/428/25 614/432/16 601/429/3
f 604/426/6 603/425/5 607/433/9
f 604/426/6 607/433/9 608/434/10
f 602/430/4 601/429/3 605/435/7
f 602/430/4 605/435/7 606/436/8
f 613/431/15 604/426/6 608/434/10
f 603/425/5 602/430/4 606/436/8
f 603/425/5 606/436/8 607/433/9
f 601/429/3 614/432/16 605/435/7
f 608/434/10 607/433/9 611/437/13
f 608/434/10 611/437/13 612/438/14
f 606/436/8 605/435/7 609/439/11
f 606/436/8 609/439/11 610/440/12
f 613/431/15 608/434/10 612/438/14
f 607/433/9 606/436/8 610/440/12
f 607/433/9 610/440/12 611/437/13
f 605/435/7 614/432/16 609/439/11
f 612/438/14 611/437/13 617/433/19
f 612/438/14 617/433/19 618/434/20
f 610/440/12 609/439/11 615/435/17
f 610/440/12 615/435/17 616/436/18
f 613/431/15 612/438/14 618/434/20
f 611/437/13 610/440/12 616/436/18
f 611/437/13 616/436/18 617/433/19
f 609/439/11 614/432/16 615/435/17
f 618/434/20 617/433/19 621/425/23
f 618/434/20 621/425/23 622/426/24
f 616/436/18 615/435/17 619/429/21
f 616/436/18 619/429/21 620/430/22
f 613/431/15 618/434/20 622/426/24
f 617/433/19 616/436/18 620/430/22
f 617/433/19 620/430/22 621/425/23
f 615/435/17 614/432/16 619/429/21
f 622/426/24 621/425/23 599/424/1
f 622/426/24 599/424/1 600/423/2
f 620/430/22 619/429/21 623/428/25
f 620/430/22 623/428/25 624/427/26
f 613/431/15 622/426/24 600/423/2
f 621/425/23 620/430/22 624/427/26
f 621/425/23 624/427/26 599/424/1
f 619/429/21 614/432/16 623/428/25
f 626/441/2 625/442/1 629/443/5
f 626/441/2 629/443/5 630/444/6
f 650/445/26 649/446/25 627/447/3
f 650/445/26 627/447/3 628/448/4
f 639/449/15 626/441/2 630/444/6
f 625/442/1 650/445/26 628/448/4
f 625/442/1 628/448/4 629/443/5
f 649/446/25 640/450/16 627/447/3
f 630/444/6 629/443/5 633/451/9
f 630/444/6 633/451/9 634/452/10
f 628/448/4 627/447/3 631/453/7
f 628/448/4 631/453/7 632/454/8
f 639/449/15 630/444/6 634/452/10
f 629/443/5 628/448/4 632/454/8
f 629/443/5 632/454/8 633/451/9
f 627/447/3 640/450/16 631/453/7
f 634/452/10 633/451/9 637/455/13
f 634/452/10 637/455/13 638/456/14
f 632/454/8 631/453/7 635/457/11
f 632/454/8 635/457/11 636/458/12
f 639/449/15 634/452/10 638/456/14
f 633/451/9 632/454/8 636/458/12
f 633/451/9 636/458/12 637/455/13
f 631/453/7 640/450/16 635/457/11
f 638/456/14 637/455/13 643/451/19
f 638/456/14 643/451/19 644/452/20
f 636/458/12 635/457/11 641/453/17
f 636/458/12 641/453/17 642/454/18
f 639/449/15 638/456/14 644/452/20
f 637/455/13 636/458/12 642/454/18
f 637/455/13 642/454/18 643/451/19
f 635/457/11 640/450/16 641/453/17
f 644/452/20 643/451/19 647/443/23
f 644/452/20 647/443/23 648/444/24
f 642/454/18 641/453/17 645/447/21
f 642/454/18 645/447/21 646/448/22
f 639/449/15 644/452/20 648/444/24
f 643/451/19 642/454/18 646/448/22
f 643/451/19 646/448/22 647/443/23
f 641/453/17 640/450/16 645/447/21
f 648/444/24 647/443/23 625/442/1
f 648/444/24 625/442/1 626/441/2
f 646/448/22 645/447/21 649/446/25
f 646/448/22 649/446/25 650/445/26
f 639/449/15 648/444/24 626/441/2
f 647/443/23 646/448/22 650/445/26
f 647/443/23 650/445/26 625/442/1
f 645/447/21 640/450/16 649/446/25
f 652/459/2 651/460/1 655/461/5
f 652/459/2 655/461/5 656/462/6
f 676/463/26 675/464/25 653/465/3
f 676/463/26 653/465/3 654/466/4
f 665/467/15 652/459/2 656/462/6
f 651/460/1 676/463/26 654/466/4
f 651/460/1 654/466/4 655/461/5
f 675/464/25 666/468/16 653/465/3
f 656/462/6 655/461/5 659/469/9
f 656/462/6 659/469/9 660/470/10
f 654/466/4 653/465/3 657/471/7
f 654/466/4 657/471/7 658/472/8
f 665/467/15 656/462/6 660/470/10
f 655/461/5 654/466/4 658/472/8
f 655/461/5 658/472/8 659/469/9
f 653/465/3 666/468/16 657/471/7
f 660/470/10 659/469/9 663/473/13
f 660/470/10 663/473/13 664/474/14
f 658/472/8 657/471/7 661/475/11
f 658/472/8 661/475/11 662/476/12
f 665/467/15 660/470/10 664/474/14
f 659/469/9 658/472/8 662/476/12
f 659/469/9 662/476/12 663/473/13
f 657/471/7 666/468/16 661/475/11
f 664/474/14 663/473/13 669/469/19
f 664/474/14 669/469/19 670/470/20
f 662/476/12 661/475/11 667/471/17
f 662/476/12 667/471/17 668/472/18
f 665/467/15 664/474/14 670/470/20
f 663/473/13 662/476/12 668/472/18
f 663/473/13 668/472/18 669/469/19
f 661/475/11 666/468/16 667/471/17
f 670/470/20 669/469/19 673/461/23
f 670/470/20 673/461/23 674/462/24
f 668/472/18 667/471/17 671/465/21
f 668/472/18 671/465/21 672/466/22
f 665/467/15 670/470/20 674/462/24
f 669/469/19 668/472/18 672/466/22
f 669/469/19 672/466/22 673/461/23
f 667/471/17 666/468/16 671/465/21
f 674/462/24 673/461/23 651/460/1
f 674/462/24 651/460/1 652/459/2
f 672/466/22 671/465/21 675/464/25
f 672/466/22 675/464/25 676/463/26
f 665/467/15 674/462/24 652/459/2
f 673/461/23 672/466/22 676/463/26
f 673/461/23 676/463/26 651/460/1
f 671/465/21 666/468/16 675/464/25
f 678/477/2 677/478/1 681/479/5
f 678/477/2 681/479/5 682/480/6
f 702/481/26 701/482/25 679/483/3
f 702/481/26 679/483/3 680/484/4
f 691/485/15 678/477/2 682/480/6
f 677/478/1 702/481/26 680/484/4
f 677/478/1 680/484/4 681/479/5
f 701/482/25 692/486/16 679/483/3
f 682/480/6 681/479/5 685/487/9
f 682/480/6 685/487/9 686/488/10
f 680/484/4 679/483/3 683/489/7
f 680/484/4 683/489/7 684/490/8
f 691/485/15 682/480/6 686/488/10
f 681/479/5 680/484/4 684/490/8
f 681/479/5 684/490/8 685/487/9
f 679/483/3 692/486/16 683/489/7
f 686/488/10 685/487/9 689/491/13
f 686/488/10 689/491/13 690/492/14
f 684/490/8 683/489/7 687/493/11
f 684/490/8 687/493/11 688/494/12
f 691/485/15 686/488/10 690/492/14
f 685/487/9 684/490/8 688/494/12
f 685/487/9 688/494/12 689/491/13
f 683/489/7 692/486/16 687/493/11
f 690/492/14 689/491/13 695/487/19
f 690/492/14 695/487/19 696/488/20
f 688/494/12 687/493/11 693/489/17
f 688/494/12 693/489/17 694/490/18
f 691/485/15 690/492/14 696/488/20
f 689/491/13 688/494/12 694/490/18
f 689/491/13 694/490/18 695/487/19
f 687/493/11 692/486/16 693/489/17
f 696/488/20 695/487/19 699/479/23
f 696/488/20 699/479/23 700/480/24
f 694/490/18 693/489/17 697/483/21
f 694/490/18 697/483/21 698/484/22
f 691/485/15 696/488/20 700/480/24
f 695/487/19 694/490/18 698/484/22
f 695/487/19 698/484/22 699/479/23
f 693/489/17 692/486/16 697/483/21
f 700/480/24 699/479/23 677/478/1
f 700/480/24 677/478/1 678/477/2
f 698/484/22 697/483/21 701/482/25
f 698/484/22 701/482/25 702/481/26
f 691/485/15 700/480/24 678/477/2
f 699/479/23 698/484/22 702/481/26
f 699/479/23 702/481/26 677/478/1
f 697/483/21 692/486/16 701/482/25
f 704/495/2 703/496/1 707/497/5
f 704/495/2 707/497/5 708/498/6
f 728/499/26 727/500/25 705/501/3
f 728/499/26 705/501/3 706/502/4
f 717/503/15 704/495/2 708/498/6
f 703/496/1 728/499/26 706/502/4
f 703/496/1 706/502/4 707/497/5
f 727/500/25 718/504/16 705/501/3
f 708/498/6 707/497/5 711/505/9
f 708/498/6 711/505/9 712/506/10
f 706/502/4 705/501/3 709/507/7
f 706/502/4 709/507/7 710/508/8
f 717/503/15 708/498/6 712/506/10
f 707/497/5 706/502/4 710/508/8
f 707/497/5 710/508/8 711/505/9
f 705/501/3 718/504/16 709/507/7
f 712/506/10 711/505/9 715/509/13
f 712/506/10 715/509/13 716/510/14
f 710/508/8 709/507/7 713/511/11
f 710/508/8 713/511/11 714/512/12
f 717/503/15 712/506/10 716/510/14
f 711/505/9 710/508/8 714/512/12
f 711/505/9 714/512/12 715/509/13
f 709/507/7 718/504/16 713/511/11
f 716/510/14 715/509/13 721/505/19
f 716/510/14 721/505/19 722/506/20
f 714/512/12 713/511/11 719/507/17
f 714/512/12 719/507/17 720/508/18
f 717/503/15 716/510/14 722/506/20
f 715/509/13 714/512/12 720/508/18
f 715/509/13 720/508/18 721/505/19
f 713/511/11 718/504/16 719/507/17
f 722/506/20 721/505/19 725/497/23
f 722/506/20 725/497/23 726/498/24
f 720/508/18 719/507/17 723/501/21
f 720/508/18 723/501/21 724/502/22
f 717/503/15 722/506/20 726/498/24
f 721/505/19 720/508/18 724/502/22
f 721/505/19 724/502/22 725/497/23
f 719/507/17 718/504/16 723/501/21
f 726/498/24 725/497/23 703/496/1
f 726/498/24 703/496/1 704/495/2
f 724/502/22 723/501/21 727/500/25
f 724/502/22 727/500/25 728/499/26
f 717/503/15 726/498/24 704/495/2
f 725/497/23 724/502/22 728/499/26
f 725/497/23 728/499/26 703/496/1
f 723/501/21 718/504/16 727/500/25
f 730/513/2 729/514/1 733/515/5
f 730/513/2 733/515/5 734/516/6
f 754/517/26 753/518/25 731/519/3
f 754/517/26 731/519/3 732/520/4
f 743/521/15 730/513/2 734/516/6
f 729/514/1 754/517/26 732/520/4
f 729/514/1 732/520/4 733/515/5
f 753/518/25 744/522/16 731/519/3
f 734/516/6 733/515/5 737/523/9
f 734/516/6 737/523/9 738/524/10
f 732/520/4 731/519/3 735/525/7
f 732/520/4 735/525/7 736/526/8
f 743/521/15 734/516/6 738/524/10
f 733/515/5 732/520/4 736/526/8
f 733/515/5 736/526/8 737/523/9
f 731/519/3 744/522/16 735/525/7
f 738/524/10 737/523/9 741/527/13
f 738/524/10 741/527/13 742/528/14
f 736/526/8 735/525/7 739/529/11
f 736/526/8 739/529/11 740/530/12
f 743/521/15 738/524/10 742/528/14
f 737/523/9 736/526/8 740/530/12
f 737/523/9 740/530/12 741/527/13
f 735/525/7 744/522/16 739/529/11
f 742/528/14 741/527/13 747/523/19
f 742/528/14 747/523/19 748/524/20
f 740/530/12 739/529/11 745/525/17
f 740/530/12 745/525/17 746/526/18
f 743/521/15 742/528/14 748/524/20
f 741/527/13 740/530/12 746/526/18
f 741/527/13 746/526/18 747/523/19
f 739/529/11 744/522/16 745/525/17
f 748/524/20 747/523/19 751/515/23
f 748/524/20 751/515/23 752/516/24
f 746/526/18 745/525/17 749/519/21
f 746/526/18 749/519/21 750/520/22
f 743/521/15 748/524/20 752/516/24
f 747/523/19 746/526/18 750/520/22
f 747/523/19 750/520/22 751/515/23
f 745/525/17 744/522/16 749/519/21
f 752/516/24 751/515/23 729/514/1
f 752/516/24 729/514/1 730/513/2
f 750/520/22 749/519/21 753/518/25
f 750/520/22 753/518/25 754/517/26
f 743/521/15 752/516/24 730/513/2
f 751/515/23 750/520/22 754/517/26
f 751/515/23 754/517/26 729/514/1
f 749/519/21 744/522/16 753/518/25
f 756/531/2 755/532/1 759/533/5
f 756/531/2 759/533/5 760/534/6
f 780/535/26 779/536/25 757/537/3
f 780/535/26 757/537/3 758/538/4
f 769/539/15 756/531/2 760/534/6
f 755/532/1 780/535/26 758/538/4
f 755/532/1 758/538/4 759/533/5
f 779/536/25 770/540/16 757/537/3
f 760/534/6 759/533/5 763/541/9
f 760/534/6 763/541/9 764/542/10
f 758/538/4 757/537/3 761/543/7
f 758/538/4 761/543/7 762/544/8
f 769/539/15 760/534/6 764/542/10
f 759/533/5 758/538/4 762/544/8
f 759/533/5 762/544/8 763/541/9
f 757/537/3 770/540/16 761/543/7
f 764/542/10 763/541/9 767/545/13
f 764/542/10 767/545/13 768/546/14
f 762/544/8 761/543/7 765/547/11
f 762/544/8 765/547/11 766/548/12
f 769/539/15 764/542/10 768/546/14
f 763/541/9 762/544/8 766/548/12
f 763/541/9 766/548/12 767/545/13
f 761/543/7 770/540/16 765/547/11
f 768/546/14 767/545/13 773/541/19
f 768/546/14 773/541/19 774/542/20
f 766/548/12 765/547/11 771/543/17
f 766/548/12 771/543/17 772/544/18
f 769/539/15 768/546/14 774/542/20
f 767/545/13 766/548/12 772/544/18
f 767/545/13 772/544/18 773/541/19
f 765/547/11 770/540/16 771/543/17
f 774/542/20 773/541/19 777/533/23
f 774/542/20 777/533/23 778/534/24
f 772/544/18 771/543/17 775/537/21
f 772/544/18 775/537/21 776/538/22
f 769/539/15 774/542/20 778/534/24
f 773/541/19 772/544/18 776/538/22
f 773/541/19 776/538/22 777/533/23
f 771/543/17 770/540/16 775/537/21
f 778/534/24 777/533/23 755/532/1
f 778/534/24 755/532/1 756/531/2
f 776/538/22 775/537/21 779/536/25
f 776/538/22 779/536/25 780/535/26
f 769/539/15 778/534/24 756/531/2
f 777/533/23 776/538/22 780/535/26
f 777/533/23 780/535/26 755/532/1
f 775/537/21 770/540/16 779/536/25
f 782/549/2 781/550/1 785/551/5
f 782/549/2 785/551/5 786/552/6
f 806/553/26 805/554/25 783/555/3
f 806/553/26 783/555/3 784/556/4
f 795/557/15 782/549/2 786/552/6
f 781/550/1 806/553/26 784/556/4
f 781/550/1 784/556/4 785/551/5
f 805/554/25 796/558/16 783/555/3
f 786/552/6 785/551/5 789/559/9
f 786/552/6 789/559/9 790/560/10
f 784/556/4 783/555/3 787/561/7
f 784/556/4 787/561/7 788/562/8
f 795/557/15 786/552/6 790/560/10
f 785/551/5 784/556/4 788/562/8
f 785/551/5 788/562/8 789/559/9
f 783/555/3 796/558/16 787/561/7
f 790/560/10 789/559/9 793/563/13
f 790/560/10 793/563/13 794/564/14
f 788/562/8 787/561/7 791/565/11
f 788/562/8 791/565/11 792/566/12
f 795/557/15 790/560/10 794/564/14
f 789/559/9 788/562/8 792/566/12
f 789/559/9 792/566/12 793/563/13
f 787/561/7 796/558/16 791/565/11
f 794/564/14 793/563/13 799/559/19
f 794/564/14 799/559/19 800/560/20
f 792/566/12 791/565/11 797/561/17
f 792/566/12 797/561/17 798/562/18
f 795/557/15 794/564/14 800/560/20
f 793/563/13 792/566/12 798/562/18
f 793/563/13 798/562/18 799/559/19
f 791/565/11 796/558/16 797/561/17
f 800/560/20 799/559/19 803/551/23
f 800/560/20 803/551/23 804/552/24
f 798/562/18 797/561/17 801/555/21
f 798/562/18 801/555/21 802/556/22
f 795/557/15 800/560/20 804/552/24
f 799/559/19 798/562/18 802/556/22
f 799/559/19 802/556/22 803/551/23
f 797/561/17 796/558/16 801/555/21
f 804/552/24 803/551/23 781/550/1
f 804/552/24 781/550/1 782/549/2
f 802/556/22 801/555/21 805/554/25
f 802/556/22 805/554/25 806/553/26
f 795/557/15 804/552/24 782/549/2
f 803/551/23 802/556/22 806/553/26
f 803/551/23 806/553/26 781/550/1
f 801/555/21 796/558/16 805/554/25
f 808/567/2 807/568/1 811/569/5
f 808/567/2 811/569/5 812/570/6
f 832/571/26 831/572/25 809/573/3
f 832/571/26 809/573/3 810/574/4
f 821/575/15 808/567/2 812/570/6
f 807/568/1 832/571/26 810/574/4
f 807/568/1 810/574/4 811/569/5
f 831/572/25 822/576/16 809/573/3
f 812/570/6 811/569/5 815/577/9
f 812/570/6 815/577/9 816/578/10
f 810/574/4 809/573/3 813/579/7
f 810/574/4 813/579/7 814/580/8
f 821/575/15 812/570/6 816/578/10
f 811/569/5 810/574/4 814/580/8
f 811/569/5 814/580/8 815/577/9
f 809/573/3 822/576/16 813/579/7
f 816/578/10 815/577/9 819/581/13
f 816/578/10 819/581/13 820/582/14
f 814/580/8 813/579/7 817/583/11
f 814/580/8 817/583/11 818/584/12
f 821/575/15 816/578/10 820/582/14
f 815/577/9 814/580/8 818/584/12
f 815/577/9 818/584/12 819/581/13
f 813/579/7 822/576/16 817/583/11
f 820/582/14 819/581/13 825/577/19
f 820/582/14 825/577/19 826/578/20
f 818/584/12 817/583/11 823/579/17
f 818/584/12 823/579/17 824/580/18
f 821/575/15 820/582/14 826/578/20
f 819/581/13 818/584/12 824/580/18
f 819/581/13 824/580/18 825/577/19
f 817/583/11 822/576/16 823/579/17
f 826/578/20 825/577/19 829/569/23
f 826/578/20 829/569/23 830/570/24
f 824/580/18 823/579/17 827/573/21
f 824/580/18 827/573/21 828/574/22
f 821/575/15 826/578/20 830/570/24
f 825/577/19 824/580/18 828/574/22
f 825/577/19 828/574/22 829/569/23
f 823/579/17 822/576/16 827/573/21
f 830/570/24 829/569/23 807/568/1
f 830/570/24 807/568/1 808/567/2
f 828/574/22 827/573/21 831/572/25
f 828/574/22 831/572/25 832/571/26
f 821/575/15 830/570/24 808/567/2
f 829/569/23 828/574/22 832/571/26
f 829/569/23 832/571/26 807/568/1
f 827/573/21 822/576/16 831/572/25
