# Blender 4.5.5 LTS
# www.blender.org
mtllib Damage_Reproductive_Whitehead_damage.mtl
o SM_Reproductive_Severe.002
v -0.213645 1.418327 0.013016
v -0.137086 1.839708 -0.027059
v -0.151590 0.563480 0.080661
v -0.165688 1.414063 0.025944
v -0.093152 1.831104 -0.016754
v -0.080270 1.827178 -0.034821
v -0.150331 1.411986 0.006689
v -0.125493 0.563382 0.052656
v -0.075161 -0.082671 0.050441
v -0.103336 -0.082671 0.080312
v -0.151114 -0.082671 0.081708
v -0.180985 -0.082671 0.053532
v -0.106428 -0.082671 -0.025512
v -0.076557 -0.082671 0.002663
v -0.182381 -0.082671 0.005755
v -0.154206 -0.082671 -0.024117
v -0.224145 0.563737 0.055603
v -0.196134 0.563639 0.081992
v -0.194277 1.416928 0.028803
v -0.118800 1.836762 -0.013250
v -0.128689 1.834988 -0.071326
v -0.201593 1.415745 -0.035050
v -0.199617 0.563663 -0.017159
v -0.225714 0.563748 0.010837
v -0.216946 1.417793 -0.015813
v -0.141571 1.838911 -0.053267
v -0.084715 1.826372 -0.061050
v -0.153644 1.411455 -0.022134
v -0.127072 0.563390 0.007890
v -0.155087 0.563501 -0.018489
v -0.173018 1.412885 -0.037901
v -0.103002 1.829323 -0.074849
v -0.115466 0.246179 0.050892
v -0.188648 0.238084 0.081187
v -0.142605 0.243119 0.079842
v -0.217441 0.235026 0.053867
v -0.191646 0.238084 -0.021405
v -0.116824 0.246180 0.004577
v -0.218794 0.235026 0.007549
v -0.145608 0.243120 -0.022747
v 0.238970 2.851238 -0.135323
v 0.237300 2.855333 -0.128943
v 0.233256 2.861757 -0.127993
v 0.230017 2.865448 -0.133226
v 0.228684 2.865023 -0.142772
v 0.230308 2.860841 -0.149146
v 0.234352 2.854417 -0.150085
v 0.237638 2.850812 -0.144858
v 0.193812 2.704274 -0.104484
v 0.157036 2.565698 -0.094123
v 0.162482 2.560068 -0.108078
v 0.198953 2.699614 -0.117994
v 0.174179 2.714857 -0.111511
v 0.136604 2.578904 -0.101332
v 0.145358 2.574200 -0.091087
v 0.182632 2.711166 -0.101558
v 0.196249 2.698741 -0.137269
v 0.159713 2.559164 -0.127945
v 0.150926 2.563727 -0.138155
v 0.187840 2.702386 -0.147208
v 0.176658 2.709276 -0.144281
v 0.139242 2.572233 -0.135102
v 0.133833 2.578002 -0.121186
v 0.171472 2.713983 -0.130786
v -0.866907 1.491093 -0.098261
v -0.219588 0.323621 0.060711
v -0.194128 0.328225 -0.026002
v -0.502432 1.068397 0.014594
v -0.324930 0.724297 0.061524
v -0.291800 0.729404 -0.107851
v -0.473197 1.073281 -0.141802
v -0.525650 1.029296 -0.071810
v -0.348346 0.684128 -0.032701
v -0.209191 0.289833 0.037052
v -0.251946 0.298075 0.013039
v -0.196726 0.292784 -0.005632
v -0.662688 1.322868 -0.062719
v -0.687267 1.286547 -0.099775
v -0.648975 1.324040 -0.135612
v 0.744748 1.684351 -0.744667
v -0.073872 0.778125 -0.074636
v -0.011143 0.786307 0.008051
v 0.301952 1.551031 -0.436747
v 0.083999 1.264768 -0.256456
v 0.214395 1.270434 -0.111139
v 0.425290 1.555733 -0.301404
v 0.384474 1.495707 -0.385963
v 0.172406 1.207011 -0.201600
v -0.068089 0.743841 -0.040942
v -0.016318 0.735714 -0.062830
v -0.036990 0.748582 -0.000458
v 0.501623 1.659344 -0.538451
v 0.536301 1.608527 -0.520703
v 0.558218 1.659502 -0.474537
v 0.171538 1.572949 -0.656642
v -0.190047 1.254225 0.007479
v -0.115204 1.266851 0.059820
v -0.113166 1.896427 -0.283810
v -0.207752 1.658001 -0.083869
v -0.055888 1.679647 0.002293
v 0.033767 1.925334 -0.221477
v -0.047437 1.868246 -0.214713
v -0.104828 1.629404 -0.077306
v -0.166343 1.222641 0.024182
v -0.130909 1.235609 -0.009070
v -0.129567 1.229541 0.049899
v 0.065171 1.761296 -0.499092
v 0.086019 1.732384 -0.452905
v 0.133211 1.774740 -0.469022
v -0.490881 1.893150 0.582362
v -0.178760 0.519748 0.070503
v -0.229472 0.529436 0.047180
v -0.329907 1.396192 0.324126
v -0.239319 0.991121 0.181271
v -0.339708 1.005111 0.145254
v -0.422772 1.409283 0.291705
v -0.380346 1.353212 0.324995
v -0.294421 0.947209 0.181363
v -0.187887 0.481042 0.057928
v -0.208234 0.490937 0.082285
v -0.212941 0.486619 0.046569
v -0.426072 1.696989 0.443036
v -0.446884 1.655146 0.449908
v -0.469208 1.701786 0.427742
v -0.623714 2.515866 -0.333102
v -0.214410 0.348250 0.020201
v -0.140484 0.374780 -0.010851
v -0.437028 1.704934 -0.083675
v -0.324249 1.067342 0.011307
v -0.189144 1.113920 -0.061447
v -0.313093 1.748376 -0.151765
v -0.386746 1.658852 -0.155156
v -0.268589 1.021273 -0.064935
v -0.188068 0.293145 0.008561
v -0.197683 0.317719 -0.033390
v -0.151799 0.307422 -0.006663
v -0.508222 2.189567 -0.198242
v -0.492936 2.136649 -0.242113
v -0.450276 2.207851 -0.230092
v 0.188467 1.328885 0.139255
v 0.309397 1.732192 0.227283
v 0.103341 0.474091 0.103608
v 0.212004 1.316021 0.181275
v 0.331624 1.715838 0.264011
v 0.353105 1.710439 0.259866
v 0.236221 1.312063 0.178312
v 0.141439 0.470573 0.102369
v 0.117661 -0.174057 0.040644
v 0.076780 -0.170349 0.041712
v 0.042716 -0.162241 0.009176
v 0.042212 -0.156100 -0.031422
v 0.150391 -0.165912 -0.034249
v 0.150895 -0.172054 0.006349
v 0.075446 -0.154097 -0.065717
v 0.116327 -0.157805 -0.066785
v 0.071090 0.487660 0.035285
v 0.071577 0.481805 0.073319
v 0.190439 1.323617 0.163641
v 0.311893 1.725659 0.249302
v 0.346455 1.727745 0.201606
v 0.230973 1.326060 0.113810
v 0.140142 0.486085 0.001739
v 0.102050 0.489592 0.002971
v 0.206769 1.329987 0.116758
v 0.324978 1.733141 0.205744
v 0.368729 1.711374 0.238341
v 0.254510 1.313171 0.155811
v 0.172390 0.472503 0.070047
v 0.171895 0.478370 0.032020
v 0.252523 1.318469 0.131440
v 0.366226 1.717911 0.216329
v 0.120085 0.156601 0.061292
v 0.047000 0.160009 0.029893
v 0.080296 0.157153 0.061992
v 0.046345 0.162924 -0.009804
v 0.118362 0.164310 -0.043748
v 0.152299 0.158544 0.028043
v 0.078564 0.164866 -0.043051
v 0.151653 0.161456 -0.011651
v 0.678016 2.531168 0.527487
v 0.550478 2.240824 0.427361
v 0.564598 2.235827 0.423883
v 0.688028 2.527488 0.524628
v 0.667360 2.541923 0.510386
v 0.535735 2.255459 0.403436
v 0.537476 2.249713 0.418132
v 0.668689 2.537691 0.521061
v 0.695171 2.527887 0.513514
v 0.574745 2.236430 0.408902
v 0.572951 2.242115 0.394173
v 0.693865 2.532081 0.502875
v 0.684536 2.538604 0.496447
v 0.559896 2.250982 0.384957
v 0.545841 2.256040 0.388468
v 0.674499 2.542323 0.499271
v 0.785511 1.700538 0.542951
v 0.205582 0.549471 0.014696
v 0.129444 0.558425 0.085136
v 0.462844 1.430487 0.180162
v 0.314442 1.080324 0.048563
v 0.184177 1.091983 0.193640
v 0.341809 1.441197 0.317231
v 0.431036 1.387201 0.277959
v 0.279662 1.035344 0.153099
v 0.179149 0.512568 0.031536
v 0.207195 0.519136 0.080482
v 0.141782 0.517744 0.066256
v 0.563536 1.593191 0.339323
v 0.558507 1.548936 0.385325
v 0.506575 1.595904 0.402853
v 0.115441 1.779934 0.800881
v 0.106217 0.123705 0.003866
v 0.048761 0.152408 -0.022657
v 0.170429 1.175971 0.422655
v 0.165844 0.686906 0.197505
v 0.050497 0.736326 0.156758
v 0.063757 1.221753 0.386074
v 0.098060 1.139112 0.419219
v 0.087657 0.650356 0.193078
v 0.084543 0.081874 -0.016070
v 0.062728 0.096401 0.015167
v 0.056378 0.096974 -0.028877
v 0.139174 1.545746 0.605933
v 0.102400 1.501121 0.609521
v 0.089264 1.565518 0.588498
v -0.030832 1.506919 -0.070080
v -0.090460 1.929131 -0.013417
v -0.077070 0.648754 -0.045477
v -0.076898 1.501188 -0.051909
v -0.131515 1.919303 0.004702
v -0.131051 1.916501 0.027055
v -0.077825 1.500283 -0.027226
v -0.081600 0.650310 -0.007498
v -0.087877 0.005450 0.056055
v -0.082767 0.003691 0.015349
v -0.045069 0.004162 -0.014033
v -0.004379 0.006494 -0.009025
v -0.017903 0.011150 0.098689
v -0.058593 0.008818 0.093681
v 0.024905 0.009862 0.028601
v 0.019794 0.011622 0.069307
v -0.003817 0.651633 -0.068236
v -0.041950 0.649350 -0.072902
v -0.055680 1.504185 -0.071261
v -0.113191 1.925006 -0.013569
v -0.070898 1.927428 0.027409
v -0.012088 1.507571 -0.024140
v 0.019295 0.656370 0.004834
v 0.023831 0.654803 -0.033136
v -0.011152 1.508447 -0.048804
v -0.071356 1.930228 0.005061
v -0.111969 1.917589 0.045575
v -0.058139 1.501815 -0.005963
v -0.053943 0.653477 0.027596
v -0.015815 0.655771 0.032250
v -0.033300 1.504578 -0.004803
v -0.089243 1.921719 0.045719
v -0.072444 0.333915 0.015564
v -0.030883 0.324588 -0.051701
v -0.067469 0.329155 -0.023635
v 0.008589 0.323797 -0.046593
v 0.031999 0.331820 0.029093
v -0.044052 0.337181 0.052036
v 0.036979 0.327062 -0.010116
v -0.004585 0.336388 0.057153
v -0.350563 2.794311 0.206069
v -0.265769 2.481583 0.131224
v -0.264881 2.478244 0.146208
v -0.349561 2.791772 0.216771
v -0.331061 2.801945 0.196955
v -0.238554 2.491878 0.118685
v -0.253887 2.487769 0.118824
v -0.342214 2.798911 0.197126
v -0.339588 2.792129 0.225436
v -0.251503 2.478857 0.158390
v -0.236137 2.482897 0.158212
v -0.328477 2.795132 0.225287
v -0.320126 2.799730 0.216342
v -0.224262 2.489054 0.145759
v -0.225185 2.492466 0.130827
v -0.321085 2.802300 0.205618
v -0.471584 1.990583 0.408840
v 0.004248 0.728912 0.059417
v -0.053364 0.733826 -0.027160
v -0.098635 1.647876 0.180545
v 0.013537 1.270470 0.097255
v -0.109601 1.277479 -0.054206
v -0.215296 1.654473 0.039482
v -0.195113 1.609689 0.139513
v -0.089338 1.230818 0.052475
v -0.012627 0.690450 0.035334
v -0.064023 0.705128 0.054530
v -0.040964 0.693647 -0.007274
v -0.251670 1.836356 0.235310
v -0.301058 1.796157 0.228620
v -0.305865 1.837076 0.169353
v -0.711645 2.444940 -0.458402
v -0.122479 0.749434 -0.062731
v -0.079686 0.767502 -0.114411
v -0.426770 1.828463 -0.235574
v -0.262163 1.328299 -0.123154
v -0.189188 1.357415 -0.229146
v -0.360336 1.855551 -0.333890
v -0.409708 1.781428 -0.299639
v -0.242683 1.280658 -0.192576
v -0.102519 0.703543 -0.073341
v -0.125662 0.717088 -0.104060
v -0.081617 0.713430 -0.098849
v -0.555264 2.202618 -0.357227
v -0.554558 2.153566 -0.388048
v -0.524053 2.213640 -0.402947
v 0.047794 1.437512 0.150418
v 0.050813 1.862943 0.104230
v 0.071730 0.592225 0.148367
v 0.071776 1.434618 0.106810
v 0.070936 1.856103 0.063503
v 0.056354 1.854694 0.046381
v 0.056798 1.435144 0.087155
v 0.051082 0.593781 0.116171
v 0.015525 -0.051079 0.115480
v 0.037458 -0.052838 0.150150
v 0.027039 -0.052367 0.196797
v -0.007554 -0.050035 0.218799
v -0.065593 -0.045379 0.127057
v -0.031001 -0.047711 0.105054
v -0.054079 -0.046667 0.208373
v -0.076012 -0.044907 0.173703
v 0.029656 0.595104 0.212505
v 0.062056 0.592821 0.191864
v 0.067712 1.435688 0.135377
v 0.068434 1.859829 0.089618
v 0.009753 1.862944 0.085088
v 0.004129 1.440023 0.126981
v -0.034639 0.599841 0.170795
v -0.014000 0.598273 0.202988
v 0.019087 1.439469 0.146626
v 0.024326 1.864351 0.102208
v 0.029857 1.856097 0.044314
v 0.028095 1.437103 0.083376
v 0.007423 0.596947 0.106665
v -0.024967 0.599242 0.127312
v 0.008197 1.438955 0.098430
v 0.012245 1.859216 0.058930
v 0.029353 0.277386 0.116770
v 0.040035 0.268059 0.195114
v 0.050434 0.272626 0.150190
v 0.006319 0.267268 0.216265
v -0.059867 0.275291 0.172726
v -0.015750 0.280652 0.106667
v -0.038785 0.270533 0.206157
v -0.049468 0.279859 0.127808
v 0.171897 2.565433 -0.070754
v 0.123572 2.248223 0.016614
v 0.113167 2.246723 0.005392
v 0.164167 2.564218 -0.078549
v 0.163268 2.572408 -0.050790
v 0.111384 2.257624 0.044309
v 0.122756 2.253177 0.034165
v 0.171492 2.569138 -0.058226
v 0.151056 2.565858 -0.078865
v 0.095243 2.249123 0.004547
v 0.083862 2.253498 0.014737
v 0.142848 2.569099 -0.071475
v 0.142443 2.572802 -0.058945
v 0.083083 2.258417 0.032321
v 0.093489 2.259995 0.043487
v 0.150156 2.574048 -0.051104
v -0.157814 1.421051 0.184827
v -0.118154 1.846482 0.208691
v -0.166968 0.575763 0.207039
v -0.130060 1.418157 0.226137
v -0.091189 1.839641 0.245249
v -0.069287 1.838232 0.240143
v -0.105725 1.418682 0.221840
v -0.128888 0.577320 0.203454
v -0.111969 -0.067540 0.172172
v -0.152837 -0.069300 0.175765
v -0.189511 -0.068829 0.145115
v -0.193201 -0.066497 0.104284
v -0.085058 -0.061840 0.094778
v -0.081368 -0.064173 0.135609
v -0.162600 -0.063129 0.067721
v -0.121732 -0.061369 0.064128
v -0.204671 0.578642 0.140237
v -0.201186 0.576359 0.178495
v -0.153582 1.419227 0.209425
v -0.113249 1.843367 0.231051
v -0.082314 1.846482 0.180980
v -0.116964 1.423561 0.156772
v -0.138121 0.583379 0.102228
v -0.176194 0.581812 0.105806
v -0.141280 1.423007 0.161056
v -0.104211 1.847889 0.186080
v -0.055299 1.839635 0.217545
v -0.089204 1.420641 0.198065
v -0.100420 0.580486 0.169016
v -0.103915 0.582780 0.130764
v -0.093457 1.422494 0.173479
v -0.060211 1.842754 0.195191
v -0.119456 0.260924 0.183870
v -0.193976 0.251597 0.157436
v -0.158823 0.256165 0.187277
v -0.197310 0.250806 0.117775
v -0.128268 0.258829 0.078923
v -0.089796 0.264190 0.148422
v -0.167644 0.254071 0.082328
v -0.093120 0.263397 0.108764
v -0.018179 2.548971 0.396536
v -0.073659 2.231761 0.313527
v -0.058915 2.230262 0.309427
v -0.007708 2.547756 0.393241
v -0.031963 2.555946 0.379713
v -0.092681 2.241162 0.289996
v -0.088881 2.236715 0.304754
v -0.029127 2.552676 0.390432
v -0.001414 2.549396 0.381735
v -0.049945 2.232661 0.293886
v -0.053781 2.237036 0.279100
v -0.004218 2.552638 0.371052
v -0.015167 2.556340 0.364946
v -0.069050 2.241955 0.270343
v -0.083745 2.243533 0.274470
v -0.025672 2.557586 0.368205
v -0.249267 1.979378 0.604173
v -0.114041 1.056500 0.213526
v -0.152344 1.075021 0.160393
v -0.111813 1.624554 0.407518
v -0.077676 1.353530 0.300516
v -0.160484 1.388148 0.206642
v -0.188828 1.656744 0.321673
v -0.179947 1.615118 0.381771
v -0.150649 1.344880 0.271416
v -0.130131 1.035993 0.194966
v -0.160920 1.049894 0.211022
v -0.148875 1.045609 0.168892
v -0.174337 1.835570 0.485727
v -0.213880 1.818505 0.482512
v -0.210419 1.849768 0.445602
v 0.259611 2.180995 -0.356634
v 0.083374 0.393314 0.032661
v 0.151320 0.403378 0.043179
v 0.166750 1.515009 -0.114373
v 0.113481 0.989612 -0.009410
v 0.244217 1.005484 -0.001433
v 0.287355 1.530066 -0.107991
v 0.225367 1.466828 -0.143532
v 0.177836 0.940457 -0.039588
v 0.098676 0.344555 0.034974
v 0.113443 0.363154 0.001828
v 0.132185 0.350515 0.040162
v 0.235335 1.909909 -0.217585
v 0.257088 1.862386 -0.242586
v 0.291443 1.915304 -0.214644
v -0.218673 1.929097 0.892096
v -0.107728 0.253690 0.144355
v -0.167179 0.277306 0.117218
v -0.120167 1.319813 0.531652
v -0.089246 0.825252 0.321055
v -0.207975 0.864855 0.279311
v -0.229971 1.356550 0.494147
v -0.189644 1.277666 0.529585
v -0.164548 0.782957 0.318010
v -0.126308 0.209810 0.125746
v -0.149078 0.223622 0.156624
v -0.155526 0.222419 0.112607
v -0.178154 1.691588 0.704055
v -0.211549 1.644515 0.709100
v -0.229409 1.707123 0.686237
v 0.049476 2.139922 0.775063
v 0.083592 0.892586 0.175780
v 0.019289 0.895589 0.151228
v 0.114815 1.807333 0.349091
v 0.120126 1.433461 0.205877
v -0.002856 1.436515 0.178041
v -0.000648 1.810191 0.324507
v 0.050833 1.766416 0.383680
v 0.051488 1.390893 0.242021
v 0.064146 0.853648 0.168896
v 0.048877 0.866952 0.218065
v 0.032531 0.855904 0.156814
v 0.072534 1.991424 0.496026
v 0.045382 1.949921 0.523932
v 0.018643 1.990411 0.484255
v 0.464287 2.372506 -0.072212
v 0.070138 1.454199 0.082561
v 0.062728 1.470114 0.148326
v 0.218524 2.023514 -0.036544
v 0.112106 1.753614 0.007021
v 0.110174 1.782820 0.133557
v 0.217721 2.050684 0.080066
v 0.250692 2.010204 0.028127
v 0.145568 1.740798 0.077468
v 0.068670 1.432678 0.106194
v 0.102597 1.445083 0.115890
v 0.065012 1.441017 0.138455
v 0.324273 2.231689 -0.042354
v 0.350535 2.212513 -0.013932
v 0.323932 2.243538 0.012172
v 0.706470 2.640444 -0.297451
v 0.878355 2.566607 -0.343633
v 1.063694 2.285001 -0.334270
v 1.073807 2.295696 -0.347148
v 0.886339 2.572777 -0.352468
v 0.714145 2.652420 -0.307515
v 0.705290 2.645683 -0.319636
v 0.877965 2.568540 -0.365311
v 1.063820 2.288472 -0.357732
v 1.054897 2.280457 -0.345995
v 0.870071 2.561612 -0.356366
v 0.698065 2.634178 -0.309771
v 0.325747 2.629614 -0.189211
v 0.331575 2.612825 -0.178627
v 0.332726 2.624765 -0.161481
v 0.326918 2.641549 -0.171874
v 0.416943 2.661480 -0.226262
v 0.545948 2.675310 -0.270227
v 0.545611 2.663272 -0.259654
v 0.415283 2.648695 -0.216662
v 0.548491 2.672528 -0.245828
v 0.417760 2.658263 -0.205543
v 0.548926 2.684646 -0.256913
v 0.419452 2.671054 -0.214857
v 0.939650 2.372467 -0.392950
v 0.987249 2.350178 -0.374119
v 0.947925 2.347045 -0.347141
v 0.940492 2.331795 -0.395767
v 0.944541 2.411546 -0.377364
v 0.979703 2.312539 -0.380023
v 0.983652 2.394300 -0.362233
v 0.955865 2.270561 -0.382811
v 0.951683 2.308981 -0.357880
v 0.965425 2.438671 -0.345488
v 0.955950 2.390301 -0.340179
v 0.960314 2.312200 -0.285661
v 1.005912 2.285836 -0.315437
v 0.953155 2.311020 -0.339831
v 0.968995 2.356208 -0.297310
v 0.953130 2.258959 -0.287832
v 1.006756 2.334505 -0.321988
v 0.990415 2.237367 -0.312188
v 0.989988 2.400565 -0.331419
v 0.967720 2.352050 -0.342283
v 0.955873 2.199830 -0.312070
v 0.951462 2.255392 -0.332711
v 0.839656 2.541628 -0.264439
v 0.894387 2.487242 -0.281573
v 0.831042 2.485578 -0.306243
v 0.847402 2.564006 -0.300841
v 0.833594 2.498168 -0.234006
v 0.891973 2.520617 -0.315060
v 0.878825 2.451648 -0.247650
v 0.868470 2.565431 -0.358090
v 0.846079 2.516722 -0.335925
v 0.840342 2.423555 -0.218935
v 0.831713 2.447234 -0.267417
v 0.907506 2.394384 -0.293738
v 0.950953 2.395697 -0.342327
v 0.884124 2.413800 -0.354684
v 0.907372 2.450891 -0.298113
v 0.905381 2.332967 -0.306287
v 0.942862 2.452061 -0.337918
v 0.941534 2.335043 -0.346903
v 0.912706 2.519432 -0.328586
v 0.893402 2.464947 -0.350175
v 0.909999 2.279600 -0.349383
v 0.891286 2.349640 -0.359153
v 0.808108 2.506876 -0.339863
v 0.862853 2.487994 -0.344885
v 0.828088 2.518970 -0.385368
v 0.818482 2.543872 -0.334835
v 0.805350 2.464972 -0.356285
v 0.863167 2.529201 -0.339011
v 0.850475 2.448001 -0.360005
v 0.849331 2.584084 -0.339716
v 0.839221 2.550888 -0.370543
v 0.823112 2.420381 -0.385136
v 0.826427 2.472857 -0.392546
v 0.795544 2.542698 -0.280873
v 0.813748 2.540925 -0.327866
v 0.765019 2.539407 -0.317400
v 0.788179 2.577465 -0.288379
v 0.798307 2.500487 -0.284263
v 0.803082 2.576422 -0.327109
v 0.813390 2.498263 -0.322724
v 0.776995 2.617223 -0.317872
v 0.766024 2.574658 -0.321492
v 0.797985 2.456012 -0.309888
v 0.776155 2.498332 -0.317601
v 0.725688 2.560912 -0.288066
v 0.761556 2.565771 -0.325000
v 0.709592 2.571954 -0.333512
v 0.724003 2.597149 -0.288525
v 0.726645 2.522235 -0.301066
v 0.753468 2.601468 -0.318984
v 0.756146 2.525920 -0.331335
v 0.727632 2.643736 -0.309085
v 0.714859 2.606204 -0.327632
v 0.733265 2.488061 -0.335941
v 0.717598 2.531512 -0.340323
v 0.613252 2.583905 -0.262781
v 0.665668 2.572211 -0.262710
v 0.637264 2.577765 -0.304325
v 0.621428 2.615746 -0.267749
v 0.613718 2.544876 -0.266552
v 0.664480 2.606245 -0.267696
v 0.656748 2.534711 -0.266256
v 0.650256 2.648630 -0.282682
v 0.645277 2.609823 -0.300212
v 0.634991 2.500861 -0.280602
v 0.637599 2.538524 -0.298892
v 0.678084 2.592880 -0.218790
v 0.723571 2.569081 -0.254871
v 0.665608 2.565213 -0.265961
v 0.676120 2.623469 -0.242033
v 0.680874 2.548939 -0.205781
v 0.713577 2.604489 -0.271944
v 0.718276 2.529229 -0.235400
v 0.682892 2.647628 -0.289929
v 0.670851 2.599908 -0.282646
v 0.692604 2.491080 -0.214952
v 0.675450 2.524540 -0.245990
v 1.070632 2.287141 -0.289392
v 1.029583 2.256315 -0.304602
v 1.028284 2.308323 -0.274662
v 1.060626 2.315766 -0.312819
v 1.068398 2.257778 -0.260574
v 1.026853 2.290698 -0.325401
v 1.035565 2.231106 -0.273315
v 1.027548 2.347398 -0.341246
v 1.023396 2.329120 -0.302641
v 1.044381 2.224547 -0.233064
v 1.031877 2.270754 -0.250802
v 0.119387 2.466849 -0.117468
v 0.132590 2.450567 -0.109434
v 0.129875 2.459476 -0.088720
v 0.116704 2.475723 -0.096551
v -0.426203 2.285404 0.150290
v -0.576307 2.305218 0.177035
v -0.817129 2.186978 0.156091
v -0.820380 2.198627 0.165954
v -0.579728 2.312833 0.183731
v -0.427119 2.296899 0.158058
v -0.424422 2.288862 0.168083
v -0.576383 2.306720 0.194339
v -0.817026 2.189773 0.174808
v -0.813561 2.180465 0.165827
v -0.573325 2.298619 0.187540
v -0.423634 2.277877 0.160456
v -0.164249 2.121686 0.083996
v -0.174509 2.112362 0.075041
v -0.169555 2.120766 0.061490
v -0.159301 2.130091 0.070292
v -0.215684 2.181173 0.109121
v -0.300698 2.243735 0.137521
v -0.304808 2.235170 0.128962
v -0.219242 2.171572 0.101396
v -0.302300 2.242483 0.117928
v -0.216473 2.178977 0.092541
v -0.298253 2.251152 0.126890
v -0.212920 2.188590 0.100037
v -0.709432 2.190904 0.212352
v -0.750952 2.194719 0.194191
v -0.723327 2.175797 0.174335
v -0.727036 2.162786 0.214044
v -0.695820 2.220081 0.199955
v -0.761598 2.165298 0.198883
v -0.729510 2.223970 0.185325
v -0.762488 2.126033 0.201858
v -0.742308 2.150841 0.182343
v -0.697479 2.247255 0.173297
v -0.710630 2.209336 0.168834
v -0.743173 2.155545 0.123233
v -0.787564 2.156435 0.144627
v -0.741533 2.152598 0.167625
v -0.731612 2.190175 0.132832
v -0.760344 2.115279 0.124660
v -0.768320 2.191004 0.150566
v -0.796656 2.115983 0.142160
v -0.729706 2.230506 0.160027
v -0.734833 2.187436 0.169392
v -0.788067 2.075347 0.143407
v -0.763039 2.112790 0.161174
v -0.562557 2.266013 0.115578
v -0.624281 2.250849 0.125827
v -0.581997 2.223807 0.149253
v -0.560625 2.285481 0.145050
v -0.574724 2.232558 0.090582
v -0.610532 2.273768 0.153625
v -0.626360 2.218915 0.098610
v -0.577804 2.296111 0.190464
v -0.581171 2.252338 0.172991
v -0.609581 2.182817 0.076958
v -0.596304 2.196598 0.117143
v -0.672604 2.191387 0.133748
v -0.705014 2.211081 0.170921
v -0.651443 2.196257 0.184797
v -0.649311 2.231010 0.138078
v -0.697253 2.147649 0.143226
v -0.675750 2.247168 0.168538
v -0.723823 2.164730 0.174322
v -0.626237 2.281745 0.163488
v -0.636480 2.235887 0.181328
v -0.724900 2.112830 0.177277
v -0.683293 2.154322 0.187172
v -0.558917 2.229754 0.178095
v -0.605286 2.239294 0.178982
v -0.570287 2.247228 0.214168
v -0.550562 2.259910 0.173955
v -0.575238 2.199494 0.191020
v -0.588106 2.268217 0.174752
v -0.614019 2.206365 0.191391
v -0.555712 2.300964 0.176812
v -0.564047 2.273986 0.201957
v -0.607677 2.176052 0.212908
v -0.588628 2.214328 0.219464
v -0.532147 2.248732 0.131317
v -0.548105 2.255772 0.168505
v -0.514111 2.234341 0.162595
v -0.512980 2.270167 0.138284
v -0.551762 2.220341 0.133350
v -0.525888 2.276221 0.168945
v -0.565272 2.225639 0.163767
v -0.490241 2.293862 0.163392
v -0.500414 2.259532 0.166346
v -0.571341 2.189433 0.153588
v -0.538939 2.210169 0.161603
v -0.476140 2.232650 0.141158
v -0.501162 2.251505 0.169315
v -0.462721 2.234429 0.179106
v -0.459959 2.257361 0.142114
v -0.493537 2.206138 0.151147
v -0.480385 2.273081 0.165345
v -0.514241 2.221427 0.174213
v -0.444270 2.291843 0.159261
v -0.451889 2.260529 0.174510
v -0.514189 2.185474 0.178669
v -0.485450 2.209506 0.183662
v -0.425925 2.234237 0.087848
v -0.469510 2.236979 0.114407
v -0.431180 2.210410 0.126478
v -0.413102 2.255229 0.107259
v -0.445405 2.204388 0.076530
v -0.448747 2.257923 0.129299
v -0.481299 2.206543 0.098326
v -0.410361 2.275723 0.146148
v -0.421345 2.237166 0.140227
v -0.478086 2.168837 0.082568
v -0.453866 2.185667 0.109167
v -0.350089 2.187855 0.115532
v -0.383823 2.215811 0.128868
v -0.354000 2.196640 0.156001
v -0.332127 2.211243 0.117531
v -0.374489 2.165019 0.123536
v -0.359601 2.234628 0.128647
v -0.402489 2.187562 0.134325
v -0.320654 2.248231 0.132498
v -0.338372 2.220974 0.150536
v -0.409224 2.152028 0.145376
v -0.380941 2.174505 0.156467
v -0.372933 2.220516 0.152309
v -0.386173 2.251410 0.134710
v -0.366943 2.252795 0.167655
v -0.350403 2.228637 0.142283
v -0.398636 2.221043 0.165700
v -0.361234 2.254098 0.127831
v -0.409599 2.246322 0.151184
v -0.326203 2.253331 0.128904
v -0.347068 2.256767 0.152504
v -0.426150 2.238482 0.177676
v -0.395180 2.249427 0.176034
v -0.811799 2.171506 0.208957
v -0.783777 2.139430 0.199579
v -0.811790 2.165370 0.169034
v -0.794723 2.193107 0.194257
v -0.828885 2.143259 0.215005
v -0.771654 2.166930 0.186421
v -0.805803 2.116418 0.208537
v -0.766973 2.209239 0.164328
v -0.792029 2.184963 0.162114
v -0.837611 2.104455 0.209028
v -0.826070 2.135246 0.183574
v -0.085313 1.925014 0.035567
v -0.100550 1.919073 0.028261
v -0.093995 1.923769 0.012032
v -0.078783 1.929697 0.019175
vn -0.4293 -0.0091 -0.9031
vn -0.4878 -0.0020 -0.8730
vn 0.2730 -0.0710 -0.9594
vn 0.3422 0.0042 -0.9396
vn -0.8781 0.1165 0.4641
vn -0.8352 0.2741 0.4767
vn -0.9431 0.2366 -0.2337
vn -0.9574 0.0758 -0.2787
vn -0.9032 0.0061 0.4291
vn -0.9436 -0.0080 -0.3310
vn -0.9121 -0.0631 0.4052
vn -0.9345 -0.0608 -0.3507
vn -0.5347 0.0739 -0.8418
vn 0.2217 -0.1385 -0.9652
vn -0.4191 -0.0195 -0.9077
vn 0.3444 0.0362 -0.9381
vn -0.6743 -0.6690 0.3127
vn -0.2522 -0.6439 0.7223
vn -0.3650 -0.0257 0.9307
vn -0.2939 -0.6439 -0.7064
vn -0.6914 -0.6690 -0.2728
vn 0.9072 0.0732 -0.4143
vn 0.7417 -0.5871 -0.3244
vn 0.3001 -0.6100 -0.7334
vn 0.7593 -0.5871 0.2806
vn 0.3424 -0.6100 0.7146
vn 0.9069 0.0233 -0.4207
vn 0.9388 0.0365 0.3426
vn 0.9315 0.0702 0.3570
vn 0.8757 -0.0882 -0.4748
vn 0.9525 -0.0430 0.3015
vn 0.8308 -0.2537 -0.4955
vn 0.9473 -0.2138 0.2386
vn 0.4003 0.0294 0.9159
vn 0.4214 0.0368 0.9061
vn -0.3415 0.0244 0.9396
vn 0.4493 0.0364 0.8927
vn -0.3084 0.1009 0.9459
vn 0.5108 -0.0431 0.8586
vn -0.2568 0.1669 0.9519
vn 0.9592 -0.2390 0.1510
vn 0.6403 -0.0902 0.7629
vn 0.5987 -0.1054 0.7940
vn 0.9465 -0.2660 0.1826
vn -0.2339 0.1907 0.9534
vn -0.8482 0.3216 0.4209
vn -0.8395 0.3064 0.4488
vn -0.2197 0.1600 0.9624
vn -0.9417 0.2973 -0.1573
vn -0.6144 0.1543 -0.7738
vn -0.5762 0.1218 -0.8082
vn -0.9402 0.2858 -0.1853
vn 0.2664 -0.1190 -0.9565
vn 0.8705 -0.2578 -0.4193
vn 0.8436 -0.2888 -0.4527
vn 0.2580 -0.1480 -0.9547
vn 0.4903 -0.1646 0.8559
vn -0.0709 0.2169 0.9736
vn 0.8316 -0.5098 0.2203
vn 0.7213 -0.5588 -0.4091
vn -0.5643 0.6292 0.5345
vn -0.7302 0.6240 -0.2781
vn 0.0959 -0.2543 -0.9624
vn -0.5875 0.3704 -0.7195
vn -0.8032 -0.3796 0.4591
vn -0.8604 -0.4789 -0.1742
vn -0.9000 -0.3818 -0.2101
vn -0.8554 -0.3130 0.4127
vn -0.5965 -0.3453 -0.7246
vn -0.5665 -0.3877 -0.7272
vn -0.6330 -0.4133 0.6546
vn -0.7457 -0.6540 -0.1275
vn -0.8150 -0.5620 -0.1413
vn -0.4793 -0.3760 -0.7931
vn -0.6514 -0.7223 0.2323
vn -0.8432 -0.5075 -0.1776
vn -0.4851 -0.6209 -0.6158
vn -0.5784 -0.2751 -0.7679
vn -0.8691 -0.2135 0.4461
vn -0.0057 -0.6125 -0.7904
vn 0.4851 -0.7659 -0.4220
vn 0.6277 -0.5834 -0.5153
vn 0.1261 -0.5058 -0.8534
vn 0.8563 -0.5158 0.0243
vn 0.7718 -0.6241 0.1217
vn -0.3057 -0.6125 -0.7290
vn 0.1696 -0.9706 -0.1707
vn 0.2977 -0.9089 -0.2921
vn 0.6984 -0.6525 0.2940
vn 0.0564 -0.8523 -0.5200
vn 0.5589 -0.6849 -0.4675
vn 0.6717 -0.7350 0.0927
vn 0.9154 -0.4020 0.0214
vn 0.1524 -0.3778 -0.9133
vn -0.3508 -0.8664 -0.3553
vn 0.3619 -0.8711 -0.3319
vn 0.5085 -0.4258 -0.7484
vn 0.0263 -0.4395 -0.8979
vn 0.8253 -0.3939 -0.4045
vn 0.7010 -0.6558 0.2804
vn -0.7432 -0.6665 0.0581
vn -0.1231 -0.8060 0.5790
vn -0.0687 -0.8666 0.4942
vn 0.5907 -0.5214 0.6158
vn 0.0652 -0.7037 -0.7075
vn 0.4885 -0.4379 -0.7547
vn 0.8064 -0.5207 -0.2804
vn 0.9357 -0.1563 -0.3162
vn -0.1256 -0.2089 -0.9698
vn 0.3380 -0.2615 0.9041
vn -0.3400 -0.3825 0.8592
vn -0.3730 -0.3212 0.8705
vn 0.2551 -0.2428 0.9359
vn -0.8270 -0.3227 0.4603
vn -0.8471 -0.3352 0.4123
vn 0.6203 -0.2478 0.7442
vn -0.3452 -0.5043 0.7915
vn -0.2995 -0.4224 0.8555
vn -0.8989 -0.3202 0.2992
vn -0.0026 -0.7284 0.6852
vn -0.3391 -0.4655 0.8175
vn -0.6983 -0.6240 0.3507
vn -0.8621 -0.2758 0.4251
vn 0.2890 -0.1756 0.9411
vn -0.8969 -0.2320 -0.3765
vn -0.4256 -0.2097 -0.8803
vn -0.4169 -0.1419 -0.8978
vn -0.8699 -0.1929 -0.4539
vn 0.1873 -0.0893 -0.9782
vn 0.2379 -0.1021 -0.9659
vn -0.9532 -0.2955 -0.0631
vn -0.3633 -0.3340 -0.8698
vn -0.4462 -0.2575 -0.8571
vn 0.3570 -0.0883 -0.9299
vn -0.4858 -0.6358 -0.5999
vn -0.3894 -0.2949 -0.8726
vn 0.2074 -0.4209 -0.8831
vn 0.2341 -0.0399 -0.9714
vn -0.8992 -0.1343 -0.4164
vn 0.3486 0.0977 -0.9322
vn 0.2871 0.1136 -0.9511
vn 0.8691 -0.0811 -0.4880
vn 0.9098 -0.0196 -0.4145
vn -0.9290 0.2475 -0.2750
vn -0.9044 0.3805 -0.1930
vn -0.4582 0.3889 -0.7993
vn -0.4560 0.2484 -0.8546
vn -0.9317 0.1444 -0.3334
vn -0.4168 0.1655 -0.8938
vn -0.9271 0.0786 -0.3665
vn -0.4014 0.1127 -0.9089
vn 0.2642 0.1779 -0.9479
vn 0.8315 -0.1314 -0.5398
vn 0.3579 0.0859 -0.9298
vn 0.9133 0.0115 -0.4072
vn -0.7528 -0.5551 -0.3537
vn -0.7516 -0.6177 0.2316
vn -0.9212 0.0027 0.3892
vn 0.2422 -0.5578 -0.7939
vn -0.3455 -0.5306 -0.7740
vn 0.9312 -0.0675 0.3582
vn 0.6908 -0.6927 0.2072
vn 0.6758 -0.6248 -0.3910
vn 0.2700 -0.7181 0.6414
vn -0.3314 -0.6855 0.6483
vn 0.9309 -0.1164 0.3462
vn 0.4079 -0.1370 0.9027
vn 0.3956 -0.1031 0.9126
vn 0.9376 -0.2188 0.2701
vn 0.4394 -0.2161 0.8719
vn 0.9162 -0.3575 0.1813
vn 0.4585 -0.3670 0.8094
vn -0.3759 -0.0732 0.9238
vn -0.3536 -0.0692 0.9328
vn -0.9066 0.0476 0.4193
vn -0.3247 -0.0738 0.9429
vn -0.8811 0.1171 0.4582
vn -0.2835 -0.1435 0.9482
vn -0.8387 0.1665 0.5186
vn 0.6055 0.1887 0.7732
vn 0.0504 0.3834 0.9222
vn -0.2640 -0.1967 0.9443
vn 0.4598 -0.4427 0.7698
vn -0.3716 0.6817 0.6302
vn -0.4302 0.8974 0.0979
vn -0.8858 0.4434 -0.1370
vn -0.8135 0.1713 0.5558
vn -0.1004 0.9150 -0.3908
vn 0.4504 0.7153 -0.5343
vn 0.2712 0.2306 -0.9345
vn -0.4465 0.4739 -0.7590
vn 0.8708 0.4272 -0.2434
vn 0.9339 0.2154 0.2854
vn 0.9005 -0.4110 0.1421
vn 0.8223 -0.1361 -0.5525
vn 0.8807 -0.4736 0.0080
vn 0.5958 -0.5715 0.5643
vn 0.6696 -0.3507 0.6547
vn 0.9369 -0.3329 0.1068
vn 0.1521 -0.3174 0.9360
vn 0.0672 -0.4547 0.8881
vn 0.7904 -0.5472 -0.2752
vn 0.3539 -0.8746 0.3315
vn 0.4748 -0.7692 0.4276
vn -0.1040 -0.5238 0.8455
vn 0.6640 -0.7322 0.1515
vn 0.6336 -0.4706 0.6141
vn 0.1049 -0.5789 0.8086
vn 0.1410 -0.1945 0.9707
vn 0.9758 -0.1947 0.0993
vn 0.2584 -0.4212 0.8694
vn -0.4287 -0.3774 0.8209
vn -0.4468 -0.3116 0.8386
vn 0.1817 -0.3872 0.9039
vn -0.8843 -0.1674 0.4360
vn -0.9062 -0.1701 0.3872
vn 0.5380 -0.4571 0.7082
vn -0.4611 -0.4874 0.7415
vn -0.3985 -0.4250 0.8127
vn -0.9518 -0.1324 0.2768
vn -0.1782 -0.7727 0.6092
vn -0.4465 -0.4538 0.7712
vn -0.8273 -0.4779 0.2953
vn -0.9072 -0.1104 0.4060
vn 0.2302 -0.3305 0.9153
vn 0.8788 0.0594 0.4734
vn 0.9079 0.0651 0.4141
vn 0.3490 -0.0068 0.9371
vn 0.2776 0.0660 0.9584
vn 0.4284 0.0941 -0.8987
vn 0.3588 0.2361 -0.9031
vn 0.8934 0.2499 -0.3732
vn 0.9323 0.1065 -0.3457
vn 0.4750 -0.0132 -0.8799
vn 0.9563 0.0265 -0.2913
vn 0.4998 -0.0805 -0.8624
vn 0.9632 -0.0249 -0.2675
vn 0.9150 0.1257 0.3834
vn 0.3998 -0.0661 0.9142
vn 0.8739 0.0492 0.4836
vn 0.2733 0.0979 0.9569
vn 0.3935 -0.6812 -0.6174
vn -0.1895 -0.6900 -0.6986
vn -0.2529 -0.0865 -0.9636
vn 0.6862 -0.5893 0.4265
vn 0.7524 -0.6399 -0.1562
vn -0.4910 0.0913 0.8664
vn -0.3767 -0.5717 0.7289
vn 0.2214 -0.5606 0.7980
vn -0.7476 -0.6144 0.2524
vn -0.6661 -0.6627 -0.3424
vn -0.4844 0.0419 0.8738
vn -0.9607 0.0012 0.2777
vn -0.9650 0.0339 0.2601
vn -0.4217 -0.0651 0.9044
vn -0.9434 -0.0753 0.3229
vn -0.3465 -0.2128 0.9136
vn -0.9010 -0.2273 0.3694
vn -0.8641 -0.0397 -0.5018
vn -0.8757 -0.0319 -0.4818
vn -0.2797 -0.0375 -0.9594
vn -0.8902 -0.0317 -0.4545
vn -0.3140 0.0379 -0.9487
vn -0.9087 -0.0943 -0.4066
vn -0.3740 0.0979 -0.9223
vn -0.8255 0.3376 0.4524
vn -0.8727 0.4682 -0.1384
vn -0.9134 -0.1446 -0.3804
vn -0.8706 -0.3054 0.3858
vn -0.4934 0.6794 -0.5432
vn 0.0622 0.8363 -0.5448
vn 0.3080 0.3057 -0.9010
vn -0.4137 0.1094 -0.9038
vn 0.4986 0.8541 -0.1483
vn 0.5404 0.7184 0.4380
vn 0.9065 0.1799 0.3819
vn 0.8615 0.3390 -0.3781
vn 0.1635 0.5170 0.8402
vn -0.3889 0.3643 0.8462
vn -0.3115 -0.2713 0.9107
vn 0.4130 -0.0732 0.9078
vn -0.1836 -0.3478 0.9194
vn -0.7016 -0.4327 0.5662
vn -0.7768 -0.1967 0.5983
vn -0.2734 -0.1924 0.9425
vn -0.9771 -0.2083 0.0434
vn -0.9330 -0.3595 -0.0160
vn 0.0997 -0.4582 0.8833
vn -0.4715 -0.7854 0.4011
vn -0.5716 -0.6565 0.4923
vn -0.8745 -0.4546 -0.1691
vn -0.3225 -0.6193 0.7158
vn -0.7448 -0.3236 0.5836
vn -0.8736 -0.4842 0.0481
vn -0.9963 -0.0853 0.0124
vn -0.2564 -0.0515 0.9652
vn -0.9468 -0.3131 0.0739
vn -0.7266 -0.3723 -0.5775
vn -0.7320 -0.3087 -0.6073
vn -0.9575 -0.2880 -0.0126
vn -0.2210 -0.2596 -0.9401
vn -0.1689 -0.2690 -0.9482
vn -0.8642 -0.3205 0.3879
vn -0.6542 -0.4915 -0.5749
vn -0.7314 -0.4156 -0.5407
vn -0.0473 -0.2467 -0.9679
vn -0.6274 -0.7423 -0.2353
vn -0.6827 -0.4541 -0.5725
vn -0.1334 -0.5683 -0.8119
vn -0.1803 -0.2089 -0.9612
vn -0.9742 -0.2242 0.0241
vn -0.9783 0.0669 0.1961
vn -0.9680 0.0486 0.2462
vn -0.8584 -0.0115 -0.5128
vn -0.8267 0.0378 -0.5614
vn 0.2476 0.0840 0.9652
vn 0.2876 0.0993 0.9526
vn -0.4670 0.1526 0.8710
vn -0.5034 0.0880 0.8596
vn 0.1962 0.0325 0.9800
vn -0.5484 0.0644 0.8337
vn 0.1687 -0.0001 0.9857
vn -0.5738 0.0420 0.8179
vn -0.9523 0.1254 0.2783
vn -0.8830 0.0356 -0.4681
vn -0.9829 0.0637 0.1730
vn -0.8172 0.0521 -0.5740
vn 0.0932 -0.6359 0.7661
vn 0.5972 -0.6652 0.4483
vn 0.8150 -0.0394 0.5782
vn -0.8020 -0.5827 0.1310
vn -0.4856 -0.6019 0.6340
vn -0.1746 0.0129 -0.9846
vn -0.1722 -0.6169 -0.7680
vn -0.6720 -0.5889 -0.4491
vn 0.4075 -0.6513 -0.6401
vn 0.7282 -0.6717 -0.1361
vn -0.1856 -0.0051 -0.9826
vn 0.5635 -0.0364 -0.8253
vn 0.5706 -0.0311 -0.8206
vn -0.2466 -0.0555 -0.9675
vn 0.5137 -0.0580 -0.8560
vn -0.3183 -0.0636 -0.9458
vn 0.4428 -0.1192 -0.8887
vn 0.9836 -0.0528 -0.1725
vn 0.9823 -0.0383 -0.1833
vn 0.8264 -0.0097 0.5630
vn 0.9722 -0.0174 -0.2337
vn 0.8536 0.0411 0.5193
vn 0.9530 -0.0943 -0.2879
vn 0.8755 -0.0019 0.4833
vn 0.3863 0.3684 -0.8456
vn 0.8058 0.4263 -0.4110
vn 0.9393 -0.1920 -0.2842
vn 0.4199 -0.2246 -0.8794
vn 0.7867 0.5969 0.1573
vn 0.3733 0.7664 0.5227
vn 0.3427 0.1549 0.9266
vn 0.8871 -0.0319 0.4604
vn -0.2111 0.8424 0.4957
vn -0.6241 0.7790 0.0607
vn -0.9218 0.2366 0.3070
vn -0.4015 0.2678 0.8759
vn -0.6043 0.6178 -0.5032
vn -0.1957 0.4530 -0.8698
vn -0.3488 -0.1073 -0.9310
vn -0.8944 0.0811 -0.4398
vn 0.2744 0.0669 -0.9593
vn 0.2251 0.0486 -0.9731
vn 0.8494 -0.0115 -0.5277
vn 0.8780 0.0378 -0.4772
vn -0.9713 0.0840 -0.2226
vn -0.9784 0.0993 -0.1812
vn -0.5599 0.1526 -0.8144
vn -0.5330 0.0880 -0.8415
vn -0.9609 0.0325 -0.2750
vn -0.4894 0.0644 -0.8697
vn -0.9533 -0.0001 -0.3021
vn -0.4637 0.0420 -0.8850
vn 0.1894 0.1254 -0.9739
vn 0.8209 0.0356 -0.5700
vn 0.2970 0.0637 -0.9527
vn 0.8848 0.0521 -0.4630
vn -0.7236 -0.6359 -0.2685
vn -0.6722 -0.6652 0.3251
vn -0.8875 -0.0394 0.4591
vn 0.2514 -0.5827 -0.7728
vn -0.3407 -0.6019 -0.7222
vn 0.9550 0.0129 0.2963
vn 0.7614 -0.6169 0.1992
vn 0.7073 -0.5889 -0.3912
vn 0.3819 -0.6514 0.6557
vn -0.2130 -0.6717 0.7095
vn 0.9583 -0.0051 0.2857
vn 0.4750 -0.0364 0.8792
vn 0.4676 -0.0311 0.8834
vn 0.9729 -0.0555 0.2245
vn 0.5251 -0.0580 0.8491
vn 0.9865 -0.0636 0.1509
vn 0.5867 -0.1192 0.8010
vn -0.2977 -0.0528 0.9532
vn -0.2875 -0.0383 0.9570
vn -0.8793 -0.0097 0.4763
vn -0.2381 -0.0174 0.9711
vn -0.8529 0.0411 0.5204
vn -0.1812 -0.0943 0.9789
vn -0.8309 -0.0019 0.5564
vn 0.5743 0.3684 0.7311
vn -0.0043 0.4263 0.9046
vn -0.1782 -0.1920 0.9651
vn 0.5889 -0.2246 0.7764
vn -0.5005 0.5969 0.6270
vn -0.6357 0.7664 0.0920
vn -0.9806 0.1549 -0.1204
vn -0.8160 -0.0319 0.5772
vn -0.3437 0.8424 -0.4149
vn 0.2323 0.7790 -0.5825
vn 0.1499 0.2366 -0.9600
vn -0.5942 0.2678 -0.7584
vn 0.7243 0.6178 -0.3063
vn 0.8627 0.4530 0.2250
vn 0.9873 -0.1073 0.1170
vn 0.8010 0.0811 -0.5931
vn -0.2120 -0.4046 0.8896
vn -0.7600 -0.3280 0.5610
vn -0.7843 -0.2215 0.5795
vn -0.2598 -0.3232 0.9100
vn -0.9959 -0.0818 0.0375
vn -0.9921 -0.1248 0.0085
vn 0.0278 -0.5052 0.8626
vn -0.7052 -0.5198 0.4822
vn -0.7310 -0.4209 0.5371
vn -0.9895 -0.1050 -0.0996
vn -0.3920 -0.6891 0.6094
vn -0.7604 -0.3563 0.5430
vn -0.9225 -0.3859 -0.0101
vn -1.0000 -0.0048 0.0029
vn -0.2150 -0.2351 0.9479
vn -0.5957 -0.1156 -0.7949
vn 0.0642 -0.2049 -0.9767
vn 0.0923 -0.1408 -0.9857
vn -0.5262 -0.0871 -0.8459
vn 0.6490 -0.1898 -0.7368
vn 0.6827 -0.2094 -0.7001
vn -0.8164 -0.1462 -0.5587
vn 0.0895 -0.3363 -0.9375
vn 0.0267 -0.2471 -0.9686
vn 0.7662 -0.2118 -0.6067
vn -0.2051 -0.5943 -0.7776
vn 0.0758 -0.2939 -0.9528
vn 0.5592 -0.5124 -0.6517
vn 0.6931 -0.1479 -0.7055
vn -0.5601 -0.0220 -0.8282
vn 0.2901 -0.3751 0.8804
vn -0.3984 -0.3832 0.8333
vn -0.4213 -0.3184 0.8492
vn 0.2111 -0.3458 0.9143
vn -0.8689 -0.2188 0.4441
vn -0.8906 -0.2244 0.3955
vn 0.5713 -0.3952 0.7193
vn -0.4229 -0.4976 0.7574
vn -0.3649 -0.4288 0.8265
vn -0.9390 -0.1935 0.2842
vn -0.1201 -0.7652 0.6324
vn -0.4107 -0.4622 0.7859
vn -0.7895 -0.5282 0.3124
vn -0.8959 -0.1645 0.4126
vn 0.2553 -0.2854 0.9238
vn 0.6679 -0.3292 0.6675
vn -0.1463 -0.4359 0.8880
vn -0.1759 -0.1993 0.9640
vn 0.6068 -0.2110 0.7664
vn -0.8307 -0.1477 0.5367
vn -0.8377 -0.2613 0.4797
vn 0.8163 -0.3803 0.4348
vn -0.0822 -0.7941 0.6022
vn -0.0897 -0.6591 0.7467
vn -0.8802 -0.3214 0.3493
vn 0.2709 -0.7435 0.6114
vn -0.1610 -0.2905 0.9432
vn -0.7240 -0.4809 0.4945
vn -0.8548 -0.0477 0.5168
vn 0.6381 -0.0757 0.7662
vn 0.7466 -0.4062 -0.5268
vn 0.9278 -0.3622 0.0892
vn 0.9616 -0.2570 0.0967
vn 0.7982 -0.3273 -0.5058
vn 0.7531 -0.1343 0.6441
vn 0.7292 -0.1773 0.6609
vn 0.5493 -0.4941 -0.6739
vn 0.8279 -0.5516 0.1016
vn 0.8873 -0.4537 0.0830
vn 0.6545 -0.1585 0.7393
vn 0.6792 -0.7028 -0.2115
vn 0.9149 -0.3907 0.1015
vn 0.6571 -0.4345 0.6160
vn 0.7350 -0.0580 0.6755
vn 0.7939 -0.2366 -0.5601
vn 0.2035 -0.2041 0.9576
vn -0.3249 -0.9251 -0.1966
vn -0.6385 -0.7411 -0.2075
vn 0.0839 -0.0529 0.9951
vn -0.9072 -0.4017 -0.1248
vn -0.0523 0.0645 0.9965
vn -0.1888 0.2930 -0.9373
vn 0.3550 0.9228 0.1497
vn 0.6724 0.7396 0.0276
vn 0.0174 0.2389 -0.9709
vn 0.9038 0.4263 0.0387
vn 0.1597 -0.0391 -0.9864
vn 0.4117 -0.0606 0.9093
vn -0.3323 0.8941 0.3004
vn -0.8518 0.3100 0.4223
vn -0.1579 -0.4913 0.8566
vn -0.2856 0.2361 -0.9288
vn -0.0989 -0.9797 -0.1746
vn 0.1661 -0.9582 -0.2328
vn -0.3833 0.1647 -0.9088
vn 0.3964 -0.0761 0.9149
vn 0.2905 -0.1116 0.9504
vn -0.1413 0.9775 0.1567
vn 0.0890 0.9855 0.1442
vn 0.4240 -0.8542 -0.3009
vn -0.4541 0.1809 -0.8724
vn -0.0608 -0.9871 -0.1478
vn -0.6199 -0.1128 -0.7765
vn 0.9362 -0.2981 -0.1861
vn 0.1124 0.9288 0.3531
vn 0.9792 0.1981 -0.0427
vn -0.5565 0.6092 -0.5649
vn -0.3217 -0.4036 0.8565
vn -0.2726 -0.0057 0.9621
vn -0.6026 0.2351 -0.7626
vn 0.9908 -0.0426 -0.1282
vn -0.4038 -0.1955 0.8937
vn 0.1926 0.9628 -0.1897
vn -0.3363 0.5034 0.7959
vn 0.9923 0.0462 -0.1148
vn -0.2149 -0.9766 -0.0106
vn 0.8718 -0.4893 -0.0212
vn -0.4871 -0.1407 0.8620
vn -0.4837 0.2389 -0.8420
vn -0.5822 -0.1739 -0.7942
vn -0.4002 0.1847 0.8976
vn 0.9813 -0.1850 -0.0539
vn -0.6274 0.0377 -0.7778
vn 0.1528 0.6010 -0.7845
vn -0.2831 0.9383 0.1987
vn 0.9681 -0.0468 -0.2460
vn -0.1791 -0.7555 0.6302
vn 0.8653 -0.4547 0.2109
vn -0.4305 0.3941 0.8120
vn -0.4895 -0.3471 -0.7999
vn -0.6010 -0.6657 -0.4424
vn -0.3490 0.7361 0.5800
vn 0.9733 -0.2283 -0.0242
vn -0.6543 -0.4570 -0.6025
vn -0.0061 0.9996 0.0265
vn -0.1937 0.2425 0.9506
vn 0.9293 0.2516 -0.2703
vn -0.0643 -0.9774 -0.2012
vn 0.9122 -0.2685 -0.3095
vn -0.2311 -0.4133 0.8808
vn -0.6751 0.3175 -0.6659
vn -0.7010 -0.1125 -0.7042
vn -0.1813 -0.0652 0.9813
vn 0.9592 0.0129 -0.2824
vn -0.7695 0.0844 -0.6330
vn 0.2226 0.9514 0.2131
vn -0.7171 0.3542 0.6002
vn 0.8990 0.0191 0.4376
vn -0.1371 -0.9230 -0.3594
vn 0.7569 -0.5805 0.3003
vn -0.8663 -0.3042 0.3961
vn 0.0162 0.5272 -0.8496
vn -0.0858 0.0513 -0.9950
vn -0.8191 0.0136 0.5736
vn 0.8740 -0.2572 0.4122
vn -0.1519 0.3024 -0.9410
vn -0.1895 0.9746 -0.1191
vn 0.0658 0.4200 0.9052
vn 0.6967 0.3401 -0.6316
vn 0.0430 -0.9988 -0.0254
vn 0.7758 -0.2242 -0.5898
vn 0.1454 -0.2786 0.9493
vn -0.9086 0.0966 -0.4063
vn -0.8610 -0.3331 -0.3844
vn 0.1600 0.0885 0.9831
vn 0.7758 0.0752 -0.6265
vn -0.9434 -0.1300 -0.3051
vn -0.0560 0.9950 0.0825
vn -0.2472 0.2047 0.9471
vn 0.9052 0.3567 -0.2310
vn -0.0177 -0.9604 -0.2779
vn 0.9199 -0.2373 -0.3122
vn -0.2414 -0.5181 0.8205
vn -0.6802 0.3438 -0.6474
vn -0.6722 -0.1225 -0.7301
vn -0.2137 -0.1563 0.9643
vn 0.9616 0.0810 -0.2623
vn -0.7719 0.0901 -0.6294
vn 0.1739 0.9803 -0.0934
vn -0.7575 0.5103 0.4072
vn 0.8730 0.2038 0.4430
vn -0.0612 -0.9956 -0.0710
vn 0.7853 -0.4002 0.4724
vn -0.8673 -0.2591 0.4251
vn 0.0919 0.2244 -0.9702
vn 0.0158 -0.2620 -0.9649
vn -0.8579 0.1343 0.4960
vn 0.8652 -0.0859 0.4940
vn -0.0617 -0.0064 -0.9981
vn -0.0703 0.8449 -0.5303
vn -0.3241 0.7351 0.5955
vn 0.9030 0.1939 -0.3834
vn 0.0121 -0.9384 0.3453
vn 0.9320 -0.3513 -0.0893
vn -0.2934 0.0504 0.9547
vn -0.6319 -0.1411 -0.7621
vn -0.6286 -0.5598 -0.5400
vn -0.2848 0.4355 0.8540
vn 0.9691 -0.0592 -0.2393
vn -0.7325 -0.3300 -0.5954
vn -0.1892 0.7443 -0.6405
vn 0.8929 0.3754 -0.2487
vn -0.4550 -0.4197 -0.7854
vn -0.0083 -0.6749 0.7379
vn -0.3398 -0.8732 -0.3494
vn 0.9570 -0.0940 0.2745
vn -0.5740 0.6876 0.4447
vn -0.5252 0.3470 0.7770
vn 0.9919 0.1213 -0.0390
vn -0.4147 -0.6488 -0.6381
vn -0.4652 0.5694 0.6778
vn -0.7552 -0.1985 -0.6247
vn -0.0178 -0.9858 -0.1672
vn -0.8104 -0.2266 -0.5402
vn 0.1938 -0.9537 0.2299
vn 0.4665 -0.8845 -0.0006
vn -0.7184 -0.1287 -0.6836
vn 0.6744 -0.6648 -0.3213
vn -0.5971 -0.0645 -0.7995
vn 0.8030 0.3127 0.5074
vn -0.1859 0.9667 -0.1761
vn -0.3749 0.9138 0.1562
vn 0.6629 0.3341 0.6700
vn -0.6156 0.6929 0.3755
vn 0.5160 0.1227 0.8478
vn -0.9056 -0.0178 -0.4237
vn 0.2164 0.6948 -0.6858
vn 0.4108 -0.0381 -0.9109
vn -0.5319 -0.6050 -0.5925
vn 0.8582 0.2263 0.4608
vn 0.0032 -0.9320 0.3624
vn -0.1502 -0.8176 0.5559
vn 0.9038 0.1248 0.4094
vn -0.9009 -0.0381 -0.4324
vn -0.8525 -0.1103 -0.5109
vn 0.1850 0.8520 -0.4897
vn 0.0249 0.9375 -0.3471
vn -0.2761 -0.6271 0.7284
vn 0.9353 0.1124 0.3354
vn -0.0437 -0.9292 0.3669
vn 0.9404 -0.2280 0.2524
vn -0.6243 0.0518 0.7795
vn -0.1387 0.8696 -0.4738
vn -0.6569 0.5158 0.5500
vn 0.8909 0.4466 -0.0829
vn -0.3948 -0.5772 -0.7149
vn -0.4257 -0.1995 -0.8826
vn 0.9835 0.1020 0.1492
vn -0.6545 0.3031 0.6926
vn -0.3195 -0.4136 -0.8525
vn 0.1616 0.9865 -0.0276
vn -0.1757 0.2743 -0.9455
vn -0.6478 0.3853 0.6572
vn -0.0174 -0.9853 0.1698
vn -0.7197 -0.1664 0.6740
vn -0.2273 -0.3865 -0.8938
vn 0.9482 0.1537 0.2779
vn 0.9127 -0.2708 0.3059
vn -0.2542 -0.0565 -0.9655
vn -0.7224 0.1585 0.6731
vn 0.9748 -0.0894 0.2045
vn 0.5093 0.6984 0.5029
vn 0.2544 0.7635 -0.5936
vn -0.5621 0.3042 0.7691
vn -0.4186 -0.8352 -0.3567
vn -0.8594 -0.1612 0.4852
vn -0.1371 0.1387 -0.9808
vn 0.8158 -0.4018 0.4160
vn 0.6059 -0.7759 0.1758
vn 0.0174 0.5111 -0.8593
vn -0.7438 0.1121 0.6589
vn 0.7885 -0.5806 0.2029
vn 0.1741 0.9317 -0.3186
vn -0.4299 0.0605 -0.9008
vn -0.4623 0.5737 0.6761
vn -0.0046 -0.9156 0.4022
vn -0.5209 0.0849 0.8494
vn -0.4791 -0.5589 -0.6768
vn 0.9894 0.1447 0.0095
vn 0.9532 -0.2625 0.1502
vn -0.5166 -0.2270 -0.8256
vn -0.5206 0.3611 0.7737
vn 0.9941 -0.1084 -0.0019
vn -0.1246 0.9425 -0.3102
vn 0.2042 0.0290 -0.9785
vn -0.9431 0.2695 0.1946
vn 0.1620 -0.8718 0.4624
vn -0.8611 -0.3247 0.3914
vn 0.3243 -0.6157 -0.7182
vn 0.6386 0.5907 0.4933
vn 0.7195 0.1266 0.6828
vn 0.2330 -0.3211 -0.9179
vn -0.9598 0.0051 0.2807
vn 0.7801 0.3342 0.5290
vn 0.3992 0.8630 -0.3097
vn -0.5585 0.3179 -0.7662
vn -0.0395 0.6182 0.7850
vn -0.2019 -0.9188 0.3393
vn -0.2299 0.1112 0.9668
vn -0.7762 -0.3149 -0.5462
vn 0.9515 -0.1677 -0.2580
vn 0.8221 -0.5567 -0.1195
vn -0.7404 0.0302 -0.6715
vn -0.1506 0.3958 0.9059
vn 0.8691 -0.4024 -0.2877
vn 0.1737 0.9048 -0.3889
vn -0.3954 0.0078 -0.9185
vn -0.4504 0.6600 0.6013
vn 0.0142 -0.8758 0.4824
vn -0.5190 0.1170 0.8467
vn -0.4519 -0.6540 -0.6066
vn 0.9860 0.1658 -0.0152
vn 0.9470 -0.2595 0.1895
vn -0.4986 -0.3212 -0.8051
vn -0.5230 0.4238 0.7395
vn 0.9945 -0.1043 -0.0078
vn 0.5542 0.8253 0.1083
vn -0.0112 0.5169 -0.8560
vn -0.3801 0.5232 0.7628
vn -0.4087 -0.9124 0.0243
vn -0.6940 -0.0099 0.7199
vn -0.3950 -0.1529 -0.9059
vn 0.9346 -0.2601 0.2428
vn 0.7094 -0.6754 0.2017
vn -0.2641 0.2214 -0.9388
vn -0.5694 0.2922 0.7684
vn 0.8651 -0.4885 0.1140
vn 0.2888 0.8590 -0.4228
vn 0.0448 -0.1324 -0.9902
vn -0.6639 0.7017 0.2587
vn -0.1775 -0.8019 0.5705
vn -0.8219 0.1801 0.5405
vn -0.1283 -0.7673 -0.6283
vn 0.8946 0.2563 0.3660
vn 0.7850 -0.1549 0.5998
vn -0.0920 -0.4681 -0.8789
vn -0.7866 0.4711 0.3992
vn 0.9097 -0.0146 0.4150
vn 0.2767 0.3238 -0.9048
vn 0.4207 -0.7680 -0.4829
vn -0.8212 0.3283 -0.4667
vn -0.2621 -0.1410 0.9547
vn -0.9832 0.1656 0.0772
vn 0.2187 -0.9511 0.2181
vn 0.6434 0.7572 0.1127
vn 0.5079 0.6342 0.5829
vn 0.3069 -0.9352 -0.1768
vn -0.9424 0.2473 -0.2254
vn 0.6768 0.6387 0.3661
vn 0.0627 0.7084 -0.7030
vn 0.2659 0.8351 0.4816
vn 0.7111 -0.3018 -0.6350
vn -0.2356 -0.7863 0.5712
vn 0.6368 -0.7489 -0.1832
vn 0.1155 0.3204 0.9402
vn -0.8869 0.1050 -0.4500
vn -0.9578 -0.2514 -0.1391
vn 0.2619 0.6138 0.7448
vn 0.7263 -0.5124 -0.4582
vn -0.9780 -0.0113 -0.2085
vn 0.9254 -0.3696 0.0838
vn -0.0626 -0.9116 0.4064
vt 0.090057 0.722237
vt 0.090047 0.751149
vt 0.090183 0.751052
vt 0.090268 0.722232
vt 0.089990 0.751237
vt 0.090353 0.765535
vt 0.090332 0.765508
vt 0.089975 0.751219
vt 0.089940 0.722240
vt 0.089933 0.722240
vt 0.088063 0.563430
vt 0.088056 0.563430
vt 0.090393 0.765375
vt 0.090515 0.765183
vt 0.088185 0.563534
vt 0.088403 0.563705
vt 0.088236 0.552650
vt 0.088377 0.552650
vt 0.088199 0.563534
vt 0.088363 0.552650
vt 0.088229 0.552650
vt 0.088540 0.563808
vt 0.088731 0.552650
vt 0.088589 0.552650
vt 0.088738 0.552650
vt 0.088604 0.552650
vt 0.090401 0.722228
vt 0.090408 0.722228
vt 0.088546 0.563808
vt 0.090275 0.751004
vt 0.090291 0.751022
vt 0.090602 0.765082
vt 0.090623 0.765110
vt 0.088418 0.563705
vt 0.090285 0.722231
vt 0.090073 0.722236
vt 0.090218 0.751092
vt 0.090082 0.751190
vt 0.090562 0.765243
vt 0.090440 0.765435
vt 0.091976 0.794713
vt 0.091937 0.794871
vt 0.091655 0.790169
vt 0.091697 0.789977
vt 0.091851 0.795105
vt 0.091786 0.795230
vt 0.091498 0.790617
vt 0.091565 0.790457
vt 0.091766 0.795200
vt 0.091805 0.795040
vt 0.091518 0.790390
vt 0.091477 0.790586
vt 0.091891 0.794807
vt 0.091956 0.794683
vt 0.091675 0.789947
vt 0.091608 0.790102
vt 0.092298 0.799900
vt 0.092235 0.800340
vt 0.092323 0.799620
vt 0.092303 0.799591
vt 0.092185 0.800593
vt 0.092164 0.800564
vt 0.092252 0.799837
vt 0.092189 0.800278
vt 0.096355 0.721333
vt 0.096245 0.720006
vt 0.095350 0.655587
vt 0.095461 0.656950
vt 0.095618 0.657124
vt 0.096493 0.721499
vt 0.095594 0.729967
vt 0.094626 0.735675
vt 0.095478 0.728735
vt 0.095660 0.730007
vt 0.096010 0.642209
vt 0.095807 0.642488
vt 0.096069 0.642309
vt 0.096081 0.643511
vt 0.095960 0.643355
vt 0.147871 0.952122
vt 0.148334 0.950718
vt 0.147144 0.943392
vt 0.146648 0.944857
vt 0.147380 0.945001
vt 0.148563 0.952241
vt 0.148991 0.954870
vt 0.150355 0.955505
vt 0.149186 0.953580
vt 0.149309 0.954874
vt 0.145795 0.931638
vt 0.146085 0.931432
vt 0.145969 0.931759
vt 0.146114 0.932716
vt 0.145762 0.932508
vt 0.108576 0.917379
vt 0.109038 0.916808
vt 0.108635 0.911973
vt 0.107912 0.912552
vt 0.108978 0.912990
vt 0.109607 0.917964
vt 0.109828 0.914643
vt 0.110574 0.910830
vt 0.109974 0.914058
vt 0.110305 0.914915
vt 0.108203 0.903738
vt 0.108452 0.904000
vt 0.108461 0.903877
vt 0.108562 0.904633
vt 0.108037 0.904377
vt 0.098875 0.911000
vt 0.098557 0.910218
vt 0.099099 0.902828
vt 0.099447 0.903627
vt 0.098814 0.903882
vt 0.098290 0.911238
vt 0.098269 0.916475
vt 0.097860 0.920045
vt 0.098137 0.915713
vt 0.097997 0.916562
vt 0.099771 0.894343
vt 0.099643 0.894523
vt 0.099613 0.894445
vt 0.099509 0.895224
vt 0.099829 0.895048
vt 0.141465 0.937208
vt 0.141708 0.936202
vt 0.142279 0.922276
vt 0.142010 0.923282
vt 0.142662 0.924299
vt 0.142064 0.938157
vt 0.141121 0.947794
vt 0.140563 0.954921
vt 0.141195 0.946638
vt 0.141401 0.948193
vt 0.141230 0.877098
vt 0.141184 0.877635
vt 0.141405 0.877410
vt 0.141460 0.878881
vt 0.141103 0.878302
vt 0.146963 0.925098
vt 0.147473 0.946413
vt 0.147594 0.946220
vt 0.147141 0.924902
vt 0.147234 0.946484
vt 0.147913 0.956719
vt 0.148000 0.956743
vt 0.147337 0.946512
vt 0.146576 0.925137
vt 0.146749 0.925187
vt 0.144178 0.806470
vt 0.144359 0.806519
vt 0.148121 0.956606
vt 0.148232 0.956356
vt 0.144582 0.806505
vt 0.144769 0.806432
vt 0.144155 0.798374
vt 0.144158 0.798218
vt 0.144182 0.806396
vt 0.144571 0.798331
vt 0.144341 0.798425
vt 0.144773 0.806358
vt 0.144765 0.797969
vt 0.144762 0.798125
vt 0.144578 0.797918
vt 0.144349 0.798012
vt 0.147144 0.924753
vt 0.146970 0.924704
vt 0.144592 0.806309
vt 0.147605 0.946086
vt 0.147502 0.946057
vt 0.148246 0.956190
vt 0.148158 0.956167
vt 0.144369 0.806323
vt 0.146757 0.924793
vt 0.146578 0.924989
vt 0.147366 0.946158
vt 0.147245 0.946351
vt 0.148037 0.956304
vt 0.147927 0.956553
vt 0.150037 0.976900
vt 0.149981 0.976993
vt 0.149265 0.969626
vt 0.149345 0.969499
vt 0.149929 0.977159
vt 0.149921 0.977266
vt 0.149183 0.969997
vt 0.149192 0.969851
vt 0.149961 0.977277
vt 0.150018 0.977182
vt 0.149318 0.969884
vt 0.149239 0.970012
vt 0.150070 0.977017
vt 0.150077 0.976910
vt 0.149402 0.969514
vt 0.149391 0.969658
vt 0.093239 0.919297
vt 0.093018 0.918431
vt 0.091968 0.911391
vt 0.092209 0.912291
vt 0.091306 0.912524
vt 0.092399 0.919511
vt 0.093937 0.922552
vt 0.095476 0.924700
vt 0.093902 0.921667
vt 0.093542 0.922607
vt 0.091271 0.900931
vt 0.091466 0.901063
vt 0.091012 0.901035
vt 0.090926 0.901849
vt 0.091454 0.901670
vt 0.091598 0.758176
vt 0.091258 0.756925
vt 0.091324 0.740341
vt 0.091691 0.741581
vt 0.091168 0.743258
vt 0.091113 0.759729
vt 0.091357 0.770723
vt 0.091146 0.778669
vt 0.091182 0.769208
vt 0.091131 0.771393
vt 0.091416 0.721052
vt 0.091297 0.721545
vt 0.091290 0.721564
vt 0.091251 0.723445
vt 0.091508 0.722471
vt 0.091095 0.725383
vt 0.090946 0.754265
vt 0.090846 0.754164
vt 0.090929 0.725363
vt 0.090857 0.754243
vt 0.090575 0.768569
vt 0.090665 0.768606
vt 0.090951 0.754295
vt 0.090986 0.725222
vt 0.091117 0.725330
vt 0.091044 0.714098
vt 0.091179 0.714209
vt 0.090667 0.768511
vt 0.090580 0.768318
vt 0.091155 0.714371
vt 0.090982 0.714526
vt 0.089073 0.555676
vt 0.088880 0.555597
vt 0.090857 0.714125
vt 0.089188 0.555850
vt 0.089212 0.555790
vt 0.090795 0.714552
vt 0.088816 0.555755
vt 0.089009 0.555834
vt 0.088677 0.555640
vt 0.088702 0.555581
vt 0.090748 0.725285
vt 0.090617 0.725177
vt 0.090660 0.714442
vt 0.090728 0.754070
vt 0.090634 0.754018
vt 0.090473 0.768178
vt 0.090382 0.768141
vt 0.090684 0.714280
vt 0.090638 0.725124
vt 0.090805 0.725145
vt 0.090639 0.754049
vt 0.090740 0.754150
vt 0.090380 0.768236
vt 0.090467 0.768429
vt 0.089345 0.797840
vt 0.089341 0.797926
vt 0.089743 0.787314
vt 0.089747 0.787201
vt 0.089380 0.798082
vt 0.089433 0.798185
vt 0.089872 0.787664
vt 0.089799 0.787524
vt 0.089481 0.798197
vt 0.089485 0.798110
vt 0.089940 0.787568
vt 0.089935 0.787684
vt 0.089446 0.797954
vt 0.089393 0.797852
vt 0.089811 0.787222
vt 0.089884 0.787359
vt 0.145623 0.954579
vt 0.145082 0.953610
vt 0.145675 0.943996
vt 0.146253 0.945002
vt 0.145562 0.945180
vt 0.144969 0.954746
vt 0.144765 0.959362
vt 0.143531 0.963276
vt 0.144488 0.958342
vt 0.144461 0.959380
vt 0.146106 0.930283
vt 0.145818 0.930656
vt 0.145947 0.930365
vt 0.145877 0.931384
vt 0.146201 0.931259
vt 0.105497 0.911717
vt 0.105615 0.910779
vt 0.106770 0.900790
vt 0.106635 0.901740
vt 0.107140 0.902321
vt 0.105956 0.912257
vt 0.104609 0.919180
vt 0.103528 0.924013
vt 0.104614 0.918201
vt 0.104825 0.919399
vt 0.107739 0.889279
vt 0.107579 0.889549
vt 0.107884 0.889476
vt 0.107897 0.890555
vt 0.107601 0.890194
vt 0.133121 0.821151
vt 0.136477 0.857267
vt 0.135711 0.857102
vt 0.131876 0.821062
vt 0.135810 0.857206
vt 0.135916 0.875040
vt 0.136597 0.875121
vt 0.136514 0.857306
vt 0.132279 0.820908
vt 0.133274 0.821093
vt 0.130998 0.806999
vt 0.132019 0.807189
vt 0.136599 0.875003
vt 0.135920 0.874727
vt 0.131868 0.807382
vt 0.130598 0.807510
vt 0.128875 0.793491
vt 0.127424 0.793318
vt 0.129606 0.806960
vt 0.129757 0.793753
vt 0.129928 0.793687
vt 0.129206 0.807472
vt 0.126970 0.793491
vt 0.128421 0.793664
vt 0.125916 0.793295
vt 0.126088 0.793229
vt 0.130516 0.820895
vt 0.129521 0.820711
vt 0.128185 0.807281
vt 0.134818 0.856939
vt 0.134113 0.856838
vt 0.135095 0.874510
vt 0.134414 0.874430
vt 0.128336 0.807088
vt 0.129673 0.820652
vt 0.130918 0.820742
vt 0.134151 0.856878
vt 0.134917 0.857044
vt 0.134412 0.874548
vt 0.135090 0.874824
vt 0.131277 0.911229
vt 0.131254 0.911335
vt 0.132613 0.898199
vt 0.132627 0.898059
vt 0.131574 0.911546
vt 0.131984 0.911695
vt 0.133630 0.898686
vt 0.133066 0.898483
vt 0.132339 0.911728
vt 0.132359 0.911620
vt 0.134121 0.898592
vt 0.134106 0.898735
vt 0.132040 0.911410
vt 0.131631 0.911262
vt 0.133103 0.898109
vt 0.133668 0.898309
vt 0.133314 0.820285
vt 0.136670 0.856401
vt 0.135904 0.856235
vt 0.132069 0.820195
vt 0.136003 0.856339
vt 0.136109 0.874173
vt 0.136790 0.874255
vt 0.136707 0.856440
vt 0.132472 0.820041
vt 0.133467 0.820226
vt 0.131191 0.806132
vt 0.132213 0.806322
vt 0.136792 0.874137
vt 0.136113 0.873861
vt 0.132061 0.806515
vt 0.130791 0.806643
vt 0.129068 0.792624
vt 0.127617 0.792451
vt 0.129799 0.806094
vt 0.129950 0.792886
vt 0.130121 0.792821
vt 0.129399 0.806605
vt 0.127163 0.792624
vt 0.128614 0.792797
vt 0.126109 0.792428
vt 0.126281 0.792363
vt 0.130709 0.820029
vt 0.129714 0.819844
vt 0.128378 0.806415
vt 0.135011 0.856073
vt 0.134306 0.855972
vt 0.135288 0.873644
vt 0.134607 0.873563
vt 0.128529 0.806222
vt 0.129866 0.819786
vt 0.131111 0.819875
vt 0.134344 0.856012
vt 0.135110 0.856178
vt 0.134605 0.873681
vt 0.135283 0.873957
vt 0.131470 0.910362
vt 0.131447 0.910468
vt 0.132806 0.897332
vt 0.132820 0.897192
vt 0.131767 0.910679
vt 0.132177 0.910828
vt 0.133823 0.897819
vt 0.133259 0.897617
vt 0.132532 0.910861
vt 0.132552 0.910754
vt 0.134314 0.897725
vt 0.134299 0.897869
vt 0.132233 0.910543
vt 0.131824 0.910396
vt 0.133297 0.897242
vt 0.133861 0.897442
vt 0.133822 0.911717
vt 0.134162 0.910779
vt 0.137494 0.900790
vt 0.137105 0.901740
vt 0.138561 0.902321
vt 0.135147 0.912257
vt 0.131259 0.919180
vt 0.128140 0.924013
vt 0.131273 0.918201
vt 0.131882 0.919399
vt 0.140289 0.889279
vt 0.139828 0.889549
vt 0.140706 0.889476
vt 0.140745 0.890555
vt 0.139891 0.890194
vt 0.154150 0.913195
vt 0.153392 0.911945
vt 0.153540 0.895361
vt 0.154358 0.896601
vt 0.153190 0.898278
vt 0.153069 0.914749
vt 0.153613 0.925742
vt 0.153141 0.933688
vt 0.153222 0.924228
vt 0.153107 0.926413
vt 0.153745 0.876071
vt 0.153479 0.876564
vt 0.153463 0.876584
vt 0.153375 0.878465
vt 0.153950 0.877491
vt 0.156021 0.910759
vt 0.156895 0.908882
vt 0.154649 0.899086
vt 0.153713 0.901046
vt 0.155094 0.901238
vt 0.157327 0.910919
vt 0.158136 0.914435
vt 0.160710 0.915283
vt 0.158503 0.912710
vt 0.158735 0.914440
vt 0.152102 0.883371
vt 0.152651 0.883095
vt 0.152432 0.883532
vt 0.152705 0.884812
vt 0.152041 0.884534
vt 0.164770 0.934485
vt 0.164524 0.933158
vt 0.162526 0.868739
vt 0.162774 0.870102
vt 0.163125 0.870276
vt 0.165079 0.934651
vt 0.163073 0.943119
vt 0.160910 0.948827
vt 0.162812 0.941887
vt 0.163218 0.943159
vt 0.164000 0.855361
vt 0.163547 0.855640
vt 0.164132 0.855461
vt 0.164159 0.856663
vt 0.163890 0.856507
vt 0.130287 0.803205
vt 0.130198 0.802993
vt 0.132019 0.800531
vt 0.132107 0.800700
vt 0.133977 0.790991
vt 0.134070 0.791145
vt 0.130274 0.803383
vt 0.130368 0.803612
vt 0.132192 0.800909
vt 0.132103 0.800766
vt 0.134177 0.791508
vt 0.134071 0.791263
vt 0.126329 0.802673
vt 0.126267 0.803243
vt 0.124041 0.797616
vt 0.124181 0.797065
vt 0.128587 0.804389
vt 0.128583 0.803980
vt 0.127203 0.803485
vt 0.127221 0.803919
vt 0.127229 0.803810
vt 0.128614 0.804294
vt 0.127247 0.804244
vt 0.128618 0.804705
vt 0.126317 0.802268
vt 0.126255 0.802838
vt 0.313928 0.814055
vt 0.313393 0.821800
vt 0.314757 0.819365
vt 0.314260 0.835319
vt 0.314894 0.829706
vt 0.313534 0.831888
vt 0.313782 0.818914
vt 0.313931 0.829200
vt 0.313364 0.826945
vt 0.315019 0.824125
vt 0.313651 0.823729
vt 0.315115 0.830499
vt 0.314384 0.824888
vt 0.315698 0.822143
vt 0.313928 0.805108
vt 0.315130 0.809856
vt 0.313833 0.812587
vt 0.314340 0.824362
vt 0.313774 0.812136
vt 0.314082 0.819322
vt 0.315669 0.815987
vt 0.313833 0.819173
vt 0.310887 0.851352
vt 0.310154 0.851172
vt 0.311705 0.845683
vt 0.309909 0.833407
vt 0.311248 0.836960
vt 0.309674 0.842844
vt 0.310108 0.845191
vt 0.309609 0.836401
vt 0.309885 0.848341
vt 0.311789 0.841462
vt 0.309585 0.841252
vt 0.312426 0.845534
vt 0.312241 0.836864
vt 0.313475 0.837012
vt 0.312332 0.815198
vt 0.313429 0.822211
vt 0.312171 0.821949
vt 0.311755 0.838642
vt 0.311681 0.824057
vt 0.312245 0.829717
vt 0.313757 0.829883
vt 0.311432 0.832173
vt 0.310221 0.853711
vt 0.309148 0.848625
vt 0.310703 0.846769
vt 0.309309 0.833005
vt 0.310261 0.836499
vt 0.308692 0.838645
vt 0.309870 0.849512
vt 0.309425 0.839643
vt 0.308787 0.843946
vt 0.310692 0.841557
vt 0.309483 0.845475
vt 0.307705 0.857903
vt 0.308094 0.852874
vt 0.308613 0.852742
vt 0.308435 0.837512
vt 0.308971 0.842856
vt 0.308447 0.843138
vt 0.307323 0.852519
vt 0.307676 0.842865
vt 0.308350 0.848477
vt 0.308984 0.848252
vt 0.307288 0.848060
vt 0.305988 0.861256
vt 0.305862 0.855364
vt 0.306887 0.855910
vt 0.306184 0.841566
vt 0.306980 0.846354
vt 0.305954 0.845888
vt 0.305543 0.856509
vt 0.305639 0.847062
vt 0.305920 0.850780
vt 0.307168 0.851395
vt 0.305360 0.852177
vt 0.303296 0.861876
vt 0.302293 0.857716
vt 0.303791 0.856514
vt 0.302765 0.843185
vt 0.303522 0.847466
vt 0.302025 0.848752
vt 0.303123 0.856967
vt 0.302856 0.847949
vt 0.302009 0.853688
vt 0.303832 0.852210
vt 0.302844 0.852912
vt 0.304431 0.861749
vt 0.304196 0.858693
vt 0.305499 0.856292
vt 0.304769 0.841947
vt 0.305662 0.846773
vt 0.304361 0.849266
vt 0.304013 0.855713
vt 0.304173 0.846180
vt 0.304264 0.854824
vt 0.305847 0.851814
vt 0.303830 0.851324
vt 0.316421 0.823774
vt 0.317572 0.819773
vt 0.316397 0.816602
vt 0.317007 0.808235
vt 0.316700 0.809065
vt 0.317842 0.812438
vt 0.316277 0.821462
vt 0.316572 0.814080
vt 0.317920 0.816152
vt 0.316492 0.812253
vt 0.316447 0.818832
vt 0.124070 0.797315
vt 0.124209 0.796763
vt 0.116832 0.799266
vt 0.116942 0.799067
vt 0.116012 0.798911
vt 0.115898 0.799075
vt 0.114360 0.793412
vt 0.114248 0.793572
vt 0.116969 0.799453
vt 0.116858 0.799668
vt 0.115907 0.799329
vt 0.116023 0.799183
vt 0.114273 0.793972
vt 0.114382 0.793730
vt 0.118388 0.795108
vt 0.118508 0.795512
vt 0.119141 0.789194
vt 0.118991 0.788877
vt 0.117737 0.798626
vt 0.117662 0.798287
vt 0.118215 0.796619
vt 0.118277 0.796986
vt 0.118153 0.796852
vt 0.117583 0.798508
vt 0.118214 0.797219
vt 0.117660 0.798851
vt 0.118470 0.794845
vt 0.118591 0.795249
vt 0.263628 0.821896
vt 0.264494 0.827312
vt 0.263308 0.826635
vt 0.263632 0.837709
vt 0.263331 0.834306
vt 0.264493 0.834789
vt 0.263464 0.825118
vt 0.263479 0.832759
vt 0.264671 0.831099
vt 0.263243 0.830384
vt 0.263544 0.828475
vt 0.262678 0.834777
vt 0.262262 0.829507
vt 0.261822 0.828990
vt 0.261986 0.814440
vt 0.261476 0.819150
vt 0.261911 0.819676
vt 0.263078 0.829560
vt 0.262736 0.819770
vt 0.262001 0.824928
vt 0.261469 0.824288
vt 0.263119 0.825165
vt 0.266500 0.846579
vt 0.265891 0.845116
vt 0.265011 0.842663
vt 0.263830 0.830708
vt 0.263706 0.834968
vt 0.264627 0.837701
vt 0.266306 0.840981
vt 0.265004 0.833184
vt 0.265277 0.842345
vt 0.264184 0.839224
vt 0.265916 0.837209
vt 0.264824 0.843393
vt 0.264028 0.836402
vt 0.264026 0.838136
vt 0.264011 0.820849
vt 0.263608 0.827123
vt 0.263605 0.825273
vt 0.265326 0.837828
vt 0.264933 0.826950
vt 0.263654 0.831015
vt 0.263648 0.833125
vt 0.265332 0.832729
vt 0.266657 0.847501
vt 0.266991 0.842611
vt 0.266077 0.842768
vt 0.267163 0.831634
vt 0.266293 0.834892
vt 0.267237 0.834942
vt 0.267247 0.844358
vt 0.267501 0.836789
vt 0.267102 0.838819
vt 0.265975 0.838925
vt 0.267577 0.841127
vt 0.267915 0.847971
vt 0.266948 0.844266
vt 0.267336 0.845088
vt 0.266505 0.833344
vt 0.266640 0.837995
vt 0.266267 0.837282
vt 0.267984 0.843617
vt 0.267310 0.836697
vt 0.266481 0.841144
vt 0.266947 0.842097
vt 0.267747 0.840205
vt 0.268903 0.848726
vt 0.268365 0.843976
vt 0.268334 0.845704
vt 0.268465 0.834486
vt 0.268110 0.838783
vt 0.268149 0.837116
vt 0.269305 0.844950
vt 0.269090 0.838117
vt 0.268135 0.840601
vt 0.268092 0.842665
vt 0.269341 0.841598
vt 0.269493 0.847385
vt 0.268643 0.844353
vt 0.268318 0.844140
vt 0.267131 0.832093
vt 0.267172 0.836784
vt 0.267505 0.837071
vt 0.269361 0.842389
vt 0.268215 0.835019
vt 0.268025 0.841274
vt 0.267622 0.840942
vt 0.268987 0.838752
vt 0.271610 0.843153
vt 0.271239 0.838223
vt 0.270702 0.840567
vt 0.270510 0.829636
vt 0.270159 0.833956
vt 0.270711 0.831730
vt 0.271814 0.839672
vt 0.271280 0.833144
vt 0.270933 0.834955
vt 0.270271 0.837736
vt 0.271746 0.836436
vt 0.271201 0.846382
vt 0.271125 0.843005
vt 0.270353 0.845660
vt 0.270133 0.842908
vt 0.269834 0.843904
vt 0.270609 0.841275
vt 0.271253 0.846616
vt 0.270741 0.844921
vt 0.270894 0.841631
vt 0.269953 0.844850
vt 0.271178 0.845870
vt 0.261811 0.831116
vt 0.260458 0.828926
vt 0.261245 0.825559
vt 0.258879 0.818889
vt 0.259819 0.819650
vt 0.259056 0.823136
vt 0.261105 0.828829
vt 0.259694 0.823032
vt 0.259682 0.826301
vt 0.260636 0.822173
vt 0.260393 0.826723
vt 0.119226 0.789054
vt 0.119073 0.788736
s 1
usemtl Material.071
f 23/1/1 22/2/2 31/3/3 30/4/4
f 1/5/5 2/6/6 26/7/7 25/8/8
f 17/9/9 1/5/5 25/8/8 24/10/10
f 36/11/11 17/9/9 24/10/10 39/12/12
f 22/2/2 21/13/13 32/14/14 31/3/3
f 37/15/15 23/1/1 30/4/4 40/16/16
f 36/11/11 12/17/17 11/18/18 34/19/19
f 37/15/15 16/20/20 15/21/21 39/12/12
f 38/22/22 14/23/23 13/24/24 40/16/16
f 11/18/18 12/17/17 15/21/21 16/20/20 13/24/24 14/23/23 9/25/25 10/26/26
f 38/22/22 29/27/27 8/28/28 33/29/29
f 29/27/27 28/30/30 7/31/31 8/28/28
f 28/30/30 27/32/32 6/33/33 7/31/31
f 35/34/34 3/35/35 18/36/36 34/19/19
f 3/35/35 4/37/37 19/38/38 18/36/36
f 4/37/37 5/39/39 20/40/40 19/38/38
f 27/32/32 28/30/30 31/3/3 32/14/14
f 28/30/30 29/27/27 30/4/4 31/3/3
f 21/13/13 22/2/2 25/8/8 26/7/7
f 22/2/2 23/1/1 24/10/10 25/8/8
f 2/6/6 1/5/5 19/38/38 20/40/40
f 1/5/5 17/9/9 18/36/36 19/38/38
f 33/29/29 8/28/28 3/35/35 35/34/34
f 8/28/28 7/31/31 4/37/37 3/35/35
f 7/31/31 6/33/33 5/39/39 4/37/37
f 9/25/25 33/29/29 35/34/34 10/26/26
f 10/26/26 35/34/34 34/19/19 11/18/18
f 14/23/23 38/22/22 33/29/29 9/25/25
f 29/27/27 38/22/22 40/16/16 30/4/4
f 23/1/1 37/15/15 39/12/12 24/10/10
f 17/9/9 36/11/11 34/19/19 18/36/36
f 16/20/20 37/15/15 40/16/16 13/24/24
f 12/17/17 36/11/11 39/12/12 15/21/21
f 52/41/41 49/42/42 50/43/43 51/44/44
f 56/45/45 53/46/46 54/47/47 55/48/48
f 64/49/49 61/50/50 62/51/51 63/52/52
f 60/53/53 57/54/54 58/55/55 59/56/56
f 49/42/42 56/45/45 55/48/48 50/43/43
f 57/54/54 52/41/41 51/44/44 58/55/55
f 59/56/56 62/51/51 61/50/50 60/53/53
f 63/52/52 54/47/47 53/46/46 64/49/49
f 5/39/39 50/43/43 55/48/48 20/40/40
f 56/45/45 49/42/42 42/57/57 43/58/58
f 6/33/33 51/44/44 50/43/43 5/39/39
f 49/42/42 52/41/41 41/59/59 42/57/57
f 27/32/32 58/55/55 51/44/44 6/33/33
f 52/41/41 57/54/54 48/60/60 41/59/59
f 54/47/47 2/6/6 20/40/40 55/48/48
f 53/46/46 56/45/45 43/58/58 44/61/61
f 2/6/6 54/47/47 63/52/52 26/7/7
f 64/49/49 53/46/46 44/61/61 45/62/62
f 57/54/54 60/53/53 47/63/63 48/60/60
f 58/55/55 27/32/32 32/14/14 59/56/56
f 21/13/13 62/51/51 59/56/56 32/14/14
f 60/53/53 61/50/50 46/64/64 47/63/63
f 61/50/50 64/49/49 45/62/62 46/64/64
f 62/51/51 21/13/13 26/7/7 63/52/52
f 68/65/65 72/66/66 73/67/67 69/68/68
f 70/69/69 73/67/67 72/66/66 71/70/70
f 77/71/71 65/72/72 78/73/73
f 79/74/74 71/70/70 72/66/66 78/73/73
f 74/75/75 75/76/76 76/77/77
f 70/69/69 67/78/78 76/77/77 75/76/76 73/67/67
f 66/79/79 69/68/68 73/67/67 75/76/76 74/75/75
f 65/72/72 79/74/74 78/73/73
f 68/65/65 77/71/71 78/73/73 72/66/66
f 83/80/80 87/81/81 88/82/82 84/83/83
f 85/84/84 88/82/82 87/81/81 86/85/85
f 92/86/86 80/87/87 93/88/88
f 94/89/89 86/85/85 87/81/81 93/88/88
f 89/90/90 90/91/91 91/92/92
f 85/84/84 82/93/93 91/92/92 90/91/91 88/82/82
f 81/94/94 84/83/83 88/82/82 90/91/91 89/90/90
f 80/87/87 94/89/89 93/88/88
f 83/80/80 92/86/86 93/88/88 87/81/81
f 98/95/95 102/96/96 103/97/97 99/98/98
f 100/99/99 103/97/97 102/96/96 101/100/100
f 107/101/101 95/102/102 108/103/103
f 109/104/104 101/100/100 102/96/96 108/103/103
f 104/105/105 105/106/106 106/107/107
f 100/99/99 97/108/108 106/107/107 105/106/106 103/97/97
f 96/109/109 99/98/98 103/97/97 105/106/106 104/105/105
f 95/102/102 109/104/104 108/103/103
f 98/95/95 107/101/101 108/103/103 102/96/96
f 113/110/110 117/111/111 118/112/112 114/113/113
f 115/114/114 118/112/112 117/111/111 116/115/115
f 122/116/116 110/117/117 123/118/118
f 124/119/119 116/115/115 117/111/111 123/118/118
f 119/120/120 120/121/121 121/122/122
f 115/114/114 112/123/123 121/122/122 120/121/121 118/112/112
f 111/124/124 114/113/113 118/112/112 120/121/121 119/120/120
f 110/117/117 124/119/119 123/118/118
f 113/110/110 122/116/116 123/118/118 117/111/111
f 128/125/125 132/126/126 133/127/127 129/128/128
f 130/129/129 133/127/127 132/126/126 131/130/130
f 137/131/131 125/132/132 138/133/133
f 139/134/134 131/130/130 132/126/126 138/133/133
f 134/135/135 135/136/136 136/137/137
f 130/129/129 127/138/138 136/137/137 135/136/136 133/127/127
f 126/139/139 129/128/128 133/127/127 135/136/136 134/135/135
f 125/132/132 139/134/134 138/133/133
f 128/125/125 137/131/131 138/133/133 132/126/126
f 162/140/140 161/141/141 170/142/142 169/143/143
f 140/144/144 141/145/145 165/146/146 164/147/147
f 156/148/148 140/144/144 164/147/147 163/149/149
f 175/150/150 156/148/148 163/149/149 178/151/151
f 161/141/141 160/152/152 171/153/153 170/142/142
f 176/154/154 162/140/140 169/143/143 179/155/155
f 175/150/150 151/156/156 150/157/157 173/158/158
f 176/154/154 155/159/159 154/160/160 178/151/151
f 177/161/161 153/162/162 152/163/163 179/155/155
f 150/157/157 151/156/156 154/160/160 155/159/159 152/163/163 153/162/162 148/164/164 149/165/165
f 177/161/161 168/166/166 147/167/167 172/168/168
f 168/166/166 167/169/169 146/170/170 147/167/167
f 167/169/169 166/171/171 145/172/172 146/170/170
f 174/173/173 142/174/174 157/175/175 173/158/158
f 142/174/174 143/176/176 158/177/177 157/175/175
f 143/176/176 144/178/178 159/179/179 158/177/177
f 166/171/171 167/169/169 170/142/142 171/153/153
f 167/169/169 168/166/166 169/143/143 170/142/142
f 160/152/152 161/141/141 164/147/147 165/146/146
f 161/141/141 162/140/140 163/149/149 164/147/147
f 141/145/145 140/144/144 158/177/177 159/179/179
f 140/144/144 156/148/148 157/175/175 158/177/177
f 172/168/168 147/167/167 142/174/174 174/173/173
f 147/167/167 146/170/170 143/176/176 142/174/174
f 146/170/170 145/172/172 144/178/178 143/176/176
f 148/164/164 172/168/168 174/173/173 149/165/165
f 149/165/165 174/173/173 173/158/158 150/157/157
f 153/162/162 177/161/161 172/168/168 148/164/164
f 168/166/166 177/161/161 179/155/155 169/143/143
f 162/140/140 176/154/154 178/151/151 163/149/149
f 156/148/148 175/150/150 173/158/158 157/175/175
f 155/159/159 176/154/154 179/155/155 152/163/163
f 151/156/156 175/150/150 178/151/151 154/160/160
f 183/180/180 180/181/181 181/182/182 182/183/183
f 187/184/184 184/185/185 185/186/186 186/187/187
f 195/188/188 192/189/189 193/190/190 194/191/191
f 191/192/192 188/193/193 189/194/194 190/195/195
f 180/181/181 187/184/184 186/187/187 181/182/182
f 188/193/193 183/180/180 182/183/183 189/194/194
f 190/195/195 193/190/190 192/189/189 191/192/192
f 194/191/191 185/186/186 184/185/185 195/188/188
f 144/178/178 181/182/182 186/187/187 159/179/179
f 145/172/172 182/183/183 181/182/182 144/178/178
f 166/171/171 189/194/194 182/183/183 145/172/172
f 185/186/186 141/145/145 159/179/179 186/187/187
f 141/145/145 185/186/186 194/191/191 165/146/146
f 189/194/194 166/171/171 171/153/153 190/195/195
f 160/152/152 193/190/190 190/195/195 171/153/153
f 193/190/190 160/152/152 165/146/146 194/191/191
f 183/180/180 188/193/193 191/192/192 192/189/189 195/188/188 184/185/185 187/184/184 180/181/181
f 199/196/196 203/197/197 204/198/198 200/199/199
f 201/200/200 204/198/198 203/197/197 202/201/201
f 208/202/202 196/203/203 209/204/204
f 210/205/205 202/201/201 203/197/197 209/204/204
f 205/206/206 206/207/207 207/208/208
f 201/200/200 198/209/209 207/208/208 206/207/207 204/198/198
f 197/210/210 200/199/199 204/198/198 206/207/207 205/206/206
f 196/203/203 210/205/205 209/204/204
f 199/196/196 208/202/202 209/204/204 203/197/197
f 214/211/211 218/212/212 219/213/213 215/214/214
f 216/215/215 219/213/213 218/212/212 217/216/216
f 223/217/217 211/218/218 224/219/219
f 225/220/220 217/216/216 218/212/212 224/219/219
f 220/221/221 221/222/222 222/223/223
f 216/215/215 213/224/224 222/223/223 221/222/222 219/213/213
f 212/225/225 215/214/214 219/213/213 221/222/222 220/221/221
f 211/218/218 225/220/220 224/219/219
f 214/211/211 223/217/217 224/219/219 218/212/212
f 45/62/62 44/61/61 43/58/58 42/57/57 41/59/59 48/60/60 47/63/63 46/64/64
f 248/226/226 247/227/227 256/228/228 255/229/229
f 226/230/230 227/231/231 251/232/232 250/233/233
f 242/234/234 226/230/230 250/233/233 249/235/235
f 261/236/236 242/234/234 249/235/235 264/237/237
f 247/227/227 246/238/238 257/239/239 256/228/228
f 262/240/240 248/226/226 255/229/229 265/241/241
f 261/236/236 237/242/242 236/243/243 259/244/244
f 262/240/240 241/245/245 240/246/246 264/237/237
f 263/247/247 239/248/248 238/249/249 265/241/241
f 236/243/243 237/242/242 240/246/246 241/245/245 238/249/249 239/248/248 234/250/250 235/251/251
f 263/247/247 254/252/252 233/253/253 258/254/254
f 254/252/252 253/255/255 232/256/256 233/253/253
f 253/255/255 252/257/257 231/258/258 232/256/256
f 260/259/259 228/260/260 243/261/261 259/244/244
f 228/260/260 229/262/262 244/263/263 243/261/261
f 229/262/262 230/264/264 245/265/265 244/263/263
f 252/257/257 253/255/255 256/228/228 257/239/239
f 253/255/255 254/252/252 255/229/229 256/228/228
f 246/238/238 247/227/227 250/233/233 251/232/232
f 247/227/227 248/226/226 249/235/235 250/233/233
f 227/231/231 226/230/230 244/263/263 245/265/265
f 226/230/230 242/234/234 243/261/261 244/263/263
f 258/254/254 233/253/253 228/260/260 260/259/259
f 233/253/253 232/256/256 229/262/262 228/260/260
f 232/256/256 231/258/258 230/264/264 229/262/262
f 234/250/250 258/254/254 260/259/259 235/251/251
f 235/251/251 260/259/259 259/244/244 236/243/243
f 239/248/248 263/247/247 258/254/254 234/250/250
f 254/252/252 263/247/247 265/241/241 255/229/229
f 248/226/226 262/240/240 264/237/237 249/235/235
f 242/234/234 261/236/236 259/244/244 243/261/261
f 241/245/245 262/240/240 265/241/241 238/249/249
f 237/242/242 261/236/236 264/237/237 240/246/246
f 269/266/266 266/267/267 267/268/268 268/269/269
f 273/270/270 270/271/271 271/272/272 272/273/273
f 281/274/274 278/275/275 279/276/276 280/277/277
f 277/278/278 274/279/279 275/280/280 276/281/281
f 266/267/267 273/270/270 272/273/273 267/268/268
f 274/279/279 269/266/266 268/269/269 275/280/280
f 276/281/281 279/276/276 278/275/275 277/278/278
f 280/277/277 271/272/272 270/271/271 281/274/274
f 230/264/264 267/268/268 272/273/273 245/265/265
f 231/258/258 268/269/269 267/268/268 230/264/264
f 252/257/257 275/280/280 268/269/269 231/258/258
f 271/272/272 227/231/231 245/265/265 272/273/273
f 227/231/231 271/272/272 280/277/277 251/232/232
f 275/280/280 252/257/257 257/239/239 276/281/281
f 246/238/238 279/276/276 276/281/281 257/239/239
f 279/276/276 246/238/238 251/232/232 280/277/277
f 269/266/266 274/279/279 277/278/278 278/275/275 281/274/274 270/271/271 273/270/270 266/267/267
f 285/282/282 289/283/283 290/284/284 286/285/285
f 287/286/286 290/284/284 289/283/283 288/287/287
f 294/288/288 282/289/289 295/290/290
f 296/291/291 288/287/287 289/283/283 295/290/290
f 291/292/292 292/293/293 293/294/294
f 287/286/286 284/295/295 293/294/294 292/293/293 290/284/284
f 283/296/296 286/285/285 290/284/284 292/293/293 291/292/292
f 282/289/289 296/291/291 295/290/290
f 285/282/282 294/288/288 295/290/290 289/283/283
f 300/297/297 304/298/298 305/299/299 301/300/300
f 302/301/301 305/299/299 304/298/298 303/302/302
f 309/303/303 297/304/304 310/305/305
f 311/306/306 303/302/302 304/298/298 310/305/305
f 306/307/307 307/308/308 308/309/309
f 302/301/301 299/310/310 308/309/309 307/308/308 305/299/299
f 298/311/311 301/300/300 305/299/299 307/308/308 306/307/307
f 297/304/304 311/306/306 310/305/305
f 300/297/297 309/303/303 310/305/305 304/298/298
f 334/312/312 333/313/313 342/314/314 341/315/315
f 312/316/316 313/317/317 337/318/318 336/319/319
f 328/320/320 312/316/316 336/319/319 335/321/321
f 347/322/322 328/320/320 335/321/321 350/323/323
f 333/313/313 332/324/324 343/325/325 342/314/314
f 348/326/326 334/312/312 341/315/315 351/327/327
f 347/322/322 323/328/328 322/329/329 345/330/330
f 348/326/326 327/331/331 326/332/332 350/323/323
f 349/333/333 325/334/334 324/335/335 351/327/327
f 322/329/329 323/328/328 326/332/332 327/331/331 324/335/335 325/334/334 320/336/336 321/337/337
f 349/333/333 340/338/338 319/339/339 344/340/340
f 340/338/338 339/341/341 318/342/342 319/339/339
f 339/341/341 338/343/343 317/344/344 318/342/342
f 346/345/345 314/346/346 329/347/347 345/330/330
f 314/346/346 315/348/348 330/349/349 329/347/347
f 315/348/348 316/350/350 331/351/351 330/349/349
f 338/343/343 339/341/341 342/314/314 343/325/325
f 339/341/341 340/338/338 341/315/315 342/314/314
f 332/324/324 333/313/313 336/319/319 337/318/318
f 333/313/313 334/312/312 335/321/321 336/319/319
f 313/317/317 312/316/316 330/349/349 331/351/351
f 312/316/316 328/320/320 329/347/347 330/349/349
f 344/340/340 319/339/339 314/346/346 346/345/345
f 319/339/339 318/342/342 315/348/348 314/346/346
f 318/342/342 317/344/344 316/350/350 315/348/348
f 320/336/336 344/340/340 346/345/345 321/337/337
f 321/337/337 346/345/345 345/330/330 322/329/329
f 325/334/334 349/333/333 344/340/340 320/336/336
f 340/338/338 349/333/333 351/327/327 341/315/315
f 334/312/312 348/326/326 350/323/323 335/321/321
f 328/320/320 347/322/322 345/330/330 329/347/347
f 327/331/331 348/326/326 351/327/327 324/335/335
f 323/328/328 347/322/322 350/323/323 326/332/332
f 355/352/352 352/353/353 353/354/354 354/355/355
f 359/356/356 356/357/357 357/358/358 358/359/359
f 367/360/360 364/361/361 365/362/362 366/363/363
f 363/364/364 360/365/365 361/366/366 362/367/367
f 352/353/353 359/356/356 358/359/359 353/354/354
f 360/365/365 355/352/352 354/355/355 361/366/366
f 362/367/367 365/362/362 364/361/361 363/364/364
f 366/363/363 357/358/358 356/357/357 367/360/360
f 316/350/350 353/354/354 358/359/359 331/351/351
f 317/344/344 354/355/355 353/354/354 316/350/350
f 338/343/343 361/366/366 354/355/355 317/344/344
f 357/358/358 313/317/317 331/351/351 358/359/359
f 313/317/317 357/358/358 366/363/363 337/318/318
f 361/366/366 338/343/343 343/325/325 362/367/367
f 332/324/324 365/362/362 362/367/367 343/325/325
f 365/362/362 332/324/324 337/318/318 366/363/363
f 355/352/352 360/365/365 363/364/364 364/361/361 367/360/360 356/357/357 359/356/356 352/353/353
f 390/368/368 389/369/369 398/370/370 397/371/371
f 368/372/372 369/373/373 393/374/374 392/375/375
f 384/376/376 368/372/372 392/375/375 391/377/377
f 403/378/378 384/376/376 391/377/377 406/379/379
f 389/369/369 388/380/380 399/381/381 398/370/370
f 404/382/382 390/368/368 397/371/371 407/383/383
f 403/378/378 379/384/384 378/385/385 401/386/386
f 404/382/382 383/387/387 382/388/388 406/379/379
f 405/389/389 381/390/390 380/391/391 407/383/383
f 378/385/385 379/384/384 382/388/388 383/387/387 380/391/391 381/390/390 376/392/392 377/393/393
f 405/389/389 396/394/394 375/395/395 400/396/396
f 396/394/394 395/397/397 374/398/398 375/395/395
f 395/397/397 394/399/399 373/400/400 374/398/398
f 402/401/401 370/402/402 385/403/403 401/386/386
f 370/402/402 371/404/404 386/405/405 385/403/403
f 371/404/404 372/406/406 387/407/407 386/405/405
f 394/399/399 395/397/397 398/370/370 399/381/381
f 395/397/397 396/394/394 397/371/371 398/370/370
f 388/380/380 389/369/369 392/375/375 393/374/374
f 389/369/369 390/368/368 391/377/377 392/375/375
f 369/373/373 368/372/372 386/405/405 387/407/407
f 368/372/372 384/376/376 385/403/403 386/405/405
f 400/396/396 375/395/395 370/402/402 402/401/401
f 375/395/395 374/398/398 371/404/404 370/402/402
f 374/398/398 373/400/400 372/406/406 371/404/404
f 376/392/392 400/396/396 402/401/401 377/393/393
f 377/393/393 402/401/401 401/386/386 378/385/385
f 381/390/390 405/389/389 400/396/396 376/392/392
f 396/394/394 405/389/389 407/383/383 397/371/371
f 390/368/368 404/382/382 406/379/379 391/377/377
f 384/376/376 403/378/378 401/386/386 385/403/403
f 383/387/387 404/382/382 407/383/383 380/391/391
f 379/384/384 403/378/378 406/379/379 382/388/388
f 411/408/408 408/409/409 409/410/410 410/411/411
f 415/412/412 412/413/413 413/414/414 414/415/415
f 423/416/416 420/417/417 421/418/418 422/419/419
f 419/420/420 416/421/421 417/422/422 418/423/423
f 408/409/409 415/412/412 414/415/415 409/410/410
f 416/421/421 411/408/408 410/411/411 417/422/422
f 418/423/423 421/418/418 420/417/417 419/420/420
f 422/419/419 413/414/414 412/413/413 423/416/416
f 372/406/406 409/410/410 414/415/415 387/407/407
f 373/400/400 410/411/411 409/410/410 372/406/406
f 394/399/399 417/422/422 410/411/411 373/400/400
f 413/414/414 369/373/373 387/407/407 414/415/415
f 369/373/373 413/414/414 422/419/419 393/374/374
f 417/422/422 394/399/399 399/381/381 418/423/423
f 388/380/380 421/418/418 418/423/423 399/381/381
f 421/418/418 388/380/380 393/374/374 422/419/419
f 411/408/408 416/421/421 419/420/420 420/417/417 423/416/416 412/413/413 415/412/412 408/409/409
f 427/65/424 431/66/425 432/67/426 428/68/427
f 429/69/428 432/67/426 431/66/425 430/70/429
f 436/71/430 424/72/431 437/73/432
f 438/74/433 430/70/429 431/66/425 437/73/432
f 433/75/434 434/76/435 435/77/436
f 429/69/428 426/78/437 435/77/436 434/76/435 432/67/426
f 425/79/438 428/68/427 432/67/426 434/76/435 433/75/434
f 424/72/431 438/74/433 437/73/432
f 427/65/424 436/71/430 437/73/432 431/66/425
usemtl Material.068
f 442/424/439 446/425/440 447/426/441 443/427/442
f 444/428/443 447/426/441 446/425/440 445/429/444
f 451/430/445 439/431/446 452/432/447
f 453/433/448 445/429/444 446/425/440 452/432/447
f 448/434/449 449/435/450 450/436/451
f 444/428/443 441/437/452 450/436/451 449/435/450 447/426/441
f 440/438/453 443/427/442 447/426/441 449/435/450 448/434/449
f 439/431/446 453/433/448 452/432/447
f 442/424/439 451/430/445 452/432/447 446/425/440
f 457/439/454 461/440/455 462/441/456 458/442/457
f 459/443/458 462/441/456 461/440/455 460/444/459
f 466/445/460 454/446/461 467/447/462
f 468/448/463 460/444/459 461/440/455 467/447/462
f 463/449/464 464/450/465 465/451/466
f 459/443/458 456/452/467 465/451/466 464/450/465 462/441/456
f 455/453/468 458/442/457 462/441/456 464/450/465 463/449/464
f 454/446/461 468/448/463 467/447/462
f 457/439/454 466/445/460 467/447/462 461/440/455
f 472/454/469 476/455/470 477/456/471 473/457/472
f 474/458/473 477/456/471 476/455/470 475/459/474
f 481/460/475 469/461/476 482/462/477
f 483/463/478 475/459/474 476/455/470 482/462/477
f 478/464/479 479/465/480 480/466/481
f 474/458/473 471/467/482 480/466/481 479/465/480 477/456/471
f 470/468/483 473/457/472 477/456/471 479/465/480 478/464/479
f 469/461/476 483/463/478 482/462/477
f 472/454/469 481/460/475 482/462/477 476/455/470
f 487/469/484 491/470/485 492/471/486 488/472/487
f 489/473/488 492/471/486 491/470/485 490/474/489
f 496/475/490 484/476/491 497/477/492
f 498/478/493 490/474/489 491/470/485 497/477/492
f 493/479/494 494/480/495 495/481/496
f 489/473/488 486/482/497 495/481/496 494/480/495 492/471/486
f 485/483/498 488/472/487 492/471/486 494/480/495 493/479/494
f 484/476/491 498/478/493 497/477/492
f 487/469/484 496/475/490 497/477/492 491/470/485
f 499/484/499 510/485/500 509/486/501 500/487/502
f 500/487/502 509/486/501 508/488/503 501/489/504
f 505/490/505 504/491/506 503/492/507 506/493/508
f 506/493/508 503/492/507 502/494/509 507/495/510
f 510/485/500 505/490/505 506/493/508 509/486/501
f 509/486/501 506/493/508 507/495/510 508/488/503
f 504/491/506 499/484/499 500/487/502 503/492/507
f 503/492/507 500/487/502 501/489/504 502/494/509
f 513/496/511 514/497/512 636/498/513 635/499/514
f 516/500/515 517/501/516 518/502/517 515/503/518
f 520/504/519 518/502/517 517/501/516 519/505/520
f 522/506/521 520/504/519 519/505/520 521/507/522
f 521/507/522 516/500/515 515/503/518 522/506/521
f 515/503/518 518/502/517 512/508/523 511/509/524
f 516/500/515 521/507/522 504/491/506 505/490/505
f 517/501/516 516/500/515 505/490/505 510/485/500
f 522/506/521 515/503/518 511/509/524 514/497/512
f 518/502/517 520/504/519 513/496/511 512/508/523
f 519/505/520 517/501/516 510/485/500 499/484/499
f 520/504/519 522/506/521 514/497/512 513/496/511
f 521/507/522 519/505/520 499/484/499 504/491/506
f 530/510/525 526/511/526 528/512/527
f 532/513/528 529/514/529 527/515/530
f 530/510/525 528/512/527 531/516/531
f 532/513/528 533/517/532 529/514/529
f 530/510/525 531/516/531 526/511/526
f 532/513/528 527/515/530 533/517/532
f 526/511/526 523/518/533 524/519/534 528/512/527
f 531/516/531 525/520/535 523/518/533 526/511/526
f 525/520/535 533/517/532 527/515/530 523/518/533
f 523/518/533 527/515/530 529/514/529 524/519/534
f 528/512/527 524/519/534 525/520/535 531/516/531
f 524/519/534 529/514/529 533/517/532 525/520/535
f 501/489/504 508/488/503 507/495/510 502/494/509
f 541/521/536 537/522/537 539/523/538
f 543/524/539 540/525/540 538/526/541
f 541/521/536 539/523/538 542/527/542
f 543/524/539 544/528/543 540/525/540
f 541/521/536 542/527/542 537/522/537
f 543/524/539 538/526/541 544/528/543
f 537/522/537 534/529/544 535/530/545 539/523/538
f 542/527/542 536/531/546 534/529/544 537/522/537
f 536/531/546 544/528/543 538/526/541 534/529/544
f 534/529/544 538/526/541 540/525/540 535/530/545
f 539/523/538 535/530/545 536/531/546 542/527/542
f 535/530/545 540/525/540 544/528/543 536/531/546
f 552/532/547 548/533/548 550/534/549
f 554/535/550 551/536/551 549/537/552
f 552/532/547 550/534/549 553/538/553
f 554/535/550 555/539/554 551/536/551
f 552/532/547 553/538/553 548/533/548
f 554/535/550 549/537/552 555/539/554
f 548/533/548 545/540/555 546/541/556 550/534/549
f 553/538/553 547/542/557 545/540/555 548/533/548
f 547/542/557 555/539/554 549/537/552 545/540/555
f 545/540/555 549/537/552 551/536/551 546/541/556
f 550/534/549 546/541/556 547/542/557 553/538/553
f 546/541/556 551/536/551 555/539/554 547/542/557
f 563/543/558 559/544/559 561/545/560
f 565/546/561 562/547/562 560/548/563
f 563/543/558 561/545/560 564/549/564
f 565/546/561 566/550/565 562/547/562
f 563/543/558 564/549/564 559/544/559
f 565/546/561 560/548/563 566/550/565
f 559/544/559 556/551/566 557/552/567 561/545/560
f 564/549/564 558/553/568 556/551/566 559/544/559
f 558/553/568 566/550/565 560/548/563 556/551/566
f 556/551/566 560/548/563 562/547/562 557/552/567
f 561/545/560 557/552/567 558/553/568 564/549/564
f 557/552/567 562/547/562 566/550/565 558/553/568
f 574/554/569 570/555/570 572/556/571
f 576/557/572 573/558/573 571/559/574
f 574/554/569 572/556/571 575/560/575
f 576/557/572 577/561/576 573/558/573
f 574/554/569 575/560/575 570/555/570
f 576/557/572 571/559/574 577/561/576
f 570/555/570 567/562/577 568/563/578 572/556/571
f 575/560/575 569/564/579 567/562/577 570/555/570
f 569/564/579 577/561/576 571/559/574 567/562/577
f 567/562/577 571/559/574 573/558/573 568/563/578
f 572/556/571 568/563/578 569/564/579 575/560/575
f 568/563/578 573/558/573 577/561/576 569/564/579
f 585/565/580 581/566/581 583/567/582
f 587/568/583 584/569/584 582/570/585
f 585/565/580 583/567/582 586/571/586
f 587/568/583 588/572/587 584/569/584
f 585/565/580 586/571/586 581/566/581
f 587/568/583 582/570/585 588/572/587
f 581/566/581 578/573/588 579/574/589 583/567/582
f 586/571/586 580/575/590 578/573/588 581/566/581
f 580/575/590 588/572/587 582/570/585 578/573/588
f 578/573/588 582/570/585 584/569/584 579/574/589
f 583/567/582 579/574/589 580/575/590 586/571/586
f 579/574/589 584/569/584 588/572/587 580/575/590
f 596/576/591 592/577/592 594/578/593
f 598/579/594 595/580/595 593/581/596
f 596/576/591 594/578/593 597/582/597
f 598/579/594 599/583/598 595/580/595
f 596/576/591 597/582/597 592/577/592
f 598/579/594 593/581/596 599/583/598
f 592/577/592 589/584/599 590/585/600 594/578/593
f 597/582/597 591/586/601 589/584/599 592/577/592
f 591/586/601 599/583/598 593/581/596 589/584/599
f 589/584/599 593/581/596 595/580/595 590/585/600
f 594/578/593 590/585/600 591/586/601 597/582/597
f 590/585/600 595/580/595 599/583/598 591/586/601
f 607/587/602 603/588/603 605/589/604
f 609/590/605 606/591/606 604/592/607
f 607/587/602 605/589/604 608/593/608
f 609/590/605 610/594/609 606/591/606
f 607/587/602 608/593/608 603/588/603
f 609/590/605 604/592/607 610/594/609
f 603/588/603 600/595/610 601/596/611 605/589/604
f 608/593/608 602/597/612 600/595/610 603/588/603
f 602/597/612 610/594/609 604/592/607 600/595/610
f 600/595/610 604/592/607 606/591/606 601/596/611
f 605/589/604 601/596/611 602/597/612 608/593/608
f 601/596/611 606/591/606 610/594/609 602/597/612
f 618/598/613 614/599/614 616/600/615
f 620/601/616 617/602/617 615/603/618
f 618/598/613 616/600/615 619/604/619
f 620/601/616 621/605/620 617/602/617
f 618/598/613 619/604/619 614/599/614
f 620/601/616 615/603/618 621/605/620
f 614/599/614 611/606/621 612/607/622 616/600/615
f 619/604/619 613/608/623 611/606/621 614/599/614
f 613/608/623 621/605/620 615/603/618 611/606/621
f 611/606/621 615/603/618 617/602/617 612/607/622
f 616/600/615 612/607/622 613/608/623 619/604/619
f 612/607/622 617/602/617 621/605/620 613/608/623
f 629/609/624 625/610/625 627/611/626
f 631/612/627 628/613/628 626/614/629
f 629/609/624 627/611/626 630/615/630
f 631/612/627 632/616/631 628/613/628
f 629/609/624 630/615/630 625/610/625
f 631/612/627 626/614/629 632/616/631
f 625/610/625 622/617/632 623/618/633 627/611/626
f 630/615/630 624/619/634 622/617/632 625/610/625
f 624/619/634 632/616/631 626/614/629 622/617/632
f 622/617/632 626/614/629 628/613/628 623/618/633
f 627/611/626 623/618/633 624/619/634 630/615/630
f 623/618/633 628/613/628 632/616/631 624/619/634
f 635/499/514 636/498/513 633/620/635 634/621/636
f 511/509/524 512/508/523 634/621/636 633/620/635
f 514/497/512 511/509/524 633/620/635 636/498/513
f 512/508/523 513/496/511 635/499/514 634/621/636
f 637/622/637 648/623/638 647/624/639 638/625/640
f 638/625/640 647/624/639 646/626/641 639/627/642
f 643/628/643 642/629/644 641/630/645 644/631/646
f 644/631/646 641/630/645 640/632/647 645/633/648
f 648/623/638 643/628/643 644/631/646 647/624/639
f 647/624/639 644/631/646 645/633/648 646/626/641
f 642/629/644 637/622/637 638/625/640 641/630/645
f 641/630/645 638/625/640 639/627/642 640/632/647
f 651/634/649 652/635/650 785/636/651 784/637/652
f 654/638/653 655/639/654 656/640/655 653/641/656
f 658/642/657 656/640/655 655/639/654 657/643/658
f 660/644/659 658/642/657 657/643/658 659/645/660
f 659/645/660 654/638/653 653/641/656 660/644/659
f 653/641/656 656/640/655 650/646/661 649/647/662
f 654/638/653 659/645/660 642/629/644 643/628/643
f 655/639/654 654/638/653 643/628/643 648/623/638
f 660/644/659 653/641/656 649/647/662 652/635/650
f 656/640/655 658/642/657 651/634/649 650/646/661
f 657/643/658 655/639/654 648/623/638 637/622/637
f 658/642/657 660/644/659 652/635/650 651/634/649
f 659/645/660 657/643/658 637/622/637 642/629/644
f 668/648/663 664/649/664 666/650/665
f 670/651/666 667/652/667 665/653/668
f 668/648/663 666/650/665 669/654/669
f 670/651/666 671/655/670 667/652/667
f 668/648/663 669/654/669 664/649/664
f 670/651/666 665/653/668 671/655/670
f 664/649/664 661/656/671 662/657/672 666/650/665
f 669/654/669 663/658/673 661/656/671 664/649/664
f 663/658/673 671/655/670 665/653/668 661/656/671
f 661/656/671 665/653/668 667/652/667 662/657/672
f 666/650/665 662/657/672 663/658/673 669/654/669
f 662/657/672 667/652/667 671/655/670 663/658/673
f 679/659/674 675/660/675 677/661/676
f 681/662/677 678/663/678 676/664/679
f 679/659/674 677/661/676 680/665/680
f 681/662/677 682/666/681 678/663/678
f 679/659/674 680/665/680 675/660/675
f 681/662/677 676/664/679 682/666/681
f 675/660/675 672/667/682 673/668/683 677/661/676
f 680/665/680 674/669/684 672/667/682 675/660/675
f 674/669/684 682/666/681 676/664/679 672/667/682
f 672/667/682 676/664/679 678/663/678 673/668/683
f 677/661/676 673/668/683 674/669/684 680/665/680
f 673/668/683 678/663/678 682/666/681 674/669/684
f 690/670/685 686/671/686 688/672/687
f 692/673/688 689/674/689 687/675/690
f 690/670/685 688/672/687 691/676/691
f 692/673/688 693/677/692 689/674/689
f 690/670/685 691/676/691 686/671/686
f 692/673/688 687/675/690 693/677/692
f 686/671/686 683/678/693 684/679/694 688/672/687
f 691/676/691 685/680/695 683/678/693 686/671/686
f 685/680/695 693/677/692 687/675/690 683/678/693
f 683/678/693 687/675/690 689/674/689 684/679/694
f 688/672/687 684/679/694 685/680/695 691/676/691
f 684/679/694 689/674/689 693/677/692 685/680/695
f 701/681/696 697/682/697 699/683/698
f 703/684/699 700/685/700 698/686/701
f 701/681/696 699/683/698 702/687/702
f 703/684/699 704/688/703 700/685/700
f 701/681/696 702/687/702 697/682/697
f 703/684/699 698/686/701 704/688/703
f 697/682/697 694/689/704 695/690/705 699/683/698
f 702/687/702 696/691/706 694/689/704 697/682/697
f 696/691/706 704/688/703 698/686/701 694/689/704
f 694/689/704 698/686/701 700/685/700 695/690/705
f 699/683/698 695/690/705 696/691/706 702/687/702
f 695/690/705 700/685/700 704/688/703 696/691/706
f 712/692/707 708/693/708 710/694/709
f 714/695/710 711/696/711 709/697/712
f 712/692/707 710/694/709 713/698/713
f 714/695/710 715/699/714 711/696/711
f 712/692/707 713/698/713 708/693/708
f 714/695/710 709/697/712 715/699/714
f 708/693/708 705/700/715 706/701/716 710/694/709
f 713/698/713 707/702/717 705/700/715 708/693/708
f 707/702/717 715/699/714 709/697/712 705/700/715
f 705/700/715 709/697/712 711/696/711 706/701/716
f 710/694/709 706/701/716 707/702/717 713/698/713
f 706/701/716 711/696/711 715/699/714 707/702/717
f 723/703/718 719/704/719 721/705/720
f 725/706/721 722/707/722 720/708/723
f 723/703/718 721/705/720 724/709/724
f 725/706/721 726/710/725 722/707/722
f 723/703/718 724/709/724 719/704/719
f 725/706/721 720/708/723 726/710/725
f 719/704/719 716/711/726 717/712/727 721/705/720
f 724/709/724 718/713/728 716/711/726 719/704/719
f 718/713/728 726/710/725 720/708/723 716/711/726
f 716/711/726 720/708/723 722/707/722 717/712/727
f 721/705/720 717/712/727 718/713/728 724/709/724
f 717/712/727 722/707/722 726/710/725 718/713/728
f 734/714/729 730/715/730 732/716/731
f 736/717/732 733/718/733 731/719/734
f 734/714/729 732/716/731 735/720/735
f 736/717/732 737/721/736 733/718/733
f 734/714/729 735/720/735 730/715/730
f 736/717/732 731/719/734 737/721/736
f 730/715/730 727/722/737 728/723/738 732/716/731
f 735/720/735 729/724/739 727/722/737 730/715/730
f 729/724/739 737/721/736 731/719/734 727/722/737
f 727/722/737 731/719/734 733/718/733 728/723/738
f 732/716/731 728/723/738 729/724/739 735/720/735
f 728/723/738 733/718/733 737/721/736 729/724/739
f 745/725/740 741/726/741 743/727/742
f 747/728/743 744/729/744 742/730/745
f 745/725/740 743/727/742 746/731/746
f 747/728/743 748/732/747 744/729/744
f 745/725/740 746/731/746 741/726/741
f 747/728/743 742/730/745 748/732/747
f 741/726/741 738/733/748 739/734/749 743/727/742
f 746/731/746 740/735/750 738/733/748 741/726/741
f 740/735/750 748/732/747 742/730/745 738/733/748
f 738/733/748 742/730/745 744/729/744 739/734/749
f 743/727/742 739/734/749 740/735/750 746/731/746
f 739/734/749 744/729/744 748/732/747 740/735/750
f 756/736/751 752/737/752 754/738/753
f 758/739/754 755/740/755 753/741/756
f 756/736/751 754/738/753 757/742/757
f 758/739/754 759/743/758 755/740/755
f 756/736/751 757/742/757 752/737/752
f 758/739/754 753/741/756 759/743/758
f 752/737/752 749/744/759 750/745/760 754/738/753
f 757/742/757 751/746/761 749/744/759 752/737/752
f 751/746/761 759/743/758 753/741/756 749/744/759
f 749/744/759 753/741/756 755/740/755 750/745/760
f 754/738/753 750/745/760 751/746/761 757/742/757
f 750/745/760 755/740/755 759/743/758 751/746/761
f 767/747/762 763/748/763 765/749/764
f 769/750/765 766/751/766 764/752/767
f 767/747/762 765/749/764 768/753/768
f 769/750/765 770/754/769 766/751/766
f 767/747/762 768/753/768 763/748/763
f 769/750/765 764/752/767 770/754/769
f 763/748/763 760/755/770 761/756/771 765/749/764
f 768/753/768 762/757/772 760/755/770 763/748/763
f 762/757/772 770/754/769 764/752/767 760/755/770
f 760/755/770 764/752/767 766/751/766 761/756/771
f 765/749/764 761/756/771 762/757/772 768/753/768
f 761/756/771 766/751/766 770/754/769 762/757/772
f 639/627/642 646/626/641 645/633/648 640/632/647
f 778/758/773 774/759/774 776/760/775
f 780/761/776 777/762/777 775/763/778
f 778/758/773 776/760/775 779/764/779
f 780/761/776 781/765/780 777/762/777
f 778/758/773 779/764/779 774/759/774
f 780/761/776 775/763/778 781/765/780
f 774/759/774 771/766/781 772/767/782 776/760/775
f 779/764/779 773/768/783 771/766/781 774/759/774
f 773/768/783 781/765/780 775/763/778 771/766/781
f 771/766/781 775/763/778 777/762/777 772/767/782
f 776/760/775 772/767/782 773/768/783 779/764/779
f 772/767/782 777/762/777 781/765/780 773/768/783
f 784/637/652 785/636/651 782/769/784 783/770/785
f 649/647/662 650/646/661 783/770/785 782/769/784
f 652/635/650 649/647/662 782/769/784 785/636/651
f 650/646/661 651/634/649 784/637/652 783/770/785
