# Blender 4.5.5 LTS
# www.blender.org
o SM_Vegetative_Severe
v -0.213645 1.418327 0.013016
v -0.137086 1.839708 -0.027059
v -0.151590 0.563480 0.080661
v -0.165688 1.414063 0.025944
v -0.093152 1.831104 -0.016754
v -0.080270 1.827178 -0.034821
v -0.150331 1.411986 0.006689
v -0.125493 0.563382 0.052656
v -0.075161 -0.082671 0.050441
v -0.103336 -0.082671 0.080312
v -0.151114 -0.082671 0.081708
v -0.180985 -0.082671 0.053532
v -0.106428 -0.082671 -0.025512
v -0.076557 -0.082671 0.002663
v -0.182381 -0.082671 0.005755
v -0.154206 -0.082671 -0.024117
v -0.224145 0.563737 0.055603
v -0.196134 0.563639 0.081992
v -0.194277 1.416928 0.028803
v -0.118800 1.836762 -0.013250
v -0.128689 1.834988 -0.071326
v -0.201593 1.415745 -0.035050
v -0.199617 0.563663 -0.017159
v -0.225714 0.563748 0.010837
v -0.216946 1.417793 -0.015813
v -0.141571 1.838911 -0.053267
v -0.084715 1.826372 -0.061050
v -0.153644 1.411455 -0.022134
v -0.127072 0.563390 0.007890
v -0.155087 0.563501 -0.018489
v -0.173018 1.412885 -0.037901
v -0.103002 1.829323 -0.074849
v -0.115466 0.246179 0.050892
v -0.188648 0.238084 0.081187
v -0.142605 0.243119 0.079842
v -0.217441 0.235026 0.053867
v -0.191646 0.238084 -0.021405
v -0.116824 0.246180 0.004577
v -0.218794 0.235026 0.007549
v -0.145608 0.243120 -0.022747
v -0.219588 0.323621 0.060711
v -0.194128 0.328225 -0.026002
v -0.502432 1.068397 0.014594
v -0.324930 0.724297 0.061524
v -0.291800 0.729404 -0.107851
v -0.525650 1.029296 -0.071810
v -0.348346 0.684128 -0.032701
v -0.209191 0.289833 0.037052
v -0.251946 0.298075 0.013039
v -0.196726 0.292784 -0.005632
v -0.073872 0.778125 -0.074636
v -0.011143 0.786307 0.008051
v 0.083999 1.264768 -0.256456
v 0.214395 1.270434 -0.111139
v 0.384474 1.495707 -0.385963
v 0.172406 1.207011 -0.201600
v -0.068089 0.743841 -0.040942
v -0.016318 0.735714 -0.062830
v -0.036990 0.748582 -0.000458
v -0.192640 0.262181 -0.270207
v -0.108706 0.300254 -0.267775
v -0.202742 0.323242 -0.823285
v -0.206115 0.289029 -0.671537
v -0.053125 0.296475 -0.673996
v -0.051015 0.269372 -0.803599
v -0.146798 0.242663 -0.806963
v -0.131903 0.227359 -0.657490
v -0.167974 0.264651 -0.235223
v -0.138781 0.229923 -0.256930
v -0.126693 0.283547 -0.234697
v -0.122711 0.311636 -1.115658
v -0.101882 0.257147 -1.116628
v -0.050287 0.294693 -1.102164
v -0.178760 0.519748 0.070503
v -0.229472 0.529436 0.047180
v -0.329907 1.396192 0.324126
v -0.422772 1.409283 0.291705
v -0.380346 1.353212 0.324995
v -0.294421 0.947209 0.181363
v -0.187887 0.481042 0.057928
v -0.208234 0.490937 0.082285
v -0.212941 0.486619 0.046569
v -0.426072 1.696989 0.443036
v -0.446884 1.655146 0.449908
v -0.469208 1.701786 0.427742
v 0.188467 1.328885 0.139255
v 0.103341 0.474091 0.103608
v 0.212004 1.316021 0.181275
v 0.236221 1.312063 0.178312
v 0.141439 0.470573 0.102369
v 0.117661 -0.174057 0.040644
v 0.076780 -0.170349 0.041712
v 0.042716 -0.162241 0.009176
v 0.042212 -0.156100 -0.031422
v 0.150391 -0.165912 -0.034249
v 0.150895 -0.172054 0.006349
v 0.075446 -0.154097 -0.065717
v 0.116327 -0.157805 -0.066785
v 0.071090 0.487660 0.035285
v 0.071577 0.481805 0.073319
v 0.190439 1.323617 0.163641
v 0.230973 1.326060 0.113810
v 0.140142 0.486085 0.001739
v 0.102050 0.489592 0.002971
v 0.206769 1.329987 0.116758
v 0.254510 1.313171 0.155811
v 0.172390 0.472503 0.070047
v 0.171895 0.478370 0.032020
v 0.252523 1.318469 0.131440
v 0.120085 0.156601 0.061292
v 0.047000 0.160009 0.029893
v 0.080296 0.157153 0.061992
v 0.046345 0.162924 -0.009804
v 0.118362 0.164310 -0.043748
v 0.152299 0.158544 0.028043
v 0.078564 0.164866 -0.043051
v 0.151653 0.161456 -0.011651
v 0.205582 0.549471 0.014696
v 0.129444 0.558425 0.085136
v 0.462844 1.430487 0.180162
v 0.314442 1.080324 0.048563
v 0.184177 1.091983 0.193640
v 0.341809 1.441197 0.317231
v 0.431036 1.387201 0.277959
v 0.279662 1.035344 0.153099
v 0.179149 0.512568 0.031536
v 0.207195 0.519136 0.080482
v 0.141782 0.517744 0.066256
v 0.558507 1.548936 0.385325
v 0.106217 0.123705 0.003866
v 0.048761 0.152408 -0.022657
v 0.165844 0.686906 0.197505
v 0.050497 0.736326 0.156758
v 0.063757 1.221753 0.386074
v 0.098060 1.139112 0.419219
v 0.087657 0.650356 0.193078
v 0.084543 0.081874 -0.016070
v 0.062728 0.096401 0.015167
v 0.056378 0.096974 -0.028877
v -0.030832 1.506919 -0.070080
v -0.090460 1.929131 -0.013417
v -0.077070 0.648754 -0.045477
v -0.076898 1.501188 -0.051909
v -0.131515 1.919303 0.004702
v -0.131051 1.916501 0.027055
v -0.077825 1.500283 -0.027226
v -0.081600 0.650310 -0.007498
v -0.087877 0.005450 0.056055
v -0.082767 0.003691 0.015349
v -0.045069 0.004162 -0.014033
v -0.004379 0.006494 -0.009025
v -0.017903 0.011150 0.098689
v -0.058593 0.008818 0.093681
v 0.024905 0.009862 0.028601
v 0.019794 0.011622 0.069307
v -0.003817 0.651633 -0.068236
v -0.041950 0.649350 -0.072902
v -0.055680 1.504185 -0.071261
v -0.113191 1.925006 -0.013569
v -0.070898 1.927428 0.027409
v -0.012088 1.507571 -0.024140
v 0.019295 0.656370 0.004834
v 0.023831 0.654803 -0.033136
v -0.011152 1.508447 -0.048804
v -0.071356 1.930228 0.005061
v -0.111969 1.917589 0.045575
v -0.058139 1.501815 -0.005963
v -0.053943 0.653477 0.027596
v -0.015815 0.655771 0.032250
v -0.033300 1.504578 -0.004803
v -0.089243 1.921719 0.045719
v -0.072444 0.333915 0.015564
v -0.030883 0.324588 -0.051701
v -0.067469 0.329155 -0.023635
v 0.008589 0.323797 -0.046593
v 0.031999 0.331820 0.029093
v -0.044052 0.337181 0.052036
v 0.036979 0.327062 -0.010116
v -0.004585 0.336388 0.057153
v -0.265769 2.481583 0.131224
v -0.264881 2.478244 0.146208
v -0.238554 2.491878 0.118685
v -0.253887 2.487769 0.118824
v -0.251503 2.478857 0.158390
v -0.236137 2.482897 0.158212
v -0.224262 2.489054 0.145759
v -0.225185 2.492466 0.130827
v -0.823727 0.291392 0.110904
v -0.822629 0.308070 0.008144
v -1.732303 0.290375 0.137250
v -1.342958 0.306711 0.132797
v -1.341693 0.321968 -0.061928
v -1.755474 0.313493 -0.042975
v -1.724175 0.242331 0.036874
v -1.330315 0.248376 0.029851
v -0.785051 0.285320 0.082419
v -0.811791 0.239835 0.061408
v -0.785260 0.293737 0.031845
v -1.964938 0.280423 0.102411
v -1.946290 0.237050 0.059157
v -1.965285 0.293228 0.018008
v -0.122479 0.749434 -0.062731
v -0.079686 0.767502 -0.114411
v -0.262163 1.328299 -0.123154
v -0.189188 1.357415 -0.229146
v -0.242683 1.280658 -0.192576
v -0.102519 0.703543 -0.073341
v -0.125662 0.717088 -0.104060
v -0.081617 0.713430 -0.098849
v 0.047794 1.437512 0.150418
v 0.071730 0.592225 0.148367
v 0.071776 1.434618 0.106810
v 0.056798 1.435144 0.087155
v 0.051082 0.593781 0.116171
v 0.015525 -0.051079 0.115480
v 0.037458 -0.052838 0.150150
v 0.027039 -0.052367 0.196797
v -0.007554 -0.050035 0.218799
v -0.065593 -0.045379 0.127057
v -0.031001 -0.047711 0.105054
v -0.054079 -0.046667 0.208373
v -0.076012 -0.044907 0.173703
v 0.029656 0.595104 0.212505
v 0.062056 0.592821 0.191864
v 0.067712 1.435688 0.135377
v 0.004129 1.440023 0.126981
v -0.034639 0.599841 0.170795
v -0.014000 0.598273 0.202988
v 0.019087 1.439469 0.146626
v 0.028095 1.437103 0.083376
v 0.007423 0.596947 0.106665
v -0.024967 0.599242 0.127312
v 0.008197 1.438955 0.098430
v 0.029353 0.277386 0.116770
v 0.040035 0.268059 0.195114
v 0.050434 0.272626 0.150190
v 0.006319 0.267268 0.216265
v -0.059867 0.275291 0.172726
v -0.015750 0.280652 0.106667
v -0.038785 0.270533 0.206157
v -0.049468 0.279859 0.127808
v -0.166968 0.575763 0.207039
v -0.128888 0.577320 0.203454
v -0.111969 -0.067540 0.172172
v -0.152837 -0.069300 0.175765
v -0.189511 -0.068829 0.145115
v -0.193201 -0.066497 0.104284
v -0.085058 -0.061840 0.094778
v -0.081368 -0.064173 0.135609
v -0.162600 -0.063129 0.067721
v -0.121732 -0.061369 0.064128
v -0.204671 0.578642 0.140237
v -0.201186 0.576359 0.178495
v -0.138121 0.583379 0.102228
v -0.176194 0.581812 0.105806
v -0.100420 0.580486 0.169016
v -0.103915 0.582780 0.130764
v -0.119456 0.260924 0.183870
v -0.193976 0.251597 0.157436
v -0.158823 0.256165 0.187277
v -0.197310 0.250806 0.117775
v -0.128268 0.258829 0.078923
v -0.089796 0.264190 0.148422
v -0.167644 0.254071 0.082328
v -0.093120 0.263397 0.108764
v 0.030052 0.240399 -1.303031
v 0.016747 0.257779 -0.297903
v 0.080766 0.280687 -0.301075
v -0.017234 0.248574 -0.896951
v -0.021087 0.250568 -0.604523
v 0.104484 0.282674 -0.612821
v 0.098711 0.277326 -0.905121
v 0.051176 0.225204 -0.883980
v 0.053261 0.227109 -0.591534
v 0.037525 0.256449 -0.273606
v 0.055052 0.230173 -0.293639
v 0.068972 0.267873 -0.275658
v 0.017674 0.261241 -1.125165
v 0.049013 0.235492 -1.110331
v 0.071818 0.274388 -1.128186
v 0.290442 1.520465 -0.415854
v 0.294102 1.517048 -0.412898
v 0.308622 1.512766 -0.407947
v 0.295735 1.516382 -0.412206
v 0.337288 1.527341 -0.415001
v 0.336727 1.525436 -0.413679
v 0.336788 1.525820 -0.413952
v 0.324561 1.516492 -0.408670
v 0.324345 1.516365 -0.408604
v 0.309163 1.512960 -0.408021
v 0.286209 1.524588 -0.419480
v 0.284184 1.525971 -0.420781
v 0.283981 1.527428 -0.421882
v 0.418525 1.546500 -0.297362
v 0.417535 1.544976 -0.301145
v 0.419281 1.547604 -0.295982
v 0.416209 1.542379 -0.320216
v 0.414408 1.539955 -0.318247
v 0.414690 1.540419 -0.316402
v 0.416006 1.542659 -0.306009
v -0.247975 0.987629 0.182304
v -0.248835 1.002225 0.186875
v -0.247642 0.984488 0.181285
v -0.242892 1.007098 0.186905
v -0.247955 1.003947 0.187178
v -0.244595 1.008893 0.187851
v -0.245965 1.009741 0.188433
v -0.235776 0.955984 0.172774
v -0.234752 0.955571 0.172917
v -0.246448 0.979178 0.179882
v -0.247023 0.981005 0.180394
v -0.247345 0.982926 0.180882
v -0.245344 0.975380 0.178834
v -0.239719 0.959768 0.174330
v -0.237457 0.957360 0.173385
v 0.073416 1.184721 0.389648
v 0.076423 1.180855 0.393967
v 0.080803 1.174753 0.400061
v 0.082139 1.177468 0.403836
v 0.068504 1.197335 0.385228
v 0.067729 1.204310 0.386616
v 0.071301 1.191031 0.388112
v 0.065259 1.218136 0.387525
v -0.319155 0.994679 0.172993
v -0.312041 0.972483 0.169280
v -0.314367 0.981921 0.172057
v -0.316560 0.987207 0.172086
v -0.321641 0.997863 0.171014
v -0.335759 1.010466 0.155854
v -0.333470 1.008550 0.158404
v -0.327024 1.004098 0.166259
v -0.311475 0.969014 0.167765
v -0.311417 0.969181 0.167984
v -0.340501 1.008971 0.146652
v -0.319795 0.960208 0.151703
v -0.316458 0.962248 0.157422
v -0.315198 0.964357 0.160231
v -0.328725 0.962159 0.139994
v -0.327833 0.961610 0.140992
v -0.323070 0.961124 0.147506
v -0.328890 0.960864 0.136832
v -0.329331 0.961105 0.136403
v -0.329561 0.961329 0.136227
v -0.328788 0.962050 0.139428
v 0.116063 1.133543 0.413195
v 0.112708 1.135173 0.414594
v 0.103414 1.141066 0.419113
v 0.103381 1.141822 0.419472
v 0.131679 1.132244 0.409618
v 0.135367 1.132397 0.408988
v 0.136003 1.132728 0.409021
v 0.166096 1.148452 0.410635
v 0.160737 1.144247 0.409692
v 0.157130 1.141775 0.409225
v 0.170200 1.151474 0.411377
v 0.149583 1.131312 -0.076888
v 0.147813 1.127769 -0.077036
v 0.154672 1.142769 -0.081824
v 0.154071 1.140946 -0.079260
v 0.156448 1.147671 -0.087362
v 0.156235 1.147458 -0.088280
v 0.156123 1.147423 -0.089089
v 0.144024 1.121335 -0.082202
v 0.144170 1.121592 -0.082038
v 0.152011 1.141019 -0.097135
v 0.153606 1.144120 -0.096609
v 0.154417 1.145292 -0.094643
v 0.148317 1.133947 -0.098795
v 0.145767 1.128478 -0.097472
v 0.149598 1.136583 -0.098996
v 0.145338 1.126998 -0.094878
v 0.144168 1.123509 -0.090141
v 0.030422 1.093885 -0.192033
v 0.033308 1.090245 -0.189410
v 0.030644 1.100299 -0.195007
v 0.037454 1.094964 -0.190361
v 0.033347 1.090261 -0.189406
v 0.033318 1.090236 -0.189403
v 0.038606 1.099471 -0.192141
v 0.038833 1.123086 -0.203273
v 0.039019 1.122836 -0.203097
v 0.039426 1.122530 -0.202825
v 0.041320 1.118199 -0.200183
v 0.041218 1.113269 -0.197876
v 0.040693 1.120143 -0.201299
v 0.040457 1.108258 -0.195735
v 0.040005 1.104422 -0.194056
v 0.037812 1.122395 -0.203263
v 0.501947 1.588189 0.398354
v 0.503285 1.586813 0.397413
v 0.500135 1.589856 0.399506
v 0.504359 1.586256 0.397275
v 0.516603 1.586834 0.399468
v 0.512674 1.584914 0.397822
v 0.511233 1.584604 0.397433
v 0.507776 1.585527 0.397404
v 0.561665 1.576729 0.356435
v 0.560636 1.574296 0.355957
v 0.559770 1.573369 0.353881
v 0.558253 1.571158 0.351125
v 0.557204 1.571137 0.346965
v 0.556607 1.571365 0.344241
v 0.559299 1.586344 0.332625
v 0.556935 1.578443 0.334984
v 0.558420 1.583009 0.334095
v 0.556771 1.576911 0.336614
v 0.556773 1.575867 0.338183
v -0.489510 1.036170 0.010628
v -0.502504 1.068276 0.014328
v -0.502294 1.068054 0.014552
v -0.489769 1.027538 0.001760
v -0.489841 1.027389 0.001466
v -0.490288 1.026896 0.000052
v -0.494668 1.024869 -0.011090
v -0.503556 1.029612 -0.025160
v -0.510161 1.037514 -0.031396
v -0.501221 1.027803 -0.022006
v -0.515483 1.046417 -0.033976
v -0.512151 1.039525 -0.033631
v -0.495249 1.024207 -0.012945
v -0.493267 1.050629 0.017017
v -0.491605 1.045944 0.015951
v -0.489521 1.036669 0.011114
v -0.489305 1.038287 0.013268
v -0.502196 1.067940 0.014657
v -0.482460 1.063566 -0.128357
v -0.481852 1.059887 -0.126838
v -0.481032 1.065680 -0.130773
v -0.476064 1.045243 -0.123711
v -0.478460 1.050980 -0.124825
v -0.480231 1.054140 -0.125046
v -0.480459 1.067192 -0.132111
v -0.459295 1.037498 -0.133953
v -0.460632 1.036936 -0.132479
v -0.455487 1.039709 -0.138487
v -0.466219 1.039451 -0.129031
v -0.468519 1.040153 -0.127426
v -0.475563 1.044840 -0.123922
v -0.238832 1.284326 -0.194738
v -0.238977 1.285868 -0.195083
v -0.238989 1.285960 -0.195102
v -0.230367 1.262671 -0.191946
v -0.237564 1.280264 -0.194112
v -0.238377 1.282985 -0.194542
v -0.218413 1.269519 -0.197503
v -0.219935 1.278034 -0.199178
v -0.219180 1.267896 -0.196846
v -0.221706 1.260405 -0.194138
v -0.222933 1.258836 -0.193348
v -0.220076 1.263982 -0.195566
v -0.221357 1.288130 -0.201285
v -0.224713 1.298466 -0.202837
v -0.227842 1.261885 -0.192553
v -0.226334 1.304117 -0.203753
v -0.239239 1.260883 -0.174874
v -0.241012 1.266735 -0.172563
v -0.243304 1.275807 -0.173545
v -0.245719 1.285248 -0.174277
v -0.247370 1.292121 -0.175873
v -0.243131 1.280665 -0.188108
v -0.241382 1.273397 -0.186444
v -0.243749 1.283263 -0.188780
v -0.239090 1.263563 -0.183446
v -0.238353 1.258820 -0.178314
v -0.238220 1.257752 -0.176818
vn -0.4293 -0.0091 -0.9031
vn -0.4878 -0.0020 -0.8730
vn 0.2730 -0.0710 -0.9594
vn 0.3422 0.0042 -0.9396
vn -0.8781 0.1165 0.4641
vn -0.8251 0.2561 0.5037
vn -0.9463 0.2163 -0.2402
vn -0.9574 0.0758 -0.2787
vn -0.9032 0.0061 0.4291
vn -0.9436 -0.0080 -0.3310
vn -0.9121 -0.0631 0.4052
vn -0.9345 -0.0608 -0.3507
vn -0.5153 0.0547 -0.8553
vn 0.2152 -0.1345 -0.9673
vn -0.4191 -0.0195 -0.9077
vn 0.3444 0.0362 -0.9381
vn -0.6743 -0.6690 0.3127
vn -0.2522 -0.6439 0.7223
vn -0.3650 -0.0257 0.9307
vn -0.2939 -0.6439 -0.7064
vn -0.6914 -0.6690 -0.2728
vn 0.9072 0.0732 -0.4143
vn 0.7417 -0.5871 -0.3244
vn 0.3001 -0.6100 -0.7334
vn 0.7593 -0.5871 0.2806
vn 0.3424 -0.6100 0.7146
vn 0.9069 0.0233 -0.4207
vn 0.9388 0.0365 0.3426
vn 0.9315 0.0702 0.3570
vn 0.8757 -0.0882 -0.4748
vn 0.9525 -0.0430 0.3015
vn 0.8195 -0.2414 -0.5197
vn 0.9481 -0.2009 0.2466
vn 0.4003 0.0294 0.9159
vn 0.4214 0.0368 0.9061
vn -0.3415 0.0244 0.9396
vn 0.4493 0.0364 0.8927
vn -0.3084 0.1009 0.9459
vn 0.4955 -0.0306 0.8681
vn -0.2415 0.1574 0.9575
vn -0.8370 -0.3837 0.3901
vn -0.8394 -0.3839 0.3847
vn -0.8637 -0.4634 -0.1982
vn -0.9000 -0.3818 -0.2102
vn -0.8555 -0.3130 0.4124
vn -0.6058 -0.3890 -0.6941
vn -0.5965 -0.3453 -0.7245
vn -0.6514 -0.7223 0.2323
vn -0.8432 -0.5075 -0.1776
vn -0.4851 -0.6209 -0.6158
vn -0.5784 -0.2751 -0.7679
vn -0.8691 -0.2135 0.4461
vn 0.1066 -0.5881 -0.8017
vn 0.5548 -0.6972 -0.4541
vn 0.6279 -0.5835 -0.5151
vn 0.1260 -0.5058 -0.8534
vn 0.8128 -0.5820 0.0260
vn 0.8564 -0.5157 0.0248
vn 0.0560 -0.8522 -0.5202
vn 0.5590 -0.6850 -0.4673
vn 0.6718 -0.7348 0.0936
vn 0.9155 -0.4016 0.0226
vn 0.1518 -0.3777 -0.9134
vn -0.7986 -0.5859 -0.1374
vn -0.2690 -0.9589 -0.0908
vn 0.0304 -0.9995 0.0075
vn -0.6712 -0.7396 -0.0508
vn 0.6391 -0.7679 0.0428
vn 0.4438 -0.8961 -0.0068
vn 0.4817 -0.8762 -0.0116
vn -0.2807 -0.9522 -0.1208
vn -0.2941 -0.7942 0.5318
vn 0.1544 -0.9512 0.2671
vn 0.6641 -0.6137 0.4270
vn 0.7978 -0.5983 0.0745
vn -0.5889 -0.8082 -0.0048
vn -0.8850 -0.4369 -0.1606
vn 0.2369 -0.2773 0.9311
vn 0.3381 -0.2615 0.9041
vn -0.3400 -0.3825 0.8592
vn -0.3740 -0.3216 0.8699
vn 0.2557 -0.2426 0.9358
vn -0.8138 -0.3388 0.4721
vn -0.8418 -0.3053 0.4452
vn -0.8472 -0.3352 0.4123
vn -0.8988 -0.3202 0.2993
vn -0.2995 -0.4224 0.8555
vn -0.0017 -0.7284 0.6852
vn -0.3399 -0.4662 0.8168
vn -0.6996 -0.6241 0.3480
vn -0.8640 -0.2759 0.4211
vn 0.2904 -0.1752 0.9407
vn 0.6202 -0.2478 0.7443
vn 0.3486 0.0977 -0.9322
vn 0.2871 0.1136 -0.9511
vn 0.8691 -0.0811 -0.4880
vn 0.9098 -0.0196 -0.4145
vn -0.9317 0.1444 -0.3334
vn -0.9290 0.2475 -0.2750
vn -0.4560 0.2484 -0.8546
vn -0.4168 0.1655 -0.8938
vn -0.9271 0.0786 -0.3665
vn -0.4014 0.1127 -0.9089
vn 0.3579 0.0859 -0.9298
vn 0.9133 0.0115 -0.4072
vn -0.7528 -0.5551 -0.3537
vn -0.7516 -0.6177 0.2316
vn -0.9212 0.0027 0.3892
vn 0.2422 -0.5578 -0.7939
vn -0.3455 -0.5306 -0.7740
vn 0.9312 -0.0675 0.3582
vn 0.6908 -0.6927 0.2072
vn 0.6758 -0.6248 -0.3910
vn 0.2700 -0.7181 0.6414
vn -0.3314 -0.6855 0.6483
vn 0.9309 -0.1164 0.3462
vn 0.4079 -0.1370 0.9027
vn 0.3956 -0.1031 0.9126
vn 0.9376 -0.2188 0.2701
vn 0.4394 -0.2161 0.8719
vn -0.3759 -0.0732 0.9238
vn -0.3536 -0.0692 0.9328
vn -0.9066 0.0476 0.4193
vn -0.3247 -0.0738 0.9429
vn -0.8811 0.1171 0.4582
vn 0.8800 -0.4749 0.0091
vn 0.5951 -0.5719 0.5646
vn 0.6696 -0.3507 0.6547
vn 0.9369 -0.3329 0.1068
vn 0.1521 -0.3174 0.9360
vn 0.0674 -0.4547 0.8881
vn -0.0171 -0.5089 0.8607
vn 0.5476 -0.6733 0.4968
vn 0.6640 -0.7322 0.1515
vn 0.6336 -0.4706 0.6141
vn 0.1049 -0.5789 0.8086
vn 0.1410 -0.1945 0.9707
vn 0.9758 -0.1947 0.0993
vn 0.8487 -0.5203 -0.0953
vn 0.1555 -0.4159 0.8960
vn -0.4718 -0.3607 0.8045
vn -0.4469 -0.3115 0.8386
vn 0.1813 -0.3872 0.9040
vn -0.8752 -0.1872 0.4460
vn -0.8842 -0.1675 0.4360
vn -0.1782 -0.7727 0.6092
vn -0.4465 -0.4538 0.7712
vn -0.8273 -0.4779 0.2953
vn -0.9072 -0.1104 0.4060
vn 0.2302 -0.3305 0.9153
vn 0.8788 0.0594 0.4734
vn 0.9079 0.0651 0.4141
vn 0.3490 -0.0068 0.9371
vn 0.2776 0.0660 0.9584
vn 0.4284 0.0941 -0.8987
vn 0.3588 0.2361 -0.9031
vn 0.8934 0.2499 -0.3732
vn 0.9323 0.1065 -0.3457
vn 0.4750 -0.0132 -0.8799
vn 0.9563 0.0265 -0.2913
vn 0.4998 -0.0805 -0.8624
vn 0.9632 -0.0249 -0.2675
vn 0.9150 0.1257 0.3834
vn 0.3998 -0.0661 0.9142
vn 0.8739 0.0492 0.4836
vn 0.2733 0.0979 0.9569
vn 0.3935 -0.6812 -0.6174
vn -0.1895 -0.6900 -0.6986
vn -0.2529 -0.0865 -0.9636
vn 0.6862 -0.5893 0.4265
vn 0.7524 -0.6399 -0.1562
vn -0.4910 0.0913 0.8664
vn -0.3767 -0.5717 0.7289
vn 0.2214 -0.5606 0.7980
vn -0.7476 -0.6144 0.2524
vn -0.6661 -0.6627 -0.3424
vn -0.4844 0.0419 0.8738
vn -0.9607 0.0012 0.2777
vn -0.9650 0.0339 0.2601
vn -0.4217 -0.0651 0.9044
vn -0.9434 -0.0753 0.3229
vn -0.3465 -0.2128 0.9136
vn -0.9010 -0.2273 0.3694
vn -0.8641 -0.0397 -0.5018
vn -0.8757 -0.0319 -0.4818
vn -0.2797 -0.0375 -0.9594
vn -0.8902 -0.0317 -0.4545
vn -0.3140 0.0379 -0.9487
vn -0.9087 -0.0943 -0.4066
vn -0.3740 0.0979 -0.9223
vn -0.9171 -0.1255 -0.3783
vn -0.4172 0.1276 -0.8998
vn -0.8765 -0.2867 0.3866
vn -0.3174 -0.2538 0.9137
vn 0.3049 0.3234 -0.8958
vn 0.8576 0.3565 -0.3707
vn 0.4073 -0.0559 0.9116
vn 0.9004 0.1971 0.3878
vn 0.0228 -0.8642 0.5026
vn -0.0138 -0.9926 -0.1210
vn 0.0241 -0.9938 -0.1085
vn 0.0120 -0.8522 0.5231
vn 0.0235 -0.7395 -0.6727
vn -0.0542 -0.7339 -0.6771
vn -0.0660 -0.6536 -0.7540
vn -0.0351 -0.9959 -0.0830
vn 0.4953 -0.8014 0.3354
vn 0.2330 -0.9706 -0.0613
vn 0.4090 -0.7223 -0.5576
vn 0.0599 -0.7064 -0.7052
vn -0.0118 -0.8092 0.5874
vn 0.0197 -0.7702 0.6375
vn -0.6276 -0.7423 -0.2346
vn -0.6825 -0.4542 -0.5727
vn -0.1322 -0.5681 -0.8123
vn -0.1785 -0.2085 -0.9616
vn -0.7109 -0.2785 -0.6458
vn -0.9743 -0.2239 0.0253
vn -0.9783 0.0669 0.1961
vn -0.9680 0.0486 0.2462
vn -0.8584 -0.0115 -0.5129
vn -0.8267 0.0378 -0.5614
vn 0.1962 0.0325 0.9800
vn 0.2476 0.0840 0.9652
vn -0.5034 0.0880 0.8596
vn -0.5484 0.0644 0.8337
vn 0.1687 -0.0001 0.9857
vn -0.5738 0.0420 0.8179
vn -0.9829 0.0637 0.1730
vn -0.8172 0.0521 -0.5740
vn 0.0932 -0.6359 0.7661
vn 0.5972 -0.6652 0.4483
vn 0.8150 -0.0394 0.5782
vn -0.8020 -0.5827 0.1310
vn -0.4856 -0.6019 0.6340
vn -0.1746 0.0129 -0.9846
vn -0.1722 -0.6169 -0.7680
vn -0.6720 -0.5889 -0.4491
vn 0.4075 -0.6513 -0.6401
vn 0.7282 -0.6717 -0.1361
vn -0.1856 -0.0051 -0.9826
vn 0.5635 -0.0364 -0.8253
vn 0.5706 -0.0311 -0.8206
vn -0.2466 -0.0555 -0.9675
vn 0.5137 -0.0580 -0.8560
vn 0.9836 -0.0528 -0.1725
vn 0.9823 -0.0383 -0.1833
vn 0.8264 -0.0097 0.5630
vn 0.9722 -0.0174 -0.2337
vn 0.8536 0.0411 0.5194
vn -0.9533 -0.0001 -0.3021
vn -0.9609 0.0325 -0.2750
vn -0.4894 0.0644 -0.8697
vn -0.4637 0.0420 -0.8850
vn 0.2970 0.0637 -0.9527
vn 0.2744 0.0669 -0.9593
vn 0.8780 0.0378 -0.4772
vn 0.8848 0.0521 -0.4630
vn -0.7236 -0.6359 -0.2685
vn -0.6722 -0.6652 0.3251
vn -0.8875 -0.0394 0.4591
vn 0.2514 -0.5827 -0.7728
vn -0.3407 -0.6019 -0.7222
vn 0.9550 0.0129 0.2963
vn 0.7614 -0.6169 0.1992
vn 0.7073 -0.5889 -0.3912
vn 0.3819 -0.6513 0.6557
vn -0.2130 -0.6717 0.7095
vn 0.9583 -0.0051 0.2857
vn 0.4750 -0.0364 0.8792
vn 0.4676 -0.0311 0.8834
vn -0.2977 -0.0528 0.9532
vn -0.2875 -0.0383 0.9570
vn -0.8793 -0.0097 0.4762
vn -0.3728 -0.9271 -0.0383
vn 0.2379 -0.9707 -0.0341
vn 0.2562 -0.9661 0.0334
vn -0.3610 -0.9322 0.0269
vn 0.7705 -0.6372 0.0136
vn 0.7606 -0.6482 -0.0355
vn -0.5583 -0.8296 -0.0065
vn 0.2242 -0.9734 -0.0468
vn 0.2169 -0.9735 -0.0724
vn 0.8134 -0.5760 -0.0809
vn -0.1374 -0.8485 0.5110
vn 0.2473 -0.9389 0.2395
vn 0.6893 -0.6206 0.3738
vn 0.8161 -0.5768 0.0358
vn -0.4236 -0.9041 0.0553
vt 0.048560 0.668517
vt 0.048525 0.683709
vt 0.049034 0.683658
vt 0.049354 0.668514
vt 0.048310 0.683755
vt 0.049675 0.691267
vt 0.049595 0.691253
vt 0.048251 0.683745
vt 0.048123 0.668518
vt 0.048095 0.668519
vt 0.050568 0.552982
vt 0.050543 0.552982
vt 0.049825 0.691183
vt 0.050283 0.691082
vt 0.051027 0.553036
vt 0.051848 0.553126
vt 0.051218 0.547318
vt 0.051750 0.547318
vt 0.051081 0.553036
vt 0.051695 0.547318
vt 0.051193 0.547318
vt 0.052361 0.553180
vt 0.053079 0.547318
vt 0.052547 0.547318
vt 0.053104 0.547318
vt 0.052602 0.547318
vt 0.049853 0.668512
vt 0.049882 0.668512
vt 0.052386 0.553180
vt 0.049380 0.683632
vt 0.049439 0.683642
vt 0.050609 0.691029
vt 0.050688 0.691044
vt 0.051902 0.553126
vt 0.049416 0.668514
vt 0.048622 0.668517
vt 0.049165 0.683679
vt 0.048655 0.683730
vt 0.050458 0.691114
vt 0.050001 0.691215
vt 0.037306 0.706326
vt 0.037304 0.706324
vt 0.037308 0.706320
vt 0.037310 0.706317
vt 0.037538 0.705788
vt 0.037533 0.705759
vt 0.037533 0.705750
vt 0.037529 0.705596
vt 0.037527 0.705593
vt 0.037519 0.705585
vt 0.037442 0.705549
vt 0.037432 0.705537
vt 0.037326 0.705601
vt 0.037284 0.705634
vt 0.037167 0.705775
vt 0.037132 0.705811
vt 0.037073 0.705934
vt 0.036892 0.705629
vt 0.040053 0.699475
vt 0.040470 0.700191
vt 0.037469 0.706009
vt 0.037498 0.705925
vt 0.037697 0.706304
vt 0.037687 0.706277
vt 0.037662 0.706240
vt 0.037673 0.706174
vt 0.037702 0.706072
vt 0.037733 0.706015
vt 0.037776 0.705913
vt 0.037785 0.705906
vt 0.037910 0.705822
vt 0.037951 0.705810
vt 0.038051 0.705765
vt 0.038075 0.705775
vt 0.038143 0.705814
vt 0.041061 0.700282
vt 0.042534 0.692445
vt 0.041772 0.692592
vt 0.042756 0.692498
vt 0.042802 0.693129
vt 0.042348 0.693047
vt 0.121132 0.776636
vt 0.121133 0.776641
vt 0.121140 0.776661
vt 0.121775 0.776235
vt 0.118919 0.772348
vt 0.117729 0.773125
vt 0.120422 0.776662
vt 0.120425 0.776643
vt 0.120452 0.776624
vt 0.120509 0.776568
vt 0.120558 0.776522
vt 0.120580 0.776513
vt 0.120754 0.776464
vt 0.120761 0.776467
vt 0.120966 0.776513
vt 0.120969 0.776515
vt 0.122200 0.776868
vt 0.122221 0.776899
vt 0.122234 0.776919
vt 0.122244 0.776934
vt 0.119485 0.773202
vt 0.122203 0.776864
vt 0.122178 0.776831
vt 0.122182 0.776837
vt 0.115681 0.766110
vt 0.116378 0.766001
vt 0.116100 0.766174
vt 0.118543 0.771191
vt 0.118545 0.771195
vt 0.118589 0.771280
vt 0.118612 0.771328
vt 0.116448 0.766682
vt 0.118673 0.771458
vt 0.118682 0.771482
vt 0.118708 0.771547
vt 0.118706 0.771544
vt 0.118705 0.771543
vt 0.118685 0.771513
vt 0.118676 0.771496
vt 0.118655 0.771454
vt 0.118625 0.771393
vt 0.118608 0.771358
vt 0.118575 0.771284
vt 0.118568 0.771264
vt 0.118550 0.771218
vt 0.117129 0.771209
vt 0.117123 0.771214
vt 0.117121 0.771217
vt 0.117107 0.771208
vt 0.115603 0.766572
vt 0.117010 0.770910
vt 0.117008 0.770823
vt 0.117047 0.770773
vt 0.117047 0.770773
vt 0.117048 0.770773
vt 0.117103 0.770836
vt 0.117119 0.770897
vt 0.117137 0.770963
vt 0.117143 0.771015
vt 0.117154 0.771083
vt 0.117155 0.771150
vt 0.117146 0.771177
vt 0.134063 0.795495
vt 0.134463 0.795323
vt 0.134114 0.793872
vt 0.133488 0.794046
vt 0.134411 0.794177
vt 0.134956 0.795670
vt 0.135560 0.794755
vt 0.135273 0.794498
vt 0.133740 0.791401
vt 0.133955 0.791479
vt 0.133963 0.791443
vt 0.134051 0.791669
vt 0.133596 0.791592
vt 0.135147 0.794674
vt 0.126130 0.791464
vt 0.126139 0.791455
vt 0.125664 0.793580
vt 0.125388 0.793345
vt 0.125858 0.791128
vt 0.126113 0.791331
vt 0.126111 0.791348
vt 0.126107 0.791428
vt 0.126111 0.791437
vt 0.126122 0.791469
vt 0.125765 0.791247
vt 0.125764 0.791247
vt 0.125156 0.793652
vt 0.125606 0.791465
vt 0.125632 0.791473
vt 0.125644 0.791463
vt 0.125680 0.791438
vt 0.125709 0.791404
vt 0.125723 0.791387
vt 0.125737 0.791346
vt 0.125749 0.791317
vt 0.125761 0.791266
vt 0.124903 0.795249
vt 0.125025 0.794995
vt 0.126440 0.788581
vt 0.126328 0.788635
vt 0.126303 0.788611
vt 0.125667 0.791203
vt 0.125666 0.791205
vt 0.126212 0.788845
vt 0.125746 0.791222
vt 0.125739 0.791210
vt 0.125722 0.791200
vt 0.125705 0.791205
vt 0.125680 0.791208
vt 0.125675 0.791211
vt 0.125674 0.791210
vt 0.125669 0.791202
vt 0.126117 0.791312
vt 0.126115 0.791323
vt 0.126489 0.788792
vt 0.126184 0.791173
vt 0.126179 0.791175
vt 0.126169 0.791183
vt 0.126157 0.791196
vt 0.126126 0.791281
vt 0.126120 0.791302
vt 0.125138 0.795223
vt 0.046894 0.669485
vt 0.048513 0.684460
vt 0.048897 0.684325
vt 0.047460 0.669347
vt 0.045662 0.669513
vt 0.047755 0.684511
vt 0.048081 0.684530
vt 0.046214 0.669547
vt 0.047547 0.554047
vt 0.048121 0.554081
vt 0.048831 0.554072
vt 0.049424 0.554021
vt 0.047473 0.548359
vt 0.047482 0.548250
vt 0.047558 0.553995
vt 0.048794 0.548329
vt 0.048065 0.548395
vt 0.049436 0.553969
vt 0.049411 0.548075
vt 0.049402 0.548184
vt 0.048818 0.548039
vt 0.048089 0.548105
vt 0.047469 0.669243
vt 0.046917 0.669208
vt 0.048861 0.553934
vt 0.048933 0.684231
vt 0.048607 0.684211
vt 0.048152 0.553944
vt 0.046237 0.669271
vt 0.045671 0.669408
vt 0.048175 0.684281
vt 0.047790 0.684417
vt 0.120783 0.796070
vt 0.120592 0.795810
vt 0.119683 0.793698
vt 0.119892 0.793968
vt 0.119110 0.794038
vt 0.120056 0.796135
vt 0.121074 0.796995
vt 0.121053 0.797000
vt 0.121032 0.797004
vt 0.121026 0.797007
vt 0.121018 0.797016
vt 0.121007 0.797027
vt 0.121358 0.796782
vt 0.121106 0.797009
vt 0.121082 0.796997
vt 0.119080 0.790558
vt 0.119248 0.790598
vt 0.118855 0.790589
vt 0.118781 0.790834
vt 0.119238 0.790780
vt 0.121353 0.796917
vt 0.121364 0.796929
vt 0.121370 0.796934
vt 0.121377 0.796948
vt 0.121362 0.797006
vt 0.121356 0.796987
vt 0.121346 0.796960
vt 0.121345 0.796951
vt 0.121344 0.796945
vt 0.121342 0.796919
vt 0.121346 0.796917
vt 0.117393 0.777477
vt 0.117392 0.777487
vt 0.117321 0.777451
vt 0.117509 0.770869
vt 0.118549 0.771361
vt 0.118298 0.777617
vt 0.118244 0.777576
vt 0.118174 0.777519
vt 0.118126 0.777486
vt 0.117844 0.777364
vt 0.117835 0.777360
vt 0.117785 0.777358
vt 0.117571 0.777375
vt 0.117524 0.777397
vt 0.117118 0.777931
vt 0.117068 0.778013
vt 0.117034 0.778065
vt 0.117008 0.778150
vt 0.116974 0.778235
vt 0.116962 0.778329
vt 0.116928 0.778515
vt 0.116910 0.778564
vt 0.117063 0.772026
vt 0.117130 0.777967
vt 0.117769 0.763213
vt 0.117432 0.763409
vt 0.117411 0.763417
vt 0.117300 0.764163
vt 0.118030 0.763776
vt 0.116858 0.764932
vt 0.116435 0.776395
vt 0.116149 0.776355
vt 0.116385 0.764924
vt 0.116183 0.776386
vt 0.115379 0.782072
vt 0.115637 0.782087
vt 0.116448 0.776407
vt 0.116546 0.764868
vt 0.116919 0.764911
vt 0.113613 0.566291
vt 0.113995 0.566335
vt 0.115643 0.782049
vt 0.115396 0.781972
vt 0.113928 0.566400
vt 0.113436 0.566461
vt 0.113438 0.562018
vt 0.112890 0.561987
vt 0.113081 0.566302
vt 0.113764 0.562087
vt 0.113833 0.562064
vt 0.112904 0.566472
vt 0.112708 0.562050
vt 0.113256 0.562081
vt 0.112314 0.562004
vt 0.112383 0.561981
vt 0.115871 0.764893
vt 0.115499 0.764851
vt 0.112522 0.566428
vt 0.115815 0.776318
vt 0.115550 0.776297
vt 0.115090 0.781917
vt 0.114833 0.781902
vt 0.112589 0.566364
vt 0.115560 0.764830
vt 0.116033 0.764838
vt 0.115562 0.776309
vt 0.115848 0.776349
vt 0.114827 0.781940
vt 0.115073 0.782017
vt 0.113019 0.789512
vt 0.113179 0.789595
vt 0.113031 0.789467
vt 0.113211 0.789475
vt 0.113385 0.789650
vt 0.113565 0.789658
vt 0.113418 0.789529
vt 0.113578 0.789612
vt 0.115269 0.778284
vt 0.113970 0.777770
vt 0.115395 0.772668
vt 0.116780 0.773202
vt 0.115122 0.773296
vt 0.113698 0.778373
vt 0.112479 0.780832
vt 0.112543 0.780281
vt 0.116428 0.765391
vt 0.115736 0.765589
vt 0.116046 0.765434
vt 0.115879 0.765975
vt 0.116655 0.765909
vt 0.113209 0.780823
vt 0.133338 0.787061
vt 0.133200 0.787142
vt 0.133463 0.787120
vt 0.132644 0.790449
vt 0.132635 0.790500
vt 0.132627 0.790561
vt 0.132607 0.790623
vt 0.132597 0.790656
vt 0.132819 0.790975
vt 0.133475 0.787444
vt 0.132499 0.790516
vt 0.132521 0.790548
vt 0.132521 0.790547
vt 0.132522 0.790538
vt 0.132525 0.790530
vt 0.132530 0.790514
vt 0.132572 0.790408
vt 0.132587 0.790403
vt 0.132617 0.790385
vt 0.132624 0.790394
vt 0.132634 0.790416
vt 0.132639 0.790439
vt 0.133219 0.787336
vt 0.132383 0.790801
vt 0.132471 0.790585
vt 0.132480 0.790543
vt 0.132493 0.790487
vt 0.132505 0.790432
vt 0.132515 0.790397
vt 0.132521 0.790378
vt 0.132520 0.790384
vt 0.132517 0.790413
vt 0.132505 0.790472
vt 0.132496 0.790516
vt 0.132493 0.790532
vt 0.033364 0.668512
vt 0.032805 0.683688
vt 0.032427 0.683634
vt 0.032739 0.668501
vt 0.032952 0.668428
vt 0.032471 0.683676
vt 0.032822 0.683703
vt 0.033445 0.668484
vt 0.035499 0.552906
vt 0.036005 0.552965
vt 0.035916 0.553049
vt 0.035264 0.553131
vt 0.035268 0.547249
vt 0.034542 0.547208
vt 0.034795 0.552920
vt 0.035699 0.547341
vt 0.035790 0.547309
vt 0.034560 0.553145
vt 0.034301 0.547291
vt 0.035027 0.547332
vt 0.033779 0.547231
vt 0.033870 0.547199
vt 0.032059 0.668460
vt 0.031566 0.668404
vt 0.034054 0.553087
vt 0.031984 0.683585
vt 0.031633 0.683558
vt 0.034143 0.553002
vt 0.031646 0.668376
vt 0.032273 0.668387
vt 0.031650 0.683574
vt 0.032028 0.683627
vt 0.016115 0.665781
vt 0.015894 0.671626
vt 0.016387 0.671683
vt 0.016621 0.665839
vt 0.016532 0.665924
vt 0.016306 0.671710
vt 0.015680 0.671700
vt 0.015880 0.666006
vt 0.018209 0.550448
vt 0.017484 0.550406
vt 0.015411 0.665795
vt 0.018640 0.550539
vt 0.018731 0.550508
vt 0.015176 0.666020
vt 0.017242 0.550489
vt 0.017968 0.550531
vt 0.016720 0.550429
vt 0.016811 0.550398
vt 0.015000 0.671659
vt 0.014507 0.671602
vt 0.014670 0.665962
vt 0.014759 0.665877
vt 0.014588 0.671575
vt 0.015214 0.671585
vt 0.037827 0.706413
vt 0.034449 0.710863
vt 0.030808 0.713862
vt 0.034010 0.710215
vt 0.034693 0.710883
s 1
f 23/1/1 22/2/2 31/3/3
f 23/1/1 31/3/3 30/4/4
f 1/5/5 2/6/6 26/7/7
f 1/5/5 26/7/7 25/8/8
f 17/9/9 1/5/5 25/8/8
f 17/9/9 25/8/8 24/10/10
f 36/11/11 17/9/9 24/10/10
f 36/11/11 24/10/10 39/12/12
f 22/2/2 21/13/13 32/14/14
f 22/2/2 32/14/14 31/3/3
f 37/15/15 23/1/1 30/4/4
f 37/15/15 30/4/4 40/16/16
f 36/11/11 12/17/17 11/18/18
f 36/11/11 11/18/18 34/19/19
f 37/15/15 16/20/20 15/21/21
f 37/15/15 15/21/21 39/12/12
f 38/22/22 14/23/23 13/24/24
f 38/22/22 13/24/24 40/16/16
f 16/20/20 13/24/24 14/23/23
f 16/20/20 14/23/23 9/25/25
f 16/20/20 9/25/25 10/26/26
f 16/20/20 10/26/26 11/18/18
f 16/20/20 11/18/18 12/17/17
f 16/20/20 12/17/17 15/21/21
f 38/22/22 29/27/27 8/28/28
f 38/22/22 8/28/28 33/29/29
f 29/27/27 28/30/30 7/31/31
f 29/27/27 7/31/31 8/28/28
f 28/30/30 27/32/32 6/33/33
f 28/30/30 6/33/33 7/31/31
f 35/34/34 3/35/35 18/36/36
f 35/34/34 18/36/36 34/19/19
f 3/35/35 4/37/37 19/38/38
f 3/35/35 19/38/38 18/36/36
f 4/37/37 5/39/39 20/40/40
f 4/37/37 20/40/40 19/38/38
f 27/32/32 28/30/30 31/3/3
f 27/32/32 31/3/3 32/14/14
f 28/30/30 29/27/27 30/4/4
f 28/30/30 30/4/4 31/3/3
f 21/13/13 22/2/2 25/8/8
f 21/13/13 25/8/8 26/7/7
f 22/2/2 23/1/1 24/10/10
f 22/2/2 24/10/10 25/8/8
f 2/6/6 1/5/5 19/38/38
f 2/6/6 19/38/38 20/40/40
f 1/5/5 17/9/9 18/36/36
f 1/5/5 18/36/36 19/38/38
f 33/29/29 8/28/28 3/35/35
f 33/29/29 3/35/35 35/34/34
f 8/28/28 7/31/31 4/37/37
f 8/28/28 4/37/37 3/35/35
f 7/31/31 6/33/33 5/39/39
f 7/31/31 5/39/39 4/37/37
f 9/25/25 33/29/29 35/34/34
f 9/25/25 35/34/34 10/26/26
f 10/26/26 35/34/34 34/19/19
f 10/26/26 34/19/19 11/18/18
f 14/23/23 38/22/22 33/29/29
f 14/23/23 33/29/29 9/25/25
f 29/27/27 38/22/22 40/16/16
f 29/27/27 40/16/16 30/4/4
f 23/1/1 37/15/15 39/12/12
f 23/1/1 39/12/12 24/10/10
f 17/9/9 36/11/11 34/19/19
f 17/9/9 34/19/19 18/36/36
f 16/20/20 37/15/15 40/16/16
f 16/20/20 40/16/16 13/24/24
f 12/17/17 36/11/11 39/12/12
f 12/17/17 39/12/12 15/21/21
f 43/41/41 409/42/41 410/43/41
f 43/41/41 410/43/41 425/44/41
f 424/45/42 423/46/42 408/47/42
f 424/45/42 408/47/42 411/48/42
f 424/45/42 411/48/42 412/49/42
f 424/45/42 412/49/42 413/50/42
f 424/45/42 413/50/42 414/51/42
f 424/45/42 414/51/42 420/52/42
f 424/45/42 420/52/42 417/53/42
f 424/45/42 417/53/42 415/54/42
f 424/45/42 415/54/42 416/55/42
f 424/45/42 416/55/42 419/56/42
f 424/45/42 419/56/42 418/57/42
f 424/45/42 418/57/42 46/58/43
f 424/45/42 46/58/43 47/59/44
f 424/45/42 47/59/44 44/60/45
f 424/45/42 44/60/45 421/61/42
f 424/45/42 421/61/42 422/62/42
f 432/63/46 428/64/46 426/65/46
f 432/63/46 426/65/46 427/66/46
f 432/63/46 427/66/46 431/67/46
f 432/63/46 431/67/46 430/68/46
f 432/63/46 430/68/46 429/69/46
f 432/63/46 429/69/46 438/70/46
f 432/63/46 438/70/46 437/71/46
f 432/63/46 437/71/46 436/72/46
f 432/63/46 436/72/46 434/73/46
f 432/63/46 434/73/46 433/74/46
f 432/63/46 433/74/46 435/75/46
f 432/63/46 435/75/46 45/76/47
f 432/63/46 45/76/47 47/59/44
f 432/63/46 47/59/44 46/58/43
f 48/77/48 49/78/49 50/79/50
f 47/59/44 45/76/47 42/80/51
f 47/59/44 42/80/51 50/79/50
f 47/59/44 50/79/50 49/78/49
f 48/77/48 41/81/52 44/60/45
f 48/77/48 44/60/45 47/59/44
f 48/77/48 47/59/44 49/78/49
f 286/82/53 287/83/53 285/84/53
f 286/82/53 285/84/53 55/85/54
f 286/82/53 55/85/54 56/86/55
f 286/82/53 56/86/55 53/87/56
f 286/82/53 53/87/56 293/88/53
f 286/82/53 293/88/53 292/89/53
f 286/82/53 292/89/53 291/90/53
f 286/82/53 291/90/53 281/91/53
f 286/82/53 281/91/53 282/92/53
f 286/82/53 282/92/53 284/93/53
f 286/82/53 284/93/53 283/94/53
f 286/82/53 283/94/53 290/95/53
f 286/82/53 290/95/53 289/96/53
f 286/82/53 289/96/53 288/97/53
f 300/98/57 295/99/57 294/100/57
f 300/98/57 294/100/57 296/101/57
f 300/98/57 296/101/57 54/102/58
f 300/98/57 54/102/58 56/86/55
f 300/98/57 56/86/55 55/85/54
f 300/98/57 55/85/54 297/103/57
f 300/98/57 297/103/57 298/104/57
f 300/98/57 298/104/57 299/105/57
f 57/106/59 58/107/60 59/108/61
f 363/109/62 364/110/62 357/111/62
f 363/109/62 357/111/62 356/112/62
f 363/109/62 356/112/62 52/113/62
f 363/109/62 52/113/62 59/108/61
f 363/109/62 59/108/61 58/107/60
f 363/109/62 58/107/60 56/86/55
f 363/109/62 56/86/55 54/102/58
f 363/109/62 54/102/58 359/114/62
f 363/109/62 359/114/62 358/115/62
f 363/109/62 358/115/62 360/116/62
f 363/109/62 360/116/62 361/117/62
f 363/109/62 361/117/62 362/118/62
f 363/109/62 362/118/62 367/119/62
f 363/109/62 367/119/62 366/120/62
f 363/109/62 366/120/62 365/121/62
f 363/109/62 365/121/62 370/122/62
f 363/109/62 370/122/62 368/123/62
f 363/109/62 368/123/62 369/124/62
f 363/109/62 369/124/62 371/125/62
f 363/109/62 371/125/62 372/126/62
f 382/127/63 381/128/63 380/129/63
f 382/127/63 380/129/63 388/130/63
f 382/127/63 388/130/63 53/87/56
f 382/127/63 53/87/56 56/86/55
f 382/127/63 56/86/55 58/107/60
f 382/127/63 58/107/60 57/106/59
f 382/127/63 57/106/59 51/131/63
f 382/127/63 51/131/63 375/132/63
f 382/127/63 375/132/63 373/133/63
f 382/127/63 373/133/63 374/134/63
f 382/127/63 374/134/63 378/135/63
f 382/127/63 378/135/63 377/136/63
f 382/127/63 377/136/63 376/137/63
f 382/127/63 376/137/63 379/138/63
f 382/127/63 379/138/63 387/139/63
f 382/127/63 387/139/63 386/140/63
f 382/127/63 386/140/63 384/141/63
f 382/127/63 384/141/63 383/142/63
f 382/127/63 383/142/63 385/143/63
f 62/144/64 66/145/65 67/146/66
f 62/144/64 67/146/66 63/147/67
f 64/148/68 67/146/66 66/145/65
f 64/148/68 66/145/65 65/149/69
f 73/150/70 65/149/69 66/145/65
f 73/150/70 66/145/65 72/151/71
f 68/152/72 69/153/73 70/154/74
f 67/146/66 64/148/68 61/155/75
f 67/146/66 61/155/75 70/154/74
f 67/146/66 70/154/74 69/153/73
f 68/152/72 60/156/76 63/147/67
f 68/152/72 63/147/67 67/146/66
f 68/152/72 67/146/66 69/153/73
f 62/144/64 71/157/77 72/151/71
f 62/144/64 72/151/71 66/145/65
f 306/158/78 304/159/78 76/160/79
f 306/158/78 76/160/79 78/161/80
f 306/158/78 78/161/80 79/162/81
f 306/158/78 79/162/81 303/163/82
f 306/158/78 303/163/82 301/164/78
f 306/158/78 301/164/78 302/165/78
f 306/158/78 302/165/78 305/166/78
f 306/158/78 305/166/78 307/167/78
f 333/168/83 332/169/84 79/162/81
f 333/168/83 79/162/81 78/161/80
f 333/168/83 78/161/80 77/170/85
f 333/168/83 77/170/85 334/171/83
f 333/168/83 334/171/83 329/172/83
f 333/168/83 329/172/83 330/173/83
f 333/168/83 330/173/83 331/174/83
f 333/168/83 331/174/83 328/175/83
f 333/168/83 328/175/83 324/176/83
f 333/168/83 324/176/83 327/177/83
f 333/168/83 327/177/83 326/178/83
f 333/168/83 326/178/83 325/179/83
f 85/180/86 77/170/85 78/161/80
f 85/180/86 78/161/80 84/181/87
f 80/182/88 81/183/89 82/184/90
f 342/185/91 343/186/91 75/187/91
f 342/185/91 75/187/91 82/184/90
f 342/185/91 82/184/90 81/183/89
f 342/185/91 81/183/89 79/162/81
f 342/185/91 79/162/81 332/169/84
f 342/185/91 332/169/84 337/188/91
f 342/185/91 337/188/91 336/189/91
f 342/185/91 336/189/91 335/190/91
f 342/185/91 335/190/91 340/191/91
f 342/185/91 340/191/91 339/192/91
f 342/185/91 339/192/91 338/193/91
f 342/185/91 338/193/91 344/194/91
f 342/185/91 344/194/91 341/195/91
f 311/196/92 312/197/92 303/163/82
f 311/196/92 303/163/82 79/162/81
f 311/196/92 79/162/81 81/183/89
f 311/196/92 81/183/89 80/182/88
f 311/196/92 80/182/88 74/198/92
f 311/196/92 74/198/92 309/199/92
f 311/196/92 309/199/92 308/200/92
f 311/196/92 308/200/92 315/201/92
f 311/196/92 315/201/92 314/202/92
f 311/196/92 314/202/92 313/203/92
f 311/196/92 313/203/92 310/204/92
f 76/160/79 83/205/93 84/181/87
f 76/160/79 84/181/87 78/161/80
f 103/206/94 102/207/95 109/208/96
f 103/206/94 109/208/96 108/209/97
f 99/210/98 86/211/99 105/212/100
f 99/210/98 105/212/100 104/213/101
f 113/214/102 99/210/98 104/213/101
f 113/214/102 104/213/101 116/215/103
f 114/216/104 103/206/94 108/209/97
f 114/216/104 108/209/97 117/217/105
f 113/214/102 94/218/106 93/219/107
f 113/214/102 93/219/107 111/220/108
f 114/216/104 98/221/109 97/222/110
f 114/216/104 97/222/110 116/215/103
f 115/223/111 96/224/112 95/225/113
f 115/223/111 95/225/113 117/217/105
f 98/221/109 95/225/113 96/224/112
f 98/221/109 96/224/112 91/226/114
f 98/221/109 91/226/114 92/227/115
f 98/221/109 92/227/115 93/219/107
f 98/221/109 93/219/107 94/218/106
f 98/221/109 94/218/106 97/222/110
f 115/223/111 107/228/116 90/229/117
f 115/223/111 90/229/117 110/230/118
f 107/228/116 106/231/119 89/232/120
f 107/228/116 89/232/120 90/229/117
f 112/233/121 87/234/122 100/235/123
f 112/233/121 100/235/123 111/220/108
f 87/234/122 88/236/124 101/237/125
f 87/234/122 101/237/125 100/235/123
f 106/231/119 107/228/116 108/209/97
f 106/231/119 108/209/97 109/208/96
f 102/207/95 103/206/94 104/213/101
f 102/207/95 104/213/101 105/212/100
f 86/211/99 99/210/98 100/235/123
f 86/211/99 100/235/123 101/237/125
f 110/230/118 90/229/117 87/234/122
f 110/230/118 87/234/122 112/233/121
f 90/229/117 89/232/120 88/236/124
f 90/229/117 88/236/124 87/234/122
f 91/226/114 110/230/118 112/233/121
f 91/226/114 112/233/121 92/227/115
f 92/227/115 112/233/121 111/220/108
f 92/227/115 111/220/108 93/219/107
f 96/224/112 115/223/111 110/230/118
f 96/224/112 110/230/118 91/226/114
f 107/228/116 115/223/111 117/217/105
f 107/228/116 117/217/105 108/209/97
f 103/206/94 114/216/104 116/215/103
f 103/206/94 116/215/103 104/213/101
f 99/210/98 113/214/102 111/220/108
f 99/210/98 111/220/108 100/235/123
f 98/221/109 114/216/104 117/217/105
f 98/221/109 117/217/105 95/225/113
f 94/218/106 113/214/102 116/215/103
f 94/218/106 116/215/103 97/222/110
f 120/238/126 124/239/127 125/240/128
f 120/238/126 125/240/128 121/241/129
f 122/242/130 125/240/128 124/239/127
f 122/242/130 124/239/127 123/243/131
f 395/244/132 396/245/132 392/246/132
f 395/244/132 392/246/132 390/247/132
f 395/244/132 390/247/132 389/248/132
f 395/244/132 389/248/132 391/249/132
f 395/244/132 391/249/132 123/243/131
f 395/244/132 123/243/131 124/239/127
f 395/244/132 124/239/127 129/250/133
f 395/244/132 129/250/133 393/251/132
f 395/244/132 393/251/132 394/252/132
f 126/253/134 127/254/135 128/255/136
f 125/240/128 122/242/130 119/256/137
f 125/240/128 119/256/137 128/255/136
f 125/240/128 128/255/136 127/254/135
f 126/253/134 118/257/138 121/241/129
f 126/253/134 121/241/129 125/240/128
f 126/253/134 125/240/128 127/254/135
f 400/258/139 399/259/139 398/260/139
f 400/258/139 398/260/139 397/261/139
f 400/258/139 397/261/139 129/250/133
f 400/258/139 129/250/133 124/239/127
f 400/258/139 124/239/127 120/238/126
f 400/258/139 120/238/126 403/262/139
f 400/258/139 403/262/139 405/263/139
f 400/258/139 405/263/139 404/264/139
f 400/258/139 404/264/139 406/265/139
f 400/258/139 406/265/139 407/266/139
f 400/258/139 407/266/139 402/267/139
f 400/258/139 402/267/139 401/268/139
f 347/269/140 348/270/140 135/271/141
f 347/269/140 135/271/141 136/272/142
f 347/269/140 136/272/142 132/273/143
f 347/269/140 132/273/143 355/274/140
f 347/269/140 355/274/140 352/275/140
f 347/269/140 352/275/140 353/276/140
f 347/269/140 353/276/140 354/277/140
f 347/269/140 354/277/140 351/278/140
f 347/269/140 351/278/140 350/279/140
f 347/269/140 350/279/140 349/280/140
f 347/269/140 349/280/140 345/281/140
f 347/269/140 345/281/140 346/282/140
f 318/283/144 317/284/144 316/285/144
f 318/283/144 316/285/144 322/286/144
f 318/283/144 322/286/144 320/287/144
f 318/283/144 320/287/144 321/288/144
f 318/283/144 321/288/144 323/289/144
f 318/283/144 323/289/144 134/290/144
f 318/283/144 134/290/144 133/291/145
f 318/283/144 133/291/145 136/272/142
f 318/283/144 136/272/142 135/271/141
f 318/283/144 135/271/141 319/292/144
f 137/293/146 138/294/147 139/295/148
f 136/272/142 133/291/145 131/296/149
f 136/272/142 131/296/149 139/295/148
f 136/272/142 139/295/148 138/294/147
f 137/293/146 130/297/150 132/273/143
f 137/293/146 132/273/143 136/272/142
f 137/293/146 136/272/142 138/294/147
f 162/298/151 161/299/152 170/300/153
f 162/298/151 170/300/153 169/301/154
f 140/302/155 141/303/156 165/304/157
f 140/302/155 165/304/157 164/305/158
f 156/306/159 140/302/155 164/305/158
f 156/306/159 164/305/158 163/307/160
f 175/308/161 156/306/159 163/307/160
f 175/308/161 163/307/160 178/309/162
f 161/299/152 160/310/163 171/311/164
f 161/299/152 171/311/164 170/300/153
f 176/312/165 162/298/151 169/301/154
f 176/312/165 169/301/154 179/313/166
f 175/308/161 151/314/167 150/315/168
f 175/308/161 150/315/168 173/316/169
f 176/312/165 155/317/170 154/318/171
f 176/312/165 154/318/171 178/309/162
f 177/319/172 153/320/173 152/321/174
f 177/319/172 152/321/174 179/313/166
f 155/317/170 152/321/174 153/320/173
f 155/317/170 153/320/173 148/322/175
f 155/317/170 148/322/175 149/323/176
f 155/317/170 149/323/176 150/315/168
f 155/317/170 150/315/168 151/314/167
f 155/317/170 151/314/167 154/318/171
f 177/319/172 168/324/177 147/325/178
f 177/319/172 147/325/178 172/326/179
f 168/324/177 167/327/180 146/328/181
f 168/324/177 146/328/181 147/325/178
f 167/327/180 166/329/182 145/330/183
f 167/327/180 145/330/183 146/328/181
f 174/331/184 142/332/185 157/333/186
f 174/331/184 157/333/186 173/316/169
f 142/332/185 143/334/187 158/335/188
f 142/332/185 158/335/188 157/333/186
f 143/334/187 144/336/189 159/337/190
f 143/334/187 159/337/190 158/335/188
f 166/329/182 167/327/180 170/300/153
f 166/329/182 170/300/153 171/311/164
f 167/327/180 168/324/177 169/301/154
f 167/327/180 169/301/154 170/300/153
f 160/310/163 161/299/152 164/305/158
f 160/310/163 164/305/158 165/304/157
f 161/299/152 162/298/151 163/307/160
f 161/299/152 163/307/160 164/305/158
f 141/303/156 140/302/155 158/335/188
f 141/303/156 158/335/188 159/337/190
f 140/302/155 156/306/159 157/333/186
f 140/302/155 157/333/186 158/335/188
f 172/326/179 147/325/178 142/332/185
f 172/326/179 142/332/185 174/331/184
f 147/325/178 146/328/181 143/334/187
f 147/325/178 143/334/187 142/332/185
f 146/328/181 145/330/183 144/336/189
f 146/328/181 144/336/189 143/334/187
f 148/322/175 172/326/179 174/331/184
f 148/322/175 174/331/184 149/323/176
f 149/323/176 174/331/184 173/316/169
f 149/323/176 173/316/169 150/315/168
f 153/320/173 177/319/172 172/326/179
f 153/320/173 172/326/179 148/322/175
f 168/324/177 177/319/172 179/313/166
f 168/324/177 179/313/166 169/301/154
f 162/298/151 176/312/165 178/309/162
f 162/298/151 178/309/162 163/307/160
f 156/306/159 175/308/161 173/316/169
f 156/306/159 173/316/169 157/333/186
f 155/317/170 176/312/165 179/313/166
f 155/317/170 179/313/166 152/321/174
f 151/314/167 175/308/161 178/309/162
f 151/314/167 178/309/162 154/318/171
f 144/336/189 180/338/191 183/339/192
f 144/336/189 183/339/192 159/337/190
f 145/330/183 181/340/193 180/338/191
f 145/330/183 180/338/191 144/336/189
f 166/329/182 184/341/194 181/340/193
f 166/329/182 181/340/193 145/330/183
f 182/342/195 141/303/156 159/337/190
f 182/342/195 159/337/190 183/339/192
f 141/303/156 182/342/195 187/343/196
f 141/303/156 187/343/196 165/304/157
f 184/341/194 166/329/182 171/311/164
f 184/341/194 171/311/164 185/344/197
f 160/310/163 186/345/198 185/344/197
f 160/310/163 185/344/197 171/311/164
f 186/345/198 160/310/163 165/304/157
f 186/345/198 165/304/157 187/343/196
f 190/346/199 194/347/200 195/348/201
f 190/346/199 195/348/201 191/349/202
f 192/350/203 195/348/201 194/347/200
f 192/350/203 194/347/200 193/351/204
f 201/352/205 193/351/204 194/347/200
f 201/352/205 194/347/200 200/353/206
f 196/354/207 197/355/208 198/356/209
f 195/348/201 192/350/203 189/357/210
f 195/348/201 189/357/210 198/356/209
f 195/348/201 198/356/209 197/355/208
f 196/354/207 188/358/211 191/349/202
f 196/354/207 191/349/202 195/348/201
f 196/354/207 195/348/201 197/355/208
f 190/346/199 199/359/212 200/353/206
f 190/346/199 200/353/206 194/347/200
f 207/360/213 208/361/214 209/362/215
f 445/363/216 446/364/216 451/365/216
f 445/363/216 451/365/216 452/366/216
f 445/363/216 452/366/216 454/367/216
f 445/363/216 454/367/216 205/368/216
f 445/363/216 205/368/216 203/369/216
f 445/363/216 203/369/216 209/362/215
f 445/363/216 209/362/215 208/361/214
f 445/363/216 208/361/214 206/370/217
f 445/363/216 206/370/217 441/371/216
f 445/363/216 441/371/216 440/372/216
f 445/363/216 440/372/216 439/373/216
f 445/363/216 439/373/216 444/374/216
f 445/363/216 444/374/216 443/375/216
f 445/363/216 443/375/216 442/376/216
f 445/363/216 442/376/216 453/377/216
f 445/363/216 453/377/216 449/378/216
f 445/363/216 449/378/216 448/379/216
f 445/363/216 448/379/216 450/380/216
f 445/363/216 450/380/216 447/381/216
f 206/370/217 208/361/214 207/360/213
f 206/370/217 207/360/213 202/382/218
f 206/370/217 202/382/218 204/383/218
f 206/370/217 204/383/218 459/384/218
f 206/370/217 459/384/218 458/385/218
f 206/370/217 458/385/218 457/386/218
f 206/370/217 457/386/218 456/387/218
f 206/370/217 456/387/218 455/388/218
f 206/370/217 455/388/218 465/389/218
f 206/370/217 465/389/218 464/390/218
f 206/370/217 464/390/218 463/391/218
f 206/370/217 463/391/218 461/392/218
f 206/370/217 461/392/218 460/393/218
f 206/370/217 460/393/218 462/394/218
f 227/395/219 226/396/220 233/397/221
f 227/395/219 233/397/221 232/398/222
f 223/399/223 210/400/224 229/401/225
f 223/399/223 229/401/225 228/402/226
f 237/403/227 223/399/223 228/402/226
f 237/403/227 228/402/226 240/404/228
f 238/405/229 227/395/219 232/398/222
f 238/405/229 232/398/222 241/406/230
f 237/403/227 218/407/231 217/408/232
f 237/403/227 217/408/232 235/409/233
f 238/405/229 222/410/234 221/411/235
f 238/405/229 221/411/235 240/404/228
f 239/412/236 220/413/237 219/414/238
f 239/412/236 219/414/238 241/406/230
f 222/410/234 219/414/238 220/413/237
f 222/410/234 220/413/237 215/415/239
f 222/410/234 215/415/239 216/416/240
f 222/410/234 216/416/240 217/408/232
f 222/410/234 217/408/232 218/407/231
f 222/410/234 218/407/231 221/411/235
f 239/412/236 231/417/241 214/418/242
f 239/412/236 214/418/242 234/419/243
f 231/417/241 230/420/244 213/421/245
f 231/417/241 213/421/245 214/418/242
f 236/422/246 211/423/247 224/424/248
f 236/422/246 224/424/248 235/409/233
f 211/423/247 212/425/249 225/426/250
f 211/423/247 225/426/250 224/424/248
f 230/420/244 231/417/241 232/398/222
f 230/420/244 232/398/222 233/397/221
f 226/396/220 227/395/219 228/402/226
f 226/396/220 228/402/226 229/401/225
f 210/400/224 223/399/223 224/424/248
f 210/400/224 224/424/248 225/426/250
f 234/419/243 214/418/242 211/423/247
f 234/419/243 211/423/247 236/422/246
f 214/418/242 213/421/245 212/425/249
f 214/418/242 212/425/249 211/423/247
f 215/415/239 234/419/243 236/422/246
f 215/415/239 236/422/246 216/416/240
f 216/416/240 236/422/246 235/409/233
f 216/416/240 235/409/233 217/408/232
f 220/413/237 239/412/236 234/419/243
f 220/413/237 234/419/243 215/415/239
f 231/417/241 239/412/236 241/406/230
f 231/417/241 241/406/230 232/398/222
f 227/395/219 238/405/229 240/404/228
f 227/395/219 240/404/228 228/402/226
f 223/399/223 237/403/227 235/409/233
f 223/399/223 235/409/233 224/424/248
f 222/410/234 238/405/229 241/406/230
f 222/410/234 241/406/230 219/414/238
f 218/407/231 237/403/227 240/404/228
f 218/407/231 240/404/228 221/411/235
f 261/427/251 252/428/252 255/429/253
f 261/427/251 255/429/253 264/430/254
f 262/431/255 254/432/256 257/433/257
f 262/431/255 257/433/257 265/434/258
f 261/427/251 247/435/259 246/436/260
f 261/427/251 246/436/260 259/437/261
f 262/431/255 251/438/262 250/439/263
f 262/431/255 250/439/263 264/430/254
f 263/440/264 249/441/265 248/442/266
f 263/440/264 248/442/266 265/434/258
f 251/438/262 248/442/266 249/441/265
f 251/438/262 249/441/265 244/443/267
f 251/438/262 244/443/267 245/444/268
f 251/438/262 245/444/268 246/436/260
f 251/438/262 246/436/260 247/435/259
f 251/438/262 247/435/259 250/439/263
f 263/440/264 256/445/269 243/446/270
f 263/440/264 243/446/270 258/447/271
f 260/448/272 242/449/273 253/450/274
f 260/448/272 253/450/274 259/437/261
f 258/447/271 243/446/270 242/449/273
f 258/447/271 242/449/273 260/448/272
f 244/443/267 258/447/271 260/448/272
f 244/443/267 260/448/272 245/444/268
f 245/444/268 260/448/272 259/437/261
f 245/444/268 259/437/261 246/436/260
f 249/441/265 263/440/264 258/447/271
f 249/441/265 258/447/271 244/443/267
f 256/445/269 263/440/264 265/434/258
f 256/445/269 265/434/258 257/433/257
f 254/432/256 262/431/255 264/430/254
f 254/432/256 264/430/254 255/429/253
f 252/428/252 261/427/251 259/437/261
f 252/428/252 259/437/261 253/450/274
f 251/438/262 262/431/255 265/434/258
f 251/438/262 265/434/258 248/442/266
f 247/435/259 261/427/251 264/430/254
f 247/435/259 264/430/254 250/439/263
f 269/41/275 273/58/276 274/59/277
f 269/41/275 274/59/277 270/60/278
f 271/76/279 274/59/277 273/58/276
f 271/76/279 273/58/276 272/451/280
f 278/452/281 266/453/282 279/454/283
f 280/455/284 272/451/280 273/58/276
f 280/455/284 273/58/276 279/454/283
f 275/77/285 276/78/286 277/79/287
f 274/59/277 271/76/279 268/80/288
f 274/59/277 268/80/288 277/79/287
f 274/59/277 277/79/287 276/78/286
f 275/77/285 267/81/289 270/60/278
f 275/77/285 270/60/278 274/59/277
f 275/77/285 274/59/277 276/78/286
f 266/453/282 280/455/284 279/454/283
f 269/41/275 278/452/281 279/454/283
f 269/41/275 279/454/283 273/58/276
