# Blender 4.5.5 LTS
# www.blender.org
mtllib Damage_Vegetative_Sap_sucking_damage.mtl
o SM_Vegetative_Severe.001
v -0.213645 1.418327 0.013016
v -0.137086 1.839708 -0.027059
v -0.151590 0.563480 0.080661
v -0.165688 1.414063 0.025944
v -0.093152 1.831104 -0.016754
v -0.080270 1.827178 -0.034821
v -0.150331 1.411986 0.006689
v -0.125493 0.563382 0.052656
v -0.075161 -0.082671 0.050441
v -0.103336 -0.082671 0.080312
v -0.151114 -0.082671 0.081708
v -0.180985 -0.082671 0.053532
v -0.106428 -0.082671 -0.025512
v -0.076557 -0.082671 0.002663
v -0.182381 -0.082671 0.005755
v -0.154206 -0.082671 -0.024117
v -0.224145 0.563737 0.055603
v -0.196134 0.563639 0.081992
v -0.194277 1.416928 0.028803
v -0.118800 1.836762 -0.013250
v -0.128689 1.834988 -0.071326
v -0.201593 1.415745 -0.035050
v -0.199617 0.563663 -0.017159
v -0.225714 0.563748 0.010837
v -0.216946 1.417793 -0.015813
v -0.141571 1.838911 -0.053267
v -0.084715 1.826372 -0.061050
v -0.153644 1.411455 -0.022134
v -0.127072 0.563390 0.007890
v -0.155087 0.563501 -0.018489
v -0.173018 1.412885 -0.037901
v -0.103002 1.829323 -0.074849
v -0.115466 0.246179 0.050892
v -0.188648 0.238084 0.081187
v -0.142605 0.243119 0.079842
v -0.217441 0.235026 0.053867
v -0.191646 0.238084 -0.021405
v -0.116824 0.246180 0.004577
v -0.218794 0.235026 0.007549
v -0.145608 0.243120 -0.022747
v 0.186370 2.706151 -0.119350
v 0.137284 2.565698 -0.094123
v 0.146088 2.560068 -0.108078
v 0.188473 2.704972 -0.122769
v 0.178338 2.708829 -0.121128
v 0.104250 2.578904 -0.101332
v 0.118403 2.574200 -0.091087
v 0.181796 2.707895 -0.118610
v 0.187367 2.704751 -0.127646
v 0.141612 2.559164 -0.127945
v 0.127405 2.563727 -0.138155
v 0.183927 2.705674 -0.130161
v 0.179352 2.707417 -0.129421
v 0.108516 2.572233 -0.135102
v 0.099769 2.578002 -0.121186
v 0.177231 2.708608 -0.126006
v -0.834769 1.491093 0.001083
v -0.187450 0.323621 0.084654
v -0.161990 0.328225 0.039069
v -0.470294 1.068397 0.060410
v -0.292792 0.724297 0.085081
v -0.259662 0.729404 -0.003959
v -0.441059 1.073281 -0.021807
v -0.493512 1.029296 0.014988
v -0.316208 0.684128 0.035547
v -0.177053 0.289833 0.072216
v -0.219808 0.298075 0.059593
v -0.164588 0.292784 0.049777
v -0.630550 1.322868 0.019767
v -0.655129 1.286547 0.000286
v -0.616837 1.324040 -0.018553
v 0.154839 1.599036 -0.354816
v -0.053676 0.806707 -0.057296
v -0.015974 0.814889 -0.005391
v 0.061294 1.465716 -0.259355
v -0.014489 1.179452 -0.191686
v 0.026902 1.185118 -0.100467
v 0.064346 1.470418 -0.172081
v 0.068019 1.410391 -0.225443
v 0.013573 1.121696 -0.157252
v -0.050201 0.772423 -0.036145
v -0.019084 0.764296 -0.049885
v -0.031509 0.777164 -0.010732
v 0.112229 1.574028 -0.313199
v 0.113988 1.523212 -0.301842
v 0.113171 1.574186 -0.272819
v -0.462051 1.585602 -0.403472
v -0.210660 1.250683 -0.003029
v -0.158245 1.259101 -0.009808
v -0.300577 1.899636 -0.208369
v -0.269100 1.659917 -0.043989
v -0.174023 1.673803 -0.066321
v -0.247156 1.924444 -0.203688
v -0.257396 1.868174 -0.188045
v -0.236443 1.628186 -0.080911
v -0.196811 1.217876 -0.004694
v -0.203184 1.231052 -0.032962
v -0.171002 1.222706 -0.008035
v -0.373278 1.768478 -0.322154
v -0.347889 1.737660 -0.305022
v -0.347876 1.779978 -0.319468
v -0.464452 1.893150 0.582362
v -0.178760 0.519748 0.070503
v -0.229472 0.529436 0.047180
v -0.366828 1.396192 0.324126
v -0.239319 0.991121 0.181271
v -0.339708 1.005111 0.145254
v -0.423147 1.409283 0.291705
v -0.397417 1.353212 0.324995
v -0.294421 0.947209 0.181363
v -0.187887 0.481042 0.057928
v -0.208234 0.490937 0.082285
v -0.212941 0.486619 0.046569
v -0.425148 1.696989 0.443036
v -0.437770 1.655146 0.449908
v -0.451308 1.701786 0.427742
v -0.491433 2.507548 -0.181889
v -0.207060 0.352455 0.013369
v -0.166547 0.378768 -0.008746
v -0.356937 1.704332 -0.051106
v -0.278376 1.070156 0.002309
v -0.205490 1.115958 -0.046294
v -0.290181 1.747029 -0.096400
v -0.332463 1.656940 -0.090716
v -0.251121 1.022702 -0.040157
v -0.192061 0.297294 0.006522
v -0.200956 0.320788 -0.014822
v -0.172196 0.311464 -0.004347
v -0.411291 2.185467 -0.114591
v -0.405106 2.131644 -0.137213
v -0.380062 2.203403 -0.135734
v 0.188467 1.328885 0.139255
v 0.309397 1.732192 0.227283
v 0.103341 0.474091 0.103608
v 0.212004 1.316021 0.181275
v 0.331624 1.715838 0.264011
v 0.353105 1.710439 0.259866
v 0.236221 1.312063 0.178312
v 0.141439 0.470573 0.102369
v 0.117661 -0.174057 0.040644
v 0.076780 -0.170349 0.041712
v 0.042716 -0.162241 0.009176
v 0.042212 -0.156100 -0.031422
v 0.150391 -0.165912 -0.034249
v 0.150895 -0.172054 0.006349
v 0.075446 -0.154097 -0.065717
v 0.116327 -0.157805 -0.066785
v 0.071090 0.487660 0.035285
v 0.071577 0.481805 0.073319
v 0.190439 1.323617 0.163641
v 0.311893 1.725659 0.249302
v 0.346455 1.727745 0.201606
v 0.230973 1.326060 0.113810
v 0.140142 0.486085 0.001739
v 0.102050 0.489592 0.002971
v 0.206769 1.329987 0.116758
v 0.324978 1.733141 0.205744
v 0.368729 1.711374 0.238341
v 0.254510 1.313171 0.155811
v 0.172390 0.472503 0.070047
v 0.171895 0.478370 0.032020
v 0.252523 1.318469 0.131440
v 0.366226 1.717911 0.216329
v 0.120085 0.156601 0.061292
v 0.047000 0.160009 0.029893
v 0.080296 0.157153 0.061992
v 0.046345 0.162924 -0.009804
v 0.118362 0.164310 -0.043748
v 0.152299 0.158544 0.028043
v 0.078564 0.164866 -0.043051
v 0.151653 0.161456 -0.011651
v 0.680580 2.534105 0.515254
v 0.550478 2.240824 0.427361
v 0.564598 2.235827 0.423883
v 0.682704 2.533324 0.514647
v 0.678319 2.536387 0.511625
v 0.535735 2.255459 0.403436
v 0.537476 2.249713 0.418132
v 0.678601 2.535489 0.513890
v 0.684220 2.533408 0.512289
v 0.574745 2.236430 0.408902
v 0.572951 2.242115 0.394173
v 0.683943 2.534298 0.510031
v 0.681963 2.535682 0.508667
v 0.559896 2.250982 0.384957
v 0.545841 2.256040 0.388468
v 0.679834 2.536471 0.509267
v 0.710289 1.688614 0.186221
v 0.184012 0.557236 0.059451
v 0.135853 0.565254 0.109229
v 0.439930 1.426605 0.175252
v 0.286424 1.085034 0.077862
v 0.207136 1.094448 0.174495
v 0.355482 1.437401 0.226004
v 0.419479 1.382791 0.197609
v 0.272455 1.037795 0.132571
v 0.165123 0.520271 0.071225
v 0.192952 0.525195 0.088856
v 0.141530 0.524983 0.095763
v 0.528901 1.586214 0.190731
v 0.526099 1.541626 0.198032
v 0.489041 1.588981 0.214328
v 0.113079 1.779934 0.800881
v 0.106217 0.123705 0.003866
v 0.048761 0.152408 -0.022657
v 0.137310 1.175971 0.422655
v 0.165844 0.686906 0.197505
v 0.050497 0.736326 0.156758
v 0.090305 1.221753 0.386074
v 0.105420 1.139112 0.419219
v 0.087657 0.650356 0.193078
v 0.084543 0.081874 -0.016070
v 0.062728 0.096401 0.015167
v 0.056378 0.096974 -0.028877
v 0.123537 1.545746 0.605933
v 0.107333 1.501121 0.609521
v 0.101544 1.565518 0.588498
v -0.030832 1.506919 -0.070080
v -0.090460 1.929131 -0.013417
v -0.077070 0.648754 -0.045477
v -0.076898 1.501188 -0.051909
v -0.131515 1.919303 0.004702
v -0.131051 1.916501 0.027055
v -0.077825 1.500283 -0.027226
v -0.081600 0.650310 -0.007498
v -0.087877 0.005450 0.056055
v -0.082767 0.003691 0.015349
v -0.045069 0.004162 -0.014033
v -0.004379 0.006494 -0.009025
v -0.017903 0.011150 0.098689
v -0.058593 0.008818 0.093681
v 0.024905 0.009862 0.028601
v 0.019794 0.011622 0.069307
v -0.003817 0.651633 -0.068236
v -0.041950 0.649350 -0.072902
v -0.055680 1.504185 -0.071261
v -0.113191 1.925006 -0.013569
v -0.070898 1.927428 0.027409
v -0.012088 1.507571 -0.024140
v 0.019295 0.656370 0.004834
v 0.023831 0.654803 -0.033136
v -0.011152 1.508447 -0.048804
v -0.071356 1.930228 0.005061
v -0.111969 1.917589 0.045575
v -0.058139 1.501815 -0.005963
v -0.053943 0.653477 0.027596
v -0.015815 0.655771 0.032250
v -0.033300 1.504578 -0.004803
v -0.089243 1.921719 0.045719
v -0.072444 0.333915 0.015564
v -0.030883 0.324588 -0.051701
v -0.067469 0.329155 -0.023635
v 0.008589 0.323797 -0.046593
v 0.031999 0.331820 0.029093
v -0.044052 0.337181 0.052036
v 0.036979 0.327062 -0.010116
v -0.004585 0.336388 0.057153
v -0.338394 2.796483 0.210170
v -0.265769 2.481583 0.131224
v -0.264881 2.478244 0.146208
v -0.338193 2.795973 0.212320
v -0.334476 2.798017 0.208338
v -0.238554 2.491878 0.118685
v -0.253887 2.487769 0.118824
v -0.336717 2.797407 0.208373
v -0.336189 2.796044 0.214061
v -0.251503 2.478857 0.158390
v -0.236137 2.482897 0.158212
v -0.333956 2.796648 0.214031
v -0.332278 2.797571 0.212234
v -0.224262 2.489054 0.145759
v -0.225185 2.492466 0.130827
v -0.332471 2.798088 0.210079
v -0.309211 1.990583 0.227888
v -0.024870 0.728912 0.042357
v -0.061136 0.733826 -0.008002
v -0.089632 1.647876 0.112813
v -0.019023 1.270470 0.064366
v -0.096535 1.277479 -0.023734
v -0.163068 1.654473 0.030761
v -0.150363 1.609689 0.088946
v -0.083781 1.230818 0.038319
v -0.035493 0.690450 0.028348
v -0.067845 0.705128 0.039514
v -0.053330 0.693647 0.003565
v -0.207031 1.836356 0.153124
v -0.220827 1.796157 0.144737
v -0.210421 1.837076 0.111601
v -0.191652 1.610261 -0.508772
v -0.199271 0.600619 -0.000271
v -0.153150 0.617290 0.010826
v -0.156657 1.552057 -0.195761
v -0.211042 1.103339 -0.034250
v -0.122161 1.130056 -0.024179
v -0.127195 1.581131 -0.194054
v -0.144025 1.509355 -0.181767
v -0.164818 1.051806 -0.040601
v -0.186401 0.554060 0.006030
v -0.177394 0.568821 -0.017176
v -0.163704 0.563265 0.011428
v -0.176290 1.585726 -0.331053
v -0.173405 1.561246 -0.301711
v -0.162286 1.595023 -0.333998
v 0.047794 1.437512 0.150418
v 0.050813 1.862943 0.104230
v 0.071730 0.592225 0.148367
v 0.071776 1.434618 0.106810
v 0.070936 1.856103 0.063503
v 0.056354 1.854694 0.046381
v 0.056798 1.435144 0.087155
v 0.051082 0.593781 0.116171
v 0.015525 -0.051079 0.115480
v 0.037458 -0.052838 0.150150
v 0.027039 -0.052367 0.196797
v -0.007554 -0.050035 0.218799
v -0.065593 -0.045379 0.127057
v -0.031001 -0.047711 0.105054
v -0.054079 -0.046667 0.208373
v -0.076012 -0.044907 0.173703
v 0.029656 0.595104 0.212505
v 0.062056 0.592821 0.191864
v 0.067712 1.435688 0.135377
v 0.068434 1.859829 0.089618
v 0.009753 1.862944 0.085088
v 0.004129 1.440023 0.126981
v -0.034639 0.599841 0.170795
v -0.014000 0.598273 0.202988
v 0.019087 1.439469 0.146626
v 0.024326 1.864351 0.102208
v 0.029857 1.856097 0.044314
v 0.028095 1.437103 0.083376
v 0.007423 0.596947 0.106665
v -0.024967 0.599242 0.127312
v 0.008197 1.438955 0.098430
v 0.012245 1.859216 0.058930
v 0.029353 0.277386 0.116770
v 0.040035 0.268059 0.195114
v 0.050434 0.272626 0.150190
v 0.006319 0.267268 0.216265
v -0.059867 0.275291 0.172726
v -0.015750 0.280652 0.106667
v -0.038785 0.270533 0.206157
v -0.049468 0.279859 0.127808
v 0.160545 2.568278 -0.066196
v 0.123572 2.248223 0.016614
v 0.113167 2.246723 0.005392
v 0.158772 2.568000 -0.067984
v 0.158566 2.569878 -0.061616
v 0.111384 2.257624 0.044309
v 0.122756 2.253177 0.034165
v 0.160452 2.569128 -0.063322
v 0.155764 2.568376 -0.068056
v 0.095243 2.249123 0.004547
v 0.083862 2.253498 0.014737
v 0.153881 2.569119 -0.066361
v 0.153788 2.569969 -0.063486
v 0.083083 2.258417 0.032321
v 0.093489 2.259995 0.043487
v 0.155558 2.570255 -0.061688
v -0.157814 1.421051 0.184827
v -0.118154 1.846482 0.208691
v -0.166968 0.575763 0.207039
v -0.130060 1.418157 0.226137
v -0.091189 1.839641 0.245249
v -0.069287 1.838232 0.240143
v -0.105725 1.418682 0.221840
v -0.128888 0.577320 0.203454
v -0.111969 -0.067540 0.172172
v -0.152837 -0.069300 0.175765
v -0.189511 -0.068829 0.145115
v -0.193201 -0.066497 0.104284
v -0.085058 -0.061840 0.094778
v -0.081368 -0.064173 0.135609
v -0.162600 -0.063129 0.067721
v -0.121732 -0.061369 0.064128
v -0.204671 0.578642 0.140237
v -0.201186 0.576359 0.178495
v -0.153582 1.419227 0.209425
v -0.113249 1.843367 0.231051
v -0.082314 1.846482 0.180980
v -0.116964 1.423561 0.156772
v -0.138121 0.583379 0.102228
v -0.176194 0.581812 0.105806
v -0.141280 1.423007 0.161056
v -0.104211 1.847889 0.186080
v -0.055299 1.839635 0.217545
v -0.089204 1.420641 0.198065
v -0.100420 0.580486 0.169016
v -0.103915 0.582780 0.130764
v -0.093457 1.422494 0.173479
v -0.060211 1.842754 0.195191
v -0.119456 0.260924 0.183870
v -0.193976 0.251597 0.157436
v -0.158823 0.256165 0.187277
v -0.197310 0.250806 0.117775
v -0.128268 0.258829 0.078923
v -0.089796 0.264190 0.148422
v -0.167644 0.254071 0.082328
v -0.093120 0.263397 0.108764
v -0.016904 2.552114 0.383084
v -0.073659 2.231761 0.313527
v -0.058915 2.230262 0.309427
v -0.015346 2.551934 0.382594
v -0.018955 2.553152 0.380581
v -0.092681 2.241162 0.289996
v -0.088881 2.236715 0.304754
v -0.018533 2.552665 0.382176
v -0.014409 2.552177 0.380882
v -0.049945 2.232661 0.293886
v -0.053781 2.237036 0.279100
v -0.014826 2.552660 0.379292
v -0.016456 2.553211 0.378383
v -0.069050 2.241955 0.270343
v -0.083745 2.243533 0.274470
v -0.018019 2.553396 0.378868
v -0.244230 1.926901 0.588289
v -0.114041 1.056500 0.213526
v -0.152344 1.075021 0.160393
v -0.127339 1.638839 0.393403
v -0.127745 1.353530 0.300516
v -0.166471 1.388148 0.206642
v -0.165319 1.677569 0.355968
v -0.157532 1.629983 0.376223
v -0.161872 1.344880 0.271416
v -0.130131 1.035993 0.194966
v -0.160920 1.049894 0.211022
v -0.148875 1.045609 0.168892
v -0.183465 1.836453 0.479901
v -0.185240 1.817996 0.470601
v -0.198087 1.851897 0.464590
vn -0.4293 -0.0091 -0.9031
vn -0.4878 -0.0020 -0.8730
vn 0.2730 -0.0710 -0.9594
vn 0.3422 0.0042 -0.9396
vn -0.8781 0.1165 0.4641
vn -0.8251 0.2561 0.5037
vn -0.9463 0.2164 -0.2402
vn -0.9574 0.0758 -0.2787
vn -0.9032 0.0061 0.4291
vn -0.9436 -0.0080 -0.3310
vn -0.9121 -0.0631 0.4052
vn -0.9345 -0.0608 -0.3507
vn -0.5153 0.0547 -0.8553
vn 0.2152 -0.1345 -0.9673
vn -0.4191 -0.0195 -0.9077
vn 0.3444 0.0362 -0.9381
vn -0.6743 -0.6690 0.3127
vn -0.2522 -0.6439 0.7223
vn -0.3650 -0.0257 0.9307
vn -0.2939 -0.6439 -0.7064
vn -0.6914 -0.6690 -0.2728
vn 0.9072 0.0732 -0.4143
vn 0.7417 -0.5871 -0.3244
vn 0.3001 -0.6100 -0.7334
vn 0.7593 -0.5871 0.2806
vn 0.3424 -0.6100 0.7146
vn 0.9069 0.0233 -0.4207
vn 0.9388 0.0365 0.3426
vn 0.9315 0.0702 0.3570
vn 0.8757 -0.0882 -0.4748
vn 0.9525 -0.0430 0.3015
vn 0.8195 -0.2415 -0.5197
vn 0.9481 -0.2009 0.2466
vn 0.4003 0.0294 0.9159
vn 0.4214 0.0368 0.9061
vn -0.3415 0.0244 0.9396
vn 0.4493 0.0364 0.8927
vn -0.3084 0.1009 0.9459
vn 0.4955 -0.0306 0.8681
vn -0.2415 0.1574 0.9575
vn 0.9200 0.3883 0.0534
vn 0.6348 0.5323 0.5600
vn 0.5231 -0.0535 0.8506
vn 0.9409 -0.2613 0.2156
vn 0.0751 0.7705 0.6330
vn -0.3533 0.8694 0.3454
vn -0.7561 0.3992 0.5186
vn -0.1823 0.2185 0.9587
vn -0.4096 0.8757 -0.2559
vn -0.1453 0.6955 -0.7036
vn -0.4869 0.1806 -0.8546
vn -0.8918 0.3879 -0.2329
vn 0.3644 0.5269 -0.7678
vn 0.8094 0.3915 -0.4377
vn 0.7923 -0.2713 -0.5465
vn 0.2063 -0.0904 -0.9743
vn -0.6388 -0.3028 0.7073
vn -0.8636 -0.4693 -0.1844
vn -0.9055 -0.3665 -0.2140
vn -0.7118 -0.2718 0.6477
vn -0.3875 -0.2251 -0.8940
vn -0.3674 -0.2512 -0.8955
vn -0.4350 -0.2837 0.8546
vn -0.7302 -0.6404 -0.2380
vn -0.8253 -0.5510 -0.1240
vn -0.2949 -0.2312 -0.9271
vn -0.4818 -0.8486 0.2183
vn -0.8719 -0.4551 -0.1807
vn -0.3271 -0.5444 -0.7725
vn -0.3627 -0.1725 -0.9158
vn -0.7047 -0.1731 0.6881
vn -0.1573 -0.4003 -0.9028
vn 0.8851 -0.2882 -0.3654
vn 0.7418 -0.2998 -0.5998
vn 0.4669 -0.3176 -0.8253
vn 0.9899 -0.1353 0.0430
vn 0.9644 -0.1637 0.2077
vn -0.5673 -0.2330 -0.7899
vn 0.7178 -0.6149 -0.3266
vn 0.6017 -0.5710 -0.5585
vn 0.9197 -0.1931 0.3419
vn -0.0174 -0.8511 -0.5247
vn 0.6322 -0.5924 -0.4994
vn 0.8357 -0.5392 0.1045
vn 0.9922 -0.1228 -0.0200
vn 0.0862 -0.3338 -0.9387
vn -0.8135 -0.4275 0.3942
vn 0.2021 -0.5702 -0.7963
vn -0.2456 -0.2995 -0.9220
vn -0.6945 -0.3618 -0.6219
vn 0.4313 -0.2464 -0.8679
vn 0.7539 -0.2709 -0.5985
vn -0.6227 -0.1647 0.7649
vn 0.0379 -0.5630 0.8256
vn 0.4346 -0.7819 0.4470
vn 0.8437 -0.2197 -0.4898
vn -0.3973 -0.7399 -0.5429
vn -0.3273 -0.3424 -0.8807
vn 0.3307 -0.4254 -0.8424
vn 0.3930 -0.0991 -0.9142
vn -0.8983 -0.1563 -0.4106
vn 0.4909 -0.2348 0.8390
vn -0.3996 -0.3777 0.8353
vn -0.3779 -0.3196 0.8689
vn 0.2748 -0.2258 0.9346
vn -0.8723 -0.3152 0.3739
vn -0.9244 -0.2525 0.2857
vn 0.7996 -0.1909 0.5694
vn -0.5024 -0.4628 0.7303
vn -0.2896 -0.3952 0.8717
vn -0.9588 -0.2073 0.1942
vn -0.0026 -0.7284 0.6852
vn -0.3391 -0.4655 0.8175
vn -0.6983 -0.6240 0.3507
vn -0.8621 -0.2758 0.4251
vn 0.2890 -0.1756 0.9411
vn -0.9506 -0.1524 -0.2703
vn -0.5381 -0.1374 -0.8316
vn -0.5314 -0.0961 -0.8416
vn -0.9138 -0.1335 -0.3835
vn 0.0339 -0.0702 -0.9970
vn 0.0951 -0.0728 -0.9928
vn -0.9726 -0.1913 0.1322
vn -0.4417 -0.2052 -0.8734
vn -0.5742 -0.1610 -0.8027
vn 0.2119 -0.0636 -0.9752
vn -0.4592 -0.5241 -0.7173
vn -0.5099 -0.2131 -0.8334
vn 0.0750 -0.3509 -0.9334
vn 0.0807 -0.0406 -0.9959
vn -0.9386 -0.0936 -0.3322
vn 0.3486 0.0977 -0.9322
vn 0.2871 0.1136 -0.9511
vn 0.8691 -0.0811 -0.4880
vn 0.9098 -0.0196 -0.4145
vn -0.9290 0.2475 -0.2750
vn -0.9044 0.3805 -0.1930
vn -0.4582 0.3889 -0.7993
vn -0.4560 0.2484 -0.8546
vn -0.9317 0.1444 -0.3334
vn -0.4168 0.1655 -0.8938
vn -0.9271 0.0786 -0.3665
vn -0.4014 0.1127 -0.9089
vn 0.2642 0.1779 -0.9479
vn 0.8315 -0.1314 -0.5398
vn 0.3579 0.0859 -0.9298
vn 0.9133 0.0115 -0.4072
vn -0.7528 -0.5551 -0.3537
vn -0.7516 -0.6177 0.2316
vn -0.9212 0.0027 0.3892
vn 0.2422 -0.5578 -0.7939
vn -0.3455 -0.5306 -0.7740
vn 0.9312 -0.0675 0.3582
vn 0.6908 -0.6927 0.2072
vn 0.6758 -0.6248 -0.3910
vn 0.2700 -0.7181 0.6414
vn -0.3314 -0.6855 0.6483
vn 0.9309 -0.1164 0.3462
vn 0.4079 -0.1370 0.9027
vn 0.3956 -0.1031 0.9126
vn 0.9376 -0.2188 0.2701
vn 0.4394 -0.2161 0.8719
vn 0.9162 -0.3575 0.1813
vn 0.4585 -0.3670 0.8094
vn -0.3759 -0.0732 0.9238
vn -0.3536 -0.0692 0.9328
vn -0.9066 0.0476 0.4193
vn -0.3247 -0.0738 0.9429
vn -0.8811 0.1171 0.4582
vn -0.2835 -0.1435 0.9482
vn -0.8387 0.1665 0.5186
vn 0.6016 0.2077 0.7713
vn 0.0543 0.4002 0.9148
vn -0.2588 -0.1788 0.9492
vn 0.4639 -0.4253 0.7771
vn -0.3580 0.6928 0.6261
vn -0.4135 0.9049 0.1009
vn -0.8780 0.4598 -0.1332
vn -0.8067 0.1881 0.5603
vn -0.0862 0.9211 -0.3796
vn 0.4560 0.7234 -0.5184
vn 0.2800 0.2461 -0.9279
vn -0.4364 0.4897 -0.7548
vn 0.8672 0.4407 -0.2318
vn 0.9281 0.2326 0.2906
vn 0.9065 -0.3950 0.1489
vn 0.8291 -0.1204 -0.5460
vn 0.7550 -0.4009 -0.5189
vn 0.7253 -0.3957 0.5634
vn 0.7995 -0.2767 0.5331
vn 0.9420 -0.3280 -0.0704
vn 0.2964 -0.2313 0.9267
vn 0.2621 -0.2124 0.9414
vn 0.1949 -0.2176 -0.9564
vn 0.4821 -0.5492 0.6826
vn 0.8047 -0.5295 0.2683
vn 0.2297 -0.1689 0.9585
vn 0.5419 -0.8337 0.1058
vn 0.7780 -0.4053 0.4801
vn 0.3005 -0.4461 0.8430
vn 0.3475 -0.1521 0.9253
vn 0.9776 -0.1764 -0.1152
vn 0.5095 -0.3756 0.7742
vn -0.4406 -0.3566 0.8238
vn -0.4519 -0.3032 0.8390
vn 0.2163 -0.3811 0.8989
vn -0.9129 -0.1215 0.3897
vn -0.9686 -0.0908 0.2314
vn 0.8278 -0.3063 0.4699
vn -0.7639 -0.3544 0.5393
vn -0.3434 -0.4307 0.8346
vn -0.9901 -0.0607 0.1268
vn -0.1782 -0.7727 0.6092
vn -0.4465 -0.4538 0.7712
vn -0.8273 -0.4779 0.2953
vn -0.9072 -0.1104 0.4060
vn 0.2302 -0.3305 0.9153
vn 0.8788 0.0594 0.4734
vn 0.9079 0.0651 0.4141
vn 0.3490 -0.0068 0.9371
vn 0.2776 0.0660 0.9584
vn 0.4284 0.0941 -0.8987
vn 0.3588 0.2361 -0.9031
vn 0.8934 0.2499 -0.3732
vn 0.9323 0.1065 -0.3457
vn 0.4750 -0.0132 -0.8799
vn 0.9563 0.0265 -0.2913
vn 0.4998 -0.0805 -0.8624
vn 0.9632 -0.0249 -0.2675
vn 0.9150 0.1257 0.3834
vn 0.3998 -0.0661 0.9142
vn 0.8739 0.0492 0.4836
vn 0.2733 0.0979 0.9569
vn 0.3935 -0.6812 -0.6174
vn -0.1895 -0.6900 -0.6986
vn -0.2529 -0.0865 -0.9636
vn 0.6862 -0.5893 0.4265
vn 0.7524 -0.6399 -0.1562
vn -0.4910 0.0913 0.8664
vn -0.3767 -0.5717 0.7289
vn 0.2214 -0.5606 0.7980
vn -0.7476 -0.6144 0.2524
vn -0.6661 -0.6627 -0.3424
vn -0.4844 0.0419 0.8738
vn -0.9607 0.0012 0.2777
vn -0.9650 0.0339 0.2601
vn -0.4217 -0.0651 0.9044
vn -0.9434 -0.0753 0.3229
vn -0.3465 -0.2128 0.9136
vn -0.9010 -0.2273 0.3694
vn -0.8641 -0.0397 -0.5018
vn -0.8757 -0.0319 -0.4818
vn -0.2797 -0.0375 -0.9594
vn -0.8902 -0.0317 -0.4545
vn -0.3140 0.0379 -0.9487
vn -0.9087 -0.0943 -0.4066
vn -0.3740 0.0979 -0.9223
vn -0.8210 0.3559 0.4465
vn -0.8640 0.4849 -0.1353
vn -0.9172 -0.1255 -0.3783
vn -0.8766 -0.2867 0.3866
vn -0.4900 0.6919 -0.5303
vn 0.0577 0.8464 -0.5294
vn 0.3049 0.3235 -0.8958
vn -0.4172 0.1276 -0.8998
vn 0.4861 0.8632 -0.1365
vn 0.5246 0.7288 0.4401
vn 0.9004 0.1971 0.3878
vn 0.8576 0.3565 -0.3707
vn 0.1539 0.5311 0.8332
vn -0.3914 0.3811 0.8376
vn -0.3174 -0.2538 0.9137
vn 0.4073 -0.0559 0.9116
vn -0.1728 -0.2449 0.9540
vn -0.7566 -0.2715 0.5949
vn -0.7779 -0.1106 0.6186
vn -0.2594 -0.1240 0.9578
vn -0.9882 -0.1441 0.0525
vn -0.9712 -0.2161 -0.0999
vn 0.1568 -0.2880 0.9447
vn -0.8835 -0.4529 0.1199
vn -0.7592 -0.4056 0.5091
vn -0.9053 -0.2032 -0.3730
vn -0.3795 -0.5842 0.7174
vn -0.7574 -0.2595 0.5992
vn -0.8663 -0.4929 0.0814
vn -0.9985 -0.0538 0.0135
vn -0.2383 -0.0301 0.9707
vn -0.9845 -0.1742 -0.0194
vn 0.2259 -0.3761 -0.8986
vn 0.1707 -0.1362 -0.9759
vn -0.3435 -0.2235 -0.9122
vn 0.6743 -0.2198 -0.7050
vn 0.8598 -0.3512 -0.3708
vn -0.9951 -0.0345 0.0928
vn 0.5125 -0.8244 -0.2403
vn -0.2485 -0.9307 -0.2685
vn 0.8720 -0.4375 -0.2197
vn 0.0695 -0.6194 -0.7820
vn 0.1739 -0.2543 -0.9514
vn 0.6207 -0.4297 -0.6558
vn 0.6556 -0.0775 -0.7511
vn -0.3973 -0.0616 -0.9156
vn -0.9783 0.0669 0.1961
vn -0.9680 0.0486 0.2462
vn -0.8584 -0.0115 -0.5128
vn -0.8267 0.0378 -0.5614
vn 0.2476 0.0840 0.9652
vn 0.2876 0.0993 0.9526
vn -0.4670 0.1526 0.8710
vn -0.5034 0.0880 0.8596
vn 0.1962 0.0325 0.9800
vn -0.5484 0.0644 0.8337
vn 0.1687 -0.0001 0.9857
vn -0.5738 0.0420 0.8179
vn -0.9523 0.1254 0.2783
vn -0.8830 0.0356 -0.4681
vn -0.9829 0.0637 0.1730
vn -0.8172 0.0521 -0.5740
vn 0.0932 -0.6359 0.7661
vn 0.5972 -0.6652 0.4483
vn 0.8150 -0.0394 0.5782
vn -0.8020 -0.5827 0.1310
vn -0.4856 -0.6019 0.6340
vn -0.1746 0.0129 -0.9846
vn -0.1722 -0.6169 -0.7680
vn -0.6720 -0.5889 -0.4491
vn 0.4075 -0.6513 -0.6401
vn 0.7282 -0.6717 -0.1361
vn -0.1856 -0.0051 -0.9826
vn 0.5635 -0.0364 -0.8253
vn 0.5706 -0.0311 -0.8206
vn -0.2466 -0.0555 -0.9675
vn 0.5137 -0.0580 -0.8560
vn -0.3183 -0.0636 -0.9458
vn 0.4428 -0.1192 -0.8887
vn 0.9836 -0.0528 -0.1725
vn 0.9823 -0.0383 -0.1833
vn 0.8264 -0.0097 0.5630
vn 0.9722 -0.0174 -0.2337
vn 0.8536 0.0411 0.5193
vn 0.9530 -0.0943 -0.2879
vn 0.8755 -0.0019 0.4833
vn 0.3881 0.3854 -0.8372
vn 0.7991 0.4428 -0.4067
vn 0.9422 -0.1735 -0.2866
vn 0.4251 -0.2065 -0.8813
vn 0.7775 0.6105 0.1506
vn 0.3683 0.7777 0.5094
vn 0.3438 0.1726 0.9230
vn 0.8894 -0.0142 0.4569
vn -0.2080 0.8522 0.4801
vn -0.6126 0.7888 0.0503
vn -0.9195 0.2537 0.3003
vn -0.4019 0.2856 0.8700
vn -0.5916 0.6302 -0.5028
vn -0.1871 0.4681 -0.8636
vn -0.3443 -0.0901 -0.9345
vn -0.8904 0.0979 -0.4446
vn 0.2744 0.0669 -0.9593
vn 0.2251 0.0486 -0.9731
vn 0.8494 -0.0115 -0.5277
vn 0.8780 0.0378 -0.4772
vn -0.9713 0.0840 -0.2226
vn -0.9784 0.0993 -0.1812
vn -0.5599 0.1526 -0.8144
vn -0.5330 0.0880 -0.8415
vn -0.9609 0.0325 -0.2750
vn -0.4894 0.0644 -0.8697
vn -0.9533 -0.0001 -0.3021
vn -0.4637 0.0420 -0.8850
vn 0.1894 0.1254 -0.9739
vn 0.8209 0.0356 -0.5700
vn 0.2970 0.0637 -0.9527
vn 0.8848 0.0521 -0.4630
vn -0.7236 -0.6359 -0.2685
vn -0.6722 -0.6652 0.3251
vn -0.8875 -0.0394 0.4591
vn 0.2514 -0.5827 -0.7728
vn -0.3407 -0.6019 -0.7222
vn 0.9550 0.0129 0.2963
vn 0.7614 -0.6169 0.1992
vn 0.7073 -0.5889 -0.3912
vn 0.3819 -0.6514 0.6557
vn -0.2130 -0.6717 0.7095
vn 0.9583 -0.0051 0.2857
vn 0.4750 -0.0364 0.8792
vn 0.4676 -0.0311 0.8834
vn 0.9729 -0.0555 0.2245
vn 0.5251 -0.0580 0.8491
vn 0.9865 -0.0636 0.1509
vn 0.5867 -0.1192 0.8010
vn -0.2977 -0.0528 0.9532
vn -0.2875 -0.0383 0.9570
vn -0.8793 -0.0097 0.4763
vn -0.2381 -0.0174 0.9711
vn -0.8529 0.0411 0.5204
vn -0.1812 -0.0943 0.9789
vn -0.8309 -0.0019 0.5564
vn 0.5648 0.3872 0.7287
vn -0.0053 0.4445 0.8957
vn -0.1775 -0.1716 0.9691
vn 0.5880 -0.2046 0.7826
vn -0.4895 0.6119 0.6213
vn -0.6200 0.7790 0.0937
vn -0.9776 0.1745 -0.1176
vn -0.8137 -0.0123 0.5812
vn -0.3298 0.8532 -0.4040
vn 0.2368 0.7897 -0.5659
vn 0.1554 0.2555 -0.9543
vn -0.5882 0.2874 -0.7559
vn 0.7175 0.6315 -0.2940
vn 0.8523 0.4696 0.2304
vn 0.9884 -0.0883 0.1233
vn 0.8036 0.0997 -0.5867
vn -0.3885 -0.3894 0.8351
vn -0.8114 -0.2471 0.5298
vn -0.8409 -0.1710 0.5135
vn -0.4317 -0.2723 0.8599
vn -0.9986 -0.0313 0.0425
vn -0.9815 -0.1646 0.0983
vn 0.5287 -0.4284 0.7328
vn -0.7930 -0.5907 0.1491
vn -0.7048 -0.4524 0.5464
vn -0.9415 -0.3313 -0.0624
vn -0.4386 -0.6892 0.5767
vn -0.7895 -0.3701 0.4897
vn -0.9164 -0.3970 -0.0503
vn -0.9984 -0.0226 -0.0515
vn -0.3003 -0.2588 0.9181
vt 0.450285 0.591747
vt 0.450268 0.610759
vt 0.450517 0.610695
vt 0.450673 0.591744
vt 0.450164 0.610816
vt 0.450829 0.620218
vt 0.450790 0.620200
vt 0.450135 0.610804
vt 0.450072 0.591749
vt 0.450059 0.591749
vt 0.451264 0.526691
vt 0.451252 0.526691
vt 0.450902 0.620113
vt 0.451125 0.619987
vt 0.451488 0.526759
vt 0.451889 0.526871
vt 0.451581 0.519602
vt 0.451841 0.519602
vt 0.451514 0.526759
vt 0.451814 0.519602
vt 0.451569 0.519602
vt 0.452139 0.526940
vt 0.452489 0.519602
vt 0.452229 0.519602
vt 0.452501 0.519602
vt 0.452256 0.519602
vt 0.450916 0.591741
vt 0.450930 0.591741
vt 0.452150 0.526940
vt 0.450685 0.610663
vt 0.450714 0.610675
vt 0.451284 0.619921
vt 0.451323 0.619939
vt 0.451915 0.526871
vt 0.450703 0.591743
vt 0.450316 0.591747
vt 0.450580 0.610721
vt 0.450332 0.610785
vt 0.451211 0.620026
vt 0.450988 0.620152
vt 0.453803 0.639404
vt 0.453730 0.639508
vt 0.453214 0.636417
vt 0.453290 0.636291
vt 0.453573 0.639662
vt 0.453455 0.639745
vt 0.452927 0.636711
vt 0.453050 0.636606
vt 0.453417 0.639725
vt 0.453489 0.639620
vt 0.452964 0.636562
vt 0.452888 0.636691
vt 0.453647 0.639466
vt 0.453765 0.639385
vt 0.453251 0.636271
vt 0.453128 0.636373
vt 0.482034 0.622561
vt 0.481300 0.626757
vt 0.482564 0.640102
vt 0.483370 0.635790
vt 0.481722 0.635273
vt 0.480512 0.622065
vt 0.480635 0.595360
vt 0.479860 0.577376
vt 0.480370 0.599251
vt 0.479928 0.595247
vt 0.451384 0.521637
vt 0.452063 0.523431
vt 0.451186 0.522279
vt 0.452490 0.650918
vt 0.451145 0.548401
vt 0.451186 0.533585
vt 0.452063 0.535797
vt 0.453388 0.631991
vt 0.451549 0.546476
vt 0.453016 0.648783
vt 0.451384 0.532352
vt 0.477119 0.583197
vt 0.477783 0.589104
vt 0.479572 0.619960
vt 0.478895 0.613792
vt 0.480283 0.613162
vt 0.478449 0.582670
vt 0.476013 0.571628
vt 0.475309 0.568965
vt 0.476318 0.577059
vt 0.476634 0.571600
vt 0.449143 0.533560
vt 0.448320 0.531791
vt 0.448649 0.534593
vt 0.446899 0.662867
vt 0.448238 0.572998
vt 0.448649 0.557227
vt 0.448320 0.551848
vt 0.447251 0.636355
vt 0.449234 0.569577
vt 0.447993 0.660499
vt 0.449143 0.555245
vt 0.478005 0.544042
vt 0.478414 0.553994
vt 0.477565 0.637882
vt 0.477762 0.627848
vt 0.478790 0.620348
vt 0.478869 0.533970
vt 0.475297 0.548547
vt 0.474260 0.568716
vt 0.475817 0.551631
vt 0.475553 0.547104
vt 0.477141 0.530965
vt 0.477353 0.537069
vt 0.450703 0.615709
vt 0.450140 0.618533
vt 0.450119 0.617212
vt 0.449346 0.667896
vt 0.449685 0.653513
vt 0.449913 0.637916
vt 0.449934 0.640453
vt 0.450124 0.646893
vt 0.450874 0.648235
vt 0.451759 0.658847
vt 0.450497 0.635032
vt 0.476613 0.534067
vt 0.484181 0.587453
vt 0.484299 0.592050
vt 0.483955 0.635493
vt 0.483841 0.630797
vt 0.483458 0.629307
vt 0.483834 0.586059
vt 0.484556 0.555265
vt 0.485398 0.534264
vt 0.484730 0.559739
vt 0.484396 0.554755
vt 0.451045 0.522326
vt 0.451369 0.524480
vt 0.451443 0.523540
vt 0.453251 0.637811
vt 0.451706 0.553905
vt 0.451443 0.536006
vt 0.451369 0.537811
vt 0.452531 0.613606
vt 0.450900 0.549855
vt 0.451656 0.631963
vt 0.451045 0.533675
vt 0.479452 0.554505
vt 0.478880 0.559445
vt 0.481387 0.627614
vt 0.482005 0.622674
vt 0.481183 0.617706
vt 0.478683 0.549870
vt 0.477992 0.539773
vt 0.476302 0.523630
vt 0.477704 0.545440
vt 0.477637 0.537823
vt 0.451048 0.522358
vt 0.451201 0.527708
vt 0.450472 0.525466
vt 0.450859 0.629098
vt 0.450292 0.567863
vt 0.450472 0.539705
vt 0.451201 0.544009
vt 0.452121 0.644567
vt 0.451467 0.556772
vt 0.453005 0.609627
vt 0.451048 0.533736
vt 0.449473 0.592958
vt 0.450263 0.611700
vt 0.450450 0.611530
vt 0.449749 0.592786
vt 0.449893 0.611763
vt 0.450944 0.620761
vt 0.451080 0.620782
vt 0.450052 0.611787
vt 0.448873 0.592993
vt 0.449142 0.593036
vt 0.449791 0.528024
vt 0.450071 0.528067
vt 0.451266 0.620662
vt 0.451438 0.620443
vt 0.450417 0.528055
vt 0.450707 0.527991
vt 0.449756 0.520906
vt 0.449760 0.520769
vt 0.449797 0.527959
vt 0.450400 0.520868
vt 0.450044 0.520951
vt 0.450712 0.527926
vt 0.450700 0.520550
vt 0.450696 0.520687
vt 0.450411 0.520505
vt 0.450056 0.520588
vt 0.449753 0.592655
vt 0.449484 0.592612
vt 0.450432 0.527883
vt 0.450467 0.611412
vt 0.450308 0.611387
vt 0.451460 0.620297
vt 0.451324 0.620276
vt 0.450087 0.527895
vt 0.449153 0.592691
vt 0.448877 0.592863
vt 0.450098 0.611476
vt 0.449910 0.611645
vt 0.451137 0.620396
vt 0.450966 0.620615
vt 0.454235 0.638506
vt 0.454148 0.638588
vt 0.453039 0.632110
vt 0.453162 0.631998
vt 0.454067 0.638734
vt 0.454055 0.638828
vt 0.452911 0.632436
vt 0.452927 0.632308
vt 0.454117 0.638837
vt 0.454205 0.638754
vt 0.453121 0.632336
vt 0.452999 0.632449
vt 0.454286 0.638608
vt 0.454297 0.638515
vt 0.453250 0.632012
vt 0.453235 0.632139
vt 0.483711 0.583793
vt 0.484184 0.588415
vt 0.483456 0.626072
vt 0.482331 0.621280
vt 0.483702 0.620009
vt 0.484190 0.582638
vt 0.483882 0.566382
vt 0.484358 0.554889
vt 0.484165 0.571112
vt 0.484109 0.566088
vt 0.445215 0.524607
vt 0.444770 0.526037
vt 0.445809 0.525734
vt 0.444929 0.635882
vt 0.446005 0.557224
vt 0.445809 0.540218
vt 0.444770 0.540800
vt 0.443413 0.612205
vt 0.444796 0.553481
vt 0.442860 0.631008
vt 0.445215 0.538054
vt 0.485697 0.610988
vt 0.485758 0.614930
vt 0.484830 0.643676
vt 0.484779 0.639766
vt 0.484259 0.634488
vt 0.485226 0.606098
vt 0.486517 0.571412
vt 0.487798 0.546335
vt 0.486666 0.576184
vt 0.486298 0.569301
vt 0.446718 0.520913
vt 0.447065 0.524076
vt 0.447166 0.524200
vt 0.447053 0.660334
vt 0.447287 0.560448
vt 0.447166 0.537274
vt 0.447065 0.537035
vt 0.446463 0.624396
vt 0.446374 0.548449
vt 0.445221 0.639675
vt 0.446718 0.530962
vt 0.455730 0.658209
vt 0.455524 0.657906
vt 0.455385 0.657855
vt 0.455500 0.658199
vt 0.455401 0.657895
vt 0.455010 0.665010
vt 0.455135 0.665029
vt 0.455530 0.657920
vt 0.455578 0.658129
vt 0.455760 0.658182
vt 0.454148 0.543348
vt 0.454335 0.543403
vt 0.455138 0.664982
vt 0.455018 0.664885
vt 0.454302 0.543483
vt 0.454062 0.543560
vt 0.454063 0.538000
vt 0.453796 0.537961
vt 0.453889 0.543361
vt 0.454222 0.538087
vt 0.454256 0.538057
vt 0.453803 0.543573
vt 0.453707 0.538039
vt 0.453975 0.538079
vt 0.453515 0.537983
vt 0.453549 0.537953
vt 0.455249 0.658160
vt 0.455068 0.658107
vt 0.453616 0.543518
vt 0.455222 0.657809
vt 0.455093 0.657783
vt 0.454868 0.664816
vt 0.454743 0.664797
vt 0.453649 0.543438
vt 0.455098 0.658080
vt 0.455328 0.658090
vt 0.455099 0.657798
vt 0.455238 0.657849
vt 0.454740 0.664845
vt 0.454860 0.664941
vt 0.453309 0.679549
vt 0.453302 0.679591
vt 0.453859 0.674321
vt 0.453865 0.674265
vt 0.453357 0.679669
vt 0.453430 0.679720
vt 0.454037 0.674494
vt 0.453937 0.674425
vt 0.453496 0.679726
vt 0.453502 0.679683
vt 0.454131 0.674447
vt 0.454125 0.674504
vt 0.453447 0.679605
vt 0.453374 0.679555
vt 0.453952 0.674275
vt 0.454053 0.674343
vt 0.482149 0.536870
vt 0.481851 0.545372
vt 0.481983 0.629612
vt 0.482313 0.620783
vt 0.480833 0.619278
vt 0.480770 0.535453
vt 0.482334 0.540394
vt 0.483179 0.523878
vt 0.482298 0.544695
vt 0.481643 0.540329
vt 0.480770 0.559880
vt 0.481851 0.564653
vt 0.448262 0.521936
vt 0.449078 0.525131
vt 0.448712 0.522632
vt 0.449596 0.657956
vt 0.448909 0.551059
vt 0.448712 0.534262
vt 0.449078 0.539062
vt 0.449274 0.638450
vt 0.447994 0.549005
vt 0.447640 0.665797
vt 0.448262 0.532926
vt 0.482149 0.560562
vt 0.477469 0.556292
vt 0.477593 0.560740
vt 0.480559 0.608715
vt 0.480980 0.603249
vt 0.480018 0.600189
vt 0.477074 0.553129
vt 0.476258 0.553590
vt 0.474611 0.552127
vt 0.476587 0.556012
vt 0.476047 0.552594
vt 0.449676 0.524786
vt 0.449935 0.527735
vt 0.449268 0.526939
vt 0.449698 0.658105
vt 0.449187 0.565136
vt 0.449268 0.542532
vt 0.449935 0.544062
vt 0.450494 0.624753
vt 0.450021 0.557583
vt 0.451129 0.646081
vt 0.449676 0.538399
vt 0.442878 0.591741
vt 0.442605 0.610733
vt 0.442421 0.610666
vt 0.442572 0.591727
vt 0.442442 0.610718
vt 0.441924 0.620139
vt 0.442090 0.620163
vt 0.442613 0.610752
vt 0.442677 0.591635
vt 0.442917 0.591706
vt 0.443918 0.526597
vt 0.444165 0.526670
vt 0.442094 0.620101
vt 0.441934 0.619973
vt 0.444122 0.526776
vt 0.443804 0.526878
vt 0.443805 0.519517
vt 0.443452 0.519465
vt 0.443575 0.526614
vt 0.444016 0.519631
vt 0.444060 0.519592
vt 0.443461 0.526895
vt 0.443334 0.519569
vt 0.443688 0.519621
vt 0.443080 0.519494
vt 0.443124 0.519454
vt 0.442241 0.591676
vt 0.442001 0.591606
vt 0.443214 0.526822
vt 0.442205 0.610604
vt 0.442034 0.610570
vt 0.441737 0.619881
vt 0.441571 0.619857
vt 0.443257 0.526716
vt 0.442040 0.591571
vt 0.442345 0.591584
vt 0.442042 0.610590
vt 0.442226 0.610657
vt 0.441567 0.619919
vt 0.441726 0.620047
vt 0.439672 0.639386
vt 0.439663 0.639442
vt 0.440400 0.632465
vt 0.440408 0.632390
vt 0.439736 0.639545
vt 0.439833 0.639613
vt 0.440637 0.632695
vt 0.440503 0.632603
vt 0.439919 0.639621
vt 0.439928 0.639563
vt 0.440761 0.632632
vt 0.440753 0.632708
vt 0.439855 0.639461
vt 0.439758 0.639394
vt 0.440524 0.632404
vt 0.440658 0.632494
vt 0.442179 0.595744
vt 0.441906 0.614736
vt 0.441722 0.614669
vt 0.441874 0.595730
vt 0.441743 0.614721
vt 0.441225 0.624141
vt 0.441391 0.624166
vt 0.441914 0.614755
vt 0.441978 0.595638
vt 0.442218 0.595709
vt 0.442086 0.588323
vt 0.442332 0.588396
vt 0.441395 0.624103
vt 0.441235 0.623976
vt 0.442289 0.588502
vt 0.441971 0.588604
vt 0.443107 0.523520
vt 0.442753 0.523468
vt 0.441743 0.588341
vt 0.443317 0.523634
vt 0.443361 0.523595
vt 0.441628 0.588622
vt 0.442635 0.523572
vt 0.442989 0.523624
vt 0.442381 0.523497
vt 0.442425 0.523457
vt 0.441542 0.595679
vt 0.441302 0.595608
vt 0.441381 0.588549
vt 0.441506 0.614607
vt 0.441335 0.614573
vt 0.441038 0.623884
vt 0.440872 0.623860
vt 0.441425 0.588443
vt 0.441341 0.595574
vt 0.441646 0.595587
vt 0.441343 0.614593
vt 0.441527 0.614660
vt 0.440868 0.623922
vt 0.441027 0.624049
vt 0.438973 0.643389
vt 0.438964 0.643445
vt 0.439701 0.636468
vt 0.439709 0.636393
vt 0.439037 0.643548
vt 0.439134 0.643616
vt 0.439938 0.636697
vt 0.439804 0.636606
vt 0.439220 0.643624
vt 0.439229 0.643566
vt 0.440062 0.636634
vt 0.440054 0.636711
vt 0.439156 0.643464
vt 0.439059 0.643397
vt 0.439825 0.636407
vt 0.439959 0.636497
vt 0.484227 0.587420
vt 0.484083 0.589928
vt 0.483803 0.670487
vt 0.484062 0.668031
vt 0.483067 0.658297
vt 0.483766 0.576499
vt 0.450769 0.599531
vt 0.451734 0.619223
vt 0.450797 0.595512
vt 0.484367 0.541993
vt 0.483766 0.607657
vt 0.484083 0.625551
vt 0.484512 0.554746
vt 0.450128 0.629271
vt 0.450617 0.632297
vt 0.450426 0.631365
vt 0.450499 0.644937
vt 0.450275 0.612837
vt 0.450220 0.654741
vt 0.450411 0.656532
vt 0.450426 0.626850
vt 0.449666 0.605094
vt 0.449884 0.630466
vt 0.449922 0.650721
vt 0.485368 0.530653
vt 0.484367 0.538695
vt 0.484512 0.542320
vt 0.484227 0.622209
vt 0.484554 0.547795
s 1
usemtl Material.045
f 23/1/1 22/2/2 31/3/3 30/4/4
f 1/5/5 2/6/6 26/7/7 25/8/8
f 17/9/9 1/5/5 25/8/8 24/10/10
f 36/11/11 17/9/9 24/10/10 39/12/12
f 22/2/2 21/13/13 32/14/14 31/3/3
f 37/15/15 23/1/1 30/4/4 40/16/16
f 36/11/11 12/17/17 11/18/18 34/19/19
f 37/15/15 16/20/20 15/21/21 39/12/12
f 38/22/22 14/23/23 13/24/24 40/16/16
f 11/18/18 12/17/17 15/21/21 16/20/20 13/24/24 14/23/23 9/25/25 10/26/26
f 38/22/22 29/27/27 8/28/28 33/29/29
f 29/27/27 28/30/30 7/31/31 8/28/28
f 28/30/30 27/32/32 6/33/33 7/31/31
f 35/34/34 3/35/35 18/36/36 34/19/19
f 3/35/35 4/37/37 19/38/38 18/36/36
f 4/37/37 5/39/39 20/40/40 19/38/38
f 27/32/32 28/30/30 31/3/3 32/14/14
f 28/30/30 29/27/27 30/4/4 31/3/3
f 21/13/13 22/2/2 25/8/8 26/7/7
f 22/2/2 23/1/1 24/10/10 25/8/8
f 2/6/6 1/5/5 19/38/38 20/40/40
f 1/5/5 17/9/9 18/36/36 19/38/38
f 33/29/29 8/28/28 3/35/35 35/34/34
f 8/28/28 7/31/31 4/37/37 3/35/35
f 7/31/31 6/33/33 5/39/39 4/37/37
f 9/25/25 33/29/29 35/34/34 10/26/26
f 10/26/26 35/34/34 34/19/19 11/18/18
f 14/23/23 38/22/22 33/29/29 9/25/25
f 29/27/27 38/22/22 40/16/16 30/4/4
f 23/1/1 37/15/15 39/12/12 24/10/10
f 17/9/9 36/11/11 34/19/19 18/36/36
f 16/20/20 37/15/15 40/16/16 13/24/24
f 12/17/17 36/11/11 39/12/12 15/21/21
f 44/41/41 41/42/42 42/43/43 43/44/44
f 48/45/45 45/46/46 46/47/47 47/48/48
f 56/49/49 53/50/50 54/51/51 55/52/52
f 52/53/53 49/54/54 50/55/55 51/56/56
f 41/42/42 48/45/45 47/48/48 42/43/43
f 49/54/54 44/41/41 43/44/44 50/55/55
f 51/56/56 54/51/51 53/50/50 52/53/53
f 55/52/52 46/47/47 45/46/46 56/49/49
f 5/39/39 42/43/43 47/48/48 20/40/40
f 6/33/33 43/44/44 42/43/43 5/39/39
f 27/32/32 50/55/55 43/44/44 6/33/33
f 46/47/47 2/6/6 20/40/40 47/48/48
f 2/6/6 46/47/47 55/52/52 26/7/7
f 50/55/55 27/32/32 32/14/14 51/56/56
f 21/13/13 54/51/51 51/56/56 32/14/14
f 44/41/41 49/54/54 52/53/53 53/50/50 56/49/49 45/46/46 48/45/45 41/42/42
f 54/51/51 21/13/13 26/7/7 55/52/52
f 60/57/57 64/58/58 65/59/59 61/60/60
f 62/61/61 65/59/59 64/58/58 63/62/62
f 69/63/63 57/64/64 70/65/65
f 71/66/66 63/62/62 64/58/58 70/65/65
f 66/67/67 67/68/68 68/69/69
f 62/70/61 59/71/70 68/72/69 67/73/68 65/74/59
f 58/75/71 61/76/60 65/74/59 67/73/68 66/77/67
f 57/64/64 71/66/66 70/65/65
f 60/57/57 69/63/63 70/65/65 64/58/58
f 75/78/72 79/79/73 80/80/74 76/81/75
f 77/82/76 80/80/74 79/79/73 78/83/77
f 84/84/78 72/85/79 85/86/80
f 86/87/81 78/83/77 79/79/73 85/86/80
f 81/88/82 82/89/83 83/90/84
f 77/91/76 74/92/85 83/93/84 82/94/83 80/95/74
f 73/96/86 76/97/75 80/95/74 82/94/83 81/98/82
f 72/85/79 86/87/81 85/86/80
f 75/78/72 84/84/78 85/86/80 79/79/73
f 90/99/87 94/100/88 95/101/89 91/102/90
f 92/103/91 95/101/89 94/100/88 93/104/92
f 99/105/93 87/106/94 100/107/95
f 101/108/96 93/109/92 94/110/88 100/107/95
f 96/111/97 97/112/98 98/113/99
f 92/114/91 89/115/100 98/116/99 97/117/98 95/118/89
f 88/119/101 91/120/90 95/118/89 97/117/98 96/121/97
f 87/106/94 101/108/96 100/107/95
f 90/122/87 99/105/93 100/107/95 94/110/88
f 105/123/102 109/124/103 110/125/104 106/126/105
f 107/127/106 110/125/104 109/124/103 108/128/107
f 114/129/108 102/130/109 115/131/110
f 116/132/111 108/128/107 109/124/103 115/131/110
f 111/133/112 112/134/113 113/135/114
f 107/136/106 104/137/115 113/138/114 112/139/113 110/140/104
f 103/141/116 106/142/105 110/140/104 112/139/113 111/143/112
f 102/130/109 116/132/111 115/131/110
f 105/123/102 114/129/108 115/131/110 109/124/103
f 120/144/117 124/145/118 125/146/119 121/147/120
f 122/148/121 125/146/119 124/145/118 123/149/122
f 129/150/123 117/151/124 130/152/125
f 131/153/126 123/149/122 124/145/118 130/152/125
f 126/154/127 127/155/128 128/156/129
f 122/157/121 119/158/130 128/159/129 127/160/128 125/161/119
f 118/162/131 121/163/120 125/161/119 127/160/128 126/164/127
f 117/151/124 131/153/126 130/152/125
f 120/144/117 129/150/123 130/152/125 124/145/118
f 154/165/132 153/166/133 162/167/134 161/168/135
f 132/169/136 133/170/137 157/171/138 156/172/139
f 148/173/140 132/169/136 156/172/139 155/174/141
f 167/175/142 148/173/140 155/174/141 170/176/143
f 153/166/133 152/177/144 163/178/145 162/167/134
f 168/179/146 154/165/132 161/168/135 171/180/147
f 167/175/142 143/181/148 142/182/149 165/183/150
f 168/179/146 147/184/151 146/185/152 170/176/143
f 169/186/153 145/187/154 144/188/155 171/180/147
f 142/182/149 143/181/148 146/185/152 147/184/151 144/188/155 145/187/154 140/189/156 141/190/157
f 169/186/153 160/191/158 139/192/159 164/193/160
f 160/191/158 159/194/161 138/195/162 139/192/159
f 159/194/161 158/196/163 137/197/164 138/195/162
f 166/198/165 134/199/166 149/200/167 165/183/150
f 134/199/166 135/201/168 150/202/169 149/200/167
f 135/201/168 136/203/170 151/204/171 150/202/169
f 158/196/163 159/194/161 162/167/134 163/178/145
f 159/194/161 160/191/158 161/168/135 162/167/134
f 152/177/144 153/166/133 156/172/139 157/171/138
f 153/166/133 154/165/132 155/174/141 156/172/139
f 133/170/137 132/169/136 150/202/169 151/204/171
f 132/169/136 148/173/140 149/200/167 150/202/169
f 164/193/160 139/192/159 134/199/166 166/198/165
f 139/192/159 138/195/162 135/201/168 134/199/166
f 138/195/162 137/197/164 136/203/170 135/201/168
f 140/189/156 164/193/160 166/198/165 141/190/157
f 141/190/157 166/198/165 165/183/150 142/182/149
f 145/187/154 169/186/153 164/193/160 140/189/156
f 160/191/158 169/186/153 171/180/147 161/168/135
f 154/165/132 168/179/146 170/176/143 155/174/141
f 148/173/140 167/175/142 165/183/150 149/200/167
f 147/184/151 168/179/146 171/180/147 144/188/155
f 143/181/148 167/175/142 170/176/143 146/185/152
f 175/205/172 172/206/173 173/207/174 174/208/175
f 179/209/176 176/210/177 177/211/178 178/212/179
f 187/213/180 184/214/181 185/215/182 186/216/183
f 183/217/184 180/218/185 181/219/186 182/220/187
f 172/206/173 179/209/176 178/212/179 173/207/174
f 180/218/185 175/205/172 174/208/175 181/219/186
f 182/220/187 185/215/182 184/214/181 183/217/184
f 186/216/183 177/211/178 176/210/177 187/213/180
f 136/203/170 173/207/174 178/212/179 151/204/171
f 137/197/164 174/208/175 173/207/174 136/203/170
f 158/196/163 181/219/186 174/208/175 137/197/164
f 177/211/178 133/170/137 151/204/171 178/212/179
f 133/170/137 177/211/178 186/216/183 157/171/138
f 181/219/186 158/196/163 163/178/145 182/220/187
f 152/177/144 185/215/182 182/220/187 163/178/145
f 185/215/182 152/177/144 157/171/138 186/216/183
f 175/205/172 180/218/185 183/217/184 184/214/181 187/213/180 176/210/177 179/209/176 172/206/173
f 191/221/188 195/222/189 196/223/190 192/224/191
f 193/225/192 196/223/190 195/222/189 194/226/193
f 200/227/194 188/228/195 201/229/196
f 202/230/197 194/226/193 195/222/189 201/229/196
f 197/231/198 198/232/199 199/233/200
f 193/234/192 190/235/201 199/236/200 198/237/199 196/238/190
f 189/239/202 192/240/191 196/238/190 198/237/199 197/241/198
f 188/228/195 202/230/197 201/229/196
f 191/221/188 200/227/194 201/229/196 195/222/189
f 206/242/203 210/243/204 211/244/205 207/245/206
f 208/246/207 211/244/205 210/243/204 209/247/208
f 215/248/209 203/249/210 216/250/211
f 217/251/212 209/247/208 210/243/204 216/250/211
f 212/252/213 213/253/214 214/254/215
f 208/255/207 205/256/216 214/257/215 213/258/214 211/259/205
f 204/260/217 207/261/206 211/259/205 213/258/214 212/262/213
f 203/249/210 217/251/212 216/250/211
f 206/242/203 215/248/209 216/250/211 210/243/204
f 240/263/218 239/264/219 248/265/220 247/266/221
f 218/267/222 219/268/223 243/269/224 242/270/225
f 234/271/226 218/267/222 242/270/225 241/272/227
f 253/273/228 234/271/226 241/272/227 256/274/229
f 239/264/219 238/275/230 249/276/231 248/265/220
f 254/277/232 240/263/218 247/266/221 257/278/233
f 253/273/228 229/279/234 228/280/235 251/281/236
f 254/277/232 233/282/237 232/283/238 256/274/229
f 255/284/239 231/285/240 230/286/241 257/278/233
f 228/280/235 229/279/234 232/283/238 233/282/237 230/286/241 231/285/240 226/287/242 227/288/243
f 255/284/239 246/289/244 225/290/245 250/291/246
f 246/289/244 245/292/247 224/293/248 225/290/245
f 245/292/247 244/294/249 223/295/250 224/293/248
f 252/296/251 220/297/252 235/298/253 251/281/236
f 220/297/252 221/299/254 236/300/255 235/298/253
f 221/299/254 222/301/256 237/302/257 236/300/255
f 244/294/249 245/292/247 248/265/220 249/276/231
f 245/292/247 246/289/244 247/266/221 248/265/220
f 238/275/230 239/264/219 242/270/225 243/269/224
f 239/264/219 240/263/218 241/272/227 242/270/225
f 219/268/223 218/267/222 236/300/255 237/302/257
f 218/267/222 234/271/226 235/298/253 236/300/255
f 250/291/246 225/290/245 220/297/252 252/296/251
f 225/290/245 224/293/248 221/299/254 220/297/252
f 224/293/248 223/295/250 222/301/256 221/299/254
f 226/287/242 250/291/246 252/296/251 227/288/243
f 227/288/243 252/296/251 251/281/236 228/280/235
f 231/285/240 255/284/239 250/291/246 226/287/242
f 246/289/244 255/284/239 257/278/233 247/266/221
f 240/263/218 254/277/232 256/274/229 241/272/227
f 234/271/226 253/273/228 251/281/236 235/298/253
f 233/282/237 254/277/232 257/278/233 230/286/241
f 229/279/234 253/273/228 256/274/229 232/283/238
f 261/303/258 258/304/259 259/305/260 260/306/261
f 265/307/262 262/308/263 263/309/264 264/310/265
f 273/311/266 270/312/267 271/313/268 272/314/269
f 269/315/270 266/316/271 267/317/272 268/318/273
f 258/304/259 265/307/262 264/310/265 259/305/260
f 266/316/271 261/303/258 260/306/261 267/317/272
f 268/318/273 271/313/268 270/312/267 269/315/270
f 272/314/269 263/309/264 262/308/263 273/311/266
f 222/301/256 259/305/260 264/310/265 237/302/257
f 223/295/250 260/306/261 259/305/260 222/301/256
f 244/294/249 267/317/272 260/306/261 223/295/250
f 263/309/264 219/268/223 237/302/257 264/310/265
f 219/268/223 263/309/264 272/314/269 243/269/224
f 267/317/272 244/294/249 249/276/231 268/318/273
f 238/275/230 271/313/268 268/318/273 249/276/231
f 271/313/268 238/275/230 243/269/224 272/314/269
f 261/303/258 266/316/271 269/315/270 270/312/267 273/311/266 262/308/263 265/307/262 258/304/259
f 277/319/274 281/320/275 282/321/276 278/322/277
f 279/323/278 282/321/276 281/320/275 280/324/279
f 286/325/280 274/326/281 287/327/282
f 288/328/283 280/329/279 281/330/275 287/327/282
f 283/331/284 284/332/285 285/333/286
f 279/334/278 276/335/287 285/336/286 284/337/285 282/338/276
f 275/339/288 278/340/277 282/338/276 284/337/285 283/341/284
f 274/326/281 288/328/283 287/327/282
f 277/342/274 286/325/280 287/327/282 281/330/275
f 292/343/289 296/344/290 297/345/291 293/346/292
f 294/347/293 297/345/291 296/344/290 295/348/294
f 301/349/295 289/350/296 302/351/297
f 303/352/298 295/348/294 296/344/290 302/351/297
f 298/353/299 299/354/300 300/355/301
f 294/356/293 291/357/302 300/358/301 299/359/300 297/360/291
f 290/361/303 293/362/292 297/360/291 299/359/300 298/363/299
f 289/350/296 303/352/298 302/351/297
f 292/343/289 301/349/295 302/351/297 296/344/290
f 326/364/304 325/365/305 334/366/306 333/367/307
f 304/368/308 305/369/309 329/370/310 328/371/311
f 320/372/312 304/368/308 328/371/311 327/373/313
f 339/374/314 320/372/312 327/373/313 342/375/315
f 325/365/305 324/376/316 335/377/317 334/366/306
f 340/378/318 326/364/304 333/367/307 343/379/319
f 339/374/314 315/380/320 314/381/321 337/382/322
f 340/378/318 319/383/323 318/384/324 342/375/315
f 341/385/325 317/386/326 316/387/327 343/379/319
f 314/381/321 315/380/320 318/384/324 319/383/323 316/387/327 317/386/326 312/388/328 313/389/329
f 341/385/325 332/390/330 311/391/331 336/392/332
f 332/390/330 331/393/333 310/394/334 311/391/331
f 331/393/333 330/395/335 309/396/336 310/394/334
f 338/397/337 306/398/338 321/399/339 337/382/322
f 306/398/338 307/400/340 322/401/341 321/399/339
f 307/400/340 308/402/342 323/403/343 322/401/341
f 330/395/335 331/393/333 334/366/306 335/377/317
f 331/393/333 332/390/330 333/367/307 334/366/306
f 324/376/316 325/365/305 328/371/311 329/370/310
f 325/365/305 326/364/304 327/373/313 328/371/311
f 305/369/309 304/368/308 322/401/341 323/403/343
f 304/368/308 320/372/312 321/399/339 322/401/341
f 336/392/332 311/391/331 306/398/338 338/397/337
f 311/391/331 310/394/334 307/400/340 306/398/338
f 310/394/334 309/396/336 308/402/342 307/400/340
f 312/388/328 336/392/332 338/397/337 313/389/329
f 313/389/329 338/397/337 337/382/322 314/381/321
f 317/386/326 341/385/325 336/392/332 312/388/328
f 332/390/330 341/385/325 343/379/319 333/367/307
f 326/364/304 340/378/318 342/375/315 327/373/313
f 320/372/312 339/374/314 337/382/322 321/399/339
f 319/383/323 340/378/318 343/379/319 316/387/327
f 315/380/320 339/374/314 342/375/315 318/384/324
f 347/404/344 344/405/345 345/406/346 346/407/347
f 351/408/348 348/409/349 349/410/350 350/411/351
f 359/412/352 356/413/353 357/414/354 358/415/355
f 355/416/356 352/417/357 353/418/358 354/419/359
f 344/405/345 351/408/348 350/411/351 345/406/346
f 352/417/357 347/404/344 346/407/347 353/418/358
f 354/419/359 357/414/354 356/413/353 355/416/356
f 358/415/355 349/410/350 348/409/349 359/412/352
f 308/402/342 345/406/346 350/411/351 323/403/343
f 309/396/336 346/407/347 345/406/346 308/402/342
f 330/395/335 353/418/358 346/407/347 309/396/336
f 349/410/350 305/369/309 323/403/343 350/411/351
f 305/369/309 349/410/350 358/415/355 329/370/310
f 353/418/358 330/395/335 335/377/317 354/419/359
f 324/376/316 357/414/354 354/419/359 335/377/317
f 357/414/354 324/376/316 329/370/310 358/415/355
f 347/404/344 352/417/357 355/416/356 356/413/353 359/412/352 348/409/349 351/408/348 344/405/345
f 382/420/360 381/421/361 390/422/362 389/423/363
f 360/424/364 361/425/365 385/426/366 384/427/367
f 376/428/368 360/424/364 384/427/367 383/429/369
f 395/430/370 376/428/368 383/429/369 398/431/371
f 381/421/361 380/432/372 391/433/373 390/422/362
f 396/434/374 382/420/360 389/423/363 399/435/375
f 395/430/370 371/436/376 370/437/377 393/438/378
f 396/434/374 375/439/379 374/440/380 398/431/371
f 397/441/381 373/442/382 372/443/383 399/435/375
f 370/437/377 371/436/376 374/440/380 375/439/379 372/443/383 373/442/382 368/444/384 369/445/385
f 397/441/381 388/446/386 367/447/387 392/448/388
f 388/446/386 387/449/389 366/450/390 367/447/387
f 387/449/389 386/451/391 365/452/392 366/450/390
f 394/453/393 362/454/394 377/455/395 393/438/378
f 362/454/394 363/456/396 378/457/397 377/455/395
f 363/456/396 364/458/398 379/459/399 378/457/397
f 386/451/391 387/449/389 390/422/362 391/433/373
f 387/449/389 388/446/386 389/423/363 390/422/362
f 380/432/372 381/421/361 384/427/367 385/426/366
f 381/421/361 382/420/360 383/429/369 384/427/367
f 361/425/365 360/424/364 378/457/397 379/459/399
f 360/424/364 376/428/368 377/455/395 378/457/397
f 392/448/388 367/447/387 362/454/394 394/453/393
f 367/447/387 366/450/390 363/456/396 362/454/394
f 366/450/390 365/452/392 364/458/398 363/456/396
f 368/444/384 392/448/388 394/453/393 369/445/385
f 369/445/385 394/453/393 393/438/378 370/437/377
f 373/442/382 397/441/381 392/448/388 368/444/384
f 388/446/386 397/441/381 399/435/375 389/423/363
f 382/420/360 396/434/374 398/431/371 383/429/369
f 376/428/368 395/430/370 393/438/378 377/455/395
f 375/439/379 396/434/374 399/435/375 372/443/383
f 371/436/376 395/430/370 398/431/371 374/440/380
f 403/460/400 400/461/401 401/462/402 402/463/403
f 407/464/404 404/465/405 405/466/406 406/467/407
f 415/468/408 412/469/409 413/470/410 414/471/411
f 411/472/412 408/473/413 409/474/414 410/475/415
f 400/461/401 407/464/404 406/467/407 401/462/402
f 408/473/413 403/460/400 402/463/403 409/474/414
f 410/475/415 413/470/410 412/469/409 411/472/412
f 414/471/411 405/466/406 404/465/405 415/468/408
f 364/458/398 401/462/402 406/467/407 379/459/399
f 365/452/392 402/463/403 401/462/402 364/458/398
f 386/451/391 409/474/414 402/463/403 365/452/392
f 405/466/406 361/425/365 379/459/399 406/467/407
f 361/425/365 405/466/406 414/471/411 385/426/366
f 409/474/414 386/451/391 391/433/373 410/475/415
f 380/432/372 413/470/410 410/475/415 391/433/373
f 413/470/410 380/432/372 385/426/366 414/471/411
f 403/460/400 408/473/413 411/472/412 412/469/409 415/468/408 404/465/405 407/464/404 400/461/401
f 419/476/416 423/477/417 424/478/418 420/479/419
f 421/480/420 424/478/418 423/477/417 422/481/421
f 428/482/422 416/483/423 429/484/424
f 430/485/425 422/486/421 423/487/417 429/488/424
f 425/489/426 426/490/427 427/491/428
f 421/492/420 418/493/429 427/494/428 426/495/427 424/496/418
f 417/497/430 420/498/419 424/496/418 426/495/427 425/499/426
f 416/500/423 430/501/425 429/502/424
f 419/503/416 428/504/422 429/488/424 423/487/417
